<svg id="svg" version="1.1" viewBox="0 0 300 300" width="300" height="300" xmlns="http://www.w3.org/2000/svg"><svg xmlns="http://www.w3.org/2000/svg"><defs><clipPath id="clip-1"><rect x="0" y="0" transform="scale(0.29297,0.29297)" width="1024" height="1024" fill="none"/></clipPath><linearGradient x1="181.17393" y1="184.36758" x2="118.89375" y2="39.43154" gradientUnits="userSpaceOnUse" id="color-1"><stop offset="0" stop-color="#006ae0"/><stop offset="1" stop-color="#2796f8"/></linearGradient><linearGradient x1="260.13779" y1="231.04453" x2="35.8207" y2="86.50107" gradientUnits="userSpaceOnUse" id="color-2"><stop offset="0" stop-color="#003c92"/><stop offset="1" stop-color="#0055d6"/></linearGradient><linearGradient x1="202.56152" y1="142.62715" x2="219.68936" y2="167.15977" gradientUnits="userSpaceOnUse" id="color-3"><stop offset="0" stop-color="#aeddf2"/><stop offset="1" stop-color="#7ccfff"/></linearGradient><linearGradient x1="137.08652" y1="101.04463" x2="140.27168" y2="106.86152" gradientUnits="userSpaceOnUse" id="color-4"><stop offset="0" stop-color="#004cc1"/><stop offset="1" stop-color="#001a7c"/></linearGradient><linearGradient x1="105.89854" y1="112.73291" x2="105.92402" y2="116.00771" gradientUnits="userSpaceOnUse" id="color-5"><stop offset="0" stop-color="#0256db"/><stop offset="1" stop-color="#0034a9"/></linearGradient><linearGradient x1="204.78545" y1="116.09209" x2="207.19482" y2="119.69209" gradientUnits="userSpaceOnUse" id="color-6"><stop offset="0" stop-color="#0069dc"/><stop offset="1" stop-color="#002796"/></linearGradient></defs><g clip-path="url(#clip-1)" fill="none" fill-rule="nonzero" stroke="none" stroke-width="1" stroke-linecap="butt" stroke-linejoin="miter" stroke-miterlimit="10" stroke-dasharray="" stroke-dashoffset="0" font-family="none" font-weight="none" font-size="none" text-anchor="none" style="mix-blend-mode: normal"><path d="M139.10742,30.54404c4.53369,-3.3247 13.03037,-3.21193 17.80781,-0.42891c7.00869,4.08223 13.94473,8.47676 20.9042,12.66973l47.5541,28.89492l46.70801,28.4376c5.31504,3.27422 13.1417,7.1127 17.40234,11.65957c1.23018,1.31279 1.75488,4.29814 1.71504,6.11484c-0.34775,4.74668 -0.03164,9.19922 -0.79248,13.89902c0.10518,0.30732 0.35918,1.11914 0.48633,1.37813l0.14004,0.95596c0.42568,1.91162 0.04131,15.18984 0.03545,18.31758l0.07646,19.96055c-0.01787,2.91885 -0.00146,5.99092 -0.16992,8.89512c-0.11777,2.02734 -1.17334,4.3125 -1.8,6.30586c0.91641,0.02813 1.79033,-0.06152 2.47031,0.53789c0.40635,3.254 -9.7582,9.65771 -12.46436,11.3625c-3.68467,2.3209 -9.83467,8.21191 -14.02119,9.16201c-3.65947,2.21104 -7.13584,5.57666 -10.90371,7.84277c-4.32188,2.59893 -9.42275,4.65557 -13.64766,7.29727c-7.55859,4.72588 -14.80518,9.85488 -22.66436,14.1167c-2.27051,1.26006 -4.50293,3.17256 -6.80449,4.45137c-2.86904,1.7083 -6.23496,3.09023 -9.05889,4.72998c-3.27217,1.89961 -6.10107,4.8375 -9.88711,6.15498c-5.71699,4.22402 -16.30225,10.58086 -22.75576,13.18799c-2.26641,1.62773 -11.98242,4.96934 -14.48291,4.68955c-9.67822,-1.08281 -21.44854,-6.13301 -30.34658,-10.21436c-2.00244,-0.91875 -5.27344,-4.1874 -7.43086,-5.50459c-3.2332,-1.97402 -6.496,-3.16084 -9.59033,-4.99688c-5.00537,-2.96953 -9.7251,-6.72627 -14.49961,-9.90264c-2.75801,-1.83457 -7.89111,-3.71631 -10.87441,-5.52949c-2.89072,-1.75664 -5.68799,-4.16895 -8.65781,-5.76064c-8.2377,-4.41563 -16.11592,-9.31611 -24.1752,-14.03408c-2.41846,-1.36084 -4.71621,-3.25283 -7.10215,-4.62949c-9.99463,-5.73574 -19.60687,-11.71025 -28.29012,-19.34736c-3.54352,-3.11631 -4.03008,-0.58242 -4.47372,-6.52646c-0.07318,-1.29111 -1.485,-5.21279 -1.43268,-6.13506c0.30249,-5.33086 -1.31543,-47.90947 -0.06428,-50.4917c0.24196,-1.13643 -0.36812,-10.91836 -0.35314,-13.50586c-0.11171,-3.05244 -0.2497,-3.86074 1.07417,-6.67588c1.69512,-2.96836 3.50619,-4.21582 6.49304,-5.73691c3.15006,-1.74463 6.47121,-3.80537 9.58157,-5.66631l7.86955,-4.44551l6.34805,-3.75293c1.80674,-1.25391 6.74297,-4.10625 8.7,-4.99541c4.15078,-3.00615 12.90352,-7.45195 17.58721,-10.19648c9.22295,-5.40439 18.4667,-10.76514 27.7002,-16.16367c2.77646,-1.12529 10.13203,-5.65371 13.00986,-7.33623l20.84004,-11.96807c2.39678,-1.52402 9.86367,-6.00293 12.23994,-7.07695zM167.97393,219.54316c-0.22031,0.8083 -0.97295,3.32754 -0.93105,3.96035c0.21328,3.23584 5.10938,3.2332 6.19482,0.30703c0.78926,-2.12813 0.94775,-4.04736 -0.7582,-5.5667c-0.91641,-0.51709 -1.83984,-0.20215 -2.90479,-0.00908z" fill="url(#color-1)"/><path d="M7.6638,114.5584l0.33636,0.16523c0.41484,-0.68965 0.54823,-0.91406 1.09614,-1.49883l0.46913,0.10488c1.42819,4.06172 10.45919,7.95791 14.24007,10.31396c5.47441,3.41133 11.2154,6.67705 16.74753,9.99375l70.12793,41.98096l17.4624,10.37402c1.99629,1.18623 5.06514,2.80518 6.89795,4.04736c2.53008,1.60283 7.32568,4.79531 9.9208,6.03662c2.67539,0.97822 3.73389,0.69346 5.85557,1.31953l2.69004,-0.00732c3.16172,-0.39053 4.78887,-0.56309 7.71328,-1.83281c2.50459,-1.23721 5.7416,-3.37354 8.22656,-4.83926l16.2832,-9.66152c3.52178,-2.12344 7.23838,-4.03975 10.78975,-6.12275l24.71016,-14.74746l47.55996,-28.2085c4.42764,-2.65518 15.29736,-8.53828 18.90938,-11.72285c0.32461,-0.26895 1.40566,-1.56299 1.74697,-1.95586c0.46143,0.12393 0.78076,0.13857 1.24893,0.18105l0.50303,-0.58682c-0.34775,4.74668 -0.03164,9.19922 -0.79248,13.89902c0.10518,0.30732 0.35918,1.11914 0.48633,1.37813l0.14004,0.95596c0.42568,1.91162 0.04131,15.18984 0.03545,18.31758l0.07646,19.96055c-0.01787,2.91885 -0.00146,5.99092 -0.16992,8.89512c-0.11777,2.02734 -1.17334,4.3125 -1.8,6.30586c0.91641,0.02813 1.79033,-0.06152 2.47031,0.53789c0.40635,3.254 -9.7582,9.65771 -12.46436,11.3625c-3.68467,2.3209 -9.83467,8.21191 -14.02119,9.16201c-3.65947,2.21104 -7.13584,5.57666 -10.90371,7.84277c-4.32188,2.59893 -9.42275,4.65557 -13.64766,7.29727c-7.55859,4.72588 -14.80518,9.85488 -22.66436,14.1167c-2.27051,1.26006 -4.50293,3.17256 -6.80449,4.45137c-2.86904,1.7083 -6.23496,3.09023 -9.05889,4.72998c-3.27217,1.89961 -6.10107,4.8375 -9.88711,6.15498c-5.71699,4.22402 -16.30225,10.58086 -22.75576,13.18799c-2.26641,1.62773 -11.98242,4.96934 -14.48291,4.68955c-9.67822,-1.08281 -21.44854,-6.13301 -30.34658,-10.21436c-2.00244,-0.91875 -5.27344,-4.1874 -7.43086,-5.50459c-3.2332,-1.97402 -6.496,-3.16084 -9.59033,-4.99688c-5.00537,-2.96953 -9.7251,-6.72627 -14.49961,-9.90264c-2.75801,-1.83457 -7.89111,-3.71631 -10.87441,-5.52949c-2.89072,-1.75664 -5.68799,-4.16895 -8.65781,-5.76064c-8.2377,-4.41563 -16.11592,-9.31611 -24.1752,-14.03408c-2.41846,-1.36084 -4.71621,-3.25283 -7.10215,-4.62949c-9.99463,-5.73574 -19.60687,-11.71025 -28.29012,-19.34736c-3.54352,-3.11631 -4.03008,-0.58242 -4.47372,-6.52646c-0.07318,-1.29111 -1.485,-5.21279 -1.43268,-6.13506c0.30249,-5.33086 -1.31543,-47.90947 -0.06428,-50.4917c0.24196,-1.13643 -0.36812,-10.91836 -0.35314,-13.50586zM167.97393,219.54316c-0.22031,0.8083 -0.97295,3.32754 -0.93105,3.96035c0.21328,3.23584 5.10938,3.2332 6.19482,0.30703c0.78926,-2.12813 0.94775,-4.04736 -0.7582,-5.5667c-0.91641,-0.51709 -1.83984,-0.20215 -2.90479,-0.00908z" fill="url(#color-2)"/><path d="M9.5139,184.69102l1.27143,1.13232c9.17262,3.76143 18.39697,9.70225 26.90657,14.8957l28.92686,17.50166c17.88105,10.47891 35.64434,21.1582 53.28604,32.03555c6.88857,4.2542 12.22061,6.97471 19.0333,11.72021c16.27061,9.48516 24.87188,1.079 38.93145,-7.49854l16.16191,-9.66826l48.34307,-28.74727c11.64053,-6.9082 23.11113,-14.17002 35.05254,-20.55c2.31563,-1.23721 9.7415,-7.12939 11.54004,-7.41357l0.20771,-0.49482c0.91641,0.02813 1.79033,-0.06152 2.47031,0.53789c0.40635,3.254 -9.7582,9.65771 -12.46436,11.3625c-3.68467,2.3209 -9.83467,8.21191 -14.02119,9.16201c-3.65947,2.21104 -7.13584,5.57666 -10.90371,7.84277c-4.32188,2.59893 -9.42275,4.65557 -13.64766,7.29727c-7.55859,4.72588 -14.80518,9.85488 -22.66436,14.1167c-2.27051,1.26006 -4.50293,3.17256 -6.80449,4.45137c-2.86904,1.7083 -6.23496,3.09023 -9.05889,4.72998c-3.27217,1.89961 -6.10107,4.8375 -9.88711,6.15498c-5.71699,4.22402 -16.30225,10.58086 -22.75576,13.18799c-2.26641,1.62773 -11.98242,4.96934 -14.48291,4.68955c-9.67822,-1.08281 -21.44854,-6.13301 -30.34658,-10.21436c-2.00244,-0.91875 -5.27344,-4.1874 -7.43086,-5.50459c-3.2332,-1.97402 -6.496,-3.16084 -9.59033,-4.99688c-5.00537,-2.96953 -9.7251,-6.72627 -14.49961,-9.90264c-2.75801,-1.83457 -7.89111,-3.71631 -10.87441,-5.52949c-2.89072,-1.75664 -5.68799,-4.16895 -8.65781,-5.76064c-8.2377,-4.41563 -16.11592,-9.31611 -24.1752,-14.03408c-2.41846,-1.36084 -4.71621,-3.25283 -7.10215,-4.62949c-9.99463,-5.73574 -19.60687,-11.71025 -28.29012,-19.34736c-3.54352,-3.11631 -4.03008,-0.58242 -4.47372,-6.52646z" fill="#a7a4a6"/><path d="M288.96709,188.09883l0.20771,-0.49482c0.91641,0.02813 1.79033,-0.06152 2.47031,0.53789c0.40635,3.254 -9.7582,9.65771 -12.46436,11.3625c-3.68467,2.3209 -9.83467,8.21191 -14.02119,9.16201c-2.00771,-0.3457 -1.20791,0.48164 -3.07881,0.51123l0.09375,-0.09785c-3.6791,1.49941 -11.40879,7.04824 -15.7957,9.5625c1.6459,-2.89102 11.52832,-6.6835 14.69326,-11.11172c-7.60664,4.14082 -14.45654,8.49756 -21.87979,12.87539l-54.06416,32.26172l-15.58506,9.47344c-13.0998,7.9541 -16.56299,9.4002 -30.60557,1.97461c-0.17227,-0.74268 -0.06328,-1.37666 0.00059,-2.13926c16.27061,9.48516 24.87188,1.079 38.93145,-7.49854l16.16191,-9.66826l48.34307,-28.74727c11.64053,-6.9082 23.11113,-14.17002 35.05254,-20.55c2.31563,-1.23721 9.7415,-7.12939 11.54004,-7.41357z" fill="#020205"/><path d="M288.96709,188.09883l0.20771,-0.49482c0.91641,0.02813 1.79033,-0.06152 2.47031,0.53789c0.40635,3.254 -9.7582,9.65771 -12.46436,11.3625c-3.68467,2.3209 -9.83467,8.21191 -14.02119,9.16201c-2.00771,-0.3457 -1.20791,0.48164 -3.07881,0.51123l0.09375,-0.09785c-3.6791,1.49941 -11.40879,7.04824 -15.7957,9.5625c1.6459,-2.89102 11.52832,-6.6835 14.69326,-11.11172c5.66895,-4.13906 25.86299,-13.87178 27.89502,-19.43174z" fill="#aaa9a8"/><path d="M10.78532,185.82334c9.17262,3.76143 18.39697,9.70225 26.90657,14.8957l28.92686,17.50166c17.88105,10.47891 35.64434,21.1582 53.28604,32.03555c6.88857,4.2542 12.22061,6.97471 19.0333,11.72021c-0.06387,0.7626 -0.17285,1.39658 -0.00059,2.13926c-1.35059,-0.62168 -2.82979,-1.39219 -4.08486,-2.17939c-10.36611,-6.50098 -20.81426,-12.88623 -31.28174,-19.22607l-57.5042,-34.45986c-11.33496,-6.74209 -22.64909,-13.6623 -33.75114,-20.78525c-0.59687,-0.38291 -1.14624,-1.0459 -1.53023,-1.6418z" fill="#020205"/><path d="M246.37881,218.64229c4.38691,-2.51426 12.1166,-8.06309 15.7957,-9.5625l-0.09375,0.09785c1.8709,-0.02959 1.07109,-0.85693 3.07881,-0.51123c-3.65947,2.21104 -7.13584,5.57666 -10.90371,7.84277c-4.32188,2.59893 -9.42275,4.65557 -13.64766,7.29727c-7.55859,4.72588 -14.80518,9.85488 -22.66436,14.1167c-2.27051,1.26006 -4.50293,3.17256 -6.80449,4.45137c-2.86904,1.7083 -6.23496,3.09023 -9.05889,4.72998c-3.27217,1.89961 -6.10107,4.8375 -9.88711,6.15498c-2.03936,-1.49238 -4.5293,1.22051 -6.66768,1.83809c1.67109,-1.9998 11.49316,-7.1584 14.16123,-8.67744c1.45459,-0.82822 2.66279,-3.23203 3.85693,-3.77871c3.72129,-1.70303 7.49795,-3.03428 11.08945,-5.13369c2.26025,-1.12031 4.76865,-4.10947 6.94395,-5.12725c3.60615,-1.68691 6.78721,-2.67861 10.07051,-5.11787c1.75928,-1.30693 3.48018,-2.1082 5.21777,-3.66768l0.01934,-0.84492c1.11328,-1.61807 5.06162,-2.07188 6.81797,-2.6168c0.55605,-0.17227 2.12227,-1.14375 2.67598,-1.49092z" fill="#abadad"/><path d="M185.52568,255.09756c2.13838,-0.61758 4.62832,-3.33047 6.66768,-1.83809c-5.71699,4.22402 -16.30225,10.58086 -22.75576,13.18799c0.33574,-2.9209 13.08398,-9.39785 16.08809,-11.3499z" fill="#aaa9a8"/><path d="M7.6638,114.5584l0.33636,0.16523c0.41484,-0.68965 0.54823,-0.91406 1.09614,-1.49883l0.46913,0.10488c1.42819,4.06172 10.45919,7.95791 14.24007,10.31396c5.47441,3.41133 11.2154,6.67705 16.74753,9.99375l70.12793,41.98096l17.4624,10.37402c1.99629,1.18623 5.06514,2.80518 6.89795,4.04736c2.53008,1.60283 7.32568,4.79531 9.9208,6.03662c-0.97617,4.05937 -0.3583,7.82461 -0.97852,11.48232c-5.45684,-3.45117 -10.86592,-6.32871 -16.36025,-9.58945l-34.56475,-20.60186l-49.16924,-29.53447c-10.50527,-6.22559 -21.01359,-12.91523 -31.66397,-18.97295c-0.77637,-0.4415 -1.16859,-0.87158 -2.07152,-1.1959l-0.25327,0.56924l-1.88364,-0.16904c0.24196,-1.13643 -0.36812,-10.91836 -0.35314,-13.50586z" fill="#004bb9"/><path d="M289.44697,118.29756c0.46143,0.12393 0.78076,0.13857 1.24893,0.18105l0.50303,-0.58682c-0.34775,4.74668 -0.03164,9.19922 -0.79248,13.89902c-2.03555,0.53525 -7.24746,4.40713 -9.4374,5.76211l-15.76729,9.56367c-8.27988,5.04551 -17.10674,9.62021 -25.29873,14.75742c-6.75439,4.23545 -13.29756,7.73789 -20.15508,11.65107c-11.95576,6.82266 -23.58428,14.4249 -35.73984,20.9291c-5.5667,3.04395 -17.56172,11.16387 -22.91807,13.16865c-0.70049,-2.04053 0.0082,-9.41396 0.13096,-12.06709c2.50459,-1.23721 5.7416,-3.37354 8.22656,-4.83926l16.2832,-9.66152c3.52178,-2.12344 7.23838,-4.03975 10.78975,-6.12275l24.71016,-14.74746l47.55996,-28.2085c4.42764,-2.65518 15.29736,-8.53828 18.90938,-11.72285c0.32461,-0.26895 1.40566,-1.56299 1.74697,-1.95586z" fill="#003b99"/><path d="M9.90059,128.2333l0.25327,-0.56924c0.90293,0.32432 1.29516,0.75439 2.07152,1.1959c10.65038,6.05771 21.1587,12.74736 31.66397,18.97295l49.16924,29.53447l34.56475,20.60186c5.49434,3.26074 10.90342,6.13828 16.36025,9.58945c0.62021,-3.65771 0.00234,-7.42295 0.97852,-11.48232c2.67539,0.97822 3.73389,0.69346 5.85557,1.31953l2.69004,-0.00732c3.16172,-0.39053 4.78887,-0.56309 7.71328,-1.83281c-0.12275,2.65313 -0.83145,10.02656 -0.13096,12.06709c5.35635,-2.00479 17.35137,-10.12471 22.91807,-13.16865c12.15557,-6.5042 23.78408,-14.10645 35.73984,-20.9291c6.85752,-3.91318 13.40068,-7.41563 20.15508,-11.65107c8.19199,-5.13721 17.01885,-9.71191 25.29873,-14.75742l15.76729,-9.56367c2.18994,-1.35498 7.40186,-5.22686 9.4374,-5.76211c0.10518,0.30732 0.35918,1.11914 0.48633,1.37813c-2.78613,1.35322 -4.79824,3.72275 -7.06611,4.98809c-6.47139,3.61025 -12.65859,7.51201 -18.9873,11.29746c-24.0627,14.25732 -48.22676,28.34268 -72.49072,42.25459c-9.12656,5.23594 -22.74346,14.02998 -31.8252,18.21592c-5.06602,1.80469 -4.52227,1.03359 -8.68828,1.74141c-9.89473,-0.9293 -20.89014,-11.03584 -30.72129,-15.58477c-0.38789,-0.45088 -6.87539,-4.46367 -7.88262,-5.1668c-5.63203,-3.44912 -11.95137,-6.93574 -17.71406,-10.27471c-2.13779,-1.07988 -4.35439,-2.40322 -6.44561,-3.60205c-2.25527,-2.21631 -13.29932,-8.40146 -16.17422,-10.0582c-4.43057,-2.55293 -9.63252,-5.91328 -14.07041,-8.32939c-1.93477,0.60117 -0.83086,-0.88418 -3.48896,-0.03281c-2.03613,-0.83701 -6.38701,-3.77109 -8.44629,-5.09268c-2.95283,-1.89492 -5.36748,-3.26191 -8.475,-4.93096c-2.77412,-1.4001 -5.38682,-3.33633 -7.85361,-5.20723c-5.18215,-3.1002 -16.34174,-8.85234 -20.90965,-13.33945c-0.35329,-0.34687 -0.03079,-0.93428 0.13523,-1.36641z" fill="#020205"/><path d="M153.50771,197.38857c3.16172,-0.39053 4.78887,-0.56309 7.71328,-1.83281c-0.12275,2.65313 -0.83145,10.02656 -0.13096,12.06709c-1.50088,0.51299 -3.10898,1.09951 -4.62656,1.52549c-2.73838,0.24258 -5.71846,0.4377 -8.43047,-0.06973c-1.6875,-0.47139 -2.47529,-0.65977 -4.04941,-1.51992c0.62021,-3.65771 0.00234,-7.42295 0.97852,-11.48232c2.67539,0.97822 3.73389,0.69346 5.85557,1.31953z" fill="#003b99"/><path d="M153.50771,197.38857c3.16172,-0.39053 4.78887,-0.56309 7.71328,-1.83281c-0.12275,2.65313 -0.83145,10.02656 -0.13096,12.06709c-1.50088,0.51299 -3.10898,1.09951 -4.62656,1.52549l-0.66006,-0.22676c-1.11387,-1.44229 0.79688,-8.22188 -0.53789,-10.29141c-0.33691,-0.52266 -1.23662,-0.96475 -1.75781,-1.2416z" fill="#004bb9"/><path d="M144.96211,196.07637c2.67539,0.97822 3.73389,0.69346 5.85557,1.31953c-0.76025,0.03018 -1.19795,0.05098 -1.96025,0.1749c-1.6043,2.67686 2.01621,10.62275 -0.82441,11.50781c-1.6875,-0.47139 -2.47529,-0.65977 -4.04941,-1.51992c0.62021,-3.65771 0.00234,-7.42295 0.97852,-11.48232z" fill="#015ed1"/><path d="M9.78867,128.68096c6.39179,5.26143 15.12832,8.83682 21.22939,13.21934c0.51592,0.79746 0.79131,1.14023 1.39834,1.8498c-0.7459,-0.2001 -1.08721,-0.28125 -1.85332,-0.36328c-5.18215,-3.1002 -16.34174,-8.85234 -20.90965,-13.33945c-0.35329,-0.34687 -0.03079,-0.93428 0.13523,-1.36641z" fill="#63b3f2"/><path d="M38.4167,148.59404l0.26836,-0.62988c1.38018,-0.30557 1.79795,0.91992 3.77549,1.02363c4.18564,2.08213 12.40811,6.99375 16.36641,9.6627c-1.93477,0.60117 -0.83086,-0.88418 -3.48896,-0.03281c-2.03613,-0.83701 -6.38701,-3.77109 -8.44629,-5.09268c-2.95283,-1.89492 -5.36748,-3.26191 -8.475,-4.93096z" fill="#63b3f2"/><path d="M31.01807,141.90029c1.60195,0.78223 9.96885,5.92793 11.44248,7.0875c-1.97754,-0.10371 -2.39531,-1.3292 -3.77549,-1.02363l-0.26836,0.62988c-2.77412,-1.4001 -5.38682,-3.33633 -7.85361,-5.20723c0.76611,0.08203 1.10742,0.16318 1.85332,0.36328c-0.60703,-0.70957 -0.88242,-1.05234 -1.39834,-1.8498z" fill="#53a9f6"/><path d="M160.52344,209.925c9.08174,-4.18594 22.69863,-12.97998 31.8252,-18.21592c24.26396,-13.91191 48.42803,-27.99727 72.49072,-42.25459c6.32871,-3.78545 12.51592,-7.68721 18.9873,-11.29746c2.26787,-1.26533 4.27998,-3.63486 7.06611,-4.98809l0.14004,0.95596c-1.54189,3.7002 -22.63975,15.07734 -27.05859,17.69854l-46.8501,27.48252l-33.21357,19.37607c-7.18154,4.2293 -14.33994,8.94551 -21.96328,12.61143c-0.49717,-0.32227 -1.00635,-0.92285 -1.42383,-1.36846z" fill="#2d98ed"/><path d="M121.0623,197.97129l0.21621,-0.21855c-0.37148,-0.67002 -3.08877,-2.01855 -3.94277,-2.46973l0.15088,-0.27393c1.06934,-0.05947 2.0124,0.71807 3.1623,1.30254l0.46494,-0.22998c9.83115,4.54893 20.82656,14.65547 30.72129,15.58477c1.05879,0.51299 1.18652,0.0873 2.23037,0.9123l-0.03193,0.11807l-0.60879,0.16611l-0.11895,-0.42627l-0.08379,0.50215l-2.20488,0.30205c-1.1877,0.075 -3.72275,-0.22354 -4.8293,-0.65771l-0.2165,-0.08643c-2.96777,-1.16104 -5.27314,-3.03457 -8.01533,-4.5498c-5.78789,-3.19893 -11.40088,-6.24521 -16.89375,-9.97559z" fill="#2d98ed"/><path d="M55.33799,158.61768c2.65811,-0.85137 1.5542,0.63398 3.48896,0.03281c4.43789,2.41611 9.63984,5.77646 14.07041,8.32939c2.8749,1.65674 13.91895,7.84189 16.17422,10.0582c-0.77314,0.24609 -1.01602,0.26719 -1.48652,0.90996c-0.94189,-0.26836 -8.15273,-5.3915 -9.70957,-6.31143c-3.29561,-1.94766 -7.18154,-3.5833 -10.38838,-5.50137c-4.13525,-2.47354 -7.9002,-5.09063 -12.14912,-7.51758z" fill="#53a9f6"/><path d="M95.51719,180.64014c5.7627,3.33896 12.08203,6.82559 17.71406,10.27471l0.00059,1.29141c-0.45176,0.11865 -0.46641,0.14912 -0.92666,0.11572c-5.21982,-4.07549 -13.86094,-6.83057 -17.73604,-10.15869c0.479,-0.40518 0.66768,-0.94629 0.94805,-1.52314z" fill="#53a9f6"/><path d="M151.83516,211.66641c4.16602,-0.70781 3.62227,0.06328 8.68828,-1.74141c0.41748,0.44561 0.92666,1.04619 1.42383,1.36846c-3.60967,2.11025 -6.81885,2.19375 -10.93008,1.94736l2.20488,-0.30205l0.08379,-0.50215l0.11895,0.42627l0.60879,-0.16611l0.03193,-0.11807c-1.04385,-0.825 -1.17158,-0.39932 -2.23037,-0.9123z" fill="#3884e7"/><path d="M113.23125,190.91484c1.00723,0.70313 7.49473,4.71592 7.88262,5.1668l-0.46494,0.22998c-1.1499,-0.58447 -2.09297,-1.36201 -3.1623,-1.30254l-0.15088,0.27393c0.854,0.45117 3.57129,1.79971 3.94277,2.46973l-0.21621,0.21855c-2.46094,-1.01045 -6.64658,-3.9917 -8.75713,-5.64932c0.46025,0.0334 0.4749,0.00293 0.92666,-0.11572z" fill="#3884e7"/><path d="M87.58506,177.94805c0.47051,-0.64277 0.71338,-0.66387 1.48652,-0.90996c2.09121,1.19883 4.30781,2.52217 6.44561,3.60205c-0.28037,0.57686 -0.46904,1.11797 -0.94805,1.52314c-2.52129,-1.42178 -4.55889,-2.60068 -6.98408,-4.21523z" fill="#63b3f2"/><path d="M17.97797,140.4791c5.1102,2.48584 15.95162,10.17773 21.3358,13.49033l50.32529,30.56865c4.76484,2.9083 10.1042,5.12988 14.87402,7.9793c5.87402,3.50859 11.61006,7.51406 17.49346,11.01885c5.2834,3.14678 8.90742,4.70508 13.58057,8.75771c0.77988,1.004 1.45605,1.96816 1.57266,3.27627c0.85313,9.56543 0.32256,19.304 0.57656,28.91221c0.03838,1.44375 0.00615,2.88955 -0.11719,4.321c-0.39609,0.68613 -0.44941,0.77549 -1.16309,1.10742c0.44355,0.56191 0.26279,0.84932 0.04658,1.3793l-0.56162,-0.01582c-4.48682,-2.98916 -8.88076,-5.63525 -13.4209,-8.46855c-5.34141,-3.3334 -10.17041,-7.05703 -16.05732,-9.58066c-0.69727,-0.29883 -1.82373,-1.32246 -1.48564,-2.18496c-0.946,-1.15049 -29.7249,-17.70586 -33.41543,-19.90283c-0.53437,0.14561 -1.17129,0.29355 -1.68809,-0.01406c-3.76025,-2.47178 -8.05371,-4.56973 -11.80049,-7.0084c-5.2459,-3.41484 -10.08018,-6.77227 -15.81211,-9.46699c-1.59111,-0.74824 -3.55254,-2.57344 -5.1583,-3.51533c-2.1665,-1.27061 -4.32715,-2.58047 -6.52822,-3.7998c-1.0957,-0.65391 -1.1707,-0.62051 -1.48248,-1.80762c-0.60211,-0.79336 -5.96575,-3.72715 -7.12532,-4.29814c-2.13855,0.15059 -4.59697,-0.88506 -4.86776,-3.23115c-0.84721,-10.45986 0.629,-21.96328 0.07102,-32.51338c-0.10714,-2.02559 0.17089,-3.12744 0.80801,-5.00332z" fill="#020205"/><path d="M25.71583,147.23115c5.86679,3.17549 12.80575,8.04844 18.83446,11.61563c2.18145,1.18799 4.74521,2.50635 6.79834,3.84521c5.48643,2.96807 10.26387,6.64365 15.57246,9.71982c-0.77402,0.31846 -1.11562,0.47285 -1.85654,0.90703c-0.9542,0.22881 -0.66211,0.03164 -1.24072,0.66621l0.72129,0.35215l-0.07031,0.49922c-0.35625,6.24697 -0.56279,17.04521 -0.18955,23.3083c-0.2584,0.44385 -0.40547,0.8165 -0.8373,1.07637c-0.98467,-1.12236 -4.70596,-2.97627 -6.34775,-3.94775c-0.59736,0.97031 0.21475,0.7916 0.07969,2.23652c-1.93066,0.54844 -7.20908,-3.98818 -9.25195,-5.05371l-0.20127,-0.10312l-0.23994,-0.00205c-0.46113,-0.2502 -4.16777,-2.72021 -4.34473,-2.96572l-0.99111,-0.66855c-0.31641,-1.06641 -0.2127,-0.78164 0.11953,-1.98457l-0.20977,-0.8373c-0.60791,-0.58535 -0.93516,-0.55371 -1.75371,-0.6375c0.38789,-1.85127 0.36299,-9.78193 0.39463,-12.08379c-1.93154,-0.55107 -3.61494,-1.70215 -5.29512,-2.76123c-4.71006,-2.96924 -9.57814,-5.67275 -14.34545,-8.54766c0.58072,-0.76729 0.41889,-0.41426 0.43479,-1.58994c-0.85397,-0.97324 -0.6336,-10.1751 -0.39829,-11.85557c0.85263,-0.2335 0.89467,-0.03955 1.8605,0.28008c1.96992,0.09053 1.74501,0.0085 2.75783,-1.46807z" fill="#020205"/><path d="M25.71583,147.23115c5.86679,3.17549 12.80575,8.04844 18.83446,11.61563c-1.06523,0.48311 -1.44199,0.44297 -2.03086,1.26387c-1.14785,-0.3085 -0.76523,-0.13418 -1.62012,-1.04912c0.12979,4.32041 -0.11631,8.65986 -0.32256,12.97939c-3.01699,-2.69209 -15.44871,-11.03086 -19.08097,-11.76621c-0.85397,-0.97324 -0.6336,-10.1751 -0.39829,-11.85557c0.85263,-0.2335 0.89467,-0.03955 1.8605,0.28008c1.96992,0.09053 1.74501,0.0085 2.75783,-1.46807z" fill="#020205"/><path d="M25.71583,147.23115c5.86679,3.17549 12.80575,8.04844 18.83446,11.61563c-1.06523,0.48311 -1.44199,0.44297 -2.03086,1.26387c-1.14785,-0.3085 -0.76523,-0.13418 -1.62012,-1.04912c-0.17051,-0.26309 -0.45586,-0.52764 -0.67998,-0.76113l-0.56836,0.01846c-0.5165,0.92402 -0.62197,1.00781 -1.47041,1.60898c-1.83867,0.27334 -2.08447,-2.2916 -2.24502,-3.69463c-0.08701,-0.06562 -0.1749,-0.13008 -0.26309,-0.19395c-1.63916,-1.18857 -8.09798,-5.66982 -9.6387,-5.42285c0.22623,1.07139 0.34134,0.82148 -0.04942,1.66846c-0.95262,0.421 -0.56027,0.39932 -1.48544,0.1541c-0.59288,-1.25566 -1.0437,-2.44893 -1.5409,-3.73975c1.96992,0.09053 1.74501,0.0085 2.75783,-1.46807z" fill="#f0f5db"/><path d="M40.89932,159.06152c0.85488,0.91494 0.47227,0.74063 1.62012,1.04912l0.98906,0.28037c-0.49482,2.05459 -0.91875,11.33906 -0.27275,13.37461c0.76758,0.68408 3.34102,0.5373 5.10293,2.17236c2.50576,2.32529 14.40557,7.07051 14.53564,10.80029c-0.88477,-0.046 -18.29795,-10.81406 -19.75547,-12.09404c-0.06445,1.95146 -0.06709,11.12871 -0.84844,12.08789l-0.20977,-0.8373c-0.60791,-0.58535 -0.93516,-0.55371 -1.75371,-0.6375c0.38789,-1.85127 0.36299,-9.78193 0.39463,-12.08379c-1.93154,-0.55107 -3.61494,-1.70215 -5.29512,-2.76123c-4.71006,-2.96924 -9.57814,-5.67275 -14.34545,-8.54766c0.58072,-0.76729 0.41889,-0.41426 0.43479,-1.58994c3.63226,0.73535 16.06397,9.07412 19.08097,11.76621c0.20625,-4.31953 0.45234,-8.65898 0.32256,-12.97939z" fill="#d8dad6"/><path d="M51.81943,165.43916c-0.71924,-2.17705 -2.62939,-1.54277 -3.74121,-2.96309l0.17168,-0.39609c0.93252,-0.21094 2.03467,0.63369 2.86816,1.14727l0.23057,-0.53525c5.48643,2.96807 10.26387,6.64365 15.57246,9.71982c-0.77402,0.31846 -1.11562,0.47285 -1.85654,0.90703c-0.9542,0.22881 -0.66211,0.03164 -1.24072,0.66621c-1.13145,0.10254 -2.90918,-0.46611 -3.90615,-1.02217c-0.6873,-0.3835 -0.69814,-1.42061 -0.86514,-2.27139c-1.26885,-1.74434 -5.24971,-3.98115 -7.23311,-5.25234z" fill="#f0f5db"/><path d="M44.55029,158.84678c2.18145,1.18799 4.74521,2.50635 6.79834,3.84521l-0.23057,0.53525c-0.8335,-0.51357 -1.93564,-1.3582 -2.86816,-1.14727l-0.17168,0.39609c1.11182,1.42031 3.02197,0.78604 3.74121,2.96309c-1.37754,-0.68086 -2.98506,-1.70361 -4.32627,-2.50664c0.34805,1.04883 1.10303,2.65957 0.23965,3.49424c-1.81465,-0.85635 -2.95137,-4.40361 -4.09336,-5.87109l-0.13096,-0.16465l-0.98906,-0.28037c0.58887,-0.8209 0.96562,-0.78076 2.03086,-1.26387z" fill="#f9f8da"/><path d="M43.14199,189.38525c-0.28945,-1.18506 -0.47109,-1.0626 -0.04863,-1.93096c1.54043,-0.51738 3.75059,1.24805 4.77598,2.28018c0.00645,0.77695 -0.10547,0.98027 -0.38408,1.7124l0.24141,0.90615l-0.23994,-0.00205c-0.46113,-0.2502 -4.16777,-2.72021 -4.34473,-2.96572z" fill="#f8f7f8"/><path d="M66.92109,172.41182c5.94521,3.31699 12.02754,7.08047 17.89658,10.57295c2.16709,1.28965 7.33096,4.20967 9.11807,5.52803l0.76758,1.27676l-0.24551,0.39492c-1.90107,0.33779 -1.36758,-0.00117 -2.64756,1.25186c-0.60527,-1.18096 -0.76172,-1.3166 -1.75254,-2.2125c-0.1292,0.25957 -0.33955,0.81035 -0.30937,1.07725c0.26484,2.35312 -0.19482,24.25928 0.22881,24.99463c-0.66475,1.04414 0.24902,0.83701 -0.93486,2.1835l-0.88125,-0.51562c-0.13887,-0.46758 -0.25693,-0.89062 -0.37471,-1.36436c-0.53555,-1.81641 -3.3624,-4.904 -5.22891,-4.99834c-1.00898,0.65479 -0.37998,0.77988 -1.16074,2.15215c-1.44844,0.02725 -9.2707,-5.39004 -10.11621,-6.81592c0.04893,-0.94131 0.10137,-1.21787 -0.24346,-2.13281c-1.1376,-1.34619 -3.20918,-1.74727 -4.90518,-2.17969c-0.51562,-4.34414 -0.2792,-18.32314 -0.16494,-23.05547c0.03809,-2.1999 0.51445,-2.63848 -1.49209,-3.73271l0.07031,-0.49922l-0.72129,-0.35215c0.57861,-0.63457 0.28652,-0.4374 1.24072,-0.66621c0.74092,-0.43418 1.08252,-0.58857 1.85654,-0.90703z" fill="#020205"/><path d="M66.92109,172.41182c5.94521,3.31699 12.02754,7.08047 17.89658,10.57295c2.16709,1.28965 7.33096,4.20967 9.11807,5.52803l0.76758,1.27676l-0.24551,0.39492c-1.90107,0.33779 -1.36758,-0.00117 -2.64756,1.25186c-0.60527,-1.18096 -0.76172,-1.3166 -1.75254,-2.2125c-0.85781,-0.49395 -1.64648,-1.14785 -2.43076,-1.75664c-0.55313,-0.74414 -1.03418,-1.53691 -2.03936,-1.30576c-0.44561,1.12822 -0.54346,1.78887 -1.71621,2.19697c-0.99961,-0.25254 -1.10127,-0.31582 -1.87852,-0.99844c0.03604,-1.06729 0.87861,-0.62607 1.32187,-1.72383c-1.59346,-2.10586 -9.60381,-6.97676 -12.30762,-8.22627c-2.63379,-1.9166 -2.64404,-1.04648 -5.94258,-4.09102c0.74092,-0.43418 1.08252,-0.58857 1.85654,-0.90703z" fill="#f9f8da"/><path d="M87.62695,187.46719c0.78428,0.60879 1.57295,1.2627 2.43076,1.75664c-0.1292,0.25957 -0.33955,0.81035 -0.30937,1.07725c0.26484,2.35312 -0.19482,24.25928 0.22881,24.99463c-0.66475,1.04414 0.24902,0.83701 -0.93486,2.1835l-0.88125,-0.51562c-0.13887,-0.46758 -0.25693,-0.89062 -0.37471,-1.36436l0.24697,-0.61553c-0.74385,-3.83174 -0.23877,-9.69316 -0.66152,-13.72676c-0.18691,-0.18691 -0.34717,-0.34717 -0.48047,-0.48076l0.14238,-0.71309c1.5876,-1.35 -0.49307,-10.05557 0.59326,-12.5959z" fill="#d8dad6"/><path d="M86.89131,200.77617c-2.1999,-0.18252 -19.34531,-10.42148 -20.11055,-11.9332l0.23848,-0.47549c2.37744,-0.75498 18.38496,9.5625 20.01445,11.69561z" fill="#f8f7f8"/><path d="M63.82383,173.98506c0.57861,-0.63457 0.28652,-0.4374 1.24072,-0.66621c3.29854,3.04453 3.30879,2.17441 5.94258,4.09102l-0.05127,0.45498l1.23633,1.38369c-0.17344,0.73799 -0.08818,0.48955 -0.78838,1.07637c-2.61094,-0.28535 -3.25781,-4.47188 -5.01621,-3.59531c-0.31143,0.78281 -0.32549,0.99756 -0.4207,1.83955c0.03809,-2.1999 0.51445,-2.63848 -1.49209,-3.73271l0.07031,-0.49922z" fill="#569d07"/><path d="M111.76055,198.99697c2.34492,1.28379 8.14658,4.47129 10.13437,5.97715c2.48525,1.23369 5.6291,3.3501 8.0335,4.87441l5.1709,3.1793l-0.02314,0.16758c-0.78076,0.16699 -1.46279,0.19365 -1.9418,0.77168l-0.01934,0.33076c-0.26484,3.90146 0.01465,8.58457 -0.0416,12.61846l-0.0082,1.09541l-0.08525,13.35381c-1.16279,-1.19326 -2.59395,-3.01787 -4.23428,-3.13066l-0.41836,0.27246c-0.16113,0.8918 -0.1043,1.24014 -0.02959,2.11553c-0.7708,0.1916 -9.47051,-5.14395 -10.03008,-6.64131c-0.14561,-0.38877 0.20127,-1.22695 0.34219,-1.61338c-0.53057,-1.27295 -4.21084,-2.51777 -5.75391,-3.17432c-0.45527,-0.63105 -0.3583,-1.61455 -0.3832,-2.45479c0.03457,-4.86621 0.67266,-18.6498 0.21328,-22.95557c-1.32539,-0.06328 -1.12764,-0.27246 -1.92158,0.39258c-0.00439,0.62139 0.05127,2.74365 -0.17402,3.13857c-0.05713,-1.6834 -0.2458,-4.44082 0.05947,-6.00117c0.32021,-0.40957 0.86836,-1.7625 1.11064,-2.3165z" fill="#020205"/><path d="M111.76055,198.99697c2.34492,1.28379 8.14658,4.47129 10.13437,5.97715c2.48525,1.23369 5.6291,3.3501 8.0335,4.87441c-0.52529,0.32344 -2.1832,1.27822 -2.72168,1.45313c-2.14189,-1.89961 -5.12637,-3.45791 -6.27217,-4.53955c-1.18887,-0.46582 -1.63389,-1.13232 -2.74893,-1.41094c-0.22266,0.79307 -0.11514,1.37988 -0.05127,2.20049l-0.33486,0.25342c-1.98018,-0.78955 -3.36328,-4.29023 -4.93096,-5.36689l-0.29766,0.27598l0.11514,1.06934c-1.32539,-0.06328 -1.12764,-0.27246 -1.92158,0.39258c-0.00439,0.62139 0.05127,2.74365 -0.17402,3.13857c-0.05713,-1.6834 -0.2458,-4.44082 0.05947,-6.00117c0.32021,-0.40957 0.86836,-1.7625 1.11064,-2.3165z" fill="#f9f8da"/><path d="M133.06523,228.01172c-2.75596,-0.25342 -19.74434,-9.94688 -19.37373,-12.48018c2.30361,-0.05947 16.03564,9.6375 19.38193,11.38477z" fill="#d8dad6"/><path d="M129.92842,209.84854l5.1709,3.1793l-0.02314,0.16758c-0.78076,0.16699 -1.46279,0.19365 -1.9418,0.77168l-0.01934,0.33076c-0.66416,1.25273 -0.36123,1.15664 -1.42998,1.63096c-1.71562,-0.15059 -3.121,-3.03193 -4.47832,-4.62715c0.53848,-0.1749 2.19639,-1.12969 2.72168,-1.45313z" fill="#d8e896"/><path d="M93.93574,188.51279c5.54443,3.02578 12.46934,7.06289 17.8248,10.48418c-0.24229,0.554 -0.79043,1.90693 -1.11064,2.3165c-0.30527,1.56035 -0.1166,4.31777 -0.05947,6.00117c-0.11426,2.85586 -0.01143,4.63945 0.21328,7.50498c0.00264,0.78369 0.03047,1.61221 -0.05273,2.38711c-0.18721,1.02744 -0.15,8.28633 -0.3876,10.65176c-1.28203,-1.13848 -2.5623,-2.6168 -4.25186,-2.6127c-0.59355,0.37061 -0.61846,0.43447 -1.06436,1.00049l-0.11865,0.15293c-1.13379,0.1125 -9.14033,-4.86738 -9.37383,-5.91475c-0.82646,-3.70518 -1.79678,-3.27627 -5.57754,-5.18877c-0.42363,-0.73535 0.03604,-22.6415 -0.22881,-24.99463c-0.03018,-0.26689 0.18018,-0.81768 0.30937,-1.07725c0.99082,0.8959 1.14727,1.03154 1.75254,2.2125c1.27998,-1.25303 0.74648,-0.91406 2.64756,-1.25186l0.24551,-0.39492z" fill="#020205"/><path d="M93.93574,188.51279c5.54443,3.02578 12.46934,7.06289 17.8248,10.48418c-0.24229,0.554 -0.79043,1.90693 -1.11064,2.3165c-0.59443,-0.66562 -1.3418,-1.51875 -2.17705,-1.80381c-0.46992,0.78926 0.44854,1.6875 -0.09521,2.86436c-1.82344,-0.01523 -2.13252,-1.66934 -2.51602,-2.93145c-0.88125,-2.89922 -8.80195,-6.71162 -11.2374,-8.55879c0.15938,1.03154 0.4248,1.94912 -0.00586,2.8793l-0.46875,0.16172c-0.99551,-0.49453 -1.66318,-1.57793 -2.33936,-2.48848c1.27998,-1.25303 0.74648,-0.91406 2.64756,-1.25186l0.24551,-0.39492z" fill="#f0f5db"/><path d="M110.75098,217.20674c-0.04219,-0.43271 -0.10195,-1.30605 -0.41074,-1.68105c-2.38184,-2.89277 -20.45244,-10.38457 -19.22754,-13.4127l0.64658,-0.14707c4.58203,2.11406 12.89121,7.72646 17.36221,10.61396c0.4248,0.27422 1.37637,1.75049 1.68223,2.23975c0.00264,0.78369 0.03047,1.61221 -0.05273,2.38711z" fill="#d8dad6"/><path d="M64.4748,174.83643c2.00654,1.09424 1.53018,1.53281 1.49209,3.73271c-0.11426,4.73232 -0.35068,18.71133 0.16494,23.05547c1.696,0.43242 3.76758,0.8335 4.90518,2.17969c0.34482,0.91494 0.29238,1.1915 0.24346,2.13281c0.84551,1.42588 8.66777,6.84316 10.11621,6.81592c0.78076,-1.37227 0.15176,-1.49736 1.16074,-2.15215c1.8665,0.09434 4.69336,3.18193 5.22891,4.99834c0.11777,0.47373 0.23584,0.89678 0.37471,1.36436l0.88125,0.51563c1.18389,-1.34648 0.27012,-1.13936 0.93486,-2.1835c3.78076,1.9125 4.75107,1.48359 5.57754,5.18877c0.2335,1.04736 8.24004,6.02725 9.37383,5.91475l0.11865,-0.15293c0.4459,-0.56602 0.4708,-0.62988 1.06436,-1.00049c1.68955,-0.0041 2.96982,1.47422 4.25186,2.6127c0.2376,-2.36543 0.20039,-9.62432 0.3876,-10.65176c0.0832,-0.7749 0.05537,-1.60342 0.05273,-2.38711c-0.22471,-2.86553 -0.32754,-4.64912 -0.21328,-7.50498c0.22529,-0.39492 0.16963,-2.51719 0.17402,-3.13857c0.79395,-0.66504 0.59619,-0.45586 1.92158,-0.39258c0.45937,4.30576 -0.17871,18.08936 -0.21328,22.95557c0.0249,0.84023 -0.07207,1.82373 0.3832,2.45479c1.54307,0.65654 5.22334,1.90137 5.75391,3.17432c-0.14092,0.38643 -0.48779,1.22461 -0.34219,1.61338c0.55957,1.49736 9.25928,6.83291 10.03008,6.64131c-0.07471,-0.87539 -0.13154,-1.22373 0.02959,-2.11553l0.41836,-0.27246c1.64033,0.11279 3.07148,1.9374 4.23428,3.13066l0.08525,-13.35381l0.0082,-1.09541c0.05625,-4.03389 -0.22324,-8.71699 0.0416,-12.61846l0.01934,-0.33076c0.479,-0.57803 1.16104,-0.60469 1.9418,-0.77168l0.02314,-0.16758l0.48779,-0.73389c0.77988,1.004 1.45605,1.96816 1.57266,3.27627c0.85313,9.56543 0.32256,19.304 0.57656,28.91221c0.03838,1.44375 0.00615,2.88955 -0.11719,4.321c-0.1002,-0.81826 -0.20742,-1.03066 -0.52646,-1.79619l-0.06914,0.12187c-0.15205,-1.06289 -0.26045,-2.18145 -0.65742,-3.17197c-0.37793,0.50742 -0.35713,2.0042 -0.39609,2.73018c-0.07324,0.36211 -0.24902,0.46641 -0.51738,0.73477c-1.77275,0.0501 -28.45342,-16.99189 -33.01406,-19.65029c-13.09893,-7.63506 -26.89424,-15.62607 -39.77959,-23.62881l0.82998,-1.30869c0.1084,-0.97236 -0.00146,-2.58545 -0.04102,-3.61318c0.43184,-0.25986 0.57891,-0.63252 0.8373,-1.07637c-0.37324,-6.26309 -0.1667,-17.06133 0.18955,-23.3083z" fill="#f8f7f8"/><path d="M135.58711,212.29395c0.77988,1.004 1.45605,1.96816 1.57266,3.27627c0.85313,9.56543 0.32256,19.304 0.57656,28.91221c0.03838,1.44375 0.00615,2.88955 -0.11719,4.321c-0.1002,-0.81826 -0.20742,-1.03066 -0.52646,-1.79619l-0.06914,0.12187c-0.15205,-1.06289 -0.26045,-2.18145 -0.65742,-3.17197c-0.37793,0.50742 -0.35713,2.0042 -0.39609,2.73018c-0.56719,-9.16055 0.32432,-20.1498 -0.02842,-29.44629c-0.05098,-1.34062 0.13711,-3.08115 -0.86543,-4.04561l0.02314,-0.16758z" fill="#04102a"/><path d="M64.28525,198.14473c0.19336,1.51025 0.48926,3.43594 0.12656,4.89551l-0.35889,0.30234c-0.34453,-0.23936 -0.38145,-0.18838 -0.56396,-0.5083c0.1084,-0.97236 -0.00146,-2.58545 -0.04102,-3.61318c0.43184,-0.25986 0.57891,-0.63252 0.8373,-1.07637z" fill="#020205"/><path d="M112.47275,226.73906c0.0249,0.84023 -0.07207,1.82373 0.3832,2.45479c-0.61582,0.85049 0.10547,0.79307 -1.02949,1.94326l0.20186,-0.33135l-0.41074,0.00088c0.07266,-0.80244 0.66123,-3.13857 0.85518,-4.06758z" fill="#04102a"/><path d="M18.51905,142.75459c2.41939,1.45898 4.81854,2.95137 7.19678,4.47656c-1.01282,1.47656 -0.78791,1.55859 -2.75783,1.46807c-0.96583,-0.31963 -1.00787,-0.51357 -1.8605,-0.28008c-0.23531,1.68047 -0.45568,10.88232 0.39829,11.85557c-0.01591,1.17568 0.14593,0.82266 -0.43479,1.58994c4.7673,2.8749 9.63539,5.57842 14.34545,8.54766c1.68018,1.05908 3.36357,2.21016 5.29512,2.76123c-0.03164,2.30186 -0.00674,10.23252 -0.39463,12.08379c0.81855,0.08379 1.1458,0.05215 1.75371,0.6375l0.20977,0.8373c-0.33223,1.20293 -0.43594,0.91816 -0.11953,1.98457l0.99111,0.66855c0.17695,0.24551 3.88359,2.71553 4.34473,2.96572l0.23994,0.00205l0.20127,0.10312c2.04287,1.06553 7.32129,5.60215 9.25195,5.05371c0.13506,-1.44492 -0.67705,-1.26621 -0.07969,-2.23652c1.6418,0.97148 5.36309,2.82539 6.34775,3.94775c0.03955,1.02773 0.14941,2.64082 0.04102,3.61318l-0.82998,1.30869c-1.49648,-0.81211 -3.5165,-2.22363 -5.01357,-3.19219c-6.50918,-4.21055 -13.66377,-7.92832 -20.14893,-12.08232c-4.88057,-2.49404 -15.27316,-8.60479 -19.14656,-12.07002c-0.24563,-4.10537 0.00601,-9.54551 0.05654,-13.72148z" fill="#f8f7f8"/><path d="M21.061,161.86465c4.7673,2.8749 9.63539,5.57842 14.34545,8.54766c1.68018,1.05908 3.36357,2.21016 5.29512,2.76123c-0.03164,2.30186 -0.00674,10.23252 -0.39463,12.08379l-0.92842,0.21357c-0.58477,-0.91641 -2.98799,-2.64932 -4.05703,-2.90244c-0.54082,0.95098 0.28857,1.14902 -0.13008,2.27051c-1.13467,-0.22852 -8.61771,-4.8375 -8.95046,-5.85439c-1.25183,-3.82471 -1.36989,-3.70664 -5.25688,-5.30654c0.05854,-3.9375 0.0842,-7.87529 0.07693,-11.81338z" fill="#020205"/><path d="M29.09203,185.5251c9.5901,5.15947 19.94889,11.8374 29.32506,17.60391c4.44639,2.73428 8.76943,5.11113 13.14463,8.0083c-0.53437,0.14561 -1.17129,0.29355 -1.68809,-0.01406c-3.76025,-2.47178 -8.05371,-4.56973 -11.80049,-7.0084c-5.2459,-3.41484 -10.08018,-6.77227 -15.81211,-9.46699c-1.59111,-0.74824 -3.55254,-2.57344 -5.1583,-3.51533c-2.1665,-1.27061 -4.32715,-2.58047 -6.52822,-3.7998c-1.0957,-0.65391 -1.1707,-0.62051 -1.48248,-1.80762z" fill="#3884e7"/><path d="M104.97715,231.04014c8.14482,4.71152 15.8376,9.79805 23.96045,14.49141c2.23359,1.29053 5.28633,3.43301 7.51846,4.3793c0.44355,0.56191 0.26279,0.84932 0.04658,1.3793l-0.56162,-0.01582c-4.48682,-2.98916 -8.88076,-5.63525 -13.4209,-8.46855c-5.34141,-3.3334 -10.17041,-7.05703 -16.05732,-9.58066c-0.69727,-0.29883 -1.82373,-1.32246 -1.48564,-2.18496z" fill="#3884e7"/><path d="M17.09895,177.9958c1.83111,1.39512 2.87268,2.07832 4.86776,3.23115c-2.13855,0.15059 -4.59697,-0.88506 -4.86776,-3.23115z" fill="#3884e7"/><path d="M169.57471,218.23477c1.16865,-1.22871 4.10215,-1.19941 6.3,-1.70713c0.11924,1.76367 0.75352,2.11377 0.69023,3.18838c0.30586,0.77812 0.31934,0.9999 1.00225,1.44287c-0.61348,1.39775 0.04658,1.06289 0.22002,1.77041l-3.50391,2.03965c0.0334,1.4915 0.54229,5.30098 0.25781,6.21768l-0.29385,0.10459c-0.55166,-0.97617 -0.61289,-3.23496 -0.79541,-4.54629c-1.02744,-0.27041 -5.07217,1.33945 -7.21787,0.046c-0.07383,-0.17227 -0.23057,-0.60762 -0.21562,-0.85225c0.09551,-1.55918 0.39141,-3.33018 0.58008,-4.87412c0.56133,-0.62109 1.01982,-1.12822 1.37549,-1.52139c-0.22031,0.8083 -0.97295,3.32754 -0.93105,3.96035c0.21328,3.23584 5.10938,3.2332 6.19482,0.30703c0.78926,-2.12813 0.94775,-4.04736 -0.7582,-5.5667c-0.91641,-0.51709 -1.83984,-0.20215 -2.90479,-0.00908z" fill="#004bb9"/><path d="M170.53564,235.49355c4.65469,-1.74053 4.00313,6.56191 0.64248,7.7083c-5.2957,1.80615 -5.78262,-6.04277 -0.94336,-7.71123z" fill="#00df00"/><path d="M170.53564,235.49355c1.24307,0.31436 0.82178,0.08408 1.66494,1.21201c0.31846,2.09326 -1.97344,4.79121 -3.78926,3.68818c-0.61436,-1.754 0.71514,-3.68232 1.82344,-4.90312z" fill="#adfd00"/><path d="M169.57471,218.23477c1.06494,-0.19307 1.98838,-0.50801 2.90479,0.00908c1.70596,1.51934 1.54746,3.43857 0.7582,5.5667c-1.08545,2.92617 -5.98154,2.92881 -6.19482,-0.30703c-0.04189,-0.63281 0.71074,-3.15205 0.93105,-3.96035z" fill-opacity="0.98824" fill="#adfd00"/><path d="M180.91377,213.98174c0.97061,-0.71309 0.96504,-0.97207 1.93828,-0.96826c1.10244,0.67588 0.88887,0.33984 1.39541,1.40947c-0.19395,2.77529 -4.55303,5.24854 -6.68027,6.73594c-0.68291,-0.44297 -0.69639,-0.66475 -1.00225,-1.44287c0.06328,-1.07461 -0.571,-1.42471 -0.69023,-3.18838c1.7625,-0.21299 3.57715,-1.54541 5.03906,-2.5459z" fill="#04102a"/><path d="M180.91377,213.98174l0.95098,0.70166c0.64893,1.79297 -0.78867,2.39619 -2.22246,3.25605c-1.31396,1.13906 -2.27812,0.78545 -3.07734,1.77656c0.06328,-1.07461 -0.571,-1.42471 -0.69023,-3.18838c1.7625,-0.21299 3.57715,-1.54541 5.03906,-2.5459z" fill="#012383"/><path d="M181.86475,214.6834c0.64893,1.79297 -0.78867,2.39619 -2.22246,3.25605c-0.41572,-0.16816 -0.38203,-0.18633 -0.63838,-0.56367c0.41133,-1.40273 1.52109,-2.24561 2.86084,-2.69238z" fill="#004bb9"/><path d="M180.77637,231.58564c0.79102,-0.54814 1.4124,-1.10801 2.36396,-1.12559c1.07695,0.63252 0.92578,1.0459 0.91201,2.25498c-0.78281,1.88701 -4.75459,6.56777 -6.95859,5.15156c-0.4084,-0.93076 -0.37002,-1.13408 -0.3085,-2.10381l0.98174,0.28652c1.45869,-0.77871 3.33984,-1.45283 4.05498,-2.70205c-1.01895,-0.12715 -3.3375,1.64824 -4.45957,0.95596c0.19512,-1.72148 1.9166,-2.45244 3.41396,-2.71758z" fill="#012383"/><path d="M180.77637,231.58564c0.79102,-0.54814 1.4124,-1.10801 2.36396,-1.12559c1.07695,0.63252 0.92578,1.0459 0.91201,2.25498c-1.04121,0.31758 -2.53184,0.22705 -3.44209,-0.40693z" fill="#00064e"/><path d="M252.36768,168.91875c0.61641,0.29473 0.66094,0.37998 1.14551,0.88066c1.08076,2.8459 -1.05791,4.91426 -3.10049,6.5959c-3.18604,-2.12812 -0.55664,-5.91387 1.95498,-7.47656z" fill="#020205"/><path d="M236.6124,178.01162c4.40859,1.30986 0.15732,5.54121 -1.66025,6.94277c-0.74238,-0.07383 -0.82178,-0.16348 -1.38281,-0.66768c-1.23105,-2.37422 1.32539,-4.9377 3.04307,-6.2751z" fill="#020205"/><path d="M252.35859,189.78105c0.79277,0.74531 1.61396,2.80313 1.28848,3.90791c-0.54199,1.83984 -1.93037,2.5998 -3.44648,3.54141c-0.59971,-0.09023 -0.63633,-0.19072 -1.09131,-0.64131c-0.77725,-2.44805 1.44316,-5.36836 3.24932,-6.80801z" fill="#020205"/><path d="M275.4208,176.24883c3.68613,1.70859 0.03896,6.0665 -2.16709,7.53047c-3.65479,-0.86162 1.04561,-6.40605 2.16709,-7.53047z" fill="#020205"/><path d="M228.67266,204.00557c4.04912,1.36113 0.99639,5.45215 -1.49268,6.95508c-0.62285,0.24668 -0.36797,0.20098 -1.08604,0.04102c-1.12002,-2.2415 0.99932,-5.46914 2.57871,-6.99609z" fill="#020205"/><path d="M220.096,198.53994c1.15254,0.14648 0.7418,-0.03838 1.60488,0.64043c1.06172,2.37832 -1.19912,4.69687 -2.9748,5.9959c-3.88389,-1.84102 -0.4834,-5.01562 1.36992,-6.63633z" fill="#020205"/><path d="M244.25098,194.37686c0.85078,0.48574 0.73213,0.32988 1.19971,1.34092c0.38496,0.85371 0.40752,1.82725 0.06299,2.69824c-0.79336,2.03027 -1.52168,2.24766 -3.42422,3.05596c-0.10957,0.00967 -0.59854,-0.10049 -0.74092,-0.12891l-0.30762,-0.65449c0.1084,-2.44893 1.5668,-4.59727 3.21006,-6.31172z" fill="#020205"/><path d="M260.05576,185.62031c0.44678,0.2124 0.51387,0.15439 0.78516,0.5792c1.85127,2.89717 -1.15459,5.17881 -3.1875,6.49277c-0.36328,0.06299 -0.56279,-0.09551 -0.89854,-0.26748c-1.03037,-2.24004 1.56885,-5.4917 3.30088,-6.80449z" fill="#020205"/><path d="M259.70596,164.47646c0.59707,0.17021 0.63457,0.24375 1.11387,0.66533c1.34766,2.69326 -0.79717,4.91396 -2.79053,6.51299c-0.42686,0.0252 -0.61436,-0.11455 -0.99756,-0.30205c-1.28789,-2.31592 1.04912,-5.36543 2.67422,-6.87627z" fill="#020205"/><path d="M252.23936,179.77646c3.99551,0.92871 -0.20508,5.55674 -1.90195,6.77959c-0.76143,0.15791 -0.41191,0.21416 -1.08369,-0.16553c-0.17139,-0.59033 -0.21973,-1.20937 -0.14238,-1.81934c0.28096,-2.22334 1.46982,-3.54346 3.12803,-4.79473z" fill="#020205"/><path d="M268.5126,180.97354c0.71865,0.58828 0.80039,2.70557 0.48076,3.5335c-0.79834,2.06895 -2.06865,2.99941 -3.99229,3.95127c-2.1876,-2.69766 1.58203,-6.0416 3.51152,-7.48477z" fill="#020205"/><path d="M243.99902,184.41885c0.9791,0.12451 0.60996,-0.0249 1.40098,0.57217c1.40713,2.5125 -0.78164,4.58145 -2.79521,5.72285c-0.66299,0.09316 -0.62607,0.09375 -1.25127,-0.15234c-1.20439,-2.21367 1.06201,-4.75723 2.64551,-6.14268z" fill="#020205"/><path d="M243.63135,173.56377c0.85928,-0.00264 0.95713,0.06328 1.68193,0.53555c1.32979,2.48057 -0.95244,4.45723 -2.75537,5.88105c-0.53115,0.27539 -0.52617,0.24023 -1.14316,0.21504c-1.1915,-1.93799 0.82529,-5.20254 2.2166,-6.63164z" fill="#020205"/><path d="M236.28223,199.38662c1.02334,0.19072 1.97373,1.47568 1.79092,2.53213c-0.34688,2.00303 -1.95527,3.20977 -3.46758,4.38193c-0.41514,0.16846 -0.36797,0.09141 -0.88154,-0.0041c-1.09395,-2.10791 1.09131,-5.44541 2.5582,-6.90996z" fill="#020205"/><path d="M236.84297,188.83682c0.86719,0.11807 0.53262,-0.01318 1.27412,0.64336c0.92842,2.39355 -1.83281,4.91279 -3.52354,6.18076c-0.39375,-0.09023 -0.51797,-0.24873 -0.86191,-0.50127c-1.2501,-2.56084 1.30928,-4.79209 3.11133,-6.32285z" fill="#020205"/><path d="M228.40342,193.50176c0.98613,0.18428 0.70107,0.13096 1.53545,0.82441c1.21084,2.54883 -1.20059,4.33213 -3.08057,5.45537l-0.99082,-0.06094c-1.80557,-1.71094 1.24482,-4.86064 2.53594,-6.21885z" fill="#020205"/><path d="M219.93662,187.98691c0.7377,0.01143 0.8502,0.00205 1.41592,0.4623c1.17891,2.23213 -0.53906,4.67021 -2.29277,6.01025c-0.49482,-0.05508 -0.67822,-0.16816 -1.14375,-0.3457c-1.67285,-2.17266 0.44238,-4.52871 2.02061,-6.12686z" fill="#020205"/><path d="M219.94951,209.2752c0.71777,0.02578 0.73799,0.05713 1.34385,0.48428c1.52812,2.1835 -0.721,4.70303 -2.24297,6.179c-0.16201,0.03018 -0.70723,0.02197 -0.90498,0.02402c-1.97256,-1.57793 0.67236,-5.1416 1.8041,-6.6873z" fill="#020205"/><path d="M260.09502,175.05557c0.37412,0.20889 0.46934,0.37061 0.76846,0.68584c0.98672,3.03721 -1.04268,4.7874 -3.38525,6.29766c-0.13154,-0.06387 -0.54346,-0.404 -0.68525,-0.51504c-0.8874,-2.63555 1.39307,-5.00537 3.30205,-6.46846z" fill="#020205"/><path d="M274.67549,155.41494c0.72598,-0.01699 0.82383,0.0208 1.5041,0.28242c1.6251,2.04434 -0.20889,4.29668 -1.70977,5.84473c-0.53789,0.39258 -0.57861,0.37617 -1.26533,0.42334c-1.47803,-1.76895 0.271,-5.01504 1.471,-6.55049z" fill="#020205"/><path d="M267.29033,170.92207c0.58271,0.20156 0.69258,0.34248 1.17715,0.74355c1.24746,2.62207 -1.14814,4.62393 -3.09639,6.01465c-0.16582,-0.04277 -0.60293,-0.25811 -0.78369,-0.34102c-1.21465,-2.14805 1.25098,-5.03496 2.70293,-6.41719z" fill="#020205"/><path d="M267.40664,160.41563c0.84844,0.06416 0.53086,-0.05361 1.2123,0.43242c0.82588,2.20869 -1.21992,4.96787 -2.971,6.18486c-3.02578,-2.1917 -0.24639,-5.08682 1.75869,-6.61729z" fill="#020205"/><path d="M228.38789,182.66396c0.71602,0.06826 0.77461,0.19629 1.34619,0.69844c1.28057,2.4123 -0.45762,4.43818 -2.475,5.5957c-3.51123,-1.08223 -0.22002,-4.8126 1.12881,-6.29414z" fill="#020205"/><path d="M275.34229,166.28115c0.90996,0.14883 0.88887,0.48457 1.24482,1.23662c0.01934,1.1291 -0.03105,1.48154 -0.57568,2.48145l-0.08877,0.16143c-0.7125,1.31016 -1.30518,1.63008 -2.55732,2.50547c-3.36035,-0.76055 0.9375,-5.31445 1.97695,-6.38496z" fill="#020205"/><path d="M126.86748,37.621l0.18984,1.27207c-1.65703,1.07666 -3.04482,2.2459 -4.57354,3.49102c1.70684,-0.4793 2.53857,-1.30518 3.93252,-2.36133c-0.22412,3.16787 -5.08652,4.08457 -7.62334,5.55615l-18.31465,10.55186l-47.59131,27.35479c-6.37471,3.63135 -10.82402,6.64131 -17.65107,10.14023l-0.50332,-0.07031l-0.45908,-0.88242l-1.59141,-0.63926l6.34805,-3.75293c1.80674,-1.25391 6.74297,-4.10625 8.7,-4.99541c4.15078,-3.00615 12.90352,-7.45195 17.58721,-10.19648c9.22295,-5.40439 18.4667,-10.76514 27.7002,-16.16367c2.77646,-1.12529 10.13203,-5.65371 13.00986,-7.33623z" fill="#53a9f6"/><path d="M126.86748,37.621l0.18984,1.27207c-1.65703,1.07666 -3.04482,2.2459 -4.57354,3.49102c-6.26338,2.78613 -12.10518,6.27744 -17.84443,9.97354c-3.22295,2.07568 -7.49268,3.51592 -10.6623,5.61914c-1.49326,1.05469 -5.67187,4.10508 -7.27383,4.62832c-5.1293,1.6752 -10.11475,6.51416 -14.53652,8.4832c-7.04268,3.13652 -15.20918,9.56162 -21.88301,12.27451l-2.55352,-0.07734c4.15078,-3.00615 12.90352,-7.45195 17.58721,-10.19648c9.22295,-5.40439 18.4667,-10.76514 27.7002,-16.16367c2.77646,-1.12529 10.13203,-5.65371 13.00986,-7.33623z" fill="#0678ed"/><path d="M47.73018,83.28545l2.55352,0.07734c-4.20732,2.04434 -7.1376,4.79355 -11.37041,6.94805c-0.39375,-0.15205 -0.70459,-0.27803 -1.0916,-0.45996c0.51357,-0.56191 0.779,-0.95625 1.2085,-1.57002c1.80674,-1.25391 6.74297,-4.10625 8.7,-4.99541z" fill="#3884e7"/><path d="M39.03018,88.28086c-0.42949,0.61377 -0.69492,1.00811 -1.2085,1.57002c0.38701,0.18193 0.69785,0.30791 1.0916,0.45996c-1.15107,0.59648 -3.54053,1.91631 -4.63975,2.36221l-1.59141,-0.63926z" fill="#0678ed"/><path d="M286.78242,119.30889c0.24814,0.2499 0.71279,0.69229 0.91758,0.94453c-3.61201,3.18457 -14.48174,9.06768 -18.90938,11.72285l-47.55996,28.2085l-24.71016,14.74746c-3.55137,2.08301 -7.26797,3.99932 -10.78975,6.12275l-16.2832,9.66152c-2.48496,1.46572 -5.72197,3.60205 -8.22656,4.83926c-2.92441,1.26973 -4.55156,1.44229 -7.71328,1.83281l-2.69004,0.00732c-2.12168,-0.62607 -3.18018,-0.34131 -5.85557,-1.31953c-2.59512,-1.24131 -7.39072,-4.43379 -9.9208,-6.03662l1.25918,-0.90352c3.6876,1.44375 8.74541,6.52852 13.84951,6.59473c1.95264,0.02549 6.2748,0.13506 7.95352,-0.65156c7.94648,-3.72305 15.53555,-8.63643 23.07979,-13.02744l47.58721,-28.08164c2.80283,-1.65615 5.95547,-3.05742 8.65869,-4.76777c12.04131,-7.61836 24.51533,-14.64229 36.61963,-22.13496c3.65918,-2.26494 9.63633,-5.21836 12.73359,-7.75869z" fill="url(#color-3)"/><path d="M9.57952,112.09658l0.46667,0.525l0.80871,-0.09346c1.12805,3.06768 14.43457,10.1751 18.13726,12.39434l31.87913,18.75176c3.15674,1.8375 6.23086,3.96211 9.38438,5.8418l38.06836,22.8041c9.17373,5.57637 18.95303,11.16943 27.97646,16.81611l-1.25918,0.90352c-1.83281,-1.24219 -4.90166,-2.86113 -6.89795,-4.04736l-17.4624,-10.37402l-70.12793,-41.98096c-5.53213,-3.3167 -11.27312,-6.58242 -16.74753,-9.99375c-3.78088,-2.35605 -12.81187,-6.25225 -14.24007,-10.31396z" fill="#c3ecfc"/><path d="M139.10742,30.54404c0.90205,-0.12598 1.18711,-0.34541 1.80059,0.04775c-0.71807,0.73857 -1.59697,1.29375 -2.04727,2.16738c-2.01621,1.10742 -4.17627,2.34814 -6.25254,3.29766c-1.829,0.81621 -3.88828,1.71533 -5.55088,2.83623l-0.18984,-1.27207c2.39678,-1.52402 9.86367,-6.00293 12.23994,-7.07695z" fill="#3884e7"/><path d="M24.81258,96.4793c0.67954,0.69902 0.7991,0.5874 0.91333,1.42998c-1.49057,1.2835 -4.12808,2.64668 -5.94094,3.51563c-1.92586,0.90615 -2.43785,0.8918 -4.55396,0.7207c3.15006,-1.74463 6.47121,-3.80537 9.58157,-5.66631z" fill="#3884e7"/><path d="M138.86074,32.75918c0.92314,-0.52559 1.3248,-0.78164 2.3502,-1.09307l0.59502,0.17871c-0.13008,1.75723 -7.10479,5.21895 -8.71729,5.17383l-0.62607,-0.35801l0.14561,-0.60381c2.07627,-0.94951 4.23633,-2.19023 6.25254,-3.29766z" fill="#53a9f6"/><path d="M8.73797,107.88252c0.44508,0.38936 1.0817,0.98467 1.55651,1.29521c-0.61532,1.24248 -0.62446,1.51875 -0.71496,2.91885l-0.01409,1.23311l-0.46913,-0.10488c-0.54791,0.58477 -0.6813,0.80918 -1.09614,1.49883l-0.33636,-0.16523c-0.11171,-3.05244 -0.2497,-3.86074 1.07417,-6.67588z" fill="#0678ed"/><path d="M25.72591,97.90928l0.54062,-0.03604c0.00237,0.47461 -0.05074,0.49951 -0.26256,0.91289c0.50074,0.00674 0.49078,-0.07412 0.85729,0.15674c-2.12716,1.19033 -4.23469,2.39561 -6.42732,3.4626c-0.40084,-0.27949 -0.45425,-0.53203 -0.64896,-0.98057c1.81286,-0.86895 4.45037,-2.23213 5.94094,-3.51562z" fill="#2d98ed"/><path d="M132.6082,36.05684l-0.14561,0.60381c-2.58516,0.871 -2.89365,1.51113 -4.96523,3.31934c-0.41602,0.01641 -0.77637,0.03076 -1.08105,0.04277c-1.39395,1.05615 -2.22568,1.88203 -3.93252,2.36133c1.52871,-1.24512 2.9165,-2.41436 4.57354,-3.49102c1.6626,-1.1209 3.72187,-2.02002 5.55088,-2.83623z" fill="#2d98ed"/><path d="M286.78242,119.30889c0.61904,-0.9252 0.90938,-1.48213 1.83691,-2.10381l0.54639,0.16143l0.28125,0.93105c-0.34131,0.39287 -1.42236,1.68691 -1.74697,1.95586c-0.20479,-0.25225 -0.66943,-0.69463 -0.91758,-0.94453z" fill="#63b3f2"/><path d="M10.29448,109.17773c0.80525,0.74443 0.58731,2.25732 0.56042,3.35039l-0.80871,0.09346l-0.46667,-0.525c0.0905,-1.4001 0.09964,-1.67637 0.71496,-2.91885z" fill="#b2d1fd"/><path d="M150.86191,89.48994l2.2667,1.33564c5.45273,4.12383 25.96699,14.35225 28.19033,19.00049c0.7623,2.66309 0.64043,3.12949 -0.0085,5.90391c-2.51689,3.56719 -14.76211,9.40254 -18.89062,12.59326c-1.69834,1.3125 -6.17285,3.12129 -8.26729,4.53018c-0.91904,-0.45264 -0.8373,-0.24902 -1.32129,-1.01689c0.47285,-0.83262 2.08271,-1.32451 3.06123,-1.73848c-0.76699,0.00996 -1.53398,0.01025 -2.30098,0.00029c-0.14092,-0.58418 -0.17227,-0.78955 -0.20508,-1.38955c-1.81377,0.86455 -2.66836,1.43437 -4.725,1.36465c-1.18271,2.02119 -2.2916,1.61631 -4.44082,1.28936c-0.09609,0.42188 -0.21826,1.07168 -0.38965,1.43936c-5.97568,-4.28877 -22.34443,-12.45029 -26.65693,-16.97725c-0.29326,-0.97939 -0.22412,-3.92988 -0.23057,-5.07832l0.40107,-0.22822c0.06094,-0.53496 0.14121,-2.33438 0.49746,-2.57988c9.21621,-6.3583 19.33418,-12.55605 29.16855,-17.93672c0.57832,-0.31641 3.31201,-0.4667 3.85137,-0.51182z" fill="#f8f7f8"/><path d="M181.31895,109.82607c0.7623,2.66309 0.64043,3.12949 -0.0085,5.90391c-2.51689,3.56719 -14.76211,9.40254 -18.89062,12.59326c-1.69834,1.3125 -6.17285,3.12129 -8.26729,4.53018c-0.91904,-0.45264 -0.8373,-0.24902 -1.32129,-1.01689c0.47285,-0.83262 2.08271,-1.32451 3.06123,-1.73848c-0.76699,0.00996 -1.53398,0.01025 -2.30098,0.00029c-0.14092,-0.58418 -0.17227,-0.78955 -0.20508,-1.38955c0.39521,-0.47344 4.00049,-2.34727 4.81611,-2.84736c7.11826,-4.36348 14.82861,-8.31768 21.48809,-13.33359c0.70371,-0.53027 1.29141,-1.9125 1.62832,-2.70176z" fill="#004bb9"/><path d="M155.89248,130.09805c6.40195,-2.95488 13.6374,-8.25527 19.83838,-11.92324c1.37637,-0.81416 2.93994,-2.11494 4.29346,-2.96367c0.36006,-0.22617 0.90645,0.26719 1.28613,0.51885c-2.51689,3.56719 -14.76211,9.40254 -18.89062,12.59326c-1.69834,1.3125 -6.17285,3.12129 -8.26729,4.53018c-0.91904,-0.45264 -0.8373,-0.24902 -1.32129,-1.01689c0.47285,-0.83262 2.08271,-1.32451 3.06123,-1.73848z" fill="#012383"/><path d="M117.17402,115.8249c-0.29326,-0.97939 -0.22412,-3.92988 -0.23057,-5.07832l0.40107,-0.22822c0.33516,1.47539 0.20127,2.0332 1.64531,2.79932c6.59561,3.49834 23.67832,15.43652 29.67158,16.75576c-1.18271,2.02119 -2.2916,1.61631 -4.44082,1.28936c-0.09609,0.42188 -0.21826,1.07168 -0.38965,1.43936c-5.97568,-4.28877 -22.34443,-12.45029 -26.65693,-16.97725z" fill="#015ed1"/><path d="M117.17402,115.8249l0.52207,-0.87305c0.09287,0 23.59102,15.15439 26.52451,16.41094c-0.09609,0.42188 -0.21826,1.07168 -0.38965,1.43936c-5.97568,-4.28877 -22.34443,-12.45029 -26.65693,-16.97725z" fill="#00064e"/><path d="M122.96279,109.43379c2.44922,-1.0623 5.69795,-3.2918 8.0543,-4.76426c4.10068,-2.56201 8.21572,-5.10146 12.34482,-7.61777c1.72031,-1.04883 3.66064,-2.26289 5.45801,-3.20332c0.58857,-0.30791 1.29111,0.2748 1.87617,0.61699c0.66709,0.41309 4.67725,2.8415 4.9749,3.20918c1.8876,0.77959 12.85371,7.57031 14.43223,8.83037c0.98408,0.6873 2.4085,1.61924 3.28037,2.3874l0.89531,0.75732c0.04014,1.73262 -3.76641,3.40781 -5.21836,4.23545c-4.42588,2.91094 -15.2918,9.55547 -20.00713,11.80811c-6.65889,-3.91055 -16.17803,-8.96484 -22.26445,-13.2498c-1.50996,-0.9624 -2.48145,-1.84541 -3.82617,-3.00967z" fill="#0678ed"/><path d="M122.96279,109.43379c2.44922,-1.0623 5.69795,-3.2918 8.0543,-4.76426c4.10068,-2.56201 8.21572,-5.10146 12.34482,-7.61777c1.72031,-1.04883 3.66064,-2.26289 5.45801,-3.20332c0.58857,-0.30791 1.29111,0.2748 1.87617,0.61699c-0.96299,0.64219 -1.57354,0.98496 -2.60654,1.51289c2.21924,0.66797 4.21582,0.75205 5.44805,3.50566c-1.5416,-0.14443 -1.93828,-0.73711 -3.17168,-0.51445c-0.66094,0.0082 -2.05576,0.06973 -2.57666,0.3791c-3.67939,2.1832 -18.58213,10.85508 -21.00029,13.09482c-1.50996,-0.9624 -2.48145,-1.84541 -3.82617,-3.00967z" fill="url(#color-4)"/><path d="M150.69609,94.46543c0.66709,0.41309 4.67725,2.8415 4.9749,3.20918c1.8876,0.77959 12.85371,7.57031 14.43223,8.83037l-1.89141,0.8332c0.51973,1.01836 0.42158,0.60527 0.19336,1.82461c-5.07217,-2.95693 -12.94336,-8.13398 -18.03926,-10.19326c1.2334,-0.22266 1.63008,0.37002 3.17168,0.51445c-1.23223,-2.75361 -3.22881,-2.8377 -5.44805,-3.50566c1.03301,-0.52793 1.64355,-0.8707 2.60654,-1.51289z" fill="#012383"/><path d="M168.21182,107.33818c-3.11338,-2.3543 -8.31768,-4.19004 -11.63613,-6.53174c-1.36729,-0.96475 -0.67441,-2.17178 -2.96953,-3.08145l-0.09229,-0.34834c0.99316,-0.05273 0.9627,0.13623 1.98486,0.67471l0.17227,-0.37676c1.8876,0.77959 12.85371,7.57031 14.43223,8.83037z" fill="#015ed1"/><path d="M170.10322,106.50498c0.98408,0.6873 2.4085,1.61924 3.28037,2.3874c-1.4458,1.6292 -2.07568,1.42002 -4.08457,0.80479c-0.46611,-0.07676 -0.47051,-0.19395 -0.89385,-0.53437c0.22822,-1.21934 0.32637,-0.80625 -0.19336,-1.82461z" fill="#004bb9"/><path d="M173.38359,108.89238l0.89531,0.75732c0.04014,1.73262 -3.76641,3.40781 -5.21836,4.23545c0.4623,-0.84521 0.84375,-1.55684 1.24248,-2.43457c-0.15879,-1.13145 -0.10576,-0.79453 -1.004,-1.75342c2.00889,0.61523 2.63877,0.82441 4.08457,-0.80479z" fill="#015ed1"/><path d="M101.32412,99.17783c1.54424,0.68438 3.09229,1.14609 3.72568,2.75801c1.74814,1.66025 1.23047,3.41631 1.3166,5.73955c-0.98643,0.0085 -4.28848,-0.09053 -4.92891,0.31143c2.96279,-0.01377 10.21289,-0.38555 12.58887,0.70723c0.3126,0.59561 0.26777,0.69287 0.24492,1.3916c0.31289,0.59619 0.44297,0.80801 0.62578,1.4502l-0.11191,0.17754l-0.0624,-0.10928c1.5252,6.21797 -5.06719,5.1082 -9.23379,4.80498l-0.96592,0.50625c0.88242,2.42051 -0.81035,2.81807 -2.20957,4.61572c-0.2748,1.14785 -0.03896,0.78164 -0.80742,1.51025c-1.05146,0.28857 -1.39072,0.179 -2.46123,0.01084l0.88887,0.68877c-0.24521,0.28975 -0.54727,0.60937 -0.73447,0.92871c-4.0125,-2.80049 -14.19404,-6.6498 -15.60791,-10.41562c-0.47021,-1.02334 -0.41367,-2.73838 0.39844,-3.57744c1.03564,-3.26982 13.83193,-10.00781 17.33438,-11.49873z" fill="#f8f7f8"/><path d="M83.59131,114.254c-0.47021,-1.02334 -0.41367,-2.73838 0.39844,-3.57744c2.41494,3.08701 14.45039,9.61523 18.32373,10.85449c-0.2748,1.14785 -0.03896,0.78164 -0.80742,1.51025c-1.05146,0.28857 -1.39072,0.179 -2.46123,0.01084l0.88887,0.68877c-0.24521,0.28975 -0.54727,0.60937 -0.73447,0.92871c-4.0125,-2.80049 -14.19404,-6.6498 -15.60791,-10.41562z" fill="#015ed1"/><path d="M83.59131,114.254l0.61377,-0.18926c4.21553,2.30186 10.17861,6.28975 14.83975,8.9874l0.88887,0.68877c-0.24521,0.28975 -0.54727,0.60937 -0.73447,0.92871c-4.0125,-2.80049 -14.19404,-6.6498 -15.60791,-10.41562z" fill="#012383"/><path d="M114.27129,110.08564c0.31289,0.59619 0.44297,0.80801 0.62578,1.4502l-0.11191,0.17754l-0.0624,-0.10928c1.5252,6.21797 -5.06719,5.1082 -9.23379,4.80498l-0.96592,0.50625c-1.83398,-0.77695 -6.25664,-3.29971 -7.79561,-4.4458c4.21875,0.02314 12.88652,0.5209 16.69746,-0.04863c0.73125,-0.7916 0.58564,-1.10537 0.84639,-2.33525z" fill="url(#color-5)"/><path d="M105.0498,101.93584c1.74814,1.66025 1.23047,3.41631 1.3166,5.73955c-0.98643,0.0085 -4.28848,-0.09053 -4.92891,0.31143c-1.83574,0.06562 -3.77344,0.26279 -5.61299,0.41748c3.44561,-2.25117 6.73184,-3.43213 9.22529,-6.46846z" fill="#015ed1"/><path d="M192.35361,101.71113c1.90752,-1.71973 3.72715,-3.35977 6.30029,-1.67402c2.81221,1.84248 14.13486,7.26123 14.88984,10.21904l0.50947,-0.37441c1.01426,0.99902 0.41543,3.94453 0.28535,5.40264c-2.29043,2.25967 -4.34678,3.26074 -7.19209,4.78945c-3.28535,1.87295 -11.20459,8.11934 -14.01914,3.13125c0.45293,-0.33633 0.87891,-0.20098 1.55654,-0.19072l0.54814,-1.84365l-2.3458,-2.446l-1.24248,0.3917c-0.08906,-0.58916 -0.16641,-1.17979 -0.23203,-1.77217c-0.72129,-0.629 -1.61221,-0.42891 -2.76768,-0.46172c-1.86914,0.02695 -3.77666,0.46201 -4.41475,-1.46572c-0.375,-0.83291 -0.32139,-2.03203 -0.02051,-2.90332c0.0873,-0.72539 -0.0167,-3.46084 -0.03076,-4.33242c2.39502,-0.0665 14.05195,0.1418 15.24463,-0.36855l0.0668,-0.42305c-0.9876,-1.27295 -3.36973,-2.28047 -4.68369,-3.30645c-0.86807,-0.67734 -1.69307,-1.57061 -2.45215,-2.37188z" fill="#f8f7f8"/><path d="M213.54375,110.25615l0.50947,-0.37441c1.01426,0.99902 0.41543,3.94453 0.28535,5.40264c-2.29043,2.25967 -4.34678,3.26074 -7.19209,4.78945c-3.28535,1.87295 -11.20459,8.11934 -14.01914,3.13125c0.45293,-0.33633 0.87891,-0.20098 1.55654,-0.19072l0.54814,-1.84365c1.42822,0.22852 3.54844,-0.91523 4.89492,-1.52959c3.46201,-2.79785 11.22861,-5.04199 13.4168,-9.38496z" fill="url(#color-6)"/><path d="M202.6957,121.13906c2.24209,-0.77754 1.89346,-2.35576 4.45078,-1.06523c-3.28535,1.87295 -11.20459,8.11934 -14.01914,3.13125c0.45293,-0.33633 0.87891,-0.20098 1.55654,-0.19072c3.4002,0.74443 5.22041,-0.2291 8.01182,-1.87529z" fill="#012383"/><path d="M195.23203,121.1707c1.42822,0.22852 3.54844,-0.91523 4.89492,-1.52959c-0.54316,1.08252 -1.9415,1.54189 -3.01611,2.04639c0.61553,0.00293 1.8123,0.64834 1.92773,0.64014c1.71006,-0.1207 1.65879,-1.18008 3.65713,-1.18857c-2.79141,1.64619 -4.61162,2.61973 -8.01182,1.87529z" fill="#015ed1"/><path d="M184.20879,112.51348c5.98301,0.11309 10.83574,0.40986 16.86797,-0.05742c-2.58633,2.00654 -7.31191,3.81094 -8.19053,6.26865l-1.24248,0.3917c-0.08906,-0.58916 -0.16641,-1.17979 -0.23203,-1.77217c-0.72129,-0.629 -1.61221,-0.42891 -2.76768,-0.46172c-1.86914,0.02695 -3.77666,0.46201 -4.41475,-1.46572c-0.375,-0.83291 -0.32139,-2.03203 -0.02051,-2.90332z" fill="#004bb9"/><path d="M184.2293,115.4168l0.21299,-0.81211c1.53604,-0.15967 6.97354,0.15088 8.02002,1.20176l-0.22676,0.53232c-1.60049,0.46172 -2.32441,0.18984 -3.5915,0.54375c-1.86914,0.02695 -3.77666,0.46201 -4.41475,-1.46572z" fill="#012383"/><path d="M146.17031,134.59307c0.06299,-0.50098 0.02314,-1.23193 0.41133,-1.48389c1.59082,-1.03154 4.12676,-0.93633 5.25146,0.59414l0.18164,1.58174l0.00703,8.94346c4.60957,-2.70674 9.66299,-9.25635 13.72441,-2.9335c0.94863,0.41689 0.97324,0.69492 0.76846,1.78447c-0.08672,2.08506 0.19072,2.85 -1.49443,4.28877c-3.03926,1.85859 -13.37637,9.02139 -16.47773,8.34902c-1.69512,-0.36738 -7.26797,-4.14609 -9.38672,-5.28516c-0.79893,-0.09023 -6.20449,-3.1708 -7.26943,-3.76377c-0.08086,-1.29639 -0.40547,-4.79092 0.12861,-5.81631l0.36064,0.08613c1.63301,-1.30371 2.47207,-1.94063 4.26943,-2.9918c2.6625,1.37549 6.83174,4.26826 9.47402,5.97129c-0.01963,-3.09258 0.02988,-6.22852 0.05127,-9.32461z" fill="#f8f7f8"/><path d="M131.88633,146.66836c-0.08086,-1.29639 -0.40547,-4.79092 0.12861,-5.81631l0.36064,0.08613c3.02607,3.56689 12.18809,9.53848 16.14697,10.71006c2.15537,0.63809 14.53945,-7.61221 16.45898,-9.52852c0.26631,-0.26396 0.52148,-0.53936 0.76465,-0.82471c0.94863,0.41689 0.97324,0.69492 0.76846,1.78447c-0.08672,2.08506 0.19072,2.85 -1.49443,4.28877c-3.03926,1.85859 -13.37637,9.02139 -16.47773,8.34902c-1.69512,-0.36738 -7.26797,-4.14609 -9.38672,-5.28516c-0.79893,-0.09023 -6.20449,-3.1708 -7.26943,-3.76377z" fill="#004bb9"/><path d="M163.39746,146.49434c0.81445,0.29004 0.95303,0.33398 1.62275,0.87393c-3.03926,1.85859 -13.37637,9.02139 -16.47773,8.34902c-1.69512,-0.36738 -7.26797,-4.14609 -9.38672,-5.28516c2.30947,-1.3251 5.41904,2.88721 9.18457,3.16377c4.23604,0.31055 12.04248,-4.61221 15.05713,-7.10156z" fill="#012383"/><path d="M166.51465,143.07949c-0.08672,2.08506 0.19072,2.85 -1.49443,4.28877c-0.66973,-0.53994 -0.8083,-0.58389 -1.62275,-0.87393c0.95654,-1.2457 1.8208,-2.53535 3.11719,-3.41484z" fill="#003b99"/><path d="M149.47529,67.78096c2.30361,1.14404 15.11924,9.16172 16.55947,10.7915c2.05166,2.0792 0.27158,7.93652 -3.55488,7.6793c-4.18828,-0.28125 -4.62715,-4.20674 -7.08867,-6.0791c-1.55566,1.04473 0.02666,8.03115 -2.2626,10.65293l-2.2667,-1.33564c-0.42656,-0.14238 -1.72939,-0.25518 -2.24121,-0.31318c2.16387,-0.83115 3.12393,0.44561 4.44639,0.72861c1.55068,-2.53125 0.93486,-9.11133 1.62363,-10.01484l1.35762,-0.07383c0.06533,-0.74912 0.075,-0.48193 -0.3876,-1.24453c-1.40684,-0.67646 -1.76982,-1.03887 -2.95605,-2.08477c-0.19219,2.9707 -0.10781,7.32627 -0.17227,10.44053c-0.70518,-0.03281 -1.35264,0.02021 -2.05547,0.06064l0.49189,0.10518c-1.38018,0.25313 -1.76572,0.50186 -2.81133,-0.49629l0.36885,-0.41748c-1.34443,0.03926 -1.52607,0.08408 -2.25908,-0.9334c-0.99756,-0.104 -2.24561,-0.86514 -2.87373,-0.83906c-4.87705,0.2042 -10.91748,4.76016 -10.90781,-3.78545c0.00117,-1.0752 -0.22822,-0.98379 0.52852,-1.725c1.27002,-2.39766 13.60283,-9.79189 16.46104,-11.11611z" fill="#f8f7f8"/><path d="M135.88477,82.12295c4.28408,-1.66787 6.56045,-3.42949 10.32188,-6.01846c-0.00762,2.97715 -0.07588,6.18604 0.06064,9.14209c-0.99756,-0.104 -2.24561,-0.86514 -2.87373,-0.83906c-4.87705,0.2042 -10.91748,4.76016 -10.90781,-3.78545c0.00117,-1.0752 -0.22822,-0.98379 0.52852,-1.725z" fill="#004bb9"/><path d="M152.10557,75.76729c2.84063,1.56562 6.58418,4.39629 9.79453,6.28828c2.03643,-1.32393 2.50488,-1.78184 4.13467,-3.48311c2.05166,2.0792 0.27158,7.93652 -3.55488,7.6793c-4.18828,-0.28125 -4.62715,-4.20674 -7.08867,-6.0791c-1.55566,1.04473 0.02666,8.03115 -2.2626,10.65293l-2.2667,-1.33564c-0.42656,-0.14238 -1.72939,-0.25518 -2.24121,-0.31318c2.16387,-0.83115 3.12393,0.44561 4.44639,0.72861c1.55068,-2.53125 0.93486,-9.11133 1.62363,-10.01484l1.35762,-0.07383c0.06533,-0.74912 0.075,-0.48193 -0.3876,-1.24453c-1.40684,-0.67646 -1.76982,-1.03887 -2.95605,-2.08477c-0.19219,2.9707 -0.10781,7.32627 -0.17227,10.44053c-0.70518,-0.03281 -1.35264,0.02021 -2.05547,0.06064l0.49189,0.10518c-1.38018,0.25313 -1.76572,0.50186 -2.81133,-0.49629l0.36885,-0.41748c1.2208,0.01172 1.89785,0.06035 3.08232,-0.22031c0.82588,-1.31016 0.51328,-8.26494 0.49688,-10.19238z" fill="#004bb9"/><path d="M148.66143,130.07344c2.05664,0.06973 2.91123,-0.5001 4.725,-1.36465c0.03281,0.6 0.06416,0.80537 0.20508,1.38955c0.76699,0.00996 1.53398,0.00967 2.30098,-0.00029c-0.97852,0.41396 -2.58838,0.90586 -3.06123,1.73848c0.48398,0.76787 0.40225,0.56426 1.32129,1.01689c-0.31172,1.16836 -0.16611,1.31895 -1.36348,2.01064c-0.25547,0.14502 -0.51357,0.28535 -0.77432,0.421l-0.18164,-1.58174c-1.12471,-1.53047 -3.66064,-1.62568 -5.25146,-0.59414c-0.38818,0.25195 -0.34834,0.98291 -0.41133,1.48389c-0.19102,0.79688 -0.12715,1.10391 -0.64072,1.63301c-0.62461,-0.4626 -1.24131,-2.43545 -1.69863,-3.42393c0.17139,-0.36768 0.29355,-1.01748 0.38965,-1.43936c2.14922,0.32695 3.25811,0.73184 4.44082,-1.28936z" fill="#003b99"/><path d="M104.52305,116.91533l0.96592,-0.50625l-0.00967,0.21416c-0.04658,1.24541 0.40869,2.18086 0.50068,3.52969c0.28184,4.11943 -2.92471,6.87246 -6.78076,4.5167c0.18721,-0.31934 0.48926,-0.63896 0.73447,-0.92871l-0.88887,-0.68877c1.07051,0.16816 1.40977,0.27773 2.46123,-0.01084c0.76846,-0.72861 0.53262,-0.3624 0.80742,-1.51025c1.39922,-1.79766 3.09199,-2.19521 2.20957,-4.61572z" fill="#003b99"/><path d="M192.88623,118.72471l2.3458,2.446l-0.54814,1.84365c-0.67764,-0.01025 -1.10361,-0.14561 -1.55654,0.19072c-0.46641,-0.64131 -1.20264,-3.20859 -1.48359,-4.08867z" fill="#012383"/></g></svg></svg>