<svg id="svg" version="1.1" viewBox="0 0 300 300" width="300" height="300" xmlns="http://www.w3.org/2000/svg"><svg xmlns="http://www.w3.org/2000/svg"><defs><clipPath id="clip-1"><rect x="0" y="0" transform="scale(0.29297,0.29297)" width="1024" height="1024" fill="none"/></clipPath><linearGradient x1="291.21709" y1="182.90303" x2="12.09489" y2="197.69912" gradientUnits="userSpaceOnUse" id="color-1"><stop offset="0" stop-color="#b4b5b7"/><stop offset="1" stop-color="#e3e2e3"/></linearGradient></defs><g clip-path="url(#clip-1)" fill="none" fill-rule="nonzero" stroke="none" stroke-width="1" stroke-linecap="butt" stroke-linejoin="miter" stroke-miterlimit="10" stroke-dasharray="" stroke-dashoffset="0" font-family="none" font-weight="none" font-size="none" text-anchor="none" style="mix-blend-mode: normal"><path d="M10.79795,126.76904c3.81987,-8.4457 9.9034,-11.96543 17.51124,-16.37607l12.43017,-7.17832c9.32051,-5.28838 19.17832,-11.23711 28.50059,-16.69687l41.04521,-24.04189c10.23721,-5.88076 12.96006,-8.81016 24.93486,-11.221c12.61523,-2.53945 23.06865,-3.33779 35.36162,2.02354c3.87773,1.67139 8.71934,4.97959 12.56719,7.1165c6.02344,3.34512 12.06709,6.97324 18.08643,10.33125l41.13604,23.37334c9.44502,5.49111 18.91172,10.48418 27.82178,16.91074c3.63838,2.62412 8.35986,4.32832 11.82803,7.34971c2.77119,2.31445 6.52588,8.2125 8.47646,11.44746c-0.03457,2.0001 -0.23145,5.77441 -0.65127,7.71152c-1.33213,7.98018 -0.26221,19.42324 -0.51035,27.78428c0.39434,8.00654 -0.11104,15.92783 -7.16689,21.24902c-8.78086,6.62197 -18.65508,11.59014 -28.14492,17.18438c-18.06357,10.69746 -36.27715,21.13975 -54.63486,31.32393c-7.46074,4.16631 -18.35947,11.48203 -25.93213,14.31475c-10.79443,3.68965 -22.56738,4.09072 -33.85049,3.50977c-5.77969,-0.29766 -8.0165,0.24434 -13.18096,-2.74395c-5.4,-3.12451 -10.63799,-6.39932 -15.97646,-9.57217l-39.22852,-23.53301l-29.88838,-18.11719c-7.45723,-4.45928 -14.94439,-8.94404 -22.29647,-13.60957c-3.07749,-1.95293 -8.11831,-7.49033 -8.5848,-11.2708c-0.34937,-2.83096 -0.20238,-6.92285 -0.19916,-9.8335l0.21469,-21.26016c0.04304,-3.3668 -0.23751,-13.21055 0.33138,-16.17568z" fill="#fafaf9"/><path d="M10.79795,126.76904c0.25951,2.27021 0.13403,5.12285 0.06059,7.45195c1.58077,2.2415 1.71976,5.4334 3.55204,7.79561c3.94872,5.09092 9.85904,7.98311 15.21149,11.32939c8.32529,5.14072 16.93711,9.75059 25.31982,14.73369l40.64297,24.07998c11.44746,6.82061 26.84561,17.2166 39.49834,20.72988c9.63047,2.67422 24.28623,1.53838 33.6917,-1.52285c6.65654,-2.28457 15.346,-7.70449 21.67588,-11.32148l29.53418,-16.86504l35.27725,-20.45596c10.26592,-5.88076 25.63037,-12.7585 32.31885,-22.55889c0.89561,-1.31191 0.82412,-1.84893 2.26523,-2.64639c-1.33213,7.98018 -0.26221,19.42324 -0.51035,27.78428c0.39434,8.00654 -0.11104,15.92783 -7.16689,21.24902c-8.78086,6.62197 -18.65508,11.59014 -28.14492,17.18438c-18.06357,10.69746 -36.27715,21.13975 -54.63486,31.32393c-7.46074,4.16631 -18.35947,11.48203 -25.93213,14.31475c-10.79443,3.68965 -22.56738,4.09072 -33.85049,3.50977c-5.77969,-0.29766 -8.0165,0.24434 -13.18096,-2.74395c-5.4,-3.12451 -10.63799,-6.39932 -15.97646,-9.57217l-39.22852,-23.53301l-29.88838,-18.11719c-7.45723,-4.45928 -14.94439,-8.94404 -22.29647,-13.60957c-3.07749,-1.95293 -8.11831,-7.49033 -8.5848,-11.2708c-0.34937,-2.83096 -0.20238,-6.92285 -0.19916,-9.8335l0.21469,-21.26016c0.04304,-3.3668 -0.23751,-13.21055 0.33138,-16.17568z" fill="url(#color-1)"/><path d="M23.28987,171.67559l0.75539,-0.5584c3.55746,1.80117 6.84771,4.18887 10.31821,6.18691c21.28242,12.2543 42.25957,24.9873 63.57715,37.18828c10.93594,6.25898 21.81152,13.95498 33.79922,17.9584c10.53281,3.37178 26.7457,3.20947 37.17041,-0.48018c10.13701,-3.5877 21.40371,-11.39824 31.08428,-16.6292c1.97842,-1.06904 6.33779,-4.16689 7.99453,-4.77598l0.27832,0.40078c-0.53818,2.296 -16.42734,10.4165 -19.25947,12.13301c-9.91055,6.00674 -18.65303,10.62627 -30.19893,12.44531c-25.95146,4.08838 -43.24512,-9.28564 -64.57969,-21.85312l-39.19863,-22.93477l-18.65156,-10.89873c-4.28818,-2.4876 -9.28034,-5.08506 -13.08923,-8.18232z" fill="#070607"/><path d="M271.58613,169.34268c1.77803,-0.26484 3.58594,0.6457 3.27715,2.67275c-0.40371,2.64814 -1.91104,4.51377 -3.96709,6.10107c-6.22002,0.73975 -3.19688,-6.42949 0.68994,-8.77383z" fill="#00e400"/><path d="M255.64863,179.24326l0.41133,0.49893c0.36738,2.56611 0.11719,4.59053 -0.2335,7.14258c-1.39307,1.3623 -1.62275,1.54102 -3.36328,2.49756l-0.52354,-0.31318c-0.18018,-2.35078 0.075,-5.09912 0.43184,-7.43086c1.26621,-1.23105 1.79531,-1.52432 3.27715,-2.39502z" fill="#070607"/><path d="M231.14209,193.35293c1.17158,1.3292 0.71514,7.02305 -0.79424,8.23711c-0.72686,0.58506 -1.42969,0.96445 -2.2708,1.34912l-0.25576,-0.01201l-0.28623,-0.46729c-0.12188,-4.31455 -0.68906,-7.06494 3.60703,-9.10693z" fill="#070607"/><path d="M239.36631,188.93936l0.45557,0.38789c0.21973,1.04268 0.17783,3.5168 -0.11953,4.56299c-0.7623,2.67949 -0.96914,2.84795 -3.25166,4.21904c-0.47021,-0.11572 -0.25078,0.00352 -0.58711,-0.49922c-0.28037,-4.54893 -0.8877,-6.5751 3.50273,-8.6707z" fill="#070607"/><path d="M222.52236,198.57539c0.70254,0.00645 0.40107,-0.10928 0.92754,0.37207c0.31875,1.69395 0.14385,4.10742 0.08408,5.90039c-1.22432,1.21611 -1.58848,1.43437 -3.1084,2.26846c-0.40166,0.04629 -0.19014,0.06533 -0.63604,-0.28418c-0.24404,-1.86123 -0.0791,-4.28174 -0.00762,-6.20127c0.93223,-0.89004 1.6623,-1.34063 2.74043,-2.05547z" fill="#070607"/><path d="M246.59707,184.4417c0.46055,0.03369 0.45645,0.07412 0.88213,0.24727c0.62432,1.34004 0.27012,4.31074 -0.09932,5.77031c-0.44883,1.77393 -0.77812,1.91426 -2.30127,2.85527c-0.23643,0.05479 -0.54668,0.01553 -0.80215,0.00352c-0.64687,-1.23398 -0.39199,-4.76953 0.00586,-6.13096c0.50127,-1.71445 0.81943,-1.82871 2.31475,-2.74541z" fill="#070607"/><path d="M214.38281,203.5084c0.45791,0.02256 0.51123,0.13301 0.8748,0.421c0.47813,1.47832 0.34717,3.19043 0.32871,4.76279c-1.00928,1.3251 -1.74492,1.89902 -2.99092,2.96484l-0.56631,-0.20068c-0.34453,-1.14756 -0.23848,-3.46582 0.02402,-4.67109c0.44473,-2.04316 0.62139,-2.16738 2.32969,-3.27686z" fill="#070607"/><path d="M23.28987,171.67559c-2.37686,-1.1124 -11.72569,-6.78018 -10.68419,-9.79043c2.73513,3.60527 6.83748,7.70801 11.22703,9.16377l0.21255,0.06826z" fill="#898d95"/><path d="M146.5251,106.76396c11.39385,-0.46055 24.72334,2.14219 33.52383,9.94834c7.05674,6.25928 8.12813,15.88682 1.3916,22.90752c-7.46631,7.78096 -18.99697,10.61895 -29.45859,11.01504c-12.02666,0.3085 -23.40264,-1.2501 -33.11719,-9.00234c-7.59844,-6.06387 -9.50771,-15.68525 -2.71553,-23.27695c7.91162,-8.84238 19.08721,-10.73057 30.37588,-11.5916z" fill="#0180fe"/><path d="M145.754,109.68018c8.88984,-1.11738 21.99551,2.22334 29.11143,7.77012c6.23057,4.85684 8.71934,12.48574 3.17109,19.02803c-6.35449,7.49297 -15.79629,9.83232 -25.12383,10.829c-10.37227,0.52354 -20.77324,-0.76113 -29.16152,-7.00342c-12.46465,-9.27539 -6.52998,-20.821 5.21895,-26.32061c6.1248,-2.86699 10.25303,-3.52295 16.78389,-4.30312z" fill="#fafaf9"/></g></svg></svg>