<svg id="svg" version="1.1" viewBox="0 0 300 300" width="300" height="300" xmlns="http://www.w3.org/2000/svg"><svg xmlns="http://www.w3.org/2000/svg"><defs><clipPath id="clip-1"><rect x="0" y="0" transform="scale(0.29297,0.29297)" width="1024" height="1024" fill="none"/></clipPath><linearGradient x1="195.40693" y1="181.57529" x2="104.60977" y2="47.22188" gradientUnits="userSpaceOnUse" id="color-1"><stop offset="0" stop-color="#ff9300"/><stop offset="1" stop-color="#ffb801"/></linearGradient><linearGradient x1="270.26777" y1="222.89443" x2="20.25167" y2="112.57588" gradientUnits="userSpaceOnUse" id="color-2"><stop offset="0" stop-color="#e05800"/><stop offset="1" stop-color="#ff7b00"/></linearGradient><linearGradient x1="262.30547" y1="193.16455" x2="33.13125" y2="90.71484" gradientUnits="userSpaceOnUse" id="color-3"><stop offset="0" stop-color="#fb9900"/><stop offset="1" stop-color="#ffb600"/></linearGradient><linearGradient x1="274.16719" y1="190.58086" x2="277.92129" y2="203.12842" gradientUnits="userSpaceOnUse" id="color-4"><stop offset="0" stop-color="#8b9197"/><stop offset="1" stop-color="#bcb9b6"/></linearGradient><linearGradient x1="135.43271" y1="220.64971" x2="122.9168" y2="225.54785" gradientUnits="userSpaceOnUse" id="color-5"><stop offset="0" stop-color="#b8bfca"/><stop offset="1" stop-color="#e9e4da"/></linearGradient><linearGradient x1="114.08906" y1="215.57607" x2="108.84961" y2="214.55713" gradientUnits="userSpaceOnUse" id="color-6"><stop offset="0" stop-color="#abadb9"/><stop offset="1" stop-color="#9f9d99"/></linearGradient><linearGradient x1="78.26104" y1="205.59141" x2="76.09834" y2="210.80215" gradientUnits="userSpaceOnUse" id="color-7"><stop offset="0" stop-color="#f3ebf2"/><stop offset="1" stop-color="#dfe5db"/></linearGradient><linearGradient x1="147.71396" y1="187.0374" x2="145.56533" y2="195.99844" gradientUnits="userSpaceOnUse" id="color-8"><stop offset="0" stop-color="#ffcb2f"/><stop offset="1" stop-color="#ffe455"/></linearGradient><linearGradient x1="172.84336" y1="123.55723" x2="175.28086" y2="138.2707" gradientUnits="userSpaceOnUse" id="color-9"><stop offset="0" stop-color="#8f1e00"/><stop offset="1" stop-color="#ac3900"/></linearGradient><linearGradient x1="162.24873" y1="117.50977" x2="165.13828" y2="121.69834" gradientUnits="userSpaceOnUse" id="color-10"><stop offset="0" stop-color="#ed6100"/><stop offset="1" stop-color="#d63d00"/></linearGradient></defs><g clip-path="url(#clip-1)" fill="none" fill-rule="nonzero" stroke="none" stroke-width="1" stroke-linecap="butt" stroke-linejoin="miter" stroke-miterlimit="10" stroke-dasharray="" stroke-dashoffset="0" font-family="none" font-weight="none" font-size="none" text-anchor="none" style="mix-blend-mode: normal"><path d="M11.31393,112.82109c0.80089,-2.11289 1.48617,-4.08369 3.46808,-5.41523c12.17558,-8.18379 25.25423,-14.68857 37.32601,-23.07334c2.11787,-1.47129 4.83369,-2.43135 7.00723,-3.78779c20.98389,-13.09775 42.51738,-25.37373 63.91875,-37.78623c5.51982,-3.20127 10.69746,-6.74385 16.35732,-9.61611c12.65479,-5.65412 21.87832,2.7791 32.16416,8.78174l40.38838,24.04775c22.28643,13.53457 45.19541,27.09521 67.45811,40.70508c5.29658,3.23789 8.84121,4.86328 9.6334,11.5749c-0.0873,4.48066 -0.029,9.49688 -0.61904,13.90166c-0.04102,0.30557 -0.03691,0.33662 0.0041,0.64512c0.32021,1.06729 0.47227,1.53281 0.57773,2.63906c-0.19248,9.51592 0.09609,19.16982 0.00674,28.67402c-0.05713,6.08584 0.58418,15.24258 -0.99375,20.9042c0.58975,1.60576 1.94443,3.39814 1.0834,5.03057c-2.41523,4.57939 -7.64736,6.65947 -11.33789,9.75586c-4.43437,3.72012 -7.05088,5.66895 -12.36885,7.996c-1.59287,0.84287 -7.00693,4.26914 -7.94004,4.49971c-5.11406,3.73711 -10.59199,6.94951 -16.35059,9.58799c-7.71826,5.21572 -15.60527,10.17744 -23.64873,14.87695c-3.42861,1.99131 -6.76816,3.60586 -10.20381,5.67598l-18.5584,10.99834c-2.17646,1.30518 -4.87793,3.40107 -6.75205,4.48066c-3.38203,1.94766 -9.46699,4.75752 -13.0793,5.92793c-10.7373,6.88682 -21.54404,3.8001 -33.33018,0.93809c-4.01338,-0.97441 -9.60322,-7.35967 -13.61572,-9.17988c-5.99854,-2.72139 -11.88281,-5.53975 -17.45361,-9.14033c-7.84922,-5.77705 -16.23867,-9.8209 -24.32666,-15.21533c-4.44961,-3.42861 -8.61445,-5.65752 -13.34619,-8.52129c-12.05566,-7.29609 -25.33389,-14.46709 -37.13086,-21.92109c-4.00676,-2.53184 -17.18417,-12.03662 -17.7939,-15.49336c0.368,-1.12822 0.29077,-0.82178 1.24503,-1.70039c-3.20692,-8.60654 -1.25071,-23.68564 -1.80158,-33.14766c-0.1251,-2.14893 0.01333,-19.44111 0.40752,-20.35576c-0.33888,-2.6959 -0.74801,-14.56055 -0.3948,-17.28779zM11.70873,130.10889c-0.39419,0.91465 -0.53262,18.20684 -0.40752,20.35576c0.55087,9.46201 -1.40534,24.54111 1.80158,33.14766c-0.95426,0.87861 -0.87703,0.57217 -1.24503,1.70039c0.60973,3.45674 13.78714,12.96152 17.7939,15.49336c11.79697,7.454 25.0752,14.625 37.13086,21.92109c4.73174,2.86377 8.89658,5.09268 13.34619,8.52129c8.08799,5.39443 16.47744,9.43828 24.32666,15.21533c5.5708,3.60059 11.45508,6.41895 17.45361,9.14033c4.0125,1.82021 9.60234,8.20547 13.61572,9.17988c11.78613,2.86201 22.59287,5.94873 33.33018,-0.93809c3.6123,-1.17041 9.69727,-3.98027 13.0793,-5.92793c1.87412,-1.07959 4.57559,-3.17549 6.75205,-4.48066l18.5584,-10.99834c3.43564,-2.07012 6.7752,-3.68467 10.20381,-5.67598c8.04346,-4.69951 15.93047,-9.66123 23.64873,-14.87695c5.75859,-2.63848 11.23652,-5.85088 16.35059,-9.58799c0.93311,-0.23057 6.34717,-3.65684 7.94004,-4.49971c5.31797,-2.32705 7.93447,-4.27588 12.36885,-7.996c3.69053,-3.09639 8.92266,-5.17646 11.33789,-9.75586c0.86104,-1.63242 -0.49365,-3.4248 -1.0834,-5.03057c1.57793,-5.66162 0.93662,-14.81836 0.99375,-20.9042c0.08936,-9.5042 -0.19922,-19.15811 -0.00674,-28.67402c-0.10547,-1.10625 -0.25752,-1.57178 -0.57773,-2.63906l-0.08613,0.03721c-2.03145,-0.00322 -4.46953,2.36484 -6.34277,3.48896c-4.78359,2.8708 -9.57861,5.71904 -14.35986,8.59482c-29.06865,17.20313 -58.28232,34.16016 -87.63809,50.86904c-6.01904,3.4125 -11.69561,7.3333 -17.91211,10.42236c-5.17559,2.57227 -9.30381,3.29648 -14.95664,2.01855c-6.39434,-1.71621 -12.39873,-5.88193 -18.10107,-9.23613l-19.1625,-11.36514c-18.88711,-11.41875 -38.325,-22.24629 -57.17754,-33.76787c-11.49727,-7.02598 -23.12168,-13.67637 -34.5339,-20.83213c-1.52432,-0.95566 -3.50607,-2.63643 -4.98812,-3.36123l-0.45366,0.45498z" fill="url(#color-1)"/><path d="M12.70802,130.12207l0.45366,-0.45498c1.48204,0.7248 3.4638,2.40557 4.98812,3.36123c11.41222,7.15576 23.03663,13.80615 34.5339,20.83213c18.85254,11.52158 38.29043,22.34912 57.17754,33.76787l19.1625,11.36514c5.70234,3.3542 11.70674,7.51992 18.10107,9.23613c5.65283,1.27793 9.78105,0.55371 14.95664,-2.01855c6.2165,-3.08906 11.89307,-7.00986 17.91211,-10.42236c29.35576,-16.70889 58.56943,-33.66592 87.63809,-50.86904c4.78125,-2.87578 9.57627,-5.72402 14.35986,-8.59482c1.87324,-1.12412 4.31133,-3.49219 6.34277,-3.48896l0.08613,-0.03721c0.32021,1.06729 0.47227,1.53281 0.57773,2.63906c-0.19248,9.51592 0.09609,19.16982 0.00674,28.67402c-0.05713,6.08584 0.58418,15.24258 -0.99375,20.9042c0.58975,1.60576 1.94443,3.39814 1.0834,5.03057c-2.41523,4.57939 -7.64736,6.65947 -11.33789,9.75586c-4.43437,3.72012 -7.05088,5.66895 -12.36885,7.996c-1.59287,0.84287 -7.00693,4.26914 -7.94004,4.49971c-5.11406,3.73711 -10.59199,6.94951 -16.35059,9.58799c-7.71826,5.21572 -15.60527,10.17744 -23.64873,14.87695c-3.42861,1.99131 -6.76816,3.60586 -10.20381,5.67598l-18.5584,10.99834c-2.17646,1.30518 -4.87793,3.40107 -6.75205,4.48066c-3.38203,1.94766 -9.46699,4.75752 -13.0793,5.92793c-10.7373,6.88682 -21.54404,3.8001 -33.33018,0.93809c-4.01338,-0.97441 -9.60322,-7.35967 -13.61572,-9.17988c-5.99854,-2.72139 -11.88281,-5.53975 -17.45361,-9.14033c-7.84922,-5.77705 -16.23867,-9.8209 -24.32666,-15.21533c-4.44961,-3.42861 -8.61445,-5.65752 -13.34619,-8.52129c-12.05566,-7.29609 -25.33389,-14.46709 -37.13086,-21.92109c-4.00676,-2.53184 -17.18417,-12.03662 -17.7939,-15.49336c0.368,-1.12822 0.29077,-0.82178 1.24503,-1.70039c-3.20692,-8.60654 -1.25071,-23.68564 -1.80158,-33.14766c-0.1251,-2.14893 0.01333,-19.44111 0.40752,-20.35576zM174.63398,221.54736c-0.49629,-3.87334 -0.66855,-4.45107 -4.6459,-4.97637c-3.71777,1.83193 -4.39541,7.66846 -1.08926,9.63457c3.2335,0.7002 4.16543,-3.17402 5.73516,-4.6582zM177.66533,230.63701c-0.13945,4.09775 -0.55459,6.60029 4.47158,4.7417c2.1167,-1.67197 3.4582,-3.62227 1.66436,-6.47842c-0.81826,-1.30312 -2.21953,-1.4502 -3.69375,-1.31367c-1.30342,1.11768 -1.57354,1.61602 -2.44219,3.05039z" fill="url(#color-2)"/><path d="M13.10279,183.6123l0.63894,0.67119c2.70144,1.48008 5.44304,3.58184 8.16571,5.21777l21.10887,12.44443c20.70937,12.27861 41.33086,24.62197 62.06396,36.91611c13.41563,7.95527 26.99121,17.06016 41.01211,23.94873c3.17051,1.55801 8.41992,1.28994 11.77588,0.24756c6.45322,-2.35312 14.41143,-7.71387 20.60742,-11.32119l50.46973,-29.33262c5.35283,-3.1002 10.5917,-6.5458 16.0957,-9.45234c1.42441,-0.75234 4.10244,-2.41113 5.46006,-2.99736l0.22266,0.54727c0.77168,-0.11162 1.6585,-0.33018 2.39648,-0.28945c0.9665,-0.33193 9.20801,-5.24736 11.10586,-6.2335c0.24844,1.91836 -0.96533,2.53535 -2.38008,3.69697c1.57119,-0.32314 2.00449,-0.43389 3.5417,0.12246c-1.59287,0.84287 -7.00693,4.26914 -7.94004,4.49971c-5.11406,3.73711 -10.59199,6.94951 -16.35059,9.58799c-7.71826,5.21572 -15.60527,10.17744 -23.64873,14.87695c-3.42861,1.99131 -6.76816,3.60586 -10.20381,5.67598l-18.5584,10.99834c-2.17646,1.30518 -4.87793,3.40107 -6.75205,4.48066c-3.38203,1.94766 -9.46699,4.75752 -13.0793,5.92793c-10.7373,6.88682 -21.54404,3.8001 -33.33018,0.93809c-4.01338,-0.97441 -9.60322,-7.35967 -13.61572,-9.17988c-5.99854,-2.72139 -11.88281,-5.53975 -17.45361,-9.14033c-7.84922,-5.77705 -16.23867,-9.8209 -24.32666,-15.21533c-4.44961,-3.42861 -8.61445,-5.65752 -13.34619,-8.52129c-12.05566,-7.29609 -25.33389,-14.46709 -37.13086,-21.92109c-4.00676,-2.53184 -17.18417,-12.03662 -17.7939,-15.49336c0.368,-1.12822 0.29077,-0.82178 1.24503,-1.70039z" fill="#abaaab"/><path d="M13.74173,184.2835c2.70144,1.48008 5.44304,3.58184 8.16571,5.21777l21.10887,12.44443c20.70937,12.27861 41.33086,24.62197 62.06396,36.91611c13.41563,7.95527 26.99121,17.06016 41.01211,23.94873c3.17051,1.55801 8.41992,1.28994 11.77588,0.24756c6.45322,-2.35312 14.41143,-7.71387 20.60742,-11.32119l50.46973,-29.33262c5.35283,-3.1002 10.5917,-6.5458 16.0957,-9.45234c1.42441,-0.75234 4.10244,-2.41113 5.46006,-2.99736l0.22266,0.54727c0.77168,-0.11162 1.6585,-0.33018 2.39648,-0.28945c-2.54385,1.75986 -5.57871,3.37207 -7.84336,4.96699c-7.54834,3.73213 -18.59941,10.64648 -26.09004,15.07559l-44.729,26.06924c-10.01016,5.77822 -16.60986,12.27422 -28.77187,8.25117c-7.55713,-2.49961 -12.87393,-7.44668 -19.61455,-11.44248l-51.23994,-30.94834c-4.754,-2.84004 -9.87129,-5.41963 -14.64053,-8.36016c-2.04756,-1.2624 -4.2082,-3.4626 -5.5623,-4.22227c-3.84902,-2.16006 -8.24971,-4.14932 -12.13213,-6.29736c-4.60547,-2.6543 -8.98975,-5.66074 -13.54055,-8.42637c-4.72395,-2.87109 -12.4415,-5.57959 -15.21431,-10.59492z" fill="#020000"/><path d="M212.7457,236.61563c0.69873,-0.18633 3.33604,-1.69043 4.11592,-2.11611c3.99229,-2.13633 7.93066,-4.37168 11.81162,-6.7043c2.70293,-1.62656 9.49629,-6.36035 12.42393,-5.90918c-7.71826,5.21572 -15.60527,10.17744 -23.64873,14.87695c-3.42861,1.99131 -6.76816,3.60586 -10.20381,5.67598l-18.5584,10.99834c-2.17646,1.30518 -4.87793,3.40107 -6.75205,4.48066c-3.38203,1.94766 -9.46699,4.75752 -13.0793,5.92793c0.0624,-0.93838 0.97617,-2.13984 1.7707,-2.61445c3.78867,-2.26377 7.97988,-4.04795 11.75303,-6.31758l18.70107,-11.40879c3.88301,-2.37393 7.60723,-4.80967 11.66602,-6.88945z" fill="#bebfc1"/><path d="M261.84609,207.67588c1.57119,-0.32314 2.00449,-0.43389 3.5417,0.12246c-1.59287,0.84287 -7.00693,4.26914 -7.94004,4.49971l-0.21094,-0.2001c1.06436,-1.44727 3.36768,-1.86299 3.65332,-2.59834c-0.88154,-0.15527 -1.98721,0.29268 -2.8875,0.56836l-0.0832,-0.11279z" fill="#bebfc1"/><path d="M12.70802,130.12207l0.45366,-0.45498c1.48204,0.7248 3.4638,2.40557 4.98812,3.36123c11.41222,7.15576 23.03663,13.80615 34.5339,20.83213c18.85254,11.52158 38.29043,22.34912 57.17754,33.76787l19.1625,11.36514c5.70234,3.3542 11.70674,7.51992 18.10107,9.23613c5.65283,1.27793 9.78105,0.55371 14.95664,-2.01855c6.2165,-3.08906 11.89307,-7.00986 17.91211,-10.42236c29.35576,-16.70889 58.56943,-33.66592 87.63809,-50.86904c4.78125,-2.87578 9.57627,-5.72402 14.35986,-8.59482c1.87324,-1.12412 4.31133,-3.49219 6.34277,-3.48896l0.08613,-0.03721c0.32021,1.06729 0.47227,1.53281 0.57773,2.63906c-0.70635,0.55488 -1.321,1.30195 -2.01328,1.8873c-3.67207,3.10342 -8.28604,5.12959 -12.45674,7.50557l-20.68271,12.00586c-3.49512,2.04082 -6.81738,4.36875 -10.31865,6.39434c-20.99092,12.14385 -42.2751,23.85527 -62.85586,36.67588c-3.0876,1.92334 -6.39639,3.49424 -9.54316,5.32148c-7.82754,4.54482 -14.92852,9.50244 -24.4541,7.15957c-5.354,-1.31689 -25.40625,-14.13516 -31.10186,-17.5415l-49.31631,-29.40967c-2.15449,-1.28438 -4.61455,-2.34053 -6.68643,-3.64951c-13.65029,-8.62383 -27.83379,-16.36582 -41.53673,-24.90146c-1.34016,-0.83467 -3.02563,-1.97168 -3.85392,-3.31113c-0.15278,-1.09805 -0.19948,-0.64951 0.20353,-1.70449z" fill="url(#color-3)"/><path d="M12.70802,130.12207l0.45366,-0.45498c1.48204,0.7248 3.4638,2.40557 4.98812,3.36123c11.41222,7.15576 23.03663,13.80615 34.5339,20.83213c18.85254,11.52158 38.29043,22.34912 57.17754,33.76787l19.1625,11.36514c5.70234,3.3542 11.70674,7.51992 18.10107,9.23613c5.65283,1.27793 9.78105,0.55371 14.95664,-2.01855c6.2165,-3.08906 11.89307,-7.00986 17.91211,-10.42236c29.35576,-16.70889 58.56943,-33.66592 87.63809,-50.86904c4.78125,-2.87578 9.57627,-5.72402 14.35986,-8.59482c1.87324,-1.12412 4.31133,-3.49219 6.34277,-3.48896c-3.35684,4.32275 -19.65762,13.00459 -25.19355,16.25039l-44.02119,25.60518l-39.33076,22.98691c-5.92178,3.40137 -11.76152,6.86543 -17.79844,10.06318c-5.99385,3.1752 -13.01309,3.67236 -19.15459,0.52354c-8.29248,-4.25156 -16.31045,-9.28564 -24.38379,-14.00039l-56.35869,-33.5877c-12.51914,-7.50996 -25.28057,-14.81631 -37.81207,-22.321c-3.22729,-1.93271 -6.97509,-4.15254 -9.89927,-6.48604z" fill="#4c0000"/><path d="M288.01113,185.01592c0.58975,1.60576 1.94443,3.39814 1.0834,5.03057c-2.41523,4.57939 -7.64736,6.65947 -11.33789,9.75586c-4.43437,3.72012 -7.05088,5.66895 -12.36885,7.996c-1.53721,-0.55635 -1.97051,-0.44561 -3.5417,-0.12246c1.41475,-1.16162 2.62852,-1.77861 2.38008,-3.69697c0.42187,-0.36768 3.55107,-2.18203 4.19795,-2.59482c4.98545,-3.17871 10.49004,-5.96836 15.36475,-9.27129c1.93184,-1.30869 2.65195,-2.35693 2.91621,-4.53076c0.21562,-0.76875 0.88916,-1.83779 1.30605,-2.56611z" fill="url(#color-4)"/><path d="M286.70508,187.58203c-0.26426,2.17383 -0.98437,3.22207 -2.91621,4.53076c-4.87471,3.30293 -10.3793,6.09258 -15.36475,9.27129c-0.64687,0.41279 -3.77607,2.22715 -4.19795,2.59482c-1.89785,0.98613 -10.13936,5.90156 -11.10586,6.2335c-0.73799,-0.04072 -1.6248,0.17783 -2.39648,0.28945l-0.22266,-0.54727c5.06221,-3.1374 10.16836,-6.20361 15.3167,-9.19746c6.12217,-3.49307 15.95186,-8.74248 20.88721,-13.1751z" fill="#020000"/><path d="M22.15441,145.45342c3.46538,1.13438 7.18406,4.15723 10.38562,6.00615c4.04414,2.33525 8.05635,4.85918 12.0791,7.2041l65.50137,38.97187c3.02285,1.8249 25.24629,14.18643 25.32012,15.83877c0.17725,3.96973 0.63896,30.79102 -0.39902,32.36719c-4.44902,-2.10908 -12.32578,-7.2252 -16.76279,-9.91084l-29.06484,-17.40615l-44.77646,-26.51484c-5.63525,-3.37236 -19.50771,-11.09971 -23.38673,-15.1292c0.23479,-6.53115 -0.43784,-26.70469 1.10364,-31.42705z" fill="#020000"/><path d="M110.65781,201.646c0.17344,-0.22119 0.52588,-0.77637 0.70547,-0.76318c1.88555,0.13682 6.61406,3.52471 8.17559,4.51348c3.50391,1.23281 11.47031,6.20596 14.2916,8.53418c0.35537,3.02168 0.11133,6.65566 0.06855,9.74473l-0.09609,12.40488c-0.04424,2.5541 -0.22412,5.46914 0.07061,7.9749c-1.82725,-1.23105 -4.30693,-2.79404 -6.02197,-4.08428c-3.479,-1.50996 -9.28828,-5.23887 -12.75059,-7.34795c-2.76826,-1.6333 -4.23662,-1.69541 -3.46729,-5.01006c-0.68672,-0.85664 -1.41182,-1.88936 -1.60283,-2.98125c-0.721,-4.12207 0.11982,-8.47002 0.26631,-12.60937c0.12305,-3.48076 0.08145,-6.9123 0.36064,-10.37607z" fill="#020000"/><path d="M119.53887,205.39629c3.50391,1.23281 11.47031,6.20596 14.2916,8.53418c0.35537,3.02168 0.11133,6.65566 0.06855,9.74473l-0.09609,12.40488c-0.04424,2.5541 -0.22412,5.46914 0.07061,7.9749c-1.82725,-1.23105 -4.30693,-2.79404 -6.02197,-4.08428c-0.02139,-0.85371 0.00967,-1.4874 -0.28828,-2.30068c-0.21943,-0.76348 -0.25195,-0.92373 -0.27393,-1.7165l0.39492,-0.31172c1.32275,0.13506 3.01201,2.03555 3.91318,3.02402c0.11895,-2.33555 0.49805,-11.87256 -0.32432,-13.25098l0.05684,-0.51299c0.75146,-0.98672 0.64746,-8.61123 0.09053,-9.92227c-0.88975,-0.66563 -2.57549,-0.89912 -3.71748,-1.14375c-1.4124,-3.54346 -5.29453,-5.94053 -8.41025,-7.81289z" fill="url(#color-5)"/><path d="M111.63369,227.6127c-0.68672,-0.85664 -1.41182,-1.88936 -1.60283,-2.98125c-0.721,-4.12207 0.11982,-8.47002 0.26631,-12.60937c0.12305,-3.48076 0.08145,-6.9123 0.36064,-10.37607c0.41895,0.34072 1.69805,1.2876 1.8709,1.6541c-0.6375,1.46748 -1.12764,19.74316 -0.30498,22.56973c0.18662,0.64102 0.79541,1.06729 1.36553,1.42646c-0.55107,0.06035 -1.50117,0.10371 -1.95557,0.31641z" fill="url(#color-6)"/><path d="M131.27314,225.41484c-2.15039,0.26924 -13.68867,-7.40303 -16.45283,-8.76943c-0.90645,-0.44795 -1.7792,-1.18711 -2.12812,-2.17002l0.33779,-0.49688l0.8584,-0.06709c3.14795,1.84131 6.37324,4.01426 9.5751,5.65518c2.20957,1.27734 6.35391,3.46963 7.8665,5.33525z" fill="#e0e0dc"/><path d="M115.10098,232.62275l0.69961,-1.29492l0.79365,-0.06592c1.88643,1.40684 8.84648,6.35684 10.96904,6.40811c0.29795,0.81328 0.26689,1.44697 0.28828,2.30068c-3.479,-1.50996 -9.28828,-5.23887 -12.75059,-7.34795z" fill="#e0e0dc"/><path d="M113.58926,227.29629c1.42412,0.6668 3.44004,0.94307 4.0207,1.57617c0.09404,1.05352 -0.11865,1.30371 -0.9085,2.26172l-0.10723,0.12773l-0.79365,0.06592l-0.69961,1.29492c-2.76826,-1.6333 -4.23662,-1.69541 -3.46729,-5.01006c0.45439,-0.2127 1.40449,-0.25605 1.95557,-0.31641z" fill="#bebfc1"/><path d="M113.88838,213.91143c0.74297,-0.1002 2.41084,-0.32607 3.05273,-0.08818c1.88643,0.69961 6.50215,1.77539 7.05117,3.93516c-0.6252,1.05703 -0.56865,0.64834 -0.52881,1.8082c-3.20186,-1.64092 -6.42715,-3.81387 -9.5751,-5.65518z" fill="#1f2225"/><path d="M110.65781,201.646c0.17344,-0.22119 0.52588,-0.77637 0.70547,-0.76318c1.88555,0.13682 6.61406,3.52471 8.17559,4.51348l-0.24609,0.62666c-2.1249,2.62793 -4.71592,-1.04443 -6.76406,-2.72285c-0.17285,-0.3665 -1.45195,-1.31338 -1.8709,-1.6541z" fill="#e0e0dc"/><path d="M23.59562,176.71084c-0.49676,-3.01553 -0.26309,-26.8667 0.57943,-28.19385l0.75981,0.51211c2.00186,1.12705 3.9646,2.32236 5.88486,3.58359c5.05225,2.61211 10.01807,5.8043 14.93174,8.71084c-0.89824,7.89551 0.13477,15.95273 -0.55137,23.82686c-0.11602,1.33213 -0.65479,2.26055 -0.91729,3.44678c0.27334,0.66826 0.51504,1.04707 0.39463,1.74873c-2.6625,-0.51709 -18.6133,-11.00186 -21.08183,-13.63506z" fill="#020000"/><path d="M24.93486,149.0291c2.00186,1.12705 3.9646,2.32236 5.88486,3.58359c5.05225,2.61211 10.01807,5.8043 14.93174,8.71084c-0.89824,7.89551 0.13477,15.95273 -0.55137,23.82686c-0.11602,1.33213 -0.65479,2.26055 -0.91729,3.44678c-0.20889,-1.04736 0.0832,-1.23721 -0.41016,-2.78848c0.03721,-1.29902 0.52031,-10.69922 -0.29473,-11.24297c-5.8916,-3.93223 -12.25518,-7.48535 -18.39586,-11.04785l-0.13799,-0.33223c-0.0503,-2.59512 -0.06984,-5.2623 -0.21141,-7.84834l0.45806,-3.56484c-0.44309,-1.25361 -0.46626,-1.41885 -0.35587,-2.74336z" fill="#020000"/><path d="M30.81973,152.6127c5.05225,2.61211 10.01807,5.8043 14.93174,8.71084c-0.89824,7.89551 0.13477,15.95273 -0.55137,23.82686c-0.11602,1.33213 -0.65479,2.26055 -0.91729,3.44678c-0.20889,-1.04736 0.0832,-1.23721 -0.41016,-2.78848c0.03721,-1.29902 0.52031,-10.69922 -0.29473,-11.24297c-5.8916,-3.93223 -12.25518,-7.48535 -18.39586,-11.04785l-0.13799,-0.33223l1.19845,-0.71455c1.60254,-0.27803 5.2062,2.61182 6.73286,3.59326c3.6252,2.32383 7.29229,4.58203 10.99922,6.77314c0.09609,-3.98672 0.06768,-7.9752 -0.08496,-11.96016c-1.42236,0.50918 -2.74248,0.66299 -4.22607,0.89326c-2.00068,-5.2541 -5.26084,-5.41934 -9.55342,-8.5125z" fill="#e0e0dc"/><path d="M24.93486,149.0291c2.00186,1.12705 3.9646,2.32236 5.88486,3.58359l-0.70957,0.64541c-0.87475,0.97031 -0.60234,0.95918 -1.69052,1.24482c-0.9641,-0.36855 -1.63512,-1.87529 -3.12891,-2.73047c-0.44309,-1.25361 -0.46626,-1.41885 -0.35587,-2.74336z" fill="#e0e0dc"/><path d="M23.59562,176.71084c-0.49676,-3.01553 -0.26309,-26.8667 0.57943,-28.19385l0.75981,0.51211c-0.11039,1.32451 -0.08722,1.48975 0.35587,2.74336l-0.45806,3.56484c0.14156,2.58604 0.1611,5.25322 0.21141,7.84834l0.13799,0.33223c-0.23912,3.85254 -0.31295,7.71357 -0.22131,11.57256c1.53498,0.17842 3.39867,0.40225 4.48699,1.61865c0.38408,1.40596 -0.63021,2.10645 -0.34901,2.37217c2.03856,1.92451 5.24745,3.68086 7.65536,5.18408c0.48398,0.30205 0.86748,0.36182 1.23193,0.40664c1.31045,-1.00723 0.07676,-1.32305 1.37695,-1.48828c1.7877,0.88359 2.96045,2.31445 4.50967,2.625c0.49336,1.55127 0.20127,1.74111 0.41016,2.78848c0.27334,0.66826 0.51504,1.04707 0.39463,1.74873c-2.6625,-0.51709 -18.6133,-11.00186 -21.08183,-13.63506z" fill="#e0e0dc"/><path d="M24.17505,148.51699l0.75981,0.51211c-0.11039,1.32451 -0.08722,1.48975 0.35587,2.74336l-0.45806,3.56484c-0.57129,-1.39863 -0.5221,-5.15186 -0.65763,-6.82031z" fill="#fefdfd"/><path d="M66.1749,173.62236c1.05967,0.93311 1.07314,0.81621 1.18359,2.33057c0.55781,7.65498 -0.73096,15.58828 0.1207,23.19492c0.08701,0.77725 0.7834,1.43291 1.3043,1.93887l-2.43867,0.06211c-0.3917,-1.9002 -0.89795,-3.78135 -0.91992,-5.71465c-0.03105,-2.73105 0.31201,-5.1334 0.11719,-7.88203c-2.63291,-1.00107 -14.86143,-8.93818 -18.37178,-10.80967c-0.12129,-0.26748 -0.22617,-0.49834 -0.31436,-0.69258l0.27451,-0.45264c1.52021,-0.40166 5.12812,0.95684 6.65215,1.47363c0.8165,0.29355 1.03711,2.14395 1.61133,2.47939c3.76289,2.19727 6.81357,4.10127 10.11973,7.01104c-0.15791,-3.15234 0.49717,-10.37314 0.25957,-12.02344z" fill="#bebfc1"/><path d="M68.7835,201.08672c0.99316,0.51885 1.59785,0.84551 2.65576,1.2082c0.97471,1.00898 0.94014,2.31504 1.48301,2.96309c1.171,1.39834 7.26182,5.27812 8.86055,5.08799c0.9085,-1.08311 0.55518,-1.01045 1.68047,-1.14961c1.24277,0.44766 3.08877,2.3417 3.92871,3.37061c0.56455,0.97676 0.43447,1.46396 0.61201,1.82314c0.23584,1.03066 0.4585,1.11123 0.04512,1.83721c-3.15645,-1.04971 -17.35488,-10.04502 -21.10752,-12.52061c-0.63926,-0.42187 -0.53701,-1.70508 -0.59678,-2.55791z" fill="url(#color-7)"/><path d="M103.42383,208.02539c2.8623,1.5876 3.76377,2.02676 6.13096,4.3749l-0.01025,0.62402l0.24111,-0.1834l-0.6208,0.14912c-2.72197,-0.57744 -18.10225,-9.79687 -19.26387,-11.48789l0.31113,-0.26367c2.5749,0.08408 2.83154,0.4585 4.94883,1.89727c2.90566,-1.39277 6.78809,0.76758 8.31914,3.32256c0.0832,0.73125 0.08906,0.84727 -0.05625,1.56709z" fill="#e0e0dc"/><path d="M95.16094,203.13574c2.90566,-1.39277 6.78809,0.76758 8.31914,3.32256c0.0832,0.73125 0.08906,0.84727 -0.05625,1.56709c-2.93877,-1.29551 -5.7126,-2.93701 -8.26289,-4.88965z" fill="#1f2225"/><path d="M73.28584,177.75205c7.70625,4.1918 15.42715,9.59824 22.52197,13.38896l-0.07881,0.79043c-0.19717,1.08721 -0.23613,1.45371 -1.21729,1.79824c-2.9083,-0.61055 -4.73027,-4.23223 -6.56104,-5.81719l-0.16963,-0.14473l-0.4793,-0.40107l-0.29443,0.48486c-1.30576,0.10811 -4.0084,0.00674 -5.26729,-0.33311c0.09844,-0.52881 0.34951,-1.69922 0.14736,-2.13105c-1.15166,-2.45918 -6.44912,-5.2125 -8.54297,-6.37529z" fill="#e0e0dc"/><path d="M89.15654,216.70752l0.08379,-3.54727c1.88408,0.77725 4.97344,2.09062 5.85645,3.92959c-0.03223,0.39521 -0.12861,1.3415 0.13535,1.58613c1.51113,1.40156 7.82959,4.95996 9.54316,5.25088c-0.14619,0.78867 -0.27334,1.34795 -0.47666,2.11787c-4.5999,-2.40527 -11.17383,-6.15146 -15.14209,-9.33721z" fill="#e0e0dc"/><path d="M87.00732,187.85156l0.29443,-0.48486l0.4793,0.40107c1.89521,5.4457 1.23896,10.41592 1.30342,16.0957c0.03369,2.99326 0.08174,6.41836 -0.50713,9.31875c-0.09434,0.40107 -0.47637,0.29502 -0.57334,1.20791c-0.17754,-0.35918 -0.04746,-0.84639 -0.61201,-1.82314c-0.23467,-2.50752 -0.08232,-6.9498 0.0082,-9.58096c0.18926,-5.50752 0.1834,-9.66973 -0.39287,-15.13447z" fill="#bebfc1"/><path d="M46.1042,190.99131c-0.36475,-1.26387 -1.02832,-2.56875 -0.15703,-3.62783c3.39346,-0.12744 7.02305,8.30215 13.42764,10.16104c-0.12012,0.92402 -0.17373,1.01338 0.11016,1.89346c-4.5668,-2.43691 -9.28506,-5.28369 -13.38076,-8.42666z" fill="#e0e0dc"/><path d="M71.56494,189.31348c3.78691,1.96465 11.36602,6.68467 15.18896,9.30762c0.11514,0.29531 0.21328,0.54785 0.29473,0.75703l-0.19248,0.5792c-1.25508,-0.00439 -14.72725,-8.34053 -16.96523,-9.60117c0.52529,-0.43447 1.07959,-0.70986 1.67402,-1.04268z" fill="#e0e0dc"/><path d="M59.3748,197.52451l0.11865,-1.43818c1.30488,-1.09951 3.83525,0.92168 5.41758,1.57939c0.17139,1.25244 0.55957,2.91299 0.08906,4.02305c-1.64355,1.41123 -4.06084,-1.09863 -5.51514,-2.2708c-0.28389,-0.88008 -0.23027,-0.96943 -0.11016,-1.89346z" fill="#fefdfd"/><path d="M52.43525,165.44414c2.13018,0.8833 12.44795,6.56602 13.73965,8.17822l-0.40166,0.91553c-0.48252,0.07764 -0.96797,0.13564 -1.45547,0.17344c-2.85352,0.21299 -3.52676,-2.83213 -5.42373,-4.31865c-2.09941,-1.64502 -4.50146,-2.72666 -6.5417,-4.48477z" fill="#e0e0dc"/><path d="M104.77529,223.92686l0.06416,-1.46836l0.4415,-0.3873c1.97139,0.20801 5.35898,4.76367 4.77598,6.71895c-1.2542,0.5083 -4.60459,-1.92979 -5.7583,-2.74541c0.20332,-0.76992 0.33047,-1.3292 0.47666,-2.11787z" fill="#fefdfd"/><path d="M46.14756,161.72227c1.49355,0.69316 5.28574,2.5875 6.2877,3.72188l-0.08291,0.46377c-0.41514,0.80098 -0.48809,0.96914 -1.11475,1.62334c-2.76299,0.52412 -4.40537,-3.7415 -5.09004,-5.80898z" fill="#e0e0dc"/><path d="M73.34443,179.01211c-0.41514,0.72656 -0.5127,1.01631 -1.28613,1.34912c-2.11055,0.06123 -4.1502,-3.38848 -3.15615,-5.08096c1.00518,0.05713 3.38057,1.80996 4.38369,2.47178z" fill="#fefdfd"/><path d="M105.58975,196.85654c1.35937,0.78574 4.49561,2.17324 3.49922,4.09043c-2.01797,0.83672 -4.76953,-0.82031 -5.24531,-2.8626c0.50156,-0.25371 1.26914,-0.87041 1.74609,-1.22783z" fill="#fefdfd"/><path d="M95.80781,191.14102c2.12256,0.78486 8.05723,4.16836 9.78193,5.71553c-0.47695,0.35742 -1.24453,0.97412 -1.74609,1.22783c-0.64453,-1.61631 -6.32314,-4.99893 -8.11465,-6.15293z" fill="#e0e0dc"/><path d="M69.89092,190.35615c-0.88564,-0.44033 -1.26357,-0.74766 -1.31514,-1.69131l0.65479,-0.34072c0.89531,-0.00615 1.56943,0.51826 2.33438,0.98936c-0.59443,0.33281 -1.14873,0.6082 -1.67402,1.04268z" fill="#e0e0dc"/><path d="M169.98809,216.571c3.97734,0.52529 4.14961,1.10303 4.6459,4.97637c-1.56973,1.48418 -2.50166,5.3584 -5.73516,4.6582c-3.30615,-1.96611 -2.62852,-7.80264 1.08926,-9.63457z" fill-opacity="0.98824" fill="#02dafb"/><path d="M176.8585,215.29131c0.54844,-1.64736 1.40068,-3.11543 3.02373,-3.85723c6.10518,-2.79053 5.5916,6.47285 0.99463,8.71406c-0.83584,0.05303 -0.97354,0.07734 -1.73438,-0.25664c-1.28115,-2.37422 -1.38164,-1.79121 -2.28398,-4.6002z" fill="#02dafb"/><path d="M169.90693,232.36934c5.66689,-0.00293 4.94561,6.06152 1.53926,9.3501c-0.4998,0.1752 -1.28789,0.45352 -1.81787,0.42949c-0.60732,-0.03164 -1.17451,-0.31377 -1.56592,-0.779c-1.754,-2.09326 -0.2748,-7.23193 1.84453,-9.00059z" fill="#02dafb"/><path d="M190.86416,221.83828c4.97754,-0.60791 4.34473,5.80605 0.5127,8.47412c-5.33701,0.2833 -5.77705,-6.58799 -0.5127,-8.47412z" fill="#02dafb"/><path d="M180.10752,227.58662c1.47422,-0.13652 2.87549,0.01055 3.69375,1.31367c1.79385,2.85615 0.45234,4.80645 -1.66436,6.47842c-5.02617,1.85859 -4.61104,-0.64395 -4.47158,-4.7417c0.86865,-1.43437 1.13877,-1.93271 2.44219,-3.05039z" fill-opacity="0.98824" fill="#02dafb"/><path d="M190.76045,205.35938c4.48125,0.41865 4.00459,6.97324 0.23848,8.71846c-5.4832,0.23906 -4.32891,-6.17695 -0.23848,-8.71846z" fill="#02dafb"/><path d="M222.49775,205.89229c0.95771,0.00205 0.59033,-0.12773 1.36729,0.53643c0.87275,2.91123 -1.25156,5.08242 -3.36445,6.62139l-0.51533,0.21328l-0.41309,-0.27861c-0.25693,-1.28232 0.09229,-3.54844 0.23789,-4.92803c0.70195,-0.68496 1.87852,-1.53955 2.6877,-2.16445z" fill="#020000"/><path d="M214.56152,210.48516c3.36416,1.89727 0.36621,5.7668 -1.66055,7.35234c-1.20293,-0.30059 -1.71855,-1.71445 -1.5293,-2.83066c0.36709,-2.16328 1.58145,-3.271 3.18984,-4.52168z" fill="#020000"/><path d="M237.2666,176.50811c3.99727,0.57393 1.47246,4.81729 -0.64307,6.41865c-0.92461,0.40693 -0.58066,0.39521 -1.42793,0.25605c-1.5,-1.91191 0.59941,-5.24912 2.071,-6.67471z" fill="#020000"/><path d="M265.84688,180.98584l0.63926,0.05654c2.52334,2.12871 -0.42246,5.49404 -2.39209,6.82588c-0.30293,-0.10898 -0.57363,-0.32227 -0.84961,-0.50566c-1.31543,-2.52715 0.77842,-4.82812 2.60244,-6.37676z" fill="#020000"/><path d="M273.21035,155.11055c0.76465,0.12129 0.84434,0.2209 1.40508,0.7667c1.1458,2.58457 -0.86895,4.66787 -2.77529,6.13213c-0.45996,0.0293 -0.66943,-0.10957 -1.08926,-0.29355c-1.19004,-2.20459 0.97324,-5.04111 2.45947,-6.60527z" fill="#020000"/><path d="M229.60781,180.96416c1.11533,0.10723 0.74736,-0.05889 1.56094,0.52031c1.24805,2.2459 -0.71807,4.65762 -2.47617,5.92178c-0.68232,0.22471 -0.404,0.19658 -1.1833,-0.07295c-1.3459,-1.99424 0.62285,-4.98311 2.09854,-6.36914z" fill="#020000"/><path d="M252.56777,188.84443c1.07197,0.33135 1.55537,1.9333 1.26152,2.954c-0.57568,1.99834 -1.78945,2.9042 -3.47988,3.97441l-0.66768,-0.38115c-1.39043,-2.58604 1.00605,-5.05518 2.88604,-6.54727z" fill="#020000"/><path d="M222.03311,185.65313l1.20732,0.13506c1.98809,1.80967 -0.69902,4.73818 -2.071,6.20859l-0.62988,0.3835l-0.56602,-0.14385c-1.20703,-2.46416 0.03926,-5.02676 2.05957,-6.5833z" fill="#020000"/><path d="M230.68652,201.17256c1.1335,0.48984 1.41943,2.09355 1.08516,3.2168c-0.63076,2.11934 -1.58408,2.86084 -3.41924,3.96357l-0.71455,-0.04277c-1.48477,-2.05312 1.60986,-5.63818 3.04863,-7.1376z" fill="#020000"/><path d="M265.51348,159.84932c0.41982,0.22559 0.62754,0.44414 0.99111,0.75176c1.26797,2.46768 -0.73242,4.82695 -2.66514,6.19395c-0.47842,-0.06387 -0.61348,-0.24229 -0.98203,-0.55254c-1.14785,-2.47178 0.80186,-4.92305 2.65605,-6.39316z" fill="#020000"/><path d="M230.3959,190.92217c0.50625,0.2833 0.83203,0.46846 1.02334,1.05703c1.00664,3.09873 -1.11299,4.88584 -3.34014,5.88398l-0.57832,-0.39902c-1.24277,-2.46475 1.16924,-4.98984 2.89512,-6.54199z" fill="#020000"/><path d="M273.33574,176.50723c0.39844,-0.00732 0.60908,0.15146 0.96299,0.3375c1.65732,2.51133 -0.27891,4.9582 -2.0874,6.62813l-0.77783,0.11396l-0.40664,-0.33633c-0.38613,-1.23164 0.00937,-2.94668 0.2042,-4.27295c0.51328,-0.7667 1.46016,-1.75723 2.10469,-2.47031z" fill="#020000"/><path d="M258.01816,185.2749c3.871,0.01992 1.72354,4.54746 0.15205,6.24639c-0.70693,0.31582 -0.75996,0.3832 -1.48213,0.23584c-1.3834,-1.95146 -0.19834,-4.89844 1.33008,-6.48223z" fill="#020000"/><path d="M251.57578,178.87646c0.64014,0.04219 0.67354,0.09199 1.23691,0.43623c1.48623,2.28486 0.13418,4.51816 -1.86738,5.88486c-0.67178,0.15117 -0.69551,0.12686 -1.34561,-0.17168c-1.43584,-1.92627 0.59824,-4.79766 1.97607,-6.14941z" fill="#020000"/><path d="M244.81816,192.56104c0.52441,0.16348 0.96064,0.41455 1.2123,0.92842c1.40303,2.8623 -0.13975,4.57324 -2.44746,5.95371l-0.85371,0.05068l-0.32725,-0.41309c-0.17578,-2.4082 0.97969,-4.66816 2.41611,-6.51973z" fill="#020000"/><path d="M244.4625,172.38369c4.37842,1.03506 0.84727,4.57705 -0.7166,6.11631c-0.76172,0.31494 -0.42979,0.26953 -1.26709,0.14824c-1.52842,-1.83721 0.6999,-4.93506 1.98369,-6.26455z" fill="#020000"/><path d="M238.33037,197.03994c2.56055,1.65322 0.24668,5.59834 -2.3666,6.81211l-0.6375,-0.55986c-0.8751,-2.73252 0.95098,-4.68516 3.0041,-6.25225z" fill="#020000"/><path d="M213.7418,190.29229c4.19355,1.22549 1.28174,4.51523 -0.51943,6.33574c-0.18926,0.07148 -0.68467,0.10752 -0.91318,0.13359c-1.82227,-1.52725 0.38906,-4.97051 1.43262,-6.46934z" fill="#020000"/><path d="M222.35508,195.64043l0.8335,0.41895c1.52842,2.24355 -0.79248,4.72295 -2.38682,6.13125c-0.61377,-0.07383 -0.4374,-0.0627 -1.00078,-0.46553c-1.16396,-2.44512 0.63135,-4.7458 2.5541,-6.08467z" fill="#020000"/><path d="M250.73408,168.63809c3.20039,0.04863 2.67861,3.71016 0.25107,5.43545c-0.68408,0.30615 -0.73916,0.36768 -1.46338,0.32402c-1.51934,-1.68281 -0.29561,-4.4083 1.2123,-5.75947z" fill="#020000"/><path d="M237.65654,187.11357l0.73799,0.28184c1.78389,2.4085 -0.23994,4.4291 -2.10908,6.05859c-0.43857,0.11514 -0.58154,0.03926 -1.05029,-0.02402c-1.40771,-1.99482 1.03359,-4.95791 2.42139,-6.31641z" fill="#020000"/><path d="M258.48984,164.26201c3.09932,1.2999 0.07764,5.09502 -1.34912,6.45439c-3.36533,-0.55811 -0.67646,-5.09209 1.34912,-6.45439z" fill="#020000"/><path d="M273.52705,166.28467l0.69287,0.56953c1.23516,2.79639 -0.38438,4.5126 -2.54238,6.16289l-0.67881,-0.46201c-1.32363,-2.48115 0.68672,-4.75781 2.52832,-6.27041z" fill="#020000"/><path d="M214.21113,200.27285l0.69609,0.26279c1.61396,1.94297 -0.65918,4.97607 -1.97373,6.43301c-0.36211,-0.12187 -0.59033,-0.30264 -0.91729,-0.50889c-1.4833,-2.56787 0.26543,-4.54365 2.19492,-6.18691z" fill="#020000"/><path d="M265.71123,170.67158c0.43154,0.10898 0.50947,0.20215 0.89268,0.43213c1.29932,2.47939 -0.57275,4.63008 -2.49785,6.01729c-0.32637,0.09756 -0.49277,0.02959 -0.85078,-0.01582c-1.0623,-2.23916 0.93047,-4.93184 2.45596,-6.43359z" fill="#020000"/><path d="M245.01914,182.6959c0.19072,0.08906 0.61963,0.40664 0.81562,0.54258c1.40537,2.59951 -0.82617,4.50791 -2.81045,5.86758l-0.57979,-0.28564c-1.28994,-2.29629 0.92373,-4.72207 2.57461,-6.12451z" fill="#020000"/><path d="M258.66357,174.71514c0.43975,0.11836 0.55371,0.21797 0.9501,0.43506c1.19971,2.28369 -0.69961,4.76953 -2.51895,6.04688l-0.76289,-0.00938l-0.40957,-0.53496c-0.08291,-2.62441 1.03535,-4.08398 2.74131,-5.9376z" fill="#020000"/><path d="M169.98809,216.571c1.68311,-0.68936 4.85596,0.55576 6.87041,-1.27969c0.90234,2.80898 1.00283,2.22598 2.28398,4.6002c-1.08604,-0.82031 -1.54189,-1.31338 -2.91416,-1.42734c-1.03154,0.88037 -0.65127,2.35957 -1.59434,3.0832c-0.49629,-3.87334 -0.66855,-4.45107 -4.6459,-4.97637z" fill="#df5800"/><path d="M289.03535,118.25186c-0.0873,4.48066 -0.029,9.49688 -0.61904,13.90166c-0.04102,0.30557 -0.03691,0.33662 0.0041,0.64512l-0.08613,0.03721c-2.03145,-0.00322 -4.46953,2.36484 -6.34277,3.48896c-4.78359,2.8708 -9.57861,5.71904 -14.35986,8.59482c-29.06865,17.20313 -58.28232,34.16016 -87.63809,50.86904c-6.01904,3.4125 -11.69561,7.3333 -17.91211,10.42236c-5.17559,2.57227 -9.30381,3.29648 -14.95664,2.01855c0.46318,-0.07705 0.37354,-0.0876 0.78047,-0.39404c0.73125,-2.89922 -1.04121,-6.99492 -0.96797,-9.48779c0.89941,-1.16484 3.3627,-0.79863 5.26904,-1.14141c6.31816,-0.53906 8.9502,-2.22627 14.41816,-5.44102c2.50137,-1.01191 11.70059,-6.73184 14.2207,-8.33467c1.67666,-0.87246 4.14492,-2.4498 5.83945,-3.45439c1.13936,-0.34102 8.69414,-4.94736 10.25127,-5.88076l15.81533,-9.32695c3.6126,-1.88145 7.7792,-4.62187 11.36396,-6.7415l20.39648,-12.00205c10.66582,-6.38496 22.14639,-12.7333 32.67715,-19.26562c2.58281,-0.99521 6.84785,-4.04033 8.93291,-5.86201c1.11855,-0.97676 1.5167,-1.86621 2.91357,-2.64551z" fill="#df5800"/><path d="M11.31393,112.82109c0.10816,1.56621 -0.19705,2.44541 1.46092,3.10049l0.08921,0.21943c0.60243,1.32305 0.85485,1.81406 2.00927,2.73838l1.20738,-0.9293c5.84312,3.81943 12.3024,7.45371 18.27633,11.23096c7.41416,4.68838 15.30879,8.85938 22.7543,13.59199l0.85869,2.11523c4.78359,2.83535 9.30762,5.77529 14.02031,8.61416l56.65107,33.60645c4.16924,3.07119 13.79268,8.41523 18.86016,9.87158c0.91113,0.26191 3.64453,0.23643 4.70479,0.22588c-1.90635,0.34277 -4.36963,-0.02344 -5.26904,1.14141c-0.07324,2.49287 1.69922,6.58857 0.96797,9.48779c-0.40693,0.30645 -0.31729,0.31699 -0.78047,0.39404c-6.39434,-1.71621 -12.39873,-5.88193 -18.10107,-9.23613l-19.1625,-11.36514c-18.88711,-11.41875 -38.325,-22.24629 -57.17754,-33.76787c-11.49727,-7.02598 -23.12168,-13.67637 -34.5339,-20.83213c-1.52432,-0.95566 -3.50607,-2.63643 -4.98812,-3.36123l-0.45366,0.45498l-0.99929,-0.01318c-0.33888,-2.6959 -0.74801,-14.56055 -0.3948,-17.28779z" fill="#fe7400"/><path d="M16.0807,117.9501c5.84312,3.81943 12.3024,7.45371 18.27633,11.23096c7.41416,4.68838 15.30879,8.85938 22.7543,13.59199l0.85869,2.11523c-2.82012,-1.60928 -6.02578,-3.28916 -8.72842,-5.02559c-11.24355,-7.22344 -23.35233,-13.47129 -34.36828,-20.9833z" fill="#ffe063"/><path d="M57.11133,142.77305c3.25225,1.81553 7.06641,3.7752 10.15547,5.80283c7.51113,4.93066 15.15586,9.43828 22.95205,13.9043c2.45508,1.40625 4.74521,3.38643 7.20176,4.82578c3.51445,2.17881 7.65469,4.02773 11.16475,6.18867c6.55986,4.03857 14.17412,9.11104 21.10693,12.40488l-1.05088,1.20937l-56.65107,-33.60645c-4.7127,-2.83887 -9.23672,-5.77881 -14.02031,-8.61416z" fill="#ffe063"/><path d="M211.23867,163.6541c3.23232,-1.95996 15.65889,-9.87568 18.42422,-10.24863c4.70859,-0.63486 39.05742,-22.93799 47.13252,-26.88076l0.39346,0.23467c-10.53076,6.53232 -22.01133,12.88066 -32.67715,19.26563l-20.39648,12.00205c-3.58477,2.11963 -7.75137,4.86006 -11.36396,6.7415c-0.71338,-0.34834 -0.93369,-0.5877 -1.5126,-1.11445z" fill="#ffe063"/><path d="M129.69229,185.89951c13.1168,8.47441 20.93613,15.01084 35.7085,4.83574l1.22373,1.03008c-5.46797,3.21475 -8.1,4.90195 -14.41816,5.44102c-1.06025,0.01055 -3.79365,0.03604 -4.70479,-0.22588c-5.06748,-1.45635 -14.69092,-6.80039 -18.86016,-9.87158z" fill="url(#color-8)"/><path d="M185.35078,178.98574c8.57725,-5.65049 17.20488,-9.86279 25.88789,-15.33164c0.57891,0.52676 0.79922,0.76611 1.5126,1.11445l-15.81533,9.32695c-1.55713,0.9334 -9.11191,5.53975 -10.25127,5.88076z" fill="#ffc80f"/><path d="M165.40078,190.73525c4.19473,-2.61211 9.42949,-6.08496 13.86797,-8.11494l1.05264,0.04805c0.11924,0.16758 0.44854,0.60615 0.52383,0.7623c-2.52012,1.60283 -11.71934,7.32275 -14.2207,8.33467z" fill="#ffc80f"/><path d="M185.35078,178.98574l1.33389,0.99053c-1.69453,1.00459 -4.16279,2.58193 -5.83945,3.45439c-0.07529,-0.15615 -0.40459,-0.59473 -0.52383,-0.7623l-1.05264,-0.04805c2.11172,-1.20381 4.03916,-2.31973 6.08203,-3.63457z" fill="#ffe063"/><path d="M12.86405,116.14102l0.41897,-0.71543c1.18102,0.56719 1.63731,1.65557 2.79768,2.52451l-1.20738,0.9293c-1.15441,-0.92432 -1.40684,-1.41533 -2.00927,-2.73838z" fill="#ffe063"/><path d="M146.61387,94.48271c5.36631,-4.93594 9.15439,-8.59365 16.70742,-9.48281c9.76289,-1.38516 16.86504,3.33018 24.62813,8.56494c7.02012,4.73379 14.16855,6.38496 15.25283,16.00605c1.09512,1.55977 1.25186,3.03984 0.94219,4.93535c-0.08379,0.4875 -0.18604,0.97178 -0.30674,1.45166c-0.27041,0.59941 -0.7541,1.75078 -1.06055,2.27139c-1.06406,1.35645 -1.55977,1.92686 -2.93262,2.98975c-3.64863,2.97539 -7.46719,5.70967 -11.20078,8.58076c-7.28643,5.60273 -12.9249,10.84307 -22.85156,9.95391c-5.14043,-0.46055 -10.12939,-3.16992 -14.45215,-5.91592c-1.77891,1.35938 -2.729,2.15361 -4.321,3.72158c-14.83623,12.89473 -26.23301,5.37861 -39.89795,-3.94248c-4.56797,-3.11631 -9.59707,-4.54365 -12.61494,-9.65508c-1.43408,-0.97324 -1.76221,-4.63154 -1.14521,-6.23789c0.34687,-0.19629 0.51328,-0.80244 0.70986,-1.24717c-0.16816,-9.43096 3.8625,-9.87744 10.59961,-15.00586c15.23965,-11.60039 23.58604,-18.69756 41.94346,-6.98818z" fill="#fefdfd"/><path d="M201.37061,114.78984c0.09023,0.26162 0.37354,1.13408 0.47432,1.33301l-0.23145,0.97383l1.16367,1.13262c-1.06406,1.35645 -1.55977,1.92686 -2.93262,2.98975c-3.64863,2.97539 -7.46719,5.70967 -11.20078,8.58076c-7.28643,5.60273 -12.9249,10.84307 -22.85156,9.95391c-5.14043,-0.46055 -10.12939,-3.16992 -14.45215,-5.91592c-1.77891,1.35938 -2.729,2.15361 -4.321,3.72158c-14.83623,12.89473 -26.23301,5.37861 -39.89795,-3.94248c-4.56797,-3.11631 -9.59707,-4.54365 -12.61494,-9.65508c-1.43408,-0.97324 -1.76221,-4.63154 -1.14521,-6.23789c0.34687,-0.19629 0.51328,-0.80244 0.70986,-1.24717c0.47754,2.50811 0.74121,3.36035 2.34316,5.46973c4.64736,3.73857 21.64717,14.8292 26.97627,16.72119c2.74336,0.98994 5.66455,1.39043 8.57344,1.17539c6.05332,-0.44678 10.16074,-2.77178 14.66191,-6.61377c1.63125,-1.39248 2.88311,-2.18057 4.3541,-3.87393c4.42324,3.13594 11.76152,5.95107 17.36016,5.87754c9.88037,-0.12979 14.93789,-6.25107 22.37578,-11.81484c2.83711,-2.12197 8.31855,-6.19395 10.65498,-8.62822z" fill="#fe7400"/><path d="M201.61348,117.09668l1.16367,1.13262c-1.06406,1.35645 -1.55977,1.92686 -2.93262,2.98975c-3.64863,2.97539 -7.46719,5.70967 -11.20078,8.58076c-7.28643,5.60273 -12.9249,10.84307 -22.85156,9.95391c-5.14043,-0.46055 -10.12939,-3.16992 -14.45215,-5.91592c-1.77891,1.35938 -2.729,2.15361 -4.321,3.72158l-1.09014,-0.8458c2.0127,-1.67109 3.26953,-3.03984 5.06367,-4.96758c2.9877,2.58809 9.53203,5.66279 13.49326,6.29678c8.79902,1.40859 13.99248,-2.26553 20.67803,-7.2085c4.99834,-3.6958 9.64453,-7.69688 14.63438,-11.204c0.08936,-0.24609 1.58027,-2.21543 1.81523,-2.53359z" fill="url(#color-9)"/><path d="M201.61348,117.09668l1.16367,1.13262c-1.06406,1.35645 -1.55977,1.92686 -2.93262,2.98975c0.20391,-0.48809 0.78105,-1.35205 1.07842,-1.87939c-0.33223,0.11045 -0.51738,0.17168 -0.86309,0.23994l-0.26162,0.05068c0.08936,-0.24609 1.58027,-2.21543 1.81523,-2.53359z" fill="#b23600"/><path d="M94.50615,123.96182c0.17344,-0.05713 1.04678,-0.1793 1.28145,-0.21592c3.63105,5.12637 8.68154,7.021 13.88232,10.15898c3.82148,2.30596 7.41826,5.05957 11.3874,7.10889c9.05801,4.67695 17.60508,1.72676 24.87158,-4.3002l1.09014,0.8458c-14.83623,12.89473 -26.23301,5.37861 -39.89795,-3.94248c-4.56797,-3.11631 -9.59707,-4.54365 -12.61494,-9.65508z" fill="#b23600"/><path d="M203.20225,109.5709c1.09512,1.55977 1.25186,3.03984 0.94219,4.93535c-0.08379,0.4875 -0.18604,0.97178 -0.30674,1.45166c-0.27041,0.59941 -0.7541,1.75078 -1.06055,2.27139l-1.16367,-1.13262l0.23145,-0.97383c-0.10078,-0.19893 -0.38408,-1.07139 -0.47432,-1.33301c1.18184,-1.96348 1.529,-2.95371 1.83164,-5.21895z" fill="#df5800"/><path d="M201.84492,116.12285c0.84404,-0.51211 1.02803,-0.79189 1.99277,-0.16494c-0.27041,0.59941 -0.7541,1.75078 -1.06055,2.27139l-1.16367,-1.13262z" fill="#ce4100"/><path d="M106.69541,115.37871c-0.12334,-0.59971 -0.07617,-1.17803 0.18428,-1.73115c1.40889,-2.99062 16.97813,-14.49932 20.37041,-15.57627c4.18154,-1.32773 8.13721,0.2332 11.82217,2.07744c-0.37148,1.42764 -1.86475,2.3918 -3.08555,3.38379c-2.71289,3.0876 -5.03496,5.30273 -4.76455,9.71924c0.03105,0.51768 0.09141,1.0333 0.18018,1.54424c0.74824,1.34502 1.11475,2.07334 2.14336,3.25488c2.59277,1.95322 5.25645,3.75 7.93359,5.58252c-0.54697,1.31514 -1.52842,1.90781 -2.71084,2.73135c-9.44795,7.7499 -15.8584,0.22881 -24.32578,-4.38369c-2.28281,-1.24365 -4.69482,-2.89307 -6.55898,-4.69541c-0.45703,-0.55576 -0.82734,-1.27441 -1.18828,-1.90693z" fill="#fe9900"/><path d="M106.69541,115.37871c-0.12334,-0.59971 -0.07617,-1.17803 0.18428,-1.73115c1.40889,-2.99062 16.97813,-14.49932 20.37041,-15.57627c4.18154,-1.32773 8.13721,0.2332 11.82217,2.07744c-0.37148,1.42764 -1.86475,2.3918 -3.08555,3.38379c-0.91611,-0.80303 -1.27529,-0.84258 -2.46973,-1.13965c-1.979,-0.18896 -4.60605,-0.39434 -6.43975,0.5001c-5.29658,2.5834 -9.61055,7.13437 -14.46504,10.48535c-1.51494,1.0459 -3.56602,2.54912 -4.72852,3.90732c-0.45703,-0.55576 -0.82734,-1.27441 -1.18828,-1.90693z" fill="#fe7400"/><path d="M106.69541,115.37871c0.11104,-0.20186 0.18428,-0.35039 0.41836,-0.44531c4.30869,-1.74932 17.13604,-12.94687 20.47002,-13.95908l0.19219,-0.05654c1.68867,-0.50566 2.80723,-0.45381 4.54102,-0.44883l1.91631,0.68994l0.0917,0.45586c-0.21504,0.20127 -0.63691,0.57012 -0.80801,0.77812c-1.979,-0.18896 -4.60605,-0.39434 -6.43975,0.5001c-5.29658,2.5834 -9.61055,7.13437 -14.46504,10.48535c-1.51494,1.0459 -3.56602,2.54912 -4.72852,3.90732c-0.45703,-0.55576 -0.82734,-1.27441 -1.18828,-1.90693z" fill="#b23600"/><path d="M139.07227,100.14873c-0.37148,1.42764 -1.86475,2.3918 -3.08555,3.38379c-0.91611,-0.80303 -1.27529,-0.84258 -2.46973,-1.13965c0.17109,-0.20801 0.59297,-0.57686 0.80801,-0.77812l-0.0917,-0.45586l-1.91631,-0.68994c2.72549,-0.10605 3.98291,0.73916 6.75527,-0.32021z" fill="#ce4100"/><path d="M133.5457,118.05088c2.59277,1.95322 5.25645,3.75 7.93359,5.58252c-0.54697,1.31514 -1.52842,1.90781 -2.71084,2.73135c-1.78271,-1.63506 -3.96299,-1.41064 -7.08984,-5.45713c0.49453,-0.5707 0.63252,-0.84727 1.34238,-1.01836c0.04775,-0.6457 0.3041,-1.22285 0.52471,-1.83838z" fill="#ce4100"/><path d="M133.5457,118.05088c2.59277,1.95322 5.25645,3.75 7.93359,5.58252c-3.30469,1.09131 -6.39902,-1.27646 -8.4583,-3.74414c0.04775,-0.6457 0.3041,-1.22285 0.52471,-1.83838z" fill="#fe7400"/><path d="M131.40234,114.796c0.74824,1.34502 1.11475,2.07334 2.14336,3.25488c-0.22061,0.61553 -0.47695,1.19268 -0.52471,1.83838c-0.70986,0.17109 -0.84785,0.44766 -1.34238,1.01836c-1.25918,-1.58057 -2.03965,-4.62949 -0.27627,-6.11162z" fill="#df5800"/><path d="M156.35039,100.39072c-0.86045,-0.51943 -0.81914,-0.30264 -1.07813,-1.03857c0.92197,-1.21494 7.90166,-5.53301 10.24834,-5.56055c6.76641,-0.0791 16.7792,7.86885 22.49736,11.43281c1.32187,0.82383 2.1126,2.06104 2.40352,3.35391l-0.34629,1.84102c-1.65615,2.56436 -16.98105,14.91475 -21.02314,15.42539c-2.88428,0.36416 -4.5123,0.21621 -7.13994,-1.07959c-0.97324,-0.46992 -2.67012,-1.2498 -3.18018,-2.15391c0.21885,-0.7251 0.04277,-0.46846 0.85254,-0.91816c1.78359,-1.66025 3.50801,-3.38291 5.17002,-5.16475c0.94219,-1.36318 1.2791,-2.75684 1.46514,-4.36816c-0.81709,-5.60801 -3.70137,-7.28848 -7.90078,-10.57236z" fill="#fe9900"/><path d="M156.35039,100.39072c-0.86045,-0.51943 -0.81914,-0.30264 -1.07813,-1.03857c0.92197,-1.21494 7.90166,-5.53301 10.24834,-5.56055c6.76641,-0.0791 16.7792,7.86885 22.49736,11.43281c1.32187,0.82383 2.1126,2.06104 2.40352,3.35391l-0.34629,1.84102c-5.75361,-1.425 -15.29561,-10.07461 -21.30996,-11.90391c-3.61729,-1.1001 -7.41826,1.29023 -10.44639,3.07236z" fill="#fe7400"/><path d="M156.35039,100.39072c3.53467,-2.06602 7.96406,-4.5457 12.12949,-3.629c5.54736,1.2208 16.97285,12.32988 21.9416,11.8166l-0.34629,1.84102c-5.75361,-1.425 -15.29561,-10.07461 -21.30996,-11.90391c-3.61729,-1.1001 -7.41826,1.29023 -10.44639,3.07236z" fill="#ce4100"/><path d="M166.21963,112.16016c2.97949,4.58789 0.11777,9.77988 -4.0418,12.4377c-0.08818,0.05625 -0.17695,0.11191 -0.26572,0.16729c-0.97324,-0.46992 -2.67012,-1.2498 -3.18018,-2.15391c0.21885,-0.7251 0.04277,-0.46846 0.85254,-0.91816c1.78359,-1.66025 3.50801,-3.38291 5.17002,-5.16475c0.94219,-1.36318 1.2791,-2.75684 1.46514,-4.36816z" fill="url(#color-10)"/><path d="M159.58447,121.69307c1.78359,-1.66025 3.50801,-3.38291 5.17002,-5.16475c1.81816,3.33809 -1.72705,5.83418 -5.17002,5.16475z" fill="#fe7400"/><path d="M148.28379,105.14736c1.93506,2.16533 5.6918,4.68252 5.98477,7.15723c-1.78711,2.22656 -3.15088,3.56309 -5.45039,5.30391c-1.57266,-0.90586 -2.25645,-1.28115 -3.64629,-2.49463c-3.99141,-4.10566 0.06357,-6.83672 3.11191,-9.9665z" fill="#df5800"/><path d="M145.17188,115.11387c1.67842,-3.71426 5.62998,-4.08164 9.09668,-2.80928c-1.78711,2.22656 -3.15088,3.56309 -5.45039,5.30391c-1.57266,-0.90586 -2.25645,-1.28115 -3.64629,-2.49463z" fill="#fe9900"/></g></svg></svg>