<svg id="svg" version="1.1" viewBox="0 0 300 300" width="300" height="300" xmlns="http://www.w3.org/2000/svg"><svg xmlns="http://www.w3.org/2000/svg"><defs><clipPath id="clip-1"><rect x="0" y="0" transform="scale(0.29297,0.29297)" width="1024" height="1024" fill="none"/></clipPath><linearGradient x1="205.55273" y1="173.87197" x2="211.85361" y2="185.53975" gradientUnits="userSpaceOnUse" id="color-1"><stop offset="0" stop-color="#00302e"/><stop offset="1" stop-color="#001737"/></linearGradient><linearGradient x1="219.07295" y1="228.75264" x2="221.30508" y2="232.58643" gradientUnits="userSpaceOnUse" id="color-2"><stop offset="0" stop-color="#001200"/><stop offset="1" stop-color="#000201"/></linearGradient><linearGradient x1="58.22842" y1="136.0333" x2="55.39482" y2="140.31709" gradientUnits="userSpaceOnUse" id="color-3"><stop offset="0" stop-color="#d7fec0"/><stop offset="1" stop-color="#eeffe0"/></linearGradient><linearGradient x1="149.49551" y1="177.54463" x2="130.83838" y2="191.25234" gradientUnits="userSpaceOnUse" id="color-4"><stop offset="0" stop-color="#81e290"/><stop offset="1" stop-color="#c3ffc1"/></linearGradient><linearGradient x1="192.07881" y1="102.81328" x2="187.48945" y2="120.69141" gradientUnits="userSpaceOnUse" id="color-5"><stop offset="0" stop-color="#009101"/><stop offset="1" stop-color="#036704"/></linearGradient><linearGradient x1="147.9041" y1="152.51543" x2="142.93242" y2="138.76318" gradientUnits="userSpaceOnUse" id="color-6"><stop offset="0" stop-color="#006e00"/><stop offset="1" stop-color="#01900e"/></linearGradient></defs><g clip-path="url(#clip-1)" fill="none" fill-rule="nonzero" stroke="none" stroke-width="1" stroke-linecap="butt" stroke-linejoin="miter" stroke-miterlimit="10" stroke-dasharray="" stroke-dashoffset="0" font-family="none" font-weight="none" font-size="none" text-anchor="none" style="mix-blend-mode: normal"><path d="M127.19619,34.29756c9.10049,-6.35499 15.83672,-8.81499 26.12402,-3.16523c2.54678,1.53838 6.76201,3.79043 9.02695,5.33643c4.26006,1.75605 8.39795,4.55654 12.44824,6.78311c10.12852,5.55322 20.17588,11.25322 30.13887,17.09824c2.43018,1.40654 10.18477,5.38154 11.90654,6.83701c6.00439,2.98623 15.49248,8.46826 21.38555,12.06387c3.70898,1.41475 12.23525,7.275 16.86914,9.63398c1.59961,0.81562 20.00508,11.35313 20.0499,11.41406c4.83838,2.60303 19.22666,8.98096 17.61299,15.34336c-0.04219,6.50977 0.11807,13.67461 -0.43213,20.10264l0.09053,1.20352c0.73945,5.40879 0.88594,45.5165 -0.10723,49.68047c-0.01816,0.07559 -0.03398,0.15146 -0.05244,0.22705c-0.01113,0.04512 -0.02432,0.08994 -0.03633,0.13506c2.77529,3.2376 0.54551,6.25576 -2.49199,8.23096c-2.15566,2.26523 -4.92334,2.64668 -6.31465,3.98877c-6.75293,6.58652 -13.48096,10.29141 -21.9252,14.23652c-3.25898,1.52256 -7.75693,6.1749 -11.35576,7.97021c-13.47891,6.72393 -25.92744,15.05508 -39.23496,22.04561c-3.56396,1.87207 -7.11006,4.83398 -10.62656,6.8877c-3.05654,1.56855 -10.60605,6.73184 -13.4376,7.59668c-5.87695,3.90996 -13.64766,9.60703 -20.69531,11.12432c-5.7167,2.3458 -7.95234,2.65635 -14.10557,2.15742c-4.33418,-2.12783 -10.79912,-2.39736 -15.7793,-4.46748c-4.78506,-1.41035 -5.86875,-1.53193 -9.38379,-5.03555c-4.23604,-4.64238 -7.88027,-5.16914 -13.0415,-8.03643c-9.10635,-5.0584 -17.88779,-10.97344 -26.7167,-16.50645c-2.92617,-2.06953 -8.12695,-3.82441 -10.83486,-5.96777c-7.29551,-5.77412 -15.12129,-9.69814 -23.25732,-14.07949c-3.08496,-1.66113 -6.27861,-4.22578 -9.38643,-6.05801c-3.16025,-1.86357 -6.42422,-3.8083 -9.62402,-5.63027c-8.05028,-5.81602 -17.95441,-10.6125 -24.83188,-17.76211c-1.36752,-1.42148 -1.83647,-2.32529 -1.67016,-4.18623c-0.44145,-3.32461 -1.50091,-5.24062 -1.5639,-9.3501c-0.07397,-4.82578 -0.05396,-9.57715 -0.04667,-14.39883l0.40562,-35.57021c0.04597,-4.42588 -1.32401,-16.16367 -0.08443,-20.0042c0.06627,-0.31729 0.15231,-0.62959 0.2577,-0.93604c1.30468,-3.91611 6.89013,-6.19658 10.42966,-8.00596c4.50349,-2.68828 8.36294,-5.53301 13.33884,-7.67256c2.17852,-0.93691 5.25732,-3.06768 7.40391,-4.30283c0.8332,-0.73828 3.71719,-2.12988 4.78242,-2.55439c1.6418,-1.08867 4.39395,-2.44336 6.2168,-3.5209c10.23574,-6.04951 21.51855,-11.46533 31.72266,-17.58516c1.74785,-1.125 2.7791,-1.70889 4.64766,-2.61797c1.15781,-0.86045 6.27861,-3.33545 7.87676,-4.20029l21.62754,-11.65986c1.69131,-1.49736 10.4458,-5.80107 12.67441,-6.82266z" fill="#08c749"/><path d="M6.21785,104.17617c1.37013,1.11094 1.19985,1.91221 1.27037,3.57246c0.77695,1.56416 1.32984,2.40352 2.80752,3.37236c6.37022,4.17627 13.11838,8.0792 19.6357,12.02139l37.57793,22.58174l25.64209,15.48193c3.8877,2.33584 8.65342,5.44102 12.65859,7.42969c2.89951,2.01387 10.95439,7.06553 13.98545,8.59717c5.76709,3.52441 11.57139,6.98789 17.41172,10.38984c5.82949,3.37676 9.60615,6.14619 16.52812,6.48105c2.79023,-0.20068 5.00244,-0.60146 7.66465,-1.4751l1.01953,-0.44648c-0.9876,1.72031 -0.24609,14.10557 -0.04688,16.71152c-3.56279,1.31689 -7.38281,1.78828 -11.15889,1.37666c-4.17861,-0.60176 -5.98828,-1.49648 -9.82178,-3.30967c-0.31143,0.42187 -0.89062,1.31689 -1.30312,1.5375c1.01514,0.73535 4.00195,2.59629 4.61338,3.10547c4.22256,2.06543 5.51221,2.49873 10.24893,2.53711l0.52852,-0.00322l0.09199,0.28887l0.74561,-0.0832l-0.01201,-0.02578l-0.41514,0.66621c0.70811,0.54258 2.35342,0.34424 3.20713,0.51855c-1.19004,0.19951 -2.12695,0.34687 -3.32783,0.4418c-1.80908,1.20645 -4.22402,-0.87949 -5.64785,1.05908c0.15322,0.39053 0.25605,0.53438 0.53057,0.84111c2.86963,3.20537 -0.12832,47.71729 0.9958,48.56895c0.14619,0.11074 1.02832,0.21826 1.24863,0.26514l-1.47803,0.29707l0.06709,0.08936c0.26836,1.23574 0.02988,0.7834 0.91348,1.70508c1.26738,0.26953 2.37715,0.23643 3.66064,0.24814c-0.94307,0.44941 -4.59814,0.04131 -5.65312,1.10361c0.47725,0.06885 1.37227,0.23525 1.81025,0.20156l-0.18369,0.90615c-4.33418,-2.12783 -10.79912,-2.39736 -15.7793,-4.46748c-4.78506,-1.41035 -5.86875,-1.53193 -9.38379,-5.03555c-4.23604,-4.64238 -7.88027,-5.16914 -13.0415,-8.03643c-9.10635,-5.0584 -17.88779,-10.97344 -26.7167,-16.50645c-2.92617,-2.06953 -8.12695,-3.82441 -10.83486,-5.96777c-7.29551,-5.77412 -15.12129,-9.69814 -23.25732,-14.07949c-3.08496,-1.66113 -6.27861,-4.22578 -9.38643,-6.05801c-3.16025,-1.86357 -6.42422,-3.8083 -9.62402,-5.63027c-8.05028,-5.81602 -17.95441,-10.6125 -24.83188,-17.76211c-1.36752,-1.42148 -1.83647,-2.32529 -1.67016,-4.18623c-0.44145,-3.32461 -1.50091,-5.24062 -1.5639,-9.3501c-0.07397,-4.82578 -0.05396,-9.57715 -0.04667,-14.39883l0.40562,-35.57021c0.04597,-4.42588 -1.32401,-16.16367 -0.08443,-20.0042z" fill="#008d15"/><path d="M7.50724,183.49951c3.53789,3.75 9.1933,6.3126 13.63014,8.97949l23.55208,14.24062c7.36699,4.48066 14.37012,9.29414 21.96211,13.43701c0.95566,0.52148 3.78574,2.3877 4.54893,2.59629c2.9042,0.30586 3.9167,1.88437 6.36943,2.95928c2.5166,1.10273 4.92158,2.02617 7.35586,3.3832c4.45254,2.48086 8.70586,5.33965 13.12324,7.87939c11.63789,6.69141 22.80234,14.16885 34.45693,20.82393c6.07148,3.46699 11.68271,8.58486 18.9126,9.17666l0.06709,0.08936c0.26836,1.23574 0.02988,0.7834 0.91348,1.70508c1.26738,0.26953 2.37715,0.23643 3.66064,0.24814c-0.94307,0.44941 -4.59814,0.04131 -5.65312,1.10361c0.47725,0.06885 1.37227,0.23525 1.81025,0.20156l-0.18369,0.90615c-4.33418,-2.12783 -10.79912,-2.39736 -15.7793,-4.46748c-4.78506,-1.41035 -5.86875,-1.53193 -9.38379,-5.03555c-4.23604,-4.64238 -7.88027,-5.16914 -13.0415,-8.03643c-9.10635,-5.0584 -17.88779,-10.97344 -26.7167,-16.50645c-2.92617,-2.06953 -8.12695,-3.82441 -10.83486,-5.96777c-7.29551,-5.77412 -15.12129,-9.69814 -23.25732,-14.07949c-3.08496,-1.66113 -6.27861,-4.22578 -9.38643,-6.05801c-3.16025,-1.86357 -6.42422,-3.8083 -9.62402,-5.63027c-8.05028,-5.81602 -17.95441,-10.6125 -24.83188,-17.76211c-1.36752,-1.42148 -1.83647,-2.32529 -1.67016,-4.18623z" fill="#adabad"/><path d="M71.20049,222.75293c2.9042,0.30586 3.9167,1.88437 6.36943,2.95928c2.5166,1.10273 4.92158,2.02617 7.35586,3.3832c4.45254,2.48086 8.70586,5.33965 13.12324,7.87939c11.63789,6.69141 22.80234,14.16885 34.45693,20.82393c6.07148,3.46699 11.68271,8.58486 18.9126,9.17666l0.06709,0.08936c0.26836,1.23574 0.02988,0.7834 0.91348,1.70508c-1.53633,-0.07969 -4.64414,-0.21855 -5.93379,-0.82998c-6.24434,-2.95957 -12.02314,-6.96123 -18.00615,-10.41973c-2.55117,-1.56006 -5.4627,-2.7334 -7.98721,-4.31777c-11.31416,-7.10156 -22.57705,-14.2834 -34.16162,-20.94229c-1.91396,-1.1001 -3.91816,-2.48174 -5.78848,-3.68115c-3.09814,-1.98691 -6.15439,-3.94424 -9.32139,-5.82598z" fill="#000101"/><path d="M126.87012,261.72627l0.54492,-0.7207c1.60518,-0.07852 9.25811,4.11973 8.83887,5.75625c-4.78506,-1.41035 -5.86875,-1.53193 -9.38379,-5.03555z" fill="#a6a2a5"/><path d="M7.66081,126.87891l-0.31717,-0.80068l0.27015,-0.34922c1.96409,0.06123 24.2451,14.70996 28.25906,17.00186c16.12178,9.20566 31.9708,19.32393 47.78408,29.0458c5.17031,3.17871 10.63447,6.0416 15.77959,9.25693l30.50654,18.75c3.11426,1.91279 8.39531,5.80605 11.44893,7.17715c-0.31143,0.42187 -0.89062,1.31689 -1.30312,1.5375c-2.96455,-1.9875 -6.47432,-3.93457 -9.58213,-5.74863l-3.67617,-2.13457l-6.68291,-4.17773c-1.23047,-0.81064 -2.55176,-1.60986 -3.80566,-2.39561c-7.51084,-4.86416 -18.88828,-12.14092 -26.54121,-16.34004c-1.94561,-1.03037 -4.22783,-2.45654 -6.15498,-3.5918c-8.65928,-5.55908 -17.8251,-10.80176 -26.64668,-16.10332c-10.23955,-6.15322 -20.25498,-12.6665 -30.60234,-18.68965c-0.87334,0.74092 -1.04971,0.75 -2.18599,0.89531c-2.14242,-1.20732 -6.05288,-3.36416 -7.85563,-4.94941c-2.63915,-1.60635 -9.9936,-4.89873 -8.69435,-8.38389z" fill="#000101"/><path d="M7.66081,126.87891c3.46989,2.95313 5.95134,4.6377 9.8335,7.04355c-0.33964,0.43652 -0.72753,1.00342 -1.13915,1.34033c-2.63915,-1.60635 -9.9936,-4.89873 -8.69435,-8.38389z" fill="#13c6b3"/><path d="M17.49431,133.92246c2.99663,1.74961 5.96452,3.54785 8.90247,5.39443c-0.87334,0.74092 -1.04971,0.75 -2.18599,0.89531c-2.14242,-1.20732 -6.05288,-3.36416 -7.85563,-4.94941c0.41162,-0.33691 0.79951,-0.90381 1.13915,-1.34033z" fill="#00c092"/><path d="M26.39678,139.31689c10.34736,6.02314 20.36279,12.53643 30.60234,18.68965c8.82158,5.30156 17.9874,10.54424 26.64668,16.10332c-0.14092,0.59004 -0.3252,1.27061 -0.39785,1.86357c-6.45293,-3.26221 -14.54766,-8.42695 -20.82861,-12.22002l-38.20854,-23.54121c1.13628,-0.14531 1.31265,-0.15439 2.18599,-0.89531z" fill="#0bb5b3"/><path d="M83.6458,174.10986c1.92715,1.13525 4.20938,2.56143 6.15498,3.5918c7.65293,4.19912 19.03037,11.47588 26.54121,16.34004c-0.17256,0.63691 -0.43008,1.47949 -0.56104,2.10469l-27.89824,-17.53242c-1.36348,-0.91465 -3.17021,-1.83896 -4.63477,-2.64053c0.07266,-0.59297 0.25693,-1.27354 0.39785,-1.86357z" fill="#13c6b3"/><path d="M130.50674,202.74961c3.10781,1.81406 6.61758,3.76113 9.58213,5.74863c1.01514,0.73535 4.00195,2.59629 4.61338,3.10547c4.22256,2.06543 5.51221,2.49873 10.24893,2.53711l0.52852,-0.00322l0.09199,0.28887l0.74561,-0.0832l-0.01201,-0.02578l-0.41514,0.66621c0.70811,0.54258 2.35342,0.34424 3.20713,0.51855c-1.19004,0.19951 -2.12695,0.34687 -3.32783,0.4418c-5.85557,-0.17988 -7.07021,-0.27422 -12.2877,-3.14736c-4.97607,-2.58867 -9.77285,-5.50869 -14.35811,-8.73955z" fill="#13c6b3"/><path d="M120.14766,196.4373l6.68291,4.17773l3.67617,2.13457l-1.38311,1.30752l-3.87568,-2.29043c-1.67285,-0.91084 -3.58008,-2.13516 -5.23037,-3.14062c-0.02549,-0.63076 0.07734,-1.5375 0.13008,-2.18877z" fill="#0bb5b3"/><path d="M116.34199,194.0417c1.25391,0.78574 2.5752,1.58496 3.80566,2.39561c-0.05273,0.65127 -0.15557,1.55801 -0.13008,2.18877l-4.23662,-2.47969c0.13096,-0.6252 0.38848,-1.46777 0.56104,-2.10469z" fill="#27d1c9"/><path d="M14.67791,175.18213l-0.01096,-20.74277c-0.00973,-3.62256 -0.54012,-10.90459 0.36275,-13.91953c0.17991,-0.15498 0.34412,-0.38818 0.52629,-0.32578c3.56373,1.22197 9.36029,5.52979 12.39023,7.37432l15.21627,9.40547c2.57783,1.57412 5.20723,3.06064 7.78857,4.62861c2.63818,1.60254 5.28984,4.03682 7.94678,5.50195c9.29414,5.12578 18.3709,10.3374 27.32871,16.03623c5.21924,3.32021 11.15684,6.07617 16.38164,9.4626c3.52354,2.14951 7.28789,4.80996 10.80352,7.03447c6.5165,4.12295 19.31895,10.72998 24.00674,16.25801l0.18984,0.22676c0.16875,3.45996 0.62227,33.09492 -0.11309,34.67783c-0.29971,1.02305 0.19893,0.80889 -0.45791,1.65937c-2.61533,-1.26328 -5.64111,-3.23408 -7.86563,-5.09883c0,0 -0.27305,-1.09512 -0.29619,-1.1877c-10.40127,-6.83906 -21.05332,-13.28965 -31.93359,-19.33828l-1.34414,0.81211c-3.02549,-1.31279 -5.4835,-3.96738 -8.27227,-5.48789c-6.20361,-3.38232 -12.1626,-6.43213 -17.83154,-10.71885c-1.85771,-1.40479 -4.74287,-2.5084 -6.67734,-3.92402c-0.64512,-0.47197 -1.07461,-1.65381 -1.44756,-2.39971c-0.72568,-0.52734 -1.36523,-0.7623 -2.18086,-1.11826c-0.16494,-0.00352 -0.81123,-0.03574 -0.95068,-0.09141c-7.62275,-3.23408 -14.90654,-7.97373 -21.93486,-12.41309c-4.32627,-2.73252 -7.95457,-5.95078 -12.94102,-7.96582c-2.28056,-0.92139 -5.26913,-2.84033 -6.94737,-4.59873c-0.32525,-0.34072 -0.04022,-1.13525 0.05716,-1.57676c-0.55482,-0.65303 -1.31238,-1.49648 -1.7935,-2.17031z" fill="#000101"/><path d="M16.47141,177.35244c2.1999,1.78213 4.7059,3.12656 7.09348,4.6374c9.52125,6.02578 18.95016,11.94521 28.66939,17.63408c1.80674,1.05762 5.34375,3.18105 6.95391,4.37432c-0.16494,-0.00352 -0.81123,-0.03574 -0.95068,-0.09141c-7.62275,-3.23408 -14.90654,-7.97373 -21.93486,-12.41309c-4.32627,-2.73252 -7.95457,-5.95078 -12.94102,-7.96582c-2.28056,-0.92139 -5.26913,-2.84033 -6.94737,-4.59873c-0.32525,-0.34072 -0.04022,-1.13525 0.05716,-1.57676z" fill="#08b638"/><path d="M61.36904,205.1165c9.88887,5.85674 19.56357,11.75361 29.26113,17.925c1.74551,1.11064 4.48945,2.98535 6.31172,3.79336l-1.34414,0.81211c-3.02549,-1.31279 -5.4835,-3.96738 -8.27227,-5.48789c-6.20361,-3.38232 -12.1626,-6.43213 -17.83154,-10.71885c-1.85771,-1.40479 -4.74287,-2.5084 -6.67734,-3.92402c-0.64512,-0.47197 -1.07461,-1.65381 -1.44756,-2.39971z" fill="#08b638"/><path d="M128.87549,246.17314c2.86465,1.55859 5.73779,3.10107 8.61973,4.62715c-0.29971,1.02305 0.19893,0.80889 -0.45791,1.65937c-2.61533,-1.26328 -5.64111,-3.23408 -7.86563,-5.09883c0,0 -0.27305,-1.09512 -0.29619,-1.1877z" fill="#08b638"/><path d="M16.04654,142.00283c1.4768,0.67705 4.03333,2.60625 5.66854,3.55781c9.57574,5.57139 18.73512,11.57783 28.34244,17.10908c5.19316,2.98975 10.55566,6.7459 15.75146,9.92754l48.91904,29.65195c5.2957,3.25605 16.91631,9.77227 21.03926,13.61631c0.79365,1.66113 0.46348,29.13164 0.42158,33.08789c-3.1248,-1.25889 -15.20742,-9.03545 -18.83086,-11.23535l-44.79434,-27.37939c-13.60049,-8.33877 -27.76436,-16.24131 -41.16445,-24.89648c-4.09532,-2.64521 -11.97647,-7.02861 -15.56309,-10.00635c-0.37937,-11.00391 0.44877,-22.64355 0.21041,-33.43301z" fill="#fafafa"/><path d="M84.51123,213.22676c-1.45986,-1.16191 -4.26211,-4.3418 -6.09668,-3.93604c-0.26279,0.78604 0.02139,1.16104 0.27656,2.09678c-0.50361,-0.01641 -9.7084,-6.17402 -10.13379,-6.99053c-1.62334,-3.11807 -2.06455,-2.71025 -5.44482,-4.7543c-0.92344,0.29443 -0.85869,0.8332 -1.5832,1.82725l-0.42744,-0.12744c1.07227,-7.64502 1.16045,-14.92383 0.93574,-22.61133c-0.03809,-1.30342 -0.08379,-4.06494 0.80771,-4.98926l0.55869,0.08145c0.946,0.78252 1.22842,1.95615 1.63975,3.12305c1.23281,0.54785 3.82383,2.10088 5.00303,1.71533l-0.1541,-1.14258l0.48691,-0.23906c2.6625,0.83027 8.10088,5.67041 9.7875,8.68242l5.02676,0.64248c-0.38262,3.78662 -0.36709,8.75479 -0.44766,12.61436l0.03516,0.70166c-0.24287,4.36465 0.05801,8.70117 -0.27012,13.30576z" fill="#000101"/><path d="M84.78135,199.921c-0.08027,-0.00586 -0.16084,-0.01318 -0.24141,-0.01787c-2.0165,-0.11719 -17.11582,-9.69609 -19.97373,-11.51572c-0.7957,-0.50654 -1.4918,-1.25977 -1.69805,-2.19727l0.2915,-0.27832c2.87021,0.37939 18.63633,10.85068 21.58652,13.30752z" fill="#fafafa"/><path d="M87.59619,189.24316c1.79268,1.25859 2.34551,3.59941 6.03223,4.67666l0.32139,-0.21562l-0.38174,-1.48242l0.31377,-0.22412c2.43105,0.79775 5.87637,3.22119 7.88818,4.85361c1.921,1.55859 1.9377,1.75107 2.15303,4.12734c1.41445,0.15615 3.84844,0.26748 4.93623,0.96768c0.60527,1.9541 0.41689,22.91279 -0.11719,25.0374c-0.55957,-0.43477 -1.12412,-0.86309 -1.69336,-1.28496c-1.79912,-1.3374 -2.40879,-1.47334 -3.65508,0.36357c-3.90176,0.51943 -11.22598,-9.62139 -14.31709,-11.19727c-1.12559,-0.57393 -1.39014,0.54053 -2.46387,0.29326c0.35127,-4.25713 0.65391,-7.22139 0.71221,-11.53418c0.03633,-2.71465 -0.38115,-12.52998 0.27129,-14.38096z" fill="#000101"/><path d="M87.91348,201.24111c2.82539,0.11543 16.46104,9.51738 19.68281,11.52041c0.89502,0.55635 0.84902,1.11738 0.98584,1.99834c-2.68535,-0.73887 -16.09482,-9.25635 -19.08164,-11.21338c-0.96797,-0.63428 -1.46689,-1.1874 -1.58701,-2.30537z" fill="#fafafa"/><path d="M111.54697,229.77012c0.34805,-7.56563 -0.15352,-15.8915 0.07295,-23.51279c0.02783,-0.93662 -0.01846,-1.58906 0.5833,-2.16123c1.43496,0.58945 2.57607,3.65098 4.15957,3.91729c0.58389,-0.65625 0.67119,-0.79512 1.51465,-0.9917c3.49775,0.38115 11.46299,7.17803 13.64502,10.19268c0.15088,0.20801 0.84814,-0.35508 1.71855,0.38057c0.29326,1.63418 0.04277,8.325 0.01934,10.55625l-0.02139,1.25479c-0.05889,4.28467 -0.10811,8.28867 0.05713,12.5666c-0.99639,-0.74619 -2.1999,-1.73643 -3.31699,-2.27432c-1.18564,-0.5707 -1.50527,0.07969 -2.16885,0.85664c-2.65635,0.65156 -9.55166,-5.1126 -11.26318,-7.30781c-0.28828,-0.36973 0.16904,-1.09189 0.34395,-1.47451l-0.25107,-0.5458c-1.18945,-0.74209 -3.63662,-1.13848 -5.09297,-1.45664z" fill="#000101"/><path d="M133.23896,229.40596c-3.23496,-0.92607 -16.71592,-9.53379 -19.96523,-12.04043c-0.33896,-0.26133 -0.55664,-0.89092 -0.50918,-1.45342c0.07412,-0.01143 0.14766,-0.02666 0.22236,-0.03457c1.10127,-0.11367 17.86494,10.50938 20.27344,12.27363z" fill="#fafafa"/><path d="M39.76172,159.46318c1.48799,1.12646 3.96621,4.61191 5.37598,4.00605c2.70996,-1.16426 6.63896,2.96777 8.94756,4.61396c3.75967,2.68125 0.27861,3.8165 6.29209,3.43154c-0.02637,3.08379 0.08027,9.77344 -0.27012,12.69141l-0.02402,0.21064c0.40811,2.19229 0.23936,11.73867 0.06064,14.14775c-0.67734,-1.10947 -2.19434,-3.29941 -3.41367,-3.86455c-1.79502,-0.83232 -1.78301,1.03711 -2.78672,1.38105c-2.0915,-0.85195 -5.06543,-3.12744 -7.71738,-4.46982c-0.37441,-1.02539 -0.73887,-2.2459 -1.0834,-3.29883c-1.92451,-1.03594 -3.39141,-1.82637 -5.56436,-2.16035c0.48955,-4.27559 0.37061,-9.02813 0.24463,-13.33623l-0.07295,-1.04619c0.34277,-3.63516 0.0835,-8.54561 0.01172,-12.30645z" fill="#000101"/><path d="M39.82295,172.81582c2.78437,1.97812 17.79844,11.92939 20.26025,11.60098c0.40811,2.19229 0.23936,11.73867 0.06064,14.14775c-0.67734,-1.10947 -2.19434,-3.29941 -3.41367,-3.86455c-1.79502,-0.83232 -1.78301,1.03711 -2.78672,1.38105c-2.0915,-0.85195 -5.06543,-3.12744 -7.71738,-4.46982c-0.37441,-1.02539 -0.73887,-2.2459 -1.0834,-3.29883c-1.92451,-1.03594 -3.39141,-1.82637 -5.56436,-2.16035c0.48955,-4.27559 0.37061,-9.02813 0.24463,-13.33623z" fill="#000101"/><path d="M39.75,171.76963c4.11299,0.61406 12.6709,7.00986 16.53281,9.01875c1.63418,0.8499 2.72256,1.96582 3.82441,3.41777l-0.02402,0.21064c-2.46182,0.32842 -17.47588,-9.62285 -20.26025,-11.60098z" fill="#fafafa"/><path d="M18.76488,147.02373c0.92854,1.11182 2.83687,4.21055 3.51943,4.52725l0.66123,-0.03809c0.85702,-1.34941 0.11892,-1.70479 1.03808,-2.19258c2.12338,0.84639 7.81608,4.50439 9.11394,6.63516c0.18486,0.30322 0.38848,1.48652 0.45732,1.91367c1.29844,0.04014 2.86377,0.13154 4.13994,0.10225c0.60791,3.82881 0.41689,8.88926 0.55928,12.89443l0.00645,0.70986c-0.25547,4.14463 -0.12832,8.35928 -0.37529,12.58125c-1.09424,-1.04912 -2.58955,-2.91768 -4.14902,-2.62881c-0.25107,0.70371 -0.3123,0.91406 -0.7333,1.52695l-0.68438,0.06914c-1.94883,-0.80508 -7.30336,-4.51699 -8.93033,-5.95137c-1.01057,-4.16689 -1.78687,-2.48789 -4.55183,-4.44639c-0.87662,-2.01123 -0.40415,-9.41016 -0.33384,-12.11104l0.36237,-1.09277c-0.78111,-1.26504 -0.33595,-10.68047 -0.10005,-12.49893z" fill="#000101"/><path d="M18.76488,147.02373c0.92854,1.11182 2.83687,4.21055 3.51943,4.52725l0.66123,-0.03809c0.85702,-1.34941 0.11892,-1.70479 1.03808,-2.19258c2.12338,0.84639 7.81608,4.50439 9.11394,6.63516c0.18486,0.30322 0.38848,1.48652 0.45732,1.91367c1.29844,0.04014 2.86377,0.13154 4.13994,0.10225c0.60791,3.82881 0.41689,8.88926 0.55928,12.89443c-1.97344,-2.03027 -16.42359,-11.0915 -19.38917,-11.34316c-0.78111,-1.26504 -0.33595,-10.68047 -0.10005,-12.49893z" fill="#000101"/><path d="M18.86493,159.52266c2.96558,0.25166 17.41573,9.31289 19.38917,11.34316l0.00645,0.70986c-1.92568,-0.24551 -13.62677,-7.63184 -16.2027,-8.92295c-0.9668,-0.48486 -2.49076,-1.71475 -3.55529,-2.0373z" fill="#fafafa"/><path d="M282.21387,140.47588c2.95459,-1.61895 7.06641,-4.99629 10.1124,-4.73086l0.09053,1.20352c0.73945,5.40879 0.88594,45.5165 -0.10723,49.68047c-0.01816,0.07559 -0.03398,0.15146 -0.05244,0.22705c-0.01113,0.04512 -0.02432,0.08994 -0.03633,0.13506c2.77529,3.2376 0.54551,6.25576 -2.49199,8.23096c-2.15566,2.26523 -4.92334,2.64668 -6.31465,3.98877c-6.75293,6.58652 -13.48096,10.29141 -21.9252,14.23652c-3.25898,1.52256 -7.75693,6.1749 -11.35576,7.97021c-13.47891,6.72393 -25.92744,15.05508 -39.23496,22.04561c-3.56396,1.87207 -7.11006,4.83398 -10.62656,6.8877c-3.05654,1.56855 -10.60605,6.73184 -13.4376,7.59668c-5.87695,3.90996 -13.64766,9.60703 -20.69531,11.12432c-5.7167,2.3458 -7.95234,2.65635 -14.10557,2.15742l0.18369,-0.90615c-0.43799,0.03369 -1.33301,-0.13271 -1.81025,-0.20156c1.05498,-1.0623 4.71006,-0.6542 5.65312,-1.10361c-1.2835,-0.01172 -2.39326,0.02139 -3.66064,-0.24814c-0.88359,-0.92168 -0.64512,-0.46934 -0.91348,-1.70508l-0.06709,-0.08936l1.47803,-0.29707c-0.22031,-0.04687 -1.10244,-0.15439 -1.24863,-0.26514c-1.12412,-0.85166 1.87383,-45.36357 -0.9958,-48.56895c-0.27451,-0.30674 -0.37734,-0.45059 -0.53057,-0.84111c1.42383,-1.93857 3.83877,0.14736 5.64785,-1.05908c1.20088,-0.09492 2.13779,-0.24229 3.32783,-0.4418c-0.85371,-0.17432 -2.49902,0.02402 -3.20713,-0.51855l0.41514,-0.66621l0.01201,0.02578l-0.74561,0.0832l-0.09199,-0.28887l-0.52852,0.00322c-4.73672,-0.03838 -6.02637,-0.47168 -10.24893,-2.53711c-0.61143,-0.50918 -3.59824,-2.37012 -4.61338,-3.10547c0.4125,-0.22061 0.9917,-1.11562 1.30312,-1.5375c3.8335,1.81318 5.64316,2.70791 9.82178,3.30967c3.77607,0.41162 7.59609,-0.05977 11.15889,-1.37666c7.80967,-3.95127 15.01992,-8.671 22.51318,-12.8543l72.74707,-41.21719c4.37168,-2.45771 8.70029,-4.99189 12.98379,-7.60107c3.59004,-2.20488 7.80352,-4.98193 11.59717,-6.74531z" fill="#007805"/><path d="M290.57842,191.13193c0.39873,-1.21025 1.1502,-2.91885 1.64238,-4.14082c2.77529,3.2376 0.54551,6.25576 -2.49199,8.23096c-2.15566,2.26523 -4.92334,2.64668 -6.31465,3.98877c-6.75293,6.58652 -13.48096,10.29141 -21.9252,14.23652c-3.25898,1.52256 -7.75693,6.1749 -11.35576,7.97021c-13.47891,6.72393 -25.92744,15.05508 -39.23496,22.04561c-3.56396,1.87207 -7.11006,4.83398 -10.62656,6.8877c-3.05654,1.56855 -10.60605,6.73184 -13.4376,7.59668c-5.87695,3.90996 -13.64766,9.60703 -20.69531,11.12432c-5.7167,2.3458 -7.95234,2.65635 -14.10557,2.15742l0.18369,-0.90615c-0.43799,0.03369 -1.33301,-0.13271 -1.81025,-0.20156c1.05498,-1.0623 4.71006,-0.6542 5.65312,-1.10361c2.1627,-0.15527 4.2085,-0.3668 6.1667,-1.39922c12.51094,-6.59736 24.59209,-14.15771 36.78428,-21.28037l68.88574,-40.2375c4.70537,-2.78965 11.12432,-7.40771 15.68057,-9.69463c2.23096,-2.05576 4.18125,-1.75137 7.00137,-5.27432z" fill="#a6a2a5"/><path d="M166.13877,269.07187c0.06152,-0.29209 0.22734,-0.4541 0.41133,-0.71367c2.61621,-0.93633 4.26328,-3.20186 6.78633,-4.73408c3.46816,-2.10615 7.34209,-4.24307 11.04316,-5.93789c1.08223,-0.49541 1.5542,-0.15 2.45449,0.26133c-5.87695,3.90996 -13.64766,9.60703 -20.69531,11.12432z" fill="#adabad"/><path d="M290.57842,191.13193c0.39873,-1.21025 1.1502,-2.91885 1.64238,-4.14082c2.77529,3.2376 0.54551,6.25576 -2.49199,8.23096l-0.23203,-0.38086c0.50625,-0.64365 0.97354,-1.15693 1.29609,-1.90898c-1.43994,-0.02402 -4.24834,3.14268 -7.21582,3.47402c2.23096,-2.05576 4.18125,-1.75137 7.00137,-5.27432z" fill="#adabad"/><path d="M282.21387,140.47588c-1.62979,2.04287 -3.4248,3.97148 -5.54033,5.50459c-0.49863,0.36123 -2.64111,1.84072 -2.80693,2.22305l0.8543,0.17637c-2.30889,1.79854 -5.97949,2.60244 -7.00488,4.48037c-11.22568,6.83818 -22.70859,13.12002 -34.13936,19.54893l-29.96426,17.14893l-27.13184,15.59209c-9.07764,5.1293 -11.07393,7.39893 -21.52939,8.99062c-4.73672,-0.03838 -6.02637,-0.47168 -10.24893,-2.53711c-0.61143,-0.50918 -3.59824,-2.37012 -4.61338,-3.10547c0.4125,-0.22061 0.9917,-1.11562 1.30312,-1.5375c3.8335,1.81318 5.64316,2.70791 9.82178,3.30967c3.77607,0.41162 7.59609,-0.05977 11.15889,-1.37666c7.80967,-3.95127 15.01992,-8.671 22.51318,-12.8543l72.74707,-41.21719c4.37168,-2.45771 8.70029,-4.99189 12.98379,-7.60107c3.59004,-2.20488 7.80352,-4.98193 11.59717,-6.74531z" fill="url(#color-1)"/><path d="M151.48564,267.06475c7.8873,1.04912 13.91455,-3.77725 20.38359,-7.34824c9.25576,-5.10938 18.31289,-10.42676 27.26309,-16.05146c3.88301,-2.44043 8.21514,-4.44287 12.15674,-6.82207c18.41484,-10.87822 36.19863,-21.35654 54.71572,-32.19668c5.66514,-3.31641 17.02529,-10.29639 23.14102,-13.76514c0.5543,0.09697 1.03184,0.18047 1.43262,0.25078c-2.82012,3.52295 -4.77041,3.21855 -7.00137,5.27432c-4.55625,2.28691 -10.9752,6.90498 -15.68057,9.69463l-68.88574,40.2375c-12.19219,7.12266 -24.27334,14.68301 -36.78428,21.28037c-1.9582,1.03242 -4.004,1.24395 -6.1667,1.39922c-1.2835,-0.01172 -2.39326,0.02139 -3.66064,-0.24814c-0.88359,-0.92168 -0.64512,-0.46934 -0.91348,-1.70508z" fill="url(#color-2)"/><path d="M282.21387,140.47588c2.95459,-1.61895 7.06641,-4.99629 10.1124,-4.73086l0.09053,1.20352c-1.0793,0.64893 -1.18857,0.79424 -1.9418,1.8123c0.29443,1.26797 0.44326,1.09453 0.12422,2.2043c-1.8085,1.74199 -8.48936,5.43955 -11.04287,6.92402l-21.83086,12.57773l-63.00674,36.0041c-5.9083,3.35654 -30.28916,18.43682 -35.62148,19.03125c-0.85371,-0.17432 -2.49902,0.02402 -3.20713,-0.51855l0.41514,-0.66621l0.01201,0.02578l-0.74561,0.0832l-0.09199,-0.28887l-0.52852,0.00322c10.45547,-1.5917 12.45176,-3.86133 21.52939,-8.99062l27.13184,-15.59209l29.96426,-17.14893c11.43076,-6.42891 22.91367,-12.71074 34.13936,-19.54893c1.02539,-1.87793 4.696,-2.68184 7.00488,-4.48037l-0.8543,-0.17637c0.16582,-0.38232 2.3083,-1.86182 2.80693,-2.22305c2.11553,-1.53311 3.91055,-3.46172 5.54033,-5.50459z" fill="#0bb5b3"/><path d="M282.21387,140.47588c2.95459,-1.61895 7.06641,-4.99629 10.1124,-4.73086l0.09053,1.20352c-1.0793,0.64893 -1.18857,0.79424 -1.9418,1.8123c-2.94141,3.79131 -17.6959,11.60947 -22.75898,14.09941c1.02539,-1.87793 4.696,-2.68184 7.00488,-4.48037l-0.8543,-0.17637c0.16582,-0.38232 2.3083,-1.86182 2.80693,-2.22305c2.11553,-1.53311 3.91055,-3.46172 5.54033,-5.50459z" fill="#00234e"/><path d="M252.32871,193.27559c1.26855,0.45146 0.8833,0.13154 1.67021,1.20146c0.55166,2.76445 -1.81787,4.85479 -3.96475,6.13037c-1.00986,-0.09932 -0.6542,0.06709 -1.3626,-0.58945c-0.62783,-2.5957 1.8123,-5.24004 3.65713,-6.74238z" fill="#000101"/><path d="M229.54951,206.72754c0.20537,0.04453 0.59678,0.22441 0.80918,0.3126c0.65713,1.09658 0.71543,2.4832 0.87598,3.76904c-1.59492,1.47803 -2.48555,2.00068 -4.33506,3.14912c-0.43857,0.15586 -0.73828,-0.00176 -1.19619,-0.13945l-0.24521,-0.56396c0.09727,-2.73984 2.2333,-4.72207 4.09131,-6.52734z" fill="#000101"/><path d="M221.64053,211.1625c1.06816,0.1248 0.69082,-0.06211 1.42852,0.68408c0.81182,2.75654 -1.36758,5.03525 -3.45234,6.45498c-0.98672,-0.12627 -0.61465,0.04248 -1.38428,-0.7084c-0.69639,-2.55264 1.40215,-5.11494 3.40811,-6.43066z" fill="#000101"/><path d="M220.93975,201.15498c0.82031,0.0832 1.37314,0.14238 1.93125,0.8376c0.38262,0.47168 0.55928,1.07725 0.49043,1.68076c-0.254,2.06426 -1.66523,3.06914 -3.17461,4.15693c-0.91172,0.44004 -0.55576,0.41924 -1.39424,0.23379c-1.27646,-2.20635 0.53555,-5.32119 2.14717,-6.90908z" fill="#000101"/><path d="M276.48633,179.13662c2.51484,0.37559 2.10439,3.05479 1.14023,4.65791c-0.66182,1.10039 -1.2835,1.50557 -2.30713,2.25937c-1.11152,0.19512 -0.87393,0.33311 -1.66787,-0.13154c-1.05088,-2.22451 1.34707,-5.32441 2.83477,-6.78574z" fill="#000101"/><path d="M259.87207,188.86611c0.88887,0.10166 1.04854,0.09434 1.68135,0.70811c1.20059,2.33437 -1.49209,4.89346 -3.14766,6.18516c-0.84785,0.32021 -0.56514,0.35449 -1.29844,0.13535c-1.05967,-2.05137 1.16016,-5.6376 2.76475,-7.02861z" fill="#000101"/><path d="M252.54639,183.58125c2.24648,0.82705 1.04648,3.51504 0.07588,4.88789c-0.73389,1.03857 -1.45664,1.39395 -2.54883,2.00068c-0.62578,-0.05654 -0.67412,-0.13711 -1.20703,-0.51475c-0.97412,-2.55 1.84102,-4.96436 3.67998,-6.37383z" fill="#000101"/><path d="M181.7751,214.35703c1.10244,0.17695 0.7043,-0.0085 1.54307,0.66299c1.19736,2.49141 -1.28672,4.76162 -3.12041,6.0498l-0.54756,-0.27686c-0.69521,-0.89033 -0.83467,-2.24033 -1.05234,-3.37998c1.26152,-1.54424 1.60107,-1.85479 3.17725,-3.05596z" fill="#000101"/><path d="M190.33213,228.99609c0.3375,0.07295 0.51357,0.18164 0.82646,0.32637c0.47666,1.11973 0.39492,2.69033 0.41895,3.94248c-1.01719,0.99492 -2.51396,2.07568 -3.66621,2.96191c-0.62432,0.11426 -0.30762,0.11689 -0.97646,-0.10781c-0.77695,-2.22686 1.68252,-5.75186 3.39727,-7.12295z" fill="#000101"/><path d="M237.15527,202.30576l0.43184,0.30205c1.80762,2.9584 -1.13232,5.82832 -3.47197,7.28496c-0.254,-0.13916 -0.49424,-0.42598 -0.70957,-0.64365c-0.70723,-2.85615 1.7127,-5.33525 3.74971,-6.94336z" fill="#000101"/><path d="M197.61855,205.29785c0.75938,-0.00879 0.88799,0.06182 1.59697,0.34834c1.62832,2.08066 -0.93398,4.58232 -2.43633,6.02021c-0.86807,0.05361 -0.52061,0.09785 -1.39893,-0.33721c-1.42441,-2.27402 0.64687,-4.52373 2.23828,-6.03135z" fill="#000101"/><path d="M182.48262,223.46133c2.84736,1.75752 -0.49014,5.92881 -3.02461,7.04268l-0.48926,-0.22383c-0.2373,-0.90381 0.00264,-2.52246 0.09199,-3.51943c1.10479,-1.78535 1.61162,-2.23652 3.42188,-3.29941z" fill="#000101"/><path d="M213.81094,205.56533c0.53584,-0.03926 0.554,0.02578 1.01221,0.29092c0.47812,1.16279 0.28711,2.89219 0.24258,4.19766c-1.05205,0.76318 -2.28164,1.38223 -3.43096,2.00273c-0.39697,-0.00234 -0.47637,-0.11104 -0.85635,-0.31143c-0.98613,-2.34873 1.41211,-4.74463 3.03252,-6.17988z" fill="#000101"/><path d="M267.95039,174.52969c4.62012,0.3 0.85986,4.64063 -0.83701,6.05186c-0.94687,0.45234 -0.60088,0.44209 -1.44727,0.28594c-1.16602,-1.93652 0.68174,-5.03145 2.28428,-6.33779z" fill="#000101"/><path d="M236.06133,182.95605c0.72803,0.10752 0.74736,0.1418 1.33887,0.61348c1.44375,2.41143 -1.36436,4.65674 -3.06152,5.98301c-0.39961,-0.07969 -0.56689,-0.18486 -0.93721,-0.3498c-1.37578,-2.3584 0.96797,-4.70361 2.65986,-6.24668z" fill="#000101"/><path d="M206.08213,209.60684c1.19297,0.66299 1.60869,2.37949 1.12178,3.62373c-0.71338,1.82256 -1.76309,2.3376 -3.48281,3.13008l-0.61582,-0.26426c-1.47949,-2.45654 1.25537,-4.91631 2.97686,-6.48955z" fill="#000101"/><path d="M190.06992,218.97129c0.65918,0.11807 0.69932,0.22793 1.19707,0.72773c0.97646,2.44658 -1.46514,4.71094 -3.25576,5.99238c-0.43184,0.0498 -0.60059,-0.12188 -0.97383,-0.35713c-1.25215,-2.3001 1.41182,-5.07598 3.03252,-6.36299z" fill="#000101"/><path d="M268.90225,183.90205c0.71309,0.38877 0.98818,2.2002 0.82471,2.9291c-0.46289,2.06572 -1.85479,3.14004 -3.53965,4.25508c-0.38613,-0.20479 -0.41807,-0.31055 -0.71631,-0.64307c-0.81475,-2.92061 1.22285,-4.96934 3.43125,-6.54111z" fill="#000101"/><path d="M259.98604,168.91201c0.37471,0.15645 0.77637,0.32109 1.0459,0.63281c0.37764,0.43301 0.56367,1.00049 0.51621,1.57295c-0.15615,1.75137 -2.25322,3.39316 -3.51562,4.46865c-0.51416,0.04365 -0.69961,-0.09668 -1.16455,-0.31377c-1.11533,-2.16064 1.62393,-4.92627 3.11807,-6.36064z" fill="#000101"/><path d="M198.87041,224.64756l0.56045,0.54434c0.98613,3.17402 -1.2,4.79414 -3.58213,6.44297c-0.44033,-0.15293 -0.43916,-0.23584 -0.7043,-0.61816c-0.09785,-2.76592 1.02041,-5.36572 3.72598,-6.36914z" fill="#000101"/><path d="M205.88789,200.58281c0.55283,0.03164 0.8124,0.2376 1.29287,0.50889c1.38926,2.4334 -1.3207,4.53223 -3.10957,5.82305c-0.34893,-0.0293 -0.54668,-0.16201 -0.87744,-0.31055c-1.2375,-2.3666 0.92109,-4.63389 2.69414,-6.02139z" fill="#000101"/><path d="M260.77969,178.64385l0.56426,0.48779c0.86191,2.65488 -1.07959,4.94707 -3.07324,6.42451c-3.67734,-1.29902 0.80332,-5.77617 2.50898,-6.9123z" fill="#000101"/><path d="M182.06455,234.57393c0.40107,0.04805 0.79658,0.21943 1.18066,0.35889c1.51611,2.32559 -1.24951,4.44404 -2.99033,5.67539c-0.52148,0.17432 -0.55283,0.11426 -1.07256,-0.03896c-1.11914,-2.10146 0.97734,-4.92246 2.88223,-5.99531z" fill="#000101"/><path d="M214.13613,215.47559c2.00244,0.95244 1.06348,3.69111 -0.02402,5.02646c-0.7459,0.91611 -1.64063,1.37256 -2.64111,1.94824l-0.42012,-0.20771c-1.425,-2.19404 1.54453,-5.30273 3.08525,-6.76699z" fill="#000101"/><path d="M251.59072,173.98828c0.54434,0.04424 0.71953,0.15205 1.20967,0.36152c1.30283,2.35693 -0.54873,4.38223 -2.36807,5.78145c-0.60557,0.07412 -0.64541,0.02988 -1.22871,-0.20801c-1.20762,-2.25703 0.60557,-4.59668 2.38711,-5.93496z" fill="#000101"/><path d="M221.19287,191.49141l1.30605,0.19307c1.93301,1.88262 -0.5792,4.51055 -1.95879,6.00732l-0.93018,-0.2499c-2.16797,-2.08066 -0.00732,-4.21846 1.58291,-5.95049z" fill="#000101"/><path d="M244.48916,198.87803l0.67236,0.23262c1.68721,2.53271 -1.61338,4.62539 -3.4749,6.01992c-0.64658,-0.15732 -0.41455,-0.04102 -0.88857,-0.67002c-0.50684,-2.56641 1.58994,-4.55684 3.69111,-5.58252z" fill="#000101"/><path d="M276.80332,169.48213c0.86426,0.2127 0.5376,0.05215 1.2375,0.72012c0.68408,2.27637 -1.5873,4.68984 -3.35801,5.82129c-3.43418,-1.31572 0.84756,-5.25527 2.12051,-6.54141z" fill="#000101"/><path d="M172.94238,228.9501c0.64717,0.10605 0.71807,0.1793 1.29932,0.51094c1.35293,2.20459 -0.28271,4.42793 -2.04434,5.77295l-1.02861,-0.37412c-1.52109,-2.17207 0.09756,-4.4417 1.77363,-5.90977z" fill="#000101"/><path d="M213.52148,196.19385l1.07256,0.13652c1.96875,1.90547 -1.35,4.80293 -2.72813,6.225c-0.5543,0.19072 -0.39697,0.12656 -1.05586,-0.0167c-1.03799,-2.24443 1.17715,-4.94912 2.71143,-6.34482z" fill="#000101"/><path d="M243.64248,188.56348c0.49072,0.22295 0.86045,0.60146 1.1209,1.0749c0.39902,0.71924 0.46084,1.57793 0.16904,2.34668c-0.67471,1.73408 -1.62246,2.20107 -3.22295,2.90215c-0.37002,-0.09902 -0.64277,-0.34658 -0.95654,-0.57715c-0.75439,-2.24531 1.45137,-4.26885 2.88955,-5.74658z" fill="#000101"/><path d="M197.73838,214.62422c0.33223,0.02637 0.76084,0.15205 1.09629,0.2332c1.60137,1.95762 -0.52031,4.51025 -2.05342,5.84941c-0.64893,0.18721 -0.67031,0.19307 -1.3418,0.07383c-1.38457,-1.88965 1.00693,-4.81406 2.29893,-6.15645z" fill="#000101"/><path d="M189.44824,209.62354c0.4749,0.01465 0.854,0.16787 1.30752,0.31025c1.79062,2.09912 -0.69785,4.27676 -2.31064,5.63555l-1.10889,0.23027l-0.4541,-0.3167c-0.55986,-1.73145 1.49854,-4.5208 2.56611,-5.85937z" fill="#000101"/><path d="M173.6165,218.99854c0.41689,0.17754 0.41895,0.24287 0.75352,0.55898c0.98086,2.30918 -0.84873,4.94531 -2.75654,6.18252c-2.99912,-2.15039 0.14883,-5.25381 2.00303,-6.7415z" fill="#000101"/><path d="M236.00771,192.94717c0.35801,-0.00762 0.62314,0.07119 0.97676,0.14092c1.45488,2.18203 -1.16719,4.90693 -2.68828,6.38438c-0.48896,-0.08584 -0.42451,-0.14385 -0.87041,-0.49893c-1.10977,-2.16504 1.0125,-4.73086 2.58193,-6.02637z" fill="#000101"/><path d="M206.1085,220.78623l1.08135,0.31055c1.3248,2.13545 -1.55654,4.43555 -3.14502,5.55322c-0.35713,0.16348 -0.63984,0.09053 -1.03652,0.05361c-0.88652,-2.07861 1.42412,-4.8041 3.1002,-5.91738z" fill="#000101"/><path d="M244.55537,178.62627c2.46885,1.71885 -1.23369,5.31504 -2.66016,6.41162c-0.56455,-0.19131 -0.59941,-0.28945 -1.01191,-0.75117c-0.854,-2.3748 1.8876,-4.5917 3.67207,-5.66045z" fill="#000101"/><path d="M173.29336,238.93359l0.5335,0.47314c0.88916,3.00703 0.31934,4.75898 -2.33994,6.41777c-2.08184,-2.8749 -0.61729,-5.01094 1.80645,-6.89092z" fill="#000101"/><path d="M228.71865,187.37988c0.56514,0.08262 0.68408,0.19453 1.16104,0.48252c1.20205,2.28486 -0.79043,4.07227 -2.59687,5.22891l-0.92373,-0.22031c-1.60928,-1.99248 0.84375,-4.23545 2.35957,-5.49111z" fill="#000101"/><path d="M275.76357,159.59209c1.47041,-0.075 1.75283,-0.1998 2.29219,1.20117c-0.10283,1.63184 -1.15254,2.96543 -2.19697,4.14785c-1.12793,0.30557 -0.80771,0.39404 -1.76016,0.02637c-0.91172,-1.55977 0.74736,-4.14873 1.66494,-5.37539z" fill="#000101"/><path d="M267.88154,164.85615c1.22812,-0.121 1.36348,0.02695 1.62979,1.07373c-0.34834,1.9834 -1.46631,3.30586 -2.82334,4.70303c-0.3835,0.08936 -0.6085,0.01846 -1.01279,-0.02695c-1.39248,-1.89844 0.75469,-4.54189 2.20635,-5.7498z" fill="#000101"/><path d="M229.46367,197.37744l0.62051,0.16348c1.6916,2.11934 -1.73584,4.64326 -3.28535,5.88047l-0.41953,-0.11777c-2.04756,-2.02324 1.6002,-4.61836 3.08437,-5.92617z" fill="#000101"/><path d="M291.18311,116.98096c0.50068,-0.66973 0.89648,-0.88242 1.57529,-1.33857c-0.04219,6.50977 0.11807,13.67461 -0.43213,20.10264c-3.046,-0.26543 -7.15781,3.11191 -10.1124,4.73086c-3.79365,1.76338 -8.00713,4.54043 -11.59717,6.74531c-4.2835,2.60918 -8.61211,5.14336 -12.98379,7.60107l-72.74707,41.21719c-7.49326,4.1833 -14.70352,8.90303 -22.51318,12.8543c-0.19922,-2.60596 -0.94072,-14.99121 0.04688,-16.71152c2.51895,-1.20879 5.79375,-3.26191 8.32881,-4.68662l16.44023,-9.23115l40.85332,-23.15479c14.83652,-8.35518 29.56875,-16.89404 44.19316,-25.61455c5.3124,-3.16055 10.80674,-6.13975 16.01484,-9.44707c1.46221,-0.92871 2.13779,-1.53486 2.9332,-3.06709z" fill="#007805"/><path d="M161.47939,190.82842c3.94453,-2.2541 8.07012,-4.24189 12.07207,-6.39932c5.39561,-2.90859 10.74258,-6.0123 16.09805,-9.00498c18.21123,-10.17656 36.2373,-20.7416 54.30439,-31.16777c7.99746,-4.61543 16.15518,-9.0085 24.10869,-13.69248c2.66455,-1.56914 5.22656,-3.31348 7.89961,-4.86885c3.07764,-1.79062 6.19336,-3.29736 9.14619,-5.32061c0.90469,-0.61992 4.95381,-4.16191 5.5998,-4.21641l0.4749,0.82295c-0.79541,1.53223 -1.471,2.13838 -2.9332,3.06709c-5.20811,3.30732 -10.70244,6.28652 -16.01484,9.44707c-14.62441,8.72051 -29.35664,17.25938 -44.19316,25.61455l-40.85332,23.15479l-16.44023,9.23115c-2.53506,1.42471 -5.80986,3.47783 -8.32881,4.68662l-1.01953,0.44648c-0.72305,-0.49893 -0.61787,-0.26953 -0.86602,-0.96445l1.19766,-0.46172z" fill="#55e67d"/><path d="M7.48822,107.74863c0.14871,-1.41328 0.15961,-2.16709 0.80736,-3.45937c0.5492,-0.42744 0.34541,-0.404 0.89657,-0.36826c0.27483,2.63643 -1.31613,3.29238 2.08072,5.58633c8.0676,5.44775 17.06944,10.71709 25.39245,15.76348c6.41309,4.36289 12.41221,7.3793 18.75469,11.32119c16.77422,10.425 34.26855,20.30947 50.89541,30.86748c-0.17285,0.60205 -0.12158,0.8165 -0.50537,1.17627c-4.00518,-1.98867 -8.7709,-5.09385 -12.65859,-7.42969l-25.64209,-15.48193l-37.57793,-22.58174c-6.51732,-3.94219 -13.26548,-7.84512 -19.6357,-12.02139c-1.47768,-0.96885 -2.03057,-1.8082 -2.80752,-3.37236z" fill="url(#color-3)"/><path d="M85.01748,56.98037c1.15781,-0.86045 6.27861,-3.33545 7.87676,-4.20029l21.62754,-11.65986c-0.09932,0.35771 -0.41396,1.73379 -0.50771,1.89727c-3.83936,1.14932 -8.27549,5.1416 -11.83154,7.05762c-4.68486,2.52451 -9.24521,4.52959 -13.6998,7.52988c-0.975,0.65654 -2.13018,0.97354 -3.00469,1.69629l-1.02012,-0.07764c-0.91055,0.85605 -2.81426,1.63096 -4.00254,1.99717c-6.10254,2.81191 -12.02168,7.45371 -18.54756,9.97441c-2.2251,0.85957 -5.47969,3.92197 -7.81846,4.9626c-3.19014,1.76689 -6.79189,3.32021 -10.11504,4.86592l-1.54395,-0.31934c1.6418,-1.08867 4.39395,-2.44336 6.2168,-3.5209c10.23574,-6.04951 21.51855,-11.46533 31.72266,-17.58516c1.74785,-1.125 2.7791,-1.70889 4.64766,-2.61797z" fill="#08b638"/><path d="M84.45791,59.22363l1.02012,0.07764c-2.9335,1.6667 -5.93496,2.80752 -8.83652,4.36494c0.16582,0.60439 0.25869,0.70518 0.59707,1.24365c-0.30352,1.73438 -6.30996,4.69834 -7.97402,4.57617c-0.25986,-0.01904 -1.14316,-0.36357 -1.43789,-0.47695c-1.8873,0.8751 -6.46172,2.296 -7.18799,3.72275c0.13066,0.28506 0.45791,0.81504 0.35566,1.00752c-1.29434,2.4416 -5.71377,3.85781 -7.74551,5.56816c-1.69717,1.42852 -2.39883,3.06943 -4.36611,4.22754l-0.16553,0.09844c-2.1835,1.2791 -4.2832,0.56484 -5.84209,1.10303c-1.6415,0.56631 -6.15264,3.30322 -7.79092,3.64277c-0.62871,-0.27041 -0.82031,-0.35479 -1.37578,-0.75117c-0.97705,0.59707 -7.16604,4.14492 -7.98396,4.42734l0.00029,-0.4333c0.55781,-0.23789 1.11126,-0.63838 1.62299,-0.97559c2.84183,-1.87236 6.18372,-3.08379 9.01819,-4.91514l0.04424,-0.26719c0.80068,-0.90146 0.85898,-1.05557 1.23779,-2.20547c0.8332,-0.73828 3.71719,-2.12988 4.78242,-2.55439l1.54395,0.31934c3.32314,-1.5457 6.9249,-3.09902 10.11504,-4.86592c2.33877,-1.04063 5.59336,-4.10303 7.81846,-4.9626c6.52588,-2.5207 12.44502,-7.1625 18.54756,-9.97441c1.18828,-0.36621 3.09199,-1.14111 4.00254,-1.99717z" fill="#55e67d"/><path d="M37.64795,83.25879c0.8332,-0.73828 3.71719,-2.12988 4.78242,-2.55439l1.54395,0.31934c-1.27383,1.39072 -5.88662,4.41357 -7.6084,4.70771l0.04424,-0.26719c0.80068,-0.90146 0.85898,-1.05557 1.23779,-2.20547z" fill="#08b638"/><path d="M16.90521,95.23418c4.50349,-2.68828 8.36294,-5.53301 13.33884,-7.67256c2.17852,-0.93691 5.25732,-3.06768 7.40391,-4.30283c-0.37881,1.1499 -0.43711,1.304 -1.23779,2.20547l-0.04424,0.26719c-2.83447,1.83135 -6.17637,3.04277 -9.01819,4.91514c-0.51173,0.33721 -1.06518,0.7377 -1.62299,0.97559l-0.00029,0.4333l-0.05757,0.68057c-1.23267,0.77432 -4.31733,2.204 -4.90682,2.79375c-0.23994,1.12734 -0.19784,1.84805 -1.61104,2.00801c-0.23663,-0.52676 -0.25339,-0.57627 -0.37611,-1.14023c-2.21748,0.73037 -3.72879,1.99775 -5.76015,2.61943c-0.52011,0.94805 -1.05545,2.48291 -1.40552,3.0457c-0.81896,1.31719 -2.27399,2.36689 -2.25103,4.30137c2.54273,5.15156 23.53626,14.0127 27.30911,18.90674c-8.32301,-5.04639 -17.32485,-10.31572 -25.39245,-15.76348c-3.39686,-2.29395 -1.80589,-2.9499 -2.08072,-5.58633c-0.55116,-0.03574 -0.34737,-0.05918 -0.89657,0.36826c-0.64775,1.29229 -0.65865,2.04609 -0.80736,3.45937c-0.07052,-1.66025 0.09976,-2.46152 -1.27037,-3.57246c0.06627,-0.31729 0.15231,-0.62959 0.2577,-0.93604c1.30468,-3.91611 6.89013,-6.19658 10.42966,-8.00596z" fill="#08b638"/><path d="M120.68467,176.0543c6.45117,3.80713 12.87539,7.72383 19.36934,11.46621c7.32598,4.22197 10.45781,6.22734 19.13438,3.97559c0.76963,-0.20186 1.5334,-0.42451 2.29102,-0.66768l0.25225,0.37412l-1.19766,0.46172c0.24814,0.69492 0.14297,0.46553 0.86602,0.96445c-2.66221,0.87363 -4.87441,1.27441 -7.66465,1.4751c-6.92197,-0.33486 -10.69863,-3.1043 -16.52812,-6.48105c-5.84033,-3.40195 -11.64463,-6.86543 -17.41172,-10.38984z" fill="url(#color-4)"/><path d="M216.84082,67.18711c6.00439,2.98623 15.49248,8.46826 21.38555,12.06387c-5.3165,1.94795 -12.03311,-7.43643 -16.81113,-8.20312c-1.55156,-0.24873 -4.22842,-1.8791 -5.44395,-2.83506c0.54316,-0.34043 0.64102,-0.4248 0.86953,-1.02568z" fill="#08b638"/><path d="M106.31543,167.45947c4.81699,2.81865 9.60703,5.68389 14.36924,8.59482l-0.88916,1.17861c-3.03105,-1.53164 -11.08594,-6.5833 -13.98545,-8.59717c0.38379,-0.35977 0.33252,-0.57422 0.50537,-1.17627z" fill="#b4fcae"/><path d="M127.19619,34.29756c-0.87979,2.82891 -10.61162,7.26182 -13.18213,8.71992c0.09375,-0.16348 0.4084,-1.53955 0.50771,-1.89727c1.69131,-1.49736 10.4458,-5.80107 12.67441,-6.82266z" fill="#08b638"/><path d="M255.09551,88.88496c1.59961,0.81562 20.00508,11.35313 20.0499,11.41406c-1.53223,1.02832 -4.41621,-2.50869 -6.35039,-2.76035c-2.37715,-0.30967 -4.55479,-0.5877 -5.70029,-2.80078c0.05303,-0.43623 0.08438,-0.33574 -0.00029,-0.75c-2.27139,-0.79248 -5.04697,-2.85498 -7.29668,-3.92314c-0.27744,-0.46641 -0.51182,-0.85957 -0.70225,-1.17979z" fill="#08b638"/><path d="M135.64951,71.52832c-0.45645,-8.51924 18.56924,-7.89023 18.37412,-0.63428c1.80205,1.5668 0.60205,4.94912 -0.32021,6.84229c-1.06582,0.7667 -3.81533,2.36865 -4.21377,3.28945c0.36357,1.58057 0.38965,9.46025 -0.14883,10.69102c3.46318,-0.24199 8.08008,1.25537 11.07861,3.03662c4.81758,-3.20098 10.04795,-5.77617 14.59893,-9.23701c0.93604,-0.71162 -0.73125,-3.23057 1.27178,-5.42227c3.78135,-4.13701 16.41914,-2.72344 16.35703,3.36709l0.88301,0.50684c0.42188,1.66201 0.19365,4.37578 -0.76553,5.86143c-2.83008,4.38457 -8.49609,2.98066 -12.73008,3.47666c-3.46934,0.40605 -9.02256,4.24307 -11.74336,6.53437c-0.45879,0.42598 -0.43916,0.53203 -1.06523,0.91406c0.83408,1.66846 0.9876,2.18994 1.4417,3.94453c7.8665,0.07764 18.11895,-0.32285 25.80117,0.20742c2.429,-3.01406 3.33867,-3.65244 7.11738,-4.6125c2.6291,-0.13213 3.73564,-0.19512 6.33457,0.6041c2.23271,1.31426 4.65234,2.48789 4.90898,5.36074c1.72441,1.90049 0.73857,6.23584 -1.19561,7.78975c-2.68682,2.15801 -6.03984,2.56904 -9.35332,2.35664c-2.65049,0.53408 -7.46016,-3.31963 -8.98799,-3.33926c-7.19912,-0.09229 -16.4083,-1.38545 -23.19287,0.84932c-1.32979,0.43799 -0.59209,2.9499 -1.04326,3.78574c2.76973,1.94238 9.69023,5.90244 11.58164,7.51992c4.72939,-1.13672 13.63389,-0.89561 14.00918,5.47119l0.41016,-0.44268c0.45,0.26367 0.72598,0.33018 0.75908,0.89326c0.64658,10.98955 -13.18828,11.85937 -18.9457,5.77207c-0.60205,-1.88584 -1.11035,-3.57568 -1.61016,-5.49053c-1.28584,-1.246 -11.31123,-7.02275 -13.33535,-7.92568c-4.02129,0.4749 -8.25498,1.86123 -12.2499,2.7085c-0.04746,3.08672 -0.09287,6.19102 -0.06914,9.27861c0.00732,0.95859 0.54961,0.80947 0.479,1.79736l-0.95977,0.15762c2.75508,0.74209 5.28457,2.77588 5.66367,5.73223l0.9665,0.34453c0.45176,0.97119 0.06064,2.96309 -0.26572,3.99785c-1.79062,5.67861 -9.84404,6.49336 -14.53242,4.64707c-2.22422,-0.85547 -4.00518,-2.57812 -4.93477,-4.77275c-0.56865,-1.3626 -1.04297,-4.29053 -0.49307,-5.671l0.59795,-0.22529c2.16123,-2.6417 2.76299,-3.78545 6.2792,-4.02598l-1.87207,-0.22969c-0.06709,-0.76582 0.31934,-8.79551 0.49219,-9.64453c-0.79189,-2.26816 -2.42139,-2.05635 -4.51611,-2.6209c-2.07773,-0.55986 -5.51455,-2.46357 -7.54424,-1.21553c-3.14443,1.93271 -9.93252,5.41465 -12.41367,7.86064c-0.69492,3.06445 -1.5041,5.99854 -4.48096,7.59932c-6.70342,3.60439 -17.0373,0.54375 -15.87949,-8.39971l0.35918,-0.36475l0.51738,0.24932c1.1335,-5.9001 8.46006,-7.59814 13.26504,-5.16855l13.69951,-8.6335c-0.58652,-0.81475 -2.28105,-3.34541 -3.10781,-3.51152c-5.01709,-1.00811 -18.1708,-0.81826 -22.87529,-0.31641c-4.77334,1.63887 -8.4208,4.3834 -13.85156,3.06006c-3.65508,-0.89092 -7.05439,-4.18828 -6.01846,-8.48877l0.78662,-0.47549c-0.02754,-0.50244 -0.01289,-1.00635 0.04307,-1.50674c0.56924,-5.53066 9.225,-6.36562 13.15957,-4.39658c2.29336,1.14756 2.83389,1.696 4.36641,3.62314c8.59658,-0.07236 17.19375,-0.08262 25.79092,-0.03105c0.52031,-1.79033 1.03799,-2.7208 1.87559,-4.36846c-3.26309,-1.61045 -9.11484,-6.3624 -10.82197,-6.92871c-6.28535,-2.08477 -9.54902,2.23184 -16.17803,-3.49834c-0.58945,-1.49619 -1.45898,-4.57266 -0.8209,-6.0832l0.70107,-0.14561c-0.49072,-7.02041 11.32471,-7.85303 15.6624,-4.62803c3.075,2.28604 0.94043,5.2125 1.51904,5.6332c4.95059,3.59971 10.76719,6.60645 16.0459,9.96504c4.81201,-1.89111 6.99053,-2.87139 12.0668,-3.20537c0.04688,-4.48213 0.029,-8.96426 -0.05391,-13.4458c-0.21006,1.31309 0.09082,2.6666 -0.38672,3.92695c-0.80947,-0.23818 -0.8335,-1.33711 -1.45195,-1.75488c-1.87002,-1.26328 -3.18721,-1.94297 -4.96992,-3.41426c-0.43359,-1.8791 -1.2583,-3.90527 0.13477,-5.38037z" fill="#fafafa"/><path d="M147.99697,121.38105c4.275,-0.2543 9.4002,-1.16602 12.96445,-3.6876c2.09707,1.28291 15.5332,9.23057 15.98027,10.06816c0.39521,0.74004 -0.20244,3.35244 0.3665,4.57881c0.65625,1.41416 2.51133,2.47998 3.89883,3.02285c2.82363,1.10449 6.33691,1.09863 9.11865,-0.13916c2.18701,-0.97295 3.46699,-2.31621 4.32188,-4.53193l0.41016,-0.44268c0.45,0.26367 0.72598,0.33018 0.75908,0.89326c0.64658,10.98955 -13.18828,11.85937 -18.9457,5.77207c-0.60205,-1.88584 -1.11035,-3.57568 -1.61016,-5.49053c-1.28584,-1.246 -11.31123,-7.02275 -13.33535,-7.92568c-4.02129,0.4749 -8.25498,1.86123 -12.2499,2.7085c-0.04746,3.08672 -0.09287,6.19102 -0.06914,9.27861c0.00732,0.95859 0.54961,0.80947 0.479,1.79736l-0.95977,0.15762l-0.44385,-0.10635c-0.83906,-0.92168 -0.63223,-13.63477 -0.68496,-15.95332z" fill="#007805"/><path d="M212.82979,106.25889c1.72441,1.90049 0.73857,6.23584 -1.19561,7.78975c-2.68682,2.15801 -6.03984,2.56904 -9.35332,2.35664c-2.65049,0.53408 -7.46016,-3.31963 -8.98799,-3.33926c-7.19912,-0.09229 -16.4083,-1.38545 -23.19287,0.84932c-1.32979,0.43799 -0.59209,2.9499 -1.04326,3.78574c-1.5252,-0.92139 -2.91885,-1.59609 -4.51406,-2.38037c2.53066,-2.35225 3.68525,-3.89795 4.53135,-7.29756c3.22998,0.3293 8.89248,0.15732 12.35156,0.17754c3.0624,0.01816 10.60869,0.28916 13.31455,-0.14854c5.17178,4.97871 14.91855,5.74072 18.08965,-1.79326z" fill="url(#color-5)"/><path d="M130.16924,117.68496c2.81309,2.37422 8.65928,3.34863 12.21826,3.69844l0.02578,7.15518l-1.38604,-0.94541c-0.79189,-2.26816 -2.42139,-2.05635 -4.51611,-2.6209c-2.07773,-0.55986 -5.51455,-2.46357 -7.54424,-1.21553c-3.14443,1.93271 -9.93252,5.41465 -12.41367,7.86064c-0.69492,3.06445 -1.5041,5.99854 -4.48096,7.59932c-6.70342,3.60439 -17.0373,0.54375 -15.87949,-8.39971l0.35918,-0.36475l0.51738,0.24932c0.89619,2.15068 1.84629,3.44502 4.01543,4.40244c5.20928,2.29893 15.96885,0.39697 12.86543,-7.44199c3.02607,-1.52842 13.71797,-7.86709 16.21904,-9.97705z" fill="#008d15"/><path d="M124.03389,116.89951c-0.58652,-0.81475 -2.28105,-3.34541 -3.10781,-3.51152c-5.01709,-1.00811 -18.1708,-0.81826 -22.87529,-0.31641c-4.77334,1.63887 -8.4208,4.3834 -13.85156,3.06006c-3.65508,-0.89092 -7.05439,-4.18828 -6.01846,-8.48877l0.78662,-0.47549c2.92354,6.55225 12.76465,5.5998 17.27549,0.99932c2.96104,0.27627 7.17861,0.14063 10.22227,0.13008c5.19434,0.02461 10.38896,-0.0457 15.58096,-0.21094c0.1374,0.80391 0.30908,1.85771 0.63428,2.60625c0.60527,1.39277 3.00908,3.6252 2.71641,5.13398c-0.5042,0.60732 -0.67266,0.67852 -1.36289,1.07344z" fill="#007805"/><path d="M192.64717,83.46123l0.88301,0.50684c0.42188,1.66201 0.19365,4.37578 -0.76553,5.86143c-2.83008,4.38457 -8.49609,2.98066 -12.73008,3.47666c-3.46934,0.40605 -9.02256,4.24307 -11.74336,6.53437c-0.45879,0.42598 -0.43916,0.53203 -1.06523,0.91406c-0.98145,-1.33037 -2.2292,-2.54033 -3.38467,-3.73184c4.98428,-2.44277 10.18037,-5.67686 14.78291,-8.78906l0.09844,-0.08848c0.53525,-0.05859 0.41689,-0.04775 0.93633,0.0249c3.86777,0.54023 7.37607,0.36973 10.7792,-1.50117c1.22197,-1.18096 1.52754,-1.66348 2.20898,-3.20771z" fill="#007805"/><path d="M190.43818,86.66895c-0.00645,0.8584 0.1418,1.27471 -0.50508,1.9875c-1.75898,1.93857 -7.96172,2.11641 -10.06904,1.0418c-0.35127,-0.49893 -0.73857,-1.15986 -1.23984,-1.46455l0.09844,-0.08848c0.53525,-0.05859 0.41689,-0.04775 0.93633,0.0249c3.86777,0.54023 7.37607,0.36973 10.7792,-1.50117z" fill="#08b638"/><path d="M97.20293,90.06064c-0.58945,-1.49619 -1.45898,-4.57266 -0.8209,-6.0832l0.70107,-0.14561c3.05625,4.75752 8.93291,6.20596 13.78711,3.38672c5.40527,4.45166 10.49736,6.52764 15.99521,10.31865l-2.6625,2.95049c-3.26309,-1.61045 -9.11484,-6.3624 -10.82197,-6.92871c-6.28535,-2.08477 -9.54902,2.23184 -16.17803,-3.49834z" fill="#008d15"/><path d="M154.78945,143.17295l0.9665,0.34453c0.45176,0.97119 0.06064,2.96309 -0.26572,3.99785c-1.79062,5.67861 -9.84404,6.49336 -14.53242,4.64707c-2.22422,-0.85547 -4.00518,-2.57812 -4.93477,-4.77275c-0.56865,-1.3626 -1.04297,-4.29053 -0.49307,-5.671l0.59795,-0.22529c0.41484,8.70967 15.98965,9.22793 18.66152,1.67959z" fill="url(#color-6)"/><path d="M154.02363,70.89404c1.80205,1.5668 0.60205,4.94912 -0.32021,6.84229c-1.06582,0.7667 -3.81533,2.36865 -4.21377,3.28945l-0.37998,0.22646c-1.00664,-0.27305 -1.11768,-0.50771 -1.71182,-1.31895c-0.16582,-5.19111 0.28359,-3.32314 4.29404,-5.82627c0.70605,-0.44092 1.84277,-2.37656 2.33174,-3.21299z" fill="#008d15"/><path d="M135.51475,76.90869c-0.43359,-1.8791 -1.2583,-3.90527 0.13477,-5.38037c1.78564,3.50039 3.43711,3.08584 6.53467,4.91016c0.21123,0.12422 0.17344,1.34707 0.13916,1.7124c-0.21006,1.31309 0.09082,2.6666 -0.38672,3.92695c-0.80947,-0.23818 -0.8335,-1.33711 -1.45195,-1.75488c-1.87002,-1.26328 -3.18721,-1.94297 -4.96992,-3.41426z" fill="#008d15"/><path d="M147.39785,79.9333c0.59414,0.81123 0.70518,1.0459 1.71182,1.31895l0.37998,-0.22646c0.36357,1.58057 0.38965,9.46025 -0.14883,10.69102c-0.66299,-0.10195 -0.88506,-0.07734 -1.4042,-0.46348c-0.76641,-1.89375 -0.51416,-8.79346 -0.53877,-11.32002z" fill="#08b638"/><path d="M141.02725,127.59316l1.38604,0.94541c0.02607,2.69648 0.16377,6.30234 -0.00615,8.92881l-1.87207,-0.22969c-0.06709,-0.76582 0.31934,-8.79551 0.49219,-9.64453z" fill="#08b638"/><path d="M128.62588,109.54277c-3.54668,-9.50303 10.74199,-15.08232 18.11982,-14.25732c5.00742,0.56016 10.75605,1.88086 14.2582,5.87344c1.93096,2.20166 2.371,4.18799 2.14688,6.96768c-4.20967,9.84668 -19.17949,11.05195 -27.78164,7.13789c-3.31641,-1.50908 -4.74053,-2.84062 -6.74326,-5.72168z" fill="#08b638"/><path d="M128.62588,109.54277c-3.54668,-9.50303 10.74199,-15.08232 18.11982,-14.25732c5.00742,0.56016 10.75605,1.88086 14.2582,5.87344c1.93096,2.20166 2.371,4.18799 2.14688,6.96768c-1.53604,-0.49277 -1.17012,-0.15439 -2.15127,-1.43086c-6.62549,-8.61826 -19.43467,-8.37129 -28.18301,-3.27773c-4.40273,2.56348 -1.41504,4.35762 -4.19063,6.1248z" fill="#007805"/></g></svg></svg>