<svg id="svg" version="1.1" viewBox="0 0 300 300" width="300" height="300" xmlns="http://www.w3.org/2000/svg"><svg xmlns="http://www.w3.org/2000/svg"><defs><clipPath id="clip-1"><rect x="0" y="0" transform="scale(0.29297,0.29297)" width="1024" height="1024" fill="none"/></clipPath><linearGradient x1="201.96943" y1="180.55811" x2="96.97383" y2="43.14902" gradientUnits="userSpaceOnUse" id="color-1"><stop offset="0" stop-color="#9d42d1"/><stop offset="1" stop-color="#c973f1"/></linearGradient><linearGradient x1="146.75742" y1="239.40674" x2="162.11514" y2="237.72539" gradientUnits="userSpaceOnUse" id="color-2"><stop offset="0" stop-color="#671a85"/><stop offset="1" stop-color="#873bab"/></linearGradient><linearGradient x1="237.95098" y1="218.51572" x2="240.18604" y2="222.33779" gradientUnits="userSpaceOnUse" id="color-3"><stop offset="0" stop-color="#9b9b96"/><stop offset="1" stop-color="#b8b8b9"/></linearGradient><linearGradient x1="216.18691" y1="231.5291" x2="211.18975" y2="223.07168" gradientUnits="userSpaceOnUse" id="color-4"><stop offset="0" stop-color="#000000"/><stop offset="1" stop-color="#19051e"/></linearGradient><linearGradient x1="194.99736" y1="69.72832" x2="102.5584" y2="197.41699" gradientUnits="userSpaceOnUse" id="color-5"><stop offset="0" stop-color="#ab4ed0"/><stop offset="1" stop-color="#cb7fea"/></linearGradient><linearGradient x1="272.06016" y1="83.91973" x2="35.47881" y2="174.45527" gradientUnits="userSpaceOnUse" id="color-6"><stop offset="0" stop-color="#d983f7"/><stop offset="1" stop-color="#ffdcfc"/></linearGradient><linearGradient x1="119.02324" y1="140.52744" x2="124.6166" y2="136.18594" gradientUnits="userSpaceOnUse" id="color-7"><stop offset="0" stop-color="#9050b3"/><stop offset="1" stop-color="#a16ac3"/></linearGradient><linearGradient x1="184.44844" y1="91.90635" x2="111.8291" y2="115.02715" gradientUnits="userSpaceOnUse" id="color-8"><stop offset="0" stop-color="#9036b7"/><stop offset="1" stop-color="#b961d2"/></linearGradient></defs><g clip-path="url(#clip-1)" fill="none" fill-rule="nonzero" stroke="none" stroke-width="1" stroke-linecap="butt" stroke-linejoin="miter" stroke-miterlimit="10" stroke-dasharray="" stroke-dashoffset="0" font-family="none" font-weight="none" font-size="none" text-anchor="none" style="mix-blend-mode: normal"><path d="M133.8917,34.09775c5.04492,-4.54189 14.36045,-4.2624 20.20928,-1.21055c8.78467,4.5832 17.16592,9.89619 25.76719,14.72959c25.55742,14.27637 50.86758,28.99102 75.91934,44.13721c5.75625,3.42422 12.20156,6.48281 17.75303,10.23545c6.37559,4.30986 15.12715,5.81631 14.53066,15.21592l-0.01055,0.15908c0.02432,4.92363 0.10313,9.73711 -0.42832,14.63701l0.29355,1.61924c0.10723,10.13965 0.13477,20.27988 0.08262,30.42012c0.02432,5.88984 0.8042,17.43721 -1.40918,22.65439c0.81006,0.27363 1.3459,0.07822 2.1375,-0.11484c1.25039,3.2833 -6.15146,8.26201 -8.48584,10.07139c-9.8127,7.5876 -20.08799,14.55703 -30.76611,20.86875c-5.3376,3.1752 -11.27314,6.27188 -16.63975,9.45264c-5.01621,2.97334 -9.78369,6.21152 -14.90303,9.15645c-9.52383,5.47822 -20.31826,11.1832 -29.48291,17.18877c-3.67324,2.94785 -15.42158,10.07666 -19.92949,11.34609c-1.85215,1.40537 -6.39492,3.14004 -8.71611,3.68174c-2.00771,0.48223 -4.06641,0.72012 -6.13096,0.70928c-2.42109,-0.03545 -14.31914,-2.13574 -16.33975,-3.05273c-8.77178,-3.88975 -16.6207,-9.76699 -24.97617,-14.38506c-6.54902,-3.61963 -12.63252,-6.86543 -18.87949,-11.05283c-3.66826,-2.45889 -8.39414,-4.41914 -12.18223,-6.93398c-4.60986,-3.06006 -9.28506,-6.06885 -14.02441,-8.91445c-4.25449,-3.22676 -10.49121,-5.15625 -14.67246,-8.10352c-6.78252,-4.78096 -12.69434,-8.89746 -20.11084,-12.70225c-4.52487,-2.32119 -8.70952,-7.25039 -13.87764,-9.34307c-2.24786,-0.91025 -7.21078,-5.56465 -8.08854,-7.82197c-0.26241,-0.62139 0.41086,-1.23662 0.79307,-1.67842l0.56429,-0.25518c-0.89312,-1.50234 -1.76581,-3.60029 -1.88561,-5.33408c-0.44256,-6.4043 -0.28585,-13.07754 -0.27908,-19.49941c-0.05965,-10.88115 -0.02358,-21.7626 0.10813,-32.64316c0.04702,-4.7543 -0.64195,-12.50771 0.04274,-16.98135c0.25395,-2.14746 3.62927,-5.17617 5.42921,-6.28184c7.66831,-4.71182 15.52058,-9.67061 23.40729,-13.9793c0.28945,-0.42334 58.48066,-35.06367 62.81074,-37.21787c0.57451,-0.479 4.73584,-2.81865 5.61533,-3.32783c4.09775,-2.37129 8.29688,-5.0001 12.4585,-7.2293l4.01338,-2.39121c1.59111,-1.17744 8.35488,-4.83018 10.28262,-5.82891zM172.26182,217.05264c-0.84229,-0.30352 -2.91885,-0.30381 -3.6,0.12393c-5.19375,3.26162 -0.57656,12.85312 4.83076,4.49326c0.23818,-2.3915 0.25459,-2.76709 -1.23076,-4.61719z" fill="url(#color-1)"/><path d="M11.88844,184.81201c-0.89312,-1.50234 -1.76581,-3.60029 -1.88561,-5.33408c-0.44256,-6.4043 -0.28585,-13.07754 -0.27908,-19.49941c-0.05965,-10.88115 -0.02358,-21.7626 0.10813,-32.64316c0.04702,-4.7543 -0.64195,-12.50771 0.04274,-16.98135c0.03041,1.56533 -0.28412,2.51279 1.23067,3.28623l0.19729,0.09258c0.65962,1.61133 1.20149,2.42256 2.7242,3.36299c7.31379,4.5167 14.83717,8.89717 22.17507,13.35703l56.48848,33.90059l35.28252,21.19746c4.64648,2.80283 16.02334,10.66641 21.11602,11.48643c4.32861,0.24639 6.8291,-0.22324 10.89287,-1.72324c24.40078,-14.25469 48.67295,-28.72764 72.81416,-43.41738l36.95479,-22.33857c4.26445,-2.6291 14.13984,-7.55479 16.69687,-11.16357c0.22471,-0.25107 0.46787,-0.84492 0.62607,-1.18154l0.98701,0.15146c0.02432,4.92363 0.10313,9.73711 -0.42832,14.63701l0.29355,1.61924c0.10723,10.13965 0.13477,20.27988 0.08262,30.42012c0.02432,5.88984 0.8042,17.43721 -1.40918,22.65439c0.81006,0.27363 1.3459,0.07822 2.1375,-0.11484c1.25039,3.2833 -6.15146,8.26201 -8.48584,10.07139c-9.8127,7.5876 -20.08799,14.55703 -30.76611,20.86875c-5.3376,3.1752 -11.27314,6.27188 -16.63975,9.45264c-5.01621,2.97334 -9.78369,6.21152 -14.90303,9.15645c-9.52383,5.47822 -20.31826,11.1832 -29.48291,17.18877c-3.67324,2.94785 -15.42158,10.07666 -19.92949,11.34609c-1.85215,1.40537 -6.39492,3.14004 -8.71611,3.68174c-2.00771,0.48223 -4.06641,0.72012 -6.13096,0.70928c-2.42109,-0.03545 -14.31914,-2.13574 -16.33975,-3.05273c-8.77178,-3.88975 -16.6207,-9.76699 -24.97617,-14.38506c-6.54902,-3.61963 -12.63252,-6.86543 -18.87949,-11.05283c-3.66826,-2.45889 -8.39414,-4.41914 -12.18223,-6.93398c-4.60986,-3.06006 -9.28506,-6.06885 -14.02441,-8.91445c-4.25449,-3.22676 -10.49121,-5.15625 -14.67246,-8.10352c-6.78252,-4.78096 -12.69434,-8.89746 -20.11084,-12.70225c-4.52487,-2.32119 -8.70952,-7.25039 -13.87764,-9.34307c-2.24786,-0.91025 -7.21078,-5.56465 -8.08854,-7.82197c-0.26241,-0.62139 0.41086,-1.23662 0.79307,-1.67842zM172.26182,217.05264c-0.84229,-0.30352 -2.91885,-0.30381 -3.6,0.12393c-5.19375,3.26162 -0.57656,12.85312 4.83076,4.49326c0.23818,-2.3915 0.25459,-2.76709 -1.23076,-4.61719z" fill="#8730b4"/><path d="M286.46426,134.25117c0.32314,-0.3249 0.99404,-0.47959 1.46162,-0.63047c0.10723,10.13965 0.13477,20.27988 0.08262,30.42012c0.02432,5.88984 0.8042,17.43721 -1.40918,22.65439c0.81006,0.27363 1.3459,0.07822 2.1375,-0.11484c1.25039,3.2833 -6.15146,8.26201 -8.48584,10.07139c-9.8127,7.5876 -20.08799,14.55703 -30.76611,20.86875c-5.3376,3.1752 -11.27314,6.27188 -16.63975,9.45264c-5.01621,2.97334 -9.78369,6.21152 -14.90303,9.15645c-9.52383,5.47822 -20.31826,11.1832 -29.48291,17.18877c0.36768,-1.66553 2.75918,-2.33584 3.94687,-3.84727l-0.15996,-0.62051c2.80459,-1.98193 3.97939,-1.36348 5.69736,-5.62471c-9.10693,4.91221 -17.59951,10.66816 -26.60654,15.75059c-4.25303,2.4 -8.36133,5.68184 -13.0998,7.14463c-3.50771,1.08281 -11.95166,1.08135 -14.87139,-1.06875c-0.50771,-0.96006 -0.79219,-1.39775 -0.98701,-2.47295c2.55498,1.18359 3.95039,1.67988 6.78457,2.14043c0.18809,-4.59697 0.05127,-9.26572 0.07764,-13.78857c0.01875,-3.26396 0.57744,-7.85098 0.49336,-11.03467c-0.09609,-3.63457 0.04248,-24.31436 0.86074,-26.54707c4.06406,-0.09844 5.62969,-0.01348 9.47666,-1.29932c2.49609,-0.91846 6.57129,-3.5918 9.01406,-4.9459c6.96064,-3.85898 13.71211,-8.4041 20.54561,-12.41016l55.67256,-32.98447c4.2249,-2.51221 8.29307,-4.90576 12.646,-7.57119c9.41191,-5.76299 19.95762,-10.91689 28.42646,-18.04863c0.50625,-0.42627 0.2209,-1.32334 0.08789,-1.83867zM172.26182,217.05264c-0.84229,-0.30352 -2.91885,-0.30381 -3.6,0.12393c-5.19375,3.26162 -0.57656,12.85312 4.83076,4.49326c0.23818,-2.3915 0.25459,-2.76709 -1.23076,-4.61719z" fill="#631e8a"/><path d="M150.59502,213.34951c4.06406,-0.09844 5.62969,-0.01348 9.47666,-1.29932c0.37412,5.80811 0.22412,48.83467 -1.38662,50.72666c-0.39053,0.4585 -0.98789,0.8502 -1.46924,1.21348c-2.4917,0.67031 -5.47881,1.07314 -8.05254,0.72949c0.18809,-4.59697 0.05127,-9.26572 0.07764,-13.78857c0.01875,-3.26396 0.57744,-7.85098 0.49336,-11.03467c-0.09609,-3.63457 0.04248,-24.31436 0.86074,-26.54707z" fill="url(#color-2)"/><path d="M286.59932,186.69521c0.81006,0.27363 1.3459,0.07822 2.1375,-0.11484c1.25039,3.2833 -6.15146,8.26201 -8.48584,10.07139c-9.8127,7.5876 -20.08799,14.55703 -30.76611,20.86875c-5.3376,3.1752 -11.27314,6.27188 -16.63975,9.45264c-5.01621,2.97334 -9.78369,6.21152 -14.90303,9.15645c-9.52383,5.47822 -20.31826,11.1832 -29.48291,17.18877c0.36768,-1.66553 2.75918,-2.33584 3.94687,-3.84727l-0.15996,-0.62051c2.80459,-1.98193 3.97939,-1.36348 5.69736,-5.62471c3.38818,-3.01729 14.73838,-9.13389 19.00166,-11.58281c10.20762,-5.86289 20.39795,-12.54785 30.53701,-18.40693c7.86475,-4.52227 15.65859,-9.1667 23.37832,-13.93184c4.07549,-2.48643 12.11074,-6.71367 14.43691,-10.38193z" fill="url(#color-3)"/><path d="M157.21582,263.99033c5.27812,-1.24951 29.50723,-16.6333 35.32471,-20.17705l65.58193,-39.21152l22.25068,-13.07109c1.50264,-0.87012 2.81953,-2.3918 3.98115,-2.99561l0.94307,0.3873c-2.32617,3.66826 -10.36143,7.89551 -14.43691,10.38193c-7.71973,4.76514 -15.51357,9.40957 -23.37832,13.93184c-10.13906,5.85908 -20.32939,12.54404 -30.53701,18.40693c-4.26328,2.44893 -15.61348,8.56553 -19.00166,11.58281c-9.10693,4.91221 -17.59951,10.66816 -26.60654,15.75059c-4.25303,2.4 -8.36133,5.68184 -13.0998,7.14463c-3.50771,1.08281 -11.95166,1.08135 -14.87139,-1.06875c-0.50771,-0.96006 -0.79219,-1.39775 -0.98701,-2.47295c2.55498,1.18359 3.95039,1.67988 6.78457,2.14043c2.57373,0.34365 5.56084,-0.05918 8.05254,-0.72949z" fill="url(#color-4)"/><path d="M169.24102,233.51924c6.47168,-0.37676 5.53623,5.85088 1.47363,8.8916c-6.29326,-0.13008 -5.58516,-6.29619 -1.47363,-8.8916z" fill="#00eb00"/><path d="M173.49258,221.66982c-5.40732,8.35986 -10.02451,-1.23164 -4.83076,-4.49326c0.68115,-0.42773 2.75771,-0.42744 3.6,-0.12393c1.48535,1.8501 1.46895,2.22568 1.23076,4.61719zM169.58818,223.1751c0.53906,-1.94268 1.78418,-4.01016 1.03125,-5.34463l-0.64805,-0.34014c-1.40273,1.25479 -2.00186,3.25576 -1.3623,5.04697c0.38555,0.35186 0.47021,0.4752 0.9791,0.63779z" fill="#00eb00"/><path d="M169.97139,217.49033l0.64805,0.34014c0.75293,1.33447 -0.49219,3.40195 -1.03125,5.34463c-0.50889,-0.1626 -0.59355,-0.28594 -0.9791,-0.63779c-0.63955,-1.79121 -0.04043,-3.79219 1.3623,-5.04697z" fill-opacity="0.98824" fill="#a2fc00"/><path d="M178.64092,213.77021c1.1874,-0.82734 2.58926,-1.98193 3.96826,-2.23213l0.83994,0.16494c1.47363,2.3584 -3.25137,5.6499 -5.09004,6.72451c-0.17812,0.1043 -0.35713,0.20684 -0.53701,0.3082c-1.49326,1.2375 -1.92949,0.19834 -3.31084,1.11387c-0.18926,0.1251 -0.80977,1.4792 -1.01865,1.82021c0.23818,-2.3915 0.25459,-2.76709 -1.23076,-4.61719c2.87549,0.50713 3.08232,-1.50967 6.18867,-3.18135z" fill="#44136d"/><path d="M178.64092,213.77021c1.1874,-0.82734 2.58926,-1.98193 3.96826,-2.23213l0.83994,0.16494c1.47363,2.3584 -3.25137,5.6499 -5.09004,6.72451c-0.17812,0.1043 -0.35713,0.20684 -0.53701,0.3082c0.20771,-1.86943 4.05352,-2.7457 5.12578,-5.33525c-1.21904,-1.18857 -2.06836,0.75615 -4.30693,0.36973z" fill="#2b035a"/><path d="M179.9332,229.80732c1.53574,-0.779 3.07061,-1.75283 3.93545,0.35889c-0.13682,1.1918 -0.46846,1.78301 -1.2832,2.71348c-1.13057,1.61924 -4.90254,4.29199 -6.97969,2.72666c-1.09072,-2.69033 2.41084,-4.61631 4.32744,-5.79902z" fill="#44136d"/><path d="M179.9332,229.80732c1.53574,-0.779 3.07061,-1.75283 3.93545,0.35889c-0.13682,1.1918 -0.46846,1.78301 -1.2832,2.71348c-1.46426,-1.26768 0.53408,-1.61572 -2.65225,-3.07236z" fill="#2b035a"/><path d="M230.59336,201.15c2.86055,1.6084 0.01582,5.84854 -2.52832,7.11094l-0.73623,-0.69609c-1.19736,-2.88896 1.17832,-4.87471 3.26455,-6.41484z" fill="#030204"/><path d="M214.6752,189.70723c3.53057,0.43711 1.6415,5.02969 -0.46348,6.66768c-0.61377,-0.04336 -0.6668,-0.09404 -1.23398,-0.3624c-1.61836,-2.06689 0.10605,-4.79736 1.69746,-6.30527z" fill="#030204"/><path d="M229.64209,180.91172c0.44033,0.07822 0.7248,0.29004 1.11152,0.51738c1.66055,2.3877 -0.64658,4.81582 -2.33525,6.41895c-0.49629,0.00762 -0.68145,-0.18047 -1.09893,-0.45352c-1.47305,-2.05957 0.92256,-5.0707 2.32266,-6.48281z" fill="#030204"/><path d="M272.71318,176.21572c0.52998,0.04043 0.69023,0.19541 1.13555,0.47549c1.22314,2.01885 -0.37705,4.94824 -2.02471,6.28975c-0.77725,-0.0208 -0.82441,0.00029 -1.44932,-0.4166c-1.2542,-2.2248 0.82031,-4.82842 2.33848,-6.34863z" fill="#030204"/><path d="M237.45674,197.03379c1.12354,0.40781 1.47393,1.73262 1.20088,2.79082c-0.50977,1.97578 -1.9459,3.07588 -3.5335,4.12119c-0.31699,-0.08613 -0.45293,-0.24697 -0.72627,-0.45937c-1.14492,-2.39297 1.40215,-4.99893 3.05889,-6.45264z" fill="#030204"/><path d="M264.76084,180.88682c4.0667,1.18828 1.5252,4.54512 -0.56836,6.18955c-0.54346,0.33867 -0.6082,0.33838 -1.24043,0.48779c-1.3793,-1.45898 0.68145,-5.37715 1.80879,-6.67734z" fill="#030204"/><path d="M244.30576,193.2624l0.72803,0.43213c1.44287,2.46445 -0.44795,4.58936 -2.21455,6.23408c-3.40576,-0.82324 -0.77461,-5.26523 1.48652,-6.66621z" fill="#030204"/><path d="M222.8458,195.27451c0.44473,0.14824 0.46963,0.22324 0.84697,0.50859c1.41094,2.84795 -0.80098,4.78154 -2.90684,6.39404l-0.69258,-0.23145l-0.35449,-0.79453c0.04189,-2.62266 1.34004,-4.14902 3.10693,-5.87666z" fill="#030204"/><path d="M223.40947,205.246l0.54902,0.55723c0.87598,3.33486 -0.49189,4.96758 -3.20244,6.76172l-0.62842,-0.36182c-0.85752,-2.53828 1.56855,-5.35957 3.28184,-6.95713z" fill="#030204"/><path d="M215.62617,199.35205c0.40811,0.01904 0.49307,0.16025 0.81738,0.42568c0.91875,2.53359 -0.71016,5.31123 -3.00176,6.52031l-0.67207,-0.4333c-1.37021,-2.33994 1.23633,-5.06543 2.85645,-6.5127z" fill="#030204"/><path d="M265.57529,170.70498c0.5915,0.05537 0.61816,0.10869 1.11152,0.47754c1.20967,2.15684 -1.40361,4.66465 -2.92822,5.86523l-0.72041,-0.35918c-1.57969,-2.59512 0.45762,-4.63359 2.53711,-5.98359z" fill="#030204"/><path d="M230.06309,191.22949c2.10996,0.63076 1.04678,3.69756 0.08906,4.89551c-0.73037,0.91318 -1.24365,1.1874 -2.25088,1.75518l-0.60791,-0.36152c-1.35996,-2.4668 1.01191,-4.81084 2.76973,-6.28916z" fill="#030204"/><path d="M272.63906,155.1085c0.38262,0.06709 0.76904,0.28447 1.12676,0.45469c1.69775,2.16064 -0.375,4.5876 -1.96113,6.09199c-0.49482,-0.00381 -0.56455,-0.08555 -1.03799,-0.26309c-1.52051,-2.06221 0.52764,-4.61279 1.87236,-6.28359z" fill="#030204"/><path d="M251.64521,188.9127c0.09873,0.075 0.42832,0.50127 0.52939,0.62578c0.55811,3.10283 -0.24932,4.99072 -3.2124,6.26719c-2.02295,-3.20449 0.32344,-4.98193 2.68301,-6.89297z" fill="#030204"/><path d="M244.08838,183.2959c0.38613,0.04658 0.65537,0.26455 0.99199,0.47373c1.33359,2.48086 -0.67852,4.096 -2.59951,5.41611c-0.48428,0.09873 -0.73477,-0.01992 -1.2085,-0.15293c-1.23691,-2.11816 1.31895,-4.46777 2.81602,-5.73691z" fill="#030204"/><path d="M236.68945,176.8125c0.51768,-0.00674 0.66094,0.14092 1.09834,0.41338c1.23018,2.4 -0.81182,4.52461 -2.6543,5.84824l-0.54375,-0.13271c-1.93682,-2.11553 0.50303,-4.61104 2.09971,-6.12891z" fill="#030204"/><path d="M258.52002,185.06484c1.07725,0.3624 1.3084,1.88174 0.98086,2.87373c-0.68203,2.0666 -1.51846,2.75918 -3.36387,3.78516c-2.90947,-1.18594 1.27207,-5.48437 2.38301,-6.65889z" fill="#030204"/><path d="M215.36221,210.17432l0.84023,0.34687c1.7335,2.46768 -0.35625,4.52578 -2.16416,6.08408c-0.35654,0.12627 -0.67734,0.11426 -1.06348,0.14238c-1.41914,-1.53311 1.28232,-5.26055 2.3874,-6.57334z" fill="#030204"/><path d="M264.93047,159.78896l1.01396,0.29707c1.7915,2.1958 -0.0627,4.37197 -1.7291,5.99854c-0.53262,0.04102 -0.62402,-0.04189 -1.09658,-0.2666c-1.35439,-1.86357 0.49102,-4.66582 1.81172,-6.029z" fill="#030204"/><path d="M236.98945,187.04648l0.6293,0.32197c1.88848,2.70293 -0.04805,4.18828 -2.1665,5.78965c-0.32695,0.196 -0.67207,0.16465 -1.06318,0.18311c-1.37959,-1.82871 1.3333,-5.02061 2.60039,-6.29473z" fill="#030204"/><path d="M258.05859,174.76172c3.9627,1.26182 -0.25488,4.76426 -1.85859,5.84941c-0.88037,0.15029 -0.56016,0.21943 -1.24277,-0.18076c-0.34307,-2.29629 1.57764,-4.2082 3.10137,-5.66865z" fill="#030204"/><path d="M250.88467,168.93867l0.93164,0.33633c1.41973,2.24004 -0.85576,4.36787 -2.61709,5.60742l-0.75615,-0.33604c-1.38691,-2.37012 0.55898,-4.24834 2.4416,-5.60771z" fill="#030204"/><path d="M221.96953,185.61006c1.16191,0.08789 1.16719,0.22969 1.8041,0.94951c0.55049,2.04258 -0.90029,3.39814 -2.41055,4.45957c-1.05908,0.17227 -0.84346,0.30908 -1.58145,-0.14473c-0.69023,-1.83369 0.97324,-4.02686 2.18789,-5.26436z" fill="#030204"/><path d="M244.0377,172.77217c3.08877,1.69512 -0.25283,4.91279 -1.87881,6.13184c-0.32314,-0.0082 -0.41074,-0.1084 -0.73477,-0.27158c-1.40098,-2.25879 1.01279,-4.48799 2.61357,-5.86025z" fill="#030204"/><path d="M207.14619,215.18848c1.29697,0.09727 0.93574,-0.12041 1.74229,0.68701c0.71162,1.96201 -0.41689,3.58008 -1.81523,4.84629c-0.2209,0.02227 -0.80566,-0.01201 -1.05908,-0.01934c-1.77012,-1.59961 -0.2209,-4.15137 1.13203,-5.51396z" fill="#030204"/><path d="M250.96201,178.8791c0.9876,0.19629 1.47568,1.61982 1.24893,2.51104c-0.47842,1.87969 -1.46689,2.74014 -3.03926,3.76465c-0.56016,-0.03018 -0.404,-0.03867 -0.93867,-0.43535c-0.57305,-2.1126 1.39102,-4.38428 2.729,-5.84033z" fill="#030204"/><path d="M257.24033,164.52949c0.43916,0.01025 0.8543,0.09141 1.29053,0.15645c1.66201,1.75459 -0.15879,4.00107 -1.53164,5.30859c-1.13555,0.225 -0.74502,0.31465 -1.55127,-0.19014c-0.6,-1.86885 0.67471,-3.87246 1.79238,-5.2749z" fill="#030204"/><path d="M207.27012,194.37129c3.4207,0.93779 1.44463,4.05996 -0.36562,5.55557c-3.46729,-0.07061 -0.70957,-4.30576 0.36562,-5.55557z" fill="#030204"/><path d="M272.28428,166.93916c1.33887,-0.07852 1.55273,-0.16201 2.0209,1.03271c-0.23027,1.63916 -1.31309,2.74951 -2.48789,3.82852c-1.14639,0.18398 -0.76553,0.28535 -1.57324,-0.20508c-0.48047,-1.84307 0.69434,-3.52617 2.04023,-4.65615z" fill="#030204"/><path d="M207.46172,204.96738c3.44473,0.27686 0.16406,4.71709 -0.83672,5.83096c-2.97363,-1.02451 -0.70283,-4.51553 0.83672,-5.83096z" fill="#030204"/><path d="M287.07363,117.21299l0.98701,0.15146c0.02432,4.92363 0.10313,9.73711 -0.42832,14.63701c-1.77275,0.39902 -5.86553,3.65889 -7.80967,4.86416l-17.2043,10.48711c-3.61875,2.23154 -7.63594,4.0002 -11.31064,6.20127l-56.03145,33.59531c-5.86934,3.496 -11.73721,7.09805 -17.63613,10.55713c-5.05078,2.96191 -12.5502,8.16475 -17.79316,10.25625c-0.59268,-1.90664 0.09082,-7.34883 -0.3709,-10.37842c0.19014,-0.5625 0.37734,-1.64795 0.50566,-2.27021c24.40078,-14.25469 48.67295,-28.72764 72.81416,-43.41738l36.95479,-22.33857c4.26445,-2.6291 14.13984,-7.55479 16.69687,-11.16357c0.22471,-0.25107 0.46787,-0.84492 0.62607,-1.18154z" fill="#631e8a"/><path d="M150.59502,213.34951c-4.81084,-0.35391 -5.33584,-0.49307 -9.44473,-3.09287c-9.08584,-5.74834 -18.5499,-10.74639 -27.39141,-16.921c-2.99795,-2.02617 -6.69932,-3.27832 -9.70283,-5.22129c-7.63887,-4.97461 -15.76113,-9.13594 -23.2834,-14.28984c-3.71484,-2.54561 -7.76016,-4.20205 -11.58779,-6.48662l-41.91718,-25.546c-4.36146,-2.67891 -8.85639,-5.08594 -13.19429,-7.78799c-1.56993,-0.97793 -4.68053,-3.25313 -3.23153,-5.27754c0.61318,0.52002 1.61147,1.42031 2.23072,1.85479l0.73011,-0.98203c7.17782,4.92891 14.30985,8.49316 21.59438,12.95508l57.21563,34.51553l35.40146,21.14561c5.53271,3.30088 11.14951,7.07461 16.82666,9.95566l3.81445,1.17246c1.83281,0.18545 4.77334,0.52676 6.54521,0.00674c1.85127,-0.23643 2.91943,-0.72275 4.64648,-1.3875c5.24297,-2.0915 12.74238,-7.29434 17.79316,-10.25625c5.89893,-3.45908 11.7668,-7.06113 17.63613,-10.55713l56.03145,-33.59531c3.67471,-2.20107 7.69189,-3.96973 11.31064,-6.20127l17.2043,-10.48711c1.94414,-1.20527 6.03691,-4.46514 7.80967,-4.86416l0.29355,1.61924c-0.46758,0.15088 -1.13848,0.30557 -1.46162,0.63047c0.13301,0.51533 0.41836,1.4124 -0.08789,1.83867c-8.46885,7.13174 -19.01455,12.28564 -28.42646,18.04863c-4.35293,2.66543 -8.42109,5.05898 -12.646,7.57119l-55.67256,32.98447c-6.8335,4.00605 -13.58496,8.55117 -20.54561,12.41016c-2.44277,1.3541 -6.51797,4.02744 -9.01406,4.9459c-3.84697,1.28584 -5.4126,1.20088 -9.47666,1.29932z" fill="url(#color-5)"/><path d="M13.8027,129.59912c7.17782,4.92891 14.30985,8.49316 21.59438,12.95508l57.21563,34.51553l35.40146,21.14561c5.53271,3.30088 11.14951,7.07461 16.82666,9.95566l3.81445,1.17246c1.83281,0.18545 4.77334,0.52676 6.54521,0.00674c1.85127,-0.23643 2.91943,-0.72275 4.64648,-1.3875c5.24297,-2.0915 12.74238,-7.29434 17.79316,-10.25625c5.89893,-3.45908 11.7668,-7.06113 17.63613,-10.55713l56.03145,-33.59531c3.67471,-2.20107 7.69189,-3.96973 11.31064,-6.20127l17.2043,-10.48711c1.94414,-1.20527 6.03691,-4.46514 7.80967,-4.86416l0.29355,1.61924c-0.46758,0.15088 -1.13848,0.30557 -1.46162,0.63047c-4.27354,3.56162 -10.11416,6.86367 -14.97041,9.79336c-11.75039,7.08838 -23.6877,14.01504 -35.52451,20.96865c-3.47842,2.04375 -6.78838,4.36611 -10.2293,6.4251l-44.61914,26.14893c-5.82422,3.37324 -11.37393,7.12881 -17.34756,10.2791c-6.54873,3.45352 -12.32432,5.46592 -19.42617,1.87705c-7.45752,-3.76846 -14.21426,-8.46797 -21.33252,-12.75645l-41.17705,-24.63281l-45.53379,-27.39404c-7.03242,-4.22549 -16.86762,-9.20332 -23.23122,-14.37891z" fill="#030204"/><path d="M11.88844,184.81201c1.04027,0.66826 2.08998,1.3333 3.11429,2.02559c5.23207,3.53613 10.96951,6.15 16.36134,9.44121l76.01104,45.44033c9.0249,5.34287 18.11309,10.54629 27.12275,15.89033c1.06553,0.63223 7.05176,4.3002 7.88086,4.96992c0.19482,1.0752 0.4793,1.51289 0.98701,2.47295c2.91973,2.1501 11.36367,2.15156 14.87139,1.06875c4.73848,-1.46279 8.84678,-4.74463 13.0998,-7.14463c9.00703,-5.08242 17.49961,-10.83838 26.60654,-15.75059c-1.71797,4.26123 -2.89277,3.64277 -5.69736,5.62471l0.15996,0.62051c-1.1877,1.51143 -3.5792,2.18174 -3.94687,3.84727c-3.67324,2.94785 -15.42158,10.07666 -19.92949,11.34609c-1.85215,1.40537 -6.39492,3.14004 -8.71611,3.68174c-2.00771,0.48223 -4.06641,0.72012 -6.13096,0.70928c-2.42109,-0.03545 -14.31914,-2.13574 -16.33975,-3.05273c-8.77178,-3.88975 -16.6207,-9.76699 -24.97617,-14.38506c-6.54902,-3.61963 -12.63252,-6.86543 -18.87949,-11.05283c-3.66826,-2.45889 -8.39414,-4.41914 -12.18223,-6.93398c-4.60986,-3.06006 -9.28506,-6.06885 -14.02441,-8.91445c-4.25449,-3.22676 -10.49121,-5.15625 -14.67246,-8.10352c-6.78252,-4.78096 -12.69434,-8.89746 -20.11084,-12.70225c-4.52487,-2.32119 -8.70952,-7.25039 -13.87764,-9.34307c-2.24786,-0.91025 -7.21078,-5.56465 -8.08854,-7.82197c-0.26241,-0.62139 0.41086,-1.23662 0.79307,-1.67842z" fill="#a3a3a2"/><path d="M11.88844,184.81201c1.04027,0.66826 2.08998,1.3333 3.11429,2.02559c5.23207,3.53613 10.96951,6.15 16.36134,9.44121l76.01104,45.44033c9.0249,5.34287 18.11309,10.54629 27.12275,15.89033c1.06553,0.63223 7.05176,4.3002 7.88086,4.96992c0.19482,1.0752 0.4793,1.51289 0.98701,2.47295c-4.06055,-1.69043 -9.99199,-5.44922 -13.89111,-7.80615c-7.47246,-4.51641 -14.88545,-8.85439 -22.45488,-13.21348c-3.36445,-1.91426 -6.571,-4.63711 -9.94131,-6.47813c-20.35693,-11.12168 -40.1165,-23.35488 -59.87227,-35.51104c-8.17582,-5.03057 -19.13426,-10.20908 -25.882,-16.97637z" fill="#030204"/><path d="M192.24609,248.85059l0.15996,0.62051c-1.1877,1.51143 -3.5792,2.18174 -3.94687,3.84727c-3.67324,2.94785 -15.42158,10.07666 -19.92949,11.34609c0.32754,-2.35752 20.31064,-13.96084 23.71641,-15.81387z" fill="#b1b2b2"/><path d="M149.08887,197.0373c4.32861,0.24639 6.8291,-0.22324 10.89287,-1.72324c-0.12832,0.62227 -0.31553,1.70771 -0.50566,2.27021c0.46172,3.02959 -0.22178,8.47178 0.3709,10.37842c-1.72705,0.66475 -2.79521,1.15107 -4.64648,1.3875c-1.77187,0.52002 -4.7124,0.17871 -6.54521,-0.00674c-0.23115,-3.01055 0.19395,-8.34346 -0.76494,-10.97637c0.05947,-0.36709 0.16055,-0.60352 0.27979,-0.95332z" fill="#631e8a"/><path d="M155.20049,209.3502l-0.28711,-0.28125c-0.11895,-2.38154 0.08115,-8.7 1.66641,-10.55508c0.76641,-0.89678 1.79209,-0.87187 2.89629,-0.92959c0.46172,3.02959 -0.22178,8.47178 0.3709,10.37842c-1.72705,0.66475 -2.79521,1.15107 -4.64648,1.3875z" fill="#8730b4"/><path d="M144.73389,197.73281c0.98936,0.26631 2.14805,0.63984 3.15645,0.63428c0.95889,2.63291 0.53379,7.96582 0.76494,10.97637l-3.81445,-1.17246c0.17051,-2.19434 -0.07002,-7.96934 -0.10693,-10.43818z" fill="#9846b4"/><path d="M10.84187,128.72637l-0.40447,-0.89941l0.21571,-0.35771c1.02984,0.10254 2.32298,1.40742 3.14959,2.12988l-0.73011,0.98203c-0.61925,-0.43447 -1.61754,-1.33477 -2.23072,-1.85479z" fill="#2b035a"/><path d="M19.38381,178.4124c-1.27515,-1.35674 -1.17627,-8.3042 -0.92145,-10.10889c0.49746,-3.52295 -0.79925,-24.05859 0.38733,-26.13193c0.99747,-0.1084 1.91848,0.1166 2.76686,0.63984c7.0759,4.36289 14.0521,8.90889 21.17593,13.19883l58.89375,35.21982c5.98975,3.60762 12.77871,7.51582 18.53115,11.11143c3.60234,2.25146 16.32539,8.17031 16.99717,11.80283c0.62637,3.38672 0.8502,33.60352 -0.2335,34.89287c-0.20449,0.99492 0.00205,0.75762 -0.65449,1.21729c-2.27344,-0.38467 -8.46387,-4.57295 -9.32285,-6.64893c-0.9627,-0.93867 -4.08896,-2.81807 -5.33906,-3.46875c-3.45117,0.16172 -18.35801,-9.48545 -21.81768,-11.88838c-0.99141,-0.68848 -2.36953,-1.19355 -3.38145,-1.84072c-3.86572,-1.48799 -7.52197,-3.47197 -10.87646,-5.90215c-3.74648,-2.22539 -6.64395,-4.65352 -10.23428,-7.00635c-1.21289,-0.99404 -5.15039,-2.22393 -6.11631,-3.1292c-2.17061,-2.03467 -7.56094,-4.09834 -9.32168,-5.64375c-4.25449,-2.02734 -11.48877,-5.92354 -14.81836,-8.91826c-5.89365,-3.23672 -11.54385,-6.26279 -16.94845,-10.32627c-2.64709,-1.99014 -8.46176,-3.59883 -8.76618,-7.06934z" fill="#030204"/><path d="M85.58906,220.50557c-0.9293,-1.48359 -2.17764,-1.57207 -2.56934,-2.79492l0.41572,-0.52441c3.44561,1.80674 10.06875,6.06387 13.53486,8.37539c8.54092,4.24189 16.18887,9.74678 24.69434,14.5752c-3.45117,0.16172 -18.35801,-9.48545 -21.81768,-11.88838c-0.99141,-0.68848 -2.36953,-1.19355 -3.38145,-1.84072c-3.86572,-1.48799 -7.52197,-3.47197 -10.87646,-5.90215z" fill="#a25bc2"/><path d="M19.38381,178.4124c7.3023,5.61152 18.31688,11.5374 26.37557,16.50938l1.41211,1.5627c-0.81328,-0.05625 -1.32773,-0.34834 -2.07305,-0.67646c-5.89365,-3.23672 -11.54385,-6.26279 -16.94845,-10.32627c-2.64709,-1.99014 -8.46176,-3.59883 -8.76618,-7.06934z" fill="#a44ddd"/><path d="M61.84248,204.54639c6.2877,3.29648 12.23379,6.70137 18.17695,10.57324c0.7415,0.48311 2.86113,1.59316 3.41602,2.0666l-0.41572,0.52441c0.3917,1.22285 1.64004,1.31133 2.56934,2.79492c-3.74648,-2.22539 -6.64395,-4.65352 -10.23428,-7.00635c-1.21289,-0.99404 -5.15039,-2.22393 -6.11631,-3.1292c-2.17061,-2.03467 -7.56094,-4.09834 -9.32168,-5.64375z" fill="#9846b4"/><path d="M45.75938,194.92178c5.746,3.06328 10.61338,6.61875 16.08311,9.62461l-1.92568,0.17988c-4.25449,-2.02734 -11.48877,-5.92354 -14.81836,-8.91826c0.74531,0.32813 1.25977,0.62021 2.07305,0.67646z" fill="#a25bc2"/><path d="M127.00371,243.60557c2.86084,1.69629 6.97617,4.53984 9.97734,5.43164c-0.20449,0.99492 0.00205,0.75762 -0.65449,1.21729c-2.27344,-0.38467 -8.46387,-4.57295 -9.32285,-6.64893z" fill="#a25bc2"/><path d="M19.84854,143.55029c9.85263,6.79658 22.23319,13.7291 32.62479,19.97813l31.84189,18.89883c12.69346,7.58467 25.2876,15.37734 38.03555,22.88555c3.43828,2.02471 10.61602,5.88604 13.45664,8.43926c0.41396,3.76699 0.12363,11.21309 0.10986,15.27363c-0.01934,5.80488 0.2209,12.57744 -0.04131,18.29121c-0.99434,-0.39756 -7.49824,-4.71768 -9.03281,-5.65459l-22.77012,-13.6585l-22.32832,-13.08574c-2.01709,-1.20557 -4.1625,-2.93965 -6.07002,-4.0125c-18.86104,-10.60605 -37.77832,-21.72363 -55.9945,-33.38145c-0.24814,-6.16113 0.1626,-13.36436 -0.00132,-19.66143c-0.06771,-2.60068 -0.15144,-12.68555 0.16966,-14.3124z" fill="#fafaf9"/><path d="M62.50605,172.53691c1.07314,1.14229 2.79434,3.69961 3.45205,4.04385c0.99023,-0.24287 0.91611,-0.51885 1.71123,-1.52168c2.16709,1.40332 7.17187,4.28174 8.54473,6.15352c0.18516,1.04736 0.03867,1.42881 0.70078,1.93945c0.63516,-0.33662 0.88154,-0.51738 1.45312,-0.95596l0.44209,0.1834l0.17812,0.47725c0.83467,0.09727 1.37871,0.13564 2.1958,0.37676c2.28574,1.77686 10.14551,5.95459 10.82402,7.22461c0.49453,0.6082 0.75059,1.02041 1.65703,0.94863c-0.346,2.40762 -0.46348,9.23848 -0.30674,11.79346l0.1708,1.06611c-0.01523,2.38682 -0.35244,10.69482 -0.15205,12.36855l0.2042,0.15879c-0.79775,1.11855 -0.53672,1.10742 -1.63418,1.5498l-0.46641,-0.32139c-0.11309,-0.78809 -0.14531,-0.92783 0.02812,-1.7001c-2.55234,-3.84434 -3.69346,-2.81543 -6.94893,-2.07949c-1.01309,-0.62607 -1.80439,-1.26123 -2.74307,-1.99307c-0.2458,-1.24424 -0.30498,-2.61621 -0.39551,-3.88975c-0.53027,-0.85254 -1.07988,-0.50918 -1.79326,-0.25752c-2.52451,-0.21445 -2.204,-1.74932 -4.01865,-2.24912c-0.71221,0.77344 0.10986,0.96504 -0.34102,2.33555c-1.38721,0.01699 -7.33096,-4.16133 -9.24141,-5.15625c0.07705,-0.9917 0.11514,-2.04229 0.16787,-3.04072l-3.28887,-0.74414c-1.41387,-2.10586 -0.43652,-9.72568 -0.67207,-12.99404c-0.34453,-0.61113 -0.17783,-0.85488 -0.0999,-1.6623z" fill="#030204"/><path d="M78.98818,182.85674c0.83467,0.09727 1.37871,0.13564 2.1958,0.37676c2.28574,1.77686 10.14551,5.95459 10.82402,7.22461c0.49453,0.6082 0.75059,1.02041 1.65703,0.94863c-0.346,2.40762 -0.46348,9.23848 -0.30674,11.79346l0.1708,1.06611c-0.01523,2.38682 -0.35244,10.69482 -0.15205,12.36855l0.2042,0.15879c-0.79775,1.11855 -0.53672,1.10742 -1.63418,1.5498l-0.46641,-0.32139c-0.11309,-0.78809 -0.14531,-0.92783 0.02812,-1.7001c-2.55234,-3.84434 -3.69346,-2.81543 -6.94893,-2.07949c-1.01309,-0.62607 -1.80439,-1.26123 -2.74307,-1.99307c-0.2458,-1.24424 -0.30498,-2.61621 -0.39551,-3.88975c-0.16025,-2.47646 -0.3416,-8.81104 0.67646,-10.96611l-0.09053,-0.13682c-0.75498,-0.075 -1.28906,-0.24873 -2.01299,-0.44883c-0.34688,-0.53936 -0.91436,-0.73154 -1.50938,-1.03389l1.14932,-0.52295c0.80332,-1.05029 -0.27041,-10.5999 -0.646,-12.39434z" fill="#030204"/><path d="M81.42129,208.35967c-0.16025,-2.47646 -0.3416,-8.81104 0.67646,-10.96611c3.06738,2.60303 6.03105,3.94248 9.59268,5.75273c-0.02373,2.2834 0.19072,11.48613 -0.18164,13.17568c-2.55234,-3.84434 -3.69346,-2.81543 -6.94893,-2.07949c-1.01309,-0.62607 -1.80439,-1.26123 -2.74307,-1.99307c-0.2458,-1.24424 -0.30498,-2.61621 -0.39551,-3.88975z" fill="#030204"/><path d="M78.98818,182.85674c0.83467,0.09727 1.37871,0.13564 2.1958,0.37676c-0.13418,0.25635 0.31846,11.32617 0.35771,12.75645c1.75049,0.8833 8.3168,4.8668 9.4415,4.79531c1.04531,-1.3374 0.33252,-7.66611 1.0248,-10.32715c0.49453,0.6082 0.75059,1.02041 1.65703,0.94863c-0.346,2.40762 -0.46348,9.23848 -0.30674,11.79346l0.1708,1.06611c-0.01523,2.38682 -0.35244,10.69482 -0.15205,12.36855l0.2042,0.15879c-0.79775,1.11855 -0.53672,1.10742 -1.63418,1.5498l-0.46641,-0.32139c-0.11309,-0.78809 -0.14531,-0.92783 0.02812,-1.7001c0.37236,-1.68955 0.15791,-10.89229 0.18164,-13.17568c-3.56162,-1.81025 -6.52529,-3.14971 -9.59268,-5.75273l-0.09053,-0.13682c-0.75498,-0.075 -1.28906,-0.24873 -2.01299,-0.44883c-0.34688,-0.53936 -0.91436,-0.73154 -1.50938,-1.03389l1.14932,-0.52295c0.80332,-1.05029 -0.27041,-10.5999 -0.646,-12.39434z" fill="#d9d9d9"/><path d="M62.50605,172.53691c1.07314,1.14229 2.79434,3.69961 3.45205,4.04385c0.99023,-0.24287 0.91611,-0.51885 1.71123,-1.52168c2.16709,1.40332 7.17187,4.28174 8.54473,6.15352c0.18516,1.04736 0.03867,1.42881 0.70078,1.93945c0.63516,-0.33662 0.88154,-0.51738 1.45312,-0.95596l0.44209,0.1834l0.17812,0.47725c0.37559,1.79443 1.44932,11.34404 0.646,12.39434l-1.14932,0.52295c-6.20859,-3.26748 -10.36348,-6.08848 -15.98115,-10.06875l-0.26982,0.54814c-0.34453,-0.61113 -0.17783,-0.85488 -0.0999,-1.6623z" fill="#030204"/><path d="M62.13398,184.59111c4.30693,1.04619 13.98018,7.56797 17.5002,10.65996l-1.14932,0.52295c-6.20859,-3.26748 -10.36348,-6.08848 -15.98115,-10.06875l-0.26982,0.54814c-0.34453,-0.61113 -0.17783,-0.85488 -0.0999,-1.6623z" fill="#d9d9d9"/><path d="M79.99424,196.80791c0.72393,0.2001 1.25801,0.37383 2.01299,0.44883l0.09053,0.13682c-1.01807,2.15508 -0.83672,8.48965 -0.67646,10.96611c-0.53027,-0.85254 -1.07988,-0.50918 -1.79326,-0.25752c0.11016,-4.01455 -0.36299,-6.6668 0.36621,-11.29424z" fill="#b1b2b2"/><path d="M41.25762,159.74121c2.19756,0.88682 2.68623,4.91426 4.94766,5.05225c0.4377,-0.60645 0.66914,-0.975 1.03271,-1.62861c1.8,-0.25635 8.77412,5.32764 9.85078,7.3998c1.01484,0.33252 2.59834,0.91377 3.60352,1.04473l0.52207,-0.02871c0.5165,0.50273 0.67061,0.82412 1.2917,0.95625l-0.37207,12.0542c-0.07793,0.80742 -0.24463,1.05117 0.0999,1.6623c0.23555,3.26836 -0.7418,10.88818 0.67207,12.99404c-0.32227,0.24873 -0.70986,0.31494 -1.10918,0.42715c-0.95889,-0.4377 -0.65889,-0.24697 -1.2126,-1.34648c-0.42861,-0.78545 -1.97549,-2.99883 -2.86611,-3.27393c-1.26387,-0.38994 -1.59346,0.78955 -2.79785,1.3626c-0.25869,-0.0873 -0.51357,-0.18604 -0.76348,-0.2959c-1.75518,-0.78633 -3.86279,-2.45273 -5.57314,-3.43594c-1.74199,-1.00166 -2.11055,-3.03457 -2.80254,-4.83047c-2.29014,-1.52842 -2.76387,-0.37295 -3.62461,-0.47695c-0.60176,-1.546 -0.0999,-11.68418 -0.21182,-14.58779c-0.02461,-3.32988 0.49424,-10.43086 -0.68701,-13.04854z" fill="#030204"/><path d="M60.69229,171.60938l0.52207,-0.02871c0.5165,0.50273 0.67061,0.82412 1.2917,0.95625l-0.37207,12.0542c-0.07793,0.80742 -0.24463,1.05117 0.0999,1.6623c0.23555,3.26836 -0.7418,10.88818 0.67207,12.99404c-0.32227,0.24873 -0.70986,0.31494 -1.10918,0.42715c-0.95889,-0.4377 -0.65889,-0.24697 -1.2126,-1.34648c0.26924,-1.77949 0.07207,-11.72754 -0.11162,-13.71709l0.14385,-1.24307c-0.22822,-2.49844 0.03779,-9.03252 0.07588,-11.75859z" fill="#d9d9d9"/><path d="M60.47256,184.61104c-2.36367,-0.45791 -16.57559,-8.48994 -17.32324,-10.6166l0.26104,-0.26455c3.85283,0.69082 9.57715,5.2166 13.16543,7.18887c1.34502,0.73945 2.53652,1.88584 4.04062,2.44922z" fill="#d9d9d9"/><path d="M113.99092,229.35293c0.24697,-8.5248 0.27686,-16.89346 0.43535,-25.4127l0.346,-0.28594c1.04561,0.76816 0.97119,2.77002 2.75625,4.57764c1.44229,0.00586 0.53262,-0.99727 2.21279,-1.64854c2.14746,0.76641 9.90762,5.53066 10.98662,7.44082c-0.12744,0.8124 -0.22236,1.12559 0.0085,1.94033c0.97441,0.38115 0.72715,-0.97119 2.06807,-0.9624c0.96768,2.13545 0.34922,8.31592 0.49951,11.24062l-0.02461,1.3916c-0.08936,4.32246 0.0835,8.78379 -0.24609,13.07344c-0.96563,-1.03564 -1.92656,-2.29717 -3.33838,-2.4665c-0.85957,0.479 -0.73271,0.76143 -1.2123,1.90605l-0.51123,0.00791c-2.52393,-1.54658 -6.52646,-3.80068 -8.7123,-5.7873c-0.52617,-0.47812 0.13682,-1.3708 0.28066,-2.4498c-0.61465,-0.67969 -4.43994,-2.11055 -5.54883,-2.56523z" fill="#030204"/><path d="M133.27939,227.63437c-0.09873,-0.02314 -0.19717,-0.04746 -0.29502,-0.07295c-2.65664,-0.70254 -16.90518,-9.00996 -18.11338,-11.0666l0.31875,-0.30264c4.28818,0.15791 14.78496,9.37236 18.11426,10.05059z" fill="#d9d9d9"/><path d="M93.66504,191.40674c1.90664,1.62246 1.65234,4.0582 3.94219,4.69219l0.52031,-0.17812c0.3126,-0.82178 0.27217,-1.39805 0.29033,-2.2626c1.17598,-0.09609 9.10693,5.35898 9.91318,6.59736c-0.04365,0.78252 -0.09521,0.98643 -0.31055,1.74199l0.31816,0.3457c1.04883,-0.39521 1.44521,-0.55312 2.54736,-0.7415c0.5291,0.26338 0.78164,0.2584 0.90762,0.86631c0.71602,3.44648 0.15937,8.51982 0.17842,12.07764l-0.05977,0.52441c0.08408,4.55596 0.08027,9.11309 -0.01113,13.66904c-0.79453,-0.98203 -1.71445,-2.33145 -2.81777,-2.84883c-1.49473,-0.04775 -1.70566,1.14785 -2.12666,1.08691c-1.97959,-0.28535 -6.25898,-3.70166 -8.06191,-4.6623c-0.51973,-0.88447 0.01758,-2.00449 -0.07646,-2.16094c-0.47373,-0.78779 -4.50293,-3.07734 -5.23711,-3.36035l-0.2042,-0.15879c-0.20039,-1.67373 0.13682,-9.98174 0.15205,-12.36855l-0.1708,-1.06611c-0.15674,-2.55498 -0.03926,-9.38584 0.30674,-11.79346z" fill="#030204"/><path d="M93.5291,204.26631c1.17832,0.35742 1.55859,1.26445 2.53564,1.77422c3.88242,2.025 12.04658,8.60156 15.84756,9.02959c0.08408,4.55596 0.08027,9.11309 -0.01113,13.66904c-0.79453,-0.98203 -1.71445,-2.33145 -2.81777,-2.84883c-1.49473,-0.04775 -1.70566,1.14785 -2.12666,1.08691c-1.97959,-0.28535 -6.25898,-3.70166 -8.06191,-4.6623c-0.51973,-0.88447 0.01758,-2.00449 -0.07646,-2.16094c-0.47373,-0.78779 -4.50293,-3.07734 -5.23711,-3.36035l-0.2042,-0.15879c-0.20039,-1.67373 0.13682,-9.98174 0.15205,-12.36855z" fill="#030204"/><path d="M93.3583,203.2002c3.34336,0.24346 15.70078,8.71494 18.61377,11.34551l-0.05977,0.52441c-3.80098,-0.42803 -11.96514,-7.00459 -15.84756,-9.02959c-0.97705,-0.50977 -1.35732,-1.4168 -2.53564,-1.77422z" fill="#d9d9d9"/><path d="M21.9815,161.6291c1.94657,1.87324 16.13432,10.85449 18.1268,11.27373c0.5168,1.41328 0.33545,10.35586 0.33896,12.52236c-0.77344,-0.60352 -2.60713,-2.23506 -3.42422,-2.47471c-1.66465,-0.48838 -0.69814,0.75293 -2.01943,1.38076c-2.38535,-0.36855 -7.38434,-4.03154 -9.1725,-5.77617l-0.23701,-3.2666c-1.11,-0.17695 -2.3746,-0.27246 -3.50446,-0.38438c-0.1686,-4.48301 -0.1389,-8.78672 -0.10813,-13.275z" fill="#030204"/><path d="M21.89687,161.45713c0.1677,-2.3666 0.06322,-11.15713 -0.27296,-13.2958c0.93835,1.10273 2.66801,3.83789 4.01528,4.04385l0.81284,-1.25361c1.54336,-0.32285 6.48674,3.54375 8.0008,4.59902c1.04971,0.73184 1.36934,2.729 2.8793,3.37383c1.2791,-0.73887 2.96924,-0.25137 3.92549,0.8168c1.18125,2.61768 0.6624,9.71865 0.68701,13.04854l-0.99023,-1.36992l-0.39287,-0.1834l-0.50332,0.20537c-4.68223,-3.2083 -9.49365,-6.48604 -14.42171,-9.3252c-1.559,-0.89795 -2.0427,-1.14697 -3.73963,-0.65947z" fill="#030204"/><path d="M37.33213,158.92441c1.2791,-0.73887 2.96924,-0.25137 3.92549,0.8168c1.18125,2.61768 0.6624,9.71865 0.68701,13.04854l-0.99023,-1.36992l-0.39287,-0.1834c-0.70137,-3.58008 0.22676,-8.1375 -0.95215,-11.59043c-0.05508,-0.16143 -1.91367,-0.61934 -2.27725,-0.72158z" fill="#d9d9d9"/><path d="M11.30259,113.73281l0.3636,-1.7042c0.57018,0.25664 1.90849,2.38447 2.46712,2.99121c0.88541,0.96152 2.28337,1.76689 3.40008,2.42285l53.22794,31.96699c9.18105,5.51807 19.0251,11.08652 28.10479,16.67314l34.04502,20.54033c7.96289,4.70244 15.31465,11.55557 25.14141,7.5835c4.74873,-1.91953 8.65898,-4.90459 13.07168,-7.42588c12.56865,-7.11592 24.89092,-14.75361 37.23955,-22.23838l52.28643,-31.45078c4.32949,-2.62441 22.10918,-12.54141 24.24258,-15.40664c0.42744,0.17549 1.2,0.4585 1.55479,0.70957c-2.55703,3.60879 -12.43242,8.53447 -16.69687,11.16357l-36.95479,22.33857c-24.14121,14.68975 -48.41338,29.1627 -72.81416,43.41738c-4.06377,1.5 -6.56426,1.96963 -10.89287,1.72324c-5.09268,-0.82002 -16.46953,-8.68359 -21.11602,-11.48643l-35.28252,-21.19746l-56.48848,-33.90059c-7.3379,-4.45986 -14.86128,-8.84033 -22.17507,-13.35703c-1.52271,-0.94043 -2.06458,-1.75166 -2.7242,-3.36299z" fill="url(#color-6)"/><path d="M38.71113,90.09287c-0.1957,0.96738 -0.62021,1.71621 -1.57412,2.17734c-5.92588,2.86494 -10.8922,6.31904 -16.29196,9.86162c-5.56679,3.65215 -6.00311,2.35459 -10.17129,8.28193c0.07321,1.73643 0.26353,1.85684 0.43154,3.22646c-1.51479,-0.77344 -1.20026,-1.7209 -1.23067,-3.28623c0.25395,-2.14746 3.62927,-5.17617 5.42921,-6.28184c7.66831,-4.71182 15.52058,-9.67061 23.40729,-13.9793z" fill="#a44ddd"/><path d="M101.52188,52.875c0.57451,-0.479 4.73584,-2.81865 5.61533,-3.32783c4.09775,-2.37129 8.29688,-5.0001 12.4585,-7.2293c-3.04775,4.78682 -12.06211,8.23945 -17.08447,10.69717c-0.23496,0.11484 -0.7418,-0.04805 -0.98936,-0.14004z" fill="#a44ddd"/><path d="M133.8917,34.09775c-1.42705,2.85938 -7.13877,6.10547 -10.28262,5.82891c1.59111,-1.17744 8.35488,-4.83018 10.28262,-5.82891z" fill="#a44ddd"/><path d="M284.89277,117.68496c0.0627,-1.46865 -0.23818,-3.66914 1.45869,-4.02187c1.18213,0.90498 0.87305,2.25791 0.72217,3.5499c-0.1582,0.33662 -0.40137,0.93047 -0.62607,1.18154c-0.35479,-0.25107 -1.12734,-0.53408 -1.55479,-0.70957z" fill="#a44ddd"/><path d="M104.87432,94.7502c0.32988,-0.9041 0.72861,-1.45547 1.54687,-1.98896c6.58418,-4.2917 13.60254,-7.99834 20.44922,-11.85908c4.95732,-2.7123 9.7459,-6.02344 14.84443,-8.44043c2.45918,-1.00928 4.46719,-2.3499 7.0998,-1.03125c12.42656,6.22471 24.62402,13.42207 36.61201,20.48496c1.00752,0.59355 2.56758,1.94941 2.99766,3.03955l0.15967,-0.45234l0.4248,0.21357c0.43447,2.0417 0.22705,4.17246 -0.1248,6.20947c-2.61855,3.03193 -3.4292,2.55527 -5.45977,4.39512c0.89941,0.70723 4.18359,3.37793 4.99072,3.77109c1.83691,0.52383 1.17598,5.88486 -0.08408,7.31953c-1.53926,1.3084 -3.67969,3.68408 -5.29189,3.94893c2.12578,1.42002 3.86104,2.50635 5.57373,4.45078l0.34189,-0.05332c0.55166,0.93779 0.32227,4.28232 0.27393,5.51396c-2.68066,2.97012 -10.89756,6.93486 -15.52529,9.66299c-7.45693,4.396 -18.00908,11.91563 -26.29453,14.64844c-1.96699,0.64893 -8.58398,-3.27656 -10.81611,-4.51494c-10.35059,-5.53096 -19.00254,-11.2875 -29.3499,-16.79297c-0.83232,-1.36025 -1.53926,-1.30137 -2.01826,-2.73545l0.74883,-0.54639c0.30059,-0.48867 0.53496,-1.15723 0.75029,-1.70068c-5.08564,-3.56572 0.73359,-6.84258 3.93047,-8.17529c1.74697,1.48389 3.49131,2.92295 5.55908,3.93398c-0.06504,-0.95361 -4.89346,-3.55693 -6.2874,-5.17002l0.27246,-0.37559c1.61514,-0.04131 5.26699,3.51943 8.81865,4.00488c-1.06494,-0.97295 -8.92236,-4.90049 -10.6002,-5.57988c-1.11797,-0.63281 -1.9292,-1.60107 -3.04277,-1.55625l-0.5543,0.64102c-1.70977,-6.73271 -1.36465,-8.39502 4.63477,-11.7832c-4.20146,-4.20762 -5.27461,-1.90869 -5.30771,-9.33809l0.4459,-0.42979z" fill="#fafaf9"/><path d="M109.4543,104.23242l0.8417,0.7292c3.38438,2.15479 11.36279,7.15137 14.87021,8.89072c3.68818,2.68682 15.36094,8.98447 19.9251,10.99629c1.36348,0.53643 3.37061,0.25605 4.64297,-0.38555c10.91865,-5.50752 21.61699,-12.66064 32.24561,-18.55898l1.44434,-0.5833c0.89941,0.70723 4.18359,3.37793 4.99072,3.77109c1.83691,0.52383 1.17598,5.88486 -0.08408,7.31953c-1.53926,1.3084 -3.67969,3.68408 -5.29189,3.94893c2.12578,1.42002 3.86104,2.50635 5.57373,4.45078l0.34189,-0.05332c0.55166,0.93779 0.32227,4.28232 0.27393,5.51396c-2.68066,2.97012 -10.89756,6.93486 -15.52529,9.66299c-7.45693,4.396 -18.00908,11.91563 -26.29453,14.64844c-1.96699,0.64893 -8.58398,-3.27656 -10.81611,-4.51494c-10.35059,-5.53096 -19.00254,-11.2875 -29.3499,-16.79297c-0.83232,-1.36025 -1.53926,-1.30137 -2.01826,-2.73545l0.74883,-0.54639c0.30059,-0.48867 0.53496,-1.15723 0.75029,-1.70068c-5.08564,-3.56572 0.73359,-6.84258 3.93047,-8.17529c1.74697,1.48389 3.49131,2.92295 5.55908,3.93398c-0.06504,-0.95361 -4.89346,-3.55693 -6.2874,-5.17002l0.27246,-0.37559c1.61514,-0.04131 5.26699,3.51943 8.81865,4.00488c-1.06494,-0.97295 -8.92236,-4.90049 -10.6002,-5.57988c-1.11797,-0.63281 -1.9292,-1.60107 -3.04277,-1.55625l-0.5543,0.64102c-1.70977,-6.73271 -1.36465,-8.39502 4.63477,-11.7832z" fill="#fafaf9"/><path d="M106.72354,128.29277c-5.08564,-3.56572 0.73359,-6.84258 3.93047,-8.17529c1.74697,1.48389 3.49131,2.92295 5.55908,3.93398c5.40645,3.25898 10.8542,6.44912 16.3415,9.57012c3.72217,2.16328 7.53135,4.73672 11.53506,6.33516c1.13672,0.45381 2.3792,0.87861 3.60791,0.57715c3.11367,-0.76377 25.09307,-13.64297 28.0541,-15.89766c0.83848,-0.2877 6.18721,-3.61084 7.2873,-4.27588c2.12578,1.42002 3.86104,2.50635 5.57373,4.45078l0.34189,-0.05332c0.55166,0.93779 0.32227,4.28232 0.27393,5.51396c-2.68066,2.97012 -10.89756,6.93486 -15.52529,9.66299c-7.45693,4.396 -18.00908,11.91563 -26.29453,14.64844c-1.96699,0.64893 -8.58398,-3.27656 -10.81611,-4.51494c-10.35059,-5.53096 -19.00254,-11.2875 -29.3499,-16.79297c-0.83232,-1.36025 -1.53926,-1.30137 -2.01826,-2.73545l0.74883,-0.54639c0.30059,-0.48867 0.53496,-1.15723 0.75029,-1.70068z" fill="#fafaf9"/><path d="M188.6127,124.81113l0.34189,-0.05332c0.55166,0.93779 0.32227,4.28232 0.27393,5.51396c-2.68066,2.97012 -10.89756,6.93486 -15.52529,9.66299c-7.45693,4.396 -18.00908,11.91563 -26.29453,14.64844c-1.96699,0.64893 -8.58398,-3.27656 -10.81611,-4.51494l-0.96211,-1.70859c5.44131,2.77617 9.33662,5.88193 15.57275,3.23672c-0.63691,-0.93135 -1.74346,-0.69521 -3.09873,-1.55068c4.304,-1.25977 12.00996,-6.64512 16.13262,-8.98096c7.81904,-4.42969 15.45762,-9.41924 23.24473,-13.86738c0.54639,-0.63018 0.82383,-1.58174 1.13086,-2.38623z" fill="#9846b4"/><path d="M188.6127,124.81113l0.34189,-0.05332c0.55166,0.93779 0.32227,4.28232 0.27393,5.51396c-2.68066,2.97012 -10.89756,6.93486 -15.52529,9.66299c-7.45693,4.396 -18.00908,11.91563 -26.29453,14.64844c-1.96699,0.64893 -8.58398,-3.27656 -10.81611,-4.51494l-0.96211,-1.70859c5.44131,2.77617 9.33662,5.88193 15.57275,3.23672c3.75381,-1.32979 12.33691,-7.21143 15.87158,-9.34805c3.64395,-2.20312 19.15078,-10.32803 20.96104,-13.25889c0.05771,-1.09893 0.07324,-0.74121 -0.554,-1.79209c0.54639,-0.63018 0.82383,-1.58174 1.13086,-2.38623z" fill="#2b035a"/><path d="M105.97324,129.99346c1.66875,1.08516 3.65596,2.45303 5.34785,3.43857c3.86572,3.3627 13.43877,7.79473 18.40693,10.92773c1.15312,0.8584 5.36836,3.41748 5.90244,3.9999l0.96211,1.70859c-10.35059,-5.53096 -19.00254,-11.2875 -29.3499,-16.79297c-0.83232,-1.36025 -1.53926,-1.30137 -2.01826,-2.73545z" fill="#44136d"/><path d="M129.72803,144.35977c0.9082,-0.97471 1.41299,-0.82207 2.70117,-0.99844c5.01094,3.09229 9.76611,6.76113 15.67529,6.68437c1.35527,0.85547 2.46182,0.61934 3.09873,1.55068c-6.23613,2.64521 -10.13145,-0.46055 -15.57275,-3.23672c-0.53408,-0.58242 -4.74932,-3.1415 -5.90244,-3.9999z" fill="#a25bc2"/><path d="M111.32109,133.43203c1.63887,0.35566 2.71934,0.68613 4.29697,-0.00645c5.34492,3.20537 11.71582,6.64512 16.81113,9.93574c-1.28818,0.17637 -1.79297,0.02373 -2.70117,0.99844c-4.96816,-3.13301 -14.54121,-7.56504 -18.40693,-10.92773z" fill="url(#color-7)"/><path d="M106.72354,128.29277c2.95312,1.54014 6.12891,3.26777 8.89453,5.13281c-1.57764,0.69258 -2.65811,0.36211 -4.29697,0.00645c-1.69189,-0.98555 -3.6791,-2.35342 -5.34785,-3.43857c0.30059,-0.48867 0.53496,-1.15723 0.75029,-1.70068z" fill="#a25bc2"/><path d="M146.17002,135.01113c5.74717,-1.76045 16.40391,-8.58896 21.71162,-11.66924c5.53623,-3.21299 11.27813,-6.60352 17.04287,-9.4541l0.14678,0.0624c0.67881,0.28154 0.95186,0.33691 1.66963,0.48018l0.36035,0.79893l1.22959,1.18213c-1.53926,1.3084 -3.67969,3.68408 -5.29189,3.94893c-1.1001,0.66504 -6.44883,3.98818 -7.2873,4.27588c-2.96104,2.25469 -24.94043,15.13389 -28.0541,15.89766c-1.22871,0.30146 -2.47119,-0.12334 -3.60791,-0.57715c-4.00371,-1.59844 -7.81289,-4.17188 -11.53506,-6.33516c-5.4873,-3.121 -10.93506,-6.31113 -16.3415,-9.57012c-0.06504,-0.95361 -4.89346,-3.55693 -6.2874,-5.17002l0.27246,-0.37559c1.61514,-0.04131 5.26699,3.51943 8.81865,4.00488l0.88506,0.62197c2.34961,-0.49365 2.87578,0.39639 4.75283,-0.14648c6.34395,3.86191 14.85938,8.90039 21.51533,12.0249z" fill="#9846b4"/><path d="M187.10127,115.2293l1.22959,1.18213c-1.53926,1.3084 -3.67969,3.68408 -5.29189,3.94893c-1.1001,0.66504 -6.44883,3.98818 -7.2873,4.27588c-2.96104,2.25469 -24.94043,15.13389 -28.0541,15.89766c-1.22871,0.30146 -2.47119,-0.12334 -3.60791,-0.57715c-4.00371,-1.59844 -7.81289,-4.17188 -11.53506,-6.33516c-5.4873,-3.121 -10.93506,-6.31113 -16.3415,-9.57012c-0.06504,-0.95361 -4.89346,-3.55693 -6.2874,-5.17002l0.27246,-0.37559c1.61514,-0.04131 5.26699,3.51943 8.81865,4.00488l0.88506,0.62197c7.78389,4.76953 16.07197,9.41836 24.02666,13.96377c0.83525,0.47754 3.09287,0.99727 4.16953,0.74766c5.77822,-2.86143 12.22529,-6.61934 17.92266,-9.59473c2.73105,-1.42646 5.3751,-3.88213 8.10146,-5.05547c4.29844,-2.72813 9.21035,-4.7376 12.9791,-7.96465z" fill="#631e8a"/><path d="M187.10127,115.2293l1.22959,1.18213c-1.53926,1.3084 -3.67969,3.68408 -5.29189,3.94893c-1.1001,0.66504 -6.44883,3.98818 -7.2873,4.27588l-0.2625,-0.40107c1.33242,-0.81475 6.27217,-3.6416 6.71367,-4.84805c-1.72559,0.46904 -5.57637,3.01875 -7.50937,4.0166l-0.57129,-0.20977c4.29844,-2.72813 9.21035,-4.7376 12.9791,-7.96465z" fill="#44136d"/><path d="M109.5041,114.49453c4.76982,2.43691 10.53193,5.71553 15.15059,8.4917c-1.87705,0.54287 -2.40322,-0.34717 -4.75283,0.14648l-0.88506,-0.62197c-1.06494,-0.97295 -8.92236,-4.90049 -10.6002,-5.57988c-0.56689,-0.79131 -0.71455,-0.72979 -0.75908,-1.60811c0.74854,-0.57041 0.92783,-0.41953 1.72705,-0.77432z" fill="#a25bc2"/><path d="M109.4543,104.23242l0.8417,0.7292c-5.10439,3.12422 -7.71328,5.73984 -0.79189,9.53291l-0.11953,0.05391c-0.79922,0.35479 -0.97852,0.20391 -1.72705,0.77432c0.04453,0.87832 0.19219,0.8168 0.75908,1.60811c-1.11797,-0.63281 -1.9292,-1.60107 -3.04277,-1.55625l-0.5543,0.64102c-1.70977,-6.73271 -1.36465,-8.39502 4.63477,-11.7832z" fill="#9846b4"/><path d="M188.41494,109.09189c1.83691,0.52383 1.17598,5.88486 -0.08408,7.31953l-1.22959,-1.18213l-0.36035,-0.79893c-0.71777,-0.14326 -0.99082,-0.19863 -1.66963,-0.48018l-0.14678,-0.0624c2.10146,-1.53047 2.9502,-2.32529 3.49043,-4.7959z" fill="#631e8a"/><path d="M188.42432,94.95498l0.15967,-0.45234l0.4248,0.21357c0.43447,2.0417 0.22705,4.17246 -0.1248,6.20947c-2.61855,3.03193 -3.4292,2.55527 -5.45977,4.39512l-1.44434,0.5833c-10.62861,5.89834 -21.32695,13.05146 -32.24561,18.55898c-1.27236,0.6416 -3.27949,0.92197 -4.64297,0.38555c-4.56416,-2.01182 -16.23691,-8.30947 -19.9251,-10.99629c-3.50742,-1.73936 -11.48584,-6.73594 -14.87021,-8.89072l-0.8417,-0.7292c-4.20146,-4.20762 -5.27461,-1.90869 -5.30771,-9.33809l0.4459,-0.42979l0.28184,0.28564c0.34482,0.66064 0.67002,1.42617 1.19883,1.92188c8.53564,5.30918 17.17354,10.45225 25.9084,15.42656c4.19854,2.40498 10.25947,6.26104 14.64463,7.60898c7.30752,-2.03936 22.57207,-12.47109 30.05654,-16.47305c1.69424,-0.90586 9.54785,-5.43281 10.84424,-6.36357z" fill="url(#color-8)"/><path d="M188.42432,94.95498l0.15967,-0.45234l0.4248,0.21357c0.43447,2.0417 0.22705,4.17246 -0.1248,6.20947c-2.61855,3.03193 -3.4292,2.55527 -5.45977,4.39512l-1.44434,0.5833c-10.62861,5.89834 -21.32695,13.05146 -32.24561,18.55898c-1.27236,0.6416 -3.27949,0.92197 -4.64297,0.38555c-4.56416,-2.01182 -16.23691,-8.30947 -19.9251,-10.99629c-3.50742,-1.73936 -11.48584,-6.73594 -14.87021,-8.89072l-0.8417,-0.7292c-4.20146,-4.20762 -5.27461,-1.90869 -5.30771,-9.33809l0.4459,-0.42979l0.28184,0.28564c0.34482,0.66064 0.67002,1.42617 1.19883,1.92188c-0.20771,0.77842 -0.58008,1.4543 -0.01289,2.10117c4.00811,4.57295 11.5459,7.58027 16.70244,10.9998c0.89063,0.59063 3.1292,1.76045 3.57656,2.23711c3.08643,1.63887 18.03574,10.77041 19.84688,10.80645c1.77715,0.03516 3.70049,-0.73213 5.30215,-1.45547c5.72461,-2.58545 11.03965,-6.16318 16.46045,-9.31084c4.84834,-2.81484 15.35859,-8.26348 19.11211,-11.85176c0.68203,-1.5334 0.71484,-1.69248 0.46611,-3.32754z" fill="#631e8a"/><path d="M109.4543,104.23242c-4.20146,-4.20762 -5.27461,-1.90869 -5.30771,-9.33809l0.4459,-0.42979l0.28184,0.28564c0.34482,0.66064 0.67002,1.42617 1.19883,1.92188c-0.20771,0.77842 -0.58008,1.4543 -0.01289,2.10117c4.00811,4.57295 11.5459,7.58027 16.70244,10.9998c0.89063,0.59063 3.1292,1.76045 3.57656,2.23711l-0.37617,0.15967c-2.43809,-1.04502 -13.60371,-8.33174 -14.8875,-8.13838c3.11719,4.19385 12.65273,7.14697 14.09063,9.8209c-3.50742,-1.73936 -11.48584,-6.73594 -14.87021,-8.89072z" fill="#8730b4"/><path d="M104.81953,116.01563l0.5543,-0.64102c1.11357,-0.04482 1.9248,0.92344 3.04277,1.55625c1.67783,0.67939 9.53525,4.60693 10.6002,5.57988c-3.55166,-0.48545 -7.20352,-4.04619 -8.81865,-4.00488l-0.27246,0.37559c1.39395,1.61309 6.22236,4.21641 6.2874,5.17002c-2.06777,-1.01104 -3.81211,-2.4501 -5.55908,-3.93398c-3.19688,1.33271 -9.01611,4.60957 -3.93047,8.17529c-0.21533,0.54346 -0.44971,1.21201 -0.75029,1.70068l-0.74883,0.54639c0.479,1.43408 1.18594,1.3752 2.01826,2.73545c-0.78516,-0.32959 -1.49063,-0.82383 -2.06865,-1.44902c-1.81055,-1.94941 -1.43818,-5.475 -1.3418,-7.96055c0.88711,-1.44023 4.39688,-4.47217 4.5249,-4.73818c-1.25449,-0.93311 -2.63379,-1.82666 -3.5376,-3.11191z" fill="#8730b4"/></g></svg></svg>