<svg id="svg" version="1.1" viewBox="0 0 300 300" width="300" height="300" xmlns="http://www.w3.org/2000/svg"><svg xmlns="http://www.w3.org/2000/svg"><defs><clipPath id="clip-1"><rect x="0" y="0" transform="scale(0.29297,0.29297)" width="1024" height="1024" fill="none"/></clipPath><linearGradient x1="197.61064" y1="180.04102" x2="192.97236" y2="192.18955" gradientUnits="userSpaceOnUse" id="color-1"><stop offset="0" stop-color="#600000"/><stop offset="1" stop-color="#b70200"/></linearGradient><linearGradient x1="185.86494" y1="162.01787" x2="193.15576" y2="147.64775" gradientUnits="userSpaceOnUse" id="color-2"><stop offset="0" stop-color="#610000"/><stop offset="1" stop-color="#b40300"/></linearGradient><linearGradient x1="137.28779" y1="183.09023" x2="173.00273" y2="167.8708" gradientUnits="userSpaceOnUse" id="color-3"><stop offset="0" stop-color="#817c7c"/><stop offset="1" stop-color="#9e9b9f"/></linearGradient><linearGradient x1="234.92461" y1="268.8627" x2="241.41533" y2="277.8208" gradientUnits="userSpaceOnUse" id="color-4"><stop offset="0" stop-color="#8d9294"/><stop offset="1" stop-color="#b3b2b4"/></linearGradient><linearGradient x1="234.09639" y1="227.41816" x2="229.22021" y2="244.38398" gradientUnits="userSpaceOnUse" id="color-5"><stop offset="0" stop-color="#440000"/><stop offset="1" stop-color="#820000"/></linearGradient><linearGradient x1="146.60332" y1="210.13066" x2="149.13838" y2="257.44541" gradientUnits="userSpaceOnUse" id="color-6"><stop offset="0" stop-color="#cc1903"/><stop offset="1" stop-color="#f52404"/></linearGradient><linearGradient x1="75.33428" y1="124.3207" x2="74.81162" y2="76.07959" gradientUnits="userSpaceOnUse" id="color-7"><stop offset="0" stop-color="#660000"/><stop offset="1" stop-color="#b10200"/></linearGradient><linearGradient x1="250.36729" y1="181.52402" x2="251.54414" y2="188.53535" gradientUnits="userSpaceOnUse" id="color-8"><stop offset="0" stop-color="#4a0000"/><stop offset="1" stop-color="#750000"/></linearGradient></defs><g clip-path="url(#clip-1)" fill="none" fill-rule="nonzero" stroke="none" stroke-width="1" stroke-linecap="butt" stroke-linejoin="miter" stroke-miterlimit="10" stroke-dasharray="" stroke-dashoffset="0" font-family="none" font-weight="none" font-size="none" text-anchor="none" style="mix-blend-mode: normal"><path d="M167.61475,56.70352l0.89824,0.88594c0.79482,0.61582 8.35752,2.596 10.13672,3.5291c5.6877,2.98242 11.59219,5.82656 17.39004,8.59922l10.71035,5.1457c2.14922,1.00898 7.06406,2.5207 7.65615,5.23799c0.22002,1.01045 -0.3167,0.86719 0.40869,1.83545c1.07021,-0.39932 1.70479,-0.74297 2.71318,-1.2832c8.74102,2.23564 19.67051,8.91855 28.12441,12.62227c4.32158,1.89346 14.43516,6.08789 16.61895,9.79863c0.05508,0.09375 0.10957,0.18809 0.16318,0.28242c0.68467,3.64365 0.83555,32.64287 -0.41016,34.51318c-0.53496,0.80332 -1.87266,1.4748 -2.66748,2.05166l0.60381,1.34443c-0.54785,1.00811 -1.41475,1.48477 -2.36191,2.14219c-3.40488,2.80342 -10.66787,5.9332 -14.99414,9.00117c-0.00879,0.42539 -0.03164,2.15273 -0.09697,2.47969c-0.42656,-0.48867 -0.45029,-0.78662 -0.56895,-1.4165c-0.02256,1.07139 -0.13037,2.18965 -0.16992,3.27393c-0.42832,10.86035 -0.25547,20.83506 -0.03691,31.65937c-0.28799,1.20586 -0.24814,0.87832 -1.33477,1.84248c-1.97402,0.89209 -16.2624,8.92939 -17.07363,9.91318c-1.4666,1.0333 -1.23135,0.4916 -2.28516,1.97871l0.29385,0.21064c1.07461,-0.24785 2.75918,-0.78193 3.69844,-0.93047l-3.89678,2.39736c0.62695,-0.046 1.25273,-0.11104 1.87588,-0.19512c0.33018,0.34629 0.58477,0.61934 0.8874,0.99053l0.40107,-0.18486c5.23564,-2.43428 10.60693,-5.78877 15.76758,-8.45801c0.6917,-0.35771 1.10449,-0.79746 1.37256,-1.53457l0.68994,-1.04971c0.27979,0.06914 0.61934,0.15322 1.01924,0.25195c5.59922,-1.81289 14.42842,-8.08096 19.51523,-10.70859c0.24961,4.49326 1.04473,32.35635 -0.74502,34.4124c-0.46582,0.53525 -1.47539,1.22402 -1.6957,1.85654l0.44736,0.68701c1.66318,0.92695 1.69131,1.40596 1.95996,3.2373c0.4207,5.45654 0.23291,12.37764 0.33223,17.97012c0.05918,3.33223 0.29414,10.78828 -0.00469,13.88262c-0.28857,0.80947 -0.83525,2.49727 -1.17598,3.21035c-0.43857,1.0248 -0.79219,2.01973 -1.52549,2.86084c1.3084,0.17285 1.53047,0.19629 2.56172,1.04561c-1.25215,1.21641 -2.1249,0.95449 -3.45674,2.1917c-3.13916,2.91504 -6.35596,5.43809 -9.62432,8.23213c-4.76162,4.07139 -11.17207,6.23555 -16.64414,9.12041c-3.13271,1.65146 -13.43672,4.17715 -16.27529,1.75049c-1.78096,-0.63896 -5.55703,-0.42393 -8.38037,-1.28027c-4.09629,-1.24219 -7.01074,-3.99639 -10.20205,-5.26992c-4.27031,-1.70449 -9.72393,-3.12627 -14.18936,-4.74229c-5.62939,-1.97959 -7.18477,-4.21523 -11.76592,-6.32432l-34.81143,-15.70752c-1.92451,-0.87568 -4.13643,-1.32686 -6.23613,-2.28369c-6.31465,-2.87754 -11.59482,-6.72041 -17.74658,-9.74414c-5.35283,-2.63115 -10.31426,-3.53467 -15.62959,-6.17988c-3.52646,-1.52461 -6.64424,-3.94102 -9.98408,-5.73457c-10.97109,-5.89072 -22.2876,-11.29307 -33.12246,-17.37832c-3.45674,-1.94121 -9.71074,-4.21934 -12.50391,-6.8332c-1.45781,-1.01162 -7.29521,-6.81826 -7.97432,-8.52187c0.26719,-1.21406 0.31758,-0.95947 1.31426,-1.99043c-0.72246,-10.18652 -0.22822,-21.01025 -0.16436,-31.24863c0.01113,-1.78213 0.29473,-2.73633 1.62305,-3.8877c0.17109,-0.08232 0.88477,-0.59092 1.08545,-0.72891l-0.12773,-1.07842l-1.20117,-0.9958c-2.71523,-2.58516 -1.39658,-30.07148 -1.09512,-35.33291c0.02783,-0.4875 0.44092,-1.43203 0.69697,-1.90049l1.2,-0.7834c1.55303,1.52402 2.84238,2.23477 4.83076,3.13682c0.67178,-0.31494 0.60908,-0.70518 1.66816,-1.24395c3.64746,1.35117 9.57422,4.0582 12.96357,6.03428c0.02021,-1.46543 0.00674,-3.14912 0.07119,-4.59551c0.64922,2.14248 0.05273,4.04795 0.81094,5.85088l0.45645,-0.41455c-0.48691,-1.07666 -0.32637,-0.81299 -0.1166,-2.15713c0.34541,1.38926 0.21855,1.89639 1.46543,2.62354c2.06865,1.20615 4.45693,2.01738 6.61934,2.97656c3.82705,1.69775 10.45078,5.26465 13.4584,8.06631c-0.10254,-1.96963 0.0542,-5.31064 0.06123,-7.38955c-0.00732,-4.99658 0.01523,-9.99316 0.06797,-14.98916c2.05928,-1.78799 7.00166,-4.77803 9.41484,-6.22529c6.6,2.51631 13.21787,4.87031 20.38652,4.84746c3.37822,0.04746 5.65225,-0.33662 8.95254,-1.01514c1.49238,-0.26924 4.90986,-1.04209 6.18926,-1.69717c-0.10166,-0.39697 0.18311,-2.15273 0.2502,-2.65576c-0.04453,-7.89785 -0.13008,-16.67139 0.22119,-24.53027c0.80215,0.18135 0.97061,0.18398 1.66553,0.59326c0.21563,-1.88379 4.23398,-4.44375 5.746,-4.27061c2.72139,-1.42061 5.54502,-3.17021 8.28604,-4.66465c8.00977,-4.27793 15.9123,-8.75361 23.70059,-13.42266l-0.52061,-1.14609c0.94102,-0.8458 2.29863,-1.71768 3.36387,-2.44863z" fill="#aaa9ac"/><path d="M143.51719,124.97988l1.65029,0.80156c0.21387,1.95937 0.95303,1.72646 2.28164,3.01084c-1.68311,-0.41689 -1.79326,-0.77754 -3.08027,0.62578c-0.9085,-0.73447 -1.77773,-1.51875 -2.65225,-2.29365c0.65537,-0.37471 1.36992,-1.5082 1.80059,-2.14453z" fill="#730000"/><path d="M167.61475,56.70352l0.89824,0.88594c0.79482,0.61582 8.35752,2.596 10.13672,3.5291c5.6877,2.98242 11.59219,5.82656 17.39004,8.59922l10.71035,5.1457c2.14922,1.00898 7.06406,2.5207 7.65615,5.23799c0.22002,1.01045 -0.3167,0.86719 0.40869,1.83545c1.07021,-0.39932 1.70479,-0.74297 2.71318,-1.2832c8.74102,2.23564 19.67051,8.91855 28.12441,12.62227c4.32158,1.89346 14.43516,6.08789 16.61895,9.79863c0.05508,0.09375 0.10957,0.18809 0.16318,0.28242c0.68467,3.64365 0.83555,32.64287 -0.41016,34.51318c-0.53496,0.80332 -1.87266,1.4748 -2.66748,2.05166l0.60381,1.34443c-0.54785,1.00811 -1.41475,1.48477 -2.36191,2.14219c-3.40488,2.80342 -10.66787,5.9332 -14.99414,9.00117c-0.00879,0.42539 -0.03164,2.15273 -0.09697,2.47969c-0.42656,-0.48867 -0.45029,-0.78662 -0.56895,-1.4165c-0.02256,1.07139 -0.13037,2.18965 -0.16992,3.27393c-0.42832,10.86035 -0.25547,20.83506 -0.03691,31.65937c-0.28799,1.20586 -0.24814,0.87832 -1.33477,1.84248c-1.97402,0.89209 -16.2624,8.92939 -17.07363,9.91318c-1.4666,1.0333 -1.23135,0.4916 -2.28516,1.97871l0.29385,0.21064c1.07461,-0.24785 2.75918,-0.78193 3.69844,-0.93047l-3.89678,2.39736c0.62695,-0.046 1.25273,-0.11104 1.87588,-0.19512c0.33018,0.34629 0.58477,0.61934 0.8874,0.99053c-1.12998,0.49541 -1.58555,0.63779 -2.46123,1.49268l-0.24023,0.69902l-1.17217,0.36885l-0.41982,-0.38613c-0.97998,-1.64385 -3.44561,-2.42754 -5.24033,-3.3123c-5.42607,-1.76074 -14.22832,-7.51143 -19.78037,-8.84209l-0.45322,-0.15322c-1.43818,-1.27939 -4.22959,-2.2626 -5.80957,-3.1251c-4.0793,-2.22773 -18.19629,-7.72969 -20.12754,-10.99922l-0.28066,-0.36709l0.38291,-0.29004c1.11562,0.53291 1.34648,0.62783 2.59219,0.66357l0.28359,0.00615l-3.35889,-1.904c-0.09961,-0.04512 1.69453,0.35186 1.61484,0.36416l-1.3084,-0.88184c0.08701,-0.61465 -0.02783,-0.33047 0.44238,-0.83613l0.68027,0.26426l0.24111,-0.33223l-0.44883,-0.52031l-2.86113,-0.97295c-0.11807,-0.97998 2.0458,-7.35088 2.12871,-9.08613c0.29209,-6.11777 -1.30811,-10.88965 -2.37627,-16.79355c-0.40986,-2.26436 0.06328,-5.35986 -0.61113,-6.89648l-0.76699,-0.98906l-1.02861,0.23496c-2.30889,-1.58643 -6.36621,-3.50361 -9.14414,-5.2875c-2.72051,-1.04824 -7.79385,-5.35576 -10.00488,-7.31367c1.28701,-1.40332 1.39717,-1.04268 3.08027,-0.62578c-1.32861,-1.28437 -2.06777,-1.05146 -2.28164,-3.01084l-1.65029,-0.80156c-0.43066,0.63633 -1.14521,1.76982 -1.80059,2.14453c-2.81133,-2.39033 -6.10693,-6.2751 -8.56787,-9.08525l-6.27891,-7.46924c-0.79014,-0.81357 -0.90117,-0.91113 -1.96787,-1.321c-0.10166,-0.39697 0.18311,-2.15273 0.2502,-2.65576c-0.04453,-7.89785 -0.13008,-16.67139 0.22119,-24.53027c0.80215,0.18135 0.97061,0.18398 1.66553,0.59326c0.21563,-1.88379 4.23398,-4.44375 5.746,-4.27061c2.72139,-1.42061 5.54502,-3.17021 8.28604,-4.66465c8.00977,-4.27793 15.9123,-8.75361 23.70059,-13.42266l-0.52061,-1.14609c0.94102,-0.8458 2.29863,-1.71768 3.36387,-2.44863z" fill="#f92907"/><path d="M167.61475,56.70352l0.89824,0.88594c0.79482,0.61582 8.35752,2.596 10.13672,3.5291c5.6877,2.98242 11.59219,5.82656 17.39004,8.59922l10.71035,5.1457c2.14922,1.00898 7.06406,2.5207 7.65615,5.23799c0.22002,1.01045 -0.3167,0.86719 0.40869,1.83545c1.07021,-0.39932 1.70479,-0.74297 2.71318,-1.2832c8.74102,2.23564 19.67051,8.91855 28.12441,12.62227c4.32158,1.89346 14.43516,6.08789 16.61895,9.79863c0.05508,0.09375 0.10957,0.18809 0.16318,0.28242c0.68467,3.64365 0.83555,32.64287 -0.41016,34.51318c-0.53496,0.80332 -1.87266,1.4748 -2.66748,2.05166l0.60381,1.34443c-0.54785,1.00811 -1.41475,1.48477 -2.36191,2.14219c-3.40488,2.80342 -10.66787,5.9332 -14.99414,9.00117c-0.00879,0.42539 -0.03164,2.15273 -0.09697,2.47969c-0.42656,-0.48867 -0.45029,-0.78662 -0.56895,-1.4165c-0.02256,1.07139 -0.13037,2.18965 -0.16992,3.27393l-0.3123,-0.49893c-5.19521,1.83838 -8.94053,4.28379 -13.73232,6.88389c-0.93281,0.50625 -4.73701,2.65752 -5.51719,2.8623c-0.75322,-0.48164 -1.27383,-0.97031 -1.94033,-1.55947c0.97822,-0.22705 1.1502,-0.28008 2.06689,-0.73682c-0.38672,-0.04541 -0.81973,-0.24639 -1.19121,-0.3917c-0.45264,-1.07725 -0.19189,-1.23926 0.0375,-2.60361c0.00176,-10.7666 0.54551,-22.89639 -0.06035,-33.59766l0.33691,-0.93721c-1.13789,-2.35928 -14.74805,-8.14482 -17.84092,-9.62344c-8.1041,-3.87451 -16.26357,-7.95879 -24.5376,-11.45713c-1.18447,-0.50039 -0.83496,-1.72852 -2.47412,-2.43984c0.2707,-0.31934 2.10029,-1.40713 2.75537,-1.91221c-1.11797,-0.35625 -4.39277,2.36689 -5.30625,2.8708l-0.69346,-0.44033c0.78838,-1.64502 5.58135,-3.04658 6.15879,-4.28145c-1.85801,0.38203 -4.67461,2.49287 -6.44121,3.31992c-0.93486,-0.9375 -9.89502,-5.04404 -11.56318,-5.85205l-23.58281,-11.37627c-1.70332,-0.84141 -7.08545,-3.95889 -8.44336,-4.38164c0.45586,-0.22354 2.73926,-1.83105 3.29707,-2.2084c2.72139,-1.42061 5.54502,-3.17021 8.28604,-4.66465c8.00977,-4.27793 15.9123,-8.75361 23.70059,-13.42266l-0.52061,-1.14609c0.94102,-0.8458 2.29863,-1.71768 3.36387,-2.44863z" fill="#fe7340"/><path d="M262.43467,103.35703c0.68467,3.64365 0.83555,32.64287 -0.41016,34.51318c-0.53496,0.80332 -1.87266,1.4748 -2.66748,2.05166l0.60381,1.34443c-0.54785,1.00811 -1.41475,1.48477 -2.36191,2.14219c-3.40488,2.80342 -10.66787,5.9332 -14.99414,9.00117c-0.00879,0.42539 -0.03164,2.15273 -0.09697,2.47969c-0.42656,-0.48867 -0.45029,-0.78662 -0.56895,-1.4165c-0.02256,1.07139 -0.13037,2.18965 -0.16992,3.27393l-0.3123,-0.49893c-5.19521,1.83838 -8.94053,4.28379 -13.73232,6.88389c-0.93281,0.50625 -4.73701,2.65752 -5.51719,2.8623c-0.75322,-0.48164 -1.27383,-0.97031 -1.94033,-1.55947c0.97822,-0.22705 1.1502,-0.28008 2.06689,-0.73682c-0.38672,-0.04541 -0.81973,-0.24639 -1.19121,-0.3917c-0.45264,-1.07725 -0.19189,-1.23926 0.0375,-2.60361c0.00176,-10.7666 0.54551,-22.89639 -0.06035,-33.59766l0.33691,-0.93721c0.41895,-0.06475 37.49824,-20.93115 40.97813,-22.81055z" fill="#bd1200"/><path d="M255.92666,141.99668c1.28203,-0.69141 1.91719,-1.67168 3.16963,-2.47734l0.26074,0.40254l0.60381,1.34443c-0.54785,1.00811 -1.41475,1.48477 -2.36191,2.14219c-3.40488,2.80342 -10.66787,5.9332 -14.99414,9.00117c-0.00879,0.42539 -0.03164,2.15273 -0.09697,2.47969c-0.42656,-0.48867 -0.45029,-0.78662 -0.56895,-1.4165c-0.02256,1.07139 -0.13037,2.18965 -0.16992,3.27393l-0.3123,-0.49893c-5.19521,1.83838 -8.94053,4.28379 -13.73232,6.88389c-0.93281,0.50625 -4.73701,2.65752 -5.51719,2.8623c-0.75322,-0.48164 -1.27383,-0.97031 -1.94033,-1.55947c0.97822,-0.22705 1.1502,-0.28008 2.06689,-0.73682c-0.38672,-0.04541 -0.81973,-0.24639 -1.19121,-0.3917c-0.45264,-1.07725 -0.19189,-1.23926 0.0375,-2.60361c2.86787,-1.02803 8.22715,-3.95039 10.9916,-5.46826c8.00684,-4.39629 15.65771,-8.95723 23.75508,-13.2375z" fill="#730000"/><path d="M222.33369,163.69775c3.25693,-1.61279 16.21816,-10.05527 18.63223,-10.04121c0.63105,0.9457 0.42598,1.26475 0.49072,2.59131c-5.19521,1.83838 -8.94053,4.28379 -13.73232,6.88389c-0.93281,0.50625 -4.73701,2.65752 -5.51719,2.8623c-0.75322,-0.48164 -1.27383,-0.97031 -1.94033,-1.55947c0.97822,-0.22705 1.1502,-0.28008 2.06689,-0.73682z" fill="#f92907"/><path d="M255.92666,141.99668c1.28203,-0.69141 1.91719,-1.67168 3.16963,-2.47734l0.26074,0.40254l0.60381,1.34443c-0.54785,1.00811 -1.41475,1.48477 -2.36191,2.14219l-0.13506,-0.25342c0.10313,-0.7667 0.2543,-0.73008 0.81064,-1.38574c-0.8332,-0.96152 -0.62607,0.59268 -2.34785,0.22734z" fill="#3a0200"/><path d="M179.51836,98.88398c4.61191,-2.62822 32.37832,-18.53936 34.36611,-18.54463c-0.66885,1.42148 -5.12256,3.83408 -6.58857,4.61777c-9.41807,5.03496 -18.60938,10.61309 -27.93662,15.77783c-1.11797,-0.35625 -4.39277,2.36689 -5.30625,2.8708l-0.69346,-0.44033c0.78838,-1.64502 5.58135,-3.04658 6.15879,-4.28145z" fill="#e82203"/><path d="M167.61475,56.70352l0.89824,0.88594c-1.00342,1.50234 -2.11318,1.88525 -3.7415,2.70879l-0.52061,-1.14609c0.94102,-0.8458 2.29863,-1.71768 3.36387,-2.44863z" fill="#fe5925"/><path d="M194.22979,167.47646c0.48574,-3.32607 -0.4957,-12.14004 1.77422,-14.11758l0.84932,0.25049c7.91865,3.43535 15.51006,7.48477 23.41348,10.8252c0.6665,0.58916 1.18711,1.07783 1.94033,1.55947c0.78018,-0.20479 4.58437,-2.35605 5.51719,-2.8623c4.7918,-2.6001 8.53711,-5.04551 13.73232,-6.88389l0.3123,0.49893c-0.42832,10.86035 -0.25547,20.83506 -0.03691,31.65937c-0.28799,1.20586 -0.24814,0.87832 -1.33477,1.84248c-1.97402,0.89209 -16.2624,8.92939 -17.07363,9.91318c-1.4666,1.0333 -1.23135,0.4916 -2.28516,1.97871l0.29385,0.21064c1.07461,-0.24785 2.75918,-0.78193 3.69844,-0.93047l-3.89678,2.39736c0.62695,-0.046 1.25273,-0.11104 1.87588,-0.19512c0.33018,0.34629 0.58477,0.61934 0.8874,0.99053c-1.12998,0.49541 -1.58555,0.63779 -2.46123,1.49268l-0.24023,0.69902l-1.17217,0.36885l-0.41982,-0.38613c-0.97998,-1.64385 -3.44561,-2.42754 -5.24033,-3.3123c-5.42607,-1.76074 -14.22832,-7.51143 -19.78037,-8.84209l-0.45322,-0.15322c-1.43818,-1.27939 -4.22959,-2.2626 -5.80957,-3.1251c-4.0793,-2.22773 -18.19629,-7.72969 -20.12754,-10.99922l-0.28066,-0.36709l0.38291,-0.29004c1.11562,0.53291 1.34648,0.62783 2.59219,0.66357l0.28359,0.00615l-3.35889,-1.904c-0.09961,-0.04512 1.69453,0.35186 1.61484,0.36416l-1.3084,-0.88184c0.08701,-0.61465 -0.02783,-0.33047 0.44238,-0.83613l0.68027,0.26426l0.24111,-0.33223c1.10771,0.1875 4.92041,2.21162 6.21973,2.77471c5.77324,2.50166 11.44512,4.98369 17.04082,7.87031l0.29648,-10.83604c-0.05684,-2.90918 0.0252,-5.8793 0.07354,-8.79316l0.1623,-0.7916l0.39053,-0.22002l-0.00967,-0.83877c0.14385,0.43506 0.26338,1.02861 0.57393,1.26826z" fill="#f92907"/><path d="M222.20713,165.99404c0.78018,-0.20479 4.58437,-2.35605 5.51719,-2.8623c4.7918,-2.6001 8.53711,-5.04551 13.73232,-6.88389l0.3123,0.49893c-0.42832,10.86035 -0.25547,20.83506 -0.03691,31.65937c-0.28799,1.20586 -0.24814,0.87832 -1.33477,1.84248c-1.97402,0.89209 -16.2624,8.92939 -17.07363,9.91318l-2.07334,-0.08027c0.24756,-2.30332 -0.02021,-6.84551 -0.00527,-9.35742l0.05215,-23.74775z" fill="#bd1200"/><path d="M169.48213,177.04277c1.10771,0.1875 4.92041,2.21162 6.21973,2.77471c5.77324,2.50166 11.44512,4.98369 17.04082,7.87031l0.29648,-10.83604l0.4834,1.43584c0.55547,0.26602 0.30732,0.28418 0.76582,0.14004c0.11133,3.43447 0.06533,6.75117 0.0252,10.18418c4.34355,2.12988 8.83301,3.92168 13.26768,5.90684c3.43711,1.53838 8.18789,4.42148 11.45684,5.60742l2.21221,-0.04453l2.07334,0.08027c-1.4666,1.0333 -1.23135,0.4916 -2.28516,1.97871l0.29385,0.21064c1.07461,-0.24785 2.75918,-0.78193 3.69844,-0.93047l-3.89678,2.39736c0.62695,-0.046 1.25273,-0.11104 1.87588,-0.19512c0.33018,0.34629 0.58477,0.61934 0.8874,0.99053c-1.12998,0.49541 -1.58555,0.63779 -2.46123,1.49268l-0.24023,0.69902l-1.17217,0.36885l-0.41982,-0.38613c-0.97998,-1.64385 -3.44561,-2.42754 -5.24033,-3.3123c-5.42607,-1.76074 -14.22832,-7.51143 -19.78037,-8.84209l-0.45322,-0.15322c-1.43818,-1.27939 -4.22959,-2.2626 -5.80957,-3.1251c-4.0793,-2.22773 -18.19629,-7.72969 -20.12754,-10.99922l-0.28066,-0.36709l0.38291,-0.29004c1.11562,0.53291 1.34648,0.62783 2.59219,0.66357l0.28359,0.00615l-3.35889,-1.904c-0.09961,-0.04512 1.69453,0.35186 1.61484,0.36416l-1.3084,-0.88184c0.08701,-0.61465 -0.02783,-0.33047 0.44238,-0.83613l0.68027,0.26426z" fill="url(#color-1)"/><path d="M168.19277,180.35596l-0.28066,-0.36709l0.38291,-0.29004c1.11562,0.53291 1.34648,0.62783 2.59219,0.66357l0.28359,0.00615c5.10469,2.75801 45.44795,21.4916 45.98174,22.15195c0.90732,0.3375 3.14209,1.26064 3.98145,1.29756c0.62695,-0.046 1.25273,-0.11104 1.87588,-0.19512c0.33018,0.34629 0.58477,0.61934 0.8874,0.99053c-1.12998,0.49541 -1.58555,0.63779 -2.46123,1.49268l-0.24023,0.69902l-1.17217,0.36885l-0.41982,-0.38613c-0.97998,-1.64385 -3.44561,-2.42754 -5.24033,-3.3123c-5.42607,-1.76074 -14.22832,-7.51143 -19.78037,-8.84209l-0.45322,-0.15322c-1.43818,-1.27939 -4.22959,-2.2626 -5.80957,-3.1251c-4.0793,-2.22773 -18.19629,-7.72969 -20.12754,-10.99922z" fill="#fe5925"/><path d="M221.29717,166.97637l-0.05215,23.74775c-0.01494,2.51191 0.25283,7.0541 0.00527,9.35742l-2.21221,0.04453c-0.74795,-1.60371 -0.10693,-31.43437 0.6627,-33.20566c1.07051,0.33984 0.66621,0.36387 1.59639,0.05596z" fill="#fe5925"/><path d="M196.85332,153.60938c7.91865,3.43535 15.51006,7.48477 23.41348,10.8252c0.6665,0.58916 1.18711,1.07783 1.94033,1.55947l-0.90996,0.98232c-0.93018,0.30791 -0.52588,0.28389 -1.59639,-0.05596c-3.3627,-2.62969 -19.13203,-8.16211 -23.32236,-11.75127c-0.47754,-0.40928 -0.38965,-0.63779 -0.34189,-1.13672z" fill="#fe7340"/><path d="M193.1127,168.05859l0.1623,-0.7916l0.39053,-0.22002l-0.00967,-0.83877c0.14385,0.43506 0.26338,1.02861 0.57393,1.26826c0.03896,3.45498 0.17402,7.54395 0.05859,10.95117c-0.4585,0.14414 -0.21035,0.12598 -0.76582,-0.14004l-0.4834,-1.43584c-0.05684,-2.90918 0.0252,-5.8793 0.07354,-8.79316z" fill="#600000"/><path d="M144.36885,129.41807c1.28701,-1.40332 1.39717,-1.04268 3.08027,-0.62578c4.16396,1.78506 9.1207,4.71592 13.26035,6.82969c1.28027,0.66211 2.62822,1.38955 3.92373,2.00361c0.63018,0.35625 3.83496,1.8999 4.15195,2.20518c3.0958,1.529 23.94521,11.16592 24.39727,12.58389c0.13799,0.43271 0.04189,0.98057 -0.00088,1.42676c-0.35186,3.67939 -0.1207,10.38281 -0.06885,14.21719c-0.04834,2.91387 -0.13037,5.88398 -0.07354,8.79316l-0.29648,10.83604c-5.5957,-2.88662 -11.26758,-5.36865 -17.04082,-7.87031c-1.29932,-0.56309 -5.11201,-2.58721 -6.21973,-2.77471l-0.44883,-0.52031l-2.86113,-0.97295c-0.11807,-0.97998 2.0458,-7.35088 2.12871,-9.08613c0.29209,-6.11777 -1.30811,-10.88965 -2.37627,-16.79355c-0.40986,-2.26436 0.06328,-5.35986 -0.61113,-6.89648l-0.76699,-0.98906l-1.02861,0.23496c-2.30889,-1.58643 -6.36621,-3.50361 -9.14414,-5.2875c-2.72051,-1.04824 -7.79385,-5.35576 -10.00488,-7.31367z" fill="#f92907"/><path d="M154.37373,136.73174c5.28281,-0.46816 7.67783,3.83027 12.25957,5.10703l-0.104,0.64395l-0.50098,0.03955c3.78369,4.64502 4.41152,27.57305 2.0001,32.67773c0.5042,0.41455 0.69727,0.75088 1.00488,1.32246l-2.86113,-0.97295c-0.11807,-0.97998 2.0458,-7.35088 2.12871,-9.08613c0.29209,-6.11777 -1.30811,-10.88965 -2.37627,-16.79355c-0.40986,-2.26436 0.06328,-5.35986 -0.61113,-6.89648l-0.76699,-0.98906l-1.02861,0.23496c-2.30889,-1.58643 -6.36621,-3.50361 -9.14414,-5.2875z" fill="#e82203"/><path d="M168.78516,139.83076c3.0958,1.529 23.94521,11.16592 24.39727,12.58389c0.13799,0.43271 0.04189,0.98057 -0.00088,1.42676c-1.51611,0.02139 -22.48652,-10.6875 -26.23652,-12.23613l-0.04277,-0.18076c1.02393,-0.51006 3.4459,1.98662 4.68223,0.39375c-1.02158,-0.14297 -2.89277,-0.87451 -3.4957,-1.66582z" fill="#fe7340"/><path d="M163.246,134.53301c1.24395,0.41865 2.20342,0.80508 3.41221,1.32158c1.25918,0.51006 3.19277,1.59229 4.3626,1.45459c0.5833,-0.6501 0.39727,-0.37061 0.6085,-1.36934c0.19453,0.95537 0.06768,1.29023 0.68555,1.754l0.76406,-0.19951c0.14883,0.64307 0.16172,1.41357 0.82266,1.69541c10.91426,4.65176 21.36621,9.946 31.90898,15.37061c4.46631,2.29834 9.59531,3.88916 14.12168,6.20508l1.24775,-0.06299c-0.22939,1.36436 -0.49014,1.52637 -0.0375,2.60361c0.37148,0.14531 0.80449,0.34629 1.19121,0.3917c-0.9167,0.45674 -1.08867,0.50977 -2.06689,0.73682c-7.90342,-3.34043 -15.49482,-7.38984 -23.41348,-10.8252l-0.84932,-0.25049c-2.26992,1.97754 -1.28848,10.7915 -1.77422,14.11758c-0.31055,-0.23965 -0.43008,-0.8332 -0.57393,-1.26826l0.00967,0.83877l-0.39053,0.22002l-0.1623,0.7916c-0.05186,-3.83437 -0.28301,-10.53779 0.06885,-14.21719c0.04277,-0.44619 0.13887,-0.99404 0.00088,-1.42676c-0.45205,-1.41797 -21.30146,-11.05488 -24.39727,-12.58389c-0.31699,-0.30527 -3.52178,-1.84893 -4.15195,-2.20518c-1.29551,-0.61406 -2.64346,-1.3415 -3.92373,-2.00361c0.92637,-0.0791 1.69922,-0.62373 2.53652,-1.08896z" fill="url(#color-2)"/><path d="M163.246,134.53301c1.24395,0.41865 2.20342,0.80508 3.41221,1.32158l-0.23057,0.60439c-0.46582,0.13301 -0.72305,-0.03984 -1.18066,-0.22441l-0.5376,0.2625l0.78574,0.63076c-0.39961,0.3375 -0.36885,0.33691 -0.86191,0.49775c-1.29551,-0.61406 -2.64346,-1.3415 -3.92373,-2.00361c0.92637,-0.0791 1.69922,-0.62373 2.53652,-1.08896z" fill="#730000"/><path d="M176.60391,102.64717c1.63916,0.71133 1.28965,1.93945 2.47412,2.43984c8.27402,3.49834 16.4335,7.58262 24.5376,11.45713c3.09287,1.47861 16.70303,7.26416 17.84092,9.62344l-0.33691,0.93721c-0.45469,0.05713 -1.16953,0.1708 -1.60283,0.18633c-2.37686,-3.30146 -39.29883,-19.40566 -45.89707,-22.78271c0.92754,-0.62051 2.02441,-1.26504 2.98418,-1.86123z" fill="#fecfaf"/><path d="M129.48779,80.59395c1.35791,0.42275 6.74004,3.54023 8.44336,4.38164l23.58281,11.37627c1.66816,0.80801 10.62832,4.91455 11.56318,5.85205c-0.78662,0.96709 -0.58828,1.05205 -1.56885,1.2832c-4.16133,-2.16182 -43.41973,-20.81953 -43.71035,-21.25869c0.40811,-0.96797 0.68613,-0.9167 1.68984,-1.63447z" fill="#fecfaf"/><path d="M219.5168,127.29111c0.4333,-0.01553 1.14814,-0.1292 1.60283,-0.18633c0.60586,10.70127 0.06211,22.83105 0.06035,33.59766l-1.24775,0.06299c-0.79688,-0.89326 -1.11211,-1.83955 -1.0248,-3.00996c0.34688,-4.65264 -0.92256,-27.50918 0.60938,-30.46436z" fill="#fe5925"/><path d="M171.6293,135.93984c0.04512,-4.55127 -0.23877,-28.54512 0.52031,-31.21113l0.29385,0.07969c0.97354,3.01934 0.95918,28.08428 0.63545,32.68594l-0.76406,0.19951c-0.61787,-0.46377 -0.49102,-0.79863 -0.68555,-1.754z" fill="#950100"/><path d="M145.16748,125.78145c6.08232,2.66719 11.92441,5.96045 18.07852,8.75156c-0.8373,0.46523 -1.61016,1.00986 -2.53652,1.08896c-4.13965,-2.11377 -9.09639,-5.04463 -13.26035,-6.82969c-1.32861,-1.28437 -2.06777,-1.05146 -2.28164,-3.01084z" fill="#600000"/><path d="M125.37334,82.06289c0.80215,0.18135 0.97061,0.18398 1.66553,0.59326c-0.85342,4.1127 -0.02725,17.07246 -0.71016,18.61201l-0.24668,-0.29502c-0.09521,2.17178 0.1708,3.53057 -0.83613,5.43867l-0.09375,0.18135c-0.04453,-7.89785 -0.13008,-16.67139 0.22119,-24.53027z" fill="#730000"/><path d="M133.14873,118.03916l0.87539,-0.30498l1.55596,0.9293c2.10674,2.54707 4.77451,5.13193 7.93711,6.31641c-0.43066,0.63633 -1.14521,1.76982 -1.80059,2.14453c-2.81133,-2.39033 -6.10693,-6.2751 -8.56787,-9.08525z" fill="#600000"/><path d="M127.32393,109.88027c2.77881,1.55391 6.36973,6.11807 8.25615,8.7832l-1.55596,-0.9293l-0.87539,0.30498l-6.27891,-7.46924z" fill="#950100"/><path d="M125.15215,106.59316l0.09375,-0.18135c1.00693,-1.90811 0.74092,-3.26689 0.83613,-5.43867l0.24668,0.29502c-0.09053,2.69209 -0.67061,6.62461 0.99521,8.61211l-0.4541,0.68965c-0.79014,-0.81357 -0.90117,-0.91113 -1.96787,-1.321c-0.10166,-0.39697 0.18311,-2.15273 0.2502,-2.65576z" fill="#3a0200"/><path d="M89.37363,107.11377c6.6,2.51631 13.21787,4.87031 20.38652,4.84746c3.37822,0.04746 5.65225,-0.33662 8.95254,-1.01514c1.49238,-0.26924 4.90986,-1.04209 6.18926,-1.69717c1.0667,0.40986 1.17773,0.50742 1.96787,1.321l6.27891,7.46924c2.46094,2.81016 5.75654,6.69492 8.56787,9.08525c0.87451,0.7749 1.74375,1.55918 2.65225,2.29365c2.21104,1.95791 7.28438,6.26543 10.00488,7.31367c2.77793,1.78389 6.83525,3.70107 9.14414,5.2875l1.02861,-0.23496l0.76699,0.98906c0.67441,1.53662 0.20127,4.63213 0.61113,6.89648c1.06816,5.90391 2.66836,10.67578 2.37627,16.79355c-0.08291,1.73525 -2.24678,8.10615 -2.12871,9.08613l2.86113,0.97295l0.44883,0.52031l-0.24111,0.33223l-0.68027,-0.26426c-0.47021,0.50566 -0.35537,0.22148 -0.44238,0.83613l1.3084,0.88184c0.07969,-0.0123 -1.71445,-0.40928 -1.61484,-0.36416c-0.85371,-0.39727 -2.09385,-1.12002 -2.96074,-0.93604c-0.40898,0.5332 -0.40254,0.49717 -0.43945,1.16396c1.09072,5.9335 -3.63105,19.55889 -9.03398,22.54189c-1.70156,2.10645 -2.91943,3.40371 -4.86533,5.2998c-0.83379,0.69785 -1.77422,1.52373 -2.6417,2.15186l-1.93857,0.75967c-9.42305,7.51934 -13.96553,9.50625 -25.77803,12.41338c-8.64609,-4.18564 -25.91982,-29.14102 -30.85576,-38.27549c-0.47285,-1.01133 -0.98262,-1.96348 -1.50469,-2.9499l-1.52578,-3.45937c-3.32637,-9.44912 -5.95898,-19.1543 -6.1708,-29.22715c-0.06094,-2.90068 -0.10254,-5.7999 -0.27187,-8.69648c0.0624,-1.0377 0.07148,-1.33564 -0.07441,-2.36865l0.07881,-1.16426c-0.10254,-1.96963 0.0542,-5.31064 0.06123,-7.38955c-0.00732,-4.99658 0.01523,-9.99316 0.06797,-14.98916c2.05928,-1.78799 7.00166,-4.77803 9.41484,-6.22529z" fill="#e9eaec"/><path d="M163.51787,142.01924l1.02861,-0.23496l0.76699,0.98906c0.67441,1.53662 0.20127,4.63213 0.61113,6.89648c1.06816,5.90391 2.66836,10.67578 2.37627,16.79355c-0.08291,1.73525 -2.24678,8.10615 -2.12871,9.08613l2.86113,0.97295l0.44883,0.52031l-0.24111,0.33223l-0.68027,-0.26426c-0.47021,0.50566 -0.35537,0.22148 -0.44238,0.83613l1.3084,0.88184c0.07969,-0.0123 -1.71445,-0.40928 -1.61484,-0.36416c-0.85371,-0.39727 -2.09385,-1.12002 -2.96074,-0.93604c-0.40898,0.5332 -0.40254,0.49717 -0.43945,1.16396c1.09072,5.9335 -3.63105,19.55889 -9.03398,22.54189c-1.70156,2.10645 -2.91943,3.40371 -4.86533,5.2998c-0.83379,0.69785 -1.77422,1.52373 -2.6417,2.15186l-1.93857,0.75967c2.92031,-4.46602 6.00527,-9.04658 7.96113,-14.0165c1.54131,-3.95215 2.56113,-8.08828 3.03311,-12.30381c0.61641,-5.07363 0.4585,-10.74814 0.45937,-15.92021c-0.02139,-7.23516 0.00557,-14.47031 0.08057,-21.70488c1.64033,-0.779 4.63916,-1.99717 5.96719,-2.97539z" fill="url(#color-3)"/><path d="M163.51787,142.01924l1.02861,-0.23496l0.76699,0.98906c0.67441,1.53662 0.20127,4.63213 0.61113,6.89648c1.06816,5.90391 2.66836,10.67578 2.37627,16.79355c-0.08291,1.73525 -2.24678,8.10615 -2.12871,9.08613l2.86113,0.97295l0.44883,0.52031l-0.24111,0.33223l-0.68027,-0.26426c-0.47021,0.50566 -0.35537,0.22148 -0.44238,0.83613l1.3084,0.88184c0.07969,-0.0123 -1.71445,-0.40928 -1.61484,-0.36416c-0.85371,-0.39727 -2.09385,-1.12002 -2.96074,-0.93604c-0.40898,0.5332 -0.40254,0.49717 -0.43945,1.16396c1.09072,5.9335 -3.63105,19.55889 -9.03398,22.54189c9.15439,-12.60498 8.57783,-27.15205 8.35723,-41.80518c-0.07822,-5.1873 0.23057,-11.89775 -0.30146,-16.9043z" fill="#3a0200"/><path d="M165.31348,142.77334c0.67441,1.53662 0.20127,4.63213 0.61113,6.89648c1.06816,5.90391 2.66836,10.67578 2.37627,16.79355c-0.08291,1.73525 -2.24678,8.10615 -2.12871,9.08613c-0.53643,-0.08437 -0.67588,-0.23496 -1.1124,-0.54375c-0.44648,-1.37988 -0.10723,-29.91445 0.25371,-32.23242z" fill="#bd1200"/><path d="M86.71816,121.02217l3.16289,1.0957c10.06699,2.01533 18.69932,3.16846 28.59639,-0.78428c3.21592,3.89209 6.37412,7.94561 9.79922,11.63994c6.76611,7.29814 14.09619,11.51895 22.46924,16.48359c0.13975,5.89834 0.20654,11.79814 0.20068,17.69795c0.03428,8.7293 0.31992,16.96787 -3.45557,25.11299c-5.25205,11.33145 -14.88633,17.45684 -26.77559,20.34199c-3.03516,-1.56445 -8.39912,-6.82764 -10.3374,-9.50713c-0.16143,-0.15381 -0.31992,-0.31055 -0.47578,-0.46992c-3.61406,-3.68232 -7.10361,-9.18076 -9.85371,-13.546c-15.47021,-24.55635 -13.58496,-40.85391 -13.33037,-68.06484z" fill="#f92907"/><path d="M86.71816,121.02217l3.16289,1.0957c-0.69697,0.21826 -1.09219,0.35273 -1.75488,0.65742c-0.28447,6.30879 0.3123,13.06201 0.08643,19.32393c-0.64043,17.75215 3.65596,32.52568 13.23398,47.49609c0.78398,1.2252 8.93145,13.50029 8.93145,13.50762c-0.16143,-0.15381 -0.31992,-0.31055 -0.47578,-0.46992c-3.61406,-3.68232 -7.10361,-9.18076 -9.85371,-13.546c-15.47021,-24.55635 -13.58496,-40.85391 -13.33037,-68.06484z" fill="#3a0200"/><path d="M111.33662,188.3291c-8.57021,-6.01904 -11.59424,-17.91475 -8.71875,-27.67061c0.66621,-2.26055 2.1668,-6.72627 3.96943,-8.27139c2.08682,0.09375 1.47129,4.09307 2.93965,5.296c2.6332,-1.93828 6.01758,-16.80088 7.44639,-17.62617c4.86123,1.49326 8.31182,18.44736 8.88252,23.20781c0.09785,0.81563 0.15205,1.3043 0.79629,1.7165c1.81465,-0.53203 1.27471,-1.89258 2.446,-3.71689l0.51064,-0.03369c0.95098,0.69961 1.44639,1.84688 2.00801,2.89834l0.8874,-0.61143c0.81592,0.38232 1.74258,3.09141 2.15742,4.10625c3.69316,9.03193 4.05293,23.62441 -6.3835,28.28232c-1.46367,0.65332 -5.92588,0.96797 -7.18447,-0.17607c1.34033,0.13066 4.17363,0.52588 5.3291,0.15117l-0.27451,-0.39463c-5.50986,-0.65098 -3.59648,0.81123 -9.47168,-2.59072l0.14473,-0.32344c-1.95762,-1.42031 -3.61143,-2.71143 -5.48467,-4.24336z" fill="#fe9a00"/><path d="M110.7416,176.16064c1.18799,-1.88086 5.5292,-9.56367 6.26426,-10.46631l0.44971,0.15937c2.64229,5.68389 8.05547,14.69355 7.83721,20.72139c-0.02637,0.7207 -2.06426,6.55107 -2.45684,7.75166l-0.64746,0.46494c-1.75781,-0.554 -3.66563,-1.46602 -5.36719,-2.21924c-1.95762,-1.42031 -3.61143,-2.71143 -5.48467,-4.24336c0.37705,-1.29199 -0.74004,-9.01641 -0.59502,-12.16846z" fill="#fee500"/><path d="M131.6168,164.129l0.8874,-0.61143c0.81592,0.38232 1.74258,3.09141 2.15742,4.10625c3.69316,9.03193 4.05293,23.62441 -6.3835,28.28232c-1.46367,0.65332 -5.92588,0.96797 -7.18447,-0.17607c1.34033,0.13066 4.17363,0.52588 5.3291,0.15117l-0.27451,-0.39463c-5.50986,-0.65098 -3.59648,0.81123 -9.47168,-2.59072l0.14473,-0.32344c1.70156,0.75322 3.60938,1.66523 5.36719,2.21924c5.57725,0.28652 9.56104,-2.30098 11.72197,-7.48945c2.83799,-6.81357 0.34863,-16.71504 -2.29365,-23.17324z" fill="#950100"/><path d="M37.60195,115.44053c1.55303,1.52402 2.84238,2.23477 4.83076,3.13682c0.67178,-0.31494 0.60908,-0.70518 1.66816,-1.24395c3.64746,1.35117 9.57422,4.0582 12.96357,6.03428c0.02021,-1.46543 0.00674,-3.14912 0.07119,-4.59551c0.64922,2.14248 0.05273,4.04795 0.81094,5.85088l0.45645,-0.41455c-0.48691,-1.07666 -0.32637,-0.81299 -0.1166,-2.15713c0.34541,1.38926 0.21855,1.89639 1.46543,2.62354c2.06865,1.20615 4.45693,2.01738 6.61934,2.97656c3.82705,1.69775 10.45078,5.26465 13.4584,8.06631l-0.07881,1.16426c0.1459,1.03301 0.13682,1.33096 0.07441,2.36865c0.16934,2.89658 0.21094,5.7958 0.27187,8.69648c0.21182,10.07285 2.84443,19.77803 6.1708,29.22715l1.52578,3.45937c0.52207,0.98643 1.03184,1.93857 1.50469,2.9499c-2.86084,0.27979 -8.48818,-3.15059 -9.94512,-2.81514c-0.40342,2.18232 -0.32051,5.84238 -0.29385,8.15361l0.22383,15.21973c0.0498,2.91914 0.30674,6.65801 -0.10752,9.46494c-0.37793,-0.12891 -1.83867,-0.92197 -2.2793,-1.1499c-9.68701,-4.30137 -19.45107,-9.41543 -29.07129,-13.89814c-2.71641,-1.26592 -8.86523,-5.09736 -11.3625,-5.5626c-0.11924,-0.38936 -0.646,-1.21055 -0.87773,-1.59932c-0.72246,-10.18652 -0.22822,-21.01025 -0.16436,-31.24863c0.01113,-1.78213 0.29473,-2.73633 1.62305,-3.8877c0.17109,-0.08232 0.88477,-0.59092 1.08545,-0.72891l-0.12773,-1.07842l-1.20117,-0.9958c-2.71523,-2.58516 -1.39658,-30.07148 -1.09512,-35.33291c0.02783,-0.4875 0.44092,-1.43203 0.69697,-1.90049z" fill="#f92907"/><path d="M38.129,155.53154c1.70859,1.32012 2.7249,1.87236 4.62656,2.91592c3.81885,2.22686 35.42959,17.29072 35.68389,18.14092c0.10693,0.35771 0.01904,0.63721 -0.0832,0.98291c-1.16074,4.74756 0.26426,33.58535 -0.85371,34.93359l-0.60615,-0.04805c-9.68701,-4.30137 -19.45107,-9.41543 -29.07129,-13.89814c-2.71641,-1.26592 -8.86523,-5.09736 -11.3625,-5.5626c-0.11924,-0.38936 -0.646,-1.21055 -0.87773,-1.59932c-0.72246,-10.18652 -0.22822,-21.01025 -0.16436,-31.24863c0.01113,-1.78213 0.29473,-2.73633 1.62305,-3.8877c0.17109,-0.08232 0.88477,-0.59092 1.08545,-0.72891z" fill="#e82203"/><path d="M38.129,155.53154c1.70859,1.32012 2.7249,1.87236 4.62656,2.91592c3.81885,2.22686 35.42959,17.29072 35.68389,18.14092c0.10693,0.35771 0.01904,0.63721 -0.0832,0.98291c-3.58154,0.03984 -6.08672,-1.78213 -9.25898,-3.37002l-12.03896,-5.98125c-4.19238,-2.06426 -8.39707,-4.10332 -12.61406,-6.11689c-1.9957,-0.93193 -4.0623,-1.83779 -6.07764,-2.73135c-0.86162,-0.38203 -1.06963,-2.07861 -1.32305,-3.11133c0.17109,-0.08232 0.88477,-0.59092 1.08545,-0.72891z" fill="#fe5925"/><path d="M57.19131,143.39561c0.01816,-2.4252 -0.38027,-13.10303 1.00781,-14.39033c0.19922,0.27656 0.12949,14.27871 0.05068,15.8584c0.05479,6.22412 0.075,12.44883 0.06064,18.67324c6.3668,2.85029 12.64424,5.41904 18.64687,8.96777c1.60664,0.9498 7.68076,4.62041 9.31055,4.66963l1.52578,3.45937c0.52207,0.98643 1.03184,1.93857 1.50469,2.9499c-2.86084,0.27979 -8.48818,-3.15059 -9.94512,-2.81514c-0.40342,2.18232 -0.32051,5.84238 -0.29385,8.15361l0.22383,15.21973c0.0498,2.91914 0.30674,6.65801 -0.10752,9.46494c-0.37793,-0.12891 -1.83867,-0.92197 -2.2793,-1.1499l0.60615,0.04805c1.11797,-1.34824 -0.30703,-30.18604 0.85371,-34.93359c0.10225,-0.3457 0.19014,-0.6252 0.0832,-0.98291c-0.2543,-0.8502 -31.86504,-15.91406 -35.68389,-18.14092c0.70664,-0.0627 1.46338,-0.65244 2.10146,-1.05439c4.16953,1.62129 8.2626,3.43301 12.26602,5.42988c0.18926,-6.48105 -0.07969,-12.93809 0.06826,-19.42734z" fill="#950100"/><path d="M79.35322,180.76846c0.0627,-1.00576 -0.01201,-1.92803 0.63691,-2.66309c2.78496,-0.87656 4.28584,2.59834 7.80352,2.52832c0.52207,0.98643 1.03184,1.93857 1.50469,2.9499c-2.86084,0.27979 -8.48818,-3.15059 -9.94512,-2.81514z" fill="#f92907"/><path d="M57.19131,143.39561c0.01816,-2.4252 -0.38027,-13.10303 1.00781,-14.39033c0.19922,0.27656 0.12949,14.27871 0.05068,15.8584c-0.72451,4.30957 -0.06357,12.66064 -0.5543,17.77939c-0.4623,-5.21338 0.24082,-14.43809 -0.46172,-18.98555z" fill="#730000"/><path d="M44.10088,117.3334c3.64746,1.35117 9.57422,4.0582 12.96357,6.03428c0.02021,-1.46543 0.00674,-3.14912 0.07119,-4.59551c0.64922,2.14248 0.05273,4.04795 0.81094,5.85088l0.45645,-0.41455c-0.48691,-1.07666 -0.32637,-0.81299 -0.1166,-2.15713c0.34541,1.38926 0.21855,1.89639 1.46543,2.62354c2.06865,1.20615 4.45693,2.01738 6.61934,2.97656c3.82705,1.69775 10.45078,5.26465 13.4584,8.06631l-0.07881,1.16426c-1.81963,-0.2543 -18.25898,-9.14824 -21.57832,-10.6377c-3.23145,-1.33945 -13.12354,-5.92646 -15.73975,-7.66699c0.67178,-0.31494 0.60908,-0.70518 1.66816,-1.24395z" fill="#950100"/><path d="M37.60195,115.44053c1.55303,1.52402 2.84238,2.23477 4.83076,3.13682c2.61621,1.74053 12.5083,6.32754 15.73975,7.66699l-0.40078,2.44482c-0.74736,0.00439 -19.97109,-9.31582 -20.71348,-10.17012c0.10488,-0.90498 -0.26338,-1.4502 -0.65625,-2.29512z" fill="#fe5925"/><path d="M58.17246,126.24434c3.31934,1.48945 19.75869,10.3834 21.57832,10.6377c0.1459,1.03301 0.13682,1.33096 0.07441,2.36865c-0.90176,-0.32988 -3.87188,-1.72471 -4.47188,-1.85332c-3.84316,-0.82441 -15.15117,-8.42109 -17.58164,-8.7082z" fill="#fe5925"/><path d="M38.00127,154.45313c2.09238,0.1623 4.56504,2.07627 6.85576,2.93994c-0.63809,0.40195 -1.39482,0.9917 -2.10146,1.05439c-1.90166,-1.04355 -2.91797,-1.5958 -4.62656,-2.91592z" fill="#730000"/><path d="M262.66289,182.92969c0.24961,4.49326 1.04473,32.35635 -0.74502,34.4124c-0.46582,0.53525 -1.47539,1.22402 -1.6957,1.85654l0.44736,0.68701c1.66318,0.92695 1.69131,1.40596 1.95996,3.2373c0.4207,5.45654 0.23291,12.37764 0.33223,17.97012c0.05918,3.33223 0.29414,10.78828 -0.00469,13.88262c-0.28857,0.80947 -0.83525,2.49727 -1.17598,3.21035c-0.43857,1.0248 -0.79219,2.01973 -1.52549,2.86084c1.3084,0.17285 1.53047,0.19629 2.56172,1.04561c-1.25215,1.21641 -2.1249,0.95449 -3.45674,2.1917c-3.13916,2.91504 -6.35596,5.43809 -9.62432,8.23213c-4.76162,4.07139 -11.17207,6.23555 -16.64414,9.12041c-3.13271,1.65146 -13.43672,4.17715 -16.27529,1.75049c-0.98291,-1.2542 -1.82842,-0.60703 -2.76123,-2.79463c1.43789,0.28799 5.0751,1.09834 6.36387,1.14404l-1.04414,-0.80215v-0.23818c1.15605,-0.08818 1.61367,-0.16406 2.74219,-0.4333c-1.07109,-0.2127 -2.35576,-0.11221 -4.01338,-0.46172c0.15527,0.00469 0.31084,0.0085 0.46641,0.01172c1.07842,0.0208 1.72881,0.15234 2.45508,-0.54434c0.68203,-4.47949 0.19482,-13.27588 0.24434,-17.9707c0.02607,-2.44453 0.20947,-9.86455 -0.06797,-11.8834c-0.09258,-1.57207 -0.34512,-2.8585 0.65889,-4.03711l0.03867,-0.45176c-0.46934,-0.8458 -1.91338,-1.5665 -2.80312,-2.10381c0.94717,0.08613 1.84307,0.09023 2.79258,0.10488l-0.7377,-0.41162l-0.15908,-0.66475c0.41484,-0.8124 1.4165,-1.27734 2.22422,-1.76133l-2.1082,0.23818c0.3457,-1.98662 0.22354,-9.37998 0.14414,-11.79551c-0.21709,-6.59004 0.46729,-15.4002 -0.05654,-21.72656l0.24023,-0.69902c0.87568,-0.85488 1.33125,-0.99727 2.46123,-1.49268l0.40107,-0.18486c5.23564,-2.43428 10.60693,-5.78877 15.76758,-8.45801c0.6917,-0.35771 1.10449,-0.79746 1.37256,-1.53457l0.68994,-1.04971c0.27979,0.06914 0.61934,0.15322 1.01924,0.25195c5.59922,-1.81289 14.42842,-8.08096 19.51523,-10.70859z" fill="#bd1200"/><path d="M262.66289,182.92969c0.24961,4.49326 1.04473,32.35635 -0.74502,34.4124c-0.46582,0.53525 -1.47539,1.22402 -1.6957,1.85654l0.44736,0.68701c-1.31865,2.36367 -14.39883,9.47314 -17.69443,11.57695c-0.94072,0.46816 -1.82754,0.94512 -2.82803,1.26973c0.37588,-0.74502 1.3752,-1.17275 2.1709,-2.55439c-1.61572,0.12129 -2.00303,0.55459 -3.63398,0.76318l-0.25898,0.03193c-1.21787,0.46846 -14.91973,8.69385 -15.20859,9.11602l-2.1082,0.23818c0.3457,-1.98662 0.22354,-9.37998 0.14414,-11.79551c-0.21709,-6.59004 0.46729,-15.4002 -0.05654,-21.72656l0.24023,-0.69902c0.87568,-0.85488 1.33125,-0.99727 2.46123,-1.49268l0.40107,-0.18486c5.23564,-2.43428 10.60693,-5.78877 15.76758,-8.45801c0.6917,-0.35771 1.10449,-0.79746 1.37256,-1.53457l0.68994,-1.04971c0.27979,0.06914 0.61934,0.15322 1.01924,0.25195c5.59922,-1.81289 14.42842,-8.08096 19.51523,-10.70859z" fill="#bd1200"/><path d="M241.43848,194.43604c-0.02256,6.83027 -0.04951,13.6623 -0.04014,20.49287c0.00615,4.69629 0.40869,9.74414 -0.1585,14.39795c-0.73242,0.38877 -2.27109,1.13848 -2.81484,1.64619c-1.21787,0.46846 -14.91973,8.69385 -15.20859,9.11602l-2.1082,0.23818c0.3457,-1.98662 0.22354,-9.37998 0.14414,-11.79551c-0.21709,-6.59004 0.46729,-15.4002 -0.05654,-21.72656l0.24023,-0.69902c0.87568,-0.85488 1.33125,-0.99727 2.46123,-1.49268l0.40107,-0.18486c5.23564,-2.43428 10.60693,-5.78877 15.76758,-8.45801c0.6917,-0.35771 1.10449,-0.79746 1.37256,-1.53457z" fill="#bd1200"/><path d="M242.12842,193.38633c0.65889,1.1499 0.25898,28.54512 0.52178,32.1375c-0.49277,2.33408 -0.44297,2.71582 0.47607,5.04521l-0.15117,0.89355c-0.94072,0.46816 -1.82754,0.94512 -2.82803,1.26973c0.37588,-0.74502 1.3752,-1.17275 2.1709,-2.55439c-1.61572,0.12129 -2.00303,0.55459 -3.63398,0.76318l-0.25898,0.03193c0.54375,-0.50771 2.08242,-1.25742 2.81484,-1.64619c0.56719,-4.65381 0.16465,-9.70166 0.1585,-14.39795c-0.00937,-6.83057 0.01758,-13.6626 0.04014,-20.49287z" fill="#3a0200"/><path d="M260.22217,219.19863l0.44736,0.68701c-1.31865,2.36367 -14.39883,9.47314 -17.69443,11.57695l0.15117,-0.89355c-0.91904,-2.32939 -0.96885,-2.71113 -0.47607,-5.04521c0.09434,1.08223 0.14707,1.74521 0.39404,2.80137c1.32275,-0.04395 14.6083,-8.03555 17.17793,-9.12656z" fill="#600000"/><path d="M260.25557,261.04688c1.3084,0.17285 1.53047,0.19629 2.56172,1.04561c-1.25215,1.21641 -2.1249,0.95449 -3.45674,2.1917c-3.13916,2.91504 -6.35596,5.43809 -9.62432,8.23213c-4.76162,4.07139 -11.17207,6.23555 -16.64414,9.12041c-3.13271,1.65146 -13.43672,4.17715 -16.27529,1.75049c-0.98291,-1.2542 -1.82842,-0.60703 -2.76123,-2.79463c1.43789,0.28799 5.0751,1.09834 6.36387,1.14404c1.36025,0.07939 2.72168,-0.12861 3.99609,-0.61055c4.71182,-1.82051 14.18408,-7.53018 18.67295,-10.16572c4.97666,-2.92178 12.48369,-6.76465 17.16709,-9.91348z" fill="url(#color-4)"/><path d="M260.66953,219.88564c1.66318,0.92695 1.69131,1.40596 1.95996,3.2373c-7.45371,3.41807 -13.54629,7.06787 -20.654,10.87617c-3.09287,1.65732 -17.67598,10.98662 -20.11465,11.37832l0.03867,-0.45176c-0.46934,-0.8458 -1.91338,-1.5665 -2.80312,-2.10381c0.94717,0.08613 1.84307,0.09023 2.79258,0.10488l-0.7377,-0.41162l-0.15908,-0.66475c0.41484,-0.8124 1.4165,-1.27734 2.22422,-1.76133c0.28887,-0.42217 13.99072,-8.64756 15.20859,-9.11602l0.25898,-0.03193c1.63096,-0.20859 2.01826,-0.64189 3.63398,-0.76318c-0.7957,1.38164 -1.79502,1.80938 -2.1709,2.55439c1.00049,-0.32461 1.8873,-0.80156 2.82803,-1.26973c3.29561,-2.10381 16.37578,-9.21328 17.69443,-11.57695z" fill="#e82203"/><path d="M238.425,230.97305l0.25898,-0.03193c1.63096,-0.20859 2.01826,-0.64189 3.63398,-0.76318c-0.7957,1.38164 -1.79502,1.80938 -2.1709,2.55439c-6.17314,3.24785 -12.07588,6.92988 -18.25811,10.19443l-0.7377,-0.41162l-0.15908,-0.66475c0.41484,-0.8124 1.4165,-1.27734 2.22422,-1.76133c0.28887,-0.42217 13.99072,-8.64756 15.20859,-9.11602z" fill="url(#color-5)"/><path d="M222.11748,280.26299c5.06865,-1.85156 12.52266,-6.72715 17.47734,-9.63398c4.35059,-2.55264 19.31748,-9.58945 22.18623,-12.44297c-0.43857,1.0248 -0.79219,2.01973 -1.52549,2.86084c-4.6834,3.14883 -12.19043,6.9917 -17.16709,9.91348c-4.48887,2.63555 -13.96113,8.34521 -18.67295,10.16572c-1.27441,0.48193 -2.63584,0.68994 -3.99609,0.61055l-1.04414,-0.80215v-0.23818c1.15605,-0.08818 1.61367,-0.16406 2.74219,-0.4333z" fill="#0b0101"/><path d="M164.41172,178.69248c0.03691,-0.6668 0.03047,-0.63076 0.43945,-1.16396c0.86689,-0.18398 2.10703,0.53877 2.96074,0.93604l3.35889,1.904l-0.28359,-0.00615c-1.2457,-0.03574 -1.47656,-0.13066 -2.59219,-0.66357l-0.38291,0.29004l0.28066,0.36709c1.93125,3.26953 16.04824,8.77148 20.12754,10.99922c1.57998,0.8625 4.37139,1.8457 5.80957,3.1251l0.45322,0.15322c5.55205,1.33066 14.3543,7.08135 19.78037,8.84209c1.79473,0.88477 4.26035,1.66846 5.24033,3.3123l0.41982,0.38613l1.17217,-0.36885c0.52383,6.32637 -0.16055,15.13652 0.05654,21.72656c0.07939,2.41553 0.20156,9.80889 -0.14414,11.79551l2.1082,-0.23818c-0.80771,0.48398 -1.80938,0.94893 -2.22422,1.76133l0.15908,0.66475l0.7377,0.41162c-0.94951,-0.01465 -1.84541,-0.01875 -2.79258,-0.10488c-3.40049,-1.82168 -6.99609,-3.32871 -10.4877,-4.98984l-24.58799,-11.5377c-3.13301,-1.46309 -7.31719,-3.73037 -10.57178,-4.96172c-0.17842,-0.06738 -0.53848,0.29502 -0.76289,0.46729c-0.21387,-0.35479 -0.19863,-0.64395 -0.26191,-1.079l-0.69697,-0.01641c-0.65449,-1.27236 -13.26885,-6.87656 -15.6999,-8.0877l-0.1793,-0.31406c-1.87266,-0.93223 -4.76572,-2.05518 -6.80508,-2.96162l-1.17217,-0.65508c0.86748,-0.62813 1.80791,-1.454 2.6417,-2.15186c1.9459,-1.89609 3.16377,-3.19336 4.86533,-5.2998c5.40293,-2.98301 10.12471,-16.6084 9.03398,-22.54189z" fill="#f92907"/><path d="M194.58311,194.6335c5.55205,1.33066 14.3543,7.08135 19.78037,8.84209c1.79473,0.88477 4.26035,1.66846 5.24033,3.3123l0.41982,0.38613l1.17217,-0.36885c0.52383,6.32637 -0.16055,15.13652 0.05654,21.72656c0.07939,2.41553 0.20156,9.80889 -0.14414,11.79551c-0.62871,0.26982 -1.06143,0.15029 -1.74902,0.07705c-7.66963,-4.17979 -17.6168,-7.98574 -24.95889,-12.54961c-0.28066,-4.63975 -0.15879,-10.1127 -0.16875,-14.81455c-0.0126,-5.94434 -0.10723,-12.5124 0.35156,-18.40664z" fill="#f92907"/><path d="M219.60381,206.78789l0.41982,0.38613l1.17217,-0.36885c0.52383,6.32637 -0.16055,15.13652 0.05654,21.72656c0.07939,2.41553 0.20156,9.80889 -0.14414,11.79551c-0.62871,0.26982 -1.06143,0.15029 -1.74902,0.07705c-1.56211,-2.89951 -0.0457,-19.53662 -0.3832,-24.18604c-0.13799,-1.90049 0.25869,-7.47129 0.62783,-9.43037z" fill="#f92907"/><path d="M194.12988,194.48027l0.45322,0.15322c-0.45879,5.89424 -0.36416,12.4623 -0.35156,18.40664c0.00996,4.70186 -0.11191,10.1748 0.16875,14.81455c7.34209,4.56387 17.28926,8.36982 24.95889,12.54961c0.6876,0.07324 1.12031,0.19277 1.74902,-0.07705l2.1082,-0.23818c-0.80771,0.48398 -1.80938,0.94893 -2.22422,1.76133l0.15908,0.66475l0.7377,0.41162c-0.94951,-0.01465 -1.84541,-0.01875 -2.79258,-0.10488c-3.40049,-1.82168 -6.99609,-3.32871 -10.4877,-4.98984l-24.58799,-11.5377c-3.13301,-1.46309 -7.31719,-3.73037 -10.57178,-4.96172c-0.17842,-0.06738 -0.53848,0.29502 -0.76289,0.46729c-0.21387,-0.35479 -0.19863,-0.64395 -0.26191,-1.079l-0.69697,-0.01641c-0.65449,-1.27236 -13.26885,-6.87656 -15.6999,-8.0877l-0.1793,-0.31406c-1.87266,-0.93223 -4.76572,-2.05518 -6.80508,-2.96162l-1.17217,-0.65508c0.86748,-0.62813 1.80791,-1.454 2.6417,-2.15186c0.34922,0.42598 0.86572,1.004 1.12969,1.46074c0.87363,0.54932 4.41709,2.24443 5.32646,2.49932l1.84072,0.53584c9.8042,4.22197 19.59404,10.45898 29.6748,14.4334c1.39775,0.55107 2.81572,1.39072 4.29551,1.98486c0.72275,-7.42559 -0.11221,-15.74707 0.27979,-23.24678c0.11396,-2.18232 -0.50566,-8.64258 1.07051,-9.72129z" fill="#950100"/><path d="M150.5124,206.53418c0.34922,0.42598 0.86572,1.004 1.12969,1.46074c0.87363,0.54932 4.41709,2.24443 5.32646,2.49932l0.10225,0.6835c-0.91055,-0.47725 -2.31504,-1.26064 -3.30527,-1.08721l-0.08613,0.47109c1.20938,1.02158 2.4917,0.57393 2.99912,1.38428l-0.83057,0.35684c-1.87266,-0.93223 -4.76572,-2.05518 -6.80508,-2.96162l-1.17217,-0.65508c0.86748,-0.62813 1.80791,-1.454 2.6417,-2.15186z" fill="#3a0200"/><path d="M164.41172,178.69248c0.03691,-0.6668 0.03047,-0.63076 0.43945,-1.16396c0.86689,-0.18398 2.10703,0.53877 2.96074,0.93604l3.35889,1.904l-0.28359,-0.00615c-1.2457,-0.03574 -1.47656,-0.13066 -2.59219,-0.66357l-0.38291,0.29004l0.28066,0.36709c-0.37617,3.59033 0.50449,5.61885 0.15293,9.06885c-0.50244,4.93301 -3.82998,8.68066 -5.46387,13.29609c-0.16758,-0.07793 -1.01895,-1.67168 -1.66084,-2.24619c-1.28613,0.32813 -6.61553,6.09609 -7.73115,7.83662c1.3043,0.51064 4.33652,1.61514 5.37568,2.29424l-0.05625,0.42451l-1.84072,-0.53584c-0.90937,-0.25488 -4.45283,-1.95 -5.32646,-2.49932c-0.26396,-0.45674 -0.78047,-1.03477 -1.12969,-1.46074c1.9459,-1.89609 3.16377,-3.19336 4.86533,-5.2998c5.40293,-2.98301 10.12471,-16.6084 9.03398,-22.54189z" fill="#bd1200"/><path d="M164.41172,178.69248c2.27373,4.1373 3.7207,3.58506 2.35459,8.68828c-1.96436,7.33857 -6.26162,10.90137 -11.21924,16.33594c-1.26211,1.3834 -3.0085,2.62588 -3.90498,4.27822c-0.26396,-0.45674 -0.78047,-1.03477 -1.12969,-1.46074c1.9459,-1.89609 3.16377,-3.19336 4.86533,-5.2998c5.40293,-2.98301 10.12471,-16.6084 9.03398,-22.54189z" fill="#950100"/><path d="M172.68604,221.7999c0.22441,-0.17227 0.58447,-0.53467 0.76289,-0.46729c3.25459,1.23135 7.43877,3.49863 10.57178,4.96172l24.58799,11.5377c3.4916,1.66113 7.08721,3.16816 10.4877,4.98984c0.88975,0.5373 2.33379,1.25801 2.80312,2.10381l-0.03867,0.45176c-1.004,1.17861 -0.75146,2.46504 -0.65889,4.03711c0.27744,2.01885 0.09404,9.43887 0.06797,11.8834c-0.04951,4.69482 0.4377,13.49121 -0.24434,17.9707c-0.72627,0.69668 -1.37666,0.56514 -2.45508,0.54434c-0.15557,-0.00322 -0.31113,-0.00703 -0.46641,-0.01172c-5.49639,-0.74854 -24.0917,-11.05195 -29.87549,-13.65908c-4.82109,-2.17324 -11.5998,-5.2166 -16.27881,-7.76338c1.11006,-3.16523 0.2083,-7.86035 0.43389,-11.23008c0.46904,-7.00811 -0.72363,-17.36719 0.49014,-23.99473z" fill="#e82203"/><path d="M172.68604,221.7999c0.22441,-0.17227 0.58447,-0.53467 0.76289,-0.46729c3.25459,1.23135 7.43877,3.49863 10.57178,4.96172l24.58799,11.5377c3.4916,1.66113 7.08721,3.16816 10.4877,4.98984c0.88975,0.5373 2.33379,1.25801 2.80312,2.10381l-0.03867,0.45176c-1.004,1.17861 -0.75146,2.46504 -0.65889,4.03711c-0.31055,-1.47539 -0.05713,-1.55566 -0.9832,-2.28604l-0.50039,0.0832l-0.41689,1.27617c-0.18311,-0.25898 -0.14678,-2.51514 -0.90586,-3.08408c-1.90752,-1.42939 -6.99814,-3.42568 -8.89746,-4.41504c-4.46631,-2.32676 -35.28047,-16.31895 -36.62432,-17.83477z" fill="#fe5925"/><path d="M201.06416,248.47734c5.92002,-0.21357 7.83164,8.20166 2.14834,11.30449c-6.10986,-0.81387 -8.04873,-8.65547 -2.14834,-11.30449z" fill="#00e400"/><path d="M149.04287,209.34111c2.03936,0.90645 4.93242,2.02939 6.80508,2.96162l0.1793,0.31406c2.43105,1.21113 15.04541,6.81533 15.6999,8.0877l0.69697,0.01641c0.06328,0.43506 0.04805,0.72422 0.26191,1.079l0.18779,1.3541c-1.21377,6.62754 -0.02109,16.98662 -0.49014,23.99473c-0.22559,3.36973 0.67617,8.06484 -0.43389,11.23008c-0.50654,-0.30732 -1.00898,-0.62168 -1.50703,-0.94277c-13.49092,-5.18145 -29.02383,-14.11494 -42.43213,-20.31855c-0.37793,-0.34951 -3.19043,-1.84863 -3.83145,-2.20283c0.1043,-4.00986 -0.15352,-8.96807 -0.26221,-13.04414c6.30732,-1.32803 11.66074,-4.15723 17.21543,-5.35811c1.21201,-1.12354 5.04873,-4.07812 5.40908,-5.28193c0.48516,-1.28232 1.28701,-1.57617 2.50137,-1.88936z" fill="url(#color-6)"/><path d="M152.3707,211.69775c3.00879,1.01133 1.3875,2.00889 3.65654,0.91904c2.43105,1.21113 15.04541,6.81533 15.6999,8.0877l-0.28301,0.63105l-0.58711,1.47422c-1.52725,0.07383 -15.54316,-8.09619 -17.2292,-9.50977c-0.96885,-0.81211 -0.96445,-0.3873 -1.25713,-1.60225z" fill="#f92907"/><path d="M171.72715,220.70449l0.69697,0.01641c0.06328,0.43506 0.04805,0.72422 0.26191,1.079l0.18779,1.3541c-1.21377,6.62754 -0.02109,16.98662 -0.49014,23.99473c-0.22559,3.36973 0.67617,8.06484 -0.43389,11.23008c-0.50654,-0.30732 -1.00898,-0.62168 -1.50703,-0.94277c0.46143,-0.51592 0.55957,-0.54639 0.58066,-1.31953c0.31611,-11.59395 0.13652,-23.18086 0.4207,-34.78096z" fill="#950100"/><path d="M149.04287,209.34111c2.03936,0.90645 4.93242,2.02939 6.80508,2.96162l0.1793,0.31406c-2.26904,1.08984 -0.64775,0.09229 -3.65654,-0.91904c-0.24375,0.13887 -0.44326,0.37764 -0.64922,0.58447c0.30938,0.84492 0.79893,0.98438 1.63008,1.61484l-0.00234,0.22061c-1.15283,-0.30293 -4.81436,-2.01387 -4.03389,-3.53496c-1.5624,-0.16348 -1.24658,-0.05332 -2.77383,0.64775c0.48516,-1.28232 1.28701,-1.57617 2.50137,-1.88936z" fill="#bd1200"/><path d="M79.35322,180.76846c1.45693,-0.33545 7.08428,3.09492 9.94512,2.81514c4.93594,9.13447 22.20967,34.08984 30.85576,38.27549c0.40518,0.11396 1.61074,0.45439 1.81436,0.72188c1.78535,2.34639 0.97207,8.66396 0.78984,11.46621c-4.99072,-1.13203 -18.10342,-8.13867 -23.32207,-10.67139c-5.89541,-2.86143 -14.71494,-6.67852 -20.26055,-9.76904c0.41426,-2.80693 0.15732,-6.5458 0.10752,-9.46494l-0.22383,-15.21973c-0.02666,-2.31123 -0.10957,-5.97129 0.29385,-8.15361z" fill="#e82203"/><path d="M42.24492,201.90908l0.34805,-0.54668c3.20479,0.14268 13.69102,7.12207 17.52422,8.8626c5.9373,2.6959 12.37178,5.15859 18.04512,8.37451c1.00781,0.57129 2.05283,1.15723 3.08467,1.68926c6.61172,2.67861 12.60029,6.28271 18.76582,9.81592c2.15859,1.23809 5.41055,1.95762 7.68428,3.08936c8.7082,3.77666 16.6582,8.84619 25.1165,13.10625c1.71445,0.81035 4.03301,0.84111 5.74131,1.53779c6.77256,2.76211 13.90986,6.25078 20.29629,9.7248c4.15078,2.25791 24.71689,10.32715 25.58086,14.00771l-0.38701,0.52412c-5.62939,-1.97959 -7.18477,-4.21523 -11.76592,-6.32432l-34.81143,-15.70752c-1.92451,-0.87568 -4.13643,-1.32686 -6.23613,-2.28369c-6.31465,-2.87754 -11.59482,-6.72041 -17.74658,-9.74414c-5.35283,-2.63115 -10.31426,-3.53467 -15.62959,-6.17988c-3.52646,-1.52461 -6.64424,-3.94102 -9.98408,-5.73457c-10.97109,-5.89072 -22.2876,-11.29307 -33.12246,-17.37832c-3.45674,-1.94121 -9.71074,-4.21934 -12.50391,-6.8332z" fill="#e9eaec"/><path d="M36.4626,192.99609c2.49727,0.46523 8.64609,4.29668 11.3625,5.5626c9.62021,4.48271 19.38428,9.59678 29.07129,13.89814c0.44062,0.22793 1.90137,1.021 2.2793,1.1499c5.54561,3.09053 14.36514,6.90762 20.26055,9.76904c5.21865,2.53271 18.33135,9.53936 23.32207,10.67139c0.18223,-2.80225 0.99551,-9.11982 -0.78984,-11.46621c-0.20361,-0.26748 -1.40918,-0.60791 -1.81436,-0.72188c11.8125,-2.90713 16.35498,-4.89404 25.77803,-12.41338l1.93857,-0.75967l1.17217,0.65508c-1.21436,0.31318 -2.01621,0.60703 -2.50137,1.88936c-0.36035,1.20381 -4.19707,4.1584 -5.40908,5.28193c-5.55469,1.20088 -10.90811,4.03008 -17.21543,5.35811c0.10869,4.07607 0.3665,9.03428 0.26221,13.04414c0.64102,0.3542 3.45352,1.85332 3.83145,2.20283l-0.6167,1.24512c-2.88223,-2.41494 -9.89033,-4.246 -13.64414,-6.0375l-26.9124,-13.08105c-2.66836,-1.30693 -5.25498,-2.78789 -7.89961,-4.06846c-2.29482,-1.05703 -4.68486,-1.85742 -6.97031,-2.94199c-10.79385,-5.12256 -21.34951,-10.725 -32.15449,-15.81885c-0.83789,-0.39492 -2.68711,-2.61182 -3.35039,-3.41865z" fill="#730000"/><path d="M128.01064,237.11748c13.4083,6.20361 28.94121,15.13711 42.43213,20.31855c0.49805,0.32109 1.00049,0.63545 1.50703,0.94277c4.679,2.54678 11.45771,5.59014 16.27881,7.76338c5.78379,2.60713 24.3791,12.91055 29.87549,13.65908c1.65762,0.34951 2.94229,0.24902 4.01338,0.46172c-1.12852,0.26924 -1.58613,0.34512 -2.74219,0.4333v0.23818l1.04414,0.80215c-1.28877,-0.0457 -4.92598,-0.85605 -6.36387,-1.14404c-3.31641,-1.13145 -7.59316,-3.53906 -10.87412,-5.03936c-10.49766,-4.80088 -20.87256,-9.95244 -30.96445,-15.55459c-2.08066,-0.97617 -4.54277,-1.31016 -6.58682,-2.35078c-12.7377,-6.48428 -25.51348,-12.77197 -38.23623,-19.28525z" fill="#0b0101"/><path d="M36.82969,36.87832l0.16816,-0.13389c4.22402,-3.33779 7.09395,-4.59434 11.85703,-7.05674c2.13574,-1.10426 4.46221,-2.7692 6.67969,-3.87413c1.52637,-0.76066 3.01992,-1.39415 4.59844,-2.16234c1.0248,-0.4986 3.0123,-2.5355 3.70811,-2.8563c4.16309,-1.91865 9.09639,-5.00382 13.33623,-6.34556c1.36641,-0.43239 4.91572,0.42229 6.19541,0.94377c5.09092,2.07475 10.34502,4.76074 15.26074,7.22224c7.58379,3.79761 17.11084,7.85133 24.08145,12.38355c0.92432,0.47842 0.68613,0.19424 1.02305,1.0166c-0.09375,0.48047 -0.19834,1.1209 -0.3416,1.57646l0.37383,0.34512c1.05322,-0.34482 1.7874,-0.63457 2.80664,-1.07285c8.79932,3.2168 18.43242,8.34873 26.99355,12.36738c4.471,2.09854 10.06523,4.68252 14.04434,7.47187c-1.06523,0.73096 -2.42285,1.60283 -3.36387,2.44863l0.52061,1.14609c-7.78828,4.66904 -15.69082,9.14473 -23.70059,13.42266c-2.74102,1.49443 -5.56465,3.24404 -8.28604,4.66465c-1.51201,-0.17314 -5.53037,2.38682 -5.746,4.27061c-0.69492,-0.40928 -0.86338,-0.41191 -1.66553,-0.59326c-0.35127,7.85889 -0.26572,16.63242 -0.22119,24.53027c-0.06709,0.50303 -0.35186,2.25879 -0.2502,2.65576c-1.27939,0.65508 -4.69687,1.42793 -6.18926,1.69717c-3.30029,0.67852 -5.57432,1.0626 -8.95254,1.01514c-0.63838,-1.05527 -0.96094,-1.23516 -1.97021,-1.96201c1.24629,-0.54287 1.95322,1.17363 3.43301,0.37822c-0.47432,-0.42568 -2.53477,-1.10977 -3.2502,-1.37666l0.4415,-0.49248c-0.74092,-0.59766 -9.41104,-4.83457 -10.71709,-5.43105c-5.38887,-2.46064 -10.99043,-5.66543 -16.29932,-8.07832l-0.02637,-3.50273c-0.95801,1.37109 0.24375,1.9418 -0.76553,2.86084l-0.6583,-0.31553c-3.14678,-0.09873 -13.33213,-5.68271 -16.6626,-7.3374c-3.33955,-1.65908 -22.75459,-11.2749 -25.2041,-10.89141c-0.87891,-0.63867 -1.61045,-1.47129 -2.35752,-2.26377c-1.06641,-5.79961 -0.49512,-13.55215 -0.58916,-19.61133c-0.06152,-3.9583 -0.60234,-14.38564 1.69541,-17.05928z" fill="#fe7340"/><path d="M126.57686,36.86426c8.79932,3.2168 18.43242,8.34873 26.99355,12.36738c4.471,2.09854 10.06523,4.68252 14.04434,7.47187c-1.06523,0.73096 -2.42285,1.60283 -3.36387,2.44863l0.52061,1.14609c-7.78828,4.66904 -15.69082,9.14473 -23.70059,13.42266c-2.74102,1.49443 -5.56465,3.24404 -8.28604,4.66465c-1.51201,-0.17314 -5.53037,2.38682 -5.746,4.27061c-0.69492,-0.40928 -0.86338,-0.41191 -1.66553,-0.59326c-0.35127,7.85889 -0.26572,16.63242 -0.22119,24.53027c-0.06709,0.50303 -0.35186,2.25879 -0.2502,2.65576c-1.27939,0.65508 -4.69687,1.42793 -6.18926,1.69717c-3.30029,0.67852 -5.57432,1.0626 -8.95254,1.01514c-0.63838,-1.05527 -0.96094,-1.23516 -1.97021,-1.96201c1.24629,-0.54287 1.95322,1.17363 3.43301,0.37822c-0.47432,-0.42568 -2.53477,-1.10977 -3.2502,-1.37666l0.4415,-0.49248c-0.74092,-0.59766 -9.41104,-4.83457 -10.71709,-5.43105c-5.38887,-2.46064 -10.99043,-5.66543 -16.29932,-8.07832l-0.02637,-3.50273c0.18604,-6.33311 -0.05684,-12.81006 -0.06152,-19.1373c-0.00205,-2.74131 -0.23613,-8.75273 0.34248,-11.27607l0.35977,-0.49277l2.26553,-1.58994c3.1749,-3.13301 29.90508,-16.99717 35.42227,-19.95527c1.13057,-0.57129 2.47324,-1.41357 3.69639,-1.45283l0.37383,0.34512c1.05322,-0.34482 1.7874,-0.63457 2.80664,-1.07285z" fill="#fe7340"/><path d="M81.65244,61.08281l0.35977,-0.49277c5.55117,2.96455 40.60986,18.37148 43.10537,21.11016l0.25576,0.3627c-0.35127,7.85889 -0.26572,16.63242 -0.22119,24.53027c-0.06709,0.50303 -0.35186,2.25879 -0.2502,2.65576c-1.27939,0.65508 -4.69687,1.42793 -6.18926,1.69717c-3.30029,0.67852 -5.57432,1.0626 -8.95254,1.01514c-0.63838,-1.05527 -0.96094,-1.23516 -1.97021,-1.96201c1.24629,-0.54287 1.95322,1.17363 3.43301,0.37822c-0.47432,-0.42568 -2.53477,-1.10977 -3.2502,-1.37666l0.4415,-0.49248c-0.74092,-0.59766 -9.41104,-4.83457 -10.71709,-5.43105c-5.38887,-2.46064 -10.99043,-5.66543 -16.29932,-8.07832l-0.02637,-3.50273c0.18604,-6.33311 -0.05684,-12.81006 -0.06152,-19.1373c-0.00205,-2.74131 -0.23613,-8.75273 0.34248,-11.27607z" fill="#f92907"/><path d="M108.41426,108.5083c2.38623,0.97676 4.01602,1.85332 6.64131,2.16563c1.0166,0.121 2.79727,0.10752 3.65713,0.27217c-3.30029,0.67852 -5.57432,1.0626 -8.95254,1.01514c-0.63838,-1.05527 -0.96094,-1.23516 -1.97021,-1.96201c1.24629,-0.54287 1.95322,1.17363 3.43301,0.37822c-0.47432,-0.42568 -2.53477,-1.10977 -3.2502,-1.37666z" fill="#730000"/><path d="M84.27773,59.0001c1.56562,1.28701 3.13066,1.91807 4.92861,2.78965c9.02871,4.37607 18.26133,8.33936 27.20947,12.88037c3.2499,1.64941 7.25537,3.17344 9.99521,5.55879l-1.29346,1.47129c-2.49551,-2.73867 -37.5542,-18.14561 -43.10537,-21.11016z" fill="#fecfaf"/><path d="M126.41104,80.22891c0.97354,-0.42246 7.60781,-4.27383 9.179,-5.12842l28.66084,-15.94834l0.52061,1.14609c-7.78828,4.66904 -15.69082,9.14473 -23.70059,13.42266c-2.74102,1.49443 -5.56465,3.24404 -8.28604,4.66465c-1.51201,-0.17314 -5.53037,2.38682 -5.746,4.27061c-0.69492,-0.40928 -0.86338,-0.41191 -1.66553,-0.59326l-0.25576,-0.3627z" fill="#e82203"/><path d="M36.82969,36.87832c0.12949,1.31309 0.22236,1.46455 0.95156,2.57256l0.42393,0.18574c2.99062,0.72012 11.84531,5.4498 15.22471,7.11211c6.9252,3.42246 13.91396,6.71455 20.96279,9.87451c1.48242,0.67705 4.64736,2.77354 5.62881,3.01436l0.07383,0.12832c0.40869,0.32637 1.24541,0.95332 1.55713,1.31689c-0.57861,2.52334 -0.34453,8.53477 -0.34248,11.27607c0.00469,6.32725 0.24756,12.8042 0.06152,19.1373c-0.95801,1.37109 0.24375,1.9418 -0.76553,2.86084l-0.6583,-0.31553c-3.14678,-0.09873 -13.33213,-5.68271 -16.6626,-7.3374c-3.33955,-1.65908 -22.75459,-11.2749 -25.2041,-10.89141c-0.87891,-0.63867 -1.61045,-1.47129 -2.35752,-2.26377c-1.06641,-5.79961 -0.49512,-13.55215 -0.58916,-19.61133c-0.06152,-3.9583 -0.60234,-14.38564 1.69541,-17.05928z" fill="#f92907"/><path d="M80.09531,59.76592c0.40869,0.32637 1.24541,0.95332 1.55713,1.31689c-0.57861,2.52334 -0.34453,8.53477 -0.34248,11.27607c0.00469,6.32725 0.24756,12.8042 0.06152,19.1373c-0.95801,1.37109 0.24375,1.9418 -0.76553,2.86084l-0.6583,-0.31553c0.3958,-9.9416 0.42627,-24.24199 0.14766,-34.27559z" fill="#950100"/><path d="M41.47998,38.65137l27.6457,13.41855c3.48604,1.72471 7.17158,3.49189 10.62686,5.30127c0.76025,0.39844 0.78252,0.59736 1.08545,1.28086l-0.8165,0.98555c-0.98145,-0.24082 -4.14639,-2.3373 -5.62881,-3.01436c-7.04883,-3.15996 -14.0376,-6.45205 -20.96279,-9.87451c-3.37939,-1.6623 -12.23408,-6.39199 -15.22471,-7.11211c1.63887,0.15205 1.99395,-0.09316 3.2748,-0.98525z" fill="#fecfaf"/><path d="M118.58203,38.11494l1.11797,0.92988c-5.51719,2.95811 -32.24736,16.82227 -35.42227,19.95527l-2.26553,1.58994l-0.35977,0.49277c-0.31172,-0.36357 -1.14844,-0.99053 -1.55713,-1.31689l-0.07383,-0.12832l0.8165,-0.98555c0.17051,-0.27305 34.35439,-18.85312 37.74404,-20.53711z" fill="#e82203"/><path d="M122.71494,34.99893c0.92432,0.47842 0.68613,0.19424 1.02305,1.0166c-0.09375,0.48047 -0.19834,1.1209 -0.3416,1.57646c-1.22314,0.03926 -2.56582,0.88154 -3.69639,1.45283l-1.11797,-0.92988c1.61396,-1.20439 2.53477,-1.71064 4.13291,-3.11602z" fill="#f92907"/><path d="M37.78125,39.45088c0.18896,-0.97793 0.36855,-1.00723 1.12354,-1.50762c1.18564,-0.10547 1.50762,0.14092 2.5752,0.70811c-1.28086,0.89209 -1.63594,1.1373 -3.2748,0.98525z" fill="#eac9b0"/><path d="M38.08096,75.8127c2.44951,-0.3835 21.86455,9.23232 25.2041,10.89141c3.33047,1.65469 13.51582,7.23867 16.6626,7.3374l0.6583,0.31553c1.00928,-0.91904 -0.19248,-1.48975 0.76553,-2.86084l0.02637,3.50273c5.30889,2.41289 10.91045,5.61768 16.29932,8.07832c1.30605,0.59648 9.97617,4.8334 10.71709,5.43105l-0.4415,0.49248c0.71543,0.26689 2.77588,0.95098 3.2502,1.37666c-1.47979,0.79541 -2.18672,-0.92109 -3.43301,-0.37822c1.00928,0.72686 1.33184,0.90674 1.97021,1.96201c-7.16865,0.02285 -13.78652,-2.33115 -20.38652,-4.84746c-2.41318,1.44727 -7.35557,4.4373 -9.41484,6.22529c-0.05273,4.996 -0.07529,9.99258 -0.06797,14.98916c-0.00703,2.07891 -0.16377,5.41992 -0.06123,7.38955c-3.00762,-2.80166 -9.63135,-6.36855 -13.4584,-8.06631c-2.1624,-0.95918 -4.55068,-1.77041 -6.61934,-2.97656c-1.24688,-0.72715 -1.12002,-1.23428 -1.46543,-2.62354c-0.20977,1.34414 -0.37031,1.08047 0.1166,2.15713l-0.45645,0.41455c-0.7582,-1.80293 -0.16172,-3.7084 -0.81094,-5.85088c-0.06445,1.44639 -0.05098,3.13008 -0.07119,4.59551c-3.38936,-1.97607 -9.31611,-4.68311 -12.96357,-6.03428c-1.05908,0.53877 -0.99639,0.929 -1.66816,1.24395c-1.98838,-0.90205 -3.27773,-1.61279 -4.83076,-3.13682l-0.09375,-0.71836c-0.37354,-0.24375 -0.66797,-0.51855 -0.93633,-0.87686c-2.04316,-2.72666 -1.67813,-29.14922 -1.06465,-33.88623c0.15059,-1.16221 0.44238,-1.64355 1.35293,-2.3417l0.95801,-0.66299z" fill="#f92907"/><path d="M37.81816,76.95439c4.46221,3.36211 13.26299,6.81621 18.76494,9.93311l0.40576,0.29795c0.3,10.40391 -0.2165,21.51035 0.14678,31.58672c-0.06445,1.44639 -0.05098,3.13008 -0.07119,4.59551c-3.38936,-1.97607 -9.31611,-4.68311 -12.96357,-6.03428c-1.05908,0.53877 -0.99639,0.929 -1.66816,1.24395c-1.98838,-0.90205 -3.27773,-1.61279 -4.83076,-3.13682l-0.09375,-0.71836c-0.37354,-0.24375 -0.66797,-0.51855 -0.93633,-0.87686c-2.04316,-2.72666 -1.67813,-29.14922 -1.06465,-33.88623c0.15059,-1.16221 0.44238,-1.64355 1.35293,-2.3417z" fill="#f92907"/><path d="M37.81816,76.95439c4.46221,3.36211 13.26299,6.81621 18.76494,9.93311l0.01846,0.99434c-0.42393,0.80859 -0.14912,0.57627 -1.03066,0.86045c-5.59102,-3.02021 -11.40527,-5.42285 -17.0127,-8.39033c-1.24541,-0.65918 -1.30107,-1.32949 -1.69805,-2.73457z" fill="#fe7340"/><path d="M37.5082,114.72217c1.79443,-0.02783 4.84365,1.74961 6.59268,2.61123c-1.05908,0.53877 -0.99639,0.929 -1.66816,1.24395c-1.98838,-0.90205 -3.27773,-1.61279 -4.83076,-3.13682z" fill="#950100"/><path d="M38.08096,75.8127c2.44951,-0.3835 21.86455,9.23232 25.2041,10.89141c3.33047,1.65469 13.51582,7.23867 16.6626,7.3374l0.6583,0.31553c1.00928,-0.91904 -0.19248,-1.48975 0.76553,-2.86084l0.02637,3.50273c5.30889,2.41289 10.91045,5.61768 16.29932,8.07832c1.30605,0.59648 9.97617,4.8334 10.71709,5.43105l-0.4415,0.49248c0.71543,0.26689 2.77588,0.95098 3.2502,1.37666c-1.47979,0.79541 -2.18672,-0.92109 -3.43301,-0.37822c-3.17109,-1.91484 -17.83857,-8.29746 -21.32432,-9.60469c-3.27334,-1.67959 -6.47373,-2.84854 -9.74971,-4.3708c-5.27695,-2.45186 -10.67578,-4.89785 -15.8959,-7.44434c-0.91377,-0.34131 -0.93164,-0.52822 -1.73291,-0.2874c-1.76982,4.65762 -0.25254,27.42773 -0.80068,33.75937c-0.20977,1.34414 -0.37031,1.08047 0.1166,2.15713l-0.45645,0.41455c-0.7582,-1.80293 -0.16172,-3.7084 -0.81094,-5.85088c-0.36328,-10.07637 0.15322,-21.18281 -0.14678,-31.58672l-0.40576,-0.29795c-5.50195,-3.11689 -14.30273,-6.571 -18.76494,-9.93311z" fill="url(#color-7)"/><path d="M60.82002,88.57939c5.22012,2.54648 10.61895,4.99248 15.8959,7.44434c3.27598,1.52227 6.47637,2.69121 9.74971,4.3708l-0.04336,0.42744c-1.30137,-0.56279 -7.77129,-3.57715 -8.53711,-3.49365l0.26279,0.45732l-0.27041,0.60703c1.56504,0.71895 6.61846,2.93848 7.71299,3.82646c-1.97959,-0.46523 -6.19277,-2.53535 -8.204,-3.45088c-4.44141,-2.02119 -8.95107,-4.08896 -13.37021,-6.16963c-1.40479,-0.66123 -4.39219,-1.81025 -4.86768,-3.14297c0.53467,-0.78223 0.50977,-0.56602 1.67139,-0.87627z" fill="#fe7340"/><path d="M259.96084,141.26631c1.14873,0.21064 1.36992,0.22559 2.34287,0.86719c0.95186,3.15908 0.76787,32.21455 0.104,35.37305c-0.89883,0.80713 -1.89873,1.54775 -2.28691,2.67891c-1.77305,-1.05439 -3.04717,0.94102 -4.81494,1.74492c-3.32725,1.51289 -8.98184,5.69092 -12.26514,6.5168l-0.37207,-0.5833l-0.46465,0.72041l-0.47197,-0.17813c-0.21855,-10.82432 -0.39141,-20.79902 0.03691,-31.65937c0.03955,-1.08428 0.14736,-2.20254 0.16992,-3.27393c0.11865,0.62988 0.14238,0.92783 0.56895,1.4165c0.06533,-0.32695 0.08818,-2.0543 0.09697,-2.47969c4.32627,-3.06797 11.58926,-6.19775 14.99414,-9.00117c0.94717,-0.65742 1.81406,-1.13408 2.36191,-2.14219z" fill="#bd1200"/><path d="M259.96084,141.26631c1.14873,0.21064 1.36992,0.22559 2.34287,0.86719c-0.48018,1.85127 -1.38193,2.37275 -3.06563,3.36182c-5.08799,2.98828 -11.10762,5.94053 -15.97998,9.21826c-0.7875,-0.7623 -0.22412,-1.01396 -0.65332,-2.30391c4.32627,-3.06797 11.58926,-6.19775 14.99414,-9.00117c0.94717,-0.65742 1.81406,-1.13408 2.36191,-2.14219z" fill="#f92907"/><path d="M241.76895,156.74678c0.03955,-1.08428 0.14736,-2.20254 0.16992,-3.27393c0.11865,0.62988 0.14238,0.92783 0.56895,1.4165c-0.02871,7.40537 0.0416,14.81074 0.21035,22.21436c0.03516,2.34902 0.2499,8.81426 -0.04951,10.76016l-0.46465,0.72041l-0.47197,-0.17813c-0.21855,-10.82432 -0.39141,-20.79902 0.03691,-31.65937z" fill="#600000"/><path d="M242.66865,187.86387l0.37207,0.5833c3.2833,-0.82588 8.93789,-5.00391 12.26514,-6.5168c1.76777,-0.80391 3.04189,-2.79932 4.81494,-1.74492l0.27891,0.24961c1.77832,0.61084 1.95586,0.48398 2.26318,2.49463c-5.08682,2.62764 -13.91602,8.8957 -19.51523,10.70859c-0.3999,-0.09873 -0.73945,-0.18281 -1.01924,-0.25195l-0.68994,1.04971c-0.26807,0.73711 -0.68086,1.17686 -1.37256,1.53457c-5.16064,2.66924 -10.53193,6.02373 -15.76758,8.45801l-0.40107,0.18486c-0.30264,-0.37119 -0.55723,-0.64424 -0.8874,-0.99053c-0.62314,0.08408 -1.24893,0.14912 -1.87588,0.19512l3.89678,-2.39736c-0.93926,0.14854 -2.62383,0.68262 -3.69844,0.93047l-0.29385,-0.21064c1.05381,-1.48711 0.81855,-0.94541 2.28516,-1.97871c0.81123,-0.98379 15.09961,-9.02109 17.07363,-9.91318c1.08662,-0.96416 1.04678,-0.63662 1.33477,-1.84248l0.47197,0.17813z" fill="#f92907"/><path d="M240.39727,190.24863c1.22285,0.47959 0.43389,-0.3542 2.05166,-0.04102c0.03633,1.11328 0.08203,0.72949 -0.53672,1.75605c-5.70557,2.84326 -11.23271,6.496 -16.88145,9.45703c-0.93926,0.14854 -2.62383,0.68262 -3.69844,0.93047l-0.29385,-0.21064c1.05381,-1.48711 0.81855,-0.94541 2.28516,-1.97871c0.81123,-0.98379 15.09961,-9.02109 17.07363,-9.91318z" fill="#730000"/><path d="M242.66865,187.86387l0.37207,0.5833c3.2833,-0.82588 8.93789,-5.00391 12.26514,-6.5168c1.76777,-0.80391 3.04189,-2.79932 4.81494,-1.74492l0.27891,0.24961c-4.31572,4.69307 -13.77686,8.08564 -18.4875,11.52861c0.61875,-1.02656 0.57305,-0.64277 0.53672,-1.75605c-1.61777,-0.31318 -0.82881,0.52061 -2.05166,0.04102c1.08662,-0.96416 1.04678,-0.63662 1.33477,-1.84248l0.47197,0.17813z" fill="url(#color-8)"/><path d="M262.95703,254.97568c0.94395,1.00693 1.39893,0.21006 2.39766,1.37432c0.57891,1.76748 -1.30107,4.54922 -2.5374,5.74248c-1.03125,-0.84932 -1.25332,-0.87275 -2.56172,-1.04561c0.7333,-0.84111 1.08691,-1.83604 1.52549,-2.86084c0.34072,-0.71309 0.8874,-2.40088 1.17598,-3.21035z" fill="#aaa9ac"/></g></svg></svg>