<svg id="svg" version="1.1" viewBox="0 0 300 300" width="300" height="300" xmlns="http://www.w3.org/2000/svg"><svg xmlns="http://www.w3.org/2000/svg"><defs><clipPath id="clip-1"><rect x="0" y="0" transform="scale(0.29297,0.29297)" width="1024" height="1024" fill="none"/></clipPath><linearGradient x1="224.67217" y1="223.64824" x2="166.6998" y2="35.6918" gradientUnits="userSpaceOnUse" id="color-1"><stop offset="0" stop-color="#0089eb"/><stop offset="1" stop-color="#08c5ff"/></linearGradient><linearGradient x1="113.2415" y1="211.28057" x2="33.75498" y2="113.31182" gradientUnits="userSpaceOnUse" id="color-2"><stop offset="0" stop-color="#0085e7"/><stop offset="1" stop-color="#0ac6ff"/></linearGradient><linearGradient x1="45.2209" y1="221.31211" x2="30.42012" y2="227.09736" gradientUnits="userSpaceOnUse" id="color-3"><stop offset="0" stop-color="#a4a3a2"/><stop offset="1" stop-color="#d5d4d6"/></linearGradient><linearGradient x1="62.66045" y1="222.52295" x2="48.49688" y2="231.3542" gradientUnits="userSpaceOnUse" id="color-4"><stop offset="0" stop-color="#4a494b"/><stop offset="1" stop-color="#9b9b9b"/></linearGradient><linearGradient x1="263.02266" y1="220.83135" x2="277.62979" y2="225.30264" gradientUnits="userSpaceOnUse" id="color-5"><stop offset="0" stop-color="#9f9fa0"/><stop offset="1" stop-color="#dfdede"/></linearGradient><linearGradient x1="252.46436" y1="225.18311" x2="261.87861" y2="227.97451" gradientUnits="userSpaceOnUse" id="color-6"><stop offset="0" stop-color="#576068"/><stop offset="1" stop-color="#9a9999"/></linearGradient></defs><g clip-path="url(#clip-1)" fill="none" fill-rule="nonzero" stroke="none" stroke-width="1" stroke-linecap="butt" stroke-linejoin="miter" stroke-miterlimit="10" stroke-dasharray="" stroke-dashoffset="0" font-family="none" font-weight="none" font-size="none" text-anchor="none" style="mix-blend-mode: normal"><path d="M133.19238,45.52441c9.31143,-6.02227 26.41143,-5.53652 37.19824,-4.94971c-3.3416,0.8042 -10.0418,0.17988 -11.24824,0.58945c4.81641,0.11484 17.95928,0.92139 20.73398,4.69219l0.24053,0.09082l0.14443,-0.47871c1.22139,-0.16934 1.67871,2.3458 3.69141,1.1458c-0.6665,-1.08779 -2.58369,-1.68369 -3.50391,-2.87725c1.64385,0.0624 2.08711,0.54639 3.71865,-0.03955c1.94238,0.0498 4.65293,1.4335 6.41865,2.09385c20.74102,7.75518 39.4415,27.81855 42.51182,50.15244c0.2502,1.82051 0.68613,2.76709 2.69854,2.86055c0.11133,0.00469 0.22236,0.00908 0.33369,0.0126l0.17285,0.00527c12.28037,0.34658 25.08633,7.81172 33.62139,16.39541c12.11689,12.18574 17.62734,30.2209 17.14365,47.21074c-0.36533,12.82295 -5.89775,33.91436 -13.21348,44.40117c-0.43945,1.20908 -1.03242,2.21016 -1.65205,3.32842c1.17949,-0.12041 2.80195,-0.39404 3.89941,-0.09023c0.09756,0.11865 4.49824,6.57627 4.33975,5.77148c1.20176,6.10254 -12.42305,18.31758 -17.29629,19.41855c-5.74307,1.75166 -11.15508,2.29717 -17.15889,2.56787c-8.33467,0.37588 -16.05908,3.39199 -24.40459,3.81943c-1.55566,0.07939 -5.81455,0.16641 -7.07227,0.74033c-1.36553,1.99687 -2.38799,2.09912 -4.73818,2.23066c-8.71318,0.48867 -17.53447,0.2499 -26.27402,0.25459c-16.71416,0.07998 -33.42891,0.03604 -50.14248,-0.13154l-1.4001,-2.70879c-11.02266,-0.71221 -22.45547,0.20596 -33.16113,-0.4834c-6.66592,-1.3374 -12.1459,-1.33682 -18.86016,-1.54658c-2.37773,-0.31318 -4.81494,-0.90264 -7.15312,-1.44082c-7.65146,-1.76191 -17.85,-0.61787 -24.90029,-3.75586c-2.90391,-1.11914 -10.37256,-6.16289 -13.53633,-7.90166c-2.08857,-1.49004 -7.08727,-4.56094 -7.30025,-7.38281c-0.30313,-4.01572 0.74842,-7.70127 5.01656,-8.38184c-5.62854,-6.54961 -11.37164,-13.92861 -14.31844,-22.07344c-11.53087,-31.87148 3.8857,-69.13506 36.09803,-80.89014c1.51787,-0.14736 8.01387,-2.10908 10.65703,-2.52773c0.87598,-12.04717 4.65879,-20.74424 13.5917,-28.76045c2.85352,-2.45449 9.76201,-6.0126 13.20908,-7.07988c3.09023,-1.77129 12.77783,-2.75068 12.77461,-2.74629c3.92695,-5.68154 10.59609,-13.81084 18.08379,-16.7499c3.12979,-1.43115 5.91328,-3.28301 9.27422,-4.08135c0.41953,-0.09961 1.35557,-0.53555 1.76221,-0.70371z" fill="#edeff1"/><path d="M133.19238,45.52441c9.31143,-6.02227 26.41143,-5.53652 37.19824,-4.94971c-3.3416,0.8042 -10.0418,0.17988 -11.24824,0.58945c4.81641,0.11484 17.95928,0.92139 20.73398,4.69219l0.24053,0.09082l0.14443,-0.47871c1.22139,-0.16934 1.67871,2.3458 3.69141,1.1458c-0.6665,-1.08779 -2.58369,-1.68369 -3.50391,-2.87725c1.64385,0.0624 2.08711,0.54639 3.71865,-0.03955c1.94238,0.0498 4.65293,1.4335 6.41865,2.09385c20.74102,7.75518 39.4415,27.81855 42.51182,50.15244c0.2502,1.82051 0.68613,2.76709 2.69854,2.86055c0.11133,0.00469 0.22236,0.00908 0.33369,0.0126l0.17285,0.00527c12.28037,0.34658 25.08633,7.81172 33.62139,16.39541c12.11689,12.18574 17.62734,30.2209 17.14365,47.21074c-0.36533,12.82295 -5.89775,33.91436 -13.21348,44.40117l-0.22939,-0.45322c-0.26338,0.13535 -1.2709,2.17354 -1.61338,2.73281l-0.38643,0.04453c-0.31494,-2.15566 1.425,-0.87188 1.29668,-4.07988l-0.01348,-0.29854c5.9751,-11.47617 7.4332,-24.77461 4.08662,-37.27295c-4.41855,-16.50029 -13.0667,-26.7249 -27.72656,-35.18525c-2.43252,-0.8209 -5.32764,-2.20898 -8.10322,-3.1793c-3.79834,-1.19531 -6.49307,-1.22666 -10.43643,-1.471c-6.39814,-41.60801 -50.10674,-67.67197 -90.09551,-57.16201c-16.18945,4.25508 -26.36367,11.44805 -37.70566,23.49639c-0.75088,-1.0043 -0.53584,-0.90029 -0.73799,-2.29395c-1.44873,-6.30791 -2.27021,-15.86719 -0.23877,-22.12148c-3.62256,0.28506 -5.97363,0.48633 -9.45615,1.49766c-0.51592,-0.17197 -0.85928,-0.80713 -1.19736,-1.27764c3.09023,-1.77129 12.77783,-2.75068 12.77461,-2.74629c3.92695,-5.68154 10.59609,-13.81084 18.08379,-16.7499c3.12979,-1.43115 5.91328,-3.28301 9.27422,-4.08135c0.41953,-0.09961 1.35557,-0.53555 1.76221,-0.70371z" fill="url(#color-1)"/><path d="M133.19238,45.52441c9.31143,-6.02227 26.41143,-5.53652 37.19824,-4.94971c-3.3416,0.8042 -10.0418,0.17988 -11.24824,0.58945c4.81641,0.11484 17.95928,0.92139 20.73398,4.69219l0.24053,0.09082c0.57217,1.1124 1.26592,6.28652 0.93779,7.40918c-0.49043,0.66768 -0.42422,4.62861 -0.30205,5.42666c-0.35215,2.08008 -2.04404,6.51123 -3.02754,8.4627l-0.2915,0.00586c-1.73701,0.02637 -3.2499,-0.23086 -5.01211,-0.31172c-11.95225,-0.54932 -24.49365,-1.49619 -36.02813,2.37656c-0.85693,0.2877 -5.39736,1.97021 -5.97598,2.00332c-1.72441,-0.23086 -8.81484,3.50625 -11.04111,4.38721l-0.2918,-0.41221c-0.50713,-5.00537 1.93184,-10.56885 3.09697,-15.39492c0.52236,-2.16299 0.94014,-4.32715 1.42822,-6.50039c3.10547,-2.78232 5.2418,-5.06514 9.11338,-6.86338c1.07725,-0.50039 1.55156,-0.46025 2.66162,-1.01279l0.19746,-0.09961c-0.34658,-0.14443 -1.73906,0.08086 -2.38975,0.10078z" fill="#72d9fc"/><path d="M133.19238,45.52441c9.31143,-6.02227 26.41143,-5.53652 37.19824,-4.94971c-3.3416,0.8042 -10.0418,0.17988 -11.24824,0.58945c-4.91191,0.31553 -19.10859,2.45801 -23.56025,4.25947c-0.34658,-0.14443 -1.73906,0.08086 -2.38975,0.10078z" fill="#16bfff"/><path d="M180.11689,45.94717c0.57217,1.1124 1.26592,6.28652 0.93779,7.40918c-0.8376,-1.35762 -1.41123,-5.85498 -0.93779,-7.40918z" fill="#56cffd"/><path d="M241.16543,129.1377c0.03838,-0.08965 0.41309,-0.96475 0.41309,-0.96533c-0.96328,-7.95674 -1.76396,-15.89443 0.82676,-23.66602c0.23262,-0.69697 -0.40078,-1.93975 0.27832,-2.05928c5.4041,-0.58535 16.6998,5.87168 19.88818,9.31758c-3.67969,2.12021 -7.04678,4.9541 -8.43457,9.24199c-1.09512,3.38291 1.20059,7.9166 -1.54512,9.6583c-1.22959,0.77988 -1.8835,0.02109 -3.32344,1.65205c-2.43252,-0.8209 -5.32764,-2.20898 -8.10322,-3.1793z" fill="#56cffd"/><path d="M133.19238,45.52441c0.65068,-0.01992 2.04316,-0.24521 2.38975,-0.10078l-0.19746,0.09961c-1.11006,0.55254 -1.58437,0.5124 -2.66162,1.01279c-3.87158,1.79824 -6.00791,4.08105 -9.11338,6.86338c-0.48809,2.17324 -0.90586,4.3374 -1.42822,6.50039c-1.16514,4.82607 -3.6041,10.38955 -3.09697,15.39492l0.2918,0.41221c2.22627,-0.88096 9.3167,-4.61807 11.04111,-4.38721c-1.09043,0.90996 -11.98594,6.13623 -13.07197,5.879c-3.92813,-5.46152 -0.11279,-13.09277 1.95937,-18.36182l0.73799,0.36592c0.12773,0.23525 0.36855,1.31191 0.28037,1.47686c-1.75459,3.28301 -4.40713,6.5666 -3.98643,10.51963c0.14238,1.33623 0.34424,4.70449 1.27676,5.54297l0.64307,-0.11367l0.26104,-0.43447c-2.06953,-4.3998 3.80918,-15.79102 4.09863,-22.37256c-0.64336,-0.40693 -1.0998,1.33975 -2.29219,1.60547c-0.07354,-1.25508 0.77578,-2.40674 1.546,-3.30498c0.99229,-0.2833 6.91904,-3.98467 7.66904,-4.71328c-1.08896,-0.15264 -4.63564,3.31875 -7.38311,2.90068c3.12979,-1.43115 5.91328,-3.28301 9.27422,-4.08135c0.41953,-0.09961 1.35557,-0.53555 1.76221,-0.70371z" fill="#56cffd"/><path d="M181.05469,53.35635c0.929,1.39307 0.30732,3.99727 -0.30205,5.42666c-0.12217,-0.79805 -0.18838,-4.75898 0.30205,-5.42666z" fill="#56cffd"/><path d="M78.08848,76.88555c2.85352,-2.45449 9.76201,-6.0126 13.20908,-7.07988c0.33809,0.47051 0.68145,1.10566 1.19736,1.27764c3.48252,-1.01133 5.83359,-1.2126 9.45615,-1.49766c-2.03145,6.2543 -1.20996,15.81357 0.23877,22.12148c0.20215,1.39365 -0.01289,1.28965 0.73799,2.29395c-0.39023,0.50684 -1.81436,2.4293 -2.20488,2.73955c-8.65078,11.96895 -10.90225,16.66553 -13.87969,31.03389c-14.5585,0.10547 -25.5958,4.00986 -36.20537,14.48379c-9.22998,9.11191 -14.85791,23.70879 -14.73369,36.6498c0.08379,14.10029 5.89307,27.56133 16.09541,37.29492c8.72227,8.47705 17.64316,12.01934 29.16914,14.60713l0.28564,0.42217c1.57148,0.13857 2.91914,0.19219 4.4291,0.68994l-0.81709,0.00029l1.97637,0.42451l-0.01406,0.13125c-2.9874,0.05566 -7.81113,-1.00195 -9.48809,-0.47344c-0.48955,-0.00791 -1.92744,-0.40723 -2.48701,-0.54697c-4.08574,-1.10039 -8.28281,-3.01055 -12.45527,-3.97939c-6.20566,-1.44053 -11.17734,-4.06494 -16.9333,-6.64014l-3.81504,-2.1791c-0.09199,-0.08789 -2.79346,-2.01943 -3.08877,-2.24268c-2.26289,-1.72236 -4.49678,-3.48252 -6.70107,-5.2793c-5.62854,-6.54961 -11.37164,-13.92861 -14.31844,-22.07344c-11.53087,-31.87148 3.8857,-69.13506 36.09803,-80.89014c1.51787,-0.14736 8.01387,-2.10908 10.65703,-2.52773c0.87598,-12.04717 4.65879,-20.74424 13.5917,-28.76045z" fill="url(#color-2)"/><path d="M64.49678,105.646c-0.05977,2.11172 0.63252,2.74102 0.10225,4.39453c-0.2877,0.871 1.94795,10.23047 1.96729,12.12861c0.01025,1.01338 1.74053,3.9375 2.04492,5.40469c-3.66855,3.95332 -13.45693,6.39961 -17.14834,11.26201c-0.67998,0.89561 -4.14463,3.78984 -5.16533,3.78223c0.029,-0.19482 0.04717,-0.39141 0.0542,-0.58828c0.22295,-5.35693 -3.26777,-10.65879 -6.7459,-14.4293c-0.42949,-2.35723 -0.7251,-5.98535 0.30352,-8.12227c1.82402,-3.78926 13.15342,-9.41162 16.94795,-10.67754c-1.23105,-0.56953 -1.64443,-0.54873 -3.01758,-0.62695c1.51787,-0.14736 8.01387,-2.10908 10.65703,-2.52773z" fill="#72d9fc"/><path d="M64.49678,105.646c-0.05977,2.11172 0.63252,2.74102 0.10225,4.39453c-0.33896,-4.10479 -5.15771,-2.09033 -7.7417,-1.23984c-1.23105,-0.56953 -1.64443,-0.54873 -3.01758,-0.62695c1.51787,-0.14736 8.01387,-2.10908 10.65703,-2.52773z" fill="#16bfff"/><path d="M78.08848,76.88555c2.85352,-2.45449 9.76201,-6.0126 13.20908,-7.07988c0.33809,0.47051 0.68145,1.10566 1.19736,1.27764c3.48252,-1.01133 5.83359,-1.2126 9.45615,-1.49766c-2.03145,6.2543 -1.20996,15.81357 0.23877,22.12148c0.20215,1.39365 -0.01289,1.28965 0.73799,2.29395c-0.39023,0.50684 -1.81436,2.4293 -2.20488,2.73955c-0.42539,-0.62051 -0.48398,-0.69404 -1.18916,-0.94395c-2.55645,1.96172 -5.08887,3.68877 -8.24736,4.58086c-10.44111,2.65107 -10.63271,-11.23184 -11.73018,-17.86787c-0.07998,-0.48398 -0.82383,-1.80791 -1.06201,-2.29395c0.14414,-2.40029 3.14766,-3.4957 4.23398,-5.15039c-2.36133,0.6583 -2.29512,1.81289 -4.63975,1.82021z" fill="#72d9fc"/><path d="M78.08848,76.88555c2.85352,-2.45449 9.76201,-6.0126 13.20908,-7.07988c0.33809,0.47051 0.68145,1.10566 1.19736,1.27764c-3.69404,1.3875 -9.52822,3.43828 -10.89287,7.24775c-0.18545,0.51797 -0.48896,0.82588 -0.87246,1.22988c0.49629,1.2999 2.17354,7.27529 2.0124,8.3376c-0.99346,6.54492 0.39814,11.69414 8.54443,12.479c-10.44111,2.65107 -10.63271,-11.23184 -11.73018,-17.86787c-0.07998,-0.48398 -0.82383,-1.80791 -1.06201,-2.29395c0.14414,-2.40029 3.14766,-3.4957 4.23398,-5.15039c-2.36133,0.6583 -2.29512,1.81289 -4.63975,1.82021z" fill="#16bfff"/><path d="M102.18984,91.70713c0.20215,1.39365 -0.01289,1.28965 0.73799,2.29395c-0.39023,0.50684 -1.81436,2.4293 -2.20488,2.73955c-0.42539,-0.62051 -0.48398,-0.69404 -1.18916,-0.94395c1.4332,-1.45781 2.33291,-2.08271 2.65605,-4.08955z" fill="#56cffd"/><path d="M32.06016,211.1373c2.2043,1.79678 4.43818,3.55693 6.70107,5.2793c0.29531,0.22324 2.99678,2.15479 3.08877,2.24268l3.81504,2.1791c5.75596,2.5752 10.72764,5.19961 16.9333,6.64014c4.17246,0.96885 8.36953,2.879 12.45527,3.97939c0.55957,0.13975 1.99746,0.53906 2.48701,0.54697c1.89844,0.57012 6.89678,1.44814 8.82275,1.2252c4.69424,0.65039 23.06133,0.1708 25.43379,1.54395c-1.30664,0.49951 -4.13965,0.56777 -5.62441,0.61582c1.91982,0.51768 19.60137,0.28418 22.81055,0.31699l56.04346,0.29473c3.40576,-0.00088 25.4373,0.3791 27.48105,-0.51006c1.31367,0.50625 29.60361,0.5918 33.55107,0.73857c2.33555,0.08701 13.20117,-2.92324 17.08652,-0.97236c-5.74307,1.75166 -11.15508,2.29717 -17.15889,2.56787c-8.33467,0.37588 -16.05908,3.39199 -24.40459,3.81943c-1.55566,0.07939 -5.81455,0.16641 -7.07227,0.74033c-1.36553,1.99687 -2.38799,2.09912 -4.73818,2.23066c-8.71318,0.48867 -17.53447,0.2499 -26.27402,0.25459c-16.71416,0.07998 -33.42891,0.03604 -50.14248,-0.13154l-1.4001,-2.70879c-11.02266,-0.71221 -22.45547,0.20596 -33.16113,-0.4834c-6.66592,-1.3374 -12.1459,-1.33682 -18.86016,-1.54658c-2.37773,-0.31318 -4.81494,-0.90264 -7.15312,-1.44082c-7.65146,-1.76191 -17.85,-0.61787 -24.90029,-3.75586c-2.90391,-1.11914 -10.37256,-6.16289 -13.53633,-7.90166c-2.08857,-1.49004 -7.08727,-4.56094 -7.30025,-7.38281c-0.30313,-4.01572 0.74842,-7.70127 5.01656,-8.38184z" fill="#c8c7c7"/><path d="M32.06016,211.1373c2.2043,1.79678 4.43818,3.55693 6.70107,5.2793c0.29531,0.22324 2.99678,2.15479 3.08877,2.24268l3.81504,2.1791c5.75596,2.5752 10.72764,5.19961 16.9333,6.64014c4.17246,0.96885 8.36953,2.879 12.45527,3.97939c0.55957,0.13975 1.99746,0.53906 2.48701,0.54697c1.89844,0.57012 6.89678,1.44814 8.82275,1.2252c4.69424,0.65039 23.06133,0.1708 25.43379,1.54395c-1.30664,0.49951 -4.13965,0.56777 -5.62441,0.61582c-17.02881,-0.179 -34.03828,1.38369 -51.06621,-1.51758c-1.72734,-0.29414 -5.83008,-2.06426 -6.80273,-1.38545c0.79805,0.39463 1.36641,0.61846 1.98662,1.27705l-0.07471,0.71396c-1.12295,0.74385 -0.74385,-0.33223 -2.33555,0.32578c-2.90391,-1.11914 -10.37256,-6.16289 -13.53633,-7.90166c-2.08857,-1.49004 -7.08727,-4.56094 -7.30025,-7.38281c-0.30313,-4.01572 0.74842,-7.70127 5.01656,-8.38184z" fill="url(#color-3)"/><path d="M45.66504,220.83838c5.75596,2.5752 10.72764,5.19961 16.9333,6.64014c4.17246,0.96885 8.36953,2.879 12.45527,3.97939c-1.87207,0.09873 -3.75703,0.11279 -5.5834,0.54873c-4.91191,1.17188 -23.08945,0.75703 -24.2499,-5.47207c-0.13096,-1.48184 -1.29609,-4.09688 -0.72715,-5.45215l0.6249,0.19717z" fill="url(#color-4)"/><path d="M41.85,218.65928l3.81504,2.1791l-0.54697,0.44121l-0.6249,-0.19717c-0.56895,1.35527 0.59619,3.97031 0.72715,5.45215c-1.61279,-2.14424 -1.09365,-3.93281 -2.12695,-6.2543c0.02344,0.05273 -1.15166,-1.49297 -1.24336,-1.621z" fill="#c8c7c7"/><path d="M98.79375,241.54688l0.41543,-0.67178l-0.02139,0.03135l-0.91172,-0.25752c7.93037,-0.77256 16.54248,-0.62051 24.56484,-0.75469c3.45762,-0.05801 8.53389,0.75879 12.19307,0.77812c4.40596,0.02314 8.79141,0.03047 13.19678,0.01494l0.17959,0.1667c-0.97061,0.58418 -4.9207,-0.29092 -6.82559,0.39961c6.39316,-0.05625 13.98574,0.98027 20.42461,0.31084c1.67578,-0.17432 1.68896,-0.59326 3.60527,-0.06064c-1.40156,0.19424 -2.01475,0.22676 -3.43008,0.19424l0.0832,0.29297c1.87266,0.62842 4.21523,-0.30937 6.72539,-0.07764c-0.69053,0.01904 -1.21553,0.02168 -1.90576,0.12627l0.179,0.28535c1.01396,0.09756 4.57061,0.1333 5.49668,-0.08672c5.24297,-0.18311 39.11748,-1.4001 41.08564,-0.22998c0.21768,0.12949 0.44297,0.24727 0.66094,0.37705c-1.36553,1.99687 -2.38799,2.09912 -4.73818,2.23066c-8.71318,0.48867 -17.53447,0.2499 -26.27402,0.25459c-16.71416,0.07998 -33.42891,0.03604 -50.14248,-0.13154l-1.4001,-2.70879c-11.02266,-0.71221 -22.45547,0.20596 -33.16113,-0.4834z" fill="#edeff1"/><path d="M272.20254,210.15791c1.17949,-0.12041 2.80195,-0.39404 3.89941,-0.09023c0.09756,0.11865 4.49824,6.57627 4.33975,5.77148c1.20176,6.10254 -12.42305,18.31758 -17.29629,19.41855c-3.88535,-1.95088 -14.75098,1.05937 -17.08652,0.97236c-3.94746,-0.14678 -32.2374,-0.23232 -33.55107,-0.73857c-1.33975,-0.38408 -2.2377,-0.12598 -3.99844,-0.74795c6.4207,-1.11006 12.53701,-0.22676 18.61465,-0.91611c3.12803,0.48428 9.04541,-0.74355 12.22236,-1.37197c2.37656,-0.70752 4.54277,-1.48242 6.86895,-2.32002c6.18428,-2.11729 7.6749,-3.2959 12.98379,-7.05146c1.70977,-1.09834 3.43945,-2.55439 5.03818,-3.8373c3.60469,-3.41953 4.85273,-5.47266 7.96523,-9.08877z" fill="url(#color-5)"/><path d="M264.2373,219.24668c-0.13945,0.70518 -0.30146,0.78809 -0.45908,1.26826c-1.30078,3.96387 -0.50449,9.95449 -5.67744,11.16914c-5.27607,1.23867 -9.96445,0.6293 -15.29355,0.73008c-1.22051,0.02314 -2.23594,0.28301 -3.46084,0.04131c2.37656,-0.70752 4.54277,-1.48242 6.86895,-2.32002c6.18428,-2.11729 7.6749,-3.2959 12.98379,-7.05146c1.70977,-1.09834 3.43945,-2.55439 5.03818,-3.8373z" fill="url(#color-6)"/><path d="M86.36338,233.23008c2.83213,-0.25635 6.97998,-0.13301 9.90029,-0.13184l17.44775,-0.03838c20.45625,-0.17256 40.79707,-1.10596 61.28291,-0.02842c4.74463,0.24961 10.00518,-0.60762 14.81631,-0.47959c8.671,-0.06709 16.85801,0.0665 25.52432,0.82061c3.72861,0.32461 7.93975,0.03896 11.78906,0.45498c-6.07764,0.68936 -12.19395,-0.19395 -18.61465,0.91611c1.76074,0.62197 2.65869,0.36387 3.99844,0.74795c-2.04375,0.88916 -24.07529,0.50918 -27.48105,0.51006l-56.04346,-0.29473c-3.20918,-0.03281 -20.89072,0.20068 -22.81055,-0.31699c1.48477,-0.04805 4.31777,-0.11631 5.62441,-0.61582c-2.37246,-1.37314 -20.73955,-0.89355 -25.43379,-1.54395z" fill="#0484e2"/><path d="M256.63916,223.04326c1.01895,-0.10811 1.56504,-0.22441 2.55996,0.04072c-5.30889,3.75557 -6.79951,4.93418 -12.98379,7.05146c-2.32617,0.8376 -4.49238,1.6125 -6.86895,2.32002c-3.17695,0.62842 -9.09434,1.85625 -12.22236,1.37197c-3.84932,-0.41602 -8.06045,-0.13037 -11.78906,-0.45498c-8.66631,-0.7541 -16.85332,-0.8877 -25.52432,-0.82061c-4.81113,-0.12803 -10.07168,0.7292 -14.81631,0.47959c-20.48584,-1.07754 -40.82666,-0.14414 -61.28291,0.02842l-17.44775,0.03838c-2.92031,-0.00117 -7.06816,-0.12451 -9.90029,0.13184c-1.92598,0.22295 -6.92432,-0.65508 -8.82275,-1.2252c1.67695,-0.52852 6.50068,0.5291 9.48809,0.47344l0.01406,-0.13125l-1.97637,-0.42451l0.81709,-0.00029c-1.50996,-0.49775 -2.85762,-0.55137 -4.4291,-0.68994l-0.28564,-0.42217c0.99258,-0.31875 23.87344,0.51445 27.07764,0.56602c26.81807,0.27568 53.63789,0.31904 80.45654,0.12949l25.62539,-0.05859c12.55166,-0.02988 21.1957,0.49365 33.26309,-3.66152c3.42217,-1.5249 5.7665,-2.88896 9.04775,-4.74229z" fill="#0397da"/><path d="M272.90859,204.7752l0.01348,0.29854c0.12832,3.20801 -1.61162,1.92422 -1.29668,4.07988l0.38643,-0.04453c0.34248,-0.55928 1.35,-2.59746 1.61338,-2.73281l0.22939,0.45322c-0.43945,1.20908 -1.03242,2.21016 -1.65205,3.32842c-3.1125,3.61611 -4.36055,5.66924 -7.96523,9.08877c-1.59873,1.28291 -3.32842,2.73896 -5.03818,3.8373c-0.99492,-0.26514 -1.54102,-0.14883 -2.55996,-0.04072c7.80557,-5.58369 11.28545,-10.27383 16.26943,-18.26807z" fill="#0397da"/><path d="M153.91143,101.86875c30.28477,-3.01143 57.2748,19.10273 60.27715,49.38838c3.00264,30.28564 -19.11973,57.26895 -49.40596,60.2625c-30.27393,2.99238 -57.24346,-19.11855 -60.24492,-49.3916c-3.00117,-30.27275 19.10186,-57.24902 49.37373,-60.25928z" fill="#0484e2"/><path d="M143.89424,132.88535c1.78418,-6.56689 7.74111,-22.95557 13.75898,-25.45518c7.24951,-3.01143 15.05332,22.03301 16.40713,26.26494c-4.31074,0.58096 -8.57373,0.82324 -12.91172,1.11826c-0.15381,2.57168 -0.0791,3.44238 0.18574,6.06094c3.88066,-0.421 9.8625,-1.33535 13.59111,-2.24883c1.24658,4.6708 1.35322,8.71582 1.81758,13.45928c0.11104,1.13379 0.28447,3.20244 1.17012,3.9123c1.61133,0.60879 3.14795,-0.24023 4.69805,-0.87979c-1.12324,-20.84736 -4.0248,-30.17373 -15.29941,-47.43721c12.29473,2.65547 19.90137,7.2208 28.79268,16.22959c-4.5334,3.77959 -13.28525,5.70967 -14.85293,8.27871c-0.59736,2.44072 0.92783,4.26504 3.46758,3.54111c5.24561,-1.49473 9.99316,-4.36729 14.32412,-7.61748c5.57139,7.49736 8.40293,17.15684 9.00322,26.38125c-5.97012,-0.08525 -11.94551,-0.14531 -17.91592,-0.15c-2.92324,-0.00234 -8.18818,0.30117 -6.21914,4.66172c1.36875,1.16777 20.99795,0.86865 24.26924,0.99229c-0.03867,8.21514 -3.47373,19.33594 -8.93057,25.63184c-5.86318,-3.43271 -9.67119,-5.22188 -15.9167,-7.57295l-2.95078,1.01777c0.75469,-2.82803 2.7126,-17.63818 1.21025,-19.38867c-1.03447,-0.37236 -1.83779,-0.78398 -2.90039,-0.54229c-3.57773,2.05312 -0.65361,15.71309 -4.23516,15.93691c-2.67275,0.16699 -16.14756,-5.75156 -13.33916,2.94756c0.871,1.0667 10.8416,2.34229 13.19121,2.8043c-1.85215,5.72842 -9.35537,26.40059 -16.00723,25.75488c-6.68848,-0.64951 -12.67031,-20.21865 -14.32471,-26.11582c3.27129,-0.96826 9.35273,-1.61162 12.84053,-2.02705c-0.00938,-1.40508 0.15645,-3.82822 -0.78223,-4.81875c-2.17441,-0.61143 -10.62568,0.5666 -13.47715,0.78809c-1.0749,-4.35176 -1.38926,-8.63291 -2.12197,-13.0251c-0.16348,-0.9791 -0.55576,-1.41533 -1.37314,-1.9418c-6.71396,-0.76289 -1.34883,14.4457 -1.8876,18.75615l-1.13994,-0.70049c-3.65479,-0.1043 -13.41064,5.98359 -16.7584,8.07891c-5.31182,-7.43174 -8.23477,-16.66289 -8.73281,-25.74229c7.35469,-0.38145 16.24336,0.41338 23.22217,-0.27539c0.33047,-1.90986 0.36064,-2.80957 0.40137,-4.7291c-5.42139,-1.15049 -17.26699,-0.34072 -23.52305,-0.60879c0.01904,-10.59961 3.3999,-17.48701 8.72432,-26.29248c3.77783,2.88428 11.59893,6.49102 16.17539,8.27021c1.40156,-1.51377 1.69277,-1.98486 2.36133,-3.95215c-0.72305,-0.89648 -1.42969,-1.50937 -2.49082,-1.9793c-4.78799,-2.1208 -8.77178,-3.70664 -12.84287,-7.09189c5.74395,-5.20166 11.10439,-9.57568 18.43418,-12.59209c2.86523,-1.1792 6.31201,-1.99951 9.02344,-3.18486c-3.36797,5.37422 -5.97275,9.36709 -8.30771,15.34043c-1.30254,3.33223 -2.15098,6.41309 -3.34922,9.72187c-0.96943,5.25732 -2.74336,16.82432 -2.79199,22.05293c1.23457,1.20146 1.6667,1.79326 3.39141,1.26064c2.4041,-2.18291 3.10518,-13.62275 3.52559,-17.40059c2.13955,0.44941 11.98887,2.73779 13.36406,1.54512c0.48516,-1.22754 0.47197,-2.99883 0.0832,-4.25391c-1.12939,-1.21084 -9.63838,-2.2043 -12.05127,-2.78379z" fill="#edeff1"/><path d="M179.17852,181.68721c3.721,1.31309 13.71006,6.22734 17.15508,8.16709c-4.99248,5.25674 -8.84561,8.27725 -15.13799,11.73076c-4.84453,2.2125 -8.05342,3.02285 -13.15986,4.40303c5.40732,-9.26836 8.17441,-13.83223 11.14277,-24.30088z" fill="#edeff1"/><path d="M137.36045,178.60195c0.83174,0.71162 3.73682,10.94766 4.60635,13.06729c2.03818,4.96992 4.41621,9.05156 7.01836,13.71064c-3.01582,-0.43682 -7.7001,-2.36396 -10.49414,-3.62227c-6.11719,-2.3833 -11.46562,-7.50996 -15.84609,-12.24639c4.72441,-2.68916 10.06318,-4.95762 14.61504,-7.78242c0.67441,-0.41836 0.22236,-2.44219 0.10049,-3.12686z" fill="#edeff1"/><path d="M170.39063,40.57471c1.17158,-0.12246 11.9666,2.74805 13.77686,3.12275c-1.63154,0.58594 -2.0748,0.10195 -3.71865,0.03955c0.92021,1.19355 2.8374,1.78945 3.50391,2.87725c-2.0127,1.2 -2.47002,-1.31514 -3.69141,-1.1458l-0.14443,0.47871l-0.24053,-0.09082c-2.77471,-3.7708 -15.91758,-4.57734 -20.73398,-4.69219c1.20645,-0.40957 7.90664,0.21475 11.24824,-0.58945z" fill-opacity="0.98824" fill="#56cffd"/></g></svg></svg>