<svg id="svg" version="1.1" viewBox="0 0 300 300" width="300" height="300" xmlns="http://www.w3.org/2000/svg"><svg xmlns="http://www.w3.org/2000/svg"><defs><clipPath id="clip-1"><rect x="0" y="0" transform="scale(0.29297,0.29297)" width="1024" height="1024" fill="none"/></clipPath><linearGradient x1="211.17188" y1="141.80508" x2="237.96563" y2="64.04678" gradientUnits="userSpaceOnUse" id="color-1"><stop offset="0" stop-color="#344d59"/><stop offset="1" stop-color="#4d697c"/></linearGradient><linearGradient x1="240.33838" y1="135.66504" x2="209.7668" y2="71.97598" gradientUnits="userSpaceOnUse" id="color-2"><stop offset="0" stop-color="#00b2fd"/><stop offset="1" stop-color="#2bc8fc"/></linearGradient><linearGradient x1="275.91094" y1="156.3832" x2="261.75527" y2="151.95088" gradientUnits="userSpaceOnUse" id="color-3"><stop offset="0" stop-color="#454f62"/><stop offset="1" stop-color="#61858f"/></linearGradient><linearGradient x1="200.68066" y1="215.2374" x2="201.28242" y2="212.45215" gradientUnits="userSpaceOnUse" id="color-4"><stop offset="0" stop-color="#000e1f"/><stop offset="1" stop-color="#122935"/></linearGradient><linearGradient x1="142.98193" y1="199.16221" x2="145.67461" y2="188.01182" gradientUnits="userSpaceOnUse" id="color-5"><stop offset="0" stop-color="#000407"/><stop offset="1" stop-color="#041929"/></linearGradient><linearGradient x1="212.96221" y1="204.01875" x2="201.0126" y2="197.29893" gradientUnits="userSpaceOnUse" id="color-6"><stop offset="0" stop-color="#0c2637"/><stop offset="1" stop-color="#284252"/></linearGradient><linearGradient x1="179.95957" y1="218.46504" x2="175.97578" y2="202.75518" gradientUnits="userSpaceOnUse" id="color-7"><stop offset="0" stop-color="#000000"/><stop offset="1" stop-color="#041520"/></linearGradient><linearGradient x1="156.53027" y1="177.61846" x2="156.08877" y2="172.16074" gradientUnits="userSpaceOnUse" id="color-8"><stop offset="0" stop-color="#081628"/><stop offset="1" stop-color="#1b3645"/></linearGradient><linearGradient x1="188.87695" y1="201.40752" x2="185.88135" y2="186.76582" gradientUnits="userSpaceOnUse" id="color-9"><stop offset="0" stop-color="#00070f"/><stop offset="1" stop-color="#1e3647"/></linearGradient><linearGradient x1="164.36104" y1="200.69092" x2="163.63623" y2="196.76045" gradientUnits="userSpaceOnUse" id="color-10"><stop offset="0" stop-color="#0e2237"/><stop offset="1" stop-color="#273d4f"/></linearGradient><linearGradient x1="172.13174" y1="193.98135" x2="171.93662" y2="185.30889" gradientUnits="userSpaceOnUse" id="color-11"><stop offset="0" stop-color="#000710"/><stop offset="1" stop-color="#042134"/></linearGradient><linearGradient x1="171.18545" y1="186.56016" x2="171.39316" y2="181.23369" gradientUnits="userSpaceOnUse" id="color-12"><stop offset="0" stop-color="#022534"/><stop offset="1" stop-color="#2d4559"/></linearGradient><linearGradient x1="128.00303" y1="183.58008" x2="110.29512" y2="43.52344" gradientUnits="userSpaceOnUse" id="color-13"><stop offset="0" stop-color="#f5a600"/><stop offset="1" stop-color="#ffd21d"/></linearGradient><linearGradient x1="141.87656" y1="100.82021" x2="136.92744" y2="98.08975" gradientUnits="userSpaceOnUse" id="color-14"><stop offset="0" stop-color="#fed831"/><stop offset="1" stop-color="#ffef85"/></linearGradient><linearGradient x1="84.59238" y1="192.77607" x2="66.27305" y2="198.03281" gradientUnits="userSpaceOnUse" id="color-15"><stop offset="0" stop-color="#161311"/><stop offset="1" stop-color="#263136"/></linearGradient><linearGradient x1="45.32256" y1="187.68662" x2="53.47529" y2="196.21318" gradientUnits="userSpaceOnUse" id="color-16"><stop offset="0" stop-color="#979595"/><stop offset="1" stop-color="#b5b5b8"/></linearGradient><linearGradient x1="68.09355" y1="230.87959" x2="80.90654" y2="229.75518" gradientUnits="userSpaceOnUse" id="color-17"><stop offset="0" stop-color="#4d4d4e"/><stop offset="1" stop-color="#737475"/></linearGradient><linearGradient x1="102.8124" y1="201.19277" x2="104.12637" y2="209.62471" gradientUnits="userSpaceOnUse" id="color-18"><stop offset="0" stop-color="#1e3c41"/><stop offset="1" stop-color="#435665"/></linearGradient><linearGradient x1="19.38589" y1="214.20352" x2="19.62047" y2="215.52217" gradientUnits="userSpaceOnUse" id="color-19"><stop offset="0" stop-color="#182423"/><stop offset="1" stop-color="#1f212d"/></linearGradient></defs><g clip-path="url(#clip-1)" fill="none" fill-rule="nonzero" stroke="none" stroke-width="1" stroke-linecap="butt" stroke-linejoin="miter" stroke-miterlimit="10" stroke-dasharray="" stroke-dashoffset="0" font-family="none" font-weight="none" font-size="none" text-anchor="none" style="mix-blend-mode: normal"><path d="M69.65273,162.44473c1.275,-3.22236 2.47559,-7.70215 3.55869,-11.13984c1.74844,-5.49844 3.6252,-10.95527 5.6291,-16.36582c3.69463,-10.01865 7.65645,-19.93711 11.88018,-29.74453c5.61211,-13.12471 11.27871,-24.0375 19.20381,-36.30146c6.39814,-9.90146 15.44297,-33.93779 31.44697,-28.39453c5.75186,1.99219 27.52236,9.36768 30.99229,12.82793c1.26826,1.70889 2.23887,2.76445 2.53008,4.91191c0.33398,1.25361 0.95186,3.27012 0.99668,4.5c0.81533,0.26455 5.95723,2.44277 6.5168,2.84648c4.94502,2.654 5.7999,2.45713 7.63975,-3.28975c0.56748,-1.77305 1.91807,-4.1792 3.06094,-5.67217c8.38359,-9.10283 17.94287,-1.61602 26.90039,2.12402c1.67461,0.69902 3.32578,1.50264 5.00244,2.22012c17.05869,7.24219 34.01777,14.71611 50.87256,22.42031c3.30146,1.41826 6.21621,4.06992 7.58789,7.5457c3.55342,9.00439 -2.75098,17.95195 -5.88721,26.1208c-1.06611,2.77764 -4.22139,8.05283 -3.95889,10.61807c1.07021,1.12529 3.06855,1.2791 4.60107,2.49258c2.58984,1.34648 3.92168,1.8041 5.51338,4.32803c3.96299,10.58643 0.20273,40.846 1.56094,53.2582c0.22031,2.01416 0.0999,15.31465 -0.45264,16.66904c-0.2625,2.12402 -0.48955,2.0499 1.51611,3.20947c-0.30762,2.43164 -11.02617,14.59424 -13.83281,15.4459l-0.27539,0.08525c-0.22793,0.06855 -0.41367,0.11572 -0.64336,0.16904c-1.53984,1.50703 -4.71533,4.85068 -6.36299,5.9332c-2.55322,1.67725 -6.61318,2.99297 -9.21299,4.7127c-2.32295,1.53662 -4.74668,3.26484 -6.92314,4.99863c-1.57061,1.25156 -3.69316,3.60967 -5.32324,4.61689c-3.39404,2.09736 -7.59082,3.60352 -11.14424,5.46768c-1.77715,0.93223 -3.23232,2.35576 -5.01738,3.41719c-2.91885,1.84951 -3.69141,2.87607 -6.93164,4.29697l-0.17988,0.07705c-0.88975,0.48135 -1.03535,0.55254 -2.0376,0.78896c-5.30215,1.43525 -12.36738,3.12246 -17.84092,1.67754c-9.82793,-2.59482 -23.67158,-6.38057 -32.56201,-11.27637c-2.29014,-0.76875 -5.40322,-1.71885 -7.54717,-2.68125c-10.07813,-2.9499 -12.43418,-4.79326 -21.73242,-9.41074c-1.35146,-0.61201 -11.01943,-3.86455 -12.7626,-4.30342c-3.47051,-0.33135 -17.86523,-6.59385 -20.32734,-9.49307c-1.98223,-1.84424 -9.74473,-0.84316 -12.5874,-0.98789c-4.61016,-0.23496 -5.11494,1.45342 -7.87412,2.29629c0.00088,1.47744 -1.77686,3.55488 -2.77178,4.55332c-0.42979,0.42715 -0.871,0.84229 -1.32363,1.24541c-6.6375,6.71104 -17.6502,12.09316 -27.19717,12.19775l-0.15527,0.00059c-3.03955,1.64268 -17.07217,-0.82354 -20.40439,-2.54912c-5.90792,-1.28643 -13.77606,-6.46494 -17.74928,-11.21045c-1.25769,-3.01875 -3.71361,-4.86299 -0.45331,-7.40713c-3.70843,-16.40596 1.89047,-24.94336 12.09747,-36.78076c9.94506,-9.63809 24.30258,-16.49707 37.69213,-19.96553c1.52461,-0.39463 3.13594,-0.97061 4.67256,-1.09922zM53.42666,223.46719c0.20273,-0.15352 6.77344,-2.43398 7.66465,-2.77266c0.72949,-0.4418 1.41885,-0.96562 2.11055,-1.46748c2.21045,-1.60313 3.42715,-2.81865 5.0833,-4.96494l2.0748,-3.09902c0.94248,-1.74873 1.5999,-3.14502 2.40088,-4.96494c-0.25254,-2.61797 -3.06152,-3.77461 -5.13164,-4.82871c-0.30967,-1.6002 -0.5165,-4.88232 -0.67588,-6.62051c-0.1623,-3.20332 -1.52402,-4.16396 -1.23516,-8.30156c-16.05557,-1.39102 -24.46436,9.40928 -34.90957,19.91133c-2.84186,12.81445 7.5208,17.3625 18.50508,17.32295c1.34238,-0.00498 2.7627,-0.14795 4.11299,-0.21445zM51.19043,176.40293l0.38115,0.25957c0.94395,1.02832 -0.06123,1.95879 1.02158,2.77734l0.6126,-0.25137c1.71738,-2.23623 -0.86514,-1.89287 -1.04736,-4.45518c-0.27246,0.70283 -0.3791,1.23398 -0.96797,1.66963zM55.53018,169.58965c-0.12568,0.99023 -0.11104,1.90957 -0.79482,2.60039l-0.87363,0.43184c2.14512,0.50977 1.2208,2.65518 2.57227,3.63047l0.59443,-0.16787c0.36416,-1.74668 -1.75986,-4.06729 -1.05381,-5.8834l1.00313,-0.4251c-0.40928,0.09346 -1.00957,-0.08994 -1.44756,-0.18633zM32.53154,228.76846c0.01348,1.2208 -0.07822,2.91621 0.35889,4.0043l0.54141,0.24316c0.80391,-0.67441 -0.07559,-1.92686 0.23643,-3.45088zM21.73102,211.19355c0.63252,0.85107 0.73787,0.95566 1.59987,1.57295l1.58889,-1.74902c0.91764,-0.64834 1.47202,-1.84424 1.78881,-2.89043l-0.1921,-0.28477c-2.87897,0.69492 -1.94637,1.99922 -4.57143,1.6793l0.41543,0.52764zM49.12236,177.97148c-0.42979,0.86367 -0.90264,1.57412 -0.79424,2.521c0.56338,0.73887 0.24229,0.53115 1.25537,0.72129c0.71221,-1.1291 0.63252,-0.65801 0.50801,-1.91396c-0.26338,-0.38379 -0.66123,-1.01865 -0.96914,-1.32832zM28.56935,227.0707c-1.16024,-0.34863 -0.73746,-0.0873 -1.57271,-1.06348c-0.71575,1.84102 -0.76512,2.30186 -0.09665,4.14756l0.42935,0.36357c1.60295,-1.06494 0.93185,-1.86563 1.24002,-3.44766zM45.13213,230.78936c-0.08174,1.94063 -0.31787,3.70078 0.08555,5.57666l0.33984,-0.01494c0.7084,-1.27559 0.74619,-2.77969 0.90088,-4.24248c-0.96709,0.03691 -0.98232,-0.56045 -1.32627,-1.31924z" fill="#0d181c"/><path d="M52.1584,174.7333c0.18223,2.5623 2.76475,2.21895 1.04736,4.45518l-0.6126,0.25137c-1.08281,-0.81855 -0.07764,-1.74902 -1.02158,-2.77734l-0.38115,-0.25957c0.58887,-0.43564 0.69551,-0.9668 0.96797,-1.66963z" fill-opacity="0.98824" fill="#3c4446"/><path d="M193.10801,56.62295c8.38359,-9.10283 17.94287,-1.61602 26.90039,2.12402c1.67461,0.69902 3.32578,1.50264 5.00244,2.22012c17.05869,7.24219 34.01777,14.71611 50.87256,22.42031c3.30146,1.41826 6.21621,4.06992 7.58789,7.5457c3.55342,9.00439 -2.75098,17.95195 -5.88721,26.1208c-1.06611,2.77764 -4.22139,8.05283 -3.95889,10.61807c1.07021,1.12529 3.06855,1.2791 4.60107,2.49258c2.58984,1.34648 3.92168,1.8041 5.51338,4.32803c-0.20977,0.53379 -0.52764,1.26943 -0.69199,1.79648l-0.13887,0.31318c-0.80713,1.57646 -2.0168,2.50459 -3.12393,3.83525c-15.35947,18.45938 -27.58301,39.95713 -40.2457,60.27773c-0.08613,0.26221 -0.20537,0.61377 -0.34395,0.85166c-5.25557,9.02432 -10.42031,18.09844 -15.56836,27.18428c-2.61562,4.41416 -4.80176,9.52793 -7.95205,13.56152c-3.55957,4.55713 -9.36006,7.31865 -15.08965,5.54414c-7.59785,-2.35313 -14.93818,-5.65986 -22.19766,-8.7958l-28.63652,-12.34014c-8.59453,-3.77783 -17.32793,-7.13203 -25.81582,-11.25645c-3.32021,-1.61338 -6.97002,-3.029 -10.19414,-4.81963c2.30127,-9.52207 8.31562,-18.99814 12.65859,-27.74121c5.429,-10.93008 11.5582,-21.50625 17.43428,-32.19316c4.49355,-7.94502 8.4873,-16.22695 12.82559,-24.23965c3.59678,-6.64336 7.2835,-12.71982 10.23105,-19.73701c2.21953,-5.28369 6.2373,-10.30371 7.85918,-15.89766c1.07842,-3.72041 0.23848,-7.54131 0.07939,-11.30332c0.10605,-0.97646 0.11045,-2.22891 0.29736,-3.1834c0.85898,-4.38691 0.28447,-9.06328 0.73857,-13.38018l0.02549,-0.23086c0.81533,0.26455 5.95723,2.44277 6.5168,2.84648c4.94502,2.654 5.7999,2.45713 7.63975,-3.28975c0.56748,-1.77305 1.91807,-4.1792 3.06094,-5.67217z" fill="#364e5c"/><path d="M193.10801,56.62295c8.38359,-9.10283 17.94287,-1.61602 26.90039,2.12402c1.67461,0.69902 3.32578,1.50264 5.00244,2.22012c17.05869,7.24219 34.01777,14.71611 50.87256,22.42031c3.30146,1.41826 6.21621,4.06992 7.58789,7.5457c3.55342,9.00439 -2.75098,17.95195 -5.88721,26.1208c-1.06611,2.77764 -4.22139,8.05283 -3.95889,10.61807c1.07021,1.12529 3.06855,1.2791 4.60107,2.49258c-1.35937,0.99902 -3.17549,0.62549 -3.5124,0.96562c-2.34785,2.37158 -6.55986,9.646 -8.24707,12.17373c-2.69385,3.90732 -11.30508,14.66982 -16.85361,13.64443c-5.51602,-1.01924 -13.22051,-4.79766 -18.47666,-7.1332l-23.98711,-10.8123c-10.86855,-4.9415 -21.82588,-9.75967 -32.52393,-15.03135c-4.85654,-2.39297 -8.2998,-5.08037 -7.22432,-10.996c0.22998,-1.26445 1.85566,-6.84902 2.70146,-7.4792l0.39639,0.89385c1.81611,-3.26367 8.06426,-16.44873 8.89102,-19.72588c-0.72715,0.4459 -2.29805,3.14795 -3.00762,4.10742l-0.19189,0.02109c2.05254,-4.35879 4.16367,-8.69004 6.33281,-12.99229c1.08926,-2.20547 2.22539,-4.40977 3.15996,-6.68115c0.9167,-2.22773 -2.03848,-2.76445 -3.27598,-5.53447c4.94502,2.654 5.7999,2.45713 7.63975,-3.28975c0.56748,-1.77305 1.91807,-4.1792 3.06094,-5.67217z" fill="url(#color-1)"/><path d="M275.8834,83.3874c3.30146,1.41826 6.21621,4.06992 7.58789,7.5457c3.55342,9.00439 -2.75098,17.95195 -5.88721,26.1208c-1.06611,2.77764 -4.22139,8.05283 -3.95889,10.61807c1.07021,1.12529 3.06855,1.2791 4.60107,2.49258c-1.35937,0.99902 -3.17549,0.62549 -3.5124,0.96562c-2.34785,2.37158 -6.55986,9.646 -8.24707,12.17373c-2.69385,3.90732 -11.30508,14.66982 -16.85361,13.64443c-5.51602,-1.01924 -13.22051,-4.79766 -18.47666,-7.1332l-23.98711,-10.8123c-10.86855,-4.9415 -21.82588,-9.75967 -32.52393,-15.03135c-4.85654,-2.39297 -8.2998,-5.08037 -7.22432,-10.996c0.22998,-1.26445 1.85566,-6.84902 2.70146,-7.4792l0.39639,0.89385l-0.14531,1.4877c-1.03916,3.16494 -2.30039,7.36611 -0.8373,10.61631c0.81621,1.66289 3.87568,3.61055 5.54443,4.35498c11.12021,4.96143 22.09482,10.26533 33.14736,15.34277c11.08125,5.09092 22.41152,10.0292 33.64658,14.75889c2.64082,1.11152 5.63818,2.05693 8.48174,2.41904c1.14053,0.12979 2.34932,-0.80449 3.14619,-1.5126c1.26797,-1.14785 2.3083,-2.52422 3.06621,-4.05762c2.28867,-4.6002 3.71719,-9.6416 5.75068,-14.36338c3.01289,-6.99609 18.53057,-39.12891 18.68027,-43.73936c0.10254,-3.15615 -3.13623,-6.11572 -5.09648,-8.30947z" fill="#010203"/><path d="M193.10801,56.62295c-0.88184,5.41963 -3.04688,8.28486 -5.42285,13.11563c-1.67168,3.46084 -3.30586,6.93926 -4.90283,10.43525c-4.33242,9.53701 -7.60342,18.05742 -12.42861,27.704l0.14531,-1.4877c1.81611,-3.26367 8.06426,-16.44873 8.89102,-19.72588c-0.72715,0.4459 -2.29805,3.14795 -3.00762,4.10742l-0.19189,0.02109c2.05254,-4.35879 4.16367,-8.69004 6.33281,-12.99229c1.08926,-2.20547 2.22539,-4.40977 3.15996,-6.68115c0.9167,-2.22773 -2.03848,-2.76445 -3.27598,-5.53447c4.94502,2.654 5.7999,2.45713 7.63975,-3.28975c0.56748,-1.77305 1.91807,-4.1792 3.06094,-5.67217z" fill="#0d181c"/><path d="M204.97617,67.99307c9.85957,3.75527 18.16025,7.74785 27.77139,12.15732c8.10996,3.63691 16.61367,6.58594 24.55693,10.57617c4.36113,2.19053 6.15879,2.40439 4.53574,7.38721c0.51504,2.73311 -11.46064,22.89873 -12.6375,27.35918c-1.21143,4.5917 -0.94395,5.94697 -3.43184,10.11211l-0.25371,0.11777c-0.94541,1.10771 -0.8833,1.40537 -2.10205,1.67021c-4.23486,-1.16924 -9.63398,-4.10449 -13.6708,-5.89629c-5.40586,-2.55762 -11.05107,-4.84102 -16.41738,-7.47246c-8.99531,-4.41035 -20.17471,-7.41885 -28.22959,-13.2252c2.55117,-6.9293 5.93115,-13.97373 9.03633,-20.7252c3.32871,-7.23779 6.61055,-15.39287 10.84248,-22.06084z" fill="url(#color-2)"/><path d="M204.97617,67.99307c9.85957,3.75527 18.16025,7.74785 27.77139,12.15732c8.10996,3.63691 16.61367,6.58594 24.55693,10.57617c4.36113,2.19053 6.15879,2.40439 4.53574,7.38721c-0.26309,-0.3665 -0.49863,-1.02363 -0.67734,-1.45869c-2.88896,-2.16445 -10.425,-4.84102 -14.12695,-6.53555c-6.38525,-2.92236 -12.80186,-5.90332 -19.19795,-8.8125c-6.48867,-2.95137 -14.71025,-5.76709 -20.8125,-9.15557c-1.15342,2.34082 -2.2793,4.74229 -3.47314,7.05645c-5.32529,10.3251 -9.5127,21.03428 -14.66953,31.44199c3.82119,2.26582 8.04756,3.4418 12.04424,5.32148c9.04834,4.25625 18.24229,8.21133 27.32227,12.38613c2.28809,1.05205 14.2377,7.10625 15.77959,6.95596l0.56191,-0.63926c0.39141,0.34248 0.71572,0.55723 0.92637,1.02861c-0.94541,1.10771 -0.8833,1.40537 -2.10205,1.67021c-4.23486,-1.16924 -9.63398,-4.10449 -13.6708,-5.89629c-5.40586,-2.55762 -11.05107,-4.84102 -16.41738,-7.47246c-8.99531,-4.41035 -20.17471,-7.41885 -28.22959,-13.2252c2.55117,-6.9293 5.93115,-13.97373 9.03633,-20.7252c3.32871,-7.23779 6.61055,-15.39287 10.84248,-22.06084z" fill="#010203"/><path d="M261.16289,96.65508c0.17871,0.43506 0.41426,1.09219 0.67734,1.45869c0.51504,2.73311 -11.46064,22.89873 -12.6375,27.35918c-1.21143,4.5917 -0.94395,5.94697 -3.43184,10.11211l-0.25371,0.11777c-0.21064,-0.47139 -0.53496,-0.68613 -0.92637,-1.02861c3.29385,-8.41318 7.69512,-17.06748 11.30303,-25.37783c1.56621,-3.60732 4.32949,-8.99443 5.26904,-12.64131z" fill="#364e5c"/><path d="M277.28613,139.78301c1.92188,-1.80732 2.49375,-4.17246 5.62266,-3.18076c-0.80713,1.57646 -2.0168,2.50459 -3.12393,3.83525c-15.35947,18.45938 -27.58301,39.95713 -40.2457,60.27773l-0.1459,-0.13916c-0.21943,-1.73291 17.37451,-26.47588 16.529,-28.93887c-1.31191,1.03389 -5.70205,8.94346 -7.53955,11.26084l-0.19072,-0.24844c6.53437,-9.82559 12.03604,-20.14424 19.17129,-29.68125c3.52588,-4.71299 5.83594,-8.66016 9.92285,-13.18535z" fill="url(#color-3)"/><path d="M278.22627,130.16455c2.58984,1.34648 3.92168,1.8041 5.51338,4.32803c-0.20977,0.53379 -0.52764,1.26943 -0.69199,1.79648c-0.96445,-1.21611 -1.33213,-1.60254 -2.51133,-2.61064l0.59619,-0.66914c-0.17607,-0.59033 -0.61436,-0.78662 -1.14492,-1.15986c-0.74766,-0.12803 -0.9252,0.01143 -1.66758,0.29121c-1.11387,-0.25723 -2.72344,-1.04971 -3.31963,-0.56719c-2.89893,2.34639 -5.37568,9.96533 -8.53359,11.73047c1.68721,-2.52773 5.89922,-9.80215 8.24707,-12.17373c0.33691,-0.34014 2.15303,0.0334 3.5124,-0.96562z" fill="#233039"/><path d="M203.33086,149.57578l0.47813,-0.52734c1.26768,0.14883 3.56514,2.04609 4.28613,3.05801c7.10361,9.97324 -7.99131,19.96611 -15.13389,10.55127c-0.58594,-0.77256 -1.2498,-2.49785 -1.66113,-3.44355c-0.31846,-2.51133 0.37207,-7.45078 3.16465,-8.2834l0.57451,0.33867c3.49951,-2.09414 4.26885,-2.23975 8.2916,-1.69365z" fill="#02c2f5"/><path d="M203.33086,149.57578l0.47813,-0.52734c1.26768,0.14883 3.56514,2.04609 4.28613,3.05801c7.10361,9.97324 -7.99131,19.96611 -15.13389,10.55127c-0.58594,-0.77256 -1.2498,-2.49785 -1.66113,-3.44355l1.10156,-0.41514c1.80234,3.67119 4.60254,5.78613 8.85557,5.08975c2.13135,-0.34219 4.03535,-1.52666 5.28486,-3.28652c3.09756,-4.33799 0.66504,-8.39941 -3.21123,-11.02646z" fill="#010203"/><path d="M191.3001,159.21416c-0.31846,-2.51133 0.37207,-7.45078 3.16465,-8.2834l0.57451,0.33867c-2.40264,2.40938 -3.32549,3.98848 -2.6376,7.52959z" fill="#0d181c"/><path d="M195.11719,211.87822c3.49688,-2.10059 9.82852,2.30156 12.81357,4.30488c0.44736,0.57334 0.81328,0.80771 0.62344,1.58848c-0.79512,3.26748 -4.59404,8.15273 -7.06055,10.171c-3.62227,-1.37812 -11.60098,-3.35889 -12.00176,-7.66816c2.07568,-3.55225 1.36523,-5.46445 5.62529,-8.39619z" fill="#5d717b"/><path d="M207.93076,216.18311c0.44736,0.57334 0.81328,0.80771 0.62344,1.58848c-0.79512,3.26748 -4.59404,8.15273 -7.06055,10.171c-3.62227,-1.37812 -11.60098,-3.35889 -12.00176,-7.66816c0.5666,-0.03633 0.9126,-0.1333 1.37139,0.18076c3.88623,1.6251 5.45977,3.14795 10.35732,4.76836c1.50732,-1.59639 3.98262,-5.73604 5.53447,-7.83486z" fill="#010203"/><path d="M195.11719,211.87822c3.49688,-2.10059 9.82852,2.30156 12.81357,4.30488l-1.17568,1.20557c-1.54336,-1.9415 -7.26475,-3.76729 -9.59443,-4.54482c-0.52354,-1.03945 -0.7998,0.20742 -2.04346,-0.96562z" fill="url(#color-4)"/><path d="M195.11719,211.87822c1.24365,1.17305 1.51992,-0.07383 2.04346,0.96562c-0.84434,-0.0958 -1.3002,-0.27803 -2.08154,0.31846c-1.34297,1.02539 -4.17305,5.61885 -4.21582,7.29287c-0.45879,-0.31406 -0.80479,-0.21709 -1.37139,-0.18076c2.07568,-3.55225 1.36523,-5.46445 5.62529,-8.39619z" fill="#0d181c"/><path d="M135.27129,198.14385c1.29111,-5.73252 5.8998,-13.61133 12.3416,-9.27363c2.18906,1.47422 3.45879,1.9708 5.4791,3.89443c0.51445,0.86631 0.76934,1.08076 0.43359,2.18057c-0.84258,2.76006 -4.61514,10.65996 -8.204,9.15586c-2.35078,-0.98525 -9.19219,-3.54082 -10.05029,-5.95723z" fill="#5d717b"/><path d="M152.20869,194.14629c0.21738,-0.77725 0.27129,-0.8543 0.8833,-1.38164c0.51445,0.86631 0.76934,1.08076 0.43359,2.18057c-0.84258,2.76006 -4.61514,10.65996 -8.204,9.15586c-2.35078,-0.98525 -9.19219,-3.54082 -10.05029,-5.95723l0.97207,-0.3791c2.06191,0.26777 8.29219,3.02168 10.4666,3.92754c2.21279,-2.27783 3.60586,-5.01064 5.49873,-7.546z" fill="#010203"/><path d="M135.27129,198.14385c1.29111,-5.73252 5.8998,-13.61133 12.3416,-9.27363c2.18906,1.47422 3.45879,1.9708 5.4791,3.89443c-0.61201,0.52734 -0.66592,0.60439 -0.8833,1.38164c-2.39502,-2.6751 -6.43066,-4.14023 -9.46084,-6.12451c-1.8873,2.31533 -5.73047,6.95273 -6.50449,9.74297z" fill="url(#color-5)"/><path d="M204.75059,194.43018c3.85928,0.91084 8.46533,3.15703 11.32676,5.90186c0.50391,0.56602 1.07021,0.99785 0.92725,1.80205c-0.59854,3.36182 -4.60195,7.22373 -6.32666,9.92959c-4.61602,-2.5292 -10.51025,-3.61465 -12.29414,-8.92178c0.89326,-4.17158 3.07354,-6.33428 6.3668,-8.71172z" fill="#728590"/><path d="M215.36426,200.98066l0.71309,-0.64863c0.50391,0.56602 1.07021,0.99785 0.92725,1.80205c-0.59854,3.36182 -4.60195,7.22373 -6.32666,9.92959c-4.61602,-2.5292 -10.51025,-3.61465 -12.29414,-8.92178l1.1373,0.22354c3.48955,2.67012 6.68379,3.65098 10.3002,5.90889c2.10469,-2.3209 3.90732,-5.57168 5.54297,-8.29365z" fill="#010203"/><path d="M204.75059,194.43018c3.85928,0.91084 8.46533,3.15703 11.32676,5.90186l-0.71309,0.64863c-2.86611,-1.99893 -7.39893,-3.51797 -10.57295,-5.57959c-1.97051,2.13955 -4.49824,5.09473 -5.27021,7.96436l-1.1373,-0.22354c0.89326,-4.17158 3.07354,-6.33428 6.3668,-8.71172z" fill="url(#color-6)"/><path d="M174.97266,202.95762c3.31963,-1.41621 9.11279,2.51396 11.24033,5.00127c1.86738,2.47471 -1.64033,6.45645 -2.78174,8.66104c-3,5.79375 -10.98252,-0.49336 -13.38311,-4.10918c0.104,-3.34717 0.23086,-4.23721 1.5665,-7.28877c1.05264,-0.75762 2.27021,-1.53486 3.35801,-2.26436z" fill="#5d717b"/><path d="M174.97266,202.95762l0.4708,0.50156c-2.1293,3.3041 -3.02695,4.72559 -4.29141,8.39326c3.27422,2.521 4.38604,3.10986 8.2377,4.63301c2.65488,-2.23594 4.25039,-4.31514 6.04512,-7.31133c0.19307,-0.89766 0.00674,-0.56895 0.77812,-1.21523c1.86738,2.47471 -1.64033,6.45645 -2.78174,8.66104c-3,5.79375 -10.98252,-0.49336 -13.38311,-4.10918c0.104,-3.34717 0.23086,-4.23721 1.5665,-7.28877c1.05264,-0.75762 2.27021,-1.53486 3.35801,-2.26436z" fill="url(#color-7)"/><path d="M174.97266,202.95762c3.31963,-1.41621 9.11279,2.51396 11.24033,5.00127c-0.77139,0.64629 -0.58506,0.31758 -0.77812,1.21523c-1.679,-2.22891 -7.12383,-6.1166 -9.99141,-5.71494z" fill="#0d181c"/><path d="M222.95186,161.40615c2.43428,1.07783 10.26299,4.28525 11.65137,5.87988l0.32227,-0.57891l0.52939,-0.04277c2.521,2.54326 -2.99004,8.64053 -4.95,10.45869c-3.63018,-0.89678 -7.1833,-2.14424 -10.6415,-3.56016c-2.86934,-1.1751 -3.0832,-1.45254 -3.14004,-4.36025c0.13477,-2.28457 0.68145,-3.17168 2.23418,-4.69863l-0.20215,0.38467c0.50771,-0.31611 1.13789,-0.60293 1.39365,-1.1502l0.5291,0.24463z" fill="#02c2f5"/><path d="M234.60322,167.28604l0.32227,-0.57891l0.52939,-0.04277c2.521,2.54326 -2.99004,8.64053 -4.95,10.45869c-3.63018,-0.89678 -7.1833,-2.14424 -10.6415,-3.56016c-2.86934,-1.1751 -3.0832,-1.45254 -3.14004,-4.36025l1.21553,0.09609c2.51104,1.96113 8.79961,5.51748 12.18604,4.92363c1.51875,-0.26602 3.70869,-5.34082 4.47832,-6.93633z" fill="#010203"/><path d="M216.72334,169.20264c0.13477,-2.28457 0.68145,-3.17168 2.23418,-4.69863l-0.20215,0.38467c0.50771,-0.31611 1.13789,-0.60293 1.39365,-1.1502l0.5291,0.24463c-1.23018,1.91455 -2.10498,3.10107 -2.73926,5.31563z" fill="#233039"/><path d="M212.30918,180.22939c4.03652,1.01426 6.45146,1.875 10.13525,3.77461l-0.00996,-0.87861c0.81855,-0.11162 1.52139,0.66914 2.18906,1.22402c1.08691,0.77725 0.94688,0.43682 1.30576,1.53838c-0.28271,2.83037 -3.6375,7.25889 -5.67393,9.18105c-3.00645,-0.72305 -11.99678,-3.3041 -13.21846,-6.51445c0.43564,-0.64014 0.24932,-0.43447 1.23018,-0.66475c0.66621,-2.24531 2.79609,-5.68271 4.04209,-7.66025z" fill="#728590"/><path d="M224.62354,184.34941c1.08691,0.77725 0.94688,0.43682 1.30576,1.53838c-0.28271,2.83037 -3.6375,7.25889 -5.67393,9.18105c-3.00645,-0.72305 -11.99678,-3.3041 -13.21846,-6.51445c0.43564,-0.64014 0.24932,-0.43447 1.23018,-0.66475c0.88506,0.50947 1.78623,0.99053 2.70205,1.44287c8.09414,4.07197 9.28945,4.13232 13.21055,-4.3002z" fill="#010203"/><path d="M222.44443,184.004l-0.00996,-0.87861c0.81855,-0.11162 1.52139,0.66914 2.18906,1.22402l-0.44385,0.68291z" fill="#0d181c"/><path d="M151.46924,173.22422l-0.25459,-0.36885c3.5083,-2.42988 8.18057,2.57607 10.87441,4.06729c1.4833,3.14531 -3.49131,9.33428 -5.79727,11.2752c-2.90801,-0.83379 -11.89805,-3.28213 -10.40039,-7.62041l0.4251,-0.12744c0.18193,0.38555 0.30645,0.60117 0.39141,1.02715c0.62549,-4.02422 2.56523,-5.30596 4.76133,-8.25293z" fill="#728590"/><path d="M162.08906,176.92266c1.4833,3.14531 -3.49131,9.33428 -5.79727,11.2752c-2.90801,-0.83379 -11.89805,-3.28213 -10.40039,-7.62041l0.4251,-0.12744c0.18193,0.38555 0.30645,0.60117 0.39141,1.02715c2.73398,1.8208 6.10049,2.84824 9.2124,3.89795c2.03994,-1.8375 3.68379,-4.5999 5.19551,-6.92871c0.3498,-0.2127 0.7333,-1.08838 0.97324,-1.52373z" fill="#010203"/><path d="M151.46924,173.22422l-0.25459,-0.36885c3.5083,-2.42988 8.18057,2.57607 10.87441,4.06729c-0.23994,0.43535 -0.62344,1.31104 -0.97324,1.52373c-0.93398,-1.80615 -7.57998,-4.66875 -9.64658,-5.22217z" fill="url(#color-8)"/><path d="M185.32471,186.23936c4.62305,1.23105 7.22168,3.17314 10.53955,6.52852c-1.36172,3.32256 -3.01904,7.09102 -5.99004,9.25693c-3.53555,-0.25049 -6.47607,-1.7083 -9.3082,-3.77021c-2.12256,-1.54541 0.82383,-2.37363 -0.33047,-5.30186c-0.51475,-1.30605 4.16338,-5.76475 5.08916,-6.71338z" fill="url(#color-9)"/><path d="M184.94209,188.64814c2.97861,0.0668 6.42949,2.22305 8.55293,4.25098c-1.00547,2.92236 -2.06924,4.69277 -4.29316,6.79893c-1.59463,0.16348 -5.26348,-1.14551 -6.41484,-2.26406c-3.30674,-3.2124 -0.36445,-6.37178 2.15508,-8.78584z" fill="#728590"/><path d="M159.00352,198.40078c2.98652,-3.88916 8.02646,-0.40518 10.47656,2.25586c2.06396,3.54668 -1.52197,8.63525 -3.69346,11.57402c-4.36494,-1.78359 -7.97109,-1.55537 -10.63945,-5.97568c0.01934,-4.03389 0.33955,-5.49023 3.85635,-7.8542z" fill="#728590"/><path d="M168.64072,202.09336c0.16494,-0.92461 0.12393,-0.66035 0.83936,-1.43672c2.06396,3.54668 -1.52197,8.63525 -3.69346,11.57402c-4.36494,-1.78359 -7.97109,-1.55537 -10.63945,-5.97568c0.17549,-0.71807 0.23291,-0.83672 0.60176,-1.47861l0.76318,-0.2001c1.89668,2.71934 4.85127,3.54258 7.83193,4.58994c2.04814,-2.17617 3.03047,-4.39131 4.29668,-7.07285z" fill="#010203"/><path d="M159.00352,198.40078c2.98652,-3.88916 8.02646,-0.40518 10.47656,2.25586c-0.71543,0.77637 -0.67441,0.51211 -0.83936,1.43672c-0.9375,-1.63125 -3.64541,-3.28213 -5.52363,-3.58799c-1.67783,-0.27305 -1.96348,-0.02373 -3.29033,0.9123z" fill="url(#color-10)"/><path d="M159.00352,198.40078l0.82324,1.01689c-1.67109,1.81143 -2.28076,2.85293 -3.31465,5.15859l-0.76318,0.2001c-0.36885,0.64189 -0.42627,0.76055 -0.60176,1.47861c0.01934,-4.03389 0.33955,-5.49023 3.85635,-7.8542z" fill="#233039"/><path d="M193.61543,172.58438c3.17988,-1.92568 7.08721,0.84404 9.05273,3.37471c2.054,4.05 -1.50967,8.22158 -4.55361,10.60869c-3.43301,-0.58242 -8.43457,-1.74785 -9.97793,-5.25674c-0.90938,-2.94316 3.15615,-7.30518 5.47881,-8.72666z" fill="#728590"/><path d="M202.66816,175.95908c2.054,4.05 -1.50967,8.22158 -4.55361,10.60869c-3.43301,-0.58242 -8.43457,-1.74785 -9.97793,-5.25674c0.78574,-0.80859 0.56924,-0.57217 1.84043,-0.82588c5.02939,4.41328 11.06309,3.58477 11.94639,-3.59385z" fill="#010203"/><path d="M193.61543,172.58438l0.2543,0.65947c-1.54541,2.10732 -3.48223,4.60811 -3.89268,7.24131c-1.27119,0.25371 -1.05469,0.01729 -1.84043,0.82588c-0.90938,-2.94316 3.15615,-7.30518 5.47881,-8.72666z" fill="#0d181c"/><path d="M193.61543,172.58438c3.17988,-1.92568 7.08721,0.84404 9.05273,3.37471l-0.74473,0.93223c-2.15479,-2.00684 -4.9251,-4.29404 -8.05371,-3.64746z" fill="#0d181c"/><path d="M164.96748,147.47637c2.85205,-5.53096 4.70244,-9.0126 11.56875,-4.89668c1.31484,0.78809 2.32617,1.25537 2.71846,2.83828l0.14941,-1.25361l0.54141,-0.27334c2.83066,2.18496 -1.30254,10.32334 -5.35313,10.21846c-3.6668,-0.09521 -8.86963,-2.40527 -10.37432,-5.96982l0.05479,-0.7623l0.43799,-0.10137z" fill="#7e9fb3"/><path d="M179.25469,145.41797l0.14941,-1.25361l0.54141,-0.27334c2.83066,2.18496 -1.30254,10.32334 -5.35313,10.21846c-3.6668,-0.09521 -8.86963,-2.40527 -10.37432,-5.96982l0.05479,-0.7623l0.43799,-0.10137l0.25664,0.20039c1.9626,1.85977 7.00811,5.325 9.87744,4.07666c2.40732,-1.04736 3.4374,-3.88125 4.40977,-6.13506z" fill="#010203"/><path d="M173.49639,173.71143c-0.0917,-0.35889 -0.12949,-0.64717 -0.09404,-1.02187c0.22119,-2.23857 1.3459,-4.28965 3.11396,-5.68008c3.69873,-2.88516 8.13223,-1.96465 10.88232,1.7001c3.56777,6.1002 -7.5958,16.77422 -13.48535,5.84033c-0.14707,-0.2751 -0.28623,-0.55488 -0.41689,-0.83848z" fill="#728590"/><path d="M187.39863,168.70957c3.56777,6.1002 -7.5958,16.77422 -13.48535,5.84033c-0.14707,-0.2751 -0.28623,-0.55488 -0.41689,-0.83848c0.19834,-0.21855 0.8083,-0.63428 1.08047,-0.83174c5.4873,6.99199 8.85967,3.94072 12.04395,-2.6168c0.10635,-0.79424 0.26338,-0.92373 0.77783,-1.55332z" fill="#010203"/><path d="M173.49639,173.71143c-0.0917,-0.35889 -0.12949,-0.64717 -0.09404,-1.02187c0.22119,-2.23857 1.3459,-4.28965 3.11396,-5.68008c3.69873,-2.88516 8.13223,-1.96465 10.88232,1.7001c-0.51445,0.62959 -0.67148,0.75908 -0.77783,1.55332c-0.65215,-1.58584 -1.50059,-1.84805 -2.85439,-2.68301c-4.87119,-3.00322 -7.52783,0.93838 -9.18955,5.2998c-0.27217,0.19746 -0.88213,0.61318 -1.08047,0.83174z" fill="#0d181c"/><path d="M164.24238,186.54023c1.66143,-2.78262 5.84912,-5.99209 9.27041,-5.55029c2.63848,0.34072 3.4957,1.52051 5.07539,3.4043c0.37998,0.32754 1.14111,0.81299 1.1209,1.35205c-0.10049,2.66631 -1.63242,4.85859 -3.15762,6.86777c-2.89922,3.81885 -6.60674,1.79092 -9.66035,-0.6873c-1.40156,-1.1376 -3.19219,-3.34131 -2.64873,-5.38652z" fill="#728590"/><path d="M178.58818,184.39424c0.37998,0.32754 1.14111,0.81299 1.1209,1.35205c-0.10049,2.66631 -1.63242,4.85859 -3.15762,6.86777c-2.89922,3.81885 -6.60674,1.79092 -9.66035,-0.6873c-1.40156,-1.1376 -3.19219,-3.34131 -2.64873,-5.38652l1.41064,0.90264c1.24893,2.49492 4.45781,5.88311 7.60635,4.49678c2.446,-1.07695 3.33486,-3.54756 4.24658,-5.85996c0.18018,-0.51445 0.74209,-1.20791 1.08223,-1.68545z" fill="url(#color-11)"/><path d="M164.24238,186.54023c1.66143,-2.78262 5.84912,-5.99209 9.27041,-5.55029c2.63848,0.34072 3.4957,1.52051 5.07539,3.4043c-0.34014,0.47754 -0.90205,1.171 -1.08223,1.68545c-2.41787,-5.59922 -9.33545,-4.0998 -11.85293,1.36318z" fill="url(#color-12)"/><path d="M155.31416,164.68447c1.45195,-3.30352 2.27402,-4.35498 5.08828,-6.4166c2.51719,1.18594 6.91582,3.00908 9.1374,4.3292l0.18428,-0.63574c0.83789,0.1002 0.51621,-0.04014 1.20146,0.66387c0.43154,1.87471 -0.74883,3.87246 -1.65293,5.44746c-2.83887,4.94736 -7.11299,4.58145 -11.42783,1.6752c-1.72705,-1.16309 -3.79043,-2.77529 -3.18281,-5.11113l0.35625,-0.28301z" fill="#728590"/><path d="M169.53984,162.59707l0.18428,-0.63574c0.83789,0.1002 0.51621,-0.04014 1.20146,0.66387c0.43154,1.87471 -0.74883,3.87246 -1.65293,5.44746c-2.83887,4.94736 -7.11299,4.58145 -11.42783,1.6752c-1.72705,-1.16309 -3.79043,-2.77529 -3.18281,-5.11113l0.35625,-0.28301l0.2959,0.33076c1.004,1.61191 3.95654,3.14268 5.60625,4.10537c5.02881,2.93467 6.94512,-2.54678 8.61943,-6.19277z" fill="#010203"/><path d="M69.65273,162.44473c1.275,-3.22236 2.47559,-7.70215 3.55869,-11.13984c1.74844,-5.49844 3.6252,-10.95527 5.6291,-16.36582c3.69463,-10.01865 7.65645,-19.93711 11.88018,-29.74453c5.61211,-13.12471 11.27871,-24.0375 19.20381,-36.30146c6.39814,-9.90146 15.44297,-33.93779 31.44697,-28.39453c5.75186,1.99219 27.52236,9.36768 30.99229,12.82793c-1.1666,0.97178 -2.49844,1.74199 -3.76553,2.58926c-17.61914,15.52617 -43.85947,68.43252 -52.36934,90.91113l-1.51582,4.07695c-0.38408,1.61484 -1.43203,5.09678 -2.054,6.55107c-3.55693,8.3168 -6.00879,24.67324 -13.09014,30.55137c-3.20127,0.04629 -4.88232,-0.02344 -8.02559,-0.76963c-0.92402,-0.21943 -3.15293,-0.7793 -3.92842,-0.8584l-4.26826,-1.64414c-2.34609,-1.72529 -12.21855,-6.06562 -15.45586,-7.62598c-0.24873,-2.2251 -0.2165,-4.06465 -0.20537,-6.30557c0.37793,-3.11602 1.70713,-5.70029 1.96729,-8.35781z" fill="url(#color-13)"/><path d="M115.24277,143.38711c10.50674,-24.88213 22.10654,-49.16719 37.25215,-71.68213c1.89814,-2.82187 9.34336,-13.32949 12.56367,-15.20479c0.13975,-0.08145 0.71396,0.41045 0.95098,0.58154c0.79541,0.0334 1.18389,-0.71895 2.09209,-1.47803l0.49658,0.31201c-17.61914,15.52617 -43.85947,68.43252 -52.36934,90.91113c0.02812,-0.92549 0.09785,-1.55449 -0.15674,-2.4498c-0.42158,-0.40195 -0.496,-0.50859 -0.82939,-0.98994z" fill="url(#color-14)"/><path d="M115.24277,143.38711c0.3334,0.48135 0.40781,0.58799 0.82939,0.98994c0.25459,0.89531 0.18486,1.52432 0.15674,2.4498l-1.51582,4.07695c-0.4916,-1.96934 0.73887,-2.63555 0.62578,-3.6873c-0.31992,0.12744 -0.73125,0.29121 -1.23428,0.49131c-0.23379,0.50039 -0.69258,2.7208 -1.06025,2.92295c0.12422,-2.25996 1.38838,-5.0001 2.19844,-7.24365z" fill="#fed642"/><path d="M284.84795,204.41982c-0.2625,2.12402 -0.48955,2.0499 1.51611,3.20947c-0.30762,2.43164 -11.02617,14.59424 -13.83281,15.4459l-0.27539,0.08525c-0.22793,0.06855 -0.41367,0.11572 -0.64336,0.16904c-1.53984,1.50703 -4.71533,4.85068 -6.36299,5.9332c-2.55322,1.67725 -6.61318,2.99297 -9.21299,4.7127c-2.32295,1.53662 -4.74668,3.26484 -6.92314,4.99863c-1.57061,1.25156 -3.69316,3.60967 -5.32324,4.61689c-3.39404,2.09736 -7.59082,3.60352 -11.14424,5.46768c-1.77715,0.93223 -3.23232,2.35576 -5.01738,3.41719c-2.91885,1.84951 -3.69141,2.87607 -6.93164,4.29697l-0.17988,0.07705c-0.88975,0.48135 -1.03535,0.55254 -2.0376,0.78896c-5.30215,1.43525 -12.36738,3.12246 -17.84092,1.67754c-9.82793,-2.59482 -23.67158,-6.38057 -32.56201,-11.27637c-2.29014,-0.76875 -5.40322,-1.71885 -7.54717,-2.68125c-10.07813,-2.9499 -12.43418,-4.79326 -21.73242,-9.41074c-1.35146,-0.61201 -11.01943,-3.86455 -12.7626,-4.30342c-3.47051,-0.33135 -17.86523,-6.59385 -20.32734,-9.49307c-1.98223,-1.84424 -9.74473,-0.84316 -12.5874,-0.98789c-4.61016,-0.23496 -5.11494,1.45342 -7.87412,2.29629c0.00088,1.47744 -1.77686,3.55488 -2.77178,4.55332c-0.42979,0.42715 -0.871,0.84229 -1.32363,1.24541c0.33193,-2.30508 0.84287,-7.71826 0.30352,-9.88066c2.00654,-4.29756 3.14443,-7.94326 3.79424,-12.62578c0.98232,0.55576 1.9708,1.10068 2.96543,1.63447c35.04814,14.01416 69.43271,29.66719 104.12432,44.60859c13.69189,5.89717 23.0168,7.58643 30.86631,-7.9166c2.42988,-4.79912 7.57881,-5.8166 12.07998,-8.42871c15.22764,-8.83652 31.08486,-16.76953 45.92871,-26.2166c1.55977,-0.99316 2.92764,-4.34004 3.63545,-6.01348z" fill="#9f9d9f"/><path d="M85.24775,206.75215c0.98232,0.55576 1.9708,1.10068 2.96543,1.63447c4.87119,5.96426 12.07998,6.01025 17.98799,8.61123c4.89785,2.15596 31.36934,11.70088 33.7459,14.9332l-0.11191,0.45879c-3.19541,0.74502 -29.54004,-11.76299 -34.33184,-13.17422c-2.90449,-0.85518 -12.12656,-2.66836 -14.7917,-1.74404c-0.06357,0.80479 0.45674,1.26416 -0.33164,1.76953c-2.67568,1.71592 -4.66963,0.27686 -5.13457,4.21875c0.00088,1.47744 -1.77686,3.55488 -2.77178,4.55332c-0.42979,0.42715 -0.871,0.84229 -1.32363,1.24541c0.33193,-2.30508 0.84287,-7.71826 0.30352,-9.88066c2.00654,-4.29756 3.14443,-7.94326 3.79424,-12.62578z" fill="#909091"/><path d="M227.62852,252.47578c0.23086,-2.89541 3.04277,-4.50527 5.10762,-5.49609c1.53779,-0.7377 1.95469,-1.74639 4.06904,-2.04609c0.28447,-0.04043 1.03857,-1.70947 1.66904,-2.19316l0.52852,0.11982l-0.03135,0.46436c1.21348,-0.36211 2.59922,-1.46777 3.40781,-2.4041c-0.84551,-0.00938 -1.45254,0.04922 -2.23857,-0.26162c0.78398,-0.6416 3.26748,-1.20762 4.46514,-2.13721c2.33936,-1.81582 4.23984,-4.02832 6.50361,-5.89131c0.41279,0.02695 1.49824,0.05713 1.8123,-0.12217c3.80391,-2.16914 7.80234,-4.05586 11.62705,-6.19775c1.46279,-0.81914 3.02344,-1.31162 4.43115,-2.01152c0.75088,-0.37324 0.51035,-0.71191 1.96934,-1.33301l0.66328,0.36357c-1.53984,1.50703 -4.71533,4.85068 -6.36299,5.9332c-2.55322,1.67725 -6.61318,2.99297 -9.21299,4.7127c-2.32295,1.53662 -4.74668,3.26484 -6.92314,4.99863c-1.57061,1.25156 -3.69316,3.60967 -5.32324,4.61689c-3.39404,2.09736 -7.59082,3.60352 -11.14424,5.46768c-1.77715,0.93223 -3.23232,2.35576 -5.01738,3.41719z" fill="#ccc9ca"/><path d="M138.79688,235.94795c0.95566,-0.55957 0.49277,-0.44326 1.60049,-0.21064c3.69814,0.77607 8.21777,3.64395 11.54033,4.62803c2.66484,-0.21006 13.45488,5.21602 15.80449,6.82617c0.23115,0.40283 0.2959,0.40635 0.33428,0.84844c-2.29014,-0.76875 -5.40322,-1.71885 -7.54717,-2.68125c-10.07813,-2.9499 -12.43418,-4.79326 -21.73242,-9.41074z" fill="#ccc9ca"/><path d="M105.70693,222.15146c0.61348,-0.3167 1.01279,-0.5376 1.68838,-0.14502c2.46914,1.43525 18.34277,8.06074 19.08457,9.0457l-0.03691,0.39199l-0.40869,0.20039c-3.47051,-0.33135 -17.86523,-6.59385 -20.32734,-9.49307z" fill="#ccc9ca"/><path d="M218.47939,257.63877l-1.43145,-0.60498l-0.16201,-0.65039c0.66533,-1.79297 2.62588,-3.18311 3.73418,-4.74932c0.85781,-1.2123 0.70752,-2.2541 2.41816,-2.28457c-0.629,1.03242 -2.33027,6.09551 -2.49521,7.29521l-0.02607,0.20508c-0.88975,0.48135 -1.03535,0.55254 -2.0376,0.78896z" fill="#909091"/><path d="M172.36377,53.32646c1.26826,1.70889 2.23887,2.76445 2.53008,4.91191c-4.39834,0.8751 -12.64336,12.70664 -15.17725,16.72559c-19.92979,31.61367 -36.63545,64.67754 -47.43486,100.56357c-1.82285,6.05713 -2.12871,9.93223 -4.80059,15.85693c-3.67031,4.11152 -7.90078,4.88555 -13.19004,3.56162c-3.92812,-0.9832 -4.97842,-5.27344 -6.67617,-8.56787c0.77549,0.0791 3.00439,0.63896 3.92842,0.8584c3.14326,0.74619 4.82432,0.81592 8.02559,0.76963c7.08135,-5.87813 9.5332,-22.23457 13.09014,-30.55137c0.62197,-1.4543 1.66992,-4.93623 2.054,-6.55107l1.51582,-4.07695c8.50986,-22.47861 34.7502,-75.38496 52.36934,-90.91113c1.26709,-0.84727 2.59893,-1.61748 3.76553,-2.58926z" fill="#be6600"/><path d="M67.89082,177.10811c3.2373,1.56035 13.10977,5.90068 15.45586,7.62598l4.26826,1.64414c1.69775,3.29443 2.74805,7.58467 6.67617,8.56787c5.28926,1.32393 9.51973,0.5499 13.19004,-3.56162c0.16904,0.59912 0.14209,0.57393 -0.07793,1.17627c-1.5082,1.53545 -3.24668,2.91738 -5.42695,3.24902c-4.33535,0.65977 -9.81943,0.46465 -12.3249,-3.76963c-0.74912,-1.26592 -1.51318,-3.46436 -2.51279,-4.11387c-1.2457,-0.12275 -1.48359,0.29414 -2.46709,-0.12715c-2.4876,0.75088 -6.01084,9.27656 -6.63164,11.8002c-0.22822,0.92695 -0.66504,3.5584 -1.04766,4.10068l-0.33428,1.17275l-0.07793,0.23789c-0.52998,1.57441 -2.27197,4.3125 -2.19521,5.24092l0.40781,0.39346c-0.17432,0.5335 -0.42598,1.22813 -0.55957,1.75576c-0.12979,-0.96064 0.03896,-0.96123 -0.56338,-1.51523c-0.63809,0.51533 -1.41445,1.54248 -1.66143,1.66143c-0.3334,-0.04658 -0.36943,-0.04658 -0.68818,0.01992l-0.25254,0.05479l-0.48926,-0.33428l-0.21826,-1.22432c0.94248,-1.74873 1.5999,-3.14502 2.40088,-4.96494c-0.25254,-2.61797 -3.06152,-3.77461 -5.13164,-4.82871c-0.30967,-1.6002 -0.5165,-4.88232 -0.67588,-6.62051c-0.1623,-3.20332 -1.52402,-4.16396 -1.23516,-8.30156c0.30469,-0.78398 1.69746,-7.02188 1.91104,-8.0499l0.14209,1.64883l0.35068,0.09756l0.43887,-0.28096c-0.36973,-1.00254 -0.47695,-1.71035 -0.67002,-2.75479z" fill="url(#color-15)"/><path d="M67.89082,177.10811c3.2373,1.56035 13.10977,5.90068 15.45586,7.62598c-1.51201,0.83848 -1.76309,2.62793 -4.45459,4.33242c-3.58242,-1.55215 -8.37422,-5.70205 -10.33125,-9.20361c-0.36973,-1.00254 -0.47695,-1.71035 -0.67002,-2.75479z" fill="#be6600"/><path d="M66.95332,194.74893l0.27715,-0.57627c1.00078,0.41953 6.08672,6.91289 7.91104,8.59072c-0.71191,1.50996 -1.15049,2.26377 -2.38066,3.43477c-0.25254,-2.61797 -3.06152,-3.77461 -5.13164,-4.82871c-0.30967,-1.6002 -0.5165,-4.88232 -0.67588,-6.62051z" fill="#909091"/><path d="M30.80859,206.35869c0.18867,-4.64121 5.78877,-10.65264 8.81924,-13.86094c5.73223,-6.06855 19.64766,-14.11289 28.00137,-14.10029c-0.21357,1.02803 -1.60635,7.26592 -1.91104,8.0499c-16.05557,-1.39102 -24.46436,9.40928 -34.90957,19.91133z" fill="url(#color-16)"/><path d="M27.28805,183.50947c9.94506,-9.63809 24.30258,-16.49707 37.69213,-19.96553c1.52461,-0.39463 3.13594,-0.97061 4.67256,-1.09922c-0.26016,2.65752 -1.58936,5.2418 -1.96729,8.35781c-0.33018,-0.22559 -0.5417,-0.42246 -0.93545,-0.46758l-0.07119,-0.23525c0.74385,-1.25273 2.06367,-4.84072 2.18027,-6.26455l-0.19658,-0.33164c-3.82148,-0.11836 -15.70137,4.3166 -19.30723,6.35977c0.33545,0.83877 1.11621,0.72393 1.44404,1.35879c0.87539,1.69395 4.74463,7.33242 2.25791,8.66865c-1.45898,-0.46611 -2.00742,-1.53896 -2.071,-2.99795l-0.27832,-0.12598l0.86367,-0.1043c0.94395,1.02832 -0.06123,1.95879 1.02158,2.77734l0.6126,-0.25137c1.71738,-2.23623 -0.86514,-1.89287 -1.04736,-4.45518c-0.27246,0.70283 -0.3791,1.23398 -0.96797,1.66963c-2.34521,-2.82363 -2.20605,-1.73965 -4.83369,-3.12539l-0.16611,-0.08965c-1.1707,0.15645 -1.54717,0.53291 -2.49492,1.2375c-1.00928,0.55869 -1.82842,1.01572 -2.78291,1.66055c-0.5707,0.36621 -0.97383,0.59707 -1.47539,1.06641c-0.47227,0.24404 -1.27441,0.62578 -1.69102,0.90117c-0.96182,0.57422 -3.11455,1.76455 -3.82266,2.47852c-0.58652,0.52852 -1.43027,1.1877 -1.78887,1.85039l-2.33086,1.34414c-0.83807,-0.0791 -1.67675,-0.15146 -2.51596,-0.21709z" fill="#010203"/><path d="M46.19063,173.18789c1.15576,-0.84902 2.37275,-1.78418 3.58359,-2.53799c0.78721,1.40039 1.5334,2.71611 2.38418,4.0834c-0.27246,0.70283 -0.3791,1.23398 -0.96797,1.66963c-2.34521,-2.82363 -2.20605,-1.73965 -4.83369,-3.12539z" fill="#5d717b"/><path d="M53.79756,241.45693c1.04238,-0.3668 2.61416,-1.51875 3.34951,-1.70508c12.58711,-3.18721 18.17227,-8.62178 24.30645,-20.37393c0.53936,2.1624 0.02842,7.57559 -0.30352,9.88066c-6.6375,6.71104 -17.6502,12.09316 -27.19717,12.19775z" fill="url(#color-17)"/><path d="M76.99219,203.7c0.38262,-0.54229 0.81943,-3.17373 1.04766,-4.10068c0.6208,-2.52363 4.14404,-11.04932 6.63164,-11.8002c1.73379,5.38242 -0.6958,10.95439 -1.9585,16.22607c-0.90264,-0.24375 -1.82051,-0.60732 -2.6915,-0.32051l-0.70898,0.68701z" fill="#3c4446"/><path d="M68.28516,214.26211c0.69697,0.38525 1.71328,1.09189 2.41113,0.98643c1.304,1.26006 3.04629,4.1666 2.31152,6.08613c-0.51943,1.35645 0.57715,2.42754 0.29121,3.63574c-1.38691,0.29854 -3.74736,-3.13857 -5.42256,-3.90879c-2.37627,0.71895 -1.02773,3.59004 -1.0418,5.56582c-0.8042,-2.37129 -0.31143,-4.53252 -1.24658,-5.72373c-0.53848,0.25459 -1.21084,0.61963 -1.77979,0.71572c-0.47666,-1.02217 -0.63428,-1.25215 -0.60645,-2.39238c2.21045,-1.60313 3.42715,-2.81865 5.0833,-4.96494z" fill="#3c4446"/><path d="M68.28516,214.26211c0.69697,0.38525 1.71328,1.09189 2.41113,0.98643c-1.04238,0.47988 -1.21377,1.17188 -1.8457,2.19492c-0.71865,1.16338 -2.70937,2.6877 -3.2625,3.46025c-0.53848,0.25459 -1.21084,0.61963 -1.77979,0.71572c-0.47666,-1.02217 -0.63428,-1.25215 -0.60645,-2.39238c2.21045,-1.60313 3.42715,-2.81865 5.0833,-4.96494z" fill="#233039"/><path d="M15.19058,220.29023l1.12556,2.60654c5.33602,9.94189 7.54509,9.54375 17.07703,16.01104c-5.90792,-1.28643 -13.77606,-6.46494 -17.74928,-11.21045c-1.25769,-3.01875 -3.71361,-4.86299 -0.45331,-7.40713z" fill="#909091"/><path d="M15.19058,220.29023l1.12556,2.60654c0.07371,2.28984 -0.01055,2.66309 -0.67225,4.80059c-1.25769,-3.01875 -3.71361,-4.86299 -0.45331,-7.40713z" fill="#9f9d9f"/><path d="M72.0082,212.64697c0.24697,-0.11895 1.02334,-1.14609 1.66143,-1.66143c0.60234,0.554 0.43359,0.55459 0.56338,1.51523c0.35918,0.8915 0.56426,1.56533 1.20996,2.28135l0.54082,-0.08936c0.94395,1.61719 1.66113,2.67715 1.26504,4.50762l-0.44707,0.54639l-0.73535,0.02168c-0.96973,-1.02539 -2.1457,-2.68242 -3.11426,-3.37969l-0.21299,0.26396c0.23818,2.12959 2.05342,3.00146 0.70371,5.0584c-0.17754,0.2707 0.67324,2.37305 0.21826,3.56836l-0.68965,0.67324c-2.04961,-0.05039 -2.79609,-3.31143 -4.64736,-4.37432l-0.62695,0.0835c-1.88408,2.8626 1.69189,8.27256 -0.90762,9.66064l-0.29004,-0.32842l0.38906,-0.23789c0.28096,-1.70977 0.14268,-2.44336 -0.05391,-4.12881c0.01406,-1.97578 -1.33447,-4.84687 1.0418,-5.56582c1.6752,0.77021 4.03564,4.20732 5.42256,3.90879c0.28594,-1.2082 -0.81064,-2.2793 -0.29121,-3.63574c0.73477,-1.91953 -1.00752,-4.82607 -2.31152,-6.08613c-0.69785,0.10547 -1.71416,-0.60117 -2.41113,-0.98643l2.0748,-3.09902l0.21826,1.22432l0.48926,0.33428l0.25254,-0.05479c0.31875,-0.0665 0.35479,-0.0665 0.68818,-0.01992z" fill="#010203"/><path d="M72.0082,212.64697c0.24697,-0.11895 1.02334,-1.14609 1.66143,-1.66143c0.60234,0.554 0.43359,0.55459 0.56338,1.51523c0.35918,0.8915 0.56426,1.56533 1.20996,2.28135c0.70371,1.28555 1.25537,2.11436 1.45957,3.58301l-0.25342,0.29443c-1.84307,-0.59033 -3.23438,-2.75215 -4.39834,-4.23574c-0.58213,-0.7418 -0.4002,-0.99404 -0.24258,-1.77686z" fill="#364e5c"/><path d="M53.71963,226.17188c1.28057,0.77461 1.60166,0.21387 2.75098,-0.48896c0.44297,0.42949 0.92402,1.01689 1.49619,1.13174c-2.82451,2.25 -4.05293,9.0249 -5.85439,9.33691c-0.91143,-0.77637 -1.38955,-3.9832 -1.65645,-5.28867l0.33809,0.05273c0.95654,-1.82842 1.99512,-3.05273 2.92559,-4.74375z" fill="#3c4446"/><path d="M76.65791,204.87275c0.34512,0.95742 0.47549,1.60635 1.28906,2.20752c0.3873,0.08994 0.77285,0.20537 1.16689,0.20273l-0.73389,0.45439l-0.13652,0.60234c0.98408,1.43994 2.43193,1.36582 2.78057,2.62412c-0.46318,1.27354 -2.55059,2.82393 -4.01689,2.69121c-1.16162,-0.70898 -1.37109,-1.84805 -2.21455,-2.91006l-0.40781,-0.39346c-0.07676,-0.92842 1.66523,-3.6665 2.19521,-5.24092z" fill="#3c4446"/><path d="M56.47061,225.68291c1.26504,-1.18652 2.23594,-2.43516 3.91084,-2.41318c1.43848,1.47393 1.57734,7.67256 0.71777,9.28799l-0.46553,0.26133c-1.67373,-1.20176 -1.47832,-4.7833 -2.66689,-6.00439c-0.57217,-0.11484 -1.05322,-0.70225 -1.49619,-1.13174z" fill="#364e5c"/><path d="M61.09131,220.69453l1.01221,0.13359c0.49658,0.64805 0.39727,0.32988 0.32373,1.21582c-0.46758,0.68057 -0.58125,0.92285 -1.33213,1.29609l-0.71367,-0.07031c-1.6749,-0.02197 -2.6458,1.22666 -3.91084,2.41318c-1.14932,0.70283 -1.47041,1.26357 -2.75098,0.48896l-0.25225,-1.41035l-0.04072,-1.29434c0.20273,-0.15352 6.77344,-2.43398 7.66465,-2.77266z" fill="#010203"/><path d="M65.58809,220.90371c0.93516,1.19121 0.44238,3.35244 1.24658,5.72373c0.19658,1.68545 0.33486,2.41904 0.05391,4.12881c-0.78047,-1.03125 -2.35459,-4.58145 -2.92002,-5.89482c-0.60176,-1.39775 -0.73652,-1.8873 -0.16025,-3.24199c0.56895,-0.09609 1.24131,-0.46113 1.77979,-0.71572z" fill="#5d717b"/><path d="M37.74639,178.05352c0.77637,1.58057 0.20215,1.69512 0.34629,3.11484c0.60674,0.89355 1.24951,1.57734 1.18945,2.61182l-0.39873,0.15908c-1.33945,-0.58594 -3.62021,-2.43779 -4.95967,-3.40723c0.70811,-0.71396 2.86084,-1.9043 3.82266,-2.47852z" fill="#5d717b"/><path d="M39.4374,177.15234c0.72715,2.17939 3.39111,3.09258 3.38174,5.13047c-1.75928,0.93457 -2.62383,-1.61309 -4.24512,-1.94883l-0.48135,0.83438c-0.14414,-1.41973 0.43008,-1.53428 -0.34629,-3.11484c0.4166,-0.27539 1.21875,-0.65713 1.69102,-0.90117z" fill="#3c4446"/><path d="M32.13486,182.38242c1.93594,2.0001 2.80078,3.12861 4.44258,5.3959c-2.04697,-0.825 -5.51689,-2.12227 -6.77344,-4.05176z" fill="#5d717b"/><path d="M43.6957,174.42539c1.48799,0.7875 2.66865,1.61016 1.74111,3.43594c-2.0083,0.83613 -3.09492,-0.33105 -4.52402,-1.77539c0.95449,-0.64482 1.77363,-1.10186 2.78291,-1.66055z" fill="#728590"/><path d="M53.46738,224.76152l0.25225,1.41035c-0.93047,1.69102 -1.96904,2.91533 -2.92559,4.74375l-0.33809,-0.05273c-0.6999,-3.73945 -0.43594,-4.41387 3.01143,-6.10137z" fill="#5d717b"/><path d="M76.99219,203.7l2.32031,0.6917c0.7418,0.4875 1.34355,0.8376 1.94971,1.50146c-0.04951,0.72012 -0.02695,0.48574 -0.70869,1.1458l-1.43965,0.24404c-0.39404,0.00264 -0.77959,-0.11279 -1.16689,-0.20273c-0.81357,-0.60117 -0.94395,-1.2501 -1.28906,-2.20752z" fill="#5d717b"/><path d="M79.3125,204.3917l0.70898,-0.68701c0.871,-0.28682 1.78887,0.07676 2.6915,0.32051c-1.39424,2.82744 0.67676,3.43154 -0.36094,4.11152c-1.06816,-0.38438 -1.03447,-0.66152 -1.79854,-1.09775c0.68174,-0.66006 0.65918,-0.42568 0.70869,-1.1458c-0.60615,-0.66387 -1.20791,-1.01396 -1.94971,-1.50146z" fill="#233039"/><path d="M112.43232,206.81426c-0.35039,0.88037 -0.57979,1.3415 -1.03184,2.17031c-1.9002,0.94248 -16.99717,-5.87988 -19.75957,-7.25186c-0.54727,-0.27158 -1.34648,-0.58828 -1.70039,-1.09893c2.81484,0.00586 3.4708,2.95313 6.51563,2.05137l0.25723,-0.53379c-0.54082,-1.48535 -2.73223,-0.59678 -3.46787,-1.96934c1.19121,-0.48105 6.84434,1.93652 8.4624,2.50342l-0.55107,0.45146c1.50674,2.03174 9.95244,2.20195 11.27549,3.67734z" fill="url(#color-18)"/><path d="M16.98032,213.27012c1.00063,-2.64756 1.14762,-2.75332 3.97327,-3.18457l0.77742,1.10801c0.63252,0.85107 0.73787,0.95566 1.59987,1.57295c-0.20101,0.47109 -0.34436,0.65566 -0.3624,1.14727c1.20659,0.41865 1.1453,0.19834 1.85807,1.05293c-0.40942,1.06113 -1.25678,1.16719 -2.28604,1.43115c-0.8569,0.72773 -3.25529,3.22881 -4.21453,2.75566c-0.19242,-2.57373 -1.769,-2.32324 -1.34566,-5.8834z" fill="#3c4446"/><path d="M22.96849,213.91377c1.20659,0.41865 1.1453,0.19834 1.85807,1.05293c-0.40942,1.06113 -1.25678,1.16719 -2.28604,1.43115c-0.8569,0.72773 -3.25529,3.22881 -4.21453,2.75566c0.15272,-2.52217 0.92628,-2.56465 2.77922,-4.39629c0.42407,-0.27129 1.36298,-0.63252 1.86328,-0.84346z" fill="#3c4446"/><path d="M22.96849,213.91377c1.20659,0.41865 1.1453,0.19834 1.85807,1.05293c-0.40942,1.06113 -1.25678,1.16719 -2.28604,1.43115c-1.17999,-0.27393 -1.19821,-0.59531 -1.43531,-1.64063c0.42407,-0.27129 1.36298,-0.63252 1.86328,-0.84346z" fill="#5d717b"/><path d="M18.32599,219.15352c-0.19242,-2.57373 -1.769,-2.32324 -1.34566,-5.8834c0.33334,1.18916 0.15299,1.34707 0.94389,1.94561c1.8249,-0.50215 1.07039,-1.39922 2.71573,-1.52402c0.37427,0.46963 0.41977,0.48955 0.46526,1.06553c-1.85294,1.83164 -2.62649,1.87412 -2.77922,4.39629z" fill="url(#color-19)"/><path d="M26.76486,187.70977c0.47273,-0.69932 0.80581,-1.37666 1.62097,-1.59023c1.82218,0.23203 3.1253,1.37666 3.79356,3.05684c-0.54697,0.76348 -0.85605,0.69316 -1.85098,1.09951c-1.24307,0.85635 -2.40059,1.09512 -2.19366,2.75361c0.3477,0.69727 0.31427,0.39697 0.20458,1.13555c-1.30312,0.84756 -4.42544,0.13535 -5.17351,-1.84365c0.08101,-0.98613 0.8821,-1.54043 1.62946,-2.25234c0.1684,-0.43945 1.56504,-1.90928 1.96957,-2.35928z" fill="#233039"/><path d="M24.79529,190.06904l3.33946,2.96045c0.3477,0.69727 0.31427,0.39697 0.20458,1.13555c-1.30312,0.84756 -4.42544,0.13535 -5.17351,-1.84365c0.08101,-0.98613 0.8821,-1.54043 1.62946,-2.25234z" fill="#5d717b"/><path d="M26.76486,187.70977c0.47273,-0.69932 0.80581,-1.37666 1.62097,-1.59023c1.82218,0.23203 3.1253,1.37666 3.79356,3.05684c-0.54697,0.76348 -0.85605,0.69316 -1.85098,1.09951c-1.37859,-1.1499 -1.98003,-1.65293 -3.56355,-2.56611z" fill="#364e5c"/><path d="M101.70791,202.68545c0.91641,0.93457 3.35859,1.45459 4.62041,1.42881c3.10312,-0.06328 5.37686,-2.37686 7.23486,-4.59434c0.64189,-0.76611 0.80479,-1.10039 1.87969,-1.10098c0.11748,0 0.23467,0.00234 0.35215,0.00762c0.42129,-0.30352 3.97295,-6.68789 4.77041,-7.89697c-1.85654,2.4208 -2.87871,6.70518 -4.98838,9.48164c-0.96064,1.26416 -2.17998,5.15596 -3.14473,6.80303c-1.32305,-1.47539 -9.76875,-1.64561 -11.27549,-3.67734z" fill="#233039"/><path d="M19.1412,199.29463c0.20142,-1.41328 1.02873,-2.7123 2.09912,-3.63047l0.451,0.1459l0.25233,0.12803c1.99444,1.00195 4.71094,0.85723 4.27515,3.44033c-0.95373,0.23789 -1.60169,0.80713 -2.08717,1.66758c0.13201,1.02363 0.26783,0.88682 -0.10717,1.71006c-1.44372,0.43711 -2.59617,-0.53291 -3.74786,-1.29053c-1.04842,-0.68936 -0.95646,-1.06494 -1.1354,-2.1709z" fill="#233039"/><path d="M19.1412,199.29463c1.65469,0.34131 3.28603,1.2665 4.99043,1.75137c0.13201,1.02363 0.26783,0.88682 -0.10717,1.71006c-1.44372,0.43711 -2.59617,-0.53291 -3.74786,-1.29053c-1.04842,-0.68936 -0.95646,-1.06494 -1.1354,-2.1709z" fill="#5d717b"/><path d="M21.69132,195.81006l0.25233,0.12803c1.99444,1.00195 4.71094,0.85723 4.27515,3.44033c-1.70777,-0.571 -4.20059,-1.03887 -4.88531,-2.78643z" fill="#364e5c"/><path d="M17.59471,204.871c0.21214,-0.78047 0.25711,-1.51641 0.76787,-1.97666c1.87983,0.88037 5.08737,1.87002 5.68705,3.52002c-0.64992,0.99639 -0.62622,0.75527 -1.8818,1.33359l-0.15639,0.29795l-0.06639,1.47568l0.41543,0.52764l-0.62947,1.14434l-0.77742,-1.10801c-0.81533,-1.06289 -1.43338,-0.95039 -2.82047,-1.28994c-0.89461,-0.87598 -0.66012,-0.88154 -0.99445,-2.3127c0.02118,-1.13438 -0.15803,-0.90293 0.45604,-1.61191z" fill="#5d717b"/><path d="M17.13867,206.48291c0.48006,0.0791 4.63708,1.31162 4.87277,1.56299l-0.06639,1.47568l0.41543,0.52764l-0.62947,1.14434l-0.77742,-1.10801c-0.81533,-1.06289 -1.43338,-0.95039 -2.82047,-1.28994c-0.89461,-0.87598 -0.66012,-0.88154 -0.99445,-2.3127z" fill="#364e5c"/><path d="M17.13867,206.48291c0.02118,-1.13438 -0.15803,-0.90293 0.45604,-1.61191c2.34299,0.38057 4.2174,0.15146 4.57313,2.87695l-0.15639,0.29795c-0.23569,-0.25137 -4.39271,-1.48389 -4.87277,-1.56299z" fill="#233039"/><path d="M24.91389,217.01895c1.2063,0.14766 3.1735,0.01641 3.22228,1.38428c-0.68437,0.92373 -3.72059,2.48936 -5.34229,3.99932c-0.73324,0.59678 -0.90126,0.79102 -1.87649,0.89297l-0.30633,-0.27627c-0.06674,-1.56504 3.1669,-4.76631 4.30283,-6.00029z" fill="#364e5c"/><path d="M26.99663,226.00723c-0.28761,-2.33965 0.46049,-5.34229 2.96938,-6.1125c2.30625,0.84785 -0.59648,5.86758 -1.39667,7.17598c-1.16024,-0.34863 -0.73746,-0.0873 -1.57271,-1.06348z" fill="#5d717b"/><path d="M38.21484,224.84912c4.31279,1.07637 3.58711,3.00381 2.02354,6.53379c-0.41133,0.5291 -0.43799,0.55137 -1.00283,0.91934c-0.82178,-0.84785 -0.55078,-5.15947 -1.0207,-7.45312z" fill="#909091"/><path d="M32.53154,228.76846c0.04541,-1.87002 0.13623,-5.16973 2.56641,-5.49258c1.48418,1.69014 -0.55166,4.62422 -1.42969,6.28916z" fill="#728590"/><path d="M54.76113,169.07754c2.00566,0.14414 2.47852,-2.51748 4.44287,-0.81445c1.01426,0.87949 1.56592,2.18496 1.65586,3.49307l-0.31787,0.64482c-1.85947,0.11279 -1.55684,-1.66055 -3.56426,-2.625c-0.40928,0.09346 -1.00957,-0.08994 -1.44756,-0.18633z" fill="#5d717b"/><path d="M45.13213,230.78936c-0.19219,-1.57734 -0.72861,-3.42246 0.45234,-4.63916l0.52676,0.03398c1.59609,1.86357 1.0916,3.81533 0.34717,5.92441c-0.96709,0.03691 -0.98232,-0.56045 -1.32627,-1.31924z" fill="#909091"/><path d="M64.12061,165.57334c0.93896,0.03164 0.61143,-0.08613 1.34063,0.35977c0.33984,1.65439 0.03838,2.70879 -1.68018,3.1541c-0.5751,-0.19717 -1.12178,-0.48135 -1.67168,-0.74531c-0.62197,-0.86133 -0.53438,-0.47842 -0.4002,-1.42559c0.62402,-0.85781 1.39717,-0.99961 2.41143,-1.34297z" fill="#5d717b"/><path d="M55.53018,169.58965c0.43799,0.09639 1.03828,0.27979 1.44756,0.18633l-1.00313,0.4251c-0.70605,1.81611 1.41797,4.13672 1.05381,5.8834l-0.59443,0.16787c-1.35146,-0.97529 -0.42715,-3.1207 -2.57227,-3.63047l0.87363,-0.43184c0.68379,-0.69082 0.66914,-1.61016 0.79482,-2.60039z" fill-opacity="0.98824" fill="#3c4446"/><path d="M26.99663,226.00723c0.83525,0.97617 0.41247,0.71484 1.57271,1.06348c-0.30817,1.58203 0.36293,2.38271 -1.24002,3.44766l-0.42935,-0.36357c-0.66847,-1.8457 -0.6191,-2.30654 0.09665,-4.14756z" fill-opacity="0.98824" fill="#3c4446"/><path d="M53.86172,172.62188c-0.97588,-0.72773 -1.08896,-0.79336 -1.25244,-1.771c0.38525,-0.88799 1.28936,-1.26563 2.15186,-1.77334l0.76904,0.51211c-0.12568,0.99023 -0.11104,1.90957 -0.79482,2.60039z" fill="#5d717b"/><path d="M21.94506,209.52158c2.62506,0.31992 1.69245,-0.98437 4.57143,-1.6793l0.1921,0.28477c-0.31679,1.04619 -0.87117,2.24209 -1.78881,2.89043c-0.81773,-1.05615 -1.36559,-0.88711 -2.55929,-0.96826z" fill-opacity="0.98431" fill="#233039"/><path d="M45.13213,230.78936c0.34395,0.75879 0.35918,1.35615 1.32627,1.31924c-0.15469,1.46279 -0.19248,2.96689 -0.90088,4.24248l-0.33984,0.01494c-0.40342,-1.87588 -0.16729,-3.63604 -0.08555,-5.57666z" fill-opacity="0.98824" fill="#3c4446"/><path d="M22.36049,210.04922c1.1937,0.08115 1.74155,-0.08789 2.55929,0.96826l-1.58889,1.74902c-0.862,-0.61729 -0.96735,-0.72188 -1.59987,-1.57295z" fill-opacity="0.98431" fill="#5d717b"/><path d="M49.12236,177.97148c0.30791,0.30967 0.70576,0.94453 0.96914,1.32832c0.12451,1.25596 0.2042,0.78486 -0.50801,1.91396c-1.01309,-0.19014 -0.69199,0.01758 -1.25537,-0.72129c-0.1084,-0.94688 0.36445,-1.65732 0.79424,-2.521z" fill-opacity="0.98824" fill="#233039"/><path d="M32.53154,228.76846l1.13672,0.79658c-0.31201,1.52402 0.56748,2.77646 -0.23643,3.45088l-0.54141,-0.24316c-0.43711,-1.08809 -0.34541,-2.7835 -0.35889,-4.0043z" fill-opacity="0.98431" fill="#5d717b"/></g></svg></svg>