<svg id="svg" version="1.1" viewBox="0 0 300 300" width="300" height="300" xmlns="http://www.w3.org/2000/svg"><svg xmlns="http://www.w3.org/2000/svg"><defs><clipPath id="clip-1"><rect x="0" y="0" transform="scale(0.29297,0.29297)" width="1024" height="1024" fill="none"/></clipPath><linearGradient x1="215.85674" y1="147.72773" x2="66.12305" y2="246.81885" gradientUnits="userSpaceOnUse" id="color-1"><stop offset="0" stop-color="#0c8466"/><stop offset="1" stop-color="#28b587"/></linearGradient><linearGradient x1="46.7543" y1="209.32588" x2="45.16758" y2="212.746" gradientUnits="userSpaceOnUse" id="color-2"><stop offset="0" stop-color="#807f84"/><stop offset="1" stop-color="#a49ea3"/></linearGradient><linearGradient x1="218.0127" y1="244.96729" x2="208.37754" y2="232.77773" gradientUnits="userSpaceOnUse" id="color-3"><stop offset="0" stop-color="#000000"/><stop offset="1" stop-color="#042f1f"/></linearGradient><linearGradient x1="216.89707" y1="237.9293" x2="220.57266" y2="243.32285" gradientUnits="userSpaceOnUse" id="color-4"><stop offset="0" stop-color="#8f8d8d"/><stop offset="1" stop-color="#a5a7a7"/></linearGradient><linearGradient x1="268.32363" y1="206.91387" x2="256.80762" y2="208.54395" gradientUnits="userSpaceOnUse" id="color-5"><stop offset="0" stop-color="#c4c4c6"/><stop offset="1" stop-color="#9f9e9e"/></linearGradient><linearGradient x1="126.67061" y1="210.94893" x2="130.81846" y2="205.17246" gradientUnits="userSpaceOnUse" id="color-6"><stop offset="0" stop-color="#014830"/><stop offset="1" stop-color="#006e47"/></linearGradient><linearGradient x1="159.47227" y1="203.58281" x2="172.97109" y2="168.1957" gradientUnits="userSpaceOnUse" id="color-7"><stop offset="0" stop-color="#070c19"/><stop offset="1" stop-color="#2f414a"/></linearGradient><linearGradient x1="95.11523" y1="152.65254" x2="87.34541" y2="178.31953" gradientUnits="userSpaceOnUse" id="color-8"><stop offset="0" stop-color="#19202c"/><stop offset="1" stop-color="#2e4655"/></linearGradient><linearGradient x1="254.06602" y1="188.91768" x2="132.67588" y2="27.12929" gradientUnits="userSpaceOnUse" id="color-9"><stop offset="0" stop-color="#009838"/><stop offset="1" stop-color="#00cf6e"/></linearGradient></defs><g clip-path="url(#clip-1)" fill="none" fill-rule="nonzero" stroke="none" stroke-width="1" stroke-linecap="butt" stroke-linejoin="miter" stroke-miterlimit="10" stroke-dasharray="" stroke-dashoffset="0" font-family="none" font-weight="none" font-size="none" text-anchor="none" style="mix-blend-mode: normal"><path d="M132.66094,13.60711c1.7165,-0.14476 4.81641,-0.47827 6.33252,0.18375c6.49395,2.8355 12.91201,6.4328 19.2375,9.50171c14.41201,6.82257 28.77979,13.7381 43.10244,20.7462l38.6124,18.53818c2.84912,1.35615 15.56689,7.12705 17.50342,8.57578c1.42646,0.69023 6.79336,2.95635 7.68018,3.69053c2.55967,1.08076 4.41475,1.58584 6.57363,3.31172c2.46006,2.70879 3.14473,5.90215 2.91211,9.46523c-0.73916,11.32676 -1.904,22.62773 -3.00586,33.9082l-5.23447,52.74785c-0.59531,5.66045 -1.36992,22.43086 -3.22412,26.91768l-0.07705,0.46758c4.03154,1.48418 6.00439,-2.81396 5.56582,4.85537c-2.67041,0.96768 -7.41562,2.66807 -8.78701,5.29189c-0.36123,0.69082 -0.30293,2.35254 -0.39199,3.32402c-6.80068,9.14736 -19.41973,14.72695 -28.93975,20.56494c-1.59082,0.87656 -3.7793,3.82969 -5.50957,4.36494c-3.63428,1.12471 -8.42373,5.17471 -11.49316,6.36768c-3.7415,0.99873 -5.8998,2.84385 -8.88047,5.36367c-3.76758,3.18516 -9.45557,5.81572 -13.26152,8.62002c-5.08066,3.74385 -18.38379,6.39111 -22.28818,9.34512c-2.146,0.075 -5.91533,0.28037 -7.88496,-0.17373c-1.35264,-0.64863 -4.03506,-1.32744 -5.70264,-1.96904c-2.85674,-1.08193 -6.04248,-2.71934 -8.82715,-4.06611c-1.08457,-0.28623 -1.29902,-0.34629 -2.27871,-0.90117c-4.12441,-1.09307 -10.81523,-4.86064 -14.88164,-6.85459c-8.9751,-4.40127 -17.87461,-9.17344 -26.94785,-13.38047c-6.96357,-2.08389 -8.33965,-4.01572 -14.50811,-7.28379c-6.7248,-3.50918 -13.64297,-6.68496 -20.37393,-10.17568c-2.61357,-1.35527 -5.13223,-3.2748 -7.76016,-4.77568c-8.80605,-4.42266 -27.33164,-12.46055 -33.50874,-18.99404l-0.09835,-3.17637c-0.3711,-3.0501 -0.5857,-6.03779 0.17868,-9.01875c0.48832,-0.74619 1.40921,-2.04521 2.13533,-2.5251c13.39005,-8.84824 28.24181,-16.59258 42.03243,-24.66035c8.48232,-4.99189 16.92715,-10.04736 25.3333,-15.16641c4.91426,-2.96279 10.08545,-6.19658 15.23174,-8.74131c2.77764,-1.37344 4.82871,-1.48154 7.82637,-1.22666c-2.94082,-3.55811 -2.6499,-6.01816 -2.429,-10.39512c0.22061,-4.36816 0.85283,-8.71025 1.25742,-13.06465l3.52266,-35.79727l3.44121,-38.64111c0.54463,-6.22646 0.97617,-14.63938 2.35957,-20.76328c0.40107,-1.77472 2.60098,-2.96678 4.20937,-3.66697z" fill="#122429"/><path d="M26.49425,188.98975c0.48832,-0.74619 1.40921,-2.04521 2.13533,-2.5251c13.39005,-8.84824 28.24181,-16.59258 42.03243,-24.66035c8.48232,-4.99189 16.92715,-10.04736 25.3333,-15.16641c4.91426,-2.96279 10.08545,-6.19658 15.23174,-8.74131c2.77764,-1.37344 4.82871,-1.48154 7.82637,-1.22666c3.61406,2.39971 7.28994,3.35918 10.82783,5.33437c11.97656,6.68672 24.29561,12.27891 36.54287,18.35508l26.13369,12.78457c6.55488,3.26016 13.08457,6.59795 19.6292,9.88418c13.42471,6.74092 28.67578,12.90293 41.26436,20.96836c0.97266,-0.0917 1.0875,0.66973 2.7668,0.9999c1.15254,-0.62461 0.79307,-1.62393 1.06934,-1.74346c1.44463,-0.62549 1.76748,-0.53145 2.84268,-1.90371l1.00225,-2.18643c0.06914,4.31045 -3.65596,3.50068 -4.51611,6.9583c1.28701,-0.01816 5.475,-4.79883 6.53437,-4.92715l-0.07705,0.46758c4.03154,1.48418 6.00439,-2.81396 5.56582,4.85537c-2.67041,0.96768 -7.41562,2.66807 -8.78701,5.29189c-0.36123,0.69082 -0.30293,2.35254 -0.39199,3.32402c-6.80068,9.14736 -19.41973,14.72695 -28.93975,20.56494c-1.59082,0.87656 -3.7793,3.82969 -5.50957,4.36494c-3.63428,1.12471 -8.42373,5.17471 -11.49316,6.36768c-3.7415,0.99873 -5.8998,2.84385 -8.88047,5.36367c-3.76758,3.18516 -9.45557,5.81572 -13.26152,8.62002c-5.08066,3.74385 -18.38379,6.39111 -22.28818,9.34512c-2.146,0.075 -5.91533,0.28037 -7.88496,-0.17373c-1.35264,-0.64863 -4.03506,-1.32744 -5.70264,-1.96904c-2.85674,-1.08193 -6.04248,-2.71934 -8.82715,-4.06611c-1.08457,-0.28623 -1.29902,-0.34629 -2.27871,-0.90117c-4.12441,-1.09307 -10.81523,-4.86064 -14.88164,-6.85459c-8.9751,-4.40127 -17.87461,-9.17344 -26.94785,-13.38047c-6.96357,-2.08389 -8.33965,-4.01572 -14.50811,-7.28379c-6.7248,-3.50918 -13.64297,-6.68496 -20.37393,-10.17568c-2.61357,-1.35527 -5.13223,-3.2748 -7.76016,-4.77568c-8.80605,-4.42266 -27.33164,-12.46055 -33.50874,-18.99404l-0.09835,-3.17637c-0.3711,-3.0501 -0.5857,-6.03779 0.17868,-9.01875z" fill="url(#color-1)"/><path d="M26.49425,188.98975c0.11288,1.48857 0.83183,2.24209 1.42884,3.67178c2.21959,1.89287 14.24596,7.47832 17.77213,9.2417l27.55547,14.12373l1.34385,0.67822c12.60205,5.18584 25.26387,13.05645 37.77393,18.71074c3.33516,1.50762 6.74707,4.24219 10.09717,5.86523c12.254,5.87285 24.32988,12.36006 36.7626,17.81836c3.98496,1.74932 7.68955,1.171 11.59805,-0.34248c3.31699,-0.72451 20.42227,-11.61621 24.03018,-13.86387c14.46211,-9.05068 29.0001,-17.9792 43.61309,-26.78408c3.53701,-2.10645 8.75596,-5.79521 12.10635,-7.56504c2.18291,-1.60811 3.34717,-2.45449 5.21631,-4.38135c-0.78545,-0.67119 -1.5835,-1.45225 -2.34082,-2.16621c0.97266,-0.0917 1.0875,0.66973 2.7668,0.9999c1.15254,-0.62461 0.79307,-1.62393 1.06934,-1.74346c1.44463,-0.62549 1.76748,-0.53145 2.84268,-1.90371l1.00225,-2.18643c0.06914,4.31045 -3.65596,3.50068 -4.51611,6.9583c1.28701,-0.01816 5.475,-4.79883 6.53437,-4.92715l-0.07705,0.46758c4.03154,1.48418 6.00439,-2.81396 5.56582,4.85537c-2.67041,0.96768 -7.41562,2.66807 -8.78701,5.29189c-0.36123,0.69082 -0.30293,2.35254 -0.39199,3.32402c-6.80068,9.14736 -19.41973,14.72695 -28.93975,20.56494c-1.59082,0.87656 -3.7793,3.82969 -5.50957,4.36494c-3.63428,1.12471 -8.42373,5.17471 -11.49316,6.36768c-3.7415,0.99873 -5.8998,2.84385 -8.88047,5.36367c-3.76758,3.18516 -9.45557,5.81572 -13.26152,8.62002c-5.08066,3.74385 -18.38379,6.39111 -22.28818,9.34512c-2.146,0.075 -5.91533,0.28037 -7.88496,-0.17373c-1.35264,-0.64863 -4.03506,-1.32744 -5.70264,-1.96904c-2.85674,-1.08193 -6.04248,-2.71934 -8.82715,-4.06611c-1.08457,-0.28623 -1.29902,-0.34629 -2.27871,-0.90117c-4.12441,-1.09307 -10.81523,-4.86064 -14.88164,-6.85459c-8.9751,-4.40127 -17.87461,-9.17344 -26.94785,-13.38047c-6.96357,-2.08389 -8.33965,-4.01572 -14.50811,-7.28379c-6.7248,-3.50918 -13.64297,-6.68496 -20.37393,-10.17568c-2.61357,-1.35527 -5.13223,-3.2748 -7.76016,-4.77568c-8.80605,-4.42266 -27.33164,-12.46055 -33.50874,-18.99404l-0.09835,-3.17637c-0.3711,-3.0501 -0.5857,-6.03779 0.17868,-9.01875z" fill="#024930"/><path d="M26.49425,188.98975c0.11288,1.48857 0.83183,2.24209 1.42884,3.67178c2.21959,1.89287 14.24596,7.47832 17.77213,9.2417l27.55547,14.12373l1.34385,0.67822c1.67725,1.46631 2.63877,2.26553 1.6251,4.55947c2.94668,3.86221 22.87295,12.70869 28.6374,15.63809l29.49785,14.89541c6.78516,3.47783 23.69004,13.21084 30.55312,14.32148l0.63311,0.65391l-0.04512,0.42129c-0.95332,0.58799 -2.68682,0.39229 -3.83086,0.32168c2.42168,0.42656 3.83408,0.20508 5.84443,0.44414c-2.26465,1.09424 -4.07871,-1.27559 -6.30674,1.6248c-1.35264,-0.64863 -4.03506,-1.32744 -5.70264,-1.96904c-2.85674,-1.08193 -6.04248,-2.71934 -8.82715,-4.06611c-1.08457,-0.28623 -1.29902,-0.34629 -2.27871,-0.90117c-4.12441,-1.09307 -10.81523,-4.86064 -14.88164,-6.85459c-8.9751,-4.40127 -17.87461,-9.17344 -26.94785,-13.38047c-6.96357,-2.08389 -8.33965,-4.01572 -14.50811,-7.28379c-6.7248,-3.50918 -13.64297,-6.68496 -20.37393,-10.17568c-2.61357,-1.35527 -5.13223,-3.2748 -7.76016,-4.77568c-8.80605,-4.42266 -27.33164,-12.46055 -33.50874,-18.99404l-0.09835,-3.17637c-0.3711,-3.0501 -0.5857,-6.03779 0.17868,-9.01875z" fill="#020607"/><path d="M59.92266,220.17891c1.72324,-0.06445 2.55908,0.87539 3.58652,1.01689c1.66377,0.22969 4.91982,1.06523 6.37266,1.16426c2.44922,1.29229 15.18369,7.21436 16.19619,8.31563c16.76045,7.41621 33.58506,17.39121 50.30625,25.23926c1.9998,0.93867 4.34707,2.17705 6.27305,3.28037l2.86289,1.3377c1.19707,1.40098 0.84521,0.92783 1.15283,3.01729c-1.08457,-0.28623 -1.29902,-0.34629 -2.27871,-0.90117c-4.12441,-1.09307 -10.81523,-4.86064 -14.88164,-6.85459c-8.9751,-4.40127 -17.87461,-9.17344 -26.94785,-13.38047c-6.96357,-2.08389 -8.33965,-4.01572 -14.50811,-7.28379c-6.7248,-3.50918 -13.64297,-6.68496 -20.37393,-10.17568c-2.61357,-1.35527 -5.13223,-3.2748 -7.76016,-4.77568z" fill="#989599"/><path d="M142.65732,259.19531l2.86289,1.3377c1.19707,1.40098 0.84521,0.92783 1.15283,3.01729c-1.08457,-0.28623 -1.29902,-0.34629 -2.27871,-0.90117l0.12305,-0.33369c-0.50859,-1.05264 -1.22754,-2.12373 -1.86006,-3.12012z" fill="#878387"/><path d="M26.49425,188.98975c0.11288,1.48857 0.83183,2.24209 1.42884,3.67178c2.21959,1.89287 14.24596,7.47832 17.77213,9.2417l27.55547,14.12373l1.34385,0.67822c1.67725,1.46631 2.63877,2.26553 1.6251,4.55947c-0.21445,-0.29912 -3.80625,-1.46572 -4.40332,-1.67842c-5.93115,-1.57881 -12.48896,-5.54561 -18.82295,-9c-6.44883,-3.5168 -17.1917,-8.81748 -24.14098,-12.14736c-0.39422,0.11426 -0.73184,0.2124 -1.01285,0.29385c-0.58755,-0.35537 -0.88295,-0.46611 -1.52396,-0.72422c-0.3711,-3.0501 -0.5857,-6.03779 0.17868,-9.01875z" fill="#024930"/><path d="M73.25068,216.02695l1.34385,0.67822c1.67725,1.46631 2.63877,2.26553 1.6251,4.55947c-0.21445,-0.29912 -3.80625,-1.46572 -4.40332,-1.67842l0.23496,-0.20508c0.25664,-1.27148 -0.6668,-0.89736 -0.85488,-2.49668c0.78428,-0.79365 0.76758,-0.57891 2.0543,-0.85752z" fill="#002413"/><path d="M26.31557,198.0085c0.64102,0.25811 0.93642,0.36885 1.52396,0.72422c0.62851,1.19326 1.10566,2.02266 2.24689,2.76768c3.95127,2.5793 8.61152,4.8627 12.81182,7.04297l26.98359,13.8167c-1.45283,-0.09902 -4.70889,-0.93457 -6.37266,-1.16426c-1.02744,-0.1415 -1.86328,-1.08135 -3.58652,-1.01689c-8.80605,-4.42266 -27.33164,-12.46055 -33.50874,-18.99404z" fill="url(#color-2)"/><path d="M145.52021,260.53301c3.13799,1.18008 5.58486,2.79756 8.55146,4.08047c2.78525,1.19238 4.70303,1.94971 7.59346,2.90303c2.42168,0.42656 3.83408,0.20508 5.84443,0.44414c-2.26465,1.09424 -4.07871,-1.27559 -6.30674,1.6248c-1.35264,-0.64863 -4.03506,-1.32744 -5.70264,-1.96904c-2.85674,-1.08193 -6.04248,-2.71934 -8.82715,-4.06611c-0.30762,-2.08945 0.04424,-1.61631 -1.15283,-3.01729z" fill="#989599"/><path d="M261.13242,199.16279c0.06914,4.31045 -3.65596,3.50068 -4.51611,6.9583c1.28701,-0.01816 5.475,-4.79883 6.53437,-4.92715l-0.07705,0.46758c4.03154,1.48418 6.00439,-2.81396 5.56582,4.85537c-2.67041,0.96768 -7.41562,2.66807 -8.78701,5.29189c-0.36123,0.69082 -0.30293,2.35254 -0.39199,3.32402c-6.80068,9.14736 -19.41973,14.72695 -28.93975,20.56494c-1.59082,0.87656 -3.7793,3.82969 -5.50957,4.36494c-3.63428,1.12471 -8.42373,5.17471 -11.49316,6.36768c-3.7415,0.99873 -5.8998,2.84385 -8.88047,5.36367c-3.76758,3.18516 -9.45557,5.81572 -13.26152,8.62002c-5.08066,3.74385 -18.38379,6.39111 -22.28818,9.34512c-2.146,0.075 -5.91533,0.28037 -7.88496,-0.17373c2.22803,-2.90039 4.04209,-0.53057 6.30674,-1.6248c-2.01035,-0.23906 -3.42275,-0.01758 -5.84443,-0.44414c1.14404,0.07061 2.87754,0.26631 3.83086,-0.32168l0.04512,-0.42129l-0.63311,-0.65391c0.86631,-0.48223 2.69473,-0.93457 3.76992,-1.32422c2.42549,-0.87129 4.77773,-1.93535 7.03359,-3.18164c4.91367,-2.74893 10.08428,-6.50508 14.96191,-9.49248l34.22461,-20.80137c8.17822,-5.04844 16.76191,-9.51328 24.94746,-14.56113c1.77422,-1.09424 4.95967,-3.42393 4.52607,-5.775c-3.04453,-2.23711 -0.61143,-0.82178 -3.7957,-0.43975c2.18291,-1.60811 3.34717,-2.45449 5.21631,-4.38135c-0.78545,-0.67119 -1.5835,-1.45225 -2.34082,-2.16621c0.97266,-0.0917 1.0875,0.66973 2.7668,0.9999c1.15254,-0.62461 0.79307,-1.62393 1.06934,-1.74346c1.44463,-0.62549 1.76748,-0.53145 2.84268,-1.90371z" fill="url(#color-3)"/><path d="M167.50957,267.96064c6.59209,-0.90674 9.79277,-3.74854 15.31611,-7.03945l21.71895,-13.13027c15.49863,-9.2833 31.31396,-18.34805 46.52256,-28.09307c2.97363,-1.90547 4.83164,-3.53818 5.52422,-7.096l0.14121,1.63828c1.2624,0.93311 0.73887,-0.49248 2.72783,0.89268c-6.80068,9.14736 -19.41973,14.72695 -28.93975,20.56494c-1.59082,0.87656 -3.7793,3.82969 -5.50957,4.36494c-3.63428,1.12471 -8.42373,5.17471 -11.49316,6.36768c-3.7415,0.99873 -5.8998,2.84385 -8.88047,5.36367c-3.76758,3.18516 -9.45557,5.81572 -13.26152,8.62002c-5.08066,3.74385 -18.38379,6.39111 -22.28818,9.34512c-2.146,0.075 -5.91533,0.28037 -7.88496,-0.17373c2.22803,-2.90039 4.04209,-0.53057 6.30674,-1.6248z" fill="url(#color-4)"/><path d="M263.07363,201.66152c4.03154,1.48418 6.00439,-2.81396 5.56582,4.85537c-2.67041,0.96768 -7.41562,2.66807 -8.78701,5.29189c-0.36123,0.69082 -0.30293,2.35254 -0.39199,3.32402c-1.98896,-1.38516 -1.46543,0.04043 -2.72783,-0.89268l-0.14121,-1.63828c1.70361,-3.92314 -0.675,-5.55088 3.40049,-8.06426c0.72861,-0.44912 2.39092,-2.1832 3.08174,-2.87607z" fill="url(#color-5)"/><path d="M101.17939,194.88809c2.57988,1.23691 6.2083,3.43477 8.9083,4.85801c0.79277,0.47813 5.09678,2.68506 5.88076,2.91885c4.92305,1.46807 28.17891,15.40664 31.04766,15.22705l-0.18428,0.10928c-5.39238,3.25342 -10.9292,8.36367 -16.86504,11.42285c-4.66523,2.40439 -6.34189,5.6874 -12.47402,5.17969c-10.27324,-5.47119 -21.6873,-10.68252 -32.18174,-15.83877c-3.87246,-1.90254 -8.22803,-4.56562 -12.10664,-6.1793l-0.10693,-0.41602c0.12539,-0.86104 0.45762,-1.05439 1.09424,-1.621c1.35117,-1.42324 4.27559,-3.73916 6.0791,-4.46396l0.47139,0.87715l0.4125,0.07354c6.5168,-3.76553 13.56504,-8.79609 20.02471,-12.14736z" fill="#00825d"/><path d="M74.1917,210.54873c1.35117,-1.42324 4.27559,-3.73916 6.0791,-4.46396l0.47139,0.87715l0.4125,0.07354c-0.53936,0.89092 -4.42354,3.66504 -5.68301,3.98965c-0.53613,0.13799 -0.82441,-0.1834 -1.27998,-0.47637z" fill="#024930"/><path d="M27.92309,192.66152c0.029,-0.9709 -0.15451,-1.3002 0.37761,-1.84395c2.26972,0.721 5.62216,2.82217 7.89237,3.92021c6.49189,3.14033 13.07725,6.53145 19.60049,9.5751c4.3793,2.04316 12.99756,8.04609 17.41084,8.27285c3.87861,1.61367 8.23418,4.27676 12.10664,6.1793c10.49443,5.15625 21.9085,10.36758 32.18174,15.83877c0.97881,1.04883 1.62188,2.16299 2.92881,2.85293c5.1041,2.69355 11.02207,6.03135 16.29434,8.24941c8.8582,3.72686 23.17207,14.24619 32.75771,11.82627l0.19512,0.18574c-1.24746,0.58799 -2.27695,0.42568 -3.61025,0.83115l0.00498,0.47227c1.63477,0.74121 4.02129,-1.14697 4.75312,-0.48984l0.00967,0.22529c-3.9085,1.51348 -7.61309,2.0918 -11.59805,0.34248c-12.43271,-5.4583 -24.50859,-11.94551 -36.7626,-17.81836c-3.3501,-1.62305 -6.76201,-4.35762 -10.09717,-5.86523c-12.51006,-5.6543 -25.17188,-13.5249 -37.77393,-18.71074l-1.34385,-0.67822l-27.55547,-14.12373c-3.52617,-1.76338 -15.55254,-7.34883 -17.77213,-9.2417z" fill="#81cfa9"/><path d="M110.0877,199.74609c1.83281,-0.74355 1.71563,-0.09082 3.53496,-0.02813c7.97578,3.28418 16.83398,8.05635 24.58359,11.94229c1.87119,0.93809 7.61396,3.74736 8.99473,4.82109c0.15615,0.83086 0.15381,0.49482 -0.18486,1.41064c-2.86875,0.17959 -26.12461,-13.75898 -31.04766,-15.22705c-0.78398,-0.23379 -5.08799,-2.44072 -5.88076,-2.91885z" fill="url(#color-6)"/><path d="M100.8876,193.31719c2.75713,0.99844 9.59063,4.83398 12.73506,6.40078c-1.81934,-0.0627 -1.70215,-0.71543 -3.53496,0.02813c-2.7,-1.42324 -6.32842,-3.62109 -8.9083,-4.85801c-6.45967,3.35127 -13.50791,8.38184 -20.02471,12.14736l-0.4125,-0.07354l-0.47139,-0.87715c6.90791,-4.16338 13.75049,-8.73428 20.6168,-12.76758z" fill="#002413"/><path d="M104.79551,150.97148c4.38105,-1.98428 8.46738,-6.1957 12.68672,-4.3998c11.35518,4.83311 22.24453,10.85889 33.33252,16.26211c19.50498,9.38789 38.92119,18.95947 58.2457,28.71357c5.95166,2.92236 11.88838,5.87461 17.80986,8.85703c3.0085,1.52344 8.24355,3.99785 10.696,5.97539c-6.30059,4.59932 -12.92549,8.45859 -19.66758,12.37061c-2.52773,1.4666 -6.10635,3.77959 -8.55674,5.07832c-1.93418,1.36787 -14.80488,9.15615 -16.99307,10.12002c-2.32559,-1.12852 -5.1082,-2.57139 -7.4502,-3.56719c-25.59521,-12.45352 -51.08232,-25.12793 -76.45869,-38.02178c-9.30615,-4.74199 -18.3873,-9.65947 -27.80156,-14.38916c-0.74678,-1.6415 -2.43369,-1.26445 -3.41484,-2.49785c1.16865,-0.25928 2.19434,0.95977 3.99521,0.71133c0.30791,0.11309 1.30107,0.4585 1.546,0.34951c2.97686,-1.32393 4.5876,-3.30146 7.77832,-4.67344l1.21875,-1.16572c4.39424,1.75371 8.87168,4.97549 11.89746,6.11543l0.20684,0.06855c0.75205,-1.52402 4.89023,-3.64365 6.45967,-4.51436l-1.00869,-0.8083c-1.21553,-0.84668 -2.6042,-1.4918 -3.8499,-2.22627c-3.05625,-1.80205 -12.79014,-4.3043 -13.40684,-8.15127l-0.04863,-0.91729c0.62959,-1.56123 6.72627,-3.75059 8.58867,-3.33633c0.05391,-0.3 0.34365,-0.62637 0.53936,-0.9041l-0.08027,-0.50098l-0.61787,-0.34746c-0.22295,-0.48252 -0.45908,-0.91377 -0.78398,-1.33506c1.21641,-0.81504 3.76465,-2.11523 5.13779,-2.86553z" fill="url(#color-7)"/><path d="M91.76191,170.69443c4.39424,1.75371 8.87168,4.97549 11.89746,6.11543l0.20684,0.06855c0.75205,-1.52402 4.89023,-3.64365 6.45967,-4.51436c18.13096,10.02041 37.99629,16.96875 55.94063,27.49277c4.99541,2.92969 12.04717,4.67695 16.82666,7.69951c4.27031,2.61299 23.71348,11.82568 24.76992,15.12041l-0.08174,0.45439l0.83906,-0.08291l0.40254,0.36475l-0.02109,0.23877l0.34014,0.17695c-1.93418,1.36787 -14.80488,9.15615 -16.99307,10.12002c-2.32559,-1.12852 -5.1082,-2.57139 -7.4502,-3.56719c-25.59521,-12.45352 -51.08232,-25.12793 -76.45869,-38.02178c-9.30615,-4.74199 -18.3873,-9.65947 -27.80156,-14.38916c-0.74678,-1.6415 -2.43369,-1.26445 -3.41484,-2.49785c1.16865,-0.25928 2.19434,0.95977 3.99521,0.71133c0.30791,0.11309 1.30107,0.4585 1.546,0.34951c2.97686,-1.32393 4.5876,-3.30146 7.77832,-4.67344z" fill="#020607"/><path d="M110.32588,172.36406c18.13096,10.02041 37.99629,16.96875 55.94063,27.49277c4.99541,2.92969 12.04717,4.67695 16.82666,7.69951c4.27031,2.61299 23.71348,11.82568 24.76992,15.12041l-0.08174,0.45439c-5.35752,3.25752 -5.87549,4.58672 -11.32471,0.37236c-6.84961,-5.29805 -14.77031,-7.3916 -22.1874,-11.83037c1.72148,-1.1083 3.35244,-1.7124 4.79648,-3.19629l-0.02725,-0.31875l-0.20918,0.0123l0.16113,0.30264l-0.48721,-0.22939l0.24902,0.44385l-0.5165,-0.36299c-1.90605,0.59707 -3.79541,1.68955 -5.51133,2.69619c-6.27803,-3.52383 -13.14639,-6.76348 -19.60635,-9.94658l-21.16201,-10.56123c-10.0749,-4.98486 -17.30156,-9.43037 -28.08984,-13.63447c0.75205,-1.52402 4.89023,-3.64365 6.45967,-4.51436z" fill="#2b3d4a"/><path d="M190.54863,221.71582c3.36094,1.37549 5.99209,3.21797 8.85029,5.40322c-1.14639,1.17275 -1.73203,1.84863 -3.15645,2.71523c-1.39629,1.01924 -2.0083,1.39746 -3.51943,2.2166c-1.36143,-0.41016 -2.62939,-0.69023 -3.75352,-1.56709c-1.93535,-1.23867 -3.87451,-2.30566 -5.8793,-3.4248c2.34873,-2.09824 4.7584,-3.74443 7.4584,-5.34316z" fill="#2b3d4a"/><path d="M209.00186,223.65176l0.34014,0.17695c-1.93418,1.36787 -14.80488,9.15615 -16.99307,10.12002c-2.32559,-1.12852 -5.1082,-2.57139 -7.4502,-3.56719c2.22949,0.0501 2.9918,0.82236 4.0708,0.10225c1.12412,0.87686 2.39209,1.15693 3.75352,1.56709c1.51113,-0.81914 2.12314,-1.19736 3.51943,-2.2166l-0.46289,1.23281c1.41416,0.11689 10.60664,-6.479 13.22227,-7.41533z" fill="#101925"/><path d="M116.11846,184.77949c2.1041,0.06914 39.91699,19.56387 44.7665,21.7002c-2.26348,1.01807 -5.2667,2.99854 -7.42939,4.36172c-0.08262,0.04131 -0.16318,0.08613 -0.24756,0.12363c-3.63369,1.62334 -37.69102,-18.76348 -44.19404,-21.0123c1.67402,-0.90674 5.61445,-3.94336 7.10449,-5.17324z" fill="#2b3d4a"/><path d="M154.38252,212.85557c2.4457,-2.6124 4.03857,-3.86895 7.0752,-5.74277c1.7959,1.20381 7.08398,3.52939 9.32402,4.55273l0.50537,0.80889c2.92002,-0.28857 5.61152,2.29102 8.2125,3.82412c-4.01309,1.16895 -4.99395,2.90273 -8.45479,4.61953c-3.42363,-1.26387 -5.10908,-2.08535 -8.19609,-4.05234l-0.97588,-0.76934c-3.08145,-0.89619 -4.72441,-1.66846 -7.49033,-3.24082z" fill="#2b3d4a"/><path d="M171.28711,212.47441c2.92002,-0.28857 5.61152,2.29102 8.2125,3.82412c-4.01309,1.16895 -4.99395,2.90273 -8.45479,4.61953c-3.42363,-1.26387 -5.10908,-2.08535 -8.19609,-4.05234c1.09512,-1.12236 6.78721,-3.35098 8.43838,-4.39131z" fill="#2b3d4a"/><path d="M170.78174,211.66553l0.50537,0.80889c-1.65117,1.04033 -7.34326,3.26895 -8.43838,4.39131l-0.97588,-0.76934c2.02852,-1.6957 6.74297,-2.99824 8.90889,-4.43086z" fill="#101925"/><path d="M103.08779,178.64736c2.23477,0.12949 9.93398,4.0374 12.24258,5.18057c-2.13311,0.94482 -4.80117,3.14297 -7.08604,4.49941c-2.95166,0.5209 -9.70635,-3.35303 -12.22178,-4.83574c2.43252,-1.96582 4.43525,-3.19893 7.06523,-4.84424z" fill="#2b3d4a"/><path d="M91.47129,173.10908c1.7083,-0.18486 8.48086,3.76377 10.32305,4.7499c-1.65938,0.81475 -4.771,3.08057 -6.74561,4.24219c-2.74893,0.67588 -7.71328,-2.71641 -10.03418,-4.18711c2.42959,-2.59424 3.29092,-3.13887 6.45674,-4.80498z" fill="#2b3d4a"/><path d="M179.75244,217.10947c1.74258,0.05186 8.42285,2.57168 10.56914,3.27568c-2.89072,1.38633 -5.08271,3.28125 -7.76455,4.9998l-0.91816,0.41104c-2.02793,0.0873 -7.21758,-2.93936 -9.2127,-3.95801c2.60332,-2.04756 4.28672,-3.43594 7.32627,-4.72852z" fill="#2b3d4a"/><path d="M101.13984,156.02051c11.95342,6.58857 21.71367,11.03555 33.74268,16.90811l0.7875,0.63135c2.46592,1.16572 4.72764,2.51221 7.16631,3.6917c10.88818,5.15361 21.71045,10.44551 32.46387,15.8748c4.70391,2.36367 10.12793,4.71973 14.64902,7.12852l1.02275,0.65859c5.42754,2.56436 10.67607,5.22451 16.20791,7.79824c-1.55068,0.28301 -2.29277,-0.98115 -3.70254,-1.06904l0.08789,0.5584c0.98203,0.65098 1.35146,0.78047 2.45303,1.20879l-0.61699,0.20479l1.48564,0.8543c0.6041,0.14883 0.62373,0.21006 1.07666,0.67061c-1.65908,0.95596 -5.90303,3.14062 -7.06699,4.40068c-0.58066,-0.31143 -0.81768,-0.49453 -1.34648,-0.89326c-5.20693,-2.44482 -10.10215,-5.34375 -15.1415,-8.1l-1.31543,1.00928c-4.77949,-3.02256 -11.83125,-4.76982 -16.82666,-7.69951c-17.94434,-10.52402 -37.80967,-17.47236 -55.94062,-27.49277l-1.00869,-0.8083c-1.21553,-0.84668 -2.6042,-1.4918 -3.8499,-2.22627c-3.05625,-1.80205 -12.79014,-4.3043 -13.40684,-8.15127l-0.04863,-0.91729c0.62959,-1.56123 6.72627,-3.75059 8.58867,-3.33633c0.05391,-0.3 0.34365,-0.62637 0.53936,-0.9041z" fill="#2b3d4a"/><path d="M101.13984,156.02051c11.95342,6.58857 21.71367,11.03555 33.74268,16.90811l0.7875,0.63135c2.46592,1.16572 4.72764,2.51221 7.16631,3.6917c10.88818,5.15361 21.71045,10.44551 32.46387,15.8748c4.70391,2.36367 10.12793,4.71973 14.64902,7.12852l1.02275,0.65859c5.42754,2.56436 10.67607,5.22451 16.20791,7.79824c-1.55068,0.28301 -2.29277,-0.98115 -3.70254,-1.06904l0.08789,0.5584c0.98203,0.65098 1.35146,0.78047 2.45303,1.20879l-0.61699,0.20479c-3.67588,-1.00078 -14.28047,-6.91729 -18.16963,-8.77383l-42.72715,-20.92061c-8.97715,-4.48389 -17.73838,-9.16436 -26.93262,-13.2126l-0.61377,-0.40195c-1.98105,1.74785 -4.04238,2.76445 -6.35742,3.98408c-2.71055,-1.46543 -5.83359,-3.19395 -8.71348,-4.23809c-0.77109,-0.29619 -1.79561,-0.84639 -2.5626,-1.23164c-3.04365,-1.12236 -4.68867,-1.70566 -7.26416,-3.64189l-0.04863,-0.91729c0.62959,-1.56123 6.72627,-3.75059 8.58867,-3.33633c0.05391,-0.3 0.34365,-0.62637 0.53936,-0.9041z" fill="#020607"/><path d="M92.06045,161.17822l-0.04863,-0.91729c0.62959,-1.56123 6.72627,-3.75059 8.58867,-3.33633c1.54043,0.93984 5.296,3.29678 6.82939,3.93193l0.73916,0.59795c-2.02031,1.7625 -4.20352,2.92002 -6.28184,4.59727c-0.77109,-0.29619 -1.79561,-0.84639 -2.5626,-1.23164c-3.04365,-1.12236 -4.68867,-1.70566 -7.26416,-3.64189z" fill="#2b3d4a"/><path d="M107.42988,160.85654l0.73916,0.59795c-2.02031,1.7625 -4.20352,2.92002 -6.28184,4.59727c-0.77109,-0.29619 -1.79561,-0.84639 -2.5626,-1.23164c1.53135,-0.26807 6.81416,-2.7709 8.10527,-3.96357z" fill="#101925"/><path d="M108.16904,161.45449c2.99971,1.32861 6.00293,3.11865 8.78906,4.85127c-1.98105,1.74785 -4.04238,2.76445 -6.35742,3.98408c-2.71055,-1.46543 -5.83359,-3.19395 -8.71348,-4.23809c2.07832,-1.67725 4.26152,-2.83477 6.28184,-4.59727z" fill="#2b3d4a"/><path d="M92.06045,161.17822c2.57549,1.93623 4.22051,2.51953 7.26416,3.64189c0.76699,0.38525 1.7915,0.93545 2.5626,1.23164c2.87988,1.04414 6.00293,2.77266 8.71348,4.23809l0.78662,0.89209l57.01201,27.68555l0.74648,0.43975c4.55068,1.97812 9.07529,3.95361 13.42705,6.34102c0.5959,0.32695 1.18535,0.69258 1.83574,0.89883l-1.31543,1.00928c-4.77949,-3.02256 -11.83125,-4.76982 -16.82666,-7.69951c-17.94434,-10.52402 -37.80967,-17.47236 -55.94062,-27.49277l-1.00869,-0.8083c-1.21553,-0.84668 -2.6042,-1.4918 -3.8499,-2.22627c-3.05625,-1.80205 -12.79014,-4.3043 -13.40684,-8.15127z" fill="#020607"/><path d="M206.88691,210.46904c0.6041,0.14883 0.62373,0.21006 1.07666,0.67061c-1.65908,0.95596 -5.90303,3.14062 -7.06699,4.40068c-0.58066,-0.31143 -0.81768,-0.49453 -1.34648,-0.89326c0.92227,-0.1875 6.22969,-3.49688 7.33682,-4.17803z" fill="#101925"/><path d="M116.95811,166.30576l0.61377,0.40195c-1.95205,1.15459 -3.0498,2.84268 -6.18457,4.47422l-0.78662,-0.89209c2.31504,-1.21963 4.37637,-2.23623 6.35742,-3.98408z" fill="#101925"/><path d="M168.39932,198.86748c0.88271,-0.85342 1.74346,-1.85449 2.90801,-2.17734l0.31084,0.25078c-0.51562,1.03623 -1.53721,1.66816 -2.47236,2.36631z" fill="#101925"/><path d="M141.02285,168.52119l1.34766,0.55605c15.91582,7.01689 31.29961,15.72217 47.16504,22.83896c7.84541,3.51914 18.66504,11.42578 27.03369,12.88594c0.46582,0.09199 0.68965,0.06943 1.15898,0.07471c-0.0832,-0.47461 -0.44795,-0.62227 -0.9082,-1.00107l2.10879,-1.28848c-0.18896,0.33809 -0.42422,0.75908 -0.70605,1.26299c0.12891,0.67764 0.57715,1.23574 -0.20654,1.86416c-1.40654,0.15205 -6.0999,3.57275 -6.88945,4.53018c-0.48486,0.03955 -1.35557,-0.4415 -1.84717,-0.6665c-0.76875,-0.40869 -1.22783,-0.70371 -2.09971,-0.86631c-5.53184,-2.57373 -10.78037,-5.23389 -16.20791,-7.79824l-1.02275,-0.65859c-4.52109,-2.40879 -9.94512,-4.76484 -14.64902,-7.12852c-10.75342,-5.4293 -21.57568,-10.72119 -32.46387,-15.8748c-2.43867,-1.17949 -4.70039,-2.52598 -7.16631,-3.6917l-0.7875,-0.63135c1.16045,-1.55215 3.76465,-1.83252 6.14033,-4.40742z" fill="#2b3d4a"/><path d="M216.82002,203.87578l2.10879,-1.28848c-0.18896,0.33809 -0.42422,0.75908 -0.70605,1.26299c0.12891,0.67764 0.57715,1.23574 -0.20654,1.86416c-1.40654,0.15205 -6.0999,3.57275 -6.88945,4.53018c-0.48486,0.03955 -1.35557,-0.4415 -1.84717,-0.6665c1.38223,-0.07061 5.96396,-3.73242 7.28965,-4.77598c0.46582,0.09199 0.68965,0.06943 1.15898,0.07471c-0.0832,-0.47461 -0.44795,-0.62227 -0.9082,-1.00107z" fill="#101925"/><path d="M141.02285,168.52119l1.34766,0.55605c-0.40576,0.17988 -6.10986,4.03154 -6.70049,4.48271l-0.7875,-0.63135c1.16045,-1.55215 3.76465,-1.83252 6.14033,-4.40742z" fill="#101925"/><path d="M189.94922,200.25498c1.44404,-1.69277 3.50098,-2.88779 5.41992,-3.98643c-1.5126,1.78594 -2.71846,3.00469 -4.39717,4.64502z" fill="#101925"/><path d="M101.05957,155.51953c0.90615,-3.03398 5.8207,-3.85371 8.56494,-3.18428c4.8041,3.44033 10.58379,5.59248 15.89736,8.16973c4.54541,2.20459 10.83955,6.56953 15.50098,8.01621c-2.37568,2.5749 -4.97988,2.85527 -6.14033,4.40742c-12.029,-5.87256 -21.78926,-10.31953 -33.74268,-16.90811z" fill="#2b3d4a"/><path d="M109.62451,152.33525c0.75439,-0.33867 1.10918,-0.59443 1.96436,-0.16641c6.45469,3.23057 13.01572,6.11426 19.4458,9.39932c3.54551,1.81143 8.6001,4.96758 12.50273,4.99336c0.05449,0.06123 1.23398,1.50352 1.1543,1.45547c6.52617,3.9375 18.97002,9.38701 25.36465,12.5748l27.68232,14.00273c4.51494,2.33086 14.70205,7.76689 19.08135,9.28125c0.46025,0.37881 0.825,0.52646 0.9082,1.00107c-0.46934,-0.00527 -0.69316,0.01729 -1.15898,-0.07471c-8.36865,-1.46016 -19.18828,-9.3668 -27.03369,-12.88594c-15.86543,-7.1168 -31.24922,-15.82207 -47.16504,-22.83896l-1.34766,-0.55605c-4.66143,-1.44668 -10.95557,-5.81162 -15.50098,-8.01621c-5.31357,-2.57725 -11.09326,-4.72939 -15.89736,-8.16973z" fill="#020607"/><path d="M207.96357,211.13965c4.53955,1.72676 5.89072,2.58105 9.91611,5.47002c-2.62471,1.25918 -5.3499,2.821 -7.9166,4.23018c-1.97754,-1.22314 -7.34355,-4.7332 -9.0665,-5.29951c1.16396,-1.26006 5.40791,-3.44473 7.06699,-4.40068z" fill="#2b3d4a"/><path d="M211.12676,210.24463c0.78955,-0.95742 5.48291,-4.37812 6.88945,-4.53018c3.05596,1.66582 5.69033,2.98975 8.4085,5.21133c-2.30684,1.41064 -4.3793,2.56436 -6.75967,3.84434c-3.2373,-1.40098 -5.49609,-2.79873 -8.53828,-4.52549z" fill="#2b3d4a"/><path d="M223.83926,201.6041c2.05459,0.14414 8.77148,3.03193 9.18018,5.26201c-0.9917,1.08926 -1.79443,0.96885 -3.33018,1.0752c-4.06436,-0.14531 -7.32861,-1.5498 -10.96758,-3.28828c1.81846,-1.48477 2.80723,-2.39473 5.11758,-3.04893z" fill="#1a3639"/><path d="M76.54834,165.11631c3.02754,-1.44346 19.68018,-11.87461 20.88047,-11.74805c-0.07002,0.08848 -9.75381,6.08262 -10.82344,6.84961l0.0627,0.12539c5.4501,-2.50195 9.36797,-5.12666 14.46387,-8.24414c1.10391,-0.67529 2.40908,-1.43613 3.66357,-1.12764c-1.37314,0.75029 -3.92139,2.05049 -5.13779,2.86553c0.3249,0.42129 0.56104,0.85254 0.78398,1.33506l0.61787,0.34746l0.08027,0.50098c-0.1957,0.27773 -0.48545,0.6041 -0.53936,0.9041c-1.8624,-0.41426 -7.95908,1.7751 -8.58867,3.33633l0.04863,0.91729c0.6167,3.84697 10.35059,6.34922 13.40684,8.15127c1.2457,0.73447 2.63438,1.37959 3.8499,2.22627l1.00869,0.8083c-1.56943,0.8707 -5.70762,2.99033 -6.45967,4.51436l-0.20684,-0.06855c-3.02578,-1.13994 -7.50322,-4.36172 -11.89746,-6.11543l-1.21875,1.16572c-3.19072,1.37197 -4.80146,3.34951 -7.77832,4.67344c-0.24492,0.10898 -1.23809,-0.23643 -1.546,-0.34951c-1.80088,0.24844 -2.82656,-0.97061 -3.99521,-0.71133c0.98115,1.2334 2.66807,0.85635 3.41484,2.49785c-2.42051,-0.95361 -5.17354,-2.37979 -7.54541,-3.53467c-1.26738,-0.49072 -2.35137,-1.49502 -3.41514,-2.36309c2.01182,-1.75752 3.78398,-2.90244 5.98945,-4.37285z" fill="url(#color-8)"/><path d="M76.54834,165.11631c3.02754,-1.44346 19.68018,-11.87461 20.88047,-11.74805c-0.07002,0.08848 -9.75381,6.08262 -10.82344,6.84961l0.0627,0.12539c5.4501,-2.50195 9.36797,-5.12666 14.46387,-8.24414c1.10391,-0.67529 2.40908,-1.43613 3.66357,-1.12764c-1.37314,0.75029 -3.92139,2.05049 -5.13779,2.86553c-4.49326,2.72813 -8.98682,5.17031 -13.54453,7.76162c-3.53262,2.00859 -6.81416,4.20293 -10.4458,6.10137z" fill="#81cfa9"/><path d="M90.54316,171.86016c-0.33164,-0.86104 -6.96914,-4.00283 -8.44131,-4.79209c0.26221,-0.51387 0.07207,-0.30908 0.63604,-0.58418c1.26768,0.28066 7.29961,3.36387 9.02402,4.21055z" fill="#020607"/><path d="M73.09307,174.43594c0.76436,-0.31553 1.04619,-0.09521 1.62451,-0.37705c1.82168,0.14355 4.81348,1.2832 6.50127,2.1252c-1.80088,0.24844 -2.82656,-0.97061 -3.99521,-0.71133c0.98115,1.2334 2.66807,0.85635 3.41484,2.49785c-2.42051,-0.95361 -5.17354,-2.37979 -7.54541,-3.53467z" fill="#101925"/><path d="M109.31719,171.55576l1.00869,0.8083c-1.56943,0.8707 -5.70762,2.99033 -6.45967,4.51436l-0.20684,-0.06855c0.24932,-2.2292 3.86162,-4.13291 5.65781,-5.2541z" fill="#101925"/><path d="M146.44775,154.58525c1.14375,0.0126 2.24561,0.10078 3.16172,0.79541c0.56807,1.06377 0.40166,0.75322 0.27041,2.11406c-1.2542,0.19922 -1.80645,0.17959 -2.84268,-0.57568c-0.64834,-0.90908 -0.5833,-1.22168 -0.58945,-2.33379z" fill="#024930"/><path d="M127.87207,144.78896c0.34658,0.05098 0.79072,0.1752 1.14111,0.25986c1.14111,1.25098 1.14258,2.20107 1.34795,3.9c-2.54385,-1.10918 -2.99062,-1.30078 -2.48906,-4.15986z" fill="#024930"/><path d="M265.12939,74.84326c2.55967,1.08076 4.41475,1.58584 6.57363,3.31172c2.46006,2.70879 3.14473,5.90215 2.91211,9.46523c-0.73916,11.32676 -1.904,22.62773 -3.00586,33.9082l-5.23447,52.74785c-0.59531,5.66045 -1.36992,22.43086 -3.22412,26.91768c-1.05937,0.12832 -5.24736,4.90898 -6.53437,4.92715c0.86016,-3.45762 4.58525,-2.64785 4.51611,-6.9583l-1.00225,2.18643c-0.52734,0.25635 -0.90205,0.34893 -1.46543,0.51445c-1.33535,-1.7127 2.38535,-30.58096 2.7876,-34.45049l5.13369,-52.15869c0.94717,-9.24287 2.53066,-21.63721 2.64287,-30.71865c0.40605,0.43418 0.41807,0.39756 1.01133,0.56572c0.5748,-0.85107 0.43594,-1.52578 0.52324,-2.68125c-0.69639,-2.19639 -1.85068,-3.14209 -3.6665,-4.3623c-0.70459,-1.49883 -0.95156,-1.90781 -1.96758,-3.21475z" fill="#024930"/><path d="M265.12939,74.84326c2.55967,1.08076 4.41475,1.58584 6.57363,3.31172c2.46006,2.70879 3.14473,5.90215 2.91211,9.46523c-0.73916,11.32676 -1.904,22.62773 -3.00586,33.9082l-5.23447,52.74785c-0.59531,5.66045 -1.36992,22.43086 -3.22412,26.91768c-1.05937,0.12832 -5.24736,4.90898 -6.53437,4.92715c0.86016,-3.45762 4.58525,-2.64785 4.51611,-6.9583c0.71426,-2.53623 1.42383,-12.71631 1.7124,-15.89385l2.92354,-31.40391c0.38408,-4.1168 1.3626,-8.48818 1.59814,-12.51445c1.03125,-17.6291 4.67754,-35.52773 4.22988,-53.13838c-0.23848,-1.27236 -0.51621,-2.53682 -0.83291,-3.79189c-0.69639,-2.19639 -1.85068,-3.14209 -3.6665,-4.3623c-0.70459,-1.49883 -0.95156,-1.90781 -1.96758,-3.21475z" fill="#020607"/><path d="M265.12939,74.84326c2.55967,1.08076 4.41475,1.58584 6.57363,3.31172c-0.87539,2.71025 0.1585,4.89053 -0.10664,8.05723c-0.23848,-1.27236 -0.51621,-2.53682 -0.83291,-3.79189c-0.69639,-2.19639 -1.85068,-3.14209 -3.6665,-4.3623c-0.70459,-1.49883 -0.95156,-1.90781 -1.96758,-3.21475z" fill="#1a3639"/><path d="M132.66094,13.60711c1.7165,-0.14476 4.81641,-0.47827 6.33252,0.18375c6.49395,2.8355 12.91201,6.4328 19.2375,9.50171c14.41201,6.82257 28.77979,13.7381 43.10244,20.7462l38.6124,18.53818c2.84912,1.35615 15.56689,7.12705 17.50342,8.57578c1.42646,0.69023 6.79336,2.95635 7.68018,3.69053c1.01602,1.30693 1.26299,1.71592 1.96758,3.21475c1.81582,1.22021 2.97012,2.16592 3.6665,4.3623c-0.0873,1.15547 0.05156,1.83018 -0.52324,2.68125c-0.59326,-0.16816 -0.60527,-0.13154 -1.01133,-0.56572c-0.92197,-5.12754 -12.19248,-9.05566 -16.74814,-11.22656l-19.46953,-9.47285l-77.04053,-37.21526c-4.89404,-2.39367 -21.4002,-9.81179 -24.55605,-12.27964z" fill="#84a39c"/><path d="M132.66094,13.60711c1.7165,-0.14476 4.81641,-0.47827 6.33252,0.18375c6.49395,2.8355 12.91201,6.4328 19.2375,9.50171c14.41201,6.82257 28.77979,13.7381 43.10244,20.7462l38.6124,18.53818c2.84912,1.35615 15.56689,7.12705 17.50342,8.57578c-2.61914,0.60996 -2.37422,0.27188 -4.94443,-0.34365c-2.49551,-0.96533 -7.89229,-3.76201 -10.48506,-5.01094l-22.18506,-10.74639c-17.35723,-8.45273 -34.9418,-16.5208 -52.22783,-25.10215c-5.1,-2.53172 -31.52373,-16.03787 -34.9459,-16.3425z" fill="#020607"/><path d="M252.50479,70.80908c2.57021,0.61553 2.32529,0.95361 4.94443,0.34365c1.42646,0.69023 6.79336,2.95635 7.68018,3.69053c1.01602,1.30693 1.26299,1.71592 1.96758,3.21475c-4.82197,-2.76973 -9.91934,-4.63389 -14.59219,-7.24893z" fill="#122429"/><path d="M134.05342,24.96343c4.75957,1.70338 13.22139,6.63062 18.24785,9.00425l84.13008,40.25127c5.38037,2.6335 22.94912,10.35967 26.62324,13.75283c-0.14092,4.07871 -0.72598,9.15352 -1.09248,13.27793c-0.75615,8.56465 -1.56826,17.12432 -2.43633,25.67842c-2.04844,21.45791 -4.31602,42.89414 -6.80303,64.30576c-0.20947,0.22998 -0.45264,0.29033 -0.75615,0.42627c-2.9373,-0.21738 -21.64863,-9.99697 -25.70449,-12.00791l-48.03018,-23.83125l-34.07344,-16.78799c-5.88955,-2.87754 -14.29043,-6.53584 -19.67139,-9.78164c-0.2751,-6.43564 1.29375,-20.17354 2.00039,-27.00293l3.77812,-38.04961c0.75645,-7.78594 1.32188,-15.375 1.90459,-23.16123c0.3375,-4.51201 0.89004,-11.75941 1.8832,-16.07417z" fill="url(#color-9)"/></g></svg></svg>