<svg id="svg" version="1.1" viewBox="0 0 300 300" width="300" height="300" xmlns="http://www.w3.org/2000/svg"><svg xmlns="http://www.w3.org/2000/svg"><defs><clipPath id="clip-1"><rect x="0" y="0" transform="scale(0.29297,0.29297)" width="1024" height="1024" fill="none"/></clipPath><linearGradient x1="266.04873" y1="193.6957" x2="268.18184" y2="197.28105" gradientUnits="userSpaceOnUse" id="color-1"><stop offset="0" stop-color="#9d9c9b"/><stop offset="1" stop-color="#b8b9b9"/></linearGradient><linearGradient x1="220.20176" y1="172.58584" x2="209.11816" y2="155.58809" gradientUnits="userSpaceOnUse" id="color-2"><stop offset="0" stop-color="#ff95dc"/><stop offset="1" stop-color="#ffbce4"/></linearGradient><linearGradient x1="117.24287" y1="139.99307" x2="125.81016" y2="122.69121" gradientUnits="userSpaceOnUse" id="color-3"><stop offset="0" stop-color="#bb0056"/><stop offset="1" stop-color="#e82175"/></linearGradient><linearGradient x1="145.47334" y1="159.98613" x2="144.25283" y2="152.73369" gradientUnits="userSpaceOnUse" id="color-4"><stop offset="0" stop-color="#990045"/><stop offset="1" stop-color="#cc0057"/></linearGradient><linearGradient x1="95.51221" y1="134.86465" x2="92.204" y2="123.09785" gradientUnits="userSpaceOnUse" id="color-5"><stop offset="0" stop-color="#cf005a"/><stop offset="1" stop-color="#f81973"/></linearGradient></defs><g clip-path="url(#clip-1)" fill="none" fill-rule="nonzero" stroke="none" stroke-width="1" stroke-linecap="butt" stroke-linejoin="miter" stroke-miterlimit="10" stroke-dasharray="" stroke-dashoffset="0" font-family="none" font-weight="none" font-size="none" text-anchor="none" style="mix-blend-mode: normal"><path d="M24.98604,112.01221l77.83925,-45.97998l19.66436,-11.37715c8.35664,-4.85684 14.98125,-10.59404 25.27354,-8.17764c7.37959,1.73232 11.48203,5.22979 17.9209,8.50986c27.53057,14.02441 54.3293,29.46768 81.71865,43.78477c5.02031,2.62412 9.81299,5.63086 14.77617,8.24912l16.2876,8.66338c5.35254,2.85938 8.804,3.61055 11.50664,9.57656c0.28887,1.97256 0.57979,7.88057 0.37119,9.81855c-0.89912,8.34932 1.87646,33.95449 -1.09541,40.42588c0.90264,0.69199 2.96074,1.94326 3.32285,2.79932c-0.14854,0.86221 -0.29385,0.72715 -1.15312,1.3834c-0.45264,0.43711 -0.87598,0.80449 -1.23691,1.32041c-0.2499,0.55342 -1.01514,2.23564 -1.4625,2.59512c-7.05146,5.66865 -16.18389,11.86992 -23.90273,16.39541c-5.97949,3.50566 -11.75186,5.10967 -17.45977,9.31055c-1.97461,1.20029 -4.10244,2.31943 -6.16934,3.52969c-9.59414,5.61768 -18.629,12.23496 -28.63535,17.11611c-1.1209,0.54697 -2.86113,1.59932 -3.9876,1.90225c-3.3668,2.73545 -7.70332,4.80029 -11.40293,7.22285c-5.50605,3.60586 -14.51191,8.91855 -20.79961,10.7209l-1.18271,0.2291c-0.82705,0.25928 -1.51377,0.49658 -2.37422,0.64395c-3.52646,1.5082 -5.95459,2.70264 -9.84434,2.88252c-1.06699,0.09463 -2.52656,0.82178 -4.23018,1.0292c-4.29756,0.52354 -8.49492,-1.35 -12.55664,-2.76973c-1.30547,-0.20947 -3.31816,-1.01133 -4.62188,-1.48096c-2.5626,-0.03457 -12.45264,-3.60732 -15.22764,-4.66055l-2.41436,-1.20439c-7.21377,-3.46523 -10.81084,-6.33047 -17.55176,-10.33066c-4.82842,-2.86523 -12.47314,-5.67979 -17.33555,-8.68564c-5.58838,-2.70029 -11.1457,-5.46387 -16.67109,-8.29014c-1.68604,-0.66592 -4.09687,-2.35957 -5.63994,-3.43447c-4.65322,-1.33594 -8.34668,-3.4292 -12.27217,-6.1623c-4.3957,-1.9749 -8.56406,-4.74053 -12.74355,-7.13203c-2.67832,-1.53281 -7.72764,-2.52363 -9.99023,-4.69834c-3.22436,-3.09873 -29.50649,-13.82695 -21.73594,-20.15098l0.38435,-0.31289c-1.54172,-3.05273 -1.54746,-44.22598 -0.72053,-49.68164c0.07509,-1.2627 0.59256,-2.9666 1.34306,-4.01016c1.6183,-2.11143 3.27545,-3.47578 5.69285,-4.56533c2.7622,-1.44551 5.51566,-3.42275 8.31659,-5.00391zM66.71162,213.72979c1.54307,1.0749 3.95391,2.76855 5.63994,3.43447c5.52539,2.82627 11.08271,5.58984 16.67109,8.29014c4.8624,3.00586 12.50713,5.82041 17.33555,8.68564c6.74092,4.0002 10.33799,6.86543 17.55176,10.33066l2.41436,1.20439c2.775,1.05322 12.66504,4.62598 15.22764,4.66055c1.30371,0.46963 3.31641,1.27148 4.62188,1.48096c4.06172,1.41973 8.25908,3.29326 12.55664,2.76973c1.70361,-0.20742 3.16318,-0.93457 4.23018,-1.0292c3.88975,-0.17988 6.31787,-1.37432 9.84434,-2.88252c0.86045,-0.14736 1.54717,-0.38467 2.37422,-0.64395l1.18271,-0.2291c6.2877,-1.80234 15.29355,-7.11504 20.79961,-10.7209c3.69961,-2.42256 8.03613,-4.4874 11.40293,-7.22285c1.12646,-0.30293 2.8667,-1.35527 3.9876,-1.90225c10.00635,-4.88115 19.04121,-11.49844 28.63535,-17.11611c2.06689,-1.21025 4.19473,-2.32939 6.16934,-3.52969c5.70791,-4.20088 11.48027,-5.80488 17.45977,-9.31055c7.71885,-4.52549 16.85127,-10.72676 23.90273,-16.39541c0.44736,-0.35947 1.2126,-2.0417 1.4625,-2.59512c0.36094,-0.51592 0.78428,-0.8833 1.23691,-1.32041c0.85928,-0.65625 1.00459,-0.52119 1.15312,-1.3834c-0.36211,-0.85605 -2.42021,-2.10732 -3.32285,-2.79932c2.97187,-6.47139 0.19629,-32.07656 1.09541,-40.42588c0.20859,-1.93799 -0.08232,-7.846 -0.37119,-9.81855c-0.51445,0.59561 -0.89326,1.03301 -1.4748,1.58057c-1.87676,0.04717 -3.20537,1.63711 -4.32744,3.11924c0.6709,-0.29883 0.95156,-0.44063 1.67783,-0.60967c-0.03018,0.79746 -0.35273,1.04678 -0.8165,1.81113c-10.18623,6.85049 -23.30801,13.72119 -34.04648,19.90664l-47.83447,27.98496c-8.27139,4.77891 -16.50146,9.629 -24.68936,14.54912c-3.00937,1.78301 -12.07031,7.23867 -14.99326,8.27051c-3.03252,0.91992 -4.94355,1.0793 -8.11699,1.21318c-5.06367,0.09258 -7.81436,-1.47773 -12.09756,-3.71895c-2.19727,-0.93047 -6.07236,-3.11133 -8.29365,-4.27939c-4.98662,-2.59307 -9.95742,-5.21748 -14.91123,-7.87324l-37.38604,-19.94854l-44.73574,-24.01172c-3.90029,-2.09766 -24.25948,-12.33633 -26.00654,-15.27451l-0.97236,-0.53145c-0.56707,-0.73037 -0.52348,-1.54775 -0.59268,-2.48086c-0.44414,0.81094 -0.39706,1.77188 -0.44446,2.7126l-0.07857,-0.80449c-0.16547,-0.22881 -0.16896,-0.93838 -0.19928,-1.28467c-0.82693,5.45566 -0.82119,46.62891 0.72053,49.68164l-0.38435,0.31289c-7.77056,6.32402 18.51158,17.05225 21.73594,20.15098c2.2626,2.17471 7.31191,3.16553 9.99023,4.69834c4.17949,2.3915 8.34785,5.15713 12.74355,7.13203c3.92549,2.73311 7.61895,4.82637 12.27217,6.1623z" fill="#fe3e9b"/><path d="M9.63354,125.5916c0.03032,0.34629 0.03381,1.05586 0.19928,1.28467l0.07857,0.80449c0.0474,-0.94072 0.00032,-1.90166 0.44446,-2.7126c0.0692,0.93311 0.02561,1.75049 0.59268,2.48086l0.97236,0.53145c1.74706,2.93818 22.10625,13.17686 26.00654,15.27451l44.73574,24.01172l37.38604,19.94854c4.95381,2.65576 9.92461,5.28018 14.91123,7.87324c2.22129,1.16807 6.09639,3.34893 8.29365,4.27939c4.2832,2.24121 7.03389,3.81152 12.09756,3.71895c3.17344,-0.13389 5.08447,-0.29326 8.11699,-1.21318c0.30674,1.1209 1.40391,2.40498 1.49854,3.24551c0.35127,3.11924 0.33193,6.3542 0.36592,9.49834c0.0835,7.82988 0.04131,15.66064 -0.12627,23.48936c-0.03896,2.579 -0.37383,7.9834 -0.22266,10.20322c-1.6418,0.62959 -2.45566,0.91465 -4.19766,1.32773l-0.17168,0.46406l-1.11914,0.31113l0.17402,0.03955l-1.2583,0.48428l0.0627,0.32051c1.9166,-0.0334 2.30098,-0.70986 3.13125,-0.73213c1.32656,-0.03574 4.74814,-0.70166 5.70762,-0.73096c-1.28848,0.89561 -1.77744,1.06904 -3.25752,1.64443c-0.57422,0.72598 -1.05293,1.18564 -1.09482,2.11846c-1.06699,0.09463 -2.52656,0.82178 -4.23018,1.0292c-4.29756,0.52354 -8.49492,-1.35 -12.55664,-2.76973c-1.30547,-0.20947 -3.31816,-1.01133 -4.62188,-1.48096c-2.5626,-0.03457 -12.45264,-3.60732 -15.22764,-4.66055l-2.41436,-1.20439c-7.21377,-3.46523 -10.81084,-6.33047 -17.55176,-10.33066c-4.82842,-2.86523 -12.47314,-5.67979 -17.33555,-8.68564c-5.58838,-2.70029 -11.1457,-5.46387 -16.67109,-8.29014c-1.68604,-0.66592 -4.09687,-2.35957 -5.63994,-3.43447c-4.65322,-1.33594 -8.34668,-3.4292 -12.27217,-6.1623c-4.3957,-1.9749 -8.56406,-4.74053 -12.74355,-7.13203c-2.67832,-1.53281 -7.72764,-2.52363 -9.99023,-4.69834c-3.22436,-3.09873 -29.50649,-13.82695 -21.73594,-20.15098l0.38435,-0.31289c-1.54172,-3.05273 -1.54746,-44.22598 -0.72053,-49.68164zM118.69629,207.78223c0.49395,-2.74219 0.00967,-5.25205 -3.34863,-5.19375c-0.4333,1.37578 -1.01719,2.69766 -0.34395,4.01543c0.96123,1.04297 2.27637,1.02715 3.69258,1.17832zM136.64414,218.17324c1.25947,-4.03535 0.97939,-5.69502 -3.72275,-6.04629c-0.89297,-0.0668 -1.61191,-0.28066 -2.58135,-0.24287c-0.29473,2.55762 3.71719,6.38115 6.3041,6.28916z" fill="#dc106d"/><path d="M10.35407,175.27324c0.96595,0.85488 1.0902,1.79736 1.9631,2.35342c2.25486,5.31738 10.71305,8.0165 15.66841,10.58027l24.83376,13.11797c14.4709,7.82871 29.01006,15.53027 43.61631,23.10352c14.28428,7.73145 28.68809,15.23936 43.20615,22.52168c0.52266,1.01396 1.85156,2.76357 1.91016,3.38555c-2.5626,-0.03457 -12.45264,-3.60732 -15.22764,-4.66055l-2.41436,-1.20439c-7.21377,-3.46523 -10.81084,-6.33047 -17.55176,-10.33066c-4.82842,-2.86523 -12.47314,-5.67979 -17.33555,-8.68564c-5.58838,-2.70029 -11.1457,-5.46387 -16.67109,-8.29014c-1.68604,-0.66592 -4.09687,-2.35957 -5.63994,-3.43447c-4.65322,-1.33594 -8.34668,-3.4292 -12.27217,-6.1623c-4.3957,-1.9749 -8.56406,-4.74053 -12.74355,-7.13203c-2.67832,-1.53281 -7.72764,-2.52363 -9.99023,-4.69834c-3.22436,-3.09873 -29.50649,-13.82695 -21.73594,-20.15098z" fill="#aeacae"/><path d="M72.35156,217.16426c0.4459,-0.03545 2.16973,-0.1749 2.47178,-0.05332c3.20713,1.29229 12.69053,5.0959 14.30889,8.04932l-0.10957,0.29414c-5.58838,-2.70029 -11.1457,-5.46387 -16.67109,-8.29014z" fill="#bebdbf"/><path d="M54.43945,207.56748c0.86777,-0.3375 1.34268,-0.69873 2.26406,-0.2291c2.64609,1.34824 8.14424,3.93076 9.95186,5.97129l0.05625,0.42012c-4.65322,-1.33594 -8.34668,-3.4292 -12.27217,-6.1623z" fill="#bebdbf"/><path d="M123.90996,244.4707c0.13447,-1.21289 0.17285,-0.77168 -0.43066,-1.91807l0.24814,-0.16143l-0.25488,0.05947c1.73291,0.05098 3.41338,1.31719 2.85176,3.22441z" fill="#bebdbf"/><path d="M12.31717,177.62666c2.95104,1.01162 50.44377,25.84424 51.28313,26.65928c3.04219,1.46807 7.08105,3.51797 9.94658,5.34082c11.75918,6.42012 23.49609,12.27246 35.22393,18.51592l21.01377,11.13223c5.9707,3.18984 15.48984,9.14268 21.72217,10.27412c4.53369,0.72246 5.62939,-0.07939 9.27979,0.08877l-0.17168,0.46406l-1.11914,0.31113l0.17402,0.03955l-1.2583,0.48428l0.0627,0.32051c1.9166,-0.0334 2.30098,-0.70986 3.13125,-0.73213c1.32656,-0.03574 4.74814,-0.70166 5.70762,-0.73096c-1.28848,0.89561 -1.77744,1.06904 -3.25752,1.64443c-0.57422,0.72598 -1.05293,1.18564 -1.09482,2.11846c-1.06699,0.09463 -2.52656,0.82178 -4.23018,1.0292c-4.29756,0.52354 -8.49492,-1.35 -12.55664,-2.76973c-1.30547,-0.20947 -3.31816,-1.01133 -4.62188,-1.48096c-0.05859,-0.62197 -1.3875,-2.37158 -1.91016,-3.38555c-14.51807,-7.28232 -28.92188,-14.79023 -43.20615,-22.52168c-14.60625,-7.57324 -29.14541,-15.2748 -43.61631,-23.10352l-24.83376,-13.11797c-4.95536,-2.56377 -13.41354,-5.26289 -15.66841,-10.58027z" fill="#1c070c"/><path d="M139.6418,246.9501c1.43672,0.46172 2.86758,0.9416 4.29229,1.43906c5.86289,3.4957 13.47979,5.07422 20.12139,3.04951c-0.57422,0.72598 -1.05293,1.18564 -1.09482,2.11846c-1.06699,0.09463 -2.52656,0.82178 -4.23018,1.0292c-4.29756,0.52354 -8.49492,-1.35 -12.55664,-2.76973c-1.30547,-0.20947 -3.31816,-1.01133 -4.62188,-1.48096c-0.05859,-0.62197 -1.3875,-2.37158 -1.91016,-3.38555z" fill="#7e8384"/><path d="M139.6418,246.9501c1.43672,0.46172 2.86758,0.9416 4.29229,1.43906c0.56016,0.97383 1.38164,2.79785 2.33467,3.17402l-0.09492,0.25342c-1.30547,-0.20947 -3.31816,-1.01133 -4.62188,-1.48096c-0.05859,-0.62197 -1.3875,-2.37158 -1.91016,-3.38555z" fill="#76767e"/><path d="M73.54688,209.62676c-0.46084,0.32666 -1.01396,0.69639 -1.55361,0.63018c-2.27168,-0.27861 -7.24482,-3.8833 -8.69033,-5.34404l0.29736,-0.62695c3.04219,1.46807 7.08105,3.51797 9.94658,5.34082z" fill="#020000"/><path d="M114.42363,212.31035c3.65859,0.02695 4.60195,0.74473 7.33916,3.00615c-0.58125,1.84453 -0.72158,2.35928 -0.90469,4.31807c-4.98662,-0.32607 -9.91172,-1.08926 -6.43447,-7.32422z" fill="#080c3b"/><path d="M115.20762,201.52646c0.41953,-0.01201 0.83965,-0.00645 1.25859,0.0167c4.8416,0.30176 3.76406,5.5626 5.88047,8.3001c0.25547,0.33018 0.33604,0.42451 0.57393,0.79219l-0.35244,0.21533c-3.48779,-2.49375 -4.08926,-2.01709 -8.2415,-3.05479c-0.2373,-2.26025 -0.51914,-4.471 0.88096,-6.26953zM118.69629,207.78223c0.49395,-2.74219 0.00967,-5.25205 -3.34863,-5.19375c-0.4333,1.37578 -1.01719,2.69766 -0.34395,4.01543c0.96123,1.04297 2.27637,1.02715 3.69258,1.17832z" fill="#0a1569"/><path d="M115.34766,202.58848c3.3583,-0.0583 3.84258,2.45156 3.34863,5.19375c-1.41621,-0.15117 -2.73135,-0.13535 -3.69258,-1.17832c-0.67324,-1.31777 -0.08936,-2.63965 0.34395,-4.01543z" fill-opacity="0.98824" fill="#01d4fd"/><path d="M123.31992,208.48652c2.14512,-3.1667 3.95801,-2.29131 5.93672,0.48018c-0.65508,1.24102 -1.68252,3.77285 -2.64873,4.32773l-0.24082,0.14063c-0.21943,0.12598 -0.41074,0.22559 -0.63516,0.33809c-0.18633,1.28848 1.17334,2.40703 2.03291,3.33164c-1.56738,0.16699 -1.24893,0.36943 -2.65723,1.03535c-0.16582,-0.9334 -0.35742,-3.8165 -0.23437,-4.76953c0.0498,-0.38467 0.70898,-0.35918 0.77344,-1.68545c-0.78428,-1.14844 -1.31045,-0.37383 -2.39004,-1.5123c-0.2666,-0.96533 -0.22734,-0.57129 0.06328,-1.68633z" fill="#0a1569"/><path d="M123.31992,208.48652c2.14512,-3.1667 3.95801,-2.29131 5.93672,0.48018c-1.26094,0.14238 -3.20889,0.08672 -4.56533,0.24404c-0.71865,0.0832 -0.93926,-0.29443 -1.37139,-0.72422z" fill="#020000"/><path d="M125.10762,218.14014c1.4083,-0.66592 1.08984,-0.86836 2.65723,-1.03535c1.74258,2.93848 1.66582,4.94854 1.68691,8.29365c-4.14521,-1.6957 -7.20029,-2.39766 -4.34414,-7.2583z" fill="#080c3b"/><path d="M130.34004,211.88408c0.96943,-0.03779 1.68838,0.17607 2.58135,0.24287c4.70215,0.35127 4.98223,2.01094 3.72275,6.04629c-2.58691,0.09199 -6.59883,-3.73154 -6.3041,-6.28916z" fill-opacity="0.98824" fill="#00b4fb"/><path d="M22.99907,148.96084c3.62736,0.8748 6.06375,3.82559 4.29568,7.50879c-4.06342,-1.14814 -6.17514,-3.41719 -4.29568,-7.50879z" fill="#020000"/><path d="M34.09629,154.58027c2.37744,0.67529 5.36045,5.96514 2.23887,7.14082c-3.85957,-1.83252 -5.65371,-3.51621 -2.23887,-7.14082z" fill="#020000"/><path d="M23.72479,163.71885c2.65216,0.77168 6.29074,4.09922 3.01066,6.57979c-3.14271,-0.82266 -6.23675,-3.75938 -3.01066,-6.57979z" fill="#020000"/><path d="M42.72246,159.49482c2.17002,0.93779 5.30332,4.73965 2.54971,6.61787c-3.29355,-1.44668 -5.3584,-3.32461 -2.54971,-6.61787z" fill="#020000"/><path d="M41.68799,173.8957c2.85762,0.50039 6.05684,2.47236 4.20762,5.71318c-3.29648,0.56924 -5.1375,-2.64404 -4.20762,-5.71318z" fill="#020000"/><path d="M33.09551,169.1874c2.46738,0.50127 5.81748,3.4623 4.16191,6.27275c-1.00781,-0.28125 -1.96553,-0.71865 -2.83799,-1.29639c-2.12197,-1.42529 -2.81484,-2.74307 -1.32393,-4.97637z" fill="#020000"/><path d="M60.24375,169.15605c2.85791,0.13242 4.27295,4.09102 2.48848,6.40312c-3.4793,-1.43203 -5.06074,-3.10225 -2.48848,-6.40312z" fill="#020000"/><path d="M51.63867,178.26738c1.44844,0.72451 3.58213,2.99297 3.72275,4.70273c0.07148,0.86602 -0.44326,1.24541 -0.94658,1.83281c-4.25859,-1.04707 -4.69248,-2.79463 -2.77617,-6.53555z" fill="#020000"/><path d="M58.86211,183.18867c2.02734,0.22178 4.12061,1.604 4.96758,3.54609c0.27422,0.62871 -0.11543,1.07959 -0.40254,1.67402c-3.78135,1.58701 -5.10264,-2.06982 -4.56504,-5.22012z" fill="#020000"/><path d="M51.92725,164.70439l1.22256,0.27949c2.05342,1.59229 2.31182,4.16836 1.30518,6.45c-0.15117,-0.06533 -0.30146,-0.13213 -0.45146,-0.20068c-3.46641,-1.58584 -3.67441,-3.34277 -2.07627,-6.52881z" fill="#020000"/><path d="M68.2418,173.13809c2.93555,0.78223 4.16924,3.67207 2.89541,6.42041c-0.65449,-0.13154 -1.28145,-0.37412 -1.85391,-0.71748c-2.34434,-1.39453 -2.4832,-3.56191 -1.0415,-5.70293z" fill="#020000"/><path d="M83.3335,196.09834c2.80898,0.38789 4.64385,3.13652 3.196,5.87578c-3.74648,0.67207 -3.95273,-3.29941 -3.196,-5.87578z" fill="#020000"/><path d="M76.82754,177.97617l0.97383,0.3624c1.53574,1.57002 2.56377,4.01836 0.88828,5.83623c-3.34365,-1.42295 -4.47949,-3.09375 -1.86211,-6.19863z" fill="#020000"/><path d="M67.77773,187.63447c2.85176,0.64395 4.88174,2.67715 2.85586,5.53506c-3.16318,-0.3542 -4.29873,-2.80928 -2.85586,-5.53506z" fill="#020000"/><path d="M75.78369,191.76709c2.40381,1.22871 4.51113,2.88779 3.86133,5.74072c-4.22754,0.31436 -4.57998,-2.33232 -3.86133,-5.74072z" fill="#020000"/><path d="M84.3252,182.06865c2.39473,0.34072 3.63281,3.40254 1.95381,5.48584c-0.46348,-0.13447 -0.91787,-0.29854 -1.36055,-0.49131c-2.65547,-1.15898 -1.60693,-3.12422 -0.59326,-4.99453z" fill="#020000"/><path d="M134.30596,224.30684c3.60469,0.09082 3.18076,1.62832 3.05684,4.58262c-2.24062,-0.38027 -2.80283,-2.71025 -3.05684,-4.58262z" fill="#020000"/><path d="M289.97314,125.26113c0.28887,1.97256 0.57979,7.88057 0.37119,9.81855c-0.89912,8.34932 1.87646,33.95449 -1.09541,40.42588c0.90264,0.69199 2.96074,1.94326 3.32285,2.79932c-0.14854,0.86221 -0.29385,0.72715 -1.15312,1.3834c-0.45264,0.43711 -0.87598,0.80449 -1.23691,1.32041c-0.2499,0.55342 -1.01514,2.23564 -1.4625,2.59512c-7.05146,5.66865 -16.18389,11.86992 -23.90273,16.39541c-5.97949,3.50566 -11.75186,5.10967 -17.45977,9.31055c-1.97461,1.20029 -4.10244,2.31943 -6.16934,3.52969c-9.59414,5.61768 -18.629,12.23496 -28.63535,17.11611c-1.1209,0.54697 -2.86113,1.59932 -3.9876,1.90225c-3.3668,2.73545 -7.70332,4.80029 -11.40293,7.22285c-5.50605,3.60586 -14.51191,8.91855 -20.79961,10.7209l-1.18271,0.2291c-0.82705,0.25928 -1.51377,0.49658 -2.37422,0.64395c-3.52646,1.5082 -5.95459,2.70264 -9.84434,2.88252c0.04189,-0.93281 0.52061,-1.39248 1.09482,-2.11846c1.48008,-0.57539 1.96904,-0.74883 3.25752,-1.64443c-0.95947,0.0293 -4.38105,0.69521 -5.70762,0.73096c-0.83027,0.02227 -1.21465,0.69873 -3.13125,0.73213l-0.0627,-0.32051l1.2583,-0.48428l-0.17402,-0.03955l1.11914,-0.31113l0.17168,-0.46406c1.74199,-0.41309 2.55586,-0.69814 4.19766,-1.32773c-0.15117,-2.21982 0.18369,-7.62422 0.22266,-10.20322c0.16758,-7.82871 0.20977,-15.65947 0.12627,-23.48936c-0.03398,-3.14414 -0.01465,-6.3791 -0.36592,-9.49834c-0.09463,-0.84053 -1.1918,-2.12461 -1.49854,-3.24551c2.92295,-1.03184 11.98389,-6.4875 14.99326,-8.27051c8.18789,-4.92012 16.41797,-9.77021 24.68936,-14.54912l47.83447,-27.98496c10.73848,-6.18545 23.86025,-13.05615 34.04648,-19.90664c0.46377,-0.76436 0.78633,-1.01367 0.8165,-1.81113c-0.72627,0.16904 -1.00693,0.31084 -1.67783,0.60967c1.12207,-1.48213 2.45068,-3.07207 4.32744,-3.11924c0.58154,-0.54756 0.96035,-0.98496 1.4748,-1.58057zM191.36982,208.83428c2.57285,0.66855 2.82773,-0.27686 4.67402,-2.00537c0.87568,-2.20342 1.78564,-4.89346 -0.6252,-6.34248c-1.62451,-0.16348 -2.56377,0.30879 -3.79717,1.30781c-0.66299,3.6375 -0.08555,4.00547 -0.25166,7.04004zM177.77842,217.08281c1.08984,-2.04727 2.00654,-4.35264 -0.03721,-6.1623c-1.86797,-0.74648 -3.20244,0.24434 -4.20205,1.81436c-0.90791,1.42617 -0.59795,2.62148 -0.2083,4.18975c0.72568,0.71221 1.0585,1.13965 2.03086,1.44023c1.19941,-0.03662 1.5416,-0.42393 2.4167,-1.28203zM177.78574,221.17061c-1.604,0.37441 -2.61475,0.47813 -3.81855,1.68574c-3.59561,9.61787 10.24863,6.3624 3.81855,-1.68574zM186.00469,205.76982c-1.94414,0.97559 -3.66826,1.80293 -4.50674,3.98145c-0.7333,1.90576 1.1376,3.4333 2.76387,3.88711c2.67275,-1.6667 5.54648,-5.67832 1.74287,-7.86855zM189.00352,218.28867l-0.45908,-0.60439c-1.00459,-1.28145 -1.22021,-1.77217 -2.75713,-2.01035c-1.03857,0.27129 -1.82813,1.21934 -2.6083,1.99219c-0.31816,1.66318 -1.38984,4.8 0.64248,5.45859c1.91982,-0.28037 3.39668,-1.49063 4.74434,-2.89248c0.56279,-0.58506 0.42363,-1.1083 0.4377,-1.94355z" fill="#ce0760"/><path d="M286.2791,181.24688c2.14717,-0.42187 1.68926,-0.68437 3.90264,-0.23818c-0.2499,0.55342 -1.01514,2.23564 -1.4625,2.59512c-7.05146,5.66865 -16.18389,11.86992 -23.90273,16.39541c-5.97949,3.50566 -11.75186,5.10967 -17.45977,9.31055c-1.97461,1.20029 -4.10244,2.31943 -6.16934,3.52969c-9.59414,5.61768 -18.629,12.23496 -28.63535,17.11611c-1.1209,0.54697 -2.86113,1.59932 -3.9876,1.90225c-3.3668,2.73545 -7.70332,4.80029 -11.40293,7.22285c-5.50605,3.60586 -14.51191,8.91855 -20.79961,10.7209l-1.18271,0.2291c-0.82705,0.25928 -1.51377,0.49658 -2.37422,0.64395c-3.52646,1.5082 -5.95459,2.70264 -9.84434,2.88252c0.04189,-0.93281 0.52061,-1.39248 1.09482,-2.11846c1.48008,-0.57539 1.96904,-0.74883 3.25752,-1.64443c0.40342,-0.0999 2.38213,-1.26152 2.87549,-1.54043c7.91777,-4.32158 15.62227,-8.87578 23.45801,-13.32539l37.4877,-21.27949c9.03955,-5.20781 20.39648,-12.37529 29.62383,-16.96729c2.729,-2.08623 9.8499,-5.90332 12.93369,-7.62832c1.771,-1.4373 9.74238,-5.88428 12.5874,-7.80645z" fill="url(#color-1)"/><path d="M175.1792,250.03066l-0.11074,-0.48486c2.02822,-2.03965 6.31348,-4.5501 8.97861,-6.075c6.346,-3.63164 13.45107,-8.68389 19.9374,-11.87432c8.35518,-4.10947 15.78018,-7.91191 23.33848,-13.43789c1.98047,-1.44785 4.57559,-2.48086 6.64746,-3.82002c3.21445,-1.99658 9.32344,-6.36738 13.38633,-5.02881c-1.97461,1.20029 -4.10244,2.31943 -6.16934,3.52969c-9.59414,5.61768 -18.629,12.23496 -28.63535,17.11611c-1.1209,0.54697 -2.86113,1.59932 -3.9876,1.90225c-3.3668,2.73545 -7.70332,4.80029 -11.40293,7.22285c-5.50605,3.60586 -14.51191,8.91855 -20.79961,10.7209z" fill="#aeacae"/><path d="M176.36191,249.80156c-0.23232,-0.17607 -0.16582,-0.15703 -0.30879,-0.45908c0.61113,-0.81914 1.74844,-1.06846 2.72695,-1.16074c-0.34131,-0.29766 -0.2001,-0.12305 -0.34307,-0.58066c6.0167,-2.88281 25.2876,-16.5624 30.12744,-15.74326c-3.3668,2.73545 -7.70332,4.80029 -11.40293,7.22285c-5.50605,3.60586 -14.51191,8.91855 -20.79961,10.7209z" fill="#bebdbf"/><path d="M170.18848,248.25381l0.1793,0.01611c3.85928,0.32314 4.21641,-1.82607 7.2665,-2.76445l0.13887,0.31436c-1.81787,2.65342 -4.6415,3.36943 -5.11582,4.48682l0.14766,0.36797c-3.52646,1.5082 -5.95459,2.70264 -9.84434,2.88252c0.04189,-0.93281 0.52061,-1.39248 1.09482,-2.11846c1.48008,-0.57539 1.96904,-0.74883 3.25752,-1.64443c0.40342,-0.0999 2.38213,-1.26152 2.87549,-1.54043z" fill="#aeacae"/><path d="M273.6917,189.05332l0.52705,0.36592c-0.60908,2.21631 -12.10693,7.94736 -14.7208,9.29063c0.23232,-1.16689 0.79482,-0.825 1.26006,-2.02822c2.729,-2.08623 9.8499,-5.90332 12.93369,-7.62832z" fill="#aeacae"/><path d="M288.15791,177.6167c0.29678,-0.85664 0.62959,-1.34883 1.09102,-2.11113c0.90264,0.69199 2.96074,1.94326 3.32285,2.79932c-0.14854,0.86221 -0.29385,0.72715 -1.15312,1.3834c-0.45264,0.43711 -0.87598,0.80449 -1.23691,1.32041c-2.21338,-0.44619 -1.75547,-0.18369 -3.90264,0.23818c-2.84502,1.92217 -10.81641,6.36914 -12.5874,7.80645c-3.08379,1.725 -10.20469,5.54209 -12.93369,7.62832c-9.22734,4.59199 -20.58428,11.75947 -29.62383,16.96729l-37.4877,21.27949c-7.83574,4.44961 -15.54023,9.00381 -23.45801,13.32539c-0.49336,0.27891 -2.47207,1.44053 -2.87549,1.54043c-0.95947,0.0293 -4.38105,0.69521 -5.70762,0.73096c-0.83027,0.02227 -1.21465,0.69873 -3.13125,0.73213l-0.0627,-0.32051l1.2583,-0.48428l-0.17402,-0.03955l1.11914,-0.31113l0.17168,-0.46406c1.74199,-0.41309 2.55586,-0.69814 4.19766,-1.32773c3.33984,-1.09893 11.75537,-6.60352 15.32051,-8.50195c7.71855,-4.11035 15.40811,-8.63672 22.94766,-13.05586l64.92861,-37.2873l14.90654,-8.75566c1.21904,-0.72539 3.88682,-2.65137 4.90635,-2.94727z" fill="#020000"/><path d="M288.15791,177.6167c0.29678,-0.85664 0.62959,-1.34883 1.09102,-2.11113c0.90264,0.69199 2.96074,1.94326 3.32285,2.79932c-0.14854,0.86221 -0.29385,0.72715 -1.15312,1.3834c-1.39863,-1.9166 -2.22598,-0.66094 -3.26074,-2.07158z" fill="#aeacae"/><path d="M287.99385,177.76201l0.16406,-0.14531c1.03477,1.41064 1.86211,0.15498 3.26074,2.07158c-0.45264,0.43711 -0.87598,0.80449 -1.23691,1.32041c-2.21338,-0.44619 -1.75547,-0.18369 -3.90264,0.23818c1.54014,-1.26445 1.70596,-1.47363 1.71475,-3.48486z" fill="#7e8384"/><path d="M284.1709,129.96094c1.12207,-1.48213 2.45068,-3.07207 4.32744,-3.11924c-0.49131,2.46885 -1.21494,3.15498 -3.46611,4.3207c0.46377,-0.76436 0.78633,-1.01367 0.8165,-1.81113c-0.72627,0.16904 -1.00693,0.31084 -1.67783,0.60967z" fill="#ff78cb"/><path d="M186.00469,205.76982c0.99082,-0.66211 2.9502,-0.65537 4.08604,-0.61289c0.2124,-1.24248 0.67617,-2.42783 1.53076,-3.3627c-0.66299,3.6375 -0.08555,4.00547 -0.25166,7.04004c2.57285,0.66855 2.82773,-0.27686 4.67402,-2.00537c0.12334,0.95479 0.98701,5.79287 0.90879,6.31729c2.87432,3.35771 -2.38623,7.9292 -4.7543,4.85684l-0.1708,-1.19619l-0.14854,-2.1624c-0.33896,1.37637 -0.47783,2.91152 -1.57617,3.69609c-0.5833,0.03369 -0.73242,0.06123 -1.29932,-0.05186l-0.45908,-0.60439c-1.00459,-1.28145 -1.22021,-1.77217 -2.75713,-2.01035c-1.03857,0.27129 -1.82813,1.21934 -2.6083,1.99219c0.25254,-1.33213 0.84551,-2.57021 1.379,-3.82002l-0.29619,-0.20771c2.67275,-1.6667 5.54648,-5.67832 1.74287,-7.86855z" fill="#d70646"/><path d="M186.00469,205.76982c0.99082,-0.66211 2.9502,-0.65537 4.08604,-0.61289c0.2124,-1.24248 0.67617,-2.42783 1.53076,-3.3627c-0.66299,3.6375 -0.08555,4.00547 -0.25166,7.04004c-0.7708,-0.21152 -1.3793,-0.3709 -2.17471,-0.5209c-2.18936,2.02559 -0.7875,6.94512 -0.65068,9.3709c-1.00459,-1.28145 -1.22021,-1.77217 -2.75713,-2.01035c-1.03857,0.27129 -1.82813,1.21934 -2.6083,1.99219c0.25254,-1.33213 0.84551,-2.57021 1.379,-3.82002l-0.29619,-0.20771c2.67275,-1.6667 5.54648,-5.67832 1.74287,-7.86855z" fill="#b40f4d"/><path d="M192.89619,213.41484l0.20127,-0.11191c1.575,-0.86279 2.18643,-0.65391 3.85518,-0.15674c2.87432,3.35771 -2.38623,7.9292 -4.7543,4.85684l-0.1708,-1.19619l-0.14854,-2.1624l-0.03164,-0.16025z" fill="#0a1569"/><path d="M192.89619,213.41484c1.40713,0.13154 1.27178,-0.11455 2.06338,0.68613c0.52822,1.57178 0.47871,2.88047 -1.30283,3.56689c-1.03711,-0.18281 -0.74355,-0.1374 -1.6292,-0.86104l-0.14854,-2.1624l-0.03164,-0.16025z" fill="#1d8dea"/><path d="M196.04385,206.82891c0.12334,0.95479 0.98701,5.79287 0.90879,6.31729c-1.66875,-0.49717 -2.28018,-0.70605 -3.85518,0.15674l-0.20127,0.11191l-1.04883,1.06934c-0.28564,-1.96553 0.5083,-1.71709 0.70869,-3.60205c-0.62168,-0.76523 -0.88564,-1.08809 -1.18623,-2.04785c2.57285,0.66855 2.82773,-0.27686 4.67402,-2.00537z" fill="#b40f4d"/><path d="M191.62148,201.79424c1.2334,-0.99902 2.17266,-1.47129 3.79717,-1.30781c2.41084,1.44902 1.50088,4.13906 0.6252,6.34248c-1.84629,1.72852 -2.10117,2.67393 -4.67402,2.00537c0.16611,-3.03457 -0.41133,-3.40254 0.25166,-7.04004z" fill-opacity="0.98824" fill="#01d4fd"/><path d="M177.78574,221.17061c6.43008,8.04814 -7.41416,11.30361 -3.81855,1.68574c1.20381,-1.20762 2.21455,-1.31133 3.81855,-1.68574z" fill-opacity="0.98824" fill="#01d4fd"/><path d="M173.33086,216.92461c-0.38965,-1.56826 -0.69961,-2.76357 0.2083,-4.18975c0.99961,-1.57002 2.33408,-2.56084 4.20205,-1.81436c2.04375,1.80967 1.12705,4.11504 0.03721,6.1623c-0.8751,0.85811 -1.21729,1.24541 -2.4167,1.28203c-0.97236,-0.30059 -1.30518,-0.72803 -2.03086,-1.44023z" fill-opacity="0.98824" fill="#01d4fd"/><path d="M186.00469,205.76982c3.80361,2.19023 0.92988,6.20186 -1.74287,7.86855c-1.62627,-0.45381 -3.49717,-1.98135 -2.76387,-3.88711c0.83848,-2.17852 2.5626,-3.00586 4.50674,-3.98145z" fill-opacity="0.98824" fill="#01d4fd"/><path d="M183.179,217.66611c0.78018,-0.77285 1.56973,-1.7209 2.6083,-1.99219c1.53691,0.23818 1.75254,0.72891 2.75713,2.01035l0.45908,0.60439c-0.01406,0.83525 0.1251,1.3585 -0.4377,1.94355c-1.34766,1.40186 -2.82451,2.61211 -4.74434,2.89248c-2.03232,-0.65859 -0.96064,-3.79541 -0.64248,-5.45859z" fill-opacity="0.98824" fill="#00b4fb"/><path d="M173.33086,216.92461c0.72568,0.71221 1.0585,1.13965 2.03086,1.44023c1.19941,-0.03662 1.5416,-0.42393 2.4167,-1.28203c-0.28066,1.22197 -0.92812,2.41436 -0.69551,3.35098l0.70283,0.73682c-1.604,0.37441 -2.61475,0.47813 -3.81855,1.68574c0.07119,-2.17822 -0.81562,-3.05596 -0.63633,-5.93174z" fill="#b40f4d"/><path d="M224.05107,189.19395c0.41836,0.11133 0.46963,0.20625 0.83086,0.46436c0.13037,1.84512 -2.9625,3.19746 -4.21348,5.25732c-2.18701,-1.33506 -0.12012,-3.90967 1.48213,-4.51025c0.35273,-0.13213 1.48184,-0.94863 1.90049,-1.21143z" fill="#020000"/><path d="M237.10342,180.64717c1.2041,0.27773 0.88945,0.02402 1.40713,0.82734c0.06445,1.69717 -1.15576,3.07061 -2.15361,4.40801c-0.26777,-0.06328 -0.7084,-0.24668 -0.98262,-0.34951c-1.33623,-2.04316 -0.01406,-3.70195 1.7291,-4.88584z" fill="#020000"/><path d="M229.91895,185.30566c0.23818,0.01904 0.79043,0.15703 1.05176,0.21387l0.32578,0.61699c0.03457,1.57734 -0.96387,3.03809 -1.93975,4.19766c-3.71191,-0.95303 -1.10566,-3.72275 0.56221,-5.02852z" fill="#020000"/><path d="M258.6,168.31523c0.35889,0.0832 0.65127,0.26104 0.97969,0.43066l0.14971,0.67764c-0.3457,1.65527 -1.57559,2.95254 -2.75098,4.10566c-0.74824,-0.31875 -0.51182,-0.20977 -1.06436,-0.93135c-0.43477,-2.04814 1.16426,-3.2874 2.68594,-4.28262z" fill="#020000"/><path d="M224.0417,197.34404l0.57627,0.47402l0.06064,0.6375c-0.80977,1.79326 -2.20342,3.13594 -3.56719,4.53926c-0.81035,-0.38701 -0.78545,-0.81533 -0.85752,-1.57002c0.58447,-1.76836 2.33965,-2.93818 3.78779,-4.08076z" fill="#020000"/><path d="M266.04551,172.67197c0.40254,0.14736 0.48984,0.25107 0.83936,0.49717c0.48896,1.79121 -1.07812,3.58682 -2.41289,4.57559l-0.8959,-0.32549l-0.26982,-0.58975c0.09609,-1.58174 1.66318,-3.00762 2.73926,-4.15752z" fill="#020000"/><path d="M273.77754,168.27305c0.21475,0.09551 0.61875,0.36885 0.83643,0.50537c0.56367,1.87002 -1.27266,3.58682 -2.64551,4.56152l-0.74063,-0.42773l-0.16729,-0.7626c0.36475,-1.72002 1.41299,-2.77354 2.71699,-3.87656z" fill="#020000"/><path d="M223.00605,180.02256c1.07871,0.36621 1.33096,0.69082 1.24775,1.74023c-0.629,1.04473 -1.8876,1.79941 -2.9042,2.52217c-0.95244,0.00322 -0.68027,0.13652 -1.36172,-0.3334l0.01963,-0.69082c0.71045,-1.27412 1.91455,-2.24414 2.99854,-3.23818z" fill="#020000"/><path d="M230.5916,193.52314c0.78018,0.4418 0.56162,0.1749 0.84375,0.98525c-0.2458,1.70713 -1.40566,2.74746 -2.63789,3.86396c-0.44854,-0.15645 -0.5165,-0.28301 -0.8918,-0.59678c-0.5918,-2.12637 1.0708,-3.20889 2.68594,-4.25244z" fill="#020000"/><path d="M215.73105,184.17744c2.13604,1.22314 -0.02461,4.16895 -1.9916,4.86533c-1.8542,-1.85127 0.68701,-3.6999 1.9916,-4.86533z" fill="#020000"/><path d="M250.8832,172.44609c2.42227,1.57471 0.31055,4.20439 -2.0458,4.79736c-0.62402,-0.63691 -0.46816,-0.30908 -0.54375,-1.25918c0.46084,-1.34619 1.6248,-2.45859 2.58955,-3.53818z" fill="#020000"/><path d="M258.73242,159.3542c0.70342,0.4582 0.46904,0.20537 0.84434,1.04121c-0.28594,1.54717 -2.1416,2.85498 -3.35508,3.87598c-0.41543,0.06328 -0.40049,-0.00937 -0.84521,-0.1708c-0.47871,-1.57998 2.23916,-3.79102 3.35596,-4.74639z" fill="#020000"/><path d="M272.89805,150.44531c0.40254,0.04365 0.83408,0.18164 1.229,0.28975c0.99844,1.81377 -0.70283,3.12393 -2.00566,4.28613c-0.78018,0.19131 -0.55195,0.26279 -1.09424,-0.04746c-0.28623,-1.35879 1.12646,-3.36152 1.8709,-4.52842z" fill="#020000"/><path d="M229.59082,176.29277c1.09395,0.0876 0.93486,-0.10049 1.56826,0.52295c-0.00381,1.56504 -1.25713,2.53535 -2.3707,3.67236c-0.35977,0.1002 -0.61465,0.04541 -0.98467,0.01055l-0.30293,-0.44297c-0.01113,-1.5041 1.12734,-2.72754 2.09004,-3.76289z" fill="#020000"/><path d="M243.92285,185.61768c0.47021,0.06914 0.70107,0.20361 1.12617,0.39668c0.81504,1.87588 -0.83789,2.89805 -2.28721,3.81797l-0.7708,-0.16143c-0.88682,-1.49561 0.8502,-3.10898 1.93184,-4.05322z" fill="#020000"/><path d="M236.8957,189.74971l0.79805,0.22178c1.07988,1.62305 -0.7084,2.91768 -1.8958,3.95508c-1.02012,-0.11426 -1.27588,-0.1834 -1.47217,-1.11562c0.41836,-1.15283 1.66084,-2.17705 2.56992,-3.06123z" fill="#020000"/><path d="M236.73369,171.82617l1.01602,0.30264c1.36523,1.79854 -0.18633,2.88164 -1.62305,3.99697c-0.16289,0.1043 -0.41777,0.09492 -0.64863,0.1207c-0.74297,-1.36025 0.24521,-3.40635 1.25566,-4.42031z" fill="#020000"/><path d="M243.40107,168.35977c1.15576,0.04102 1.02041,-0.14619 1.76982,0.45732c0.0709,1.471 -0.73447,2.13369 -1.73496,3.29004c-0.41807,0.09375 -0.70811,0.07266 -1.13613,0.08203c-1.08809,-1.29229 0.13711,-2.84736 1.10127,-3.82939z" fill="#020000"/><path d="M258.68701,177.39756l0.9624,0.30146l0.27246,0.55518c-0.19805,1.43906 -2.00684,2.76621 -3.10957,3.68145c-0.39199,0.09814 -0.50068,0.00029 -0.88506,-0.14941c-0.15059,-1.38047 1.85361,-3.35127 2.75977,-4.38867z" fill="#020000"/><path d="M215.60332,193.57881c0.20918,0.14209 0.45439,0.45645 0.63311,0.65947c0.30293,1.90283 -1.61777,3.22061 -3.03369,4.11943c-1.56182,-1.80264 0.99111,-3.42949 2.40059,-4.77891z" fill="#020000"/><path d="M251.7167,181.875l0.60586,0.47373c0.01846,1.71035 -1.26211,2.6918 -2.47061,3.97295c-0.98174,-0.66445 -1.11885,-0.96826 -0.96592,-2.06045c0.62549,-1.04854 1.80146,-1.69746 2.83066,-2.38623z" fill="#020000"/><path d="M251.02676,164.31387c1.79531,1.00869 0.05684,3.1708 -0.78721,4.21406c-2.35225,-1.0166 -1.74053,-3.30615 0.78721,-4.21406z" fill="#020000"/><path d="M265.30283,164.25967c0.42832,0.07969 0.59326,0.32842 0.9041,0.64541c0.41133,1.98193 -0.61963,2.70322 -2.28105,3.35215c-0.36445,-0.09287 -0.52617,-0.29062 -0.80713,-0.54258l0.00381,-0.84639c0.62197,-1.2668 1.13027,-1.64004 2.18027,-2.60859z" fill="#020000"/><path d="M216.09844,202.06582l0.44883,0.37764c0.25078,2.01006 -1.86152,2.97158 -3.4667,3.62021l-0.49922,-0.43828l0.02021,-0.60645c0.74268,-1.10156 2.37803,-2.14014 3.49688,-2.95312z" fill="#020000"/><path d="M243.68057,177.0627l0.70605,0.42246c0.71455,1.7666 -0.2751,2.81133 -1.89609,3.43096c-0.8915,-0.65537 -0.8707,-0.65566 -0.91289,-1.65791c0.43887,-1.00664 1.23779,-1.50908 2.10293,-2.19551z" fill="#020000"/><path d="M265.56357,155.48525c0.70576,0.05273 0.4084,-0.07441 0.93252,0.36826c0.09785,1.28936 -1.3084,2.51279 -2.14629,3.35801c-0.77197,-0.13213 -0.4834,-0.0126 -1.08516,-0.54404l-0.0041,-0.79043c0.66035,-1.24365 1.16338,-1.529 2.30303,-2.3918z" fill="#020000"/><path d="M273.33486,160.13643l0.20742,0.08877c0.94775,1.22314 -0.39346,3.28359 -1.37256,4.18652c-0.96006,-0.41719 -0.93311,-0.75586 -0.97266,-1.66758c0.4292,-1.10654 1.2791,-1.78857 2.13779,-2.60771z" fill="#020000"/><path d="M284.1709,129.96094c0.6709,-0.29883 0.95156,-0.44063 1.67783,-0.60967c-0.03018,0.79746 -0.35273,1.04678 -0.8165,1.81113c-10.18623,6.85049 -23.30801,13.72119 -34.04648,19.90664l-47.83447,27.98496c-8.27139,4.77891 -16.50146,9.629 -24.68936,14.54912c-3.00937,1.78301 -12.07031,7.23867 -14.99326,8.27051c-3.03252,0.91992 -4.94355,1.0793 -8.11699,1.21318c-5.06367,0.09258 -7.81436,-1.47773 -12.09756,-3.71895c0.41572,-1.01016 0.26016,-0.7002 1.29814,-1.3708c14.65049,6.38613 20.51953,1.23311 33.03311,-6.21123l18.73389,-11.09443c21.95508,-13.09658 44.08096,-25.90518 66.37178,-38.42197c6.58184,-3.67178 14.87314,-9.18984 21.47988,-12.3085z" fill="url(#color-2)"/><path d="M12.00832,124.66494c1.11059,1.3084 1.83735,3.45879 3.4444,4.304c11.74397,6.17754 23.54757,12.58477 35.21974,18.8751l93.87979,50.15303c-1.03799,0.67061 -0.88242,0.36064 -1.29814,1.3708c-2.19727,-0.93047 -6.07236,-3.11133 -8.29365,-4.27939c-4.98662,-2.59307 -9.95742,-5.21748 -14.91123,-7.87324l-37.38604,-19.94854l-44.73574,-24.01172c-3.90029,-2.09766 -24.25948,-12.33633 -26.00654,-15.27451c-0.18302,-1.42471 -0.1028,-1.87441 0.08742,-3.31553z" fill="#feb6e5"/><path d="M24.98604,112.01221c-0.62511,1.22783 -1.89158,2.43867 -2.8568,3.46699c-1.74316,0.63164 -3.72612,1.60137 -5.45979,1.53691c2.7622,-1.44551 5.51566,-3.42275 8.31659,-5.00391z" fill="#dc106d"/><path d="M130.89609,93.85371c-0.06445,-9.74795 22.57734,-11.08271 24.57861,-0.68994l0.45732,-0.40752c0.72334,0.04219 0.45,-0.04863 1.07197,0.63369c0.66182,3.31729 0.14619,5.10469 -1.60166,7.95117c-1.67754,2.73193 -5.51221,2.35664 -7.24512,4.40566c0.0709,2.48789 0.52617,5.58486 -1.11328,7.50938c1.65879,0.41045 3.70283,0.78311 5.08682,1.72793l0.179,0.1207c1.82959,1.24775 2.88047,3.01494 4.01953,4.86328c6.68145,-0.53818 15.00205,-0.18721 21.88477,-0.44561c3.54141,-3.48281 5.7457,-5.47852 11.04287,-5.33115c5.27549,0.14707 10.94355,2.49111 11.26875,8.36191l0.39199,-0.49893l0.65273,0.00088c0.80186,1.00957 0.50361,2.26904 0.40693,3.53936c-0.52178,6.8502 -8.37393,9.17783 -14.16123,8.43193c-3.03135,-0.39053 -5.45859,-1.66172 -8.03818,-3.18428c-4.99746,-2.20547 -18.10371,-2.3165 -23.41641,-0.43359c-2.46885,0.8748 -5.29512,2.95459 -7.3626,4.54629c-0.96768,3.14033 -0.00762,5.50488 -1.2958,6.71396l-1.2334,0.31113c4.72119,0.44063 7.22637,1.85889 9.28535,6.30996l0.56924,-0.20684c0.7374,0.92783 0.50244,0.80244 0.63867,1.91016c1.6626,13.52344 -23.82188,13.52607 -25.84336,3.29092c-0.57891,-1.36172 -1.04648,-3.53525 0.22148,-4.60869l0.39258,0.48311c0.40635,-5.00098 4.62861,-6.41602 8.78379,-7.4001c0.06211,-2.1249 0.02051,-3.52236 -0.13301,-5.64375c-2.11934,-0.55869 -7.00078,-4.4168 -10.36348,-5.5998c-5.53418,-1.94648 -14.15361,-1.62041 -19.83984,-0.58184c-0.52295,0.09551 -4.8958,2.30098 -5.79492,2.70527c-4.76748,2.84004 -13.47686,1.77598 -16.95938,-2.69355c-1.10566,-1.41885 -2.10879,-4.80264 -1.77393,-6.60674c0.55811,-0.63311 0.26133,-0.47578 1.12031,-0.57686c0.13301,-9.21797 12.77051,-10.42559 18.82119,-6.20215c1.43438,1.00137 2.35869,2.00625 3.55723,3.26484c4.81934,0.46318 15.94395,0.04541 21.15176,-0.00615c3.10898,-4.95967 4.85889,-5.26025 10.0582,-7.00869c0.10723,-2.31621 0.1043,-4.02832 0.01494,-6.34658c-2.0335,-1.11445 -6.48896,-2.99854 -8.03672,-4.26943c-1.61338,-1.32656 -2.62793,-3.24404 -2.81777,-5.32412c-0.08848,-0.9457 -0.10518,-2.78408 0.51211,-3.5335l0.42334,-0.00732z" fill="#fefafd"/><path d="M108.74209,124.21143c6.35713,-0.25781 16.03213,0.34453 21.74678,-0.40898c2.57754,4.35615 4.85391,5.32471 9.83643,5.79199c0.01758,2.13223 -0.00557,4.40186 0.05918,6.52031c-2.11934,-0.55869 -7.00078,-4.4168 -10.36348,-5.5998c-5.53418,-1.94648 -14.15361,-1.62041 -19.83984,-0.58184c-0.52295,0.09551 -4.8958,2.30098 -5.79492,2.70527c-1.10947,-0.05303 -2.20928,0.13711 -2.98916,-0.56953c2.56318,-0.94893 4.99219,-2.49141 5.20547,-5.46064c0.7084,-0.80332 1.42148,-1.60225 2.13955,-2.39678z" fill="url(#color-3)"/><path d="M155.01475,125.16621c6.20977,0.89619 20.98828,-0.92344 24.13066,0.65479c0.38467,0.64893 1.06055,2.21719 1.19385,2.3877c0.24668,0.4248 0.73125,1.19707 0.8918,1.61953l-1.45312,1.01396c-4.99746,-2.20547 -18.10371,-2.3165 -23.41641,-0.43359c-2.46885,0.8748 -5.29512,2.95459 -7.3626,4.54629c-0.96768,3.14033 -0.00762,5.50488 -1.2958,6.71396l-1.2334,0.31113c-0.38379,-3.31348 -0.21533,-8.71904 -0.19307,-12.22969c3.9252,-0.54697 6.1875,-1.42793 8.73809,-4.58408z" fill="#ce0760"/><path d="M155.75508,148.28994l0.56924,-0.20684c0.7374,0.92783 0.50244,0.80244 0.63867,1.91016c1.6626,13.52344 -23.82188,13.52607 -25.84336,3.29092l0.43623,-0.046c0.78369,0.9249 1.15576,1.02451 2.15596,1.63447l0.08086,-1.83398c6.6542,3.45703 12.23584,3.60879 18.98232,0.23057c1.95322,-1.67607 2.23008,-2.60537 2.98008,-4.9793z" fill="#dc106d"/><path d="M155.75508,148.28994l0.56924,-0.20684c0.7374,0.92783 0.50244,0.80244 0.63867,1.91016c1.6626,13.52344 -23.82188,13.52607 -25.84336,3.29092l0.43623,-0.046c0.78369,0.9249 1.15576,1.02451 2.15596,1.63447c4.78799,6.85225 19.43496,4.17393 19.83076,-0.77783l-0.76758,-0.82559c1.95322,-1.67607 2.23008,-2.60537 2.98008,-4.9793z" fill="url(#color-4)"/><path d="M200.52568,122.55322l0.39199,-0.49893l0.65273,0.00088c0.80186,1.00957 0.50361,2.26904 0.40693,3.53936c-0.52178,6.8502 -8.37393,9.17783 -14.16123,8.43193c-3.03135,-0.39053 -5.45859,-1.66172 -8.03818,-3.18428l1.45313,-1.01396c-0.16055,-0.42246 -0.64512,-1.19473 -0.8918,-1.61953l0.04189,-1.76631c5.3376,4.04238 12.30879,3.44648 17.6458,-0.17725c1.23955,-1.14375 1.8498,-2.19023 2.49873,-3.71191z" fill="#ce0760"/><path d="M198.02695,126.26514c1.40596,6.98672 -12.76523,7.86211 -16.7959,3.56309c-0.16055,-0.42246 -0.64512,-1.19473 -0.8918,-1.61953l0.04189,-1.76631c5.3376,4.04238 12.30879,3.44648 17.6458,-0.17725z" fill="#dc106d"/><path d="M104.38623,132.63838c-4.76748,2.84004 -13.47686,1.77598 -16.95938,-2.69355c-1.10566,-1.41885 -2.10879,-4.80264 -1.77393,-6.60674c0.55811,-0.63311 0.26133,-0.47578 1.12031,-0.57686c0.71777,1.95088 1.24512,2.71816 2.77119,4.14434c5.68184,3.42012 11.47178,2.98184 17.05811,-0.29736c-0.21328,2.96924 -2.64229,4.51172 -5.20547,5.46064c0.77988,0.70664 1.87969,0.5165 2.98916,0.56953z" fill="#dc106d"/><path d="M104.38623,132.63838c-4.76748,2.84004 -13.47686,1.77598 -16.95938,-2.69355c-1.10566,-1.41885 -2.10879,-4.80264 -1.77393,-6.60674c0.55811,-0.63311 0.26133,-0.47578 1.12031,-0.57686c0.71777,1.95088 1.24512,2.71816 2.77119,4.14434c-0.52295,2.24033 0.16143,2.46445 1.61191,4.09424c2.78818,0.85605 4.65586,1.42266 7.6207,1.3248c0.70811,-0.02344 2.16094,-0.26133 2.62002,-0.25576c0.77988,0.70664 1.87969,0.5165 2.98916,0.56953z" fill="url(#color-5)"/><path d="M140.37656,106.4625c-2.0335,-1.11445 -6.48896,-2.99854 -8.03672,-4.26943c-1.61338,-1.32656 -2.62793,-3.24404 -2.81777,-5.32412c-0.08848,-0.9457 -0.10518,-2.78408 0.51211,-3.5335l0.42334,-0.00732l0.43857,0.52559c0.73535,1.92861 1.53135,2.74307 3.02754,4.16953l0.11221,0.05801c2.39912,1.21934 5.31152,0.96152 6.32256,2.53594l0.08174,1.37988c-0.09258,1.65586 -0.13154,2.78672 -0.06357,4.46543z" fill="#ce0760"/><path d="M133.92363,98.02324l0.11221,0.05801c2.39912,1.21934 5.31152,0.96152 6.32256,2.53594l0.08174,1.37988c-1.53984,-0.30293 -3.0832,-0.58711 -4.62979,-0.85195c-0.86455,-0.65361 -1.69658,-1.16484 -2.20459,-2.11582z" fill="#dc106d"/><path d="M155.47471,93.16377l0.45732,-0.40752c0.72334,0.04219 0.45,-0.04863 1.07197,0.63369c0.66182,3.31729 0.14619,5.10469 -1.60166,7.95117c-1.67754,2.73193 -5.51221,2.35664 -7.24512,4.40566l-0.12217,0.0627c-0.40811,0.53643 -0.98145,1.06846 -1.63682,1.20996c-0.36387,-1.03916 -0.104,-4.03682 -0.0457,-5.29863l0.6627,0.80098c4.34795,-1.42998 4.82637,-1.52197 6.4749,-5.77148c1.05205,-1.47715 1.32275,-1.86416 1.98457,-3.58652z" fill="#ce0760"/><path d="M153.49014,96.75029c-1.64854,4.24951 -2.12695,4.3415 -6.4749,5.77148l-0.6627,-0.80098c-0.0583,1.26182 -0.31816,4.25947 0.0457,5.29863c0.65537,-0.1415 1.22871,-0.67354 1.63682,-1.20996l0.12217,-0.0627c0.0709,2.48789 0.52617,5.58486 -1.11328,7.50938l-0.76494,-0.54229c-0.66211,-1.2252 -0.34922,-10.45049 -0.39346,-12.65508c3.26777,-0.94512 4.904,-1.24424 7.60459,-3.3085z" fill="#dc106d"/><path d="M155.01475,125.16621c0.38965,-0.58447 0.47725,-0.96533 1.28525,-1.0415c6.82354,-0.64336 15.45322,0.70459 22.05791,-0.16201c0.63662,0.79014 1.35937,1.73379 2.02324,2.47969l-0.04189,1.76631c-0.1333,-0.17051 -0.80918,-1.73877 -1.19385,-2.3877c-3.14238,-1.57822 -17.9209,0.24141 -24.13066,-0.65479z" fill="#dc106d"/><path d="M131.11963,153.28418c-0.57891,-1.36172 -1.04648,-3.53525 0.22148,-4.60869l0.39258,0.48311c0.48691,1.61162 0.85166,2.64316 2.05898,3.88008l-0.08086,1.83398c-1.0002,-0.60996 -1.37227,-0.70957 -2.15596,-1.63447z" fill="#dc106d"/><path d="M141.33604,116.95518c7.24512,-0.61348 13.69248,5.18115 4.36465,8.78906c-1.47334,0.22764 -2.97773,0.15703 -4.42324,-0.2083c-6.46875,-1.67314 -5.55732,-5.97275 0.05859,-8.58076z" fill="#dc106d"/></g></svg></svg>