<svg id="svg" version="1.1" viewBox="0 0 300 300" width="300" height="300" xmlns="http://www.w3.org/2000/svg"><svg xmlns="http://www.w3.org/2000/svg"><defs><clipPath id="clip-1"><rect x="0" y="0" transform="scale(0.29297,0.29297)" width="1024" height="1024" fill="none"/></clipPath><linearGradient x1="234.00234" y1="154.43965" x2="238.61836" y2="161.64141" gradientUnits="userSpaceOnUse" id="color-1"><stop offset="0" stop-color="#13e2d9" stop-opacity="0.98824"/><stop offset="1" stop-color="#00c1cf"/></linearGradient><linearGradient x1="234.32344" y1="251.01211" x2="209.17881" y2="219.13652" gradientUnits="userSpaceOnUse" id="color-2"><stop offset="0" stop-color="#000000"/><stop offset="1" stop-color="#111f1e"/></linearGradient></defs><g clip-path="url(#clip-1)" fill="none" fill-rule="nonzero" stroke="none" stroke-width="1" stroke-linecap="butt" stroke-linejoin="miter" stroke-miterlimit="10" stroke-dasharray="" stroke-dashoffset="0" font-family="none" font-weight="none" font-size="none" text-anchor="none" style="mix-blend-mode: normal"><path d="M22.61039,80.73047c2.56582,-1.82695 9.58248,-5.63994 12.56637,-7.39365l26.87578,-15.80361l23.46094,-13.73145c2.99531,-1.79062 13.12383,-7.97695 16.11504,-9.22471c3.25986,-1.32891 6.82646,-1.71797 10.2958,-1.12383c6.88213,1.1792 18.74238,9.1292 25.06904,12.81709l26.98125,15.44326l85.47715,49.41416l19.23369,11.204c1.37812,0.8165 7.25801,4.54658 8.42256,4.93857c8.08359,5.28604 5.52803,15.46523 5.95928,23.68418c0.16963,3.23848 -0.00996,6.87334 -0.00176,10.15195l0.02139,29.41611c-0.02549,6.74414 0.59854,15.44912 -1.60898,21.71191l0.16494,0.20156c1.26445,1.53281 1.58496,1.09629 2.59453,2.86436c-1.12441,1.44697 -1.90723,1.68955 -2.43516,3.74795c-2.64053,4.13467 -5.83418,6.08086 -10.08252,8.17998c-1.68574,1.16338 -3.8502,2.53857 -5.37451,3.82471c-7.52988,6.35449 -16.86914,9.75176 -25.46279,14.37803c-1.7165,0.92402 -4.75225,3.61904 -6.13008,4.20557c-7.58965,3.23057 -20.64492,13.61484 -28.58994,14.19229c-3.10986,0.45205 -7.83076,2.02119 -11.19785,2.54414c-9.64365,1.49795 -16.28877,-0.80801 -24.51152,-5.52012c-2.23418,-0.9208 -3.69111,-1.14111 -6.20273,-2.34844c-0.91201,-0.38203 -1.25361,-0.48574 -2.02617,-1.11826c-1.49209,-0.68115 -3.37031,-2.11201 -4.89756,-2.84854c-5.47734,-2.64199 -10.29141,-5.53799 -15.5209,-8.51982l-42.23408,-24.48047c-2.04434,-1.17334 -4.9752,-1.77803 -6.72012,-2.80107c-6.68027,-3.91611 -13.27998,-8.03437 -19.80293,-12.20596c-1.93887,-1.23984 -5.14541,-2.0373 -6.98994,-3.20537c-4.85361,-3.07354 -9.65479,-6.62959 -14.52246,-9.646c-1.81406,-1.12383 -6.07178,-2.64521 -8.17646,-3.63193c-4.6166,-2.16416 -7.93008,-4.63623 -11.70674,-8.00039c-4.6396,-3.57012 -14.48121,-6.63574 -14.66798,-13.46426c0.28734,-0.93984 0.89177,-1.2252 1.71038,-1.78857c-4.50686,-8.42109 -3.70512,-10.47012 -3.70931,-19.7417l0.00354,-18.11865l-0.01603,-22.73584c-0.01937,-4.75723 -0.3411,-12.67266 0.59379,-17.08623c0.72258,0.65068 0.38341,0.49805 1.27582,0.65742c0.80522,-0.46846 1.22121,-0.77666 1.95469,-1.33389l-0.91213,-0.14062c-0.04775,-0.96768 1.17574,-2.38857 1.79124,-3.26895c0.17499,-0.99932 2.23286,-3.42012 2.93344,-4.29492zM188.72402,182.33438c1.50234,0.40869 4.54512,0.02783 6.18633,-0.13652c5.58809,-1.14346 19.2999,-9.18838 24.99668,-12.31875l33.59854,-18.75c4.5041,-2.53096 8.99385,-5.09736 13.4918,-7.64004c4.19854,-2.37363 9.40078,-4.79707 13.13643,-7.75664c0.58389,-0.78311 0.36943,-1.6043 0.271,-2.59775c-1.63594,0.73799 -2.00713,1.84541 -3.22207,2.55791c-15.42012,9.04658 -31.45371,17.31943 -47.00977,26.13633l-16.81436,9.40781c-5.33408,2.98857 -10.81963,6.15469 -16.53252,8.37949c-2.3165,0.90234 -5.66836,1.19297 -8.22246,1.51113c0.26982,0.78398 0.3542,0.61377 0.12041,1.20703z" fill="#006d68"/><path d="M188.60361,181.12734c2.5541,-0.31816 5.90596,-0.60879 8.22246,-1.51113c5.71289,-2.2248 11.19844,-5.39092 16.53252,-8.37949l16.81436,-9.40781c15.55605,-8.81689 31.58965,-17.08975 47.00977,-26.13633c1.21494,-0.7125 1.58613,-1.81992 3.22207,-2.55791c0.09844,0.99346 0.31289,1.81465 -0.271,2.59775c-3.73564,2.95957 -8.93789,5.38301 -13.13643,7.75664c-4.49795,2.54268 -8.9877,5.10908 -13.4918,7.64004l-33.59854,18.75c-5.69678,3.13037 -19.40859,11.17529 -24.99668,12.31875c-1.64121,0.16436 -4.68398,0.54521 -6.18633,0.13652c0.23379,-0.59326 0.14941,-0.42305 -0.12041,-1.20703z" fill="url(#color-1)"/><path d="M22.61039,80.73047c2.56582,-1.82695 9.58248,-5.63994 12.56637,-7.39365l26.87578,-15.80361l23.46094,-13.73145c2.99531,-1.79062 13.12383,-7.97695 16.11504,-9.22471c3.25986,-1.32891 6.82646,-1.71797 10.2958,-1.12383c6.88213,1.1792 18.74238,9.1292 25.06904,12.81709l26.98125,15.44326l85.47715,49.41416l19.23369,11.204c1.37812,0.8165 7.25801,4.54658 8.42256,4.93857c0.89443,1.30693 3.09961,4.44375 3.29678,5.86436c-1.63594,0.73799 -2.00713,1.84541 -3.22207,2.55791c-15.42012,9.04658 -31.45371,17.31943 -47.00977,26.13633l-16.81436,9.40781c-5.33408,2.98857 -10.81963,6.15469 -16.53252,8.37949c-2.3165,0.90234 -5.66836,1.19297 -8.22246,1.51113c0.26982,0.78398 0.3542,0.61377 0.12041,1.20703c-2.3584,-0.33691 -4.81641,-0.64951 -7.05615,-1.44141c-12.32197,-7.4499 -25.51055,-14.89248 -38.00098,-22.06465c-19.03477,-11.10029 -38.14072,-22.07812 -57.31699,-32.93203l-36.44795,-20.89893l-19.28906,-10.96699c-2.35983,-1.31514 -9.6305,-5.95518 -11.81505,-5.59541l-0.91213,-0.14062c-0.04775,-0.96768 1.17574,-2.38857 1.79124,-3.26895c0.17499,-0.99932 2.23286,-3.42012 2.93344,-4.29492z" fill="#00acaa"/><path d="M19.67695,85.02539c1.15951,0.6041 1.48951,1.61572 2.48918,2.54707c0.92862,0.86484 1.76224,1.28584 2.85302,1.9002l110.51698,63.06504l30.65684,17.67686c6.39609,3.71982 15.31758,10.06787 22.41064,10.91279c0.26982,0.78398 0.3542,0.61377 0.12041,1.20703c-2.3584,-0.33691 -4.81641,-0.64951 -7.05615,-1.44141c-12.32197,-7.4499 -25.51055,-14.89248 -38.00098,-22.06465c-19.03477,-11.10029 -38.14072,-22.07812 -57.31699,-32.93203l-36.44795,-20.89893l-19.28906,-10.96699c-2.35983,-1.31514 -9.6305,-5.95518 -11.81505,-5.59541l-0.91213,-0.14062c-0.04775,-0.96768 1.17574,-2.38857 1.79124,-3.26895z" fill="#9efcf9"/><path d="M18.69533,166.79385c0.34945,0.19424 0.46356,0.225 0.73151,0.52676l0.49333,-0.44619c0.88506,0.22734 7.43643,4.01865 8.00587,4.63594c0.51167,1.52959 7.48772,6.5707 8.44485,8.24824c1.38105,1.2126 7.81875,4.73057 9.73271,5.79404c4.31338,2.37041 8.58779,4.81143 12.82119,7.32188l85.5,49.19502c4.04443,0.23789 12.65449,6.54346 17.28721,6.21855c0.89414,0.29385 4.10391,2.13457 5.13633,2.68564c6.98643,3.7292 12.8291,8.47002 21.02666,9.11572c3.2083,0.23848 8.08271,0.10342 11.07656,-1.26709c5.02852,-2.30215 10.28232,-5.29512 15.20215,-7.89258c13.37549,-7.14053 26.67832,-14.4167 39.90615,-21.82764c4.17568,-2.32529 8.36514,-4.62539 12.56895,-6.89941c2.7457,-1.4833 7.28262,-3.75293 9.57363,-5.63174c0.29678,-0.58066 3.17783,-3.99316 3.85488,-4.15371l0.65244,0.51475c0.36357,-0.29004 0.41777,-0.53643 0.64512,-0.97676l0.12305,0.2792l0.16494,0.20156c1.26445,1.53281 1.58496,1.09629 2.59453,2.86436c-1.12441,1.44697 -1.90723,1.68955 -2.43516,3.74795c-2.64053,4.13467 -5.83418,6.08086 -10.08252,8.17998c-1.68574,1.16338 -3.8502,2.53857 -5.37451,3.82471c-7.52988,6.35449 -16.86914,9.75176 -25.46279,14.37803c-1.7165,0.92402 -4.75225,3.61904 -6.13008,4.20557c-7.58965,3.23057 -20.64492,13.61484 -28.58994,14.19229c-3.10986,0.45205 -7.83076,2.02119 -11.19785,2.54414c-9.64365,1.49795 -16.28877,-0.80801 -24.51152,-5.52012c-2.23418,-0.9208 -3.69111,-1.14111 -6.20273,-2.34844c-0.91201,-0.38203 -1.25361,-0.48574 -2.02617,-1.11826c-1.49209,-0.68115 -3.37031,-2.11201 -4.89756,-2.84854c-5.47734,-2.64199 -10.29141,-5.53799 -15.5209,-8.51982l-42.23408,-24.48047c-2.04434,-1.17334 -4.9752,-1.77803 -6.72012,-2.80107c-6.68027,-3.91611 -13.27998,-8.03437 -19.80293,-12.20596c-1.93887,-1.23984 -5.14541,-2.0373 -6.98994,-3.20537c-4.85361,-3.07354 -9.65479,-6.62959 -14.52246,-9.646c-1.81406,-1.12383 -6.07178,-2.64521 -8.17646,-3.63193c-4.6166,-2.16416 -7.93008,-4.63623 -11.70674,-8.00039c-4.6396,-3.57012 -14.48121,-6.63574 -14.66798,-13.46426c0.28734,-0.93984 0.89177,-1.2252 1.71038,-1.78857z" fill="#acaaab"/><path d="M276.20244,216.571l0.8127,0.38584c0.16084,4.03799 -7.29902,5.83564 -9.06504,7.94385c-10.95088,6.8127 -21.81152,12.60967 -33.11543,18.78984l-17.49609,9.76875c-9.49336,5.20225 -20.90039,14.00215 -32.35869,10.84629c-9.09844,-2.50605 -18.06475,-9.44795 -26.36367,-13.95381c-4.64707,-2.6833 -9.65859,-5.58398 -14.19141,-8.28223c4.04443,0.23789 12.65449,6.54346 17.28721,6.21855c0.89414,0.29385 4.10391,2.13457 5.13633,2.68564c6.98643,3.7292 12.8291,8.47002 21.02666,9.11572c3.2083,0.23848 8.08271,0.10342 11.07656,-1.26709c5.02852,-2.30215 10.28232,-5.29512 15.20215,-7.89258c13.37549,-7.14053 26.67832,-14.4167 39.90615,-21.82764c4.17568,-2.32529 8.36514,-4.62539 12.56895,-6.89941c2.7457,-1.4833 7.28262,-3.75293 9.57363,-5.63174z" fill="url(#color-2)"/><path d="M31.65293,182.04668l0.09727,-0.74092c0.94219,-0.06152 13.72588,7.65498 15.99492,8.79844c2.98799,2.32764 9.0624,4.35967 11.73516,6.49863c4.45576,3.56514 7.58877,4.67314 12.29912,7.42881c8.76826,5.13018 17.16797,10.50234 26.37275,14.88281c4.61045,2.19434 9.14766,6.07031 14.08828,8.11084c4.90225,2.86582 9.56133,6.01172 14.53535,8.81748l19.30781,10.75723c7.4291,4.22314 8.91123,4.59199 15.89883,10.07783l0.2417,0.7084c-1.49209,-0.68115 -3.37031,-2.11201 -4.89756,-2.84854c-5.47734,-2.64199 -10.29141,-5.53799 -15.5209,-8.51982l-42.23408,-24.48047c-2.04434,-1.17334 -4.9752,-1.77803 -6.72012,-2.80107c-6.68027,-3.91611 -13.27998,-8.03437 -19.80293,-12.20596c-1.93887,-1.23984 -5.14541,-2.0373 -6.98994,-3.20537c-4.85361,-3.07354 -9.65479,-6.62959 -14.52246,-9.646c-1.81406,-1.12383 -6.07178,-2.64521 -8.17646,-3.63193c-4.6166,-2.16416 -7.93008,-4.63623 -11.70674,-8.00039z" fill="#bfbec0"/><path d="M206.1624,263.82891l-0.50625,-0.23906c0.721,-0.73506 2.25732,-1.2123 3.13301,-1.81934c8.26904,-5.7334 17.56172,-10.60488 26.3918,-15.46143c2.31504,-1.27324 5.4375,-3.44121 7.55156,-4.48125c6.02842,-2.96631 11.5623,-6.23145 17.43311,-9.47168c2.40879,-1.32949 4.85361,-3.09697 7.2498,-4.50381c1.95498,-1.14785 2.06484,-1.19297 4.3043,-0.62402c-1.68574,1.16338 -3.8502,2.53857 -5.37451,3.82471c-7.52988,6.35449 -16.86914,9.75176 -25.46279,14.37803c-1.7165,0.92402 -4.75225,3.61904 -6.13008,4.20557c-7.58965,3.23057 -20.64492,13.61484 -28.58994,14.19229z" fill="#bfbec0"/><path d="M19.42685,167.32061l0.49333,-0.44619c0.88506,0.22734 7.43643,4.01865 8.00587,4.63594c0.51167,1.52959 7.48772,6.5707 8.44485,8.24824c-4.25068,-1.47949 -15.39794,-8.0874 -16.94405,-12.43799z" fill="#011a17"/><path d="M276.20244,216.571c0.29678,-0.58066 3.17783,-3.99316 3.85488,-4.15371l0.65244,0.51475l-0.01523,0.28477c-0.82559,1.09658 -2.25879,2.7126 -2.43398,3.98467c0.27246,0.62051 0.34131,0.72451 0.77109,1.24922c-0.54111,2.53887 -8.58955,5.7832 -11.08154,6.45c1.76602,-2.1082 9.22588,-3.90586 9.06504,-7.94385z" fill="#004042"/><path d="M164.25029,258.50449l0.98936,-1.34033c1.45781,0.79629 4.02217,2.15918 5.13574,3.30674l0.07764,0.38203c-2.23418,-0.9208 -3.69111,-1.14111 -6.20273,-2.34844z" fill="#bfbec0"/><path d="M27.92604,171.51035c3.06272,1.59873 5.99124,3.65156 9.07356,5.34375c18.3542,10.20029 36.56982,20.64756 54.64219,31.33916c23.23271,13.45723 47.07158,26.35518 70.07021,40.09482c-4.63271,0.3249 -13.24277,-5.98066 -17.28721,-6.21855l-85.5,-49.19502c-4.2334,-2.51045 -8.50781,-4.95146 -12.82119,-7.32188c-1.91396,-1.06348 -8.35166,-4.58145 -9.73271,-5.79404c-0.95713,-1.67754 -7.93318,-6.71865 -8.44485,-8.24824z" fill="#000100"/><path d="M181.66787,180.89297c2.23975,0.79189 4.69775,1.10449 7.05615,1.44141c1.50234,0.40869 4.54512,0.02783 6.18633,-0.13652c-2.97627,1.24512 -3.65537,0.59648 -6.59238,0.90234c-1.16426,0.121 -2.06045,2.98652 -4.30723,1.99541c-0.14766,0.10488 -0.29561,0.20977 -0.44355,0.31436c-0.26133,4.15781 0.6542,22.98779 0.02812,25.58145c-0.2376,-1.06055 -0.06914,-5.59219 -0.09316,-6.96973c-0.13389,-7.68486 0.47314,-15.72217 -1.83428,-23.12871z" fill="#00acaa"/><path d="M60.37588,170.61973c-1.17275,-3.37822 -0.21738,-31.43525 -0.50186,-36.97471c-0.02197,-0.42393 0.23291,-1.09717 0.42715,-1.48506c0.1541,-0.30762 0.479,-0.49482 0.77725,-0.73623c1.53486,-0.00176 2.01475,1.26563 2.12109,2.64082c0.3208,4.1458 0.28477,8.36338 0.29502,12.52441c0.00645,8.12139 -0.07061,16.24248 -0.23145,24.3624c-0.01641,0.58594 -0.02139,0.72158 -0.31494,1.24834c-1.29463,-0.55605 -1.4877,-0.6791 -2.57227,-1.57998z" fill="#011a17"/><path d="M116.62061,203.49639c0.20947,-2.87461 0.05156,-7.42529 0.03779,-10.39687l-0.06592,-18.76318c-0.00557,-2.03408 -0.15967,-7.96113 0.16553,-9.5918c0.84111,-0.54785 2.12109,0.0041 3.04775,0.30469c0.01934,4.72793 0.36592,39.21357 -0.03867,40.06113l-0.03721,0.67002c-1.18271,0.86455 -2.46006,0.30645 -3.2959,-0.75264c-0.20068,-1.03096 -0.25957,-0.62666 0.18662,-1.53135z" fill="#011a17"/><path d="M116.62061,203.49639c1.19385,0.71045 1.85625,1.12705 3.14648,1.61396l-0.03721,0.67002c-1.18271,0.86455 -2.46006,0.30645 -3.2959,-0.75264c-0.20068,-1.03096 -0.25957,-0.62666 0.18662,-1.53135z" fill="#007d7b"/><path d="M88.73643,148.36641c1.00898,0.09023 2.30742,0.29561 2.99531,1.10566c0.88213,1.03887 0.779,35.00508 0.28184,39.11572c-1.04268,0.17227 -1.88027,-0.11514 -2.64023,-0.83496c-0.98086,-2.03555 -0.56572,-34.43115 -0.63691,-39.38643z" fill="#011a17"/><path d="M102.79658,194.96895c0.81328,-5.49463 -0.29971,-36.07793 0.6873,-38.05986c1.00488,-0.37705 0.56689,-0.32373 1.71885,-0.08994c1.48184,1.59199 0.84258,6.74238 0.88857,9.0293c0.1998,9.94863 0.0665,19.90723 -0.05068,29.85615c-0.00557,0.43828 -0.08262,0.946 -0.15176,1.38281c-0.13799,0.53613 -0.29238,0.63428 -0.66855,1.02979c-1.59229,0.3085 -3.79072,-0.81123 -3.26074,-2.70527z" fill="#011a17"/><path d="M105.88887,197.0874c-0.13799,0.53613 -0.29238,0.63428 -0.66855,1.02979c-1.59229,0.3085 -3.79072,-0.81123 -3.26074,-2.70527l0.83701,-0.44297c1.11328,1.14199 1.58437,1.55596 3.09229,2.11846z" fill="#007d7b"/><path d="M74.89336,140.02178c1.08428,0.24609 1.24541,0.31846 2.20752,0.85693c1.31016,1.47422 0.54521,35.22598 0.74912,40.01074c-1.38486,-0.11426 -1.98047,-0.75352 -3.11807,-1.59287l-0.06299,-27.59033c0.01289,-2.78877 -0.10781,-9.12686 0.22441,-11.68447z" fill="#000100"/><path d="M46.67813,123.57246c1.02539,0.10693 1.39541,0.09727 2.32822,0.55488c1.14141,1.84043 0.329,34.30869 0.81797,40.10537c-1.85391,-0.34189 -3.22529,-0.77842 -3.24053,-2.86875c-0.02754,-3.82031 -0.01641,-7.6418 -0.02021,-11.46328c-0.01113,-8.77617 0.02725,-17.55234 0.11455,-26.32822z" fill="#000100"/><path d="M129.61494,210.59912c0.1916,-5.14336 -0.44062,-36.43916 0.75264,-38.45918l0.5168,-0.18223c1.55156,0.99141 1.51084,2.28867 1.51084,4.0043c0,6.2373 0.34512,13.12617 0.27686,19.28145c-0.01934,1.74141 0.01582,16.31162 -0.22178,16.93887l-0.07705,1.10977c-1.3333,0.99932 -2.44688,0.15762 -3.24492,-1.03711c-0.13037,-1.0875 -0.23145,-0.64482 0.48662,-1.65586z" fill="#000100"/><path d="M129.61494,210.59912c1.13145,0.9958 1.39482,1.08809 2.83535,1.5832l-0.07705,1.10977c-1.3333,0.99932 -2.44688,0.15762 -3.24492,-1.03711c-0.13037,-1.0875 -0.23145,-0.64482 0.48662,-1.65586z" fill="#007d7b"/><path d="M33.67998,116.48789c0.86514,0.02813 1.66465,-0.03984 2.35898,0.47461c1.23926,2.10088 0.20625,34.32129 0.52734,39.43154c-0.76406,0.38613 -1.78447,-0.18398 -2.41611,-0.60469c-0.91729,-1.11914 -0.48604,-10.85801 -0.49248,-13.1666c-0.07471,-8.71143 -0.06709,-17.42344 0.02227,-26.13486z" fill="#000100"/><path d="M264.62754,163.91719c0.36943,0.13359 0.39961,0.19688 0.73301,0.43096c-0.5666,13.08281 -0.14854,26.38945 -0.38174,39.48135c-0.00762,0.41689 -1.57178,1.3875 -1.93242,1.62334l-0.49424,-0.18486c-0.78105,-1.12031 0.02344,-34.28232 -0.34277,-38.9959c0.73506,-0.76553 1.64561,-1.60488 2.41816,-2.35488z" fill="#000100"/><path d="M214.96963,191.52686l0.65977,0.16143c0.3085,0.52031 0.06416,5.69297 0.06709,6.71484l0.12129,19.44873c0.02871,3.70195 0.17314,8.91182 -0.07588,12.72715c-0.02432,0.37441 -1.50381,1.21611 -1.92627,1.47217l-0.49805,0.1541c-0.85342,-1.23252 -0.21035,-34.68135 -0.24521,-38.61914c-0.00703,-0.80449 1.24834,-1.57822 1.89727,-2.05928z" fill="#000100"/><path d="M254.48496,169.80176l0.37939,0.3293c0.38584,1.5041 0.1333,37.24131 -0.09785,39.26982c-0.3958,0.91641 -1.19033,1.30225 -2.03584,1.85508l-0.23496,-0.06357c-0.86689,-1.41563 -0.25312,-34.10713 -0.07119,-38.61094c0.0583,-1.44023 0.99844,-1.98955 2.06045,-2.77969z" fill="#000100"/><path d="M224.56201,185.8582l0.74209,0.14619c0.68057,0.94834 0.40254,13.66787 0.37383,16.04063c-0.0917,7.57295 0.13418,15.06416 0.36094,22.62744c-0.30234,0.76758 -1.14785,1.08691 -1.92451,1.5293l-0.75117,0.39404c-0.74561,-0.82969 -0.28506,-33.93252 -0.27656,-37.65293c0.00322,-1.32422 0.56484,-2.16592 1.47539,-3.08467z" fill="#000100"/><path d="M234.0457,180.89678c0.88096,0.18047 0.63604,0.00029 1.15752,0.58711c-0.68525,12.52061 0.0416,25.85449 0.14795,38.4123c0.00352,0.4043 -1.59053,1.33945 -1.98076,1.5835c-0.36094,0.19717 -0.43828,0.1585 -0.85928,0.20742c-0.29268,-0.47695 -0.21445,-35.3291 0.07881,-39.15732c0.02666,-0.34863 1.06406,-1.29082 1.45576,-1.63301z" fill="#000100"/><path d="M243.95654,175.88232l0.74268,0.4377c0.06533,0.24404 0.18486,38.40615 0.12129,38.63701c-0.17314,0.62783 -1.41035,1.26006 -1.94473,1.59961l-0.59648,0.21416c-0.10986,-0.13066 -0.21973,-0.26133 -0.32988,-0.3917c0.31055,-12.60645 0.14062,-25.20791 0.34072,-37.79941c0.02461,-1.5501 0.64717,-1.81582 1.66641,-2.69736z" fill="#000100"/><path d="M156.53789,220.08457c6.09082,-0.19395 8.77002,6.15674 4.14639,9.14297c-3.10137,0.50566 -4.34941,-0.43301 -5.93848,-2.96689c-0.25312,-2.88369 -0.8165,-4.35996 1.79209,-6.17607z" fill="#00ea00"/><path d="M157.0125,221.15713c3.23936,0.21885 4.1376,2.45859 1.71562,4.94414c-3.23086,0.27187 -3.06006,-2.82334 -1.71562,-4.94414z" fill="#feff00"/><path d="M155.98066,186.90439c0.56074,-0.05479 1.12354,-0.08525 1.68662,-0.09199c5.01328,-0.01406 6.57656,4.78389 2.8166,8.44629c-2.80459,1.33857 -4.13994,-0.89238 -5.71025,-2.82246c-0.34219,-2.45537 -0.64687,-3.72393 1.20703,-5.53184z" fill="#00ea00"/><path d="M157.37988,187.37871c2.5793,0.14824 4.10391,2.40645 2.20752,4.73437c-1.04736,0.12305 -1.68721,0.28711 -2.65693,-0.12158c-1.58086,-1.61191 -0.63369,-2.9458 0.44941,-4.61279z" fill="#feff00"/><path d="M156.88271,203.90244c6.02783,-0.33428 7.67051,4.78447 3.25693,8.80723c-4.15283,0.14707 -8.17061,-5.92119 -3.25693,-8.80723z" fill="#00ea00"/><path d="M157.10801,204.78223c0.26924,-0.01992 0.53906,-0.03311 0.80889,-0.04014c2.3584,-0.04189 3.67324,3.03076 1.63916,4.95176c-3.9249,-0.19395 -4.61865,-1.60518 -2.44805,-4.91162z" fill="#feff00"/><path d="M62.94814,172.19971c0.29707,0.75498 0.28887,0.44385 0.12656,1.2041c-1.46484,0.43008 -3.74854,-0.74443 -3.82764,-2.41377c0.31846,-0.29473 0.68643,-0.29531 1.12881,-0.37031c1.08457,0.90088 1.27764,1.02393 2.57227,1.57998z" fill="#007d7b"/><path d="M22.61039,80.73047c-0.70058,0.8748 -2.75845,3.29561 -2.93344,4.29492c-0.6155,0.88037 -1.83899,2.30127 -1.79124,3.26895l0.91213,0.14063c-0.73348,0.55723 -1.14946,0.86543 -1.95469,1.33389c-0.89241,-0.15937 -0.55324,-0.00674 -1.27582,-0.65742c1.29407,-4.5208 3.23713,-5.99619 7.04306,-8.38096z" fill="#007d7b"/></g></svg></svg>