<svg id="svg" version="1.1" viewBox="0 0 300 300" width="300" height="300" xmlns="http://www.w3.org/2000/svg"><svg xmlns="http://www.w3.org/2000/svg"><defs><clipPath id="clip-1"><rect x="0" y="0" transform="scale(0.29297,0.29297)" width="1024" height="1024" fill="none"/></clipPath><linearGradient x1="160.37402" y1="258.09844" x2="125.26025" y2="93.21064" gradientUnits="userSpaceOnUse" id="color-1"><stop offset="0" stop-color="#d71f78"/><stop offset="1" stop-color="#f2469b"/></linearGradient><linearGradient x1="128.54883" y1="163.67725" x2="145.11533" y2="182.1334" gradientUnits="userSpaceOnUse" id="color-2"><stop offset="0" stop-color="#c21e6f"/><stop offset="1" stop-color="#ef378f"/></linearGradient><linearGradient x1="153.28301" y1="88.56035" x2="142.0459" y2="50.20225" gradientUnits="userSpaceOnUse" id="color-3"><stop offset="0" stop-color="#fc43a2"/><stop offset="1" stop-color="#ff8dd6"/></linearGradient><linearGradient x1="213.6832" y1="91.72764" x2="189.08057" y2="73.05264" gradientUnits="userSpaceOnUse" id="color-4"><stop offset="0" stop-color="#c81d73"/><stop offset="1" stop-color="#f74aa3"/></linearGradient><linearGradient x1="145.01543" y1="99.61084" x2="141.70957" y2="68.9918" gradientUnits="userSpaceOnUse" id="color-5"><stop offset="0" stop-color="#f9a0df"/><stop offset="1" stop-color="#ffd6f5"/></linearGradient><linearGradient x1="248.83828" y1="233.55527" x2="268.57852" y2="238.20205" gradientUnits="userSpaceOnUse" id="color-6"><stop offset="0" stop-color="#858587"/><stop offset="1" stop-color="#d6d5d5"/></linearGradient><linearGradient x1="230.27607" y1="236.78877" x2="245.12637" y2="247.47334" gradientUnits="userSpaceOnUse" id="color-7"><stop offset="0" stop-color="#545b62"/><stop offset="1" stop-color="#828281"/></linearGradient><linearGradient x1="279.35625" y1="208.22695" x2="256.24658" y2="160.88643" gradientUnits="userSpaceOnUse" id="color-8"><stop offset="0" stop-color="#a3004c"/><stop offset="1" stop-color="#db2d88"/></linearGradient><linearGradient x1="251.22891" y1="146.60479" x2="233.42607" y2="118.47832" gradientUnits="userSpaceOnUse" id="color-9"><stop offset="0" stop-color="#ad0459"/><stop offset="1" stop-color="#f03f99"/></linearGradient><linearGradient x1="59.45596" y1="222.19775" x2="46.79385" y2="228.42129" gradientUnits="userSpaceOnUse" id="color-10"><stop offset="0" stop-color="#615f60"/><stop offset="1" stop-color="#9c9c9d"/></linearGradient><linearGradient x1="60.71865" y1="225.62988" x2="35.34258" y2="222.16846" gradientUnits="userSpaceOnUse" id="color-11"><stop offset="0" stop-color="#959298"/><stop offset="1" stop-color="#c2c1c1"/></linearGradient><linearGradient x1="219.99375" y1="138.93955" x2="227.30244" y2="123.9457" gradientUnits="userSpaceOnUse" id="color-12"><stop offset="0" stop-color="#f944a3"/><stop offset="1" stop-color="#ffb9e6"/></linearGradient><linearGradient x1="74.28076" y1="128.12402" x2="69.77783" y2="116.22598" gradientUnits="userSpaceOnUse" id="color-13"><stop offset="0" stop-color="#fd81c1"/><stop offset="1" stop-color="#ffbbed"/></linearGradient><linearGradient x1="211.48975" y1="251.51602" x2="212.04082" y2="247.80645" gradientUnits="userSpaceOnUse" id="color-14"><stop offset="0" stop-color="#c8c2c8" stop-opacity="0.98824"/><stop offset="1" stop-color="#a7aaaa"/></linearGradient></defs><g clip-path="url(#clip-1)" fill="none" fill-rule="nonzero" stroke="none" stroke-width="1" stroke-linecap="butt" stroke-linejoin="miter" stroke-miterlimit="10" stroke-dasharray="" stroke-dashoffset="0" font-family="none" font-weight="none" font-size="none" text-anchor="none" style="mix-blend-mode: normal"><path d="M115.63242,63.56396c19.1165,-17.88926 46.56357,-18.36006 69.75,-8.90918c2.03906,1.0541 8.76973,5.33379 10.5208,6.77842c8.58076,7.0793 16.21113,16.19531 19.61982,26.92207c0.28154,0.86074 0.62549,2.30244 0.65684,3.13682l0.09229,0.24639c0.74121,2.0291 0.1248,5.27021 2.34609,5.35137c5.15801,0.93105 16.50264,4.88701 19.37227,9.33105c7.62861,7.08076 11.51045,14.23477 13.6043,24.64482c0.38818,1.92979 0.47256,6.79834 0.82734,8.09678c0.31787,0.11748 1.41592,0.54932 1.67637,0.60469c5.62998,3.1415 10.6251,6.50127 13.75723,12.31611c7.18125,8.77793 10.38545,24.2625 9.25576,35.41553c-1.15254,11.38242 -5.2002,20.03203 -11.17559,29.62119c-0.98262,1.56182 -2.29453,3.52676 -3.16875,5.10352c1.93184,0.12129 2.58398,0.13037 3.95068,1.65938c1.60781,1.79883 3.45908,6.40781 4.19004,8.74277c-4.94121,10.09453 -14.54326,14.33965 -25.01748,16.89932c-5.73926,0.29971 -13.61807,0.21064 -19.41563,0.02578c-1.18799,-0.80947 -14.66221,-2.20928 -17.05752,-2.58633c-2.93672,-0.10781 -5.96221,-0.37617 -8.8998,-0.59854c1.13584,1.26035 5.07334,2.17412 6.78691,2.25059c0.13125,0.00527 0.2625,0.00732 0.39375,0.00674l0.2373,0.31348l0.19072,-0.0252c-1.09541,0.24346 -2.88428,0.37822 -3.5625,1.06084l1.78828,0.36035c0.09697,0.3498 0.13916,0.68818 0.19453,1.04619c-2.83857,0.10166 -4.35176,-0.77139 -7.26768,-1.19619c-4.30049,-0.62637 -18.76406,0.52705 -21.81943,-1.12559l-19.7083,-1.53252c-2.80166,-0.19189 -6.16904,-0.03398 -8.86172,-0.43682c-11.33115,-1.6957 -21.35889,-4.14873 -32.87109,-4.25391c-5.97949,-0.05449 -15.13125,-1.88789 -21.29824,-2.58252c-8.69912,-0.97939 -18.17314,-2.22803 -26.68125,-4.22695c-3.24551,-0.64131 -9.43213,-2.53154 -12.6208,-3.57539c-5.06338,-1.08076 -17.55791,-3.80947 -20.59424,-8.36807c-2.30508,-3.64629 -1.76367,-6.24258 2.35811,-7.80938c0.90586,-0.68555 1.86563,-1.49824 2.75684,-2.21953c-15.02757,-16.94473 -18.83452,-33.25635 -12.81214,-55.0793c0.58966,-2.07305 1.27966,-4.04414 1.80891,-6.14062c0.18949,1.48594 0.03167,1.7959 1.13429,2.80312c0.40898,-0.48779 0.87393,-1.14609 1.26562,-1.6667c0.70986,-1.20469 1.72207,-1.99102 2.20371,-3.1418c5.10879,-6.30264 12.57422,-11.62178 20.77236,-12.63604c1.59258,-0.56543 1.3125,-0.44912 1.99424,-1.81377l0.14062,-1.15137l1.41035,-3.60029c4.29873,-11.17002 14.50635,-16.54687 26.25146,-17.33613c2.14307,-0.14385 4.2252,0.63252 6.08496,0.30791c0.28506,-0.0498 0.36123,-0.55664 0.48545,-0.9249l-0.73301,-0.75029l-0.91113,-0.29121c-2.08594,-6.26836 3.74004,-13.84658 5.73135,-18.93604l-0.51416,-0.52354c0.45586,0.01084 1.18652,0.01318 1.60254,-0.16406c1.75254,-0.74766 3.99609,-7.1458 4.66699,-9.05684c1.64004,-4.67197 10.84307,-18.57832 15.11133,-20.38623z" fill="url(#color-1)"/><path d="M144.14619,105.95977c21.62549,-7.84482 33.02285,23.36455 12.38525,30.42451c-0.74297,0.24697 -1.49268,0.47344 -2.24824,0.67881c-0.11133,0.98174 -0.44033,2.70352 -0.03252,3.50742c1.16836,0.94482 2.00684,0.52061 3.28682,1.83867c13.32832,13.72471 26.22012,28.0957 38.51455,42.75967c0.3876,0.46201 0.98145,1.00957 1.63828,0.73975c10.05176,-4.12793 17.78145,1.35557 20.76943,11.29453c0.0542,1.09541 0.17314,2.33643 0.11924,3.4207c-0.5376,10.82783 -8.85029,15.21914 -18.5335,12.28682c-6.64746,-3.40195 -9.62871,-7.58057 -10.14229,-15.10313c-6.01699,-0.10225 -13.56357,-1.70537 -19.75195,-2.03232c-1.74785,-0.19131 -2.8875,-0.3375 -4.61953,-0.71074c-0.0583,4.14785 -1.08867,7.63916 -4.171,10.63271c-2.45068,2.37187 -5.75508,3.65361 -9.16406,3.5543c-2.91533,-0.05977 -4.56738,-0.76611 -7.0459,-1.97109c-5.83887,-5.24766 -7.7751,-6.20918 -7.78477,-15.0832c-3.82383,0.04219 -10.29404,-1.32656 -13.43496,-1.12002c-4.00928,-0.55781 -8.03174,-0.68672 -12.04043,-1.16748c-0.93691,4.71533 -1.94619,8.33115 -6.32725,11.20254c-2.97744,1.94414 -6.60937,2.61592 -10.08516,1.86504c-0.85986,-0.19043 -1.7666,-0.43125 -2.59072,-0.74414c-5.86846,-3.42187 -9.62109,-7.31895 -9.90908,-14.4917c-0.15937,-3.81182 1.21641,-7.52842 3.81943,-10.31748c5.7583,-6.07002 13.19238,-5.65986 19.02979,-0.07178c2.32207,-1.79385 6.56074,-6.2458 9.05098,-8.49229l25.84219,-23.43779c2.25381,-2.03848 5.02559,-3.75498 7.39805,-5.65195c0.35273,-0.28184 0.33223,-1.54043 0.2792,-1.99307c-0.20742,-1.77363 -4.16543,-3.04951 -5.95928,-4.4417c-4.73848,-3.67734 -5.9543,-6.56865 -6.86543,-12.23145c-0.13828,-7.20469 2.5459,-11.36602 8.57285,-15.14414z" fill="#f9f7f8"/><path d="M154.1376,145.50967c2.32471,1.17656 34.74199,38.40088 39.23701,43.50586c-0.80303,1.35674 -1.85479,2.85732 -2.7375,4.18564c-1.25273,0.4667 -18.74004,-2.40674 -21.67178,-2.46299c-3.03164,-0.0583 -1.40566,0.46729 -3.7292,1.229c-0.9375,-0.96475 -1.68076,-4.12998 -3.02021,-5.85498c-2.34932,-3.0252 -4.55361,-4.63096 -8.34785,-5.27725c0.3416,-3.28037 0.13154,-9.28652 0.10928,-12.73213c-0.07383,-7.53135 -0.02021,-15.06357 0.16025,-22.59316z" fill="#f04298"/><path d="M149.18555,145.04385c-0.28711,11.15742 0.65947,24.41836 0.10928,35.04141c-5.41055,1.66055 -7.696,2.98506 -10.72764,7.96904c-6.1207,-1.6834 -20.4668,-2.23711 -27.40078,-3.08467c-0.33398,-1.69658 -1.27676,-3.08672 -2.22598,-4.48477c3.50244,-2.42725 7.00518,-5.81396 10.23896,-8.68359c6.86221,-6.44883 13.86328,-12.74883 20.99766,-18.89502c2.68887,-2.34814 6.25166,-5.78818 9.0085,-7.8624z" fill="url(#color-2)"/><path d="M119.17939,171.80127l0.12422,0.57832c-1.80967,2.09854 -7.87705,7.04678 -8.35957,9.50801c0.38115,1.13145 0.53203,1.56592 1.1042,2.60537c1.58555,-0.35449 7.25654,-8.13721 8.21924,-7.67402c-2.71318,2.60771 -4.5873,5.35811 -7.26094,7.76484c-0.2959,0.26631 -1.38457,0.35068 -1.84014,0.38584c-0.33398,-1.69658 -1.27676,-3.08672 -2.22598,-4.48477c3.50244,-2.42725 7.00518,-5.81396 10.23896,-8.68359z" fill="#bc1869"/><path d="M115.63242,63.56396c19.1165,-17.88926 46.56357,-18.36006 69.75,-8.90918c2.03906,1.0541 8.76973,5.33379 10.5208,6.77842c8.58076,7.0793 16.21113,16.19531 19.61982,26.92207c0.28154,0.86074 0.62549,2.30244 0.65684,3.13682l-0.46084,-0.06797l-0.21445,-1.02393c-1.13936,0.40752 -2.65752,2.70762 -4.09365,3.72686c-2.04023,1.44844 -9.34512,3.50918 -10.35527,4.82666l-0.29736,0.01875c-0.98379,0.15088 -0.77344,-2.15332 -2.48232,-2.72871l-0.21738,0.28447l0.90381,1.4584l-0.43066,0.19453c-1.13467,-1.83281 -2.62734,-3.83291 -3.89268,-5.61094c-1.12236,-1.41738 -1.89229,-2.42988 -3.22236,-3.67676c-0.19277,0.51621 -0.14414,0.69521 0.01113,1.2167c-0.90674,0.89648 -1.29229,0.65215 -2.48174,0.33867c-0.5499,0.38027 -0.61963,0.45469 -1.02363,0.98848c-3.01641,0.3123 -6.84844,0.72246 -9.871,0.7377c-1.02275,0.00498 -3.17461,-0.88828 -4.80674,-0.97617c-2.04873,-1.07783 -1.55537,-3.8666 -5.15508,-4.26357c-0.64189,-0.0709 -3.98057,-1.49297 -4.80352,-1.57822c-7.98955,1.89609 -17.28516,4.4792 -23.31211,10.38193c-0.58652,0.57422 -2.30098,2.296 -2.93936,2.12139l-0.44766,-0.44707l-1.07783,1.24541c-0.98877,-0.14443 -0.71895,-0.25986 -1.37227,0.17607c0.00703,1.44375 1.17363,4.8082 2.61475,5.3833c0.26982,-0.43447 0.27305,-0.479 0.42979,-0.9416c1.50732,-0.24082 2.70879,2.36748 3.74443,2.26318c1.60928,-0.16172 1.62129,-0.3375 3.22031,0.42012c-6.02695,3.77813 -8.71113,7.93945 -8.57285,15.14414l-0.57363,-0.90557c-0.95098,0.26631 -2.67393,-1.88291 -3.09844,-2.66719c-0.04687,-2.62793 0.29854,-2.72812 -1.5627,-4.83223c0.50684,0.57334 0.21035,-5.16973 -1.60635,-5.71406c-0.33076,-0.09932 -1.54102,-1.65293 -2.50078,-1.70859l-0.48721,0.53789c-2.44805,-2.09326 -4.29961,-2.42139 -7.61455,-2.24824c-4.86182,0.34248 -9.19395,2.87754 -13.06377,5.66338c-0.7207,0.51885 -2.5043,2.43779 -3.06709,2.68066c-2.86055,1.23457 -5.67217,2.93262 -8.32031,4.39951c-1.20234,0.66621 -3.85986,0.26133 -5.15713,0.41074l-0.19131,0.71689c-0.66533,-0.01494 -1.01543,-0.0832 -1.67432,-0.19717c0.05947,0.47783 0.0665,0.50273 0.23408,0.95449c-2.78467,0.94102 -8.46533,3.25459 -10.5835,5.22158c-1.93623,-0.00557 -2.97217,-0.50449 -4.34355,0.10723l-0.43154,-0.91406c-1.10039,0.17432 -0.78193,1.03008 -1.68984,1.20674l-0.02461,-1.44023c-1.89873,-1.78535 -5.68418,3.30264 -6.83057,4.45313c-1.66875,1.67402 -0.95977,5.38916 -2.90449,6.41309l-1.24307,-0.93955c0.03018,-0.56777 0.03809,-0.88096 0.15469,-1.43525c-0.7418,0.19395 -0.51885,0.14268 -1.13672,0.7582c4.29873,-11.17002 14.50635,-16.54687 26.25146,-17.33613c2.14307,-0.14385 4.2252,0.63252 6.08496,0.30791c0.28506,-0.0498 0.36123,-0.55664 0.48545,-0.9249l-0.73301,-0.75029l-0.91113,-0.29121c-2.08594,-6.26836 3.74004,-13.84658 5.73135,-18.93604l-0.51416,-0.52354c0.45586,0.01084 1.18652,0.01318 1.60254,-0.16406c1.75254,-0.74766 3.99609,-7.1458 4.66699,-9.05684c1.64004,-4.67197 10.84307,-18.57832 15.11133,-20.38623z" fill="#f04298"/><path d="M115.63242,63.56396c19.1165,-17.88926 46.56357,-18.36006 69.75,-8.90918c2.03906,1.0541 8.76973,5.33379 10.5208,6.77842c8.58076,7.0793 16.21113,16.19531 19.61982,26.92207c0.28154,0.86074 0.62549,2.30244 0.65684,3.13682l-0.46084,-0.06797l-0.21445,-1.02393c-1.13936,0.40752 -2.65752,2.70762 -4.09365,3.72686c-2.04023,1.44844 -9.34512,3.50918 -10.35527,4.82666l-0.29736,0.01875c-0.98379,0.15088 -0.77344,-2.15332 -2.48232,-2.72871l-0.21738,0.28447l0.90381,1.4584l-0.43066,0.19453c-1.13467,-1.83281 -2.62734,-3.83291 -3.89268,-5.61094c0.67998,0.39316 1.62891,1.22227 2.17236,1.18887c-0.54053,-0.97441 -0.9085,-1.59316 -1.24395,-2.65898l-0.06416,-0.20771c-2.67246,-4.54629 -10.43232,-10.03271 -14.74834,-13.09482c-4.1417,-1.79619 -7.88027,-4.31836 -12.20801,-5.7709c-24.66768,-8.2793 -49.52578,-2.48291 -67.22314,16.48535c-2.23945,3.09668 -6.8376,9.2502 -8.05664,12.78838c-0.08965,0.73418 -0.30352,1.50674 0.04893,2.0877c0.65566,-0.11074 0.93018,-0.5124 1.41738,-0.99932c-1.50234,3.71836 -2.63555,7.97021 -4.05498,11.2834l-0.73301,-0.75029l-0.91113,-0.29121c-2.08594,-6.26836 3.74004,-13.84658 5.73135,-18.93604l-0.51416,-0.52354c0.45586,0.01084 1.18652,0.01318 1.60254,-0.16406c1.75254,-0.74766 3.99609,-7.1458 4.66699,-9.05684c1.64004,-4.67197 10.84307,-18.57832 15.11133,-20.38623z" fill="url(#color-3)"/><path d="M185.38242,54.65479c2.03906,1.0541 8.76973,5.33379 10.5208,6.77842c8.58076,7.0793 16.21113,16.19531 19.61982,26.92207c0.28154,0.86074 0.62549,2.30244 0.65684,3.13682l-0.46084,-0.06797l-0.21445,-1.02393c-1.13936,0.40752 -2.65752,2.70762 -4.09365,3.72686c-2.04023,1.44844 -9.34512,3.50918 -10.35527,4.82666l-0.29736,0.01875c-0.98379,0.15088 -0.77344,-2.15332 -2.48232,-2.72871l-0.21738,0.28447l0.90381,1.4584l-0.43066,0.19453c-1.13467,-1.83281 -2.62734,-3.83291 -3.89268,-5.61094c0.67998,0.39316 1.62891,1.22227 2.17236,1.18887c-0.54053,-0.97441 -0.9085,-1.59316 -1.24395,-2.65898l-0.06416,-0.20771c-2.67246,-4.54629 -10.43232,-10.03271 -14.74834,-13.09482c1.75576,0.23555 2.38799,1.46719 3.83877,1.29023c1.43174,-0.17432 2.57197,-2.86904 3.52441,-4.12148c1.68516,-2.21572 3.56836,-4.64736 5.35547,-6.75381c0.63486,-0.74795 3.18281,-3.43418 3.26221,-3.64424c1.0459,-2.76328 -9.12539,-6.86895 -10.8665,-8.72871c-0.23437,-0.56982 -0.39639,-0.96475 -0.48691,-1.18477z" fill="url(#color-4)"/><path d="M195.50332,90.89238c1.55654,1.72588 4.56797,5.91738 5.25498,8.08008c-0.98379,0.15088 -0.77344,-2.15332 -2.48232,-2.72871l-0.21738,0.28447l0.90381,1.4584l-0.43066,0.19453c-1.13467,-1.83281 -2.62734,-3.83291 -3.89268,-5.61094c0.67998,0.39316 1.62891,1.22227 2.17236,1.18887c-0.54053,-0.97441 -0.9085,-1.59316 -1.24395,-2.65898z" fill="#fe9bd8"/><path d="M94.25156,93.17109c0.45586,0.01084 1.18652,0.01318 1.60254,-0.16406c1.75254,-0.74766 3.99609,-7.1458 4.66699,-9.05684c1.64004,-4.67197 10.84307,-18.57832 15.11133,-20.38623c-0.04395,0.35098 -0.09873,0.79102 -0.16465,1.31982c-1.02568,0.96826 -4.25303,3.44619 -4.85889,4.4417c-2.34551,3.85459 -5.84385,8.04844 -7.79941,11.95811c-0.80918,1.61807 -1.05732,5.74365 -1.48564,7.22842c-2.23945,3.09668 -6.8376,9.2502 -8.05664,12.78838c-0.08965,0.73418 -0.30352,1.50674 0.04893,2.0877c0.65566,-0.11074 0.93018,-0.5124 1.41738,-0.99932c-1.50234,3.71836 -2.63555,7.97021 -4.05498,11.2834l-0.73301,-0.75029l-0.91113,-0.29121c-2.08594,-6.26836 3.74004,-13.84658 5.73135,-18.93604z" fill="#f04298"/><path d="M89.94551,112.92188c0.75557,-4.18945 1.23164,-7.89727 3.32168,-11.62148c-0.08965,0.73418 -0.30352,1.50674 0.04893,2.0877c0.65566,-0.11074 0.93018,-0.5124 1.41738,-0.99932c-1.50234,3.71836 -2.63555,7.97021 -4.05498,11.2834z" fill="#fe9bd8"/><path d="M101.32383,88.51201c17.69736,-18.96826 42.55547,-24.76465 67.22314,-16.48535c4.32773,1.45254 8.06631,3.97471 12.20801,5.7709c4.31602,3.06211 12.07588,8.54854 14.74834,13.09482l0.06416,0.20771c0.33545,1.06582 0.70342,1.68457 1.24395,2.65898c-0.54346,0.0334 -1.49238,-0.7957 -2.17236,-1.18887c-1.12236,-1.41738 -1.89229,-2.42988 -3.22236,-3.67676c-1.23926,-1.62451 -4.24131,-4.09629 -5.8793,-5.3373c-8.72549,-6.69697 -19.03857,-11.0168 -29.93232,-12.5376c-16.37109,-2.1958 -31.71914,1.32627 -45.08643,11.28486c-5.4167,4.03564 -13.9749,13.74521 -15.78516,20.08535c-0.48721,0.48691 -0.76172,0.88857 -1.41738,0.99932c-0.35244,-0.58096 -0.13857,-1.35352 -0.04893,-2.0877c1.21904,-3.53818 5.81719,-9.6917 8.05664,-12.78838z" fill="url(#color-5)"/><path d="M247.30898,237.53906c7.28437,-5.33701 9.91846,-8.11816 15.4582,-15.31553c1.93184,0.12129 2.58398,0.13037 3.95068,1.65938c1.60781,1.79883 3.45908,6.40781 4.19004,8.74277c-4.94121,10.09453 -14.54326,14.33965 -25.01748,16.89932c-5.73926,0.29971 -13.61807,0.21064 -19.41563,0.02578c-1.18799,-0.80947 -14.66221,-2.20928 -17.05752,-2.58633c-2.93672,-0.10781 -5.96221,-0.37617 -8.8998,-0.59854c1.13584,1.26035 5.07334,2.17412 6.78691,2.25059c0.13125,0.00527 0.2625,0.00732 0.39375,0.00674l0.2373,0.31348l0.19072,-0.0252c-1.09541,0.24346 -2.88428,0.37822 -3.5625,1.06084l1.78828,0.36035c0.09697,0.3498 0.13916,0.68818 0.19453,1.04619c-2.83857,0.10166 -4.35176,-0.77139 -7.26768,-1.19619c-4.30049,-0.62637 -18.76406,0.52705 -21.81943,-1.12559l-19.7083,-1.53252c-2.80166,-0.19189 -6.16904,-0.03398 -8.86172,-0.43682c-11.33115,-1.6957 -21.35889,-4.14873 -32.87109,-4.25391c-5.97949,-0.05449 -15.13125,-1.88789 -21.29824,-2.58252c-8.69912,-0.97939 -18.17314,-2.22803 -26.68125,-4.22695c-3.24551,-0.64131 -9.43213,-2.53154 -12.6208,-3.57539c0.95801,-1.19473 2.97949,0.85576 4.59668,0.61846c-0.14238,-0.30059 -0.92139,-0.70195 -1.27354,-0.92402l0.20332,-0.22881c2.25967,0.15088 3.8918,0.25547 6.14561,0.15937c7.35967,1.06494 14.37129,2.01006 21.82939,2.46914c-0.52852,-1.08867 -1.16045,-1.37637 -1.42588,-2.57754c32.03613,3.20215 64.26357,7.67578 96.35391,10.39482c10.60928,0.89883 25.71182,3.18838 36.07266,3.20508c4.37051,0.00146 8.72432,-0.53643 12.96299,-1.60137c0.87656,-0.21533 4.90225,-1.53516 5.26465,-1.54482l0.5792,0.01934c3.71045,-0.86953 7.22168,-3.21416 10.58203,-4.89961z" fill="#15020c"/><path d="M55.41797,232.44902c0.95801,-1.19473 2.97949,0.85576 4.59668,0.61846c-0.14238,-0.30059 -0.92139,-0.70195 -1.27354,-0.92402l0.20332,-0.22881c2.25967,0.15088 3.8918,0.25547 6.14561,0.15937c7.35967,1.06494 14.37129,2.01006 21.82939,2.46914c5.43076,0.2373 11.03203,1.01133 16.45693,1.55479c22.70186,2.27402 45.40928,5.00625 68.08564,7.43701l23.16563,2.29834c0.90557,0.08965 5.40762,0.35771 5.88984,0.53262c1.13584,1.26035 5.07334,2.17412 6.78691,2.25059c0.13125,0.00527 0.2625,0.00732 0.39375,0.00674l0.2373,0.31348l0.19072,-0.0252c-1.09541,0.24346 -2.88428,0.37822 -3.5625,1.06084l1.78828,0.36035c0.09697,0.3498 0.13916,0.68818 0.19453,1.04619c-2.83857,0.10166 -4.35176,-0.77139 -7.26768,-1.19619c-4.30049,-0.62637 -18.76406,0.52705 -21.81943,-1.12559l-19.7083,-1.53252c-2.80166,-0.19189 -6.16904,-0.03398 -8.86172,-0.43682c-11.33115,-1.6957 -21.35889,-4.14873 -32.87109,-4.25391c-5.97949,-0.05449 -15.13125,-1.88789 -21.29824,-2.58252c-8.69912,-0.97939 -18.17314,-2.22803 -26.68125,-4.22695c-3.24551,-0.64131 -9.43213,-2.53154 -12.6208,-3.57539z" fill="#b6b4b6"/><path d="M68.03877,236.02441c0.73828,-0.34307 4.4373,-0.77109 5.1252,-0.6085c9.58945,2.26523 19.62773,1.08955 29.22305,3.40342c0.96914,0.2335 2.66514,0.17871 3.72334,0.36182c5.09414,0.88066 10.83076,0.7292 15.82969,1.25889c6.00527,0.63662 15.72861,3.3293 21.53379,2.83213l-0.8502,0.32051c4.88613,1.69863 25.846,2.36631 27.07998,3.4415l0.37852,-0.15234c-2.10264,0.77051 -3.81797,-0.19014 -6.04658,0.40986c3.02432,1.15195 6.97002,0.18721 10.49941,0.62256l-2.61504,0.3498c1.41299,-0.02783 4.65498,-0.38174 5.53945,0.79307l-19.7083,-1.53252c-2.80166,-0.19189 -6.16904,-0.03398 -8.86172,-0.43682c-11.33115,-1.6957 -21.35889,-4.14873 -32.87109,-4.25391c-5.97949,-0.05449 -15.13125,-1.88789 -21.29824,-2.58252c-8.69912,-0.97939 -18.17314,-2.22803 -26.68125,-4.22695z" fill="#f9f7f8"/><path d="M143.47383,243.27217c6.59795,1.27236 12.04482,1.26123 18.6252,1.8126c10.90605,0.91406 21.57246,3.09609 32.57109,3.36006c0.55166,0.01348 9.50684,1.39834 9.89355,1.52754l1.78828,0.36035c0.09697,0.3498 0.13916,0.68818 0.19453,1.04619c-2.83857,0.10166 -4.35176,-0.77139 -7.26768,-1.19619c-4.30049,-0.62637 -18.76406,0.52705 -21.81943,-1.12559c-0.88447,-1.1748 -4.12646,-0.8209 -5.53945,-0.79307l2.61504,-0.3498c-3.52939,-0.43535 -7.4751,0.52939 -10.49941,-0.62256c2.22861,-0.6 3.94395,0.36064 6.04658,-0.40986l-0.37852,0.15234c-1.23398,-1.0752 -22.19385,-1.74287 -27.07998,-3.4415z" fill="#c2c0c1"/><path d="M247.30898,237.53906c7.28437,-5.33701 9.91846,-8.11816 15.4582,-15.31553c1.93184,0.12129 2.58398,0.13037 3.95068,1.65938c1.60781,1.79883 3.45908,6.40781 4.19004,8.74277c-4.94121,10.09453 -14.54326,14.33965 -25.01748,16.89932c-2.58105,-0.1875 -2.08389,-3.15938 -1.69775,-3.32461c4.91104,-2.10029 5.83887,-6.2959 7.39922,-10.87588c-1.39512,0.90645 -2.85527,2.2125 -4.28291,2.21455z" fill="url(#color-6)"/><path d="M247.30898,237.53906c1.42764,-0.00205 2.88779,-1.30811 4.28291,-2.21455c-1.56035,4.57998 -2.48818,8.77559 -7.39922,10.87588c-0.38613,0.16523 -0.8833,3.13711 1.69775,3.32461c-5.73926,0.29971 -13.61807,0.21064 -19.41563,0.02578c-1.18799,-0.80947 -14.66221,-2.20928 -17.05752,-2.58633c8.39707,-0.49717 19.82871,-0.51182 27.30967,-4.52578c3.71045,-0.86953 7.22168,-3.21416 10.58203,-4.89961z" fill="url(#color-7)"/><path d="M252.42217,139.1625c0.31787,0.11748 1.41592,0.54932 1.67637,0.60469c5.62998,3.1415 10.6251,6.50127 13.75723,12.31611c7.18125,8.77793 10.38545,24.2625 9.25576,35.41553c-1.15254,11.38242 -5.2002,20.03203 -11.17559,29.62119l-0.75029,-0.85488c2.19521,-5.08418 3.25225,-15.98408 1.83604,-21.05889c-1.56533,-10.0998 -3.95537,-18.83027 -11.08037,-26.72754l-3.68584,-3.98525c-2.71963,-2.21807 -5.90127,-4.14053 -8.88809,-6.00264c-0.76055,-0.26162 -1.14521,-0.46348 -1.84189,-0.82441l-0.52529,-0.09902c-0.27979,-1.0166 -0.1459,-1.23486 0.20947,-2.21865l0.31377,-1.52285c1.93359,-1.95498 5.16387,-7.73701 6.54609,-10.26152c0.79893,-1.14902 0.90967,-2.27168 1.89844,-3.35361c1.16309,0.21475 0.5332,1.09863 1.43525,1.40918c0.33311,-0.94453 0.59209,-1.5501 1.01895,-2.45742z" fill="url(#color-8)"/><path d="M252.42217,139.1625c0.31787,0.11748 1.41592,0.54932 1.67637,0.60469c5.62998,3.1415 10.6251,6.50127 13.75723,12.31611c0.09932,1.0251 0.31201,1.37051 0.83086,2.23125c0.42598,3.65801 -10.62773,10.66025 -14.26963,10.61426c-1.30254,-0.01641 -1.27998,-0.30791 -2.16152,-0.43535c-2.71963,-2.21807 -5.90127,-4.14053 -8.88809,-6.00264c-0.76055,-0.26162 -1.14521,-0.46348 -1.84189,-0.82441l-0.52529,-0.09902c-0.27979,-1.0166 -0.1459,-1.23486 0.20947,-2.21865l0.31377,-1.52285c1.93359,-1.95498 5.16387,-7.73701 6.54609,-10.26152c0.79893,-1.14902 0.90967,-2.27168 1.89844,-3.35361c1.16309,0.21475 0.5332,1.09863 1.43525,1.40918c0.33311,-0.94453 0.59209,-1.5501 1.01895,-2.45742z" fill="#f04298"/><path d="M252.42217,139.1625c0.31787,0.11748 1.41592,0.54932 1.67637,0.60469c-1.70918,2.54414 -1.27383,7.93447 -4.03799,10.99424c-0.5083,0.56279 -0.4708,1.37725 -1.60137,1.96787l-0.31377,-0.53877c-0.91934,-0.18105 -0.56689,-0.2168 -1.39277,0.04834c-0.75557,1.23574 -2.77881,5.52627 -3.38525,6.25195c-0.76055,-0.26162 -1.14521,-0.46348 -1.84189,-0.82441l-0.52529,-0.09902c-0.27979,-1.0166 -0.1459,-1.23486 0.20947,-2.21865l0.31377,-1.52285c1.93359,-1.95498 5.16387,-7.73701 6.54609,-10.26152c0.79893,-1.14902 0.90967,-2.27168 1.89844,-3.35361c1.16309,0.21475 0.5332,1.09863 1.43525,1.40918c0.33311,-0.94453 0.59209,-1.5501 1.01895,-2.45742z" fill="#bc1869"/><path d="M248.06953,143.56436c0.44063,0.80332 0.6832,1.43379 0.34189,2.3458c-1.38164,3.69404 -4.01309,8.14893 -6.0668,11.50078l-0.81914,0.25547l-0.52529,-0.09902c-0.27979,-1.0166 -0.1459,-1.23486 0.20947,-2.21865l0.31377,-1.52285c1.93359,-1.95498 5.16387,-7.73701 6.54609,-10.26152z" fill="#8e0640"/><path d="M201.05566,98.95371c1.01016,-1.31748 8.31504,-3.37822 10.35527,-4.82666c1.43613,-1.01924 2.9543,-3.31934 4.09365,-3.72686l0.21445,1.02393l0.46084,0.06797l0.09229,0.24639c0.74121,2.0291 0.1248,5.27021 2.34609,5.35137c5.15801,0.93105 16.50264,4.88701 19.37227,9.33105l-0.12305,0.56455c1.31953,1.67783 4.06582,3.91377 4.67842,5.22275c-0.42334,3.10869 -11.66982,11.23184 -14.93408,12.32051l-1.0834,-0.1957c-0.75059,-0.3082 -3.37236,-2.55029 -4.27559,-3.11426c-4.67695,-2.92031 -9.10488,-4.63887 -14.50869,-5.24824l-0.42187,0.08262c-0.63838,-0.76172 -0.4459,-0.68232 -0.55078,-1.85361l-0.14062,-0.0375c-0.54111,-4.75693 -3.35449,-11.054 -5.5752,-15.2083z" fill="#f04298"/><path d="M201.05566,98.95371c1.01016,-1.31748 8.31504,-3.37822 10.35527,-4.82666c1.43613,-1.01924 2.9543,-3.31934 4.09365,-3.72686l0.21445,1.02393l0.46084,0.06797l0.09229,0.24639c0.74121,2.0291 0.1248,5.27021 2.34609,5.35137c-0.71719,0.82588 -0.87568,0.93545 -1.78711,1.53018c-2.30332,5.29365 -5.45479,10.14609 -8.01914,15.30879c-0.3416,0.68789 -0.6627,1.38838 -1.06787,2.0417l-0.42187,0.08262c-0.63838,-0.76172 -0.4459,-0.68232 -0.55078,-1.85361l-0.14062,-0.0375c-0.54111,-4.75693 -3.35449,-11.054 -5.5752,-15.2083z" fill="#bc1869"/><path d="M206.77148,114.19951c0.33926,-1.8835 7.55801,-12.35479 8.14482,-15.01494c0.10781,-0.48896 0.61641,-1.74756 0.82441,-2.29922l0.56367,-0.12979c0.54199,0.64893 0.40576,0.89941 0.52676,1.86445c-2.30332,5.29365 -5.45479,10.14609 -8.01914,15.30879c-0.3416,0.68789 -0.6627,1.38838 -1.06787,2.0417l-0.42187,0.08262c-0.63838,-0.76172 -0.4459,-0.68232 -0.55078,-1.85361z" fill="#8e0640"/><path d="M237.99053,106.4209c7.62861,7.08076 11.51045,14.23477 13.6043,24.64482c0.38818,1.92979 0.47256,6.79834 0.82734,8.09678c-0.42686,0.90732 -0.68584,1.51289 -1.01895,2.45742c-0.90205,-0.31055 -0.27217,-1.19443 -1.43525,-1.40918c-0.98877,1.08193 -1.09951,2.20459 -1.89844,3.35361c-1.38223,2.52451 -4.6125,8.30654 -6.54609,10.26152l-0.31377,1.52285c-0.13887,-2.91211 -0.18721,-4.47656 -0.79951,-7.32861c-2.02119,-9.84551 -6.89209,-16.8252 -13.88174,-23.68711l1.0834,0.1957c3.26426,-1.08867 14.51074,-9.21182 14.93408,-12.32051c-0.6126,-1.30898 -3.35889,-3.54492 -4.67842,-5.22275z" fill="url(#color-9)"/><path d="M39.93867,214.05205c1.81875,1.44551 3.49365,3.23672 5.2207,4.55039c14.91533,10.77803 23.41846,10.91396 40.33418,13.36318c0.26543,1.20117 0.89736,1.48887 1.42588,2.57754c-7.45811,-0.45908 -14.46973,-1.4042 -21.82939,-2.46914c-2.25381,0.09609 -3.88594,-0.0085 -6.14561,-0.15937l-0.20332,0.22881c0.35215,0.22207 1.13115,0.62344 1.27354,0.92402c-1.61719,0.2373 -3.63867,-1.81318 -4.59668,-0.61846c-5.06338,-1.08076 -17.55791,-3.80947 -20.59424,-8.36807c-2.30508,-3.64629 -1.76367,-6.24258 2.35811,-7.80938c0.90586,-0.68555 1.86563,-1.49824 2.75684,-2.21953z" fill="url(#color-10)"/><path d="M39.93867,214.05205c1.81875,1.44551 3.49365,3.23672 5.2207,4.55039c-2.56611,2.95635 0.29385,7.47246 2.72842,9.69756c3.38437,0.48047 14.19375,2.61504 17.20225,3.77402c-2.25381,0.09609 -3.88594,-0.0085 -6.14561,-0.15937l-0.20332,0.22881c0.35215,0.22207 1.13115,0.62344 1.27354,0.92402c-1.61719,0.2373 -3.63867,-1.81318 -4.59668,-0.61846c-5.06338,-1.08076 -17.55791,-3.80947 -20.59424,-8.36807c-2.30508,-3.64629 -1.76367,-6.24258 2.35811,-7.80938c0.90586,-0.68555 1.86563,-1.49824 2.75684,-2.21953z" fill="url(#color-11)"/><path d="M34.82373,224.08096c-2.30508,-3.64629 -1.76367,-6.24258 2.35811,-7.80938l0.59473,0.3416c-1.05937,2.11992 -0.84639,6.44062 -2.95283,7.46777z" fill="#f9f7f8"/><path d="M207.74414,115.97051c5.40381,0.60938 9.83174,2.32793 14.50869,5.24824c0.90322,0.56396 3.525,2.80605 4.27559,3.11426c6.98965,6.86191 11.86055,13.8416 13.88174,23.68711l-0.30469,0.44971c-0.4418,-0.32959 -1.03535,-0.15293 -1.68809,-0.06387c-0.14355,0.02021 -0.28682,0.04219 -0.42979,0.06562c-1.56592,-13.74932 -12.80244,-26.26992 -26.04375,-29.7082c-1.55449,-0.40371 -4.76309,-0.55254 -5.6918,-1.56943c0.29883,-0.87246 0.07881,-0.55781 1.07021,-1.14082z" fill="url(#color-12)"/><path d="M165.53174,195.06445c1.73203,0.37324 2.87168,0.51943 4.61953,0.71074c-0.93721,0.40869 -2.53711,1.03184 -2.69707,2.27813c-0.64453,5.02529 -2.38594,7.82197 -6.52412,10.53574c-3.6457,2.39092 -14.35459,3.94482 -15.7793,-1.30869c2.47852,1.20498 4.13057,1.91133 7.0459,1.97109c3.40898,0.09932 6.71338,-1.18242 9.16406,-3.5543c3.08232,-2.99355 4.1127,-6.48486 4.171,-10.63271z" fill="#8e0640"/><path d="M255.94131,168.47871c7.125,7.89727 9.51504,16.62773 11.08037,26.72754c-0.34072,0.55576 -0.16318,0.37236 -0.83086,0.65273c-0.69727,-0.56104 -1.15342,-2.61006 -1.33271,-3.5502c-1.52109,-7.97666 -4.74287,-14.39033 -9.01553,-21.16963l0.24697,-0.28447c-0.43154,-0.6293 -0.85928,-1.26123 -1.28291,-1.89609l0.24375,-0.35303z" fill="#fe64bc"/><path d="M33.53906,150.82676c5.10879,-6.30264 12.57422,-11.62178 20.77236,-12.63604c-0.8584,1.01719 -2.63584,1.27031 -3.92227,1.43145l-0.42041,0.39287l0.83057,0.8209l-0.1043,0.4084l-1.54922,0.02959c-0.64277,0.77988 -1.23574,2.19697 -1.87705,2.48584c-2.59717,-0.08437 -4.64707,4.2 -6.74795,2.55146c-2.20283,1.97666 -4.48799,4.01748 -6.5335,6.1626c-0.95186,0.99814 -1.79443,0.81973 -2.65195,1.49473c0.70986,-1.20469 1.72207,-1.99102 2.20371,-3.1418z" fill="#f04298"/><path d="M218.45977,197.20313c1.15811,1.47393 1.16074,3.14092 0.92168,5.00713c-0.40371,2.93877 -1.64619,5.69912 -3.57891,7.94971c-0.68174,0.779 -1.04473,0.81182 -0.77256,1.31279c1.81318,-1.15693 5.36016,-6.98438 5.76768,-9.24023c0.2748,-1.52227 -0.12979,-4.59316 -0.29414,-6.29883c3.09053,7.44229 -0.99639,15.56396 -8.25498,18.41631c-2.02148,0.79453 -5.79141,0.80566 -7.96641,0.65537l-0.25752,-0.72275c-1.62012,0.07236 -3.09785,0.26924 -3.9791,-1.37197c9.6832,2.93232 17.9959,-1.45898 18.5335,-12.28682c0.05391,-1.08428 -0.06504,-2.32529 -0.11924,-3.4207z" fill="#bc1869"/><path d="M236.14775,242.41934c0.571,-0.52061 1.25361,-0.88623 1.93301,-1.21992c8.7334,-4.29053 16.35059,-9.05742 21.8168,-17.35898c1.74521,-2.65049 2.98594,-5.24561 5.28809,-7.57529l0.75029,0.85488c-0.98262,1.56182 -2.29453,3.52676 -3.16875,5.10352c-5.53975,7.19736 -8.17383,9.97852 -15.4582,15.31553c-3.36035,1.68545 -6.87158,4.03008 -10.58203,4.89961z" fill="#bc1869"/><path d="M111.89063,189.90967c4.00869,0.48076 8.03115,0.60967 12.04043,1.16748c-1.8583,0.15029 -10.72822,-0.9208 -11.47793,0.12158c-0.46582,0.64746 -0.67178,1.92217 -0.92256,2.70117c-1.46777,4.55889 -3.18545,9.20244 -8.3335,10.48564c-2.64932,0.66035 -6.59531,0.60439 -8.96777,-0.80918c-0.58389,-0.34775 -0.97295,-0.77168 -1.3418,-1.34326c0.82412,0.31289 1.73086,0.55371 2.59072,0.74414c3.47578,0.75088 7.10771,0.0791 10.08516,-1.86504c4.38105,-2.87139 5.39033,-6.48721 6.32725,-11.20254z" fill="#8e0640"/><path d="M241.0002,157.56738l0.52529,0.09902c0.69668,0.36094 1.08135,0.56279 1.84189,0.82441c2.98682,1.86211 6.16846,3.78457 8.88809,6.00264l3.68584,3.98525l-0.89092,0.12686l-0.24375,0.35303c0.42363,0.63486 0.85137,1.2668 1.28291,1.89609l-0.24697,0.28447c-1.3916,-1.10449 -4.07812,-5.05195 -6.80537,-7.05615c-2.58398,-1.89902 -8.45186,-4.13115 -9.73154,-5.48496c0.60732,-0.72451 0.81357,-0.75557 1.69453,-1.03066z" fill="#fe9bd8"/><path d="M198.53174,98.18115l0.43066,-0.19453l-0.90381,-1.4584l0.21738,-0.28447c1.70889,0.57539 1.49854,2.87959 2.48232,2.72871l0.29736,-0.01875c2.2207,4.1543 5.03408,10.45137 5.5752,15.2083c-0.07646,0.45645 -0.33311,1.17744 -0.48047,1.63799l-0.34805,-0.03574c-0.66299,-3.65361 -5.37275,-14.00156 -7.27061,-17.58311z" fill="#fe64bc"/><path d="M240.41016,148.02012c0.6123,2.85205 0.66064,4.4165 0.79951,7.32861c-0.35537,0.98379 -0.48926,1.20205 -0.20947,2.21865c-0.88096,0.2751 -1.08721,0.30615 -1.69453,1.03066c0.02344,-0.17314 -1.20586,-9.56162 -1.31807,-10.12646c0.14297,-0.02344 0.28623,-0.04541 0.42979,-0.06562c0.65273,-0.08906 1.24629,-0.26572 1.68809,0.06387z" fill="#f04298"/><path d="M27.12653,158.97275c0.58966,-2.07305 1.27966,-4.04414 1.80891,-6.14062c0.18949,1.48594 0.03167,1.7959 1.13429,2.80312c0.02227,1.42939 0.07354,1.87588 -0.38613,3.20947c-0.67219,0.41865 -0.75396,0.22412 -1.71152,0.06152l-0.13702,-0.19512z" fill="#f04298"/><path d="M28.93544,152.83213c4.85177,-11.9042 10.72901,-22.23047 22.29571,-28.75049c1.10889,-0.97734 6.99375,-2.31475 7.49063,-3.36094c2.85762,-6.01436 4.75488,-11.57754 9.58301,-16.55889c6.57158,-6.78047 16.73965,-10.65205 25.94678,-10.99072l0.51416,0.52354c-1.99131,5.08945 -7.81729,12.66768 -5.73135,18.93604l0.91113,0.29121l0.73301,0.75029c-0.12422,0.36826 -0.20039,0.8751 -0.48545,0.9249c-1.85977,0.32461 -3.94189,-0.45176 -6.08496,-0.30791c-11.74512,0.78926 -21.95273,6.16611 -26.25146,17.33613l-1.41035,3.60029l-0.14062,1.15137c-0.68174,1.36465 -0.40166,1.24834 -1.99424,1.81377c-8.19814,1.01426 -15.66357,6.3334 -20.77236,12.63604c-0.48164,1.15078 -1.49385,1.93711 -2.20371,3.1418c-0.3917,0.52061 -0.85664,1.17891 -1.26562,1.6667c-1.10262,-1.00723 -0.94479,-1.31719 -1.13429,-2.80312z" fill="#fe64bc"/><path d="M56.44629,135.22559l-0.58301,-0.21064c-0.24727,-0.38789 -0.51445,-0.71455 -0.37441,-1.22695c4.2498,-15.56484 18.53262,-22.13262 33.54551,-21.15732l0.91113,0.29121l0.73301,0.75029c-0.12422,0.36826 -0.20039,0.8751 -0.48545,0.9249c-1.85977,0.32461 -3.94189,-0.45176 -6.08496,-0.30791c-11.74512,0.78926 -21.95273,6.16611 -26.25146,17.33613z" fill="url(#color-13)"/><path d="M33.53906,150.82676l-0.51533,-0.62256c-0.84609,-5.0707 17.49111,-14.88486 23.28193,-13.82725c-0.68174,1.36465 -0.40166,1.24834 -1.99424,1.81377c-8.19814,1.01426 -15.66357,6.3334 -20.77236,12.63604z" fill="#fe9bd8"/><path d="M200.51748,246.36592c2.9376,0.22236 5.96309,0.49072 8.8998,0.59854c2.39531,0.37705 15.86953,1.77686 17.05752,2.58633c-8.09443,0.27275 -11.92383,2.64053 -19.92832,1.82813c-0.05537,-0.35801 -0.09756,-0.69639 -0.19453,-1.04619l-1.78828,-0.36035c0.67822,-0.68262 2.46709,-0.81738 3.5625,-1.06084l-0.19072,0.0252l-0.2373,-0.31348c-0.13125,0.00059 -0.2625,-0.00146 -0.39375,-0.00674c-1.71357,-0.07646 -5.65107,-0.99023 -6.78691,-2.25059z" fill="url(#color-14)"/></g></svg></svg>