<svg id="svg" version="1.1" viewBox="0 0 300 300" width="300" height="300" xmlns="http://www.w3.org/2000/svg"><svg xmlns="http://www.w3.org/2000/svg"><defs><clipPath id="clip-1"><rect x="0" y="0" transform="scale(0.29297,0.29297)" width="1024" height="1024" fill="none"/></clipPath><linearGradient x1="235.77773" y1="88.03096" x2="242.3502" y2="95.61855" gradientUnits="userSpaceOnUse" id="color-1"><stop offset="0" stop-color="#4d97c8"/><stop offset="1" stop-color="#3779b7"/></linearGradient><linearGradient x1="92.81602" y1="190.58965" x2="149.68916" y2="172.55098" gradientUnits="userSpaceOnUse" id="color-2"><stop offset="0" stop-color="#010102"/><stop offset="1" stop-color="#02101d"/></linearGradient><linearGradient x1="239.44365" y1="213.88945" x2="243.05742" y2="219.14297" gradientUnits="userSpaceOnUse" id="color-3"><stop offset="0" stop-color="#908c8b"/><stop offset="1" stop-color="#a3a5a6"/></linearGradient><linearGradient x1="152.58135" y1="185.57432" x2="82.38955" y2="41.18701" gradientUnits="userSpaceOnUse" id="color-4"><stop offset="0" stop-color="#0061fd"/><stop offset="1" stop-color="#0098fe"/></linearGradient><linearGradient x1="128.1085" y1="235.04619" x2="121.62158" y2="219.55957" gradientUnits="userSpaceOnUse" id="color-5"><stop offset="0" stop-color="#000007"/><stop offset="1" stop-color="#031731"/></linearGradient><linearGradient x1="83.72578" y1="208.35117" x2="82.2041" y2="211.26357" gradientUnits="userSpaceOnUse" id="color-6"><stop offset="0" stop-color="#000a1c"/><stop offset="1" stop-color="#071f41"/></linearGradient><linearGradient x1="175.17012" y1="254.66895" x2="146.45859" y2="240.91201" gradientUnits="userSpaceOnUse" id="color-7"><stop offset="0" stop-color="#1a3e5a"/><stop offset="1" stop-color="#345e7c"/></linearGradient></defs><g clip-path="url(#clip-1)" fill="none" fill-rule="nonzero" stroke="none" stroke-width="1" stroke-linecap="butt" stroke-linejoin="miter" stroke-miterlimit="10" stroke-dasharray="" stroke-dashoffset="0" font-family="none" font-weight="none" font-size="none" text-anchor="none" style="mix-blend-mode: normal"><path d="M62.09971,37.33711c9.18926,-5.54385 10.904,-2.21572 19.6292,2.00332c1.93096,0.93369 3.87832,1.98486 5.7917,2.96016l43.35557,22.49355c9.63369,4.99629 19.65557,9.67705 29.1835,14.96777c3.1793,1.76572 6.72217,3.2417 9.77842,5.15889c0.55312,-0.48574 0.82939,-1.4918 1.11182,-2.22686c4.06787,-4.97666 14.92939,-10.00078 20.73896,-13.65205c4.65879,-2.59072 9.14824,-5.63145 13.82168,-8.17559c4.01367,-1.90488 8.73047,-6.23262 13.44961,-4.49883c1.73584,0.63779 3.27393,1.01426 4.96641,1.87354c11.88926,6.03545 24.07793,11.48496 35.97686,17.48086c1.26387,0.63691 2.55088,2.33438 3.23936,3.54141c0.5918,10.45576 0.47695,19.93184 0.48164,30.40225l-0.1043,42.07559c-0.0627,8.354 -0.07705,16.70859 -0.04248,25.06289c0.07969,6.29531 1.05791,16.3207 -1.00635,22.08486c1.38662,0.19541 2.0165,0.06182 3.04512,0.84141c0.29941,3.81152 -9.26514,9.80273 -11.86904,12.17607c-5.89424,5.37246 -12.98701,8.91797 -19.93359,12.73564c-10.63916,6.62637 -10.98955,6.5168 -23.36162,6.24316c-8.84209,-0.13242 -13.08398,0.24141 -20.74629,-5.8043c-1.60225,-0.2335 -3.29238,-0.346 -4.91104,-0.48252c-3.86191,-3.7166 -5.36895,-4.41123 -9.93193,-7.15107c-8.15918,-4.89932 -16.28115,-10.91807 -25.1335,-14.48701c-1.46016,-0.58857 -10.82695,-2.60361 -12.1626,-2.5333c-1.01777,0.43477 -2.12549,0.84785 -3.24346,0.87803c-1.379,0.0375 -2.64023,-0.42803 -3.89033,-0.95391c-4.21289,-1.77187 -39.51973,-19.36289 -41.02471,-20.84912c-1.00752,-0.99463 -0.98877,-2.04082 -1.03125,-3.36475l-0.18486,-0.6041c-1.13057,-2.30625 -11.27139,-6.21035 -15.25635,-12.36943c2.99619,-0.50039 4.92773,-1.8876 7.65,-2.90742c6.07148,-2.27432 11.44688,-2.2374 17.71611,-2.57959c1.13437,-0.06182 1.49033,-0.85723 2.03262,-1.75254c-5.32295,-3.49189 -11.43135,-6.14736 -17.28252,-9.47314c-5.42607,-3.1834 -17.83154,-7.85771 -21.85547,-12.20186c-1.87441,-2.02354 -1.36084,-25.70303 -1.36758,-28.77715l-0.21709,-33.54961l-0.05098,-20.83447c-0.00146,-3.31641 -0.09316,-6.97676 0.15439,-10.28262c0.11836,-1.58145 1.30049,-2.57666 2.48438,-3.46816zM199.74492,118.75869c1.01719,0.86514 2.39619,2.17031 3.69463,1.57939c0.73359,-1.1499 0.57744,-2.97656 0.61172,-4.42324c-1.27529,-1.18359 -2.3751,-0.49189 -3.62021,0.32695z" fill="#021f3a"/><path d="M200.43105,116.2418c1.24512,-0.81885 2.34492,-1.51055 3.62021,-0.32695c-0.03428,1.44668 0.12187,3.27334 -0.61172,4.42324c-1.29844,0.59092 -2.67744,-0.71426 -3.69463,-1.57939z" fill-opacity="0.98824" fill="#00dcfe"/><path d="M182.3877,93.93838c6.45791,4.68633 19.96113,8.89102 26.73691,13.71973l0.26133,0.29736c0.59092,0.8168 0.84023,1.29053 1.75576,1.71152c0.51094,-0.18018 0.32197,-0.0252 0.61143,-0.44414c0.35303,1.73965 0.18516,7.66611 0.16875,9.72832l-0.11016,18.23672c0.07881,29.22539 -0.02402,58.45107 -0.3082,87.67559c0.22705,0.7749 0.22764,2.2377 -0.31641,2.88135c-0.24521,0.07705 -0.40869,0.12773 -0.66826,0.12803c-4.04941,0.00762 -30.79248,-13.09395 -34.85625,-16.04766c-0.93721,-0.68145 -1.85391,-1.91426 -2.65518,-2.77969c-0.01553,-4.079 -0.23408,-8.52539 -0.31934,-12.61025c-0.1292,-6.20068 3.16758,-4.05645 5.81924,-6.97822c1.66875,-1.02598 3.13916,-2.22979 3.3917,-4.27734c0.54727,-4.43584 0.39404,-9.2083 0.39697,-13.6834l-0.00937,-25.04121c-0.06445,-1.6374 -0.09258,-5.4249 0.16523,-6.90322c1.55303,0.40576 3.97471,2.10527 5.53594,2.94521c5.48936,2.95313 10.94912,5.81689 16.80762,7.99131c0.76904,-0.63809 0.40664,-1.50059 0.28799,-2.39678c0.05361,-2.38096 0.06416,-5.3499 -0.0958,-7.70771c1.20996,-1.63623 0.19424,-3.85605 -0.00557,-5.95811l-0.01611,-0.18838c-0.45264,-2.04961 -0.29268,-2.4873 -2.18027,-3.37324l0.05127,-0.13447c0.98906,-0.10547 0.63457,0.04453 1.38926,-0.51533c0.56719,-1.27764 0.37705,-2.74102 -0.09727,-4.02275c0.71455,0.00146 0.4377,0.05713 1.06582,-0.29355c0.29326,-1.11152 -0.26045,-2.7709 -0.54639,-3.94893c-0.56221,-1.45605 -0.02812,-3.8915 -0.59707,-6.03428c-1.27529,-1.18359 -2.3751,-0.49189 -3.62021,0.32695c-1.81934,0.11572 -4.76426,-2.34258 -6.57773,-3.2959c-2.79229,-1.46748 -5.59248,-3.06299 -8.38477,-4.54834c-1.08398,-0.57656 -1.68311,-1.31543 -2.93848,-1.79297c-0.22383,-1.51025 -0.25723,-11.0209 -0.14238,-12.66621z" fill="#032e52"/><path d="M209.38594,107.95547c0.59092,0.8168 0.84023,1.29053 1.75576,1.71152c0.51094,-0.18018 0.32197,-0.0252 0.61143,-0.44414c0.35303,1.73965 0.18516,7.66611 0.16875,9.72832l-0.11016,18.23672c0.07881,29.22539 -0.02402,58.45107 -0.3082,87.67559c-0.45762,0.33281 -0.53701,1.56064 -0.70576,2.33584l-0.42656,0.21885l-0.71719,-0.54756c-0.41074,-1.61133 -0.47051,-6.49277 -0.52354,-8.35928c-0.31904,-11.25615 -0.15234,-22.63594 -0.0583,-33.90205z" fill="#1a5074"/><path d="M182.45186,139.55186c0.01553,1.08691 -0.09639,2.83418 0.37471,3.71836l0.50098,0.15527c0.01875,0.06211 0.03369,0.1251 0.05596,0.18574c1.15869,3.16289 16.09863,8.19521 17.84121,10.71504c0.24199,0.3498 0.12744,0.50186 0.01934,0.87158c-1.096,0.67939 -2.59453,0.42217 -3.78457,0.14414c-1.49385,-0.34863 -14.49316,-5.51689 -14.82832,-6.14385c-0.329,-0.61494 -0.28682,-2.01768 -0.34453,-2.74307c-0.06445,-1.6374 -0.09258,-5.4249 0.16523,-6.90322z" fill="#01356a"/><path d="M182.45186,139.55186c1.55303,0.40576 3.97471,2.10527 5.53594,2.94521c5.48936,2.95313 10.94912,5.81689 16.80762,7.99131c0.75879,0.92197 0.7002,0.57451 0.71807,1.60518c-3.44736,1.55361 -18.24023,-8.46885 -22.18594,-8.66807l-0.50098,-0.15527c-0.47109,-0.88418 -0.35918,-2.63145 -0.37471,-3.71836z" fill="#1a5074"/><path d="M187.42061,199.9623c3.49131,0.25898 5.4375,2.91855 2.92148,6.07705c-3.82734,-0.33984 -6.06094,-2.84355 -2.92148,-6.07705z" fill="#00ac91"/><path d="M201.30732,157.58262c4.58408,0.28887 4.37021,2.17383 3.55781,6.03604c-4.0541,-0.6668 -5.09385,-2.02266 -3.55781,-6.03604z" fill="#05e100"/><path d="M185.03262,175.41064c4.06523,0.25078 7.09629,4.07607 2.99297,7.21787c-0.73887,-0.17256 -0.81445,-0.22852 -1.37637,-0.7418c0.03398,-0.81064 0.93428,-1.49473 1.59346,-2.41992c-0.55225,-3.11367 -2.81514,-0.66152 -3.21006,-4.05615z" fill="#021f3a"/><path d="M197.03701,210.16348c1.154,0.21973 1.10508,0.11895 1.66318,1.02363c0.11133,0.95303 -0.15908,1.6623 -0.41689,2.58574c-1.62949,-1.06348 -1.84805,-1.89844 -1.24629,-3.60937z" fill="#020e26"/><path d="M170.9499,82.69395c4.06787,-4.97666 14.92939,-10.00078 20.73896,-13.65205c4.65879,-2.59072 9.14824,-5.63145 13.82168,-8.17559c4.01367,-1.90488 8.73047,-6.23262 13.44961,-4.49883c1.73584,0.63779 3.27393,1.01426 4.96641,1.87354c11.88926,6.03545 24.07793,11.48496 35.97686,17.48086c1.26387,0.63691 2.55088,2.33438 3.23936,3.54141c-0.33867,0.18311 -0.89941,0.52617 -1.24189,0.59414c-6.65801,4.06699 -14.43896,8.3877 -21.28418,12.37822c-6.89912,4.02188 -16.32187,9.72979 -23.28018,13.1707c-1.48828,0.68174 -1.62891,0.41221 -1.84775,2.15596c-1.41416,1.04326 -1.50059,0.66768 -3.09053,-0.12158c-0.62607,0.44854 -0.59092,0.98555 -0.64512,1.78213c-0.28945,0.41895 -0.10049,0.26396 -0.61143,0.44414c-0.91553,-0.421 -1.16484,-0.89473 -1.75576,-1.71152l-0.26133,-0.29736c-6.77578,-4.82871 -20.279,-9.0334 -26.73691,-13.71973l-1.54863,-2.50576c-0.08613,-0.05039 -1.01045,-1.00283 -1.15166,-1.1458l-0.86338,1.31367l-2.01592,-1.35498c-1.88467,-1.77627 -6.96035,-2.2623 -6.97002,-5.32471c0.55312,-0.48574 0.82939,-1.4918 1.11182,-2.22686z" fill="#1e629d"/><path d="M217.33652,105.40635l-0.4207,-0.84463c0.64307,-2.04902 20.52891,-12.64453 23.53359,-14.43604l12.39404,-7.4915c1.53164,-0.93047 5.4665,-3.44824 6.96943,-3.97676c1.004,0.1708 1.31074,0.54023 2.08799,1.2c-6.65801,4.06699 -14.43896,8.3877 -21.28418,12.37822c-6.89912,4.02188 -16.32187,9.72979 -23.28018,13.1707z" fill="url(#color-1)"/><path d="M180.83906,91.43262c0.8335,-0.27422 1.12031,-0.15791 2.0458,0.36299c5.93408,3.33984 12.1459,6.13184 18.21299,9.14648c1.87764,0.93281 8.23242,3.79951 9.54229,4.68018c0.00967,1.6998 0.30674,1.69482 -1.51553,2.03584c-6.77578,-4.82871 -20.279,-9.0334 -26.73691,-13.71973z" fill="#80b6d7"/><path d="M169.83809,84.9208c0.55312,-0.48574 0.82939,-1.4918 1.11182,-2.22686c1.67725,1.00283 1.57178,1.32832 2.40996,3.28975c1.9333,1.36758 4.60752,2.97686 6.32754,4.30313l-0.86338,1.31367l-2.01592,-1.35498c-1.88467,-1.77627 -6.96035,-2.2623 -6.97002,-5.32471z" fill="#01356a"/><path d="M210.64014,105.62227c1.154,-0.23086 2.89189,-0.72891 3.94775,-0.39932c0.88564,0.79424 0.77871,0.929 0.90088,2.33936c-1.41416,1.04326 -1.50059,0.66768 -3.09053,-0.12158c-0.62607,0.44854 -0.59092,0.98555 -0.64512,1.78213c-0.28945,0.41895 -0.10049,0.26396 -0.61143,0.44414c-0.91553,-0.421 -1.16484,-0.89473 -1.75576,-1.71152l-0.26133,-0.29736c1.82227,-0.34102 1.5252,-0.33604 1.51553,-2.03584z" fill="#5c93cd"/><path d="M100.23457,155.92412c1.93887,0.58359 8.95928,4.06406 10.00752,5.65254c0.4248,-0.32754 0.68555,-0.66094 1.25977,-0.60615c1.6708,0.15937 41.63877,20.92881 41.80225,21.17578c0.40576,0.61289 0.49277,1.3626 0.62168,2.07334c0.35303,1.61953 1.11006,5.0666 0.01904,6.2168c-3.65625,3.85459 -12.41221,6.87305 -16.47803,9.99053c-1.01777,0.43477 -2.12549,0.84785 -3.24346,0.87803c-1.379,0.0375 -2.64023,-0.42803 -3.89033,-0.95391c-4.21289,-1.77187 -39.51973,-19.36289 -41.02471,-20.84912c-1.00752,-0.99463 -0.98877,-2.04082 -1.03125,-3.36475l-0.18486,-0.6041c-1.13057,-2.30625 -11.27139,-6.21035 -15.25635,-12.36943c2.99619,-0.50039 4.92773,-1.8876 7.65,-2.90742c6.07148,-2.27432 11.44688,-2.2374 17.71611,-2.57959c1.13437,-0.06182 1.49033,-0.85723 2.03262,-1.75254z" fill="#032e52"/><path d="M110.24209,161.57666c0.4248,-0.32754 0.68555,-0.66094 1.25977,-0.60615c1.6708,0.15937 41.63877,20.92881 41.80225,21.17578c0.40576,0.61289 0.49277,1.3626 0.62168,2.07334c0.35303,1.61953 1.11006,5.0666 0.01904,6.2168c-3.65625,3.85459 -12.41221,6.87305 -16.47803,9.99053c-1.01777,0.43477 -2.12549,0.84785 -3.24346,0.87803c-1.379,0.0375 -2.64023,-0.42803 -3.89033,-0.95391c-4.21289,-1.77187 -39.51973,-19.36289 -41.02471,-20.84912c-1.00752,-0.99463 -0.98877,-2.04082 -1.03125,-3.36475l1.45166,0.59443c3.19277,0.97354 8.0083,3.50127 11.40439,4.80059c7.19443,4.26797 14.45918,7.88672 21.9709,11.52129c2.68184,1.29785 7.28555,4.17803 9.76084,5.09004l2.43076,-1.59756c1.39746,-0.57627 5.27578,-3.1459 7.1707,-4.04648c2.44424,-1.38867 5.17822,-2.35518 7.56973,-3.82207c1.49238,-0.91582 1.87998,-1.16748 1.29844,-2.68125c-3.02725,-0.80332 -11.58662,6.06328 -13.57998,5.72959c-3.77402,-0.63164 -11.27021,-3.87158 -10.87588,-8.70937c1.2665,-0.2165 3.24316,1.66816 4.69453,1.17393l-0.35215,-0.43066c-2.88193,-0.09756 -17.0042,-7.40508 -19.99072,-9.96357c-0.58037,-1.93271 -0.67266,-2.68184 -0.79395,-4.62744c0.21211,-2.58047 0.99873,-5.11787 -1.50996,-6.51855z" fill="url(#color-2)"/><path d="M112.34209,164.23799c3.35244,1.096 18.49775,8.74072 20.84121,11.00508c0.14941,2.46797 0.19395,5.10088 -0.24873,7.53457c-4.10098,-0.82588 -17.05928,-7.75693 -20.39092,-10.62832c-0.32812,-2.80811 -0.40635,-5.10439 -0.20156,-7.91133z" fill="#021f3a"/><path d="M100.23457,155.92412c1.93887,0.58359 8.95928,4.06406 10.00752,5.65254l-1.31572,1.07344c-4.89932,2.92852 -18.03926,8.82744 -20.83418,12.88301c-1.13057,-2.30625 -11.27139,-6.21035 -15.25635,-12.36943c2.99619,-0.50039 4.92773,-1.8876 7.65,-2.90742c6.07148,-2.27432 11.44688,-2.2374 17.71611,-2.57959c1.13437,-0.06182 1.49033,-0.85723 2.03262,-1.75254z" fill="#b5b2b4"/><path d="M101.13311,181.53223c-1.829,-2.71992 -7.39482,-1.91396 -7.71738,-5.40146c0.49834,-1.08633 0.20654,-0.86367 1.03154,-1.19092c1.24951,0.45322 3.78105,2.96016 5.67744,3.93486c3.76729,1.93564 34.36172,16.4001 35.1709,17.67129l-2.43076,1.59756c-2.47529,-0.91201 -7.079,-3.79219 -9.76084,-5.09004c-7.51172,-3.63457 -14.77646,-7.25332 -21.9709,-11.52129z" fill="#1a5074"/><path d="M108.92637,162.6501c2.50869,1.40068 1.72207,3.93809 1.50996,6.51855c-0.29648,-1.83896 -0.25752,-3.17139 -0.25313,-5.01855c-5.60068,2.18145 -14.64053,7.3834 -20.02793,10.6418c-0.30293,0.1834 -0.39316,1.50615 -0.42656,1.93975l-1.45166,-0.59443l-0.18486,-0.6041c2.79492,-4.05557 15.93486,-9.95449 20.83418,-12.88301z" fill="#021f3a"/><path d="M62.09971,37.33711c9.18926,-5.54385 10.904,-2.21572 19.6292,2.00332c1.93096,0.93369 3.87832,1.98486 5.7917,2.96016l43.35557,22.49355c9.63369,4.99629 19.65557,9.67705 29.1835,14.96777c3.1793,1.76572 6.72217,3.2417 9.77842,5.15889c0.00967,3.0624 5.08535,3.54844 6.97002,5.32471l2.01592,1.35498l0.27598,0.77109c-1.06436,0.44443 -2.27607,0.99141 -3.37148,1.30312c-0.30879,0.20654 -0.53086,0.30732 -0.75059,0.59297c-1.21816,-1.45664 -36.40576,-19.12178 -40.48623,-21.23027l-51.74824,-26.98154c-3.89062,-2.06924 -11.77646,-6.60791 -16.12412,-8.62588c-0.42187,-0.196 -1.95381,0.34248 -2.74746,1.04824c-0.51738,-0.05713 -1.3125,-0.78398 -1.77217,-1.14111z" fill="#1e629d"/><path d="M176.80811,90.24551l2.01592,1.35498l0.27598,0.77109c-1.06436,0.44443 -2.27607,0.99141 -3.37148,1.30312c-0.44297,-0.39141 -0.42568,-0.63867 -0.56191,-1.25098c0.2124,-0.98057 0.90469,-1.48125 1.6415,-2.17822z" fill="#4e7896"/><path d="M153.92578,184.21963c0.06973,-0.0167 0.74561,-0.17666 0.74561,-0.17666c5.52686,2.62295 10.87207,5.7832 16.37666,8.51367c-0.47549,3.58096 -1.32598,15.27041 0.84434,18.78545c0.58945,0.95479 3.90264,3.53174 5.10615,4.00635c7.15166,2.8207 26.44277,15.24434 33.35068,15.23848l0.00293,0.29824c-8.84209,-0.13242 -13.08398,0.24141 -20.74629,-5.8043c-1.60225,-0.2335 -3.29238,-0.346 -4.91104,-0.48252c-3.86191,-3.7166 -5.36895,-4.41123 -9.93193,-7.15107c-8.15918,-4.89932 -16.28115,-10.91807 -25.1335,-14.48701c-1.46016,-0.58857 -10.82695,-2.60361 -12.1626,-2.5333c4.06582,-3.11748 12.82178,-6.13594 16.47803,-9.99053c1.09102,-1.1502 0.33398,-4.59727 -0.01904,-6.2168z" fill="#b5b2b4"/><path d="M182.53008,106.60459c1.25537,0.47754 1.85449,1.21641 2.93848,1.79297c2.79229,1.48535 5.59248,3.08086 8.38477,4.54834c1.81348,0.95332 4.7584,3.41162 6.57773,3.2959l-0.68613,2.51689c1.01719,0.86514 2.39619,2.17031 3.69463,1.57939c0.73359,-1.1499 0.57744,-2.97656 0.61172,-4.42324c0.56895,2.14277 0.03486,4.57822 0.59707,6.03428c0.28594,1.17803 0.83965,2.8374 0.54639,3.94893c-0.62812,0.35068 -0.35127,0.29502 -1.06582,0.29355c0.47432,1.28174 0.66445,2.74512 0.09727,4.02275c-0.75469,0.55986 -0.4002,0.40986 -1.38926,0.51533l-3.3835,-0.91582c-1.97783,-1.14551 -16.14492,-9.28916 -16.95557,-9.18486l-0.27158,0.55137c-0.70869,-1.32246 -0.40488,-4.05205 -0.01406,-5.50928c0.20391,-2.72256 0.32783,-4.98047 0.34365,-7.70654z" fill="#1a5074"/><path d="M182.21221,115.67109c1.31924,1.02539 5.58984,2.25146 7.2835,3.13418c4.1748,2.17588 10.77627,4.97871 14.6332,7.38633c0.47432,1.28174 0.66445,2.74512 0.09727,4.02275c-0.75469,0.55986 -0.4002,0.40986 -1.38926,0.51533l-3.3835,-0.91582c-1.97783,-1.14551 -16.14492,-9.28916 -16.95557,-9.18486l-0.27158,0.55137c-0.70869,-1.32246 -0.40488,-4.05205 -0.01406,-5.50928z" fill="#021f3a"/><path d="M182.53008,106.60459c1.25537,0.47754 1.85449,1.21641 2.93848,1.79297c2.79229,1.48535 5.59248,3.08086 8.38477,4.54834c1.81348,0.95332 4.7584,3.41162 6.57773,3.2959l-0.68613,2.51689l-1.61514,-0.67881c-4.58789,-2.34434 -10.39893,-4.65352 -14.84678,-7.28496c-0.4957,-0.29297 -0.63369,-2.1334 -0.72715,-2.83037z" fill="#5c93cd"/><path d="M204.05127,115.91484c0.56895,2.14277 0.03486,4.57822 0.59707,6.03428c-2.42578,0.35479 -5.70352,-0.3917 -7.23867,-2.44072c0.00469,-0.95156 -0.12949,-0.57129 0.72012,-1.42852l1.61514,0.67881c1.01719,0.86514 2.39619,2.17031 3.69463,1.57939c0.73359,-1.1499 0.57744,-2.97656 0.61172,-4.42324z" fill="#01356a"/><path d="M182.22627,121.18037l0.27158,-0.55137c0.81064,-0.1043 14.97773,8.03936 16.95557,9.18486l3.3835,0.91582l-0.05127,0.13447c1.8876,0.88594 1.72764,1.32363 2.18027,3.37324l0.01611,0.18838c0.1998,2.10205 1.21553,4.32188 0.00557,5.95811c0.15996,2.35781 0.14941,5.32676 0.0958,7.70771l-0.78838,-0.58184c0.01172,-2.99268 -6.06328,-5.94609 -8.32324,-7.45459c-3.13828,-2.09502 -6.27656,-4.24453 -9.46758,-6.26016c-1.51318,-0.66445 -2.70674,-1.89492 -4.2501,-2.04727l0.04043,-1.47422c-0.04746,-3.04277 0.11484,-6.05273 -0.06826,-9.09316z" fill="#01356a"/><path d="M182.29453,130.27354c2.39443,0.11104 8.99795,4.45869 11.95986,5.77031c3.17813,1.40742 7.95703,2.9373 10.7332,4.34004c0.15996,2.35781 0.14941,5.32676 0.0958,7.70771l-0.78838,-0.58184c0.01172,-2.99268 -6.06328,-5.94609 -8.32324,-7.45459c-3.13828,-2.09502 -6.27656,-4.24453 -9.46758,-6.26016c-1.51318,-0.66445 -2.70674,-1.89492 -4.2501,-2.04727z" fill="#020e26"/><path d="M182.22627,121.18037l0.27158,-0.55137c0.81064,-0.1043 14.97773,8.03936 16.95557,9.18486c0.02139,0.40488 -0.16758,1.33213 -0.24316,1.77422l-0.41924,0.21885c-4.36992,-1.2832 -10.57969,-6.80537 -15.44678,-8.13457c-0.82939,-0.22646 -0.91582,-1.64473 -1.11797,-2.49199z" fill="#1e629d"/><path d="M202.78564,130.86416c1.8876,0.88594 1.72764,1.32363 2.18027,3.37324c-0.12598,0.35684 -0.32637,0.58799 -0.54814,0.89385l-0.77051,0.08555c-1.54189,-0.59238 -2.64492,-1.7502 -2.47441,-3.50332c0.62314,-0.84258 0.36885,-0.59121 1.61279,-0.84932z" fill="#80b6d7"/><path d="M178.82402,91.60049l0.86338,-1.31367c0.14121,0.14297 1.06553,1.09541 1.15166,1.1458l1.54863,2.50576c-0.11484,1.64531 -0.08145,11.15596 0.14238,12.66621l0.02578,1.35996c-0.01582,2.72607 -0.13975,4.98398 -0.34365,7.70654c-0.39082,1.45723 -0.69463,4.18682 0.01406,5.50928c0.18311,3.04043 0.0208,6.05039 0.06826,9.09316l-0.04043,1.47422c1.54336,0.15234 2.73691,1.38281 4.2501,2.04727c3.19102,2.01563 6.3293,4.16514 9.46758,6.26016c2.25996,1.5085 8.33496,4.46191 8.32324,7.45459l0.78838,0.58184c0.11865,0.89619 0.48105,1.75869 -0.28799,2.39678c-5.8585,-2.17441 -11.31826,-5.03818 -16.80762,-7.99131c-1.56123,-0.83994 -3.98291,-2.53945 -5.53594,-2.94521c-0.25781,1.47832 -0.22969,5.26582 -0.16523,6.90322l0.00937,25.04121c-0.00293,4.4751 0.15029,9.24756 -0.39697,13.6834c-0.25254,2.04756 -1.72295,3.25137 -3.3917,4.27734l0.05361,-0.44795c3.39551,-2.38477 3.18545,-4.2542 3.21826,-8.00537c0.12773,-14.55908 -0.24697,-29.12109 0.07852,-43.696c-0.07793,-6.40225 -0.28887,-12.88594 -0.34834,-19.27148c-0.03633,-3.90059 1.3207,-20.41758 -0.21885,-22.99922c-0.59414,0.48252 -1.08721,3.28447 -1.05791,4.08223c0.54258,14.84385 -1.00078,29.76738 -1.22256,44.6291c-0.13682,3.39785 0.86016,7.36025 0.7793,10.68398c-0.22207,9.10195 0.78516,18.80156 0.23057,27.80215c-0.42715,-1.67021 -0.55781,-8.92852 -0.57891,-11.13896c-0.45176,-8.79316 -0.10957,-19.62949 -0.9126,-28.22021c-0.70986,-7.59639 3.09492,-45.57568 0.57158,-50.50371z" fill="#020e26"/><path d="M186.5042,133.79502c3.19102,2.01563 6.3293,4.16514 9.46758,6.26016c2.25996,1.5085 8.33496,4.46191 8.32324,7.45459c-3.11455,-1.14697 -16.16162,-5.66895 -18.00176,-8.09561c1.70332,-0.81855 -0.30527,-2.78232 0.03486,-4.10859c0.14092,-0.54932 0.14326,-0.94688 0.17607,-1.51055z" fill="#021f3a"/><path d="M182.2541,131.74775c1.54336,0.15234 2.73691,1.38281 4.2501,2.04727c-0.03281,0.56367 -0.03516,0.96123 -0.17607,1.51055c-0.34014,1.32627 1.66846,3.29004 -0.03486,4.10859c-4.74111,-2.25527 -3.88213,-2.57373 -4.03916,-7.66641z" fill="#032e52"/><path d="M63.87188,38.47822c0.79365,-0.70576 2.32559,-1.24424 2.74746,-1.04824c4.34766,2.01797 12.2335,6.55664 16.12412,8.62588l51.74824,26.98154c4.08047,2.1085 39.26807,19.77363 40.48623,21.23027l-0.10371,1.84834c-1.26416,0.17461 -0.78984,0.21152 -1.9623,-0.2959c-1.31396,-1.94648 -17.15625,-9.6627 -20.1709,-11.23154l-49.26504,-25.45107c-7.44756,-3.88154 -14.87256,-7.80674 -22.27441,-11.775c-5.44629,-2.93086 -11.68623,-6.45088 -17.32969,-8.88428z" fill="#5c93cd"/><path d="M262.47129,198.88887c1.38662,0.19541 2.0165,0.06182 3.04512,0.84141c0.29941,3.81152 -9.26514,9.80273 -11.86904,12.17607c-5.89424,5.37246 -12.98701,8.91797 -19.93359,12.73564c-10.63916,6.62637 -10.98955,6.5168 -23.36162,6.24316l-0.00293,-0.29824c2.08975,-0.02227 3.45264,0.01318 5.34111,-0.94072c3.33867,-1.68604 6.61318,-3.62314 9.85078,-5.49727c6.66973,-3.88594 13.30693,-7.82783 19.91045,-11.8251c4.57148,-2.71699 10.01982,-5.55557 14.31592,-8.6502c1.25771,-0.90557 2.17588,-3.30293 2.70381,-4.78477z" fill="url(#color-3)"/><path d="M172.91191,95.82012c1.17246,0.50742 0.69814,0.47051 1.9623,0.2959c0.61582,1.86797 0.28916,7.46396 0.34102,9.77373c0.3041,13.55068 -0.83027,27.10342 -0.52295,40.62246c0.00674,0.29766 -0.04541,2.62412 -0.04277,2.63877c-0.5332,-5.33174 -0.49043,-10.09951 -0.25928,-14.95811c0.22236,-4.66611 1.39482,-30.64482 -0.04043,-33.33135c-0.76641,-0.36621 -0.98262,-0.6375 -1.56416,-1.22285c-0.52764,3.16934 0.21387,25.29697 -0.525,26.1832c0.24111,-5.14746 -0.56777,-27.18984 0.65127,-30.00176z" fill="#1a5074"/><path d="M67.15107,46.98369c3.01963,1.38281 7.12646,3.74766 10.21494,5.32529l21.41807,10.91719l45.47109,23.28486c7.27793,3.71719 16.66758,8.97803 23.96338,12.14121c0.23584,5.84854 0.00234,13.229 -0.02051,19.18857c0.05977,11.77764 0.01523,23.55557 -0.13359,35.33232l0.05156,15.69609c0.01641,3.14736 0.18135,8.03408 -0.404,10.99922c-2.79785,-1.11943 -5.96074,-2.98008 -8.72871,-4.27354c-6.72012,-3.14062 -13.22812,-6.6873 -19.78477,-10.16074l-37.64502,-19.52168l-24.52031,-12.42012c-2.62236,-1.35762 -7.94619,-3.87275 -10.03916,-5.45742c-0.53437,-8.94111 -0.05625,-21.99668 -0.03076,-31.17686c-0.10605,-16.6251 -0.04336,-33.25078 0.18779,-49.87441z" fill="url(#color-4)"/><path d="M118.22813,159.00586c-0.67588,-1.66729 -8.4416,-4.55039 -10.57119,-6.24082l0.2502,-0.22324c2.53066,0.44795 5.54707,3.14385 7.87354,3.19424c0.85371,0.09287 1.85713,0.79072 2.63291,1.21318c11.23184,6.11514 22.76279,11.64404 34.03535,17.6918c4.08662,2.19258 8.98477,3.47871 12.87451,6.16758c1.43438,0.91758 2.81279,0.36826 3.86865,2.45039l-0.38291,0.53877c-5.14541,-0.0501 -28.56738,-14.26553 -35.12402,-16.73936c-1.30957,-0.49424 -14.8459,-7.43613 -15.45703,-8.05254z" fill="#124468"/><path d="M118.22813,159.00586c-5.6373,-2.51836 -11.06924,-6.35684 -16.46631,-9.15264l-22.875,-11.7252c-2.05254,-1.04297 -11.72168,-5.27812 -12.47842,-7.16191l0.49541,-0.18076c4.23691,0.99053 21.07822,10.52051 25.9667,13.01895c7.16484,3.66152 15.81914,8.0748 22.91016,11.93174c-2.32646,-0.05039 -5.34287,-2.74629 -7.87354,-3.19424l-0.2502,0.22324c2.12959,1.69043 9.89531,4.57354 10.57119,6.24082z" fill="#1a5074"/><path d="M17.80966,203.09619c-0.72334,-4.0623 -0.63524,-7.42354 3.38974,-9.63105c9.48527,-5.20049 18.87463,-10.56328 28.17785,-16.08398c1.40303,-0.83232 5.38301,-3.12334 6.95068,-2.71523c4.85303,1.26357 9.31582,4.30928 13.83428,6.55459l34.32891,17.29541c1.36758,0.6583 5.64551,2.4624 6.69639,3.24258c1.71855,0.85518 3.26191,1.63096 4.92832,2.58838c1.96172,0.82002 8.36279,4.28877 10.69512,5.43721c2.42139,1.19238 11.44951,5.40322 13.02891,6.48281c2.81426,1.34238 5.6168,2.70908 8.40762,4.10039c7.74521,3.29355 3.56982,3.38555 6.05654,9.37881l-0.70723,0.9293c-0.2877,1.7001 -0.4582,2.55205 -0.39229,4.31191c-0.59678,0.97588 -4.84512,3.48105 -6.21123,4.70654c-0.20654,-2.95869 -3.77285,-1.73584 -5.95195,-1.43232c-0.2373,0.11924 -0.52412,0.29443 -0.77051,0.33398c-3.3583,3.22324 -11.14717,8.38008 -15.66885,8.84385c-1.45576,1.68955 -8.27461,4.79326 -10.60898,4.31074c-6.48223,-1.33945 -12.14326,-4.87939 -17.97568,-7.7877l-27.65098,-13.87676l-29.80752,-15.11074c-3.96006,-2.02764 -18.7527,-8.78789 -20.74913,-11.87871zM106.19912,207.84639c1.604,0.94805 1.93564,0.74385 3.18223,1.32715c0.80127,0.9583 1.15283,1.23516 2.22861,0.72598c-0.04922,-1.37725 -1.70244,-0.93486 -2.02148,-1.49854c-0.65332,-1.15459 -0.72187,-1.42881 -1.87324,-2.12637z" fill="#124468"/><path d="M107.71523,206.27461c1.15137,0.69756 1.21992,0.97178 1.87324,2.12637c0.31904,0.56367 1.97227,0.12129 2.02148,1.49854c-1.07578,0.50918 -1.42734,0.23232 -2.22861,-0.72598c-1.24658,-0.5833 -1.57822,-0.3791 -3.18223,-1.32715z" fill-opacity="0.98824" fill="#1a5074"/><path d="M19.58481,198.63779c0.04567,-0.99609 0.23344,-1.83223 1.01921,-2.49521c1.24104,-0.33926 1.84187,-0.01436 3.06445,0.36709c7.62703,2.57314 11.48221,5.46094 18.47127,8.83945c10.18242,4.80586 20.26055,9.82969 30.22705,15.06855c8.81279,4.62393 17.40527,9.34863 26.4791,13.51084c2.78467,1.27734 5.42402,2.82832 8.30215,4.08633c1.61895,1.34238 6.38789,4.38516 8.43398,3.27451c10.1001,-5.48232 20.63643,-11.15215 30.32871,-17.279c1.51348,-0.30615 1.72119,-1.546 2.34727,-1.23867c0.99521,0.48867 1.40654,1.44316 2.9543,1.24775l-1.12734,-0.93984c-0.97793,-1.27148 -1.15898,-1.22168 -2.6959,-1.86504l-0.05068,-0.35596l0.90908,-0.49131c7.74521,3.29355 3.56982,3.38555 6.05654,9.37881l-0.70723,0.9293c-0.2877,1.7001 -0.4582,2.55205 -0.39229,4.31191c-0.59678,0.97588 -4.84512,3.48105 -6.21123,4.70654c-0.20654,-2.95869 -3.77285,-1.73584 -5.95195,-1.43232c-0.2373,0.11924 -0.52412,0.29443 -0.77051,0.33398c-3.3583,3.22324 -11.14717,8.38008 -15.66885,8.84385c-1.45576,1.68955 -8.27461,4.79326 -10.60898,4.31074c-6.48223,-1.33945 -12.14326,-4.87939 -17.97568,-7.7877l-27.65098,-13.87676l-29.80752,-15.11074c-3.96006,-2.02764 -18.7527,-8.78789 -20.74913,-11.87871c0.22321,-2.0751 -0.46734,-3.77373 0.47522,-5.01416z" fill="#000106"/><path d="M19.58481,198.63779c0.04567,-0.99609 0.23344,-1.83223 1.01921,-2.49521c1.24104,-0.33926 1.84187,-0.01436 3.06445,0.36709c7.62703,2.57314 11.48221,5.46094 18.47127,8.83945c10.18242,4.80586 20.26055,9.82969 30.22705,15.06855c8.81279,4.62393 17.40527,9.34863 26.4791,13.51084c2.78467,1.27734 5.42402,2.82832 8.30215,4.08633c1.61895,1.34238 6.38789,4.38516 8.43398,3.27451c10.1001,-5.48232 20.63643,-11.15215 30.32871,-17.279c1.51348,-0.30615 1.72119,-1.546 2.34727,-1.23867c0.99521,0.48867 1.40654,1.44316 2.9543,1.24775c-0.85137,3.27246 -32.85498,19.55596 -37.28027,24.19951c-4.88848,-3.9999 -14.24766,-7.61104 -19.99951,-10.47773c-8.80195,-4.38662 -17.11084,-9.27275 -25.89639,-13.70039l-18.49922,-9.42305c-5.25527,-2.63701 -7.98984,-3.03486 -13.14023,-7.02129c-4.49326,-1.90254 -7.11765,-3.5083 -11.22302,-6.04482z" fill="#1a5074"/><path d="M141.04131,238.26152c3.83701,-2.89512 8.78965,-4.46631 12.55547,-7.58613c-0.2877,1.7001 -0.4582,2.55205 -0.39229,4.31191c-0.59678,0.97588 -4.84512,3.48105 -6.21123,4.70654c-0.20654,-2.95869 -3.77285,-1.73584 -5.95195,-1.43232z" fill="#b5b2b4"/><path d="M124.60195,247.43936c0.21914,-0.32871 1.55332,-0.99258 2.05635,-1.34238c5.04287,-3.50947 7.75254,-5.4375 13.6125,-7.50146c-3.3583,3.22324 -11.14717,8.38008 -15.66885,8.84385z" fill="#777e82"/><path d="M48.66064,198.43623c1.02861,-1.23281 3.29941,-1.98018 4.89229,-2.66396c4.60781,2.05254 8.85205,4.41299 13.33945,6.67793c3.68232,1.85889 7.45957,3.5001 11.13516,5.40264l1.49297,0.84697l37.90225,19.44463c1.16924,0.60879 9.11748,4.34912 9.4418,4.87031c-1.53691,1.27588 -3.79541,2.11611 -5.6417,2.85557c-3.53818,-2.93525 -9.79717,-6.03457 -14.10381,-7.72207c-2.53301,-0.52354 -10.95176,-6.32959 -13.91455,-7.65469c-13.48184,-6.03018 -26.40029,-13.21143 -39.75205,-19.49912c-1.60283,-0.75498 -3.23496,-1.70742 -4.7918,-2.5582z" fill="#124468"/><path d="M78.02754,207.85283l1.49297,0.84697c-0.78662,0.55547 -1.98896,1.33535 -2.93525,1.37813l-0.0501,-0.48076c0.53262,-0.75879 0.85518,-1.08428 1.49238,-1.74434z" fill="#01356a"/><path d="M111.61816,217.2293c0.71865,0.67969 1.46982,1.04912 2.3291,1.5334c1.6749,0.63984 2.36133,0.8959 4.1499,1.25098l0.11221,-0.06094c0.5001,0.15791 0.80742,0.075 1.3251,0.01348c-0.60234,-0.629 -1.0793,-1.02656 -1.74199,-1.58379c2.86611,1.17715 5.13105,2.77324 7.8208,4.12734c3.40664,1.71533 6.2625,3.09668 9.54141,5.06836c1.99043,-0.91084 3.19072,-1.52461 4.87324,-3.04365c1.10977,-0.40195 1.10596,-1.52871 2.84092,-1.80059c1.03418,0.27334 2.40557,0.48193 3.04189,1.27646c-9.69229,6.12686 -20.22861,11.79668 -30.32871,17.279c-2.04609,1.11064 -6.81504,-1.93213 -8.43398,-3.27451c0.19336,-0.50391 0.1916,-0.38701 0.66006,-0.78486c0.95654,-0.64922 2.83008,-2.9127 3.55459,-3.87187l-0.30234,-0.50654l0.32461,-0.42598l-0.12012,-0.46406c-1.53662,-1.23516 -3.91289,-1.92451 -5.80312,-2.54766c0.39961,-0.74209 0.88975,-0.87744 1.65732,-1.26563c4.30664,1.6875 10.56563,4.78682 14.10381,7.72207c1.84629,-0.73945 4.10479,-1.57969 5.6417,-2.85557c0.27334,-0.91582 0.98555,-0.99844 1.77861,-1.32715c-0.67412,-0.28213 -2.61885,-1.75254 -3.86162,-2.31094c-5.36748,-2.41201 -10.52256,-5.04082 -15.73682,-7.75576l-0.46758,-1.1332c0.07412,-1.13115 1.82197,-2.13955 3.04102,-3.2584z" fill="url(#color-5)"/><path d="M111.61816,217.2293c0.71865,0.67969 1.46982,1.04912 2.3291,1.5334c1.6749,0.63984 2.36133,0.8959 4.1499,1.25098c0.43447,0.63369 0.54727,0.94219 0.69902,1.69482c4.11387,1.69131 10.18975,5.06631 14.85938,7.18154c-1.90371,1.3125 -2.91035,1.8 -5.0124,2.79756c-0.67412,-0.28213 -2.61885,-1.75254 -3.86162,-2.31094c-5.36748,-2.41201 -10.52256,-5.04082 -15.73682,-7.75576l-0.46758,-1.1332c0.07412,-1.13115 1.82197,-2.13955 3.04102,-3.2584z" fill="#1a5074"/><path d="M111.61816,217.2293c0.71865,0.67969 1.46982,1.04912 2.3291,1.5334c-2.56113,0.52354 -2.9584,0.62842 -5.37012,1.725c0.07412,-1.13115 1.82197,-2.13955 3.04102,-3.2584z" fill="#032e52"/><path d="M111.3627,233.35811c2.11904,-0.80127 6.4418,2.15947 8.18174,3.46084c-1.86621,1.20322 -3.18809,2.01563 -5.26406,2.85176c-1.44521,-0.4582 -5.10264,-1.79063 -6.47227,-2.44072c0.95654,-0.64922 2.83008,-2.9127 3.55459,-3.87187z" fill="#1a5074"/><path d="M23.66848,196.50967c2.62661,-2.42725 9.14637,1.81025 11.88855,3.28008c11.48877,6.1585 23.40205,11.26699 34.93037,17.39121c7.30459,3.88037 14.70381,7.96611 22.12295,11.61709c0.61787,0.25781 1.05762,0.42598 1.64063,0.77227c1.51494,0.69375 3.66855,1.61631 5.06338,2.40674c1.1335,0.32637 1.09424,0.12627 1.75518,0.89531l0.20391,1.19736c0.60674,-1.91074 2.80693,-3.0416 4.18828,-4.65586c1.89023,0.62314 4.2665,1.3125 5.80312,2.54766l0.12012,0.46406l-0.32461,0.42598l0.30234,0.50654c-0.72451,0.95918 -2.59805,3.22266 -3.55459,3.87187c-0.46846,0.39785 -0.4667,0.28096 -0.66006,0.78486c-2.87812,-1.25801 -5.51748,-2.80898 -8.30215,-4.08633c-9.07383,-4.16221 -17.66631,-8.88691 -26.4791,-13.51084c-9.9665,-5.23887 -20.04463,-10.2627 -30.22705,-15.06855c-6.98906,-3.37852 -10.84424,-6.26631 -18.47127,-8.83945z" fill="#000106"/><path d="M105.46172,229.41387c1.89023,0.62314 4.2665,1.3125 5.80312,2.54766l0.12012,0.46406l-0.32461,0.42598c-2.00713,0.57246 -3.15293,1.3957 -4.79531,2.68008c-1.93271,-0.84111 -2.94141,-1.02275 -4.9916,-1.46191c0.60674,-1.91074 2.80693,-3.0416 4.18828,-4.65586z" fill="#1a5074"/><path d="M42.12041,200.04521c0.87627,-0.3999 2.15742,-0.84697 2.61914,-1.64063c-0.37002,-2.39268 -7.69658,-3.47344 -10.92803,-6.09375l0.20391,-0.68496l-0.43447,0.38643l0.18164,-0.34512c3.37383,-0.41543 7.57529,2.90039 10.1918,4.75312c2.3874,1.69043 2.10937,1.13145 4.70625,2.01592c1.55684,0.85078 3.18896,1.80322 4.7918,2.5582c13.35176,6.2877 26.27021,13.46895 39.75205,19.49912c2.96279,1.3251 11.38154,7.13115 13.91455,7.65469c-0.76758,0.38818 -1.25771,0.52354 -1.65732,1.26563c-1.38135,1.61426 -3.58154,2.74512 -4.18828,4.65586l-0.20391,-1.19736c-0.66094,-0.76904 -0.62168,-0.56895 -1.75518,-0.89531c-1.39482,-0.79043 -3.54844,-1.71299 -5.06338,-2.40674c-0.58301,-0.34629 -1.02275,-0.51445 -1.64062,-0.77227c1.68662,-1.61455 3.42627,-2.19873 4.96846,-3.61611c-7.68574,-4.44492 -14.41318,-7.05205 -22.1373,-11.03936l-18.52471,-9.44648c-2.96016,-1.51582 -7.83223,-4.24131 -10.72588,-5.3458c-1.88936,0.67881 -3.97148,2.32266 -5.24795,2.40352l-0.29824,-0.33691c0.5918,-1.03389 0.38262,-0.72012 1.47568,-1.37168z" fill="#020e26"/><path d="M97.57881,225.18193c1.35146,0.51387 1.6415,1.22695 2.70557,1.55332c1.95586,0.55576 3.3627,1.26973 5.19521,2.13223c-1.38311,0.65771 -5.28779,2.94229 -6.16523,3.10957c-1.39482,-0.79043 -3.54844,-1.71299 -5.06338,-2.40674c-0.58301,-0.34629 -1.02275,-0.51445 -1.64062,-0.77227c1.68662,-1.61455 3.42627,-2.19873 4.96846,-3.61611z" fill="#1a5074"/><path d="M97.57881,225.18193c1.35146,0.51387 1.6415,1.22695 2.70557,1.55332c-1.97959,0.19863 -4.92861,1.05088 -6.0334,2.83506c-0.58301,-0.34629 -1.02275,-0.51445 -1.64062,-0.77227c1.68662,-1.61455 3.42627,-2.19873 4.96846,-3.61611z" fill="#021f3a"/><path d="M88.22842,201.70576l-0.4292,-0.52061c0.9583,-1.15342 1.51113,-0.62725 1.4666,-1.51377c-3.54551,-2.67334 -12.24639,-5.0502 -16.44814,-7.771c-4.18447,-2.70937 -9.04658,-5.3833 -13.49385,-7.56504c-2.87109,-1.21465 -6.61875,-1.36172 -9.32871,-2.67803c0.4957,-0.3457 6.54668,-1.28408 6.90352,-1.16719c3.70166,1.21201 6.13945,3.51855 10.17627,4.44668c0.85107,1.1291 3.2543,3.54902 4.78271,3.37764c3.99023,-0.68672 4.11797,1.82314 6.63135,3.21416c1.65,0.91318 5.40469,2.35605 6.98936,3.13271c2.2459,1.10098 19.57969,9.87188 21.21709,9.77959l1.89258,0.929c-0.33926,0.30703 -0.54053,0.44648 -0.76055,0.85664l-0.11221,0.04805l-1.51611,1.57178c-0.71602,0.13916 -1.13496,0.57744 -1.72178,1.04092l-2.54092,-1.03857c-0.71396,-0.37002 -0.90176,-0.55488 -1.50791,-1.08984c-1.84863,-1.0002 -5.1501,-1.88262 -5.5377,-2.27988c0.19131,-1.00635 0.68613,-1.1165 1.65352,-1.96934c-3.7166,-1.0415 -4.69131,-1.82373 -8.31592,-0.80391z" fill="#021637"/><path d="M105.12598,205.42969c0.51797,-0.35684 1.03301,-0.66299 1.56943,-0.98877l1.89258,0.929c-0.33926,0.30703 -0.54053,0.44648 -0.76055,0.85664l-0.11221,0.04805l-1.51611,1.57178c-0.71602,0.13916 -1.13496,0.57744 -1.72178,1.04092l-2.54092,-1.03857c0.1626,-0.27422 2.55352,-1.88994 3.18955,-2.41904z" fill="#020e26"/><path d="M100.42852,206.75889l0.45176,-0.33223c0.13623,-0.81504 0.12891,-1.03799 0.66299,-1.65176c1.31953,-0.3208 2.1375,0.19131 3.58271,0.65479c-0.63604,0.5291 -3.02695,2.14482 -3.18955,2.41904c-0.71396,-0.37002 -0.90176,-0.55488 -1.50791,-1.08984z" fill="#032e52"/><path d="M40.88789,187.48564c4.90547,1.81699 9.57334,5.04727 14.37334,7.23604c18.24756,8.32061 35.70645,18.2291 53.7835,26.89922c5.21426,2.71494 10.36934,5.34375 15.73682,7.75576c1.24277,0.5584 3.1875,2.02881 3.86162,2.31094c-0.79307,0.32871 -1.50527,0.41133 -1.77861,1.32715c-0.32432,-0.52119 -8.27256,-4.26152 -9.4418,-4.87031l-37.90225,-19.44463l-1.49297,-0.84697c-3.67559,-1.90254 -7.45283,-3.54375 -11.13516,-5.40264c-4.4874,-2.26494 -8.73164,-4.62539 -13.33945,-6.67793c-0.78955,-0.16289 -1.13877,-0.60762 -1.74756,-1.16133c-2.52334,-1.4625 -10.32598,-4.49209 -13.56064,-5.74863l0.10166,-0.51064c0.69434,-0.56279 1.65498,-0.67676 2.5415,-0.86602z" fill="url(#color-6)"/><path d="M88.22842,201.70576c3.62461,-1.01982 4.59932,-0.2376 8.31592,0.80391c-0.96738,0.85283 -1.46221,0.96299 -1.65352,1.96934c0.3876,0.39727 3.68906,1.27969 5.5377,2.27988c0.60615,0.53496 0.79395,0.71982 1.50791,1.08984l2.54092,1.03857c0.58682,-0.46348 1.00576,-0.90176 1.72178,-1.04092c1.604,0.94805 1.93564,0.74385 3.18223,1.32715l-0.88799,1.36055c3.98789,1.77363 10.66348,5.72197 13.94619,6.80303c1.16104,0.40576 1.05645,0.43535 1.14492,1.74844c0.31787,0.1541 0.53027,0.29238 0.88359,0.3126c3.10049,0.2918 4.41064,0.51621 6.89854,2.66455c2.57461,1.51436 7.12148,1.43701 8.66133,2.47178c-1.68252,1.51904 -2.88281,2.13281 -4.87324,3.04365c-3.27891,-1.97168 -6.13477,-3.35303 -9.54141,-5.06836c-2.68975,-1.3541 -4.95469,-2.9502 -7.8208,-4.12734c-0.64951,-0.77959 -3.08145,-1.88701 -4.06846,-2.33965c-8.98477,-4.12061 -17.6332,-8.6332 -26.38652,-13.2085z" fill="#1a5074"/><path d="M104.47734,208.8873c0.58682,-0.46348 1.00576,-0.90176 1.72178,-1.04092c1.604,0.94805 1.93564,0.74385 3.18223,1.32715l-0.88799,1.36055c-1.02891,-0.48369 -2.97832,-1.50498 -4.01602,-1.64678z" fill="#021637"/><path d="M44.90127,185.19199c2.60186,-1.18887 3.39814,-1.71621 6.25576,-0.6041c3.16172,1.23047 5.6959,3.27891 8.73662,4.84277c5.01621,2.58047 10.20967,4.92041 15.23086,7.45811c4.33418,2.19053 7.7291,4.03945 12.21299,5.94551c8.75332,4.57529 17.40176,9.08789 26.38652,13.2085c0.98701,0.45264 3.41895,1.56006 4.06846,2.33965c0.6627,0.55723 1.13965,0.95479 1.74199,1.58379c-0.51768,0.06152 -0.825,0.14443 -1.3251,-0.01348l-0.11221,0.06094c-1.78857,-0.35508 -2.475,-0.61113 -4.1499,-1.25098c-0.85928,-0.48428 -1.61045,-0.85371 -2.3291,-1.5334c-0.96094,-0.50537 -2.02617,-0.92637 -3.01963,-1.37959c-9.64277,-4.39834 -18.96826,-9.40137 -28.43437,-14.17529l-17.74863,-8.9291c-3.48838,-1.79648 -6.75703,-3.7541 -10.3667,-5.30303c-2.57666,-1.10596 -4.54512,-1.41709 -7.14756,-2.25029z" fill="#020e26"/><path d="M108.58799,205.36992c4.93066,2.32441 13.04004,7.25332 17.41787,8.62354c-1.22549,1.44404 -1.92246,2.28223 -3.56631,3.34365c-3.28271,-1.08105 -9.9583,-5.02939 -13.94619,-6.80303l0.88799,-1.36055c0.80127,0.9583 1.15283,1.23516 2.22861,0.72598c-0.04922,-1.37725 -1.70244,-0.93486 -2.02148,-1.49854c-0.65332,-1.15459 -0.72187,-1.42881 -1.87324,-2.12637l0.11221,-0.04805c0.22002,-0.41016 0.42129,-0.54961 0.76055,-0.85664z" fill="#021f3a"/><path d="M116.11582,204.34688c1.96172,0.82002 8.36279,4.28877 10.69512,5.43721c2.42139,1.19238 11.44951,5.40322 13.02891,6.48281l0.08994,2.04814c-8.03613,-4.6708 -17.19521,-8.40322 -25.44844,-12.66006c0.7125,-0.30264 1.07988,-0.76084 1.63447,-1.30811z" fill="#020e26"/><path d="M126.00586,213.99346c0.52646,0.70459 0.91465,1.36055 1.72705,1.70596c0.86689,0.00352 1.11768,-0.15439 1.68545,0.29736c-1.36289,2.92031 0.99053,2.0707 1.82813,4.7959l0.60117,0.20684l-0.48105,1.06318c-2.48789,-2.14834 -3.79805,-2.37275 -6.89854,-2.66455c-0.35332,-0.02021 -0.56572,-0.1585 -0.88359,-0.3126c-0.08848,-1.31309 0.01611,-1.34268 -1.14492,-1.74844c1.64385,-1.06143 2.34082,-1.89961 3.56631,-3.34365z" fill="#021637"/><path d="M126.00586,213.99346c0.52646,0.70459 0.91465,1.36055 1.72705,1.70596c-1.28643,0.8918 -2.91855,1.47598 -3.58037,2.57432c-0.0123,0.63047 -0.02725,0.59941 0.31553,1.12441c-0.35332,-0.02021 -0.56572,-0.1585 -0.88359,-0.3126c-0.08848,-1.31309 0.01611,-1.34268 -1.14492,-1.74844c1.64385,-1.06143 2.34082,-1.89961 3.56631,-3.34365z" fill="#1a5074"/><path d="M44.82129,198.02607c-2.60449,-1.1209 -11.09443,-3.82998 -11.56816,-6.34277l0.43154,-0.5291c3.75469,-0.73096 9.95156,4.40508 13.0998,6.496c1.73145,-1.03242 3.57305,-1.72471 5.0209,-3.03926c0.60879,0.55371 0.95801,0.99844 1.74756,1.16133c-1.59287,0.68379 -3.86367,1.43115 -4.89229,2.66396c-2.59688,-0.88447 -2.31885,-0.32549 -4.70625,-2.01592c-2.6165,-1.85273 -6.81797,-5.16855 -10.1918,-4.75312l-0.18164,0.34512l0.43447,-0.38643l-0.20391,0.68496c3.23145,2.62031 10.55801,3.70107 10.92803,6.09375c-0.46172,0.79365 -1.74287,1.24072 -2.61914,1.64063c0.73916,-0.92783 1.68721,-1.40947 2.70088,-2.01914z" fill="#032e52"/><path d="M135.18076,219.6208c2.51367,1.68223 4.63535,2.65225 7.68809,3.11309c-1.73496,0.27187 -1.73115,1.39863 -2.84092,1.80059c-1.53984,-1.03477 -6.08672,-0.95742 -8.66133,-2.47178l0.48105,-1.06318z" fill="#020e26"/><path d="M104.49111,198.51592c1.36758,0.6583 5.64551,2.4624 6.69639,3.24258c1.71855,0.85518 3.26191,1.63096 4.92832,2.58838c-0.55459,0.54727 -0.92197,1.00547 -1.63447,1.30811c-1.16982,-0.6249 -2.33525,-1.2583 -3.496,-1.89961c-0.58213,-0.00498 -3.52969,-1.54189 -4.09922,-1.97813c-1.9582,-1.50059 -1.97871,-1.18242 -2.39502,-3.26133z" fill="#020e26"/><path d="M111.1875,201.7585c1.71855,0.85518 3.26191,1.63096 4.92832,2.58838c-0.55459,0.54727 -0.92197,1.00547 -1.63447,1.30811c-1.16982,-0.6249 -2.33525,-1.2583 -3.496,-1.89961l0.07002,-0.55547c-0.66387,-0.34512 -0.74883,-0.36592 -1.26182,-0.89355l0.03721,-0.01201l0.22383,0.05889l0.41895,-0.54697z" fill="#000106"/><path d="M139.83984,216.26689c2.81426,1.34238 5.6168,2.70908 8.40762,4.10039l-0.90908,0.49131l0.05068,0.35596c1.53691,0.64336 1.71797,0.59355 2.6959,1.86504c-3.44648,-1.62979 -6.63867,-3.05625 -10.15518,-4.76455z" fill="#000106"/><path d="M157.86152,233.71523c5.27314,-1.19941 10.08926,-2.15596 15.46611,-0.5127c2.21104,0.39668 4.06348,1.08076 6.18691,1.80088c1.25449,1.3333 2.14805,2.19844 3.59062,3.37441l1.11328,0.9167c6.57627,11.70293 -11.85293,17.88164 -18.87422,22.48359c-7.32305,4.79971 -20.76855,5.55967 -25.72793,-3.06299c-1.08105,-3.56338 -0.95391,-5.02383 -0.07266,-8.65576c0.76084,-2.11113 1.30898,-3.83672 2.87695,-5.51016c0.67939,0.60146 0.79482,0.63545 1.6749,0.87187l1.83662,-2.17998l-0.72832,-1.68281c0.23437,-0.34775 1.42148,-1.49619 1.78945,-1.86445c1.36611,-1.22549 5.61445,-3.73066 6.21123,-4.70654c1.6207,-0.49453 2.9915,-0.91611 4.65703,-1.27207z" fill="url(#color-7)"/><path d="M184.21846,239.29453c6.57627,11.70293 -11.85293,17.88164 -18.87422,22.48359c-7.32305,4.79971 -20.76855,5.55967 -25.72793,-3.06299c0.40898,-0.09639 0.88945,-0.21006 1.4417,-0.34043c5.08564,2.08359 4.66934,4.01045 10.51963,4.03184c7.59697,-0.03398 5.83535,-1.70918 9.25459,-7.68721c5.04229,-8.81484 17.17588,-9.64219 23.38623,-15.4248z" fill="#021f3a"/><path d="M142.42061,244.54922c0.67939,0.60146 0.79482,0.63545 1.6749,0.87187l-0.73594,1.23398c-2.93848,4.61396 -3.39287,9.86338 1.68633,13.30605c1.81494,1.22988 5.01094,1.35762 6.53174,2.44541c-5.85029,-0.02139 -5.43398,-1.94824 -10.51963,-4.03184c-0.55225,0.13037 -1.03271,0.24404 -1.4417,0.34043c-1.08105,-3.56338 -0.95391,-5.02383 -0.07266,-8.65576c0.76084,-2.11113 1.30898,-3.83672 2.87695,-5.51016z" fill="#021637"/><path d="M142.42061,244.54922c0.67939,0.60146 0.79482,0.63545 1.6749,0.87187l-0.73594,1.23398c-2.85703,1.49502 -1.70244,3.31787 -3.81592,3.4043c0.76084,-2.11113 1.30898,-3.83672 2.87695,-5.51016z" fill="#020e26"/><path d="M153.20449,234.9873c1.6207,-0.49453 2.9915,-0.91611 4.65703,-1.27207c-1.28672,1.06553 -2.73486,1.12705 -3.22266,1.82578c0.33076,0.1749 0.57217,0.22295 0.72158,0.49307c-0.49893,0.70371 -1.04707,0.85957 -1.78389,1.25361c-2.78643,1.49033 -5.4208,3.72803 -7.64443,5.95342l-0.72832,-1.68281c0.23437,-0.34775 1.42148,-1.49619 1.78945,-1.86445c1.36611,-1.22549 5.61445,-3.73066 6.21123,-4.70654z" fill="#021f3a"/><path d="M173.32764,233.20254c2.21104,0.39668 4.06348,1.08076 6.18691,1.80088c1.25449,1.3333 2.14805,2.19844 3.59062,3.37441c-2.90479,1.14668 -7.84365,-3.28506 -9.77754,-5.17529z" fill="#000106"/><path d="M147.76055,245.38623c0.58477,-0.02373 1.16953,-0.03574 1.75488,-0.03633c3.5833,0.00732 8.50371,2.69297 3.71279,5.61387c-3.36211,1.36025 -8.4498,-1.5167 -5.46768,-5.57754z" fill="#4e7896"/><path d="M145.20381,241.5583l0.72832,1.68281l-1.83662,2.17998c-0.88008,-0.23643 -0.99551,-0.27041 -1.6749,-0.87187c0.75557,-0.99463 1.89053,-2.08242 2.7832,-2.99092z" fill="#000106"/></g></svg></svg>