<svg id="svg" version="1.1" viewBox="0 0 300 300" width="300" height="300" xmlns="http://www.w3.org/2000/svg"><svg xmlns="http://www.w3.org/2000/svg"><defs><clipPath id="clip-1"><rect x="0" y="0" transform="scale(0.29297,0.29297)" width="1024" height="1024" fill="none"/></clipPath><linearGradient x1="224.92852" y1="175.12646" x2="201.92695" y2="146.26025" gradientUnits="userSpaceOnUse" id="color-1"><stop offset="0" stop-color="#4b7188"/><stop offset="1" stop-color="#d1d5da"/></linearGradient><linearGradient x1="196.62305" y1="226.97021" x2="174.29355" y2="214.05029" gradientUnits="userSpaceOnUse" id="color-2"><stop offset="0" stop-color="#334e55"/><stop offset="1" stop-color="#52697e"/></linearGradient><linearGradient x1="192.13594" y1="194.9877" x2="186.32109" y2="186.73301" gradientUnits="userSpaceOnUse" id="color-3"><stop offset="0" stop-color="#3e515d"/><stop offset="1" stop-color="#637b8a"/></linearGradient><linearGradient x1="216.41807" y1="113.99619" x2="238.97725" y2="112.05498" gradientUnits="userSpaceOnUse" id="color-4"><stop offset="0" stop-color="#22323b"/><stop offset="1" stop-color="#3a535e"/></linearGradient><linearGradient x1="143.26729" y1="238.78564" x2="144.25342" y2="247.77891" gradientUnits="userSpaceOnUse" id="color-5"><stop offset="0" stop-color="#2b4f57"/><stop offset="1" stop-color="#446071"/></linearGradient></defs><g clip-path="url(#clip-1)" fill="none" fill-rule="nonzero" stroke="none" stroke-width="1" stroke-linecap="butt" stroke-linejoin="miter" stroke-miterlimit="10" stroke-dasharray="" stroke-dashoffset="0" font-family="none" font-weight="none" font-size="none" text-anchor="none" style="mix-blend-mode: normal"><path d="M149.504,54.93809c1.14082,0.27598 2.20605,0.75352 3.19541,0.50449c2.43926,-4.48916 6.36709,-26.16533 10.05674,-28.2593c3.09375,-0.58541 15.84727,6.16213 19.2085,7.81037l22.99922,11.27754l18.13506,8.82187c15.86221,7.80029 11.95195,4.58203 8.68857,20.71641c-0.73828,2.25674 -3.95771,13.17012 -3.94189,14.91592l1.56855,0.75703c3.93955,1.72559 10.86855,4.02041 12.54902,8.39063c1.35146,3.51416 -2.3877,17.33115 -2.96162,22.13379c1.85742,0.87715 4.25889,1.93447 6.01729,2.90713c3.40488,1.68486 17.20547,8.14219 19.02656,10.17305c3.19805,2.08916 5.29805,4.87324 6.07822,8.66162c0.48076,2.33467 0.49922,4.90811 0.52471,7.28467c0.0668,6.18662 -0.84873,63.38936 -2.21191,65.43984c-1.9623,2.95254 -4.57734,6.32168 -7.46807,8.42871c-2.30303,1.67871 -5.01826,3.02227 -7.48213,4.45957l-14.42695,8.42227l-29.18848,16.72324c-4.72119,2.7126 -13.45986,8.64521 -18.17549,9.95947c-5.61299,1.56416 -15.37178,-0.46934 -20.48086,-2.82715c-2.74307,-1.23779 -6.52441,-3.8332 -9.13711,-5.40029c-2.66514,-1.48418 -4.26299,-2.10352 -7.13994,-3.14209c-4.26182,2.04463 -8.65957,4.77891 -12.92549,6.47285c-6.10107,-1.61572 -9.04072,-2.96367 -14.69268,-5.70645c-1.62305,1.696 -4.72295,4.21465 -6.68379,5.66777c-4.97139,3.34307 -9.07441,10.82285 -14.63613,13.08369c-0.88594,0.36006 -4.32627,0.95215 -5.41963,1.14551c-5.46357,-2.37744 -10.70449,-6.20186 -16.19707,-8.8793c-12.27861,-5.98506 -24.26104,-12.51416 -36.77842,-18.02461c-5.26523,-2.31826 -10.02539,-4.3585 -14.52275,-7.99395c-1.63916,-1.87969 -2.15801,-3.11074 -2.46152,-5.7123c-0.37295,-3.19453 3.40107,-5.2752 5.42021,-7.4833c5.20957,-5.69707 11.01006,-10.92041 16.23105,-16.61221c1.48184,-1.52051 3.69434,-3.78721 5.2916,-5.08301c0.50186,-0.80391 0.4998,-0.54609 0.4957,-1.36523c-4.24219,-2.46387 -12.74736,-11.03789 -12.90352,-16.22607c-0.61494,-20.42607 -0.22295,-41.02441 -0.01025,-61.46777c0.07441,-7.16221 2.17061,-9.96855 8.22041,-13.4209c12.39141,-7.53691 24.74385,-15.1377 37.05674,-22.80234c7.5334,-4.69482 15.36504,-9.72979 23.09297,-14.07217c7.63594,-4.29053 12.92021,-2.51865 20.58281,-0.12041c0.29326,-2.59482 2.91738,-10.78154 3.82676,-13.59697c1.12998,-3.49717 2.52598,-5.73369 5.86641,-7.29727c2.20518,0.22646 3.68496,0.38877 5.71318,1.33564zM171.25781,205.27031c1.10068,-0.7125 1.72236,-1.07168 1.99805,-2.43193c0.22266,-1.1124 -0.02871,-2.26729 -0.69316,-3.18691c-1.1666,-1.6251 -2.4709,-2.13047 -4.42764,-1.88379c-3.4752,3.18428 -1.73379,7.52549 2.08184,7.55684c0.34775,0.00205 0.69521,-0.01582 1.04092,-0.0542z" fill="#020406"/><path d="M245.01885,124.91396c3.40488,1.68486 17.20547,8.14219 19.02656,10.17305c3.19805,2.08916 5.29805,4.87324 6.07822,8.66162c0.48076,2.33467 0.49922,4.90811 0.52471,7.28467c0.0668,6.18662 -0.84873,63.38936 -2.21191,65.43984c-1.9623,2.95254 -4.57734,6.32168 -7.46807,8.42871c-2.30303,1.67871 -5.01826,3.02227 -7.48213,4.45957l-14.42695,8.42227l-29.18848,16.72324c-4.72119,2.7126 -13.45986,8.64521 -18.17549,9.95947c-5.61299,1.56416 -15.37178,-0.46934 -20.48086,-2.82715c-2.74307,-1.23779 -6.52441,-3.8332 -9.13711,-5.40029c-1.11973,-1.50498 -2.49141,-4.08486 -2.7917,-5.71758c-1.23135,-6.69492 -1.06816,-69.91729 0.86162,-72.82822l1.3377,-1.20117c2.67861,-2.44424 12.74092,-8.25615 16.47275,-10.65234l45.59619,-28.75459c4.6585,-2.88662 9.76875,-5.42842 14.44043,-8.33643c0.84902,-0.1875 1.87441,-3.33486 2.24736,-3.36035c2.03936,-0.14004 2.37773,1.31133 4.77715,-0.47432zM171.25781,205.27031c1.10068,-0.7125 1.72236,-1.07168 1.99805,-2.43193c0.22266,-1.1124 -0.02871,-2.26729 -0.69316,-3.18691c-1.1666,-1.6251 -2.4709,-2.13047 -4.42764,-1.88379c-3.4752,3.18428 -1.73379,7.52549 2.08184,7.55684c0.34775,0.00205 0.69521,-0.01582 1.04092,-0.0542z" fill="#1e313a"/><path d="M245.01885,124.91396c3.40488,1.68486 17.20547,8.14219 19.02656,10.17305c0.70195,2.11289 1.65703,3.18164 2.51924,4.98691l-0.35215,0.3375l0.05596,0.27246c0.15205,0.75996 0.28125,1.13525 -0.03281,1.86357l-0.67441,0.646c-0.99229,-0.09111 -0.61143,0.05215 -1.43145,-0.59004c-0.04717,-0.87246 -0.09727,-0.52148 0.32373,-1.3875c-0.02959,0.00908 -9.00645,5.93203 -9.9832,6.51885l-38.87256,23.61826c-5.3499,3.19863 -15.66914,9.525 -21.15703,11.96924c-2.54941,1.12236 -5.23594,1.90225 -7.98984,2.31914c-9.14326,1.29316 -21.40752,-9.5707 -24.96592,-9.14941c2.67861,-2.44424 12.74092,-8.25615 16.47275,-10.65234l45.59619,-28.75459c4.6585,-2.88662 9.76875,-5.42842 14.44043,-8.33643c0.84902,-0.1875 1.87441,-3.33486 2.24736,-3.36035c2.03936,-0.14004 2.37773,1.31133 4.77715,-0.47432z" fill="#4d6879"/><path d="M161.48496,176.49199c3.5584,-0.42129 15.82266,10.44258 24.96592,9.14941c2.75391,-0.41689 5.44043,-1.19678 7.98984,-2.31914c5.48789,-2.44424 15.80713,-8.77061 21.15703,-11.96924l38.87256,-23.61826c0.97676,-0.58682 9.95361,-6.50977 9.9832,-6.51885c-0.421,0.86602 -0.3709,0.51504 -0.32373,1.3875c0.82002,0.64219 0.43916,0.49893 1.43145,0.59004l0.67441,-0.646c0.31406,-0.72832 0.18486,-1.10361 0.03281,-1.86357l-0.05596,-0.27246l0.35215,-0.3375c1.0998,2.51572 0.36299,2.94756 -1.75078,4.21289c-6.11221,3.65918 -12.22148,7.32305 -18.32051,11.0042c-11.44541,6.97822 -22.93271,13.88701 -34.46133,20.72666c-3.02314,1.78945 -14.73047,9.2417 -17.42637,10.10566c-4.56855,1.74639 -7.20762,2.31943 -12.12656,1.56855c2.175,2.64814 2.5084,3.8127 3.67588,7.02451c-0.11895,0.95039 -0.31875,2.24238 -0.32754,3.16582c0.2792,-1.17422 0.18076,-1.45283 -0.25254,-2.58984c-0.99111,0.8625 -0.59736,1.7373 -1.19092,2.56348l-0.26221,-0.33223c-1.73848,-13.07139 -15.95479,-13.40361 -23.97451,-19.83047z" fill="url(#color-1)"/><path d="M186.15498,194.71641c0.27656,1.84893 0.6627,3.59941 0.90674,5.41611c0.29414,2.18906 0.07295,5.35781 0.39521,7.43965c-0.2458,9.27275 0.16025,19.0084 0.12627,28.30869c-0.01641,4.52812 0.40107,10.66963 -0.12773,15.06738c-0.48252,-1.96729 -0.02168,-5.83477 -0.40986,-6.88975c-4.66348,3.51943 -1.90371,1.50791 -2.97539,6.22119l-0.05977,0.25225c-0.40166,-6.68408 -0.00586,-13.34766 -0.0709,-20.02236c-0.10723,-10.95264 0.47637,-22.05176 0.18223,-32.98594l0.26221,0.33223c0.59355,-0.82617 0.1998,-1.70098 1.19092,-2.56348c0.4333,1.13701 0.53174,1.41562 0.25254,2.58984c0.00879,-0.92344 0.20859,-2.21543 0.32754,-3.16582z" fill="url(#color-2)"/><path d="M182.4791,187.69189c4.91895,0.75088 7.55801,0.17783 12.12656,-1.56855c1.33564,5.93818 -6.62109,9.57363 -7.05264,15.31582c-0.15029,1.9998 0.18281,4.21699 -0.09609,6.13301c-0.32227,-2.08184 -0.10107,-5.25059 -0.39521,-7.43965c-0.24404,-1.8167 -0.63018,-3.56719 -0.90674,-5.41611c-1.16748,-3.21182 -1.50088,-4.37637 -3.67588,-7.02451z" fill="url(#color-3)"/><path d="M184.01045,250.53193l0.05977,-0.25225c1.07168,-4.71328 -1.68809,-2.70176 2.97539,-6.22119c0.38818,1.05498 -0.07266,4.92246 0.40986,6.88975c0.15498,2.09561 -0.29912,8.50635 -2.33789,9.47314l-0.5291,-0.2332c-1.06641,-1.81758 -0.64453,-7.28584 -0.57803,-9.65625z" fill="#354b59"/><path d="M168.13506,197.76768c1.95674,-0.24668 3.26104,0.25869 4.42764,1.88379c0.66445,0.91963 0.91582,2.07451 0.69316,3.18691c-0.27568,1.36025 -0.89736,1.71943 -1.99805,2.43193c-0.3457,0.03838 -0.69316,0.05625 -1.04092,0.0542c-3.81562,-0.03135 -5.55703,-4.37256 -2.08184,-7.55684zM169.59609,203.15449c0.86338,-1.38896 1.05205,-2.96924 -0.24932,-4.17041l-0.93428,-0.27422c-1.09717,2.1627 -1.04443,3.16992 1.18359,4.44463z" fill-opacity="0.98824" fill="#00f300"/><path d="M168.4125,198.70986l0.93428,0.27422c1.30137,1.20117 1.1127,2.78145 0.24932,4.17041c-2.22803,-1.27471 -2.28076,-2.28193 -1.18359,-4.44463z" fill-opacity="0.98824" fill="#98f900"/><path d="M169.6708,245.31328l-0.44941,-0.32607c0.2209,-0.97852 0.02842,-0.61143 0.89443,-1.3708c2.25146,-0.67529 4.97432,1.34854 4.25947,3.8332l-0.43506,0.42627c-0.83115,-0.02754 -0.54434,0.10107 -1.09482,-0.44648c-0.13887,0.17109 -0.54814,0.50039 -0.73564,0.66152c-2.1375,0.24727 -2.29541,-1.0043 -2.43896,-2.77764z" fill="#021110"/><path d="M169.6708,245.31328c2.05488,0.15352 2.04346,0.36152 3.17461,2.11611c-0.13887,0.17109 -0.54814,0.50039 -0.73564,0.66152c-2.1375,0.24727 -2.29541,-1.0043 -2.43896,-2.77764z" fill="#5c6c3e"/><path d="M149.504,54.93809c1.14082,0.27598 2.20605,0.75352 3.19541,0.50449c2.43926,-4.48916 6.36709,-26.16533 10.05674,-28.2593c3.09375,-0.58541 15.84727,6.16213 19.2085,7.81037l22.99922,11.27754l18.13506,8.82187c15.86221,7.80029 11.95195,4.58203 8.68857,20.71641c-0.73828,2.25674 -3.95771,13.17012 -3.94189,14.91592c-0.15059,-0.3082 -0.28154,-0.43975 -0.49102,-0.70869l-0.54844,0.5584c-2.0666,8.7917 -4.93301,17.87783 -6.99404,26.74453c-0.79102,3.40313 -1.91982,7.01104 -2.54297,10.43203c-0.27627,1.22783 -0.84023,3.43213 -0.946,4.61133l-0.39404,0.27803c-0.9501,-0.02812 -7.92305,-3.65215 -9.54932,-4.43994c-12.64482,-6.03369 -25.24365,-12.1626 -37.7959,-18.38643c-5.72695,-2.84326 -20.09062,-10.45283 -25.27295,-11.81514c3.32783,-11.9666 7.04707,-24.95039 10.07988,-36.854c0.24873,-0.52266 0.70547,-2.67598 0.86455,-3.35566c-1.5416,-0.86807 -3.34453,-1.81084 -4.75137,-2.85176z" fill="#f4f3f3"/><path d="M230.40938,73.48682l1.37812,2.32266c-0.73828,2.25674 -3.95771,13.17012 -3.94189,14.91592c-0.15059,-0.3082 -0.28154,-0.43975 -0.49102,-0.70869l-0.54844,0.5584c-0.5335,-2.49814 2.80459,-13.80059 3.60322,-17.08828z" fill="#a7adb2"/><path d="M75.97939,188.40088c0.54756,0.10928 3.61816,0.56807 3.83672,0.67061c15.26338,7.16631 30.22324,14.7 44.85762,23.09971c2.51514,1.44375 6.19219,2.17441 8.88047,3.39785c3.86191,1.77393 7.76895,3.66797 11.77061,5.19258c0.62197,0.23701 1.55098,2.07861 2.77324,2.86699l1.06025,-0.55605c0.23525,0.6876 0.11689,2.02969 0.09023,2.82451c-2.8374,2.34258 -5.50371,4.49648 -8.46299,7.12178c-6.86338,6.08789 -11.47822,11.45684 -17.96309,18.19102c-3.06094,3.17842 -15.69844,19.9002 -20.18965,19.70684c-1.26035,-0.05449 -11.17471,-5.31123 -13.32217,-6.40371l-36.25225,-18.2748c-5.70439,-2.84883 -11.41699,-5.88164 -17.26406,-8.43516c-1.21143,-0.5291 -2.15068,-0.09375 -2.71289,1.05937c-1.63916,-1.87969 -2.15801,-3.11074 -2.46152,-5.7123c-0.37295,-3.19453 3.40107,-5.2752 5.42021,-7.4833c5.20957,-5.69707 11.01006,-10.92041 16.23105,-16.61221c1.48184,-1.52051 3.69434,-3.78721 5.2916,-5.08301l1.47686,0.25605c3.02432,-2.51953 6.029,-5.1208 8.67891,-8.03789c2.71611,-2.63584 5.47002,-5.23242 8.26084,-7.78887z" fill="#f4f3f3"/><path d="M52.27119,209.05459c1.48184,-1.52051 3.69434,-3.78721 5.2916,-5.08301l1.47686,0.25605c-1.77217,1.87383 -4.13584,4.97051 -6.76846,4.82695z" fill="#8c8690"/><path d="M62.44336,219.10225c5.29336,-0.38057 36.46758,18.4207 43.61279,20.98184c0.56133,0.20127 1.63682,0.5918 2.1627,0.87979l0.1459,0.94102c-0.34482,0.11338 -1.41475,0.43359 -1.70186,0.30791c-2.26377,-0.99229 -4.86914,-2.39063 -7.04326,-3.49102c-7.23193,-3.61025 -14.42871,-7.29053 -21.58945,-11.04023c-3.18428,-1.64004 -13.85713,-6.30762 -15.58682,-8.5793z" fill="#e5e5e6"/><path d="M70.42998,212.36836c0.1292,-0.00557 0.2584,-0.01113 0.3876,-0.0167l0.19072,0.00234c3.11367,0.01172 28.55977,14.44307 33.14209,16.66113c2.11172,1.02217 8.00303,3.67676 10.21025,4.8252c0.5332,0.82764 0.3876,0.5417 0.29736,1.67959c-2.5582,-0.24902 -37.98457,-19.04678 -42.07559,-21.1292c-1.24277,-0.63281 -1.7833,-0.76846 -2.15244,-2.02236z" fill="#e5e5e6"/><path d="M77.58809,205.69248c2.06426,-0.38818 9.57334,3.80244 12.02021,5.03613c6.51592,3.28623 13.00957,6.61641 19.48096,9.98965c3.82998,1.9916 7.70156,3.75762 11.58252,5.63994c0.91699,0.44473 1.04473,0.7582 1.39629,1.56387c-2.596,-0.48369 -6.571,-2.25557 -9.02227,-3.48252c-11.7832,-5.89775 -23.67129,-11.6417 -35.18408,-18.05684c0,0 -0.24961,-0.6293 -0.27363,-0.69023z" fill="#e5e5e6"/><path d="M55.30195,226.1792c4.28848,-0.23408 33.22529,16.64238 38.88457,19.27412c1.57031,0.73008 4.40918,2.34287 4.93389,4.23047c-1.33271,-0.39082 -14.56729,-7.59287 -16.9377,-8.85381c-8.0291,-4.26973 -16.50967,-8.66895 -24.65537,-12.84727c-1.17217,-0.60117 -1.61748,-0.75439 -2.22539,-1.80352z" fill="#e5e5e6"/><path d="M53.36514,111.4916c12.39141,-7.53691 24.74385,-15.1377 37.05674,-22.80234c7.5334,-4.69482 15.36504,-9.72979 23.09297,-14.07217c7.63594,-4.29053 12.92021,-2.51865 20.58281,-0.12041c-0.10342,0.70781 -0.15586,1.22021 -0.196,1.93447c-0.43154,1.85215 -2.33965,10.08135 -3.51211,11.02148c-6.06885,4.86738 -13.31982,9.52676 -19.95732,13.66143c-11.18496,6.9668 -21.93281,14.50342 -33.1043,21.48223c-1.51318,0.94541 -7.75459,5.98359 -8.58018,6.30469c-1.5999,-1.93125 -12.96797,-6.69785 -15.68525,-8.70791c-2.1832,-1.61484 -0.79365,-2.53887 -2.91064,-3.67148c0.78047,-1.72617 2.11055,-3.46289 3.21328,-5.02998z" fill="#4d6879"/><path d="M53.36514,111.4916c-1.10273,1.56709 -2.43281,3.30381 -3.21328,5.02998c2.11699,1.13262 0.72744,2.05664 2.91064,3.67148c2.71729,2.01006 14.08535,6.77666 15.68525,8.70791l-0.91934,1.49297c-1.58145,20.64258 -0.12715,40.32539 -0.41309,60.94834c-0.01758,1.28643 -0.33545,3.9627 0.30322,4.84746c-2.6499,2.91709 -5.65459,5.51836 -8.67891,8.03789l-1.47686,-0.25605c0.50186,-0.80391 0.4998,-0.54609 0.4957,-1.36523c-4.24219,-2.46387 -12.74736,-11.03789 -12.90352,-16.22607c-0.61494,-20.42607 -0.22295,-41.02441 -0.01025,-61.46777c0.07441,-7.16221 2.17061,-9.96855 8.22041,-13.4209z" fill="#1e313a"/><path d="M50.15186,116.52158c2.11699,1.13262 0.72744,2.05664 2.91064,3.67148c2.71729,2.01006 14.08535,6.77666 15.68525,8.70791l-0.91934,1.49297l-0.71367,0.14473c-2.60625,-1.05 -16.2208,-8.51836 -18.2376,-10.28262c0.3293,-1.14023 0.87773,-2.58604 1.27471,-3.73447z" fill="#a7adb2"/><path d="M56.89863,139.27588l0.796,0.25488c0.74385,1.15283 1.99131,5.03027 1.4001,6.27129l-0.73096,0.24375c-2.16299,-2.15098 -4.31104,-4.11973 -1.46514,-6.76992z" fill="#021110"/><path d="M226.80615,90.5751l0.54844,-0.5584c0.20947,0.26895 0.34043,0.40049 0.49102,0.70869l1.56855,0.75703c0.075,1.22871 0.15,1.37139 0.79453,2.42666c3.01553,1.82432 8.08066,3.43594 9.52324,6.33252c0.06357,1.31016 0.01523,0.96855 -0.64629,2.26729c-2.17793,7.17012 -4.396,14.34287 -6.17637,21.62461c-1.19062,4.86973 -2.02148,7.21318 -6.63457,9.67734c-1.03184,0.54521 -2.08711,1.04414 -3.16289,1.4959c-0.89092,-0.62256 -2.65488,-1.93008 -3.54287,-2.39414c-1.19824,-0.11543 -2.10293,-0.51357 -3.2458,-0.54961c0.10576,-1.1792 0.66973,-3.3835 0.946,-4.61133c0.62314,-3.421 1.75195,-7.02891 2.54297,-10.43203c2.06104,-8.8667 4.92744,-17.95283 6.99404,-26.74453z" fill="url(#color-4)"/><path d="M239.08564,102.50889c-0.83291,-0.58066 -2.19258,-1.76924 -3.03604,-2.43252c-1.54512,-1.21436 -7.06787,-3.84375 -7.24365,-5.85264l0.37764,-0.44678l1.0251,0.13213c3.01553,1.82432 8.08066,3.43594 9.52324,6.33252c0.06357,1.31016 0.01523,0.96855 -0.64629,2.26729z" fill="#4d6879"/><path d="M217.26914,127.75166c0.52588,0.85898 0.78896,1.06787 1.60898,1.60312c0.31582,1.54336 0.01699,2.35928 0.69082,3.55781c-1.19824,-0.11543 -2.10293,-0.51357 -3.2458,-0.54961c0.10576,-1.1792 0.66973,-3.3835 0.946,-4.61133z" fill="#021110"/><path d="M82.09131,183.72832c18.92021,10.67109 39.98789,19.72734 59.25059,29.84238c3.33428,1.75107 12.05479,5.25 14.42637,7.11445l-6.51973,5.21191c0.02666,-0.79482 0.14502,-2.13691 -0.09023,-2.82451l-1.06025,0.55605c-1.22227,-0.78838 -2.15127,-2.62998 -2.77324,-2.86699c-4.00166,-1.52461 -7.90869,-3.41865 -11.77061,-5.19258c-2.68828,-1.22344 -6.36533,-1.9541 -8.88047,-3.39785c-14.63437,-8.39971 -29.59424,-15.9334 -44.85762,-23.09971c-0.21855,-0.10254 -3.28916,-0.56133 -3.83672,-0.67061c1.75547,-1.63154 4.0377,-3.47607 6.11191,-4.67256z" fill="#a7adb2"/><path d="M143.79082,53.60244c2.20518,0.22646 3.68496,0.38877 5.71318,1.33564c1.40684,1.04092 3.20977,1.98369 4.75137,2.85176c-0.15908,0.67969 -0.61582,2.83301 -0.86455,3.35566l-0.6999,-0.20859c-1.48447,0.83818 -9.04746,26.62998 -10.34766,30.54229c-3.46553,-2.17998 -5.52891,-3.23525 -9.80449,-3.35039c0.48193,-2.31182 1.98193,-8.9584 2.01504,-10.87559c-0.25254,-0.35127 -0.34629,-0.50449 -0.65215,-0.82207c0.04014,-0.71426 0.09258,-1.22666 0.196,-1.93447c0.29326,-2.59482 2.91738,-10.78154 3.82676,-13.59697c1.12998,-3.49717 2.52598,-5.73369 5.86641,-7.29727z" fill="#354b59"/><path d="M120.63545,259.53105c0.271,-3.43564 2.82715,-8.00361 6.68379,-5.66777c-1.62305,1.696 -4.72295,4.21465 -6.68379,5.66777z" fill="#1e313a"/><path d="M127.05762,91.90957c10.27002,6.14443 26.0792,12.90498 37.45371,18.21533l56.44805,26.78467c-5.38887,4.65762 -15.44502,9.88623 -21.70049,13.9043c-9.52412,6.19717 -19.11064,12.29795 -28.7584,18.30088c-2.51104,1.58613 -8.29277,5.74131 -10.58145,6.76318l-1.20322,1.22725c-0.99639,3.31172 -0.84346,9.32549 -0.96797,12.87217c-0.23086,6.57949 0.15381,15.58301 -0.8165,21.95625c-4.3248,-1.89258 -9.56924,-4.84834 -13.87793,-7.03125l-29.13486,-14.6499c-7.73906,-3.8291 -15.43564,-7.64971 -23.12959,-11.58252c-6.73271,-3.4415 -15.7043,-7.05498 -21.80859,-11.31182c-0.77432,-5.41084 -0.95479,-31.16631 0.45938,-35.87842l1.22256,-1.88877c4.18008,-4.95762 15.34453,-10.99189 20.93555,-14.81777c8.22627,-5.62939 16.92979,-11.08887 25.39775,-16.38574c3.14033,-1.96436 6.96475,-4.69453 10.06201,-6.47783z" fill="#4d6879"/><path d="M68.98037,167.35811c-0.77432,-5.41084 -0.95479,-31.16631 0.45938,-35.87842c2.07656,1.3415 7.03418,3.65771 9.45234,4.86738l16.57148,8.35723c14.86348,7.49766 29.67715,15.09404 44.43984,22.78857c6.30498,3.25605 12.55986,6.20098 18.8124,9.6123c-0.99639,3.31172 -0.84346,9.32549 -0.96797,12.87217c-0.23086,6.57949 0.15381,15.58301 -0.8165,21.95625c-4.3248,-1.89258 -9.56924,-4.84834 -13.87793,-7.03125l-29.13486,-14.6499c-7.73906,-3.8291 -15.43564,-7.64971 -23.12959,-11.58252c-6.73271,-3.4415 -15.7043,-7.05498 -21.80859,-11.31182z" fill="#1e313a"/><path d="M108.00762,165.02695c1.01895,0.1043 12.79658,6.7248 13.91719,7.86797c0.4582,0.8124 0.2335,1.53135 0.08086,2.44893c-1.54072,-0.28623 -12.19717,-6.70371 -13.94297,-8.08682c-0.43506,-1.0251 -0.2458,-0.9501 -0.05508,-2.23008z" fill="#020406"/><path d="M70.6623,129.59092c3.6709,1.5252 9.2707,4.57881 12.94717,6.4916c5.60859,2.90947 11.24502,5.76563 16.90811,8.56758c12.95156,6.48193 25.8375,13.09395 38.65576,19.83545c2.66016,1.38809 20.0376,10.03125 20.7457,11.39238l-1.20322,1.22725c-6.25254,-3.41133 -12.50742,-6.35625 -18.8124,-9.6123c-14.7627,-7.69453 -29.57637,-15.29092 -44.43984,-22.78857l-16.57148,-8.35723c-2.41816,-1.20967 -7.37578,-3.52588 -9.45234,-4.86738z" fill="#a7adb2"/><path d="M139.8665,248.83477c-2.08535,-0.8083 -7.91367,-1.73174 -8.39648,-3.94687c1.27939,-0.98496 6.50508,0.93428 10.47451,-0.41748c2.96221,-1.00898 13.08838,-8.3915 14.54297,-8.25205l0.04629,0.57129c-2.35752,5.11172 -10.96436,7.50029 -14.59688,11.6335l-0.18193,0.21006c-1.19883,0.46582 -0.70371,0.43535 -1.88848,0.20156z" fill="url(#color-5)"/><path d="M141.75498,248.6332c-0.22295,1.47773 -0.91494,7.09717 -1.29873,8.0124c-0.40898,0.23291 -0.42422,0.37119 -0.85898,0.19687c-4.03711,-1.61865 -0.67646,-5.96895 0.26924,-8.00771c1.18477,0.23379 0.68965,0.26426 1.88848,-0.20156z" fill="#1e313a"/></g></svg></svg>