<svg id="svg" version="1.1" viewBox="0 0 300 300" width="300" height="300" xmlns="http://www.w3.org/2000/svg"><svg xmlns="http://www.w3.org/2000/svg"><defs><clipPath id="clip-1"><rect x="0" y="0" transform="scale(0.29297,0.29297)" width="1024" height="1024" fill="none"/></clipPath><linearGradient x1="135.47783" y1="165.59355" x2="131.76621" y2="177.87158" gradientUnits="userSpaceOnUse" id="color-1"><stop offset="0" stop-color="#93fffe" stop-opacity="0.98824"/><stop offset="1" stop-color="#c7faff"/></linearGradient><linearGradient x1="233.56055" y1="62.15977" x2="67.67695" y2="197.63467" gradientUnits="userSpaceOnUse" id="color-2"><stop offset="0" stop-color="#005f64"/><stop offset="1" stop-color="#008c8c"/></linearGradient><linearGradient x1="184.35791" y1="172.34121" x2="186.03691" y2="194.78496" gradientUnits="userSpaceOnUse" id="color-3"><stop offset="0" stop-color="#00353c"/><stop offset="1" stop-color="#005759"/></linearGradient><linearGradient x1="66.93486" y1="140.41025" x2="59.67305" y2="154.0708" gradientUnits="userSpaceOnUse" id="color-4"><stop offset="0" stop-color="#abffff"/><stop offset="1" stop-color="#f1ffff"/></linearGradient><linearGradient x1="97.81875" y1="89.38682" x2="84.85605" y2="75.88652" gradientUnits="userSpaceOnUse" id="color-5"><stop offset="0" stop-color="#005d5f"/><stop offset="1" stop-color="#008f96"/></linearGradient><linearGradient x1="128.16709" y1="120.2168" x2="126.49219" y2="117.2124" gradientUnits="userSpaceOnUse" id="color-6"><stop offset="0" stop-color="#00444f"/><stop offset="1" stop-color="#006b74"/></linearGradient><linearGradient x1="189.28799" y1="141.52119" x2="192.66562" y2="130.44463" gradientUnits="userSpaceOnUse" id="color-7"><stop offset="0" stop-color="#003732"/><stop offset="1" stop-color="#008488"/></linearGradient><linearGradient x1="277.50937" y1="155.8084" x2="29.56494" y2="222.65449" gradientUnits="userSpaceOnUse" id="color-8"><stop offset="0" stop-color="#006162"/><stop offset="1" stop-color="#008c8a"/></linearGradient><linearGradient x1="178.0957" y1="258.66533" x2="171.46201" y2="227.80898" gradientUnits="userSpaceOnUse" id="color-9"><stop offset="0" stop-color="#000000"/><stop offset="1" stop-color="#102324"/></linearGradient><linearGradient x1="145.6834" y1="128.04756" x2="155.77178" y2="203.31152" gradientUnits="userSpaceOnUse" id="color-10"><stop offset="0" stop-color="#009df0" stop-opacity="0.98824"/><stop offset="1" stop-color="#00d2fe"/></linearGradient></defs><g clip-path="url(#clip-1)" fill="none" fill-rule="nonzero" stroke="none" stroke-width="1" stroke-linecap="butt" stroke-linejoin="miter" stroke-miterlimit="10" stroke-dasharray="" stroke-dashoffset="0" font-family="none" font-weight="none" font-size="none" text-anchor="none" style="mix-blend-mode: normal"><path d="M20.84288,110.7709l0.03331,-2.00098c0.28277,-16.80381 6.0929,-28.41006 18.5615,-39.62988c29.22979,-26.30244 74.2374,-35.87783 112.5627,-35.10908c38.01123,0.76201 81.83584,11.48877 109.1833,39.22822c9.97354,10.11621 15.08965,21.32783 14.79346,35.46006l0.03955,2.129c-0.08437,9.19043 -0.08818,18.38174 -0.01084,27.57246c-1.25303,3.11689 -5.15508,9.16553 -6.13447,11.821c-3.0085,5.37715 -8.72051,12.44268 -14.04434,15.51182c-3.91084,3.73945 -9.24756,6.94453 -13.96875,9.69346c-29.63262,17.25293 -65.87578,22.73496 -99.73008,22.15225c-4.54072,-0.07793 -19.58877,-0.50186 -23.09736,-1.75518c-10.94414,-1.36992 -21.93896,-3.44268 -32.40527,-6.93135c-18.86777,-5.46211 -41.29687,-17.05488 -54.46025,-32.02764c-1.79502,-2.04199 -5.30077,-7.59053 -6.77514,-10.00898c-0.2598,-0.93018 -0.51838,-1.52783 -0.89203,-2.41172c-1.21922,-2.51367 -0.89982,-4.0626 -3.21727,-5.8084c0.50669,-2.5582 -0.06694,-7.76719 -0.08848,-10.64355c-0.04307,-5.7498 -0.07392,-11.49873 -0.34954,-17.2415zM105.75205,170.60977c13.65205,4.02598 41.95078,4.47187 56.15068,3.65098l-0.17139,-0.49893c-0.70488,-0.36973 -2.16416,-0.30615 -3.02812,-0.32812c-10.94502,0.7002 -26.50283,-0.86631 -37.47803,-1.98281c-4.27793,-0.43506 -9.24492,-1.64062 -13.54219,-2.06367c-0.74502,0.16553 -1.22314,0.225 -1.89961,0.59561c-0.01729,0.22383 -0.02461,0.404 -0.03135,0.62695z" fill="#00bcc3"/><path d="M107.68301,169.38721c4.29727,0.42305 9.26426,1.62861 13.54219,2.06367c10.9752,1.1165 26.53301,2.68301 37.47803,1.98281c0.86396,0.02197 2.32324,-0.0416 3.02812,0.32813l0.17139,0.49893c-14.1999,0.8209 -42.49863,0.375 -56.15068,-3.65098c0.00674,-0.22295 0.01406,-0.40312 0.03135,-0.62695c0.67646,-0.37061 1.15459,-0.43008 1.89961,-0.59561z" fill="url(#color-1)"/><path d="M20.84288,110.7709l0.4343,1.13994c1.16382,0.45527 0.96721,0.20039 1.6904,1.09043c0.2993,1.33213 1.20759,4.35381 1.34391,5.52949c1.60362,3.79541 3.60167,8.6209 6.05209,11.8875c10.94004,14.5834 27.52383,24.46289 43.99424,31.16748c8.23799,3.25811 16.72324,5.85322 25.37432,7.76133c1.5126,0.34102 4.69746,1.14229 6.01992,1.2627c13.65205,4.02598 41.95078,4.47187 56.15068,3.65098c4.76045,0.23525 23.77412,-2.41904 28.68105,-3.64541c1.40977,-0.12598 5.28779,-1.01338 6.85254,-1.32803c1.10537,-0.25723 2.23623,-0.49131 3.34658,-0.73271l5.31299,-1.35615c1.19766,-0.14531 5.83359,-1.62217 7.25391,-2.06689c12.38115,-3.87861 24.31934,-9.26748 34.92305,-16.80586c0.3958,-0.16846 0.9293,-0.56689 1.28672,-0.8291c12.42979,-9.12334 22.97285,-19.79092 25.6377,-35.44248l0.30059,0.19014l0.51885,-1.396c-0.08437,9.19043 -0.08818,18.38174 -0.01084,27.57246c-1.25303,3.11689 -5.15508,9.16553 -6.13447,11.821c-3.0085,5.37715 -8.72051,12.44268 -14.04434,15.51182c-3.91084,3.73945 -9.24756,6.94453 -13.96875,9.69346c-29.63262,17.25293 -65.87578,22.73496 -99.73008,22.15225c-4.54072,-0.07793 -19.58877,-0.50186 -23.09736,-1.75518c-10.94414,-1.36992 -21.93896,-3.44268 -32.40527,-6.93135c-18.86777,-5.46211 -41.29687,-17.05488 -54.46025,-32.02764c-1.79502,-2.04199 -5.30077,-7.59053 -6.77514,-10.00898c-0.2598,-0.93018 -0.51838,-1.52783 -0.89203,-2.41172c-1.21922,-2.51367 -0.89982,-4.0626 -3.21727,-5.8084c0.50669,-2.5582 -0.06694,-7.76719 -0.08848,-10.64355c-0.04307,-5.7498 -0.07392,-11.49873 -0.34954,-17.2415z" fill="url(#color-2)"/><path d="M117.94072,194.13838c19.66084,2.21514 47.73047,2.23096 67.14375,-0.99141c4.52432,-0.75117 8.96719,-2.24795 13.45225,-3.23203c3.87715,-0.85078 7.82021,-1.43438 11.66309,-2.44072c2.52246,-0.66035 4.88086,-1.76221 7.3166,-2.67187c3.49102,-1.3043 7.11973,-2.4627 10.48418,-4.06875c3.84463,-1.83516 7.8416,-3.68789 11.53564,-5.79756c2.0748,-1.18477 11.87637,-7.80762 13.00898,-7.904c1.47363,-0.1251 1.82109,-0.59766 2.8541,-1.59814l0.42773,0.31963c-3.91084,3.73945 -9.24756,6.94453 -13.96875,9.69346c-29.63262,17.25293 -65.87578,22.73496 -99.73008,22.15225c-4.54072,-0.07793 -19.58877,-0.50186 -23.09736,-1.75518l0.41953,-0.19424l-0.03311,-0.34658c-0.69023,-0.10547 -1.23018,-0.22383 -1.90605,-0.3791z" fill="url(#color-3)"/><path d="M24.49816,144.46436l0.61693,-0.09463c1.94698,1.9415 3.63483,6.2124 5.42602,8.60918c11.21455,15.0082 30.20918,24.83643 47.35811,31.48359c3.65039,1.41504 7.31982,2.89043 11.02441,3.57305l0.17725,0.74414c-1.08311,0.32021 -1.37432,0.0123 -2.47529,0.13301c-18.86777,-5.46211 -41.29687,-17.05488 -54.46025,-32.02764c-1.79502,-2.04199 -5.30077,-7.59053 -6.77514,-10.00898c-0.2598,-0.93018 -0.51838,-1.52783 -0.89203,-2.41172z" fill="#00354f"/><path d="M88.92363,188.03555c9.72217,2.32793 19.06699,5.1041 29.01709,6.10283l-0.42949,0.78574c0.67588,0.15527 1.21582,0.27363 1.90605,0.3791l0.03311,0.34658l-0.41953,0.19424c-10.94414,-1.36992 -21.93896,-3.44268 -32.40527,-6.93135c1.10098,-0.1207 1.39219,0.18721 2.47529,-0.13301z" fill="#073c40"/><path d="M24.31148,118.53076l1.00181,-0.81123c8.19442,20.84297 29.36112,33.78428 49.06884,42.12949c9.3167,3.94512 23.38066,7.46162 33.30088,9.53818c-0.74502,0.16553 -1.22314,0.225 -1.89961,0.59561c-0.01729,0.22383 -0.02461,0.404 -0.03135,0.62695c-1.32246,-0.12041 -4.50732,-0.92168 -6.01992,-1.2627c-8.65107,-1.90811 -17.13633,-4.50322 -25.37432,-7.76133c-16.47041,-6.70459 -33.0542,-16.58408 -43.99424,-31.16748c-2.45042,-3.2666 -4.44847,-8.09209 -6.05209,-11.8875z" fill="url(#color-4)"/><path d="M204.79365,165.92666c0.39141,0.37793 0.95068,0.88359 1.30225,1.27178l-5.31299,1.35615c-1.11035,0.24141 -2.24121,0.47549 -3.34658,0.73271c-1.56475,0.31465 -5.44277,1.20205 -6.85254,1.32803c-4.90693,1.22637 -23.92061,3.88066 -28.68105,3.64541l-0.17139,-0.49893c-0.70488,-0.36973 -2.16416,-0.30615 -3.02812,-0.32812c2.86055,-0.75 9.35654,-0.70342 12.5376,-1.20937c6.52852,-1.03857 13.07344,-2.11143 19.6043,-3.11338c1.86973,-0.38643 3.82881,-0.72393 5.7126,-1.07578l2.99443,-0.69785c1.75723,-0.43125 3.50508,-0.90176 5.2415,-1.41064z" fill="#3ee7e1"/><path d="M204.79365,165.92666c1.38164,-0.76289 6.65244,-2.13984 8.62354,-2.75449c2.93701,-0.94658 5.83418,-2.01328 8.68418,-3.19688c-0.63955,0.6082 -1.90693,1.23633 -2.7249,1.7168c3.47695,2.0417 24.4292,-11.30186 28.32744,-13.55947l0.56895,0.19307c-10.60371,7.53838 -22.54189,12.92725 -34.92305,16.80586c-1.42031,0.44473 -6.05625,1.92158 -7.25391,2.06689c-0.35156,-0.38818 -0.91084,-0.89385 -1.30225,-1.27178z" fill="#3ee7e1"/><path d="M22.96758,113.00127l0.61646,-0.16582c0.67632,0.6958 1.41457,3.75498 1.72925,4.88408l-1.00181,0.81123c-0.13632,-1.17568 -1.04461,-4.19736 -1.34391,-5.52949z" fill="#3ee7e1"/><path d="M275.19727,112.0541c0.03516,-1.07666 0.196,-1.98398 0.36152,-3.04482l0.41836,-0.29004l0.03955,2.129l-0.51885,1.396z" fill="#017c8a"/><path d="M174.35479,71.51045c-1.28408,-2.55703 1.32832,-3.88477 3.23877,-4.1335c3.95244,-0.51416 25.83955,-2.45244 27.93398,-0.56455c0.53555,0.70928 0.45527,1.04326 0.42568,1.90986c1.7707,1.75898 0.94775,5.34229 0.32754,7.57412c-2.14043,9.97207 -4.50586,21.47578 -15.82998,9.10664c-4.45752,2.44951 -23.89746,14.43896 -27.36475,15.1374c-4.27061,0.74238 -7.55771,-1.84775 -7.22959,-6.30117l1.19502,-0.78955c-0.0167,-0.28096 -0.04189,-0.57656 -0.01553,-0.85693c0.29502,-3.15791 17.10322,-11.00068 20.54238,-13.54453c-2.48613,-1.71826 -3.75234,-2.36221 -4.70742,-5.22129c-0.09492,-1.40684 0.40283,-1.55391 1.48389,-2.3165z" fill="#fdfefe"/><path d="M204.05859,76.14844l0.13857,-0.1793c0.71865,-0.94219 0.98994,-1.62539 1.4707,-2.70498c0.554,1.51143 0.13271,1.72529 0.61289,3.03223c-2.14043,9.97207 -4.50586,21.47578 -15.82998,9.10664c-4.45752,2.44951 -23.89746,14.43896 -27.36475,15.1374c-4.27061,0.74238 -7.55771,-1.84775 -7.22959,-6.30117l1.19502,-0.78955c1.25889,1.67578 1.80703,1.91162 3.76055,2.73867c7.19912,-1.62041 22.39805,-13.40391 30.17549,-15.75908c0.67441,0.39668 0.94014,1.34824 1.33301,2.17998c0.91846,0.85518 1.8293,1.78242 2.90801,2.41348c2.03262,0.30527 3.76963,0.42715 5.82832,0.03809c1.08867,-2.58516 2.1293,-6.17754 3.00176,-8.9124z" fill="#005e62"/><path d="M160.81201,96.18838c7.19912,-1.62041 22.39805,-13.40391 30.17549,-15.75908c0.67441,0.39668 0.94014,1.34824 1.33301,2.17998l-0.88594,1.14902c-0.50479,-0.84316 -0.43799,-1.09014 -1.19648,-1.32041c-4.41562,3.40313 -7.66846,5.71377 -12.61816,8.28691c-4.60166,2.39209 -11.04404,7.43818 -16.00371,8.88281c-2.33086,-0.04805 -3.88506,-3.21094 -4.6623,-4.84395c-0.44004,-0.21006 -0.80596,-0.38496 -1.09746,-0.52441l1.19502,-0.78955c1.25889,1.67578 1.80703,1.91162 3.76055,2.73867z" fill="#009faa"/><path d="M195.22852,85.02275c2.03262,0.30527 3.76963,0.42715 5.82832,0.03809c-0.40752,3.51768 -5.25234,4.44756 -7.30459,1.97871c0.31465,-0.60645 1.03418,-1.45342 1.47627,-2.0168z" fill="#009faa"/><path d="M192.32051,82.60928c0.91846,0.85518 1.8293,1.78242 2.90801,2.41348c-0.44209,0.56338 -1.16162,1.41035 -1.47627,2.0168c-0.74062,-0.95684 -1.6043,-2.26729 -2.31768,-3.28125z" fill="#00bcc3"/><path d="M174.35479,71.51045c1.67783,0.80156 7.63037,3.12246 8.34844,4.29082c-0.45,0.83438 -0.45205,0.64775 -1.39629,1.18652l-3.72861,2.06045c-2.48613,-1.71826 -3.75234,-2.36221 -4.70742,-5.22129c-0.09492,-1.40684 0.40283,-1.55391 1.48389,-2.3165z" fill="#009faa"/><path d="M172.8709,73.82695l0.45762,-0.60439c1.17041,0.19307 2.31299,1.84893 3.25312,2.21514c1.95703,0.76318 2.80869,0.33047 4.72529,1.5501l-3.72861,2.06045c-2.48613,-1.71826 -3.75234,-2.36221 -4.70742,-5.22129z" fill="#017c8a"/><path d="M205.95322,68.72227c1.7707,1.75898 0.94775,5.34229 0.32754,7.57412c-0.48018,-1.30693 -0.05889,-1.5208 -0.61289,-3.03223c-0.48076,1.07959 -0.75205,1.76279 -1.4707,2.70498l-0.13857,0.1793c0.65332,-2.46973 1.28467,-4.94531 1.89463,-7.42617z" fill="#017c8a"/><path d="M87.81885,72.39053c-0.3665,-1.54687 -1.25947,-3.89062 -0.31143,-5.33906c0.36387,-0.55576 0.75879,-0.72275 1.38809,-0.86279c3.93486,-0.8748 27.78896,0.68379 30.07588,2.32793c0.68203,0.49014 0.74063,2.21426 0.84053,3.01904l0.89502,0.2001l0.329,0.54609c0.58447,4.50527 -1.58936,4.53574 -5.21719,6.80303c4.05234,2.68682 20.06572,10.82666 21.17227,13.4918c3.37998,5.48672 -3.31787,10.32568 -7.35557,7.44023c-7.8665,-3.97852 -15.32783,-9.13242 -23.00742,-13.39512l-2.93906,-1.03066c-1.48213,1.39365 -3.21064,3.14209 -4.90166,4.19766c-0.41865,0.1582 -0.84229,0.30205 -1.27061,0.43125c-8.04141,2.36631 -11.82686,-13.89844 -9.69785,-17.82949z" fill="#fdfefe"/><path d="M102.4002,80.70703c3.26016,-0.5543 24.05977,13.95 28.7127,15.0375c1.15898,0.2707 2.78525,-0.55811 3.83027,-1.11709l2.04785,-2.05078c3.37998,5.48672 -3.31787,10.32568 -7.35557,7.44023c-7.8665,-3.97852 -15.32783,-9.13242 -23.00742,-13.39512l-0.80479,-0.80098l0.11104,-0.346c0.86982,-0.07969 1.63418,0.24814 2.46211,0.52529c-1.88672,-1.37432 -4.10479,-2.30186 -5.62705,-4.18799c-0.07734,-0.43389 -0.14531,-0.71543 -0.36914,-1.10508z" fill="#009faa"/><path d="M106.62803,86.62178l-0.80479,-0.80098l0.11104,-0.346c0.86982,-0.07969 1.63418,0.24814 2.46211,0.52529c6.3583,4.18916 14.31709,7.85566 20.89424,12.5209l0.8291,0.69873l-0.48428,0.79717c-7.8665,-3.97852 -15.32783,-9.13242 -23.00742,-13.39512z" fill="#073c40"/><path d="M136.99102,92.57666c3.37998,5.48672 -3.31787,10.32568 -7.35557,7.44023l0.48428,-0.79717l-0.8291,-0.69873c2.93672,0.2417 6.74355,0.25986 5.65254,-3.89355z" fill="#017c8a"/><path d="M119.81191,71.53564l0.89502,0.2001l0.329,0.54609c0.58447,4.50527 -1.58936,4.53574 -5.21719,6.80303c-0.82852,-0.54756 -1.77539,-1.07432 -2.64053,-1.57734c-1.18389,-0.76436 -1.63037,-1.12178 -2.66865,-2.07744c2.21074,-0.97061 7.52842,-3.00498 9.30234,-3.89443z" fill="#009faa"/><path d="M113.17822,77.50752c0.8915,-1.13525 3.4875,-1.58438 5.26172,-3.13008c1.62861,-1.41914 0.97119,-1.64941 2.596,-2.09561c0.58447,4.50527 -1.58936,4.53574 -5.21719,6.80303c-0.82852,-0.54756 -1.77539,-1.07432 -2.64053,-1.57734z" fill="#017c8a"/><path d="M87.81885,72.39053c1.34414,4.77158 2.31123,8.45068 4.34912,13.00049c0.09434,3.06357 2.68682,4.2457 5.43281,3.32461l1.18652,1.07314c-0.41865,0.1582 -0.84229,0.30205 -1.27061,0.43125c-8.04141,2.36631 -11.82686,-13.89844 -9.69785,-17.82949z" fill="url(#color-5)"/><path d="M102.4002,80.70703c0.22383,0.38965 0.2918,0.67119 0.36914,1.10508c1.52227,1.88613 3.74033,2.81367 5.62705,4.18799c-0.82793,-0.27715 -1.59229,-0.60498 -2.46211,-0.52529l-0.11104,0.346l0.80479,0.80098l-2.93906,-1.03066c-1.48213,1.39365 -3.21064,3.14209 -4.90166,4.19766l-1.18652,-1.07314c2.18818,-1.42178 2.99707,-2.31504 3.30176,-4.90635c0.4916,-1.48125 0.59531,-1.85215 1.49766,-3.10225z" fill="#005e62"/><path d="M100.90254,83.80928c-0.30469,2.59131 -1.11357,3.48457 -3.30176,4.90635c-2.746,0.92109 -5.33848,-0.26104 -5.43281,-3.32461c2.6209,0.03223 6.75879,0.22061 8.73457,-1.58174z" fill="#009faa"/><path d="M102.97061,121.62803c6.01787,-2.76445 12.98438,-7.1833 18.94482,-10.32979c2.98564,-1.57646 6.56191,-4.13262 9.67764,-5.25762c2.08125,0.89268 4.42031,1.92451 4.58584,4.42412l1.14082,0.21943c0.2332,1.94033 0.21416,2.52803 0.07412,4.44609c-3.89297,3.46289 -16.47305,8.85645 -19.2334,11.6502c-0.59766,0.69785 -0.77227,0.87773 -1.49678,1.46396c1.34912,1.10654 2.64346,2.00596 3.28242,3.67939l0.58945,0.1333c0.43242,0.78896 0.53262,0.91934 0.46494,1.80527l-0.16289,0.3123c-0.36006,1.31074 -0.71514,3.06797 -2.00684,3.79189c-2.84707,1.59521 -27.12979,3.40986 -30.44941,2.32412c-0.7207,-0.23555 -1.27676,-0.55488 -1.62012,-1.27559c-0.42715,-0.89561 -0.45322,-1.97549 -0.50625,-2.94814c0.42012,-0.49072 0.23496,-0.3375 0.98115,-0.49717c-0.22646,-0.43242 -0.496,-1.44814 -0.34688,-1.96875c1.37256,-4.78623 4.70098,-24.91699 12.96299,-15.94482c0.79922,0.86777 2.30156,2.91826 3.11836,3.97178z" fill="#fdfefe"/><path d="M119.94609,131.92383l0.58945,0.1333c0.43242,0.78896 0.53262,0.91934 0.46494,1.80527l-0.16289,0.3123c-0.36006,1.31074 -0.71514,3.06797 -2.00684,3.79189c-2.84707,1.59521 -27.12979,3.40986 -30.44941,2.32412c-0.7207,-0.23555 -1.27676,-0.55488 -1.62012,-1.27559c-0.42715,-0.89561 -0.45322,-1.97549 -0.50625,-2.94814c0.42012,-0.49072 0.23496,-0.3375 0.98115,-0.49717l0.24844,0.51387c5.93291,0.94307 17.4835,-1.33506 23.72695,-1.52666c2.84678,-0.0876 6.78516,-0.41719 8.73457,-2.6332z" fill="#009faa"/><path d="M87.48457,136.08369c-0.04277,1.14932 0.09316,1.45752 0.70605,2.23037c3.15176,1.66318 25.11387,-0.75732 29.75039,-1.71445c0.45352,-0.09375 1.64063,-2.02441 2.25908,-2.61855l0.6375,0.19365c-0.36006,1.31074 -0.71514,3.06797 -2.00684,3.79189c-2.84707,1.59521 -27.12979,3.40986 -30.44941,2.32412c-0.7207,-0.23555 -1.27676,-0.55488 -1.62012,-1.27559c-0.42715,-0.89561 -0.45322,-1.97549 -0.50625,-2.94814c0.42012,-0.49072 0.23496,-0.3375 0.98115,-0.49717z" fill="#073c40"/><path d="M136.17891,110.46475l1.14082,0.21943c0.2332,1.94033 0.21416,2.52803 0.07412,4.44609c-3.89297,3.46289 -16.47305,8.85645 -19.2334,11.6502c-0.66826,-0.08994 -1.5917,-0.35537 -2.13164,-0.77314c-1.43555,-0.42451 -1.75957,-0.21299 -2.81162,-1.37314c2.72109,-1.65146 6.25254,-3.88389 8.93965,-5.56758c3.34365,-2.09502 11.62471,-6.29531 14.02207,-8.60186z" fill="#009faa"/><path d="M116.02881,126.00732c1.9749,-1.12148 3.87393,-2.57549 5.84971,-3.71338c3.83994,-2.21162 7.86357,-4.16572 11.49434,-6.7207c1.64033,-1.1543 2.47354,-2.63232 3.02637,-4.4959l0.92051,-0.39316c0.2332,1.94033 0.21416,2.52803 0.07412,4.44609c-3.89297,3.46289 -16.47305,8.85645 -19.2334,11.6502c-0.66826,-0.08994 -1.5917,-0.35537 -2.13164,-0.77314z" fill="url(#color-6)"/><path d="M110.30449,126.34834l2.9127,-1.71416c1.05205,1.16016 1.37607,0.94863 2.81162,1.37314c0.53994,0.41777 1.46338,0.6832 2.13164,0.77314c-0.59766,0.69785 -0.77227,0.87773 -1.49678,1.46396c-2.30303,-1.0043 -3.91377,-1.34854 -6.35918,-1.89609z" fill="#017c8a"/><path d="M162.45322,106.01338c9.38613,4.69951 19.34063,11.23623 28.47656,15.71221c1.61279,-2.69443 5.52422,-8.44072 9.26572,-5.80283c4.36846,3.07998 4.43613,12.60996 6.69375,17.28457c0.73477,0.61436 0.97354,1.11855 1.06348,2.05957c0.14121,1.47568 0.07734,2.97539 -0.89883,4.17158c-0.7708,0.94453 -1.90107,1.396 -3.0917,1.50059c-3.64717,0.32051 -26.84355,-1.73936 -29.22393,-3.79395c-0.53877,-0.46494 -0.88477,-1.11738 -1.22725,-1.73086c-0.55928,-1.24775 -0.62461,-3.35215 0.59678,-4.1332l0.1418,0.29033c0.96152,-2.08506 2.05166,-2.64434 3.93691,-3.85225c-0.70459,-0.29648 -1.06523,-0.74297 -1.61455,-1.28057c-2.91914,-1.07139 -14.64785,-8.55586 -18.20742,-10.45693c-1.03154,-0.55107 -1.2668,-2.36133 -1.425,-3.48691c-0.19277,-1.16953 -0.43564,-2.12549 0.14355,-3.17725l0.14912,0.30615c2.05781,-2.05137 2.44775,-2.57139 5.221,-3.61025z" fill="#fdfefe"/><path d="M173.51104,135.41426c-0.55928,-1.24775 -0.62461,-3.35215 0.59678,-4.1332l0.1418,0.29033c0.36592,0.88242 0.73418,1.94561 1.68779,2.13223c4.11504,0.80479 26.22188,3.13682 29.0124,2.48438c1.29258,-0.89766 1.62773,-1.48301 1.93945,-2.98066c0.73477,0.61436 0.97354,1.11855 1.06348,2.05957c0.14121,1.47568 0.07734,2.97539 -0.89883,4.17158c-0.7708,0.94453 -1.90107,1.396 -3.0917,1.50059c-3.64717,0.32051 -26.84355,-1.73936 -29.22393,-3.79395c-0.53877,-0.46494 -0.88477,-1.11738 -1.22725,-1.73086z" fill="#009faa"/><path d="M206.88926,133.20732c0.73477,0.61436 0.97354,1.11855 1.06348,2.05957c0.14121,1.47568 0.07734,2.97539 -0.89883,4.17158c-0.7708,0.94453 -1.90107,1.396 -3.0917,1.50059c-3.64717,0.32051 -26.84355,-1.73936 -29.22393,-3.79395c-0.53877,-0.46494 -0.88477,-1.11738 -1.22725,-1.73086l0.81826,-0.22266c0.52969,0.37471 2.24854,1.81758 2.7542,1.85742c8.77383,0.69023 17.61035,1.81787 26.42373,1.77393c0.43887,-0.00234 1.50469,-0.58184 1.82813,-0.76436c0.57686,-0.83174 0.33398,-1.1001 -0.38555,-1.87061c1.29258,-0.89766 1.62773,-1.48301 1.93945,-2.98066z" fill="url(#color-7)"/><path d="M156.93955,112.49473c-0.19277,-1.16953 -0.43564,-2.12549 0.14355,-3.17725l0.14912,0.30615c0.41455,0.56484 1.21992,1.6292 1.7959,1.98223c8.07803,4.94854 16.31777,9.40137 24.36768,14.43193c-1.73848,0.45615 -3.62725,0.85752 -5.20928,1.68135c-0.70459,-0.29648 -1.06523,-0.74297 -1.61455,-1.28057c-2.91914,-1.07139 -14.64785,-8.55586 -18.20742,-10.45693c-1.03154,-0.55107 -1.2668,-2.36133 -1.425,-3.48691z" fill="#009faa"/><path d="M156.93955,112.49473c5.73867,5.04902 10.20557,7.03154 16.83193,10.69717c1.17422,0.64951 4.34004,2.45771 5.32588,3.21738c-0.80215,0.4459 -1.55449,-0.03721 -2.52539,0.0293c-2.91914,-1.07139 -14.64785,-8.55586 -18.20742,-10.45693c-1.03154,-0.55107 -1.2668,-2.36133 -1.425,-3.48691z" fill="#073c40"/><path d="M269.87139,150.2417c0.97939,-2.65547 4.88145,-8.7041 6.13447,-11.821c0.25166,2.35781 0.24697,4.05615 0.23145,6.43975c0.07588,10.75459 0.0917,21.50947 0.04746,32.26436c0,5.33408 0.25664,12.20098 -0.09199,17.4167c2.74102,1.09131 1.81611,1.78418 3.88389,4.37725c-2.18496,3.54961 -1.18711,5.32646 -3.00557,9.07588c-0.84492,1.74229 -1.55947,4.11064 -2.57256,5.8292c-0.6498,1.10215 -1.48506,1.85977 -2.07334,3.02139c-2.82861,4.84219 -12.06738,16.0248 -16.92744,17.63877c-3.08818,3.46465 -4.60137,3.62813 -8.45537,5.79287c-1.03418,0.58066 -2.95957,2.9083 -4.04795,3.4585c-3.61025,1.65527 -7.19092,3.4248 -10.91777,4.84482c-4.63418,1.76572 -9.83672,5.04902 -14.58867,6.38027c-12.64893,3.54346 -26.12637,7.77422 -39.23379,8.8793c-1.64736,0.13887 -11.13252,0.56777 -12.0375,0.33486c-4.84775,2.53066 -22.75459,1.31045 -28.95557,1.18506c-1.35732,-0.02754 -2.5793,-1.0626 -4.98486,-1.17803l-0.13477,-0.00557c-4.73789,0.29033 -19.65703,-1.53311 -24.4585,-2.70469c-2.21104,-0.45117 -3.27129,-0.66855 -5.36162,-1.47568c-6.57422,-0.35566 -20.37568,-4.68398 -26.41582,-7.69453c-3.86982,-1.85098 -7.82402,-2.8585 -11.45537,-4.50703c-4.62158,-2.09824 -9.45352,-5.45215 -14.1416,-7.62158c-1.12148,-0.51885 -3.30059,-3.47432 -4.47598,-4.2583c-10.65029,-7.94678 -25.54969,-24.05068 -23.75057,-38.38301l-0.73749,-49.91543c1.5157,1.46719 1.67396,1.86562 2.09783,3.93105l0.34597,1.48008l2.04431,-0.01904l0.45308,-0.10723c1.99687,3.02432 7.73994,11.39355 9.98584,13.57031c13.75518,13.33184 31.80439,22.75723 49.88145,28.11797c2.45596,0.28916 11.06807,2.66104 13.51436,3.55488c7.52227,2.05107 14.42783,1.95352 20.7126,3.45029c9.83848,0.40898 19.99072,2.08301 29.85176,1.65234c8.72871,-0.38115 17.78906,-1.00781 26.44863,-2.12607c4.47451,-0.49043 8.86787,-1.35059 13.3002,-1.83809c0.98936,-0.24463 2.18584,-0.4377 3.19922,-0.61904c9.22969,-1.6541 18.25283,-4.71973 27.20127,-7.42207c0.39873,-0.52324 8.57842,-3.62227 9.87861,-4.22227c15.96152,-7.36465 31.38662,-17.27607 39.86133,-33.24111c0.93398,-1.75928 2.7791,-5.73105 3.61436,-6.66035l-0.17344,-0.41191l-0.70898,-0.16963c-1.65029,0.80918 -0.95654,2.60215 -2.98154,3.70576zM188.8292,231.00293c7.28848,-2.93115 6.55547,-11.4624 -1.18506,-11.27139c-8.19727,3.44824 -5.54912,12.57949 1.18506,11.27139z" fill="url(#color-8)"/><path d="M275.25527,197.99707c0.17432,-0.41924 0.76875,-2.83975 0.9375,-3.45557c2.74102,1.09131 1.81611,1.78418 3.88389,4.37725c-2.18496,3.54961 -1.18711,5.32646 -3.00557,9.07588c-0.84492,1.74229 -1.55947,4.11064 -2.57256,5.8292c-0.6498,1.10215 -1.48506,1.85977 -2.07334,3.02139c-2.82861,4.84219 -12.06738,16.0248 -16.92744,17.63877c-3.08818,3.46465 -4.60137,3.62813 -8.45537,5.79287c-1.03418,0.58066 -2.95957,2.9083 -4.04795,3.4585c-3.61025,1.65527 -7.19092,3.4248 -10.91777,4.84482c-4.63418,1.76572 -9.83672,5.04902 -14.58867,6.38027c-12.64893,3.54346 -26.12637,7.77422 -39.23379,8.8793c-1.64736,0.13887 -11.13252,0.56777 -12.0375,0.33486c-4.84775,2.53066 -22.75459,1.31045 -28.95557,1.18506c-1.35732,-0.02754 -2.5793,-1.0626 -4.98486,-1.17803l-0.13477,-0.00557c-4.73789,0.29033 -19.65703,-1.53311 -24.4585,-2.70469c-0.16465,-0.23027 -0.52148,-0.45645 -0.76582,-0.63896c-0.07236,-0.37324 -0.13711,-0.71836 -0.1125,-1.10127c-0.27539,-0.07969 -2.49434,-0.51094 -2.38447,-0.41191c-0.77607,-0.70049 -2.2248,-0.93486 -3.33545,-1.27881l-0.07354,-0.28711c1.96846,-0.00674 6.58389,1.35293 8.79844,1.70186c3.16025,0.49746 5.14746,0.50596 8.32412,0.36211l-1.53838,-0.19219c1.93389,-0.06299 3.50859,0.20859 5.40703,0.50186c2.19346,0.33896 4.85625,0.37119 7.0793,0.61582c1.9749,0.21738 7.77539,1.61895 9.33838,1.63682c9.26748,0.10576 36.02168,0.35654 43.79473,-2.40205l-0.23145,-0.27393c-1.07549,-0.07061 -2.10234,-0.0999 -3.17988,-0.12627c0.97852,-1.3166 5.82275,0.21328 8.51221,-2.14248c0.71074,-0.34482 7.65439,-1.71592 8.81631,-1.98018c20.6335,-4.69746 40.98691,-11.76475 57.29355,-25.70742c5.92148,-5.06309 11.93496,-10.19824 15.46377,-17.24004c2.08916,-1.37754 5.7252,-11.60859 6.36592,-14.51016z" fill="#b9b8b9"/><path d="M132.1415,264.17607c2.60537,-1.46016 2.82158,0.56367 4.87852,0.29268l-0.16084,-0.20771c-0.18076,-0.23789 -0.20684,-0.26484 -0.25313,-0.56777c5.10205,-0.31641 26.41553,-1.43643 29.61064,0.48135c-4.84775,2.53066 -22.75459,1.31045 -28.95557,1.18506c-1.35732,-0.02754 -2.5793,-1.0626 -4.98486,-1.17803z" fill="#c7c4c7"/><path d="M255.49775,234.48398l-0.16055,-0.47256c1.20908,-0.56338 1.37578,-0.64629 2.26816,-1.62891l-0.25225,-0.43447c-3.44736,1.1291 -7.39365,5.49932 -9.60205,5.95254c1.17598,-1.771 12.50537,-8.45918 14.91768,-11.02676c2.13457,-2.27227 4.22988,-4.47686 6.21006,-6.97148c1.48008,-1.86475 1.30898,-3.38584 3.54639,-3.05713c-2.82861,4.84219 -12.06738,16.0248 -16.92744,17.63877z" fill="#c7c4c7"/><path d="M22.08205,197.53125c0.52784,1.78359 0.99577,3.34365 1.99025,4.92363l0.64945,-0.36211c1.32729,1.16455 3.87712,7.14111 5.27414,9.08262c10.06025,13.98193 25.23721,22.92627 40.72207,29.75596c4.1915,1.84863 8.46387,3.25254 12.58271,5.01123c0.25957,0.42715 0.35186,0.53701 0.3085,1.06172l0.40225,0.31494l-0.02813,-0.01611l-0.26924,0.0876l-0.84463,-0.52617c-0.71719,0.34541 -0.48955,0.11191 -0.81738,0.92168c2.84971,4.91865 25.1748,6.78252 28.51172,9.77666c18.98057,3.34395 39.38965,3.78398 58.57412,2.12871c6.046,-0.52178 12.14619,-1.54365 18.17783,-2.25674c-2.68945,2.35576 -7.53369,0.82588 -8.51221,2.14248c1.07754,0.02637 2.10439,0.05566 3.17988,0.12627l0.23145,0.27393c-7.77305,2.75859 -34.52725,2.50781 -43.79473,2.40205c-1.56299,-0.01787 -7.36348,-1.41943 -9.33838,-1.63682c-2.22305,-0.24463 -4.88584,-0.27686 -7.0793,-0.61582c-1.89844,-0.29326 -3.47314,-0.56484 -5.40703,-0.50186l1.53838,0.19219c-3.17666,0.14385 -5.16387,0.13535 -8.32412,-0.36211c-2.21455,-0.34893 -6.82998,-1.70859 -8.79844,-1.70186l0.07354,0.28711c1.11064,0.34395 2.55937,0.57832 3.33545,1.27881c-0.10986,-0.09902 2.10908,0.33223 2.38447,0.41191c-0.02461,0.38291 0.04014,0.72803 0.1125,1.10127c0.24434,0.18252 0.60117,0.40869 0.76582,0.63896c-2.21104,-0.45117 -3.27129,-0.66855 -5.36162,-1.47568c-6.57422,-0.35566 -20.37568,-4.68398 -26.41582,-7.69453c-3.86982,-1.85098 -7.82402,-2.8585 -11.45537,-4.50703c-4.62158,-2.09824 -9.45352,-5.45215 -14.1416,-7.62158c-1.12148,-0.51885 -3.30059,-3.47432 -4.47598,-4.2583c-10.65029,-7.94678 -25.54969,-24.05068 -23.75057,-38.38301z" fill="#aba3a2"/><path d="M24.0723,202.45488l0.64945,-0.36211c1.32729,1.16455 3.87712,7.14111 5.27414,9.08262c10.06025,13.98193 25.23721,22.92627 40.72207,29.75596c4.1915,1.84863 8.46387,3.25254 12.58271,5.01123c0.25957,0.42715 0.35186,0.53701 0.3085,1.06172l0.40225,0.31494l-0.02813,-0.01611l-0.26924,0.0876l-0.84463,-0.52617c-0.71719,0.34541 -0.48955,0.11191 -0.81738,0.92168c2.84971,4.91865 25.1748,6.78252 28.51172,9.77666c-32.32412,-4.63389 -73.80879,-22.90342 -86.49146,-55.10801z" fill="#073c40"/><path d="M75.90557,252.30117c0.66914,-0.4251 0.87686,-0.73037 1.70918,-0.50068c4.59404,1.26885 22.07285,5.04258 24.70664,8.19521c-6.57422,-0.35566 -20.37568,-4.68398 -26.41582,-7.69453z" fill="#c7c4c7"/><path d="M265.19619,215.0001c1.1959,-0.87246 2.38975,-1.79766 3.69316,-2.49287c-3.52881,7.0418 -9.54229,12.17695 -15.46377,17.24004c-16.30664,13.94268 -36.66006,21.00996 -57.29355,25.70742c-1.16191,0.26426 -8.10557,1.63535 -8.81631,1.98018c-6.03164,0.71309 -12.13184,1.73496 -18.17783,2.25674c-19.18447,1.65527 -39.59355,1.21523 -58.57412,-2.12871c-3.33691,-2.99414 -25.66201,-4.85801 -28.51172,-9.77666c0.32783,-0.80977 0.1002,-0.57627 0.81738,-0.92168l0.84463,0.52617l0.26924,-0.0876l0.02813,0.01611l-0.40225,-0.31494c0.04336,-0.52471 -0.04893,-0.63457 -0.3085,-1.06172c25.79531,8.36865 52.95703,11.71025 80.01182,9.84346c35.10322,-2.61299 77.96982,-13.04766 101.88369,-40.78594z" fill="url(#color-9)"/><path d="M192.86777,199.7332c2.05107,-0.20947 7.48975,-1.30137 9.41982,-1.83779c1.32041,0.17578 1.96465,0.05215 2.81016,1.12734c-5.69092,1.40977 -11.56729,2.92793 -17.31826,3.98027c-22.2917,3.87891 -45.02578,4.52578 -67.50205,1.92012c-5.29014,-0.59004 -13.60986,-1.42646 -18.38496,-3.37559c1.94707,0.13242 3.70664,0.56953 5.03232,-1.0043l-9.19893,-1.36611c0.8001,-0.69316 0.91934,-0.74795 1.9415,-1.0333c7.52227,2.05107 14.42783,1.95352 20.7126,3.45029c9.83848,0.40898 19.99072,2.08301 29.85176,1.65234c8.72871,-0.38115 17.78906,-1.00781 26.44863,-2.12607c4.47451,-0.49043 8.86787,-1.35059 13.3002,-1.83809z" fill="#00bcc3"/><path d="M120.37998,201.59414c9.83848,0.40898 19.99072,2.08301 29.85176,1.65234c8.72871,-0.38115 17.78906,-1.00781 26.44863,-2.12607c0.82793,0.90322 2.38682,0.65654 3.6334,0.65654c-7.20967,2.62031 -7.78154,1.70361 -15.04805,1.97314c-3.63369,0.36709 -7.12295,0.87305 -10.78154,1.06846c-7.67402,0.40986 -15.12715,-0.48018 -22.74434,-1.09131c-5.06982,-0.40693 -8.85146,-0.31025 -13.87939,-1.49678c1.11826,-0.12305 1.5085,-0.12363 2.51953,-0.63633z" fill="#009faa"/><path d="M99.66738,198.14385c7.52227,2.05107 14.42783,1.95352 20.7126,3.45029c-1.01104,0.5127 -1.40127,0.51328 -2.51953,0.63633c-3.60996,-0.71484 -7.26123,-1.42559 -10.93564,-1.68721l-9.19893,-1.36611c0.8001,-0.69316 0.91934,-0.74795 1.9415,-1.0333z" fill="#006883"/><path d="M176.68037,201.12041c4.47451,-0.49043 8.86787,-1.35059 13.3002,-1.83809l2.88721,0.45088c-4.31104,0.5625 -8.28105,1.30869 -12.554,2.04375c-1.24658,0 -2.80547,0.24668 -3.6334,-0.65654z" fill="#006883"/><path d="M269.87139,150.2417c0.97939,-2.65547 4.88145,-8.7041 6.13447,-11.821c0.25166,2.35781 0.24697,4.05615 0.23145,6.43975l-0.40635,1.99102l-0.84902,-0.13389c-0.96709,2.41436 -2.57988,4.55889 -3.97119,6.81504l1.16133,-0.78135l0.27715,0.20566c-0.01611,1.13115 -1.57061,2.85117 -2.15127,3.91582c-5.39062,9.88447 -14.62119,17.3751 -23.91621,23.46123c-2.30215,1.50762 -5.88633,2.59512 -7.70449,4.98311c0.05391,-0.0709 -5.75625,1.93652 -6.16699,2.27783c-4.04121,1.90166 -15.28682,7.29785 -19.66348,7.25859l-0.38848,-0.23936c0.47051,-0.5127 9.3416,-2.16006 9.72539,-3.18867c-1.35,-0.63105 -1.10391,0.33867 -1.80264,-0.18428c0.39873,-0.52324 8.57842,-3.62227 9.87861,-4.22227c15.96152,-7.36465 31.38662,-17.27607 39.86133,-33.24111c0.93398,-1.75928 2.7791,-5.73105 3.61436,-6.66035l-0.17344,-0.41191l-0.70898,-0.16963c-1.65029,0.80918 -0.95654,2.60215 -2.98154,3.70576z" fill="#006883"/><path d="M60.95918,185.5377c6.85488,3.37354 13.55156,6.71543 20.90947,8.76182c1.21436,0.33779 2.48203,0.81123 3.64482,1.29756c0.51533,-0.36504 0.3665,-0.30234 0.63955,-1.00811c2.45596,0.28916 11.06807,2.66104 13.51436,3.55488c-1.02217,0.28535 -1.14141,0.34014 -1.9415,1.0333l9.19893,1.36611c-1.32568,1.57383 -3.08525,1.13672 -5.03232,1.0043c-0.48047,-0.31377 -10.26621,-2.43516 -11.61152,-2.74629c-10.67256,-2.46855 -20.15186,-7.22871 -29.97627,-11.81221c0.2751,-0.4002 0.47227,-0.98437 0.65449,-1.45137z" fill="#3ee7e1"/><path d="M86.15303,194.58896c2.45596,0.28916 11.06807,2.66104 13.51436,3.55488c-1.02217,0.28535 -1.14141,0.34014 -1.9415,1.0333c-2.85732,-0.54521 -10.16836,-1.90195 -12.2124,-3.58008c0.51533,-0.36504 0.3665,-0.30234 0.63955,-1.00811z" fill="#0189c9"/><path d="M25.83267,153.00791l0.45308,-0.10723c1.99687,3.02432 7.73994,11.39355 9.98584,13.57031c13.75518,13.33184 31.80439,22.75723 49.88145,28.11797c-0.27305,0.70576 -0.12422,0.64307 -0.63955,1.00811c-1.16279,-0.48633 -2.43047,-0.95977 -3.64482,-1.29756c-7.35791,-2.04639 -14.05459,-5.38828 -20.90947,-8.76182c-0.68936,-0.60264 -5.00947,-2.96396 -5.89863,-3.45674c-5.0666,-2.71436 -9.51709,-6.11514 -13.95029,-9.75293c-0.44443,-0.59414 -3.7749,-3.55576 -4.45195,-4.16719c-2.73955,-2.87988 -9.96527,-11.55996 -10.82563,-15.15293z" fill="#005098"/><path d="M25.83267,153.00791c0.86036,3.59297 8.08608,12.27305 10.82563,15.15293c0.67705,0.61143 4.00752,3.57305 4.45195,4.16719l-0.54375,1.49648c-1.71943,-1.33506 -4.021,-3.62666 -5.6625,-5.17236l-1.00225,-0.57656c-2.81777,-2.83887 -4.87682,-5.96689 -7.10133,-9.25781c-0.30416,-0.79365 -2.37853,-4.45869 -3.01207,-5.79082z" fill="#00bcc3"/><path d="M265.19619,215.0001c4.92979,-6.69639 6.84492,-10.12178 8.625,-18.05977l0.23086,-0.09961l0.19043,1.28877l0.40664,0.02959l0.27334,-0.50625l0.33281,0.34424c-0.64072,2.90156 -4.27676,13.13262 -6.36592,14.51016c-1.30342,0.69521 -2.49727,1.62041 -3.69316,2.49287z" fill="#073c40"/><path d="M41.11025,172.32803c4.4332,3.63779 8.88369,7.03857 13.95029,9.75293c-0.70781,0.30322 -1.396,0.65889 -2.1501,0.74854c-4.70977,-3.03926 -7.91133,-5.72725 -12.34395,-9.00498z" fill="#3ee7e1"/><path d="M202.2876,197.89541c2.37979,-0.29854 3.32256,-1.04678 5.54531,-1.77568l0.56572,0.13623c-0.3791,0.53438 -0.75762,0.99375 -1.16924,1.49971l0.22588,0.24141c9.15967,-2.47236 18.57393,-6.07119 27.09434,-10.27207c0.7002,-0.34512 3.92607,-2.13867 4.34648,-2.1208l0.05918,0.30029c-8.88926,4.86006 -23.92295,11.20049 -33.85752,13.11826c-0.84551,-1.0752 -1.48975,-0.95156 -2.81016,-1.12734z" fill="#009faa"/><path d="M55.06055,182.08096c0.88916,0.49277 5.20928,2.8541 5.89863,3.45674c-0.18223,0.46699 -0.37939,1.05117 -0.65449,1.45137c-1.85068,-0.31406 -5.90361,-3.10195 -7.39424,-4.15957c0.7541,-0.08965 1.44229,-0.44531 2.1501,-0.74854z" fill="#00bcc3"/><path d="M26.80043,158.81777c2.22451,3.29092 4.28355,6.41895 7.10133,9.25781c-0.51094,0.40137 -0.22441,0.30205 -0.89678,0.27744c-2.07158,-1.39365 -5.73475,-5.64902 -6.64644,-8.14775c-0.18196,-0.49863 0.14259,-0.82178 0.44188,-1.3875z" fill="#005e62"/><path d="M187.64414,219.73154c7.74053,-0.19102 8.47354,8.34023 1.18506,11.27139c-6.73418,1.30811 -9.38232,-7.82314 -1.18506,-11.27139z" fill-opacity="0.98824" fill="#00f700"/><path d="M186.76172,222.09463c4.12939,-0.3583 5.42402,1.80557 2.5585,4.7877c-1.22168,0.23203 -2.26172,0.41719 -3.33135,-0.27363c-1.2123,-1.76396 -0.47637,-2.98271 0.77285,-4.51406z" fill="#ffffdc"/><path d="M209.60098,215.07627c6.97236,-0.03105 6.60234,8.4375 0.23408,10.94766c-0.88242,-0.08232 -1.88115,-0.27012 -2.671,-0.68613c-1.171,-0.6126 -2.04346,-1.67373 -2.41846,-2.94111c-1.06699,-3.62461 1.6002,-6.31318 4.85537,-7.32041z" fill="#00f700"/><path d="M210.8666,221.50752c-0.6627,0.81621 -1.32686,1.82988 -2.28867,2.16006c-4.44082,-1.23604 -1.75195,-8.04727 2.90977,-6.53818c0.77725,0.25166 0.85898,0.76172 1.09717,1.40771c-0.07559,1.09922 -0.71777,1.72852 -1.40156,2.60654z" fill="#f8fe0f"/><path d="M228.20977,208.04824c6.75615,-0.98057 6.92725,8.21045 0.48369,10.42324c-5.42051,0.25283 -5.43604,-3.55166 -4.70156,-7.74199c1.52695,-1.53105 2.19756,-1.90488 4.21787,-2.68125z" fill="#00f700"/><path d="M227.71758,209.78613c1.68281,-0.01582 2.79668,-0.00469 3.09609,1.86943c-0.55957,1.90078 -1.26562,2.25879 -2.92236,3.41924c-1.06934,0.34775 -1.6998,0.35859 -2.66895,-0.15088c-1.06523,-2.24004 0.58037,-4.11387 2.49521,-5.13779z" fill="#f8fe0f"/><path d="M23.44239,151.54688c0.10573,-1.41504 0.66604,-2.54971 0.29892,-3.89648c-0.21401,-0.78486 -0.38317,-1.88613 -0.33861,-2.69473l0.4476,0.1043c0.52611,0.71865 0.94046,1.16543 1.5399,1.81611c1.47437,2.41846 4.98012,7.96699 6.77514,10.00898c13.16338,14.97275 35.59248,26.56553 54.46025,32.02764c10.46631,3.48867 21.46113,5.56143 32.40527,6.93135c3.50859,1.25332 18.55664,1.67725 23.09736,1.75518c33.8543,0.58271 70.09746,-4.89932 99.73008,-22.15225c4.72119,-2.74893 10.05791,-5.954 13.96875,-9.69346c5.32383,-3.06914 11.03584,-10.13467 14.04434,-15.51182c2.025,-1.10361 1.33125,-2.89658 2.98154,-3.70576l0.70898,0.16963l0.17344,0.41191c-0.83525,0.9293 -2.68037,4.90107 -3.61436,6.66035c-8.47471,15.96504 -23.8998,25.87646 -39.86133,33.24111c-1.3002,0.6 -9.47988,3.69902 -9.87861,4.22227c-8.94844,2.70234 -17.97158,5.76797 -27.20127,7.42207c-1.01338,0.18135 -2.20986,0.37441 -3.19922,0.61904c-4.43232,0.4875 -8.82568,1.34766 -13.3002,1.83809c-8.65957,1.11826 -17.71992,1.74492 -26.44863,2.12607c-9.86104,0.43066 -20.01328,-1.24336 -29.85176,-1.65234c-6.28477,-1.49678 -13.19033,-1.39922 -20.7126,-3.45029c-2.44629,-0.89385 -11.0584,-3.26572 -13.51436,-3.55488c-18.07705,-5.36074 -36.12627,-14.78613 -49.88145,-28.11797c-2.2459,-2.17676 -7.98896,-10.546 -9.98584,-13.57031l-0.45308,0.10723l-2.04431,0.01904z" fill="url(#color-10)"/><path d="M21.2809,138.65596c2.31744,1.7458 1.99805,3.29473 3.21727,5.8084c0.37365,0.88389 0.63223,1.48154 0.89203,2.41172c-0.59944,-0.65068 -1.01379,-1.09746 -1.5399,-1.81611l-0.4476,-0.1043c-0.04456,0.80859 0.1246,1.90986 0.33861,2.69473c0.36712,1.34678 -0.19318,2.48145 -0.29892,3.89648c-0.42387,-2.06543 -0.58213,-2.46387 -2.09783,-3.93105c-0.19781,-2.82188 -0.412,-6.16172 -0.06366,-8.95986z" fill="#0189c9"/></g></svg></svg>