<svg id="svg" version="1.1" viewBox="0 0 300 300" width="300" height="300" xmlns="http://www.w3.org/2000/svg"><svg xmlns="http://www.w3.org/2000/svg"><defs><clipPath id="clip-1"><rect x="0" y="0" transform="scale(0.29297,0.29297)" width="1024" height="1024" fill="none"/></clipPath><linearGradient x1="174.73447" y1="129.26895" x2="184.11621" y2="145.49707" gradientUnits="userSpaceOnUse" id="color-1"><stop offset="0" stop-color="#7c9ca4"/><stop offset="1" stop-color="#b2c3c7"/></linearGradient><linearGradient x1="168.58711" y1="151.67842" x2="182.07686" y2="171.25576" gradientUnits="userSpaceOnUse" id="color-2"><stop offset="0" stop-color="#6c8b92"/><stop offset="1" stop-color="#b4c8cd"/></linearGradient><linearGradient x1="143.69678" y1="147.18896" x2="150.79658" y2="162.31348" gradientUnits="userSpaceOnUse" id="color-3"><stop offset="0" stop-color="#30727d"/><stop offset="1" stop-color="#629199"/></linearGradient><linearGradient x1="67.38311" y1="135.49775" x2="44.03174" y2="189.48164" gradientUnits="userSpaceOnUse" id="color-4"><stop offset="0" stop-color="#015049"/><stop offset="1" stop-color="#00776e"/></linearGradient><linearGradient x1="38.39238" y1="133.64326" x2="70.5873" y2="187.45576" gradientUnits="userSpaceOnUse" id="color-5"><stop offset="0" stop-color="#000000"/><stop offset="1" stop-color="#08191d"/></linearGradient><linearGradient x1="26.36842" y1="117.08262" x2="14.42481" y2="135.77871" gradientUnits="userSpaceOnUse" id="color-6"><stop offset="0" stop-color="#253f45"/><stop offset="1" stop-color="#426a70"/></linearGradient><linearGradient x1="38.62178" y1="112.15342" x2="51.64014" y2="147.79453" gradientUnits="userSpaceOnUse" id="color-7"><stop offset="0" stop-color="#000000"/><stop offset="1" stop-color="#042a2c"/></linearGradient><linearGradient x1="227.13252" y1="203.75918" x2="267.76641" y2="145.4124" gradientUnits="userSpaceOnUse" id="color-8"><stop offset="0" stop-color="#a2b1b8"/><stop offset="1" stop-color="#e6eaeb"/></linearGradient><linearGradient x1="194.31533" y1="174.93896" x2="248.54766" y2="176.13896" gradientUnits="userSpaceOnUse" id="color-9"><stop offset="0" stop-color="#c8d3d9"/><stop offset="1" stop-color="#fdfcfa"/></linearGradient><linearGradient x1="249.15703" y1="190.13203" x2="233.13926" y2="180.04922" gradientUnits="userSpaceOnUse" id="color-10"><stop offset="0" stop-color="#5a777d"/><stop offset="1" stop-color="#79919e"/></linearGradient><linearGradient x1="161.08945" y1="198.67881" x2="189.46729" y2="182.68359" gradientUnits="userSpaceOnUse" id="color-11"><stop offset="0" stop-color="#8098a0"/><stop offset="1" stop-color="#a1b4b7"/></linearGradient><linearGradient x1="154.40596" y1="185.04463" x2="158.77764" y2="185.85381" gradientUnits="userSpaceOnUse" id="color-12"><stop offset="0" stop-color="#6c919e"/><stop offset="1" stop-color="#9caeb7"/></linearGradient><linearGradient x1="198.27539" y1="197.49258" x2="190.8085" y2="195.5376" gradientUnits="userSpaceOnUse" id="color-13"><stop offset="0" stop-color="#294f5a"/><stop offset="1" stop-color="#5a838e"/></linearGradient></defs><g clip-path="url(#clip-1)" fill="none" fill-rule="nonzero" stroke="none" stroke-width="1" stroke-linecap="butt" stroke-linejoin="miter" stroke-miterlimit="10" stroke-dasharray="" stroke-dashoffset="0" font-family="none" font-weight="none" font-size="none" text-anchor="none" style="mix-blend-mode: normal"><path d="M21.40772,110.93994c1.06772,-0.38408 2.18376,-1.25215 3.25682,-1.76807c4.71935,-1.93799 8.72364,-5.26113 13.01212,-7.66318c7.56914,-4.23926 16.15459,-8.00889 23.94082,-11.85176l45.41543,-22.7748l39.86309,-19.89639c5.48379,-2.74775 11.9042,-6.11338 17.38389,-8.65078c1.454,-0.67324 11.69238,-0.78457 13.05469,-0.1957c5.71318,2.47002 12.7834,6.37617 18.4708,9.24814l11.47324,5.74248c4.66729,2.3335 9.65859,5.04668 12.37119,9.82002c4.27969,4.29463 4.68926,12.42012 4.40186,18.08965c-0.30527,6.01846 0.33984,12.67266 -0.1248,18.62666c-2.13311,2.971 -6.50156,7.23369 -10.00488,8.17529c-1.33037,6.47197 1.29404,13.321 -1.91982,19.14287c-2.79375,5.81836 -13.04473,10.45225 -18.9082,14.01797c-0.26016,1.09541 -0.45615,1.78447 -0.49424,2.9165c0.05127,5.89687 1.63887,18.73506 -3.63135,22.69746c-2.47295,1.85947 -1.95527,-1.50234 -3.36855,3.51328c-0.14385,1.35674 -0.17021,2.34902 -0.88447,3.52471c-0.99346,-0.69609 -4.65996,1.29258 -6.05098,1.88174c-6.93047,2.93555 -13.11562,0.40078 -19.89785,-1.76074c-0.54258,-0.10605 -2.03291,-0.6665 -2.63291,-0.87598l-0.08789,-1.7959c-2.41318,-1.70303 -4.36816,-3.95068 -5.72637,-6.55107c0,0 -0.84756,-0.26338 -0.93135,-0.28945c-0.8168,0.23555 -1.70889,0.47607 -2.51162,0.7374c-3.90967,2.08564 -8.0502,4.08545 -11.87754,6.2458c-3.09141,1.74492 -5.7375,3.84814 -9.04482,5.50371c-6.4125,3.20977 -12.87451,6.13037 -19.40566,9.08467c-1.13701,0.51445 -1.86475,1.7748 -2.94961,2.41846c-3.74941,2.22451 -13.51055,7.65762 -17.47061,7.62686c-1.17158,2.0877 -2.32969,2.90303 -4.19707,4.31514c-3.02109,1.76895 -6.88008,3.19834 -10.40566,1.76396c-6.36855,-2.59102 -12.51885,-6.12393 -18.72451,-9.14531c-5.97891,-2.91123 -12.04307,-5.73311 -17.88604,-8.89277c-11.93798,-7.57939 -10.60318,-22.05908 -10.50398,-34.36377c0.014,-1.73672 0.16611,-6.38203 -0.27193,-7.87734l-0.50672,0.02754c-5.05386,1.70977 -6.00879,1.37754 -8.22855,-3.77139c-2.66162,-4.59434 -2.74896,-10.31221 -4.0452,-15.56396c2.00027,-5.14512 0.97271,-8.74424 7.75271,-10.38193c0.68578,-0.16582 1.11413,-0.92666 2.29655,-1.05z" fill="#f0f3f3"/><path d="M216.88916,60.78545c0.89619,0.58389 1.68662,1.83955 2.37187,2.74072l0.38877,-0.57627c4.27969,4.29463 4.68926,12.42012 4.40186,18.08965c-0.30527,6.01846 0.33984,12.67266 -0.1248,18.62666c-2.13311,2.971 -6.50156,7.23369 -10.00488,8.17529c-1.33037,6.47197 1.29404,13.321 -1.91982,19.14287c-2.79375,5.81836 -13.04473,10.45225 -18.9082,14.01797c-0.26016,1.09541 -0.45615,1.78447 -0.49424,2.9165c0.05127,5.89687 1.63887,18.73506 -3.63135,22.69746c-2.47295,1.85947 -1.95527,-1.50234 -3.36855,3.51328c-0.14385,1.35674 -0.17021,2.34902 -0.88447,3.52471c-0.99346,-0.69609 -4.65996,1.29258 -6.05098,1.88174c-6.93047,2.93555 -13.11562,0.40078 -19.89785,-1.76074c-0.54258,-0.10605 -2.03291,-0.6665 -2.63291,-0.87598l-0.08789,-1.7959c-2.41318,-1.70303 -4.36816,-3.95068 -5.72637,-6.55107c0,0 -0.84756,-0.26338 -0.93135,-0.28945c-0.8168,0.23555 -1.70889,0.47607 -2.51162,0.7374c-3.90967,2.08564 -8.0502,4.08545 -11.87754,6.2458c-3.09141,1.74492 -5.7375,3.84814 -9.04482,5.50371c-6.4125,3.20977 -12.87451,6.13037 -19.40566,9.08467c-1.13701,0.51445 -1.86475,1.7748 -2.94961,2.41846c-3.74941,2.22451 -13.51055,7.65762 -17.47061,7.62686c0.22178,-0.79687 0.51006,-1.56445 0.80947,-2.33496c2.09355,-5.38887 2.84092,-10.77363 3.29824,-16.49941c0.22646,-2.06836 0.26338,-3.83174 0.3123,-5.91123l0.00059,-3.45498c-0.88418,-1.05557 -2.26201,-3.41543 -3.04482,-4.68662c-2.04756,-5.13369 -3.82441,-11.82305 -6.48398,-16.40537c-0.51006,-1.09687 -1.00137,-2.20254 -1.47363,-3.31641c0.95391,-0.55283 2.84414,-3.27627 3.46172,-4.2416c7.97139,-3.24229 12.34424,-6.41016 19.53809,-10.44961l32.40205,-18.32461c19.4209,-10.85303 39.9835,-19.98896 58.92422,-31.7376c6.26455,-3.88564 12.71074,-6.39287 19.16221,-9.80391c0,0 0.31963,-0.57773 0.35039,-0.6334l-0.13096,-0.27275c-0.9958,0.83789 -3.41953,1.3957 -4.84395,2.07949c-1.72969,0.82969 -3.17725,2.63848 -5.03379,2.61357c0.83291,-3.58477 11.23096,-8.89482 13.51289,-11.71494z" fill="#b4c5ca"/><path d="M201.33516,115.03623c2.67275,-1.54219 10.3415,-6.2332 12.58682,-7.19473c-1.33037,6.47197 1.29404,13.321 -1.91982,19.14287c-2.79375,5.81836 -13.04473,10.45225 -18.9082,14.01797c-0.26016,1.09541 -0.45615,1.78447 -0.49424,2.9165c0.05127,5.89687 1.63887,18.73506 -3.63135,22.69746c-2.47295,1.85947 -1.95527,-1.50234 -3.36855,3.51328c-0.14385,1.35674 -0.17021,2.34902 -0.88447,3.52471c-0.99346,-0.69609 -4.65996,1.29258 -6.05098,1.88174c-6.93047,2.93555 -13.11562,0.40078 -19.89785,-1.76074c-0.54258,-0.10605 -2.03291,-0.6665 -2.63291,-0.87598l-0.08789,-1.7959c-2.41318,-1.70303 -4.36816,-3.95068 -5.72637,-6.55107c0,0 -0.84756,-0.26338 -0.93135,-0.28945c-0.8168,0.23555 -1.70889,0.47607 -2.51162,0.7374c-0.03838,-0.0334 -0.07705,-0.0668 -0.11543,-0.0999c-0.08467,-0.00615 -0.65127,-0.86836 -0.65127,-0.86807c-0.23613,-4.59814 -0.20039,-11.16182 -0.20215,-15.53555c-0.10225,-0.60439 -0.68145,-1.45986 -1.01338,-2.02354l3.62666,-2.18848c1.50117,-1.35 12.11543,-7.04385 14.12637,-7.91924c9.17197,-4.99717 18.31025,-10.05615 27.41455,-15.17607c0.92695,-0.84521 9.73184,-5.39824 11.27344,-6.15322z" fill="url(#color-1)"/><path d="M156.16641,161.02529c1.83691,1.52725 4.95088,0.79424 6.88447,-0.21357c8.91885,-4.64941 17.34551,-10.25156 26.15537,-15.11396c1.23896,-0.68379 2.26201,-0.79775 3.39346,-1.77891c0.05127,5.89687 1.63887,18.73506 -3.63135,22.69746c-2.47295,1.85947 -1.95527,-1.50234 -3.36855,3.51328c-0.14385,1.35674 -0.17021,2.34902 -0.88447,3.52471c-0.99346,-0.69609 -4.65996,1.29258 -6.05098,1.88174c-6.93047,2.93555 -13.11562,0.40078 -19.89785,-1.76074c-0.54258,-0.10605 -2.03291,-0.6665 -2.63291,-0.87598l-0.08789,-1.7959c-2.41318,-1.70303 -4.36816,-3.95068 -5.72637,-6.55107c0,0 -0.84756,-0.26338 -0.93135,-0.28945l-0.01611,-0.09316c0.82354,-0.03369 5.07393,-2.52275 6.79453,-3.14443z" fill="url(#color-2)"/><path d="M156.0457,171.10342c0.7292,0.21563 1.53164,0.62842 2.27607,0.87861c6.4752,2.17646 13.74023,2.90039 20.4,1.12939c2.03525,-0.54111 4.89287,-2.72666 6.87803,-2.98184c-0.14385,1.35674 -0.17021,2.34902 -0.88447,3.52471c-0.99346,-0.69609 -4.65996,1.29258 -6.05098,1.88174c-6.93047,2.93555 -13.11562,0.40078 -19.89785,-1.76074c-0.54258,-0.10605 -2.03291,-0.6665 -2.63291,-0.87598z" fill="#3b575f"/><path d="M156.16641,161.02529c0.96182,-0.44971 1.96992,-0.96504 2.91094,-1.46426c8.76416,-4.65029 17.47148,-9.41191 26.24238,-14.05195c2.65137,-1.40273 5.11318,-3.1333 7.77422,-4.50674c-0.26016,1.09541 -0.45615,1.78447 -0.49424,2.9165c-1.13145,0.98115 -2.15449,1.09512 -3.39346,1.77891c-8.80986,4.8624 -17.23652,10.46455 -26.15537,15.11396c-1.93359,1.00781 -5.04756,1.74082 -6.88447,0.21357z" fill="#5a8792"/><path d="M190.06172,121.18945l0.00352,0.42393c-2.94463,2.23477 -7.06904,4.76514 -9.78896,7.42266c0.28008,0.19893 0.55225,0.3876 0.82061,0.60352c-2.05166,1.15166 -12.14268,7.00371 -13.71064,6.72539c0.68145,-0.41279 1.59346,-0.88213 2.09004,-1.46631c-1.28613,-0.01699 -2.32441,0.05303 -3.58623,0.37354c-1.29668,0.329 -1.91045,1.26328 -3.24287,1.09336c9.17197,-4.99717 18.31025,-10.05615 27.41455,-15.17607z" fill="#5a8792"/><path d="M201.33516,115.03623c2.67275,-1.54219 10.3415,-6.2332 12.58682,-7.19473c-1.33037,6.47197 1.29404,13.321 -1.91982,19.14287c-1.06758,-2.49873 0.3876,-10.21348 -1.29961,-13.03682c-1.88613,-1.26943 -3.47754,1.34619 -5.46943,1.14961c0.77256,-1.25215 1.81348,-0.68174 3.22148,-2.38301c-1.55918,-0.48076 -5.58105,2.34814 -7.11943,2.32207z" fill="#5a8792"/><path d="M148.5208,144.28477c0.88857,1.76221 -2.21074,16.85625 0.85107,19.88496l0.01611,0.09316c-0.8168,0.23555 -1.70889,0.47607 -2.51162,0.7374c-0.03838,-0.0334 -0.07705,-0.0668 -0.11543,-0.0999c-0.08467,-0.00615 -0.65127,-0.86836 -0.65127,-0.86807c-0.23613,-4.59814 -0.20039,-11.16182 -0.20215,-15.53555c-0.10225,-0.60439 -0.68145,-1.45986 -1.01338,-2.02354z" fill="url(#color-3)"/><path d="M90.54873,167.6792c1.28145,0.97441 2.93701,2.21162 4.44111,2.72432c1.41504,0.48838 2.95195,0.49541 4.37139,0.01992c3.37822,-1.09629 11.32061,-5.53594 14.7501,-7.37168c10.38076,-5.55645 20.22305,-11.29775 30.78281,-16.57852c0.33193,0.56367 0.91113,1.41914 1.01338,2.02354c0.00176,4.37373 -0.03398,10.9374 0.20215,15.53555c0,-0.00029 0.5666,0.86191 0.65127,0.86807c0.03838,0.03311 0.07705,0.0665 0.11543,0.0999c-3.90967,2.08564 -8.0502,4.08545 -11.87754,6.2458c-3.09141,1.74492 -5.7375,3.84814 -9.04482,5.50371c-6.4125,3.20977 -12.87451,6.13037 -19.40566,9.08467c-1.13701,0.51445 -1.86475,1.7748 -2.94961,2.41846c-3.74941,2.22451 -13.51055,7.65762 -17.47061,7.62686c0.22178,-0.79687 0.51006,-1.56445 0.80947,-2.33496c2.09355,-5.38887 2.84092,-10.77363 3.29824,-16.49941c0.22646,-2.06836 0.26338,-3.83174 0.3123,-5.91123z" fill="#9bafb5"/><path d="M90.54873,167.6792c1.28145,0.97441 2.93701,2.21162 4.44111,2.72432c1.41504,0.48838 2.95195,0.49541 4.37139,0.01992c3.37822,-1.09629 11.32061,-5.53594 14.7501,-7.37168c10.38076,-5.55645 20.22305,-11.29775 30.78281,-16.57852c0.33193,0.56367 0.91113,1.41914 1.01338,2.02354c-0.2209,-0.01201 -0.48809,-0.02695 -0.80127,-0.04424c-1.80879,1.29229 -4.88437,3.51152 -6.45645,4.87793c-1.87852,0.6668 -3.75645,1.31777 -5.54707,2.1999c-7.50791,3.6999 -29.0165,17.29482 -35.70586,17.53594c-2.61621,0.09404 -4.43262,-1.58672 -6.84873,-1.93213z" fill="#5a8792"/><path d="M90.54814,171.13418c2.41611,0.34541 4.23252,2.02617 6.84873,1.93213c6.68936,-0.24111 28.19795,-13.83604 35.70586,-17.53594c1.79062,-0.88213 3.66855,-1.53311 5.54707,-2.1999c-2.6543,3.13359 -10.45986,5.47178 -14.29102,7.54395c-7.16162,3.87363 -14.21748,8.07803 -21.52998,11.64287c-2.03877,0.97441 -9.27187,1.74316 -11.75039,3.2332c0,0 -0.75703,1.16367 -0.84258,1.29492c0.22646,-2.06836 0.26338,-3.83174 0.3123,-5.91123z" fill="#849da2"/><path d="M210.52148,97.35059c-0.86133,-2.64404 2.18906,-6.59736 5.46855,-5.25967c-0.02461,2.51572 0.06211,5.84443 -1.34971,7.98779c-0.78398,1.19033 -0.0252,2.00332 -0.92314,2.73984c-1.92393,-0.92783 -2.58428,-4.88086 -3.1957,-5.46797z" fill="#92bdaf"/><path d="M210.52148,97.35059c-0.86133,-2.64404 2.18906,-6.59736 5.46855,-5.25967c-0.26953,1.679 -3.99082,4.49707 -5.46855,5.25967z" fill="#5fc786"/><path d="M11.35846,122.37188c2.00027,-5.14512 0.97271,-8.74424 7.75271,-10.38193c0.68578,-0.16582 1.11413,-0.92666 2.29655,-1.05l0.17054,0.49512c1.3972,0.49131 2.52677,0.55811 3.71414,0.97383c5.13855,1.79883 12.94764,4.48008 17.46492,7.26797c6.52881,3.31318 13.80088,6.57773 20.13809,10.06143l4.4584,2.45186c-0.71045,0.36738 -1.26299,0.67998 -2.02969,0.93135c2.81807,1.75635 4.67402,3.00029 7.35762,4.96875l1.41094,0.9791c1.95205,1.88789 4.95615,6.00264 6.92725,7.51787c2.65957,4.58232 4.43643,11.27168 6.48398,16.40537c0.78281,1.27119 2.16064,3.63105 3.04482,4.68662l-0.00059,3.45498c-0.04893,2.07949 -0.08584,3.84287 -0.3123,5.91123c-0.45732,5.72578 -1.20469,11.11055 -3.29824,16.49941c-0.29941,0.77051 -0.5877,1.53809 -0.80947,2.33496c-1.17158,2.0877 -2.32969,2.90303 -4.19707,4.31514c-3.02109,1.76895 -6.88008,3.19834 -10.40566,1.76396c-6.36855,-2.59102 -12.51885,-6.12393 -18.72451,-9.14531c-5.97891,-2.91123 -12.04307,-5.73311 -17.88604,-8.89277c-11.93798,-7.57939 -10.60318,-22.05908 -10.50398,-34.36377c0.014,-1.73672 0.16611,-6.38203 -0.27193,-7.87734l-0.50672,0.02754c-5.05386,1.70977 -6.00879,1.37754 -8.22855,-3.77139c-2.66162,-4.59434 -2.74896,-10.31221 -4.0452,-15.56396z" fill="url(#color-4)"/><path d="M40.65439,131.95576c10.65264,-3.18076 21.61289,2.30654 28.69863,10.18564c7.48008,11.69883 10.00898,25.42646 6.45674,39.34131c-1.12471,4.40654 -6.85693,8.06982 -10.9418,9.78721c-0.55957,-0.0999 -1.11416,-0.22559 -1.66201,-0.37617c-11.35371,-3.1166 -22.54805,-10.01309 -28.48213,-20.45273c-4.72236,-8.43018 -5.90944,-18.38877 -3.30117,-27.69287c1.54863,-5.5251 4.48477,-8.10205 9.23174,-10.79238z" fill="url(#color-5)"/><path d="M46.16543,134.26436c10.30166,-0.82119 18.97061,5.36807 23.70938,14.06104c4.01016,7.35703 4.71738,15.96768 2.68828,24.04277c-1.41826,5.64492 -6.80859,10.45986 -11.67803,13.13291c-7.09863,3.27598 -21.29912,-10.97695 -24.66768,-16.57822c-1.81436,-3.01729 -2.04756,-9.71191 -2.30361,-13.3207c-0.7374,-10.39248 0.03604,-19.40039 12.25166,-21.33779z" fill="#20272d"/><path d="M41.49756,160.60078l-0.07061,0.66943l-0.27568,0.01523c-0.14473,-0.4749 -0.30264,-1.04854 -0.31025,-1.53867c-0.0791,-5.25146 -1.15049,-9.9542 2.68008,-14.19932c4.004,-4.4373 10.57412,-5.82861 15.13682,-1.52197c1.36641,1.28936 2.98037,2.80166 3.0999,4.76572l-1.06113,-0.43271c1.11357,1.63271 3.94893,4.78271 4.67607,6.28857c2.81221,5.82393 3.92461,16.58877 -2.41143,20.5916c-9.67031,5.08242 -19.49268,-6.24053 -21.46377,-14.63789z" fill="#3b575f"/><path d="M41.49756,160.60078l-0.07061,0.66943l-0.27568,0.01523c-0.14473,-0.4749 -0.30264,-1.04854 -0.31025,-1.53867c-0.0791,-5.25146 -1.15049,-9.9542 2.68008,-14.19932c4.004,-4.4373 10.57412,-5.82861 15.13682,-1.52197c1.36641,1.28936 2.98037,2.80166 3.0999,4.76572l-1.06113,-0.43271c-1.99834,-2.38008 -6.4002,-6.07031 -9.4374,-6.01729c-10.29639,0.18018 -10.62891,11.61475 -9.76172,18.25957z" fill="#0b2729"/><path d="M56.18525,149.71289l0.17139,-1.00928c2.41758,-1.24453 6.50742,5.04404 7.58877,6.86895c3.76729,6.35947 -1.47979,13.85684 -8.72754,11.37949c-2.38652,-0.8168 -4.34912,-2.55088 -5.45332,-4.81875c-1.73291,-3.5543 -0.97998,-7.03359 -0.17754,-10.65117c0.49688,0.59414 1.31484,1.63535 1.82783,2.1501c0.70869,-1.87412 2.43721,-4.74492 4.77041,-3.91934z" fill="#0b2729"/><path d="M51.41484,153.63223c0.70869,-1.87412 2.43721,-4.74492 4.77041,-3.91934c0.1166,0.6876 0.42744,2.30156 0.30791,2.92617c-0.59736,3.1207 -3.23057,2.57959 -5.07832,0.99316z" fill="#b4c5ca"/><path d="M11.35846,122.37188c2.00027,-5.14512 0.97271,-8.74424 7.75271,-10.38193c0.68578,-0.16582 1.11413,-0.92666 2.29655,-1.05l0.17054,0.49512c1.3972,0.49131 2.52677,0.55811 3.71414,0.97383c5.13855,1.79883 12.94764,4.48008 17.46492,7.26797c-1.90195,0.02432 -3.58506,0.03457 -5.4873,-0.05654c-3.76436,-1.83164 -6.07676,-2.74863 -10.05964,-4.09893c-0.55433,0.61436 -0.40603,0.31846 -0.57179,1.12148c0.43805,1.32041 -0.68789,5.7334 -1.1054,7.42471c-1.22956,4.98047 -0.70638,10.49414 -1.35199,15.15322c-0.27363,0.89502 -0.24308,1.53369 -0.04228,2.45889l-0.50672,0.02754c-5.05386,1.70977 -6.00879,1.37754 -8.22855,-3.77139c-2.66162,-4.59434 -2.74896,-10.31221 -4.0452,-15.56396z" fill="url(#color-6)"/><path d="M11.35846,122.37188c2.00027,-5.14512 0.97271,-8.74424 7.75271,-10.38193c0.68578,-0.16582 1.11413,-0.92666 2.29655,-1.05l0.17054,0.49512c1.3972,0.49131 2.52677,0.55811 3.71414,0.97383c5.13855,1.79883 12.94764,4.48008 17.46492,7.26797c-1.90195,0.02432 -3.58506,0.03457 -5.4873,-0.05654c-3.76436,-1.83164 -6.07676,-2.74863 -10.05964,-4.09893c-0.55433,0.61436 -0.40603,0.31846 -0.57179,1.12148c-2.63704,-0.00645 -5.58826,-0.80596 -8.5725,-0.08848c-0.83851,0.20186 -1.49903,-0.06064 -2.16357,-0.58711c-3.62766,3.7125 -2.82111,16.62598 0.55793,20.0625l-0.02938,0.64717l-0.9433,-1.18096l-0.32437,0.12949c-0.25869,1.29844 0.25274,1.32188 0.24026,2.31035c-2.66162,-4.59434 -2.74896,-10.31221 -4.0452,-15.56396z" fill="#3ea1ad"/><path d="M15.90252,115.96729c3.05977,-2.49814 8.17608,-2.83828 11.30786,-0.4459c-0.55433,0.61436 -0.40603,0.31846 -0.57179,1.12148c-2.63704,-0.00645 -5.58826,-0.80596 -8.5725,-0.08848c-0.83851,0.20186 -1.49903,-0.06064 -2.16357,-0.58711z" fill="#0b2729"/><path d="M15.40365,137.93584c0.01248,-0.98848 -0.49896,-1.01191 -0.24026,-2.31035l0.32437,-0.12949l0.9433,1.18096l0.02938,-0.64717c1.5048,1.73467 2.76483,3.02783 4.68475,4.36963c1.09816,0.76758 1.82599,0.53525 2.48701,1.30781c-5.05386,1.70977 -6.00879,1.37754 -8.22855,-3.77139z" fill="#1c6c72"/><path d="M27.21038,115.52139c3.98288,1.35029 6.29528,2.26729 10.05964,4.09893c1.90225,0.09111 3.58535,0.08086 5.4873,0.05654c6.52881,3.31318 13.80088,6.57773 20.13809,10.06143l4.4584,2.45186c-0.71045,0.36738 -1.26299,0.67998 -2.02969,0.93135c2.81807,1.75635 4.67402,3.00029 7.35762,4.96875c0.22588,0.81094 0.40664,1.18154 0.09961,1.98369c-0.38672,0.38965 -0.55928,0.62432 -1.07139,0.83994c-6.58506,-7.04883 -11.01504,-8.50957 -19.85654,-12.01465c-2.64551,-1.04883 -5.82363,-2.75859 -8.47178,-4.02158c-7.08311,-5.09443 -13.94619,2.89395 -16.75603,8.97129c-0.6878,1.4877 -0.47004,5.98506 -1.88897,6.75498c-0.45524,-0.57012 -0.43523,-0.63779 -0.55544,-1.38311c0.64562,-4.65908 0.12243,-10.17275 1.35199,-15.15322c0.41751,-1.69131 1.54345,-6.1043 1.1054,-7.42471c0.16576,-0.80303 0.01746,-0.50713 0.57179,-1.12148z" fill="url(#color-7)"/><path d="M42.75732,119.67686c6.52881,3.31318 13.80088,6.57773 20.13809,10.06143c-0.9334,0.12246 -2.1627,0.24258 -3.03721,0.51299l-22.58818,-10.63096c1.90225,0.09111 3.58535,0.08086 5.4873,0.05654z" fill="#009ca0"/><path d="M62.89541,129.73828l4.4584,2.45186c-0.71045,0.36738 -1.26299,0.67998 -2.02969,0.93135c-1.71357,-1.0166 -3.67529,-1.96436 -5.46592,-2.87021c0.87451,-0.27041 2.10381,-0.39053 3.03721,-0.51299z" fill="#3ea1ad"/><path d="M81.93105,200.19492c-0.1541,-2.42432 1.4959,-5.19258 2.18525,-7.83223c2.49932,-9.57129 1.41182,-18.69727 0.61729,-28.36992c-0.0624,-0.76084 1.0708,-1.34531 1.59785,-1.65029l1.17246,0.6501c0.78281,1.27119 2.16064,3.63105 3.04482,4.68662l-0.00059,3.45498c-0.04893,2.07949 -0.08584,3.84287 -0.3123,5.91123c-0.45732,5.72578 -1.20469,11.11055 -3.29824,16.49941c-0.29941,0.77051 -0.5877,1.53809 -0.80947,2.33496c-1.17158,2.0877 -2.32969,2.90303 -4.19707,4.31514z" fill="#0b2729"/><path d="M43.38164,124.87764c2.64814,1.26299 5.82627,2.97275 8.47178,4.02158c8.8415,3.50508 13.27148,4.96582 19.85654,12.01465l0.76143,0.86396c-1.10889,-0.00791 -5.08564,-4.28496 -6.8833,-5.27197l-0.20215,0.41133c1.50029,2.07568 3.04336,2.76182 3.96709,5.22422c-7.08574,-7.8791 -18.046,-13.36641 -28.69863,-10.18564c3.29854,-2.45039 5.76738,-0.92988 8.65547,-2.3001c-0.029,-0.28535 -0.06357,-0.6208 -0.10283,-1.00605c-1.604,-0.96445 -4.65703,-2.18906 -5.73018,-3.61465c-0.03164,-0.05244 -0.06357,-0.10488 -0.09521,-0.15732z" fill="#0b2729"/><path d="M67.35381,132.19014c2.25117,1.27617 4.12207,2.38887 6.19863,3.95273c3.05742,2.42607 3.88242,3.8168 5.99385,7.12793c0.47227,1.11387 0.96357,2.21953 1.47363,3.31641c-1.97109,-1.51523 -4.9752,-5.62998 -6.92725,-7.51787l-1.41094,-0.9791c-2.68359,-1.96846 -4.53955,-3.2124 -7.35762,-4.96875c0.7667,-0.25137 1.31924,-0.56396 2.02969,-0.93135z" fill="#009ca0"/><path d="M226.45986,164.81865c0.88418,-1.59902 -0.55195,-24.88623 -0.07441,-28.58379c0.13477,-1.04326 0.4292,-2.5749 1.41123,-3.15234c3.23291,-1.90107 6.72979,-4.13818 10.56006,-3.55137c6.30059,0.96504 10.3251,4.67871 15.66504,7.56211c3.53906,1.91074 7.34385,3.17549 10.61514,5.54502c1.90107,1.37725 3.01934,2.79258 4.42588,4.58291l1.32246,1.67168c0.78076,3.27949 0.50068,9.04102 0.48574,12.59736l-0.04072,17.51338c0.00293,10.07783 0.51475,21.72539 0.08906,31.58555c-0.11221,3.00557 -0.47578,5.99648 -1.08721,8.94141c-1.54307,-0.11689 -3.47139,0.29795 -4.95879,0.73652l-1.45547,1.0251l-1.34326,0.60293c-0.40635,0.40752 -0.87012,0.80098 -1.1083,1.31455c-4.81025,-1.21641 -12.53701,-5.95488 -17.23447,-8.23799c-4.09043,-1.98809 -13.89199,-6.45234 -16.26826,-9.871c-1.19297,-2.33877 -0.61934,-5.40732 -0.35098,-7.98721l-1.11357,0.05215c-3.67031,0.79512 -7.10391,2.3584 -10.65498,3.55576c-0.84521,0.28477 -1.83604,0.83408 -2.6124,1.01777c-4.53252,1.62305 -11.66221,4.67959 -15.91816,5.59072c-0.08027,-0.79102 0.24551,-3.4125 0.32109,-4.34502c0.3249,-4.00693 0.75234,-9.17285 -0.13564,-13.07842l-1.43701,-2.3373c-1.18037,-1.11562 -1.81699,-1.81934 -3.30791,-2.53154c-2.45449,-1.40889 -4.6708,-1.48828 -6.39023,-3.48838c3.22236,0.15937 3.08232,-0.35273 6.83613,0.22617c-0.90732,-1.14082 -1.65938,-1.5958 -1.08105,-2.96221c0.78574,-0.71338 4.41621,-1.77773 5.85439,-2.34258c2.33174,-1.72969 25.2958,-10.37813 28.98662,-11.65195z" fill="url(#color-8)"/><path d="M226.45986,164.81865c4.71123,0.91377 9.51738,-3.45381 14.97803,-2.83594c1.84893,0.34951 5.38945,2.02471 6.61846,3.39434c0.90762,0.99082 1.36904,1.8208 1.67666,3.1585c1.18799,3.2959 1.01455,13.23838 0.6627,16.76719c-4.90518,5.59072 -14.6918,6.21885 -21.43447,9.04014c-0.8543,0.35742 -3.26924,0.93457 -3.76553,1.23545l0.05449,0.3498c-0.86748,0.3709 -1.87061,0.74414 -2.61914,1.28525c1.12588,0.13125 1.26357,0.03604 2.23037,-0.55693c0.6498,0.12803 0.62813,0.10107 1.1376,0.50918c-3.67031,0.79512 -7.10391,2.3584 -10.65498,3.55576c-0.84521,0.28477 -1.83604,0.83408 -2.6124,1.01777c-4.53252,1.62305 -11.66221,4.67959 -15.91816,5.59072c-0.08027,-0.79102 0.24551,-3.4125 0.32109,-4.34502c0.3249,-4.00693 0.75234,-9.17285 -0.13564,-13.07842l-1.43701,-2.3373c-1.18037,-1.11562 -1.81699,-1.81934 -3.30791,-2.53154c-2.45449,-1.40889 -4.6708,-1.48828 -6.39023,-3.48838c3.22236,0.15937 3.08232,-0.35273 6.83613,0.22617c-0.90732,-1.14082 -1.65938,-1.5958 -1.08105,-2.96221c0.78574,-0.71338 4.41621,-1.77773 5.85439,-2.34258c2.33174,-1.72969 25.2958,-10.37813 28.98662,-11.65195z" fill="#9bafb5"/><path d="M226.45986,164.81865c4.71123,0.91377 9.51738,-3.45381 14.97803,-2.83594c1.84893,0.34951 5.38945,2.02471 6.61846,3.39434c0.90762,0.99082 1.36904,1.8208 1.67666,3.1585c-2.59951,1.2917 -5.33203,2.29658 -8.02881,3.36416c-8.47412,3.35566 -16.7918,7.0916 -25.24131,10.50615c-4.77686,1.93066 -9.6917,3.50098 -14.48145,5.39707c-1.67637,0.6627 -3.32725,1.39102 -4.98252,2.10352l-1.43701,-2.3373c-1.18037,-1.11562 -1.81699,-1.81934 -3.30791,-2.53154c-2.45449,-1.40889 -4.6708,-1.48828 -6.39023,-3.48838c3.22236,0.15937 3.08232,-0.35273 6.83613,0.22617c-0.90732,-1.14082 -1.65938,-1.5958 -1.08105,-2.96221c0.78574,-0.71338 4.41621,-1.77773 5.85439,-2.34258c2.33174,-1.72969 25.2958,-10.37813 28.98662,-11.65195z" fill="url(#color-9)"/><path d="M192.6999,181.77539c-0.90732,-1.14082 -1.65938,-1.5958 -1.08105,-2.96221c0.78574,-0.71338 4.41621,-1.77773 5.85439,-2.34258c-0.89326,1.24893 -1.72617,1.38457 -3.2001,1.92568c0.96035,2.62852 1.64121,5.59687 1.379,8.41875c0.2918,-0.07793 0.54521,-0.14912 0.84697,-0.10518c-0.3457,0.35479 -0.55576,0.54375 -0.93721,0.85928c-1.18037,-1.11562 -1.81699,-1.81934 -3.30791,-2.53154c-2.45449,-1.40889 -4.6708,-1.48828 -6.39023,-3.48838c3.22236,0.15937 3.08232,-0.35273 6.83613,0.22617z" fill="#b4c5ca"/><path d="M225.1957,195.57832l0.05449,0.3498c-0.86748,0.3709 -1.87061,0.74414 -2.61914,1.28525c1.12588,0.13125 1.26357,0.03604 2.23037,-0.55693c0.6498,0.12803 0.62813,0.10107 1.1376,0.50918c-3.67031,0.79512 -7.10391,2.3584 -10.65498,3.55576c-0.84521,0.28477 -1.83604,0.83408 -2.6124,1.01777c2.37539,-2.28369 9.32754,-5.27607 12.46406,-6.16084z" fill="#5a8792"/><path d="M270.38525,148.89287c0.78076,3.27949 0.50068,9.04102 0.48574,12.59736l-0.04072,17.51338c0.00293,10.07783 0.51475,21.72539 0.08906,31.58555c-0.11221,3.00557 -0.47578,5.99648 -1.08721,8.94141c-1.54307,-0.11689 -3.47139,0.29795 -4.95879,0.73652c-0.35361,-7.5835 -1.14902,-64.20967 0.02754,-67.39893c1.7127,-1.30371 3.94717,-2.57344 5.48438,-3.97529z" fill="#9bafb5"/><path d="M248.59834,164.91592c4.62451,4.69365 4.3585,8.23564 4.49414,14.5415c0.03545,1.64473 -0.14414,4.63154 -0.53086,6.2127c-1.2873,3.09756 -3.05742,4.01895 -5.68359,5.42637c-2.43018,1.30254 -10.50176,1.9207 -11.34844,2.43516c-2.03232,0.98525 -4.03242,1.9333 -6.10547,2.83389c-0.6627,0.2877 -1.99424,0.57188 -2.31152,0.74795l-1.11357,0.05215c-0.50947,-0.40811 -0.48779,-0.38115 -1.1376,-0.50918c-0.9668,0.59297 -1.10449,0.68818 -2.23037,0.55693c0.74854,-0.54111 1.75166,-0.91436 2.61914,-1.28525l-0.05449,-0.3498c0.49629,-0.30088 2.91123,-0.87803 3.76553,-1.23545c6.74268,-2.82129 16.5293,-3.44941 21.43447,-9.04014c0.35186,-3.52881 0.52529,-13.47129 -0.6627,-16.76719c-0.30762,-1.3377 -0.76904,-2.16768 -1.67666,-3.1585z" fill="url(#color-10)"/><path d="M264.90088,152.86816c-7.37197,-3.44824 -14.92676,-7.93682 -22.44434,-11.3083c-2.41465,-1.08281 -6.05977,-3.15557 -8.55205,-3.75908l-0.11865,-0.02783l-0.16641,-0.31523l-0.0085,0.02344c1.29697,-0.30029 2.68447,-0.71455 4.00225,-0.86865c2.32441,-0.27187 20.10967,9.84434 23.81074,11.47705c1.8208,0.80332 4.41973,0.14912 6.00322,1.34268l-0.33984,0.9293l0.18838,0.16699c0.73037,-0.85254 1.18301,-1.52666 1.81172,-2.45742l-0.24814,-0.4084l0.22354,-0.4415l1.32246,1.67168c-1.53721,1.40186 -3.77168,2.67158 -5.48437,3.97529z" fill="#f0f3f3"/><path d="M235.52959,193.53164c0.84668,-0.51445 8.91826,-1.13262 11.34844,-2.43516c2.62617,-1.40742 4.39629,-2.32881 5.68359,-5.42637c-0.38701,3.12217 -1.61543,7.74756 -4.28906,9.65098l0.54199,-1.00752c-2.42607,2.55762 -4.05029,4.69014 -7.81406,3.76113c-0.24756,0.21943 -0.45498,0.40752 -0.71807,0.60908c-2.08975,-1.56709 -1.54541,-4.12236 -4.75283,-5.15215z" fill="#849da2"/><path d="M227.46357,205.10068c3.52734,0.08086 28.02422,14.66367 34.61104,16.79443c-0.40635,0.40752 -0.87012,0.80098 -1.1083,1.31455c-4.81025,-1.21641 -12.53701,-5.95488 -17.23447,-8.23799c-4.09043,-1.98809 -13.89199,-6.45234 -16.26826,-9.871z" fill="#20272d"/><path d="M241.43789,161.98271c2.88047,-1.5665 5.02793,1.47334 7.16045,2.9332l-0.54199,0.46113c-1.229,-1.36963 -4.76953,-3.04482 -6.61846,-3.39434z" fill="#9bafb5"/><path d="M256.83457,154.21113c0.36768,0.06445 0.6999,0.25225 1.04121,0.41396c1.39072,2.08477 2.64258,3.5918 0.92168,5.81719c-0.46729,-0.06592 -0.91816,-0.18574 -1.37812,-0.29473c-2.35371,-1.89316 -2.56992,-3.58066 -0.58477,-5.93643z" fill="#3b575f"/><path d="M232.48066,142.53223c3.55518,0.37412 3.50215,3.37207 2.44687,6.11426c-3.5833,-0.4248 -3.58535,-3.40107 -2.44687,-6.11426z" fill="#3b575f"/><path d="M255.75527,205.85742c1.59756,-0.04746 2.10439,-0.17256 2.84531,1.44346c0.60029,1.30957 0.52354,3.59004 0.06826,4.91543c-2.30479,-0.77402 -3.43828,-4.13086 -2.91357,-6.35889z" fill="#3b575f"/><path d="M230.68125,201.14648c1.55771,-0.25107 2.17295,-0.63193 3.22998,0.58506c0.15059,1.10068 0.18604,1.31279 0.01963,2.4126c-1.90957,-0.44912 -2.73633,-1.04941 -3.24961,-2.99766z" fill="#20272d"/><path d="M156.13359,172.89932c0.6,0.20947 2.09033,0.76992 2.63291,0.87598c6.78223,2.16152 12.96738,4.69629 19.89785,1.76074c1.39102,-0.58916 5.05752,-2.57783 6.05098,-1.88174c-0.23291,2.41436 -0.17754,4.95762 -0.17139,7.39219l0.42539,0.28799l0.89443,0.21475c1.71943,2.0001 3.93574,2.07949 6.39023,3.48838c1.49092,0.71221 2.12754,1.41592 3.30791,2.53154l1.43701,2.3373c0.88799,3.90557 0.46055,9.07148 0.13564,13.07842c-0.07559,0.93252 -0.40137,3.554 -0.32109,4.34502l-1.51055,1.15957c-2.2374,1.04502 -4.59463,1.81201 -7.01895,2.2834c-6.39785,3.95859 -14.78232,3.71396 -21.496,0.77549c-2.59189,-1.00225 -6.72627,-4.05703 -8.13809,-6.45117c-3.71631,-3.52207 -2.86758,-26.48027 -2.51631,-32.19785z" fill="url(#color-11)"/><path d="M156.13359,172.89932c0.6,0.20947 2.09033,0.76992 2.63291,0.87598l-0.59326,0.43389c-0.45791,3.03896 0.5625,4.16221 0.26221,7.46074l0.00645,0.24141c0.02666,1.19502 -0.38379,2.8749 0.0375,3.39404c0.29736,-0.1377 0.68672,-0.31758 1.16748,-0.53994c1.91045,0.43652 3.89619,1.20029 5.74072,1.84805c0.44502,0.15615 0.69902,0.28916 0.97969,0.43271c-0.19717,-1.27646 -0.55195,-2.49023 -0.88828,-3.73564c2.36953,1.88701 1.86445,22.51348 2.05371,26.56699c0.01729,0.37324 -0.53496,1.29756 -0.74473,1.6708c-2.59189,-1.00225 -6.72627,-4.05703 -8.13809,-6.45117c-3.71631,-3.52207 -2.86758,-26.48027 -2.51631,-32.19785z" fill="#b4c5ca"/><path d="M156.13359,172.89932c0.6,0.20947 2.09033,0.76992 2.63291,0.87598l-0.59326,0.43389c-0.45791,3.03896 0.5625,4.16221 0.26221,7.46074c-1.03037,1.91484 -0.77959,15.89326 -0.59971,18.86924c0.07852,1.30078 0.86719,3.77871 0.81416,4.55801c-3.71631,-3.52207 -2.86758,-26.48027 -2.51631,-32.19785z" fill="url(#color-12)"/><path d="M184.96934,181.33447l0.89443,0.21475c1.71943,2.0001 3.93574,2.07949 6.39023,3.48838l-0.04512,0.3668l1.00342,0.80801l-0.06855,0.62021l-0.41338,0.32783l-1.04941,-0.80742c-0.37734,0.23877 -0.28682,0.08438 -0.44678,0.41748l1.6292,1.05469c-0.19014,0.20889 -1.38369,1.55127 -1.45928,1.6084c-1.89639,0.75703 -3.46553,1.28203 -5.51924,0.60762c-0.64131,-3.31523 -0.39785,-6.34307 -0.91553,-8.70674z" fill="#5a8792"/><path d="M191.4041,189.43359c-1.03564,-0.81211 -2.53359,-0.77051 -3.13271,-2.19785c1.0251,-0.77812 1.57412,-0.5625 2.96279,-0.46523l1.6292,1.05469c-0.19014,0.20889 -1.38369,1.55127 -1.45928,1.6084z" fill="#9bafb5"/><path d="M191.23418,186.77051c0.15996,-0.33311 0.06943,-0.17871 0.44678,-0.41748l1.04941,0.80742l0.41338,-0.32783l0.06855,-0.62021l-1.00342,-0.80801l0.04512,-0.3668c1.49092,0.71221 2.12754,1.41592 3.30791,2.53154l1.43701,2.3373c0.88799,3.90557 0.46055,9.07148 0.13564,13.07842c-0.07559,0.93252 -0.40137,3.554 -0.32109,4.34502l-1.51055,1.15957l-0.5332,-1.85186c1.12412,-4.1335 1.41475,-11.79404 0.34775,-15.89854c-0.67295,-1.49209 -1.02305,-1.87412 -2.2541,-2.91387z" fill="url(#color-13)"/><path d="M192.86338,187.8252c1.23105,1.03975 1.58115,1.42178 2.2541,2.91387c-0.54609,1.12734 -5.72754,2.36953 -7.1915,2.8374c-0.99639,-0.54902 -2.30332,-1.16719 -2.78789,-2.15537c0.03984,-0.85869 -0.03252,-0.53555 0.74678,-1.37988c2.05371,0.67441 3.62285,0.14941 5.51924,-0.60762c0.07559,-0.05713 1.26914,-1.39951 1.45928,-1.6084z" fill="#b4c5ca"/><path d="M194.76973,206.6376l0.5332,1.85186c-2.2374,1.04502 -4.59463,1.81201 -7.01895,2.2834c1.28672,-1.66494 4.44375,-2.52949 6.48574,-4.13525z" fill="#3b575f"/><path d="M264.87334,220.26709c1.4874,-0.43857 3.41572,-0.85342 4.95879,-0.73652c-0.73857,1.80645 -2.95254,3.43271 -4.85859,3.70078c-1.36875,0.06357 -2.64199,0.01699 -4.00723,-0.02168c0.23818,-0.51357 0.70195,-0.90703 1.1083,-1.31455l1.34326,-0.60293z" fill="#0b2729"/><path d="M263.41787,221.29219c0.85166,0.77227 1.04854,0.91143 1.55566,1.93916c-1.36875,0.06357 -2.64199,0.01699 -4.00723,-0.02168c0.23818,-0.51357 0.70195,-0.90703 1.1083,-1.31455z" fill="#060c13"/></g></svg></svg>