<svg id="svg" version="1.1" viewBox="0 0 300 300" width="300" height="300" xmlns="http://www.w3.org/2000/svg"><svg xmlns="http://www.w3.org/2000/svg"><defs><clipPath id="clip-1"><rect x="0" y="0" transform="scale(0.29297,0.29297)" width="1024" height="1024" fill="none"/></clipPath><linearGradient x1="143.36074" y1="196.14287" x2="157.60459" y2="195.55283" gradientUnits="userSpaceOnUse" id="color-1"><stop offset="0" stop-color="#00123c"/><stop offset="1" stop-color="#03385c"/></linearGradient><linearGradient x1="201.34775" y1="249.08086" x2="205.78652" y2="256.20352" gradientUnits="userSpaceOnUse" id="color-2"><stop offset="0" stop-color="#a9a4a7"/><stop offset="1" stop-color="#d1d2d3"/></linearGradient><linearGradient x1="112.53574" y1="86.44512" x2="111.64863" y2="88.32305" gradientUnits="userSpaceOnUse" id="color-3"><stop offset="0" stop-color="#002158"/><stop offset="1" stop-color="#014693"/></linearGradient><linearGradient x1="100.85186" y1="93.28008" x2="103.2876" y2="87.83994" gradientUnits="userSpaceOnUse" id="color-4"><stop offset="0" stop-color="#9fcff0"/><stop offset="1" stop-color="#d0d5e3"/></linearGradient><linearGradient x1="90.41279" y1="183.15938" x2="87.44033" y2="193.81582" gradientUnits="userSpaceOnUse" id="color-5"><stop offset="0" stop-color="#000117"/><stop offset="1" stop-color="#001837"/></linearGradient></defs><g clip-path="url(#clip-1)" fill="none" fill-rule="nonzero" stroke="none" stroke-width="1" stroke-linecap="butt" stroke-linejoin="miter" stroke-miterlimit="10" stroke-dasharray="" stroke-dashoffset="0" font-family="none" font-weight="none" font-size="none" text-anchor="none" style="mix-blend-mode: normal"><path d="M60.98525,64.28057c3.54229,-1.33623 13.15371,-7.51172 17.18555,-9.89385l45.80742,-26.75634c7.21318,-4.20258 15.49395,-9.63264 23.03965,-12.78896c6.66943,-2.78974 18.50156,4.26311 24.57041,7.1601l23.1583,10.99849l30.07178,14.28838c4.3626,2.08594 8.86875,4.08574 13.21084,6.22236c1.60518,0.78955 2.654,2.17822 3.65273,3.61729c0.99434,1.88584 1.4124,3.47842 1.43701,5.625c0.1374,12.03105 0.06211,24.13271 0.05947,36.16143l0.00557,68.59102l0.00645,33.98408c0.00557,3.87422 0.49805,17.61445 -0.73916,20.50752c1.61396,0.02988 3.22764,0.07559 4.84043,0.1374c-0.09316,0.57451 -0.62197,3.87041 -0.82061,4.15283c-4.06787,5.7873 -10.10449,9.01729 -15.66299,13.07051c-2.4375,2.03057 -4.60693,4.58437 -7.17803,6.4459c-3.25107,2.30684 -7.80762,3.42451 -11.06045,5.59014c-11.92061,7.93652 -23.54678,16.05029 -36.00615,23.15039c-4.80967,2.74072 -9.98525,6.31025 -15.49248,7.61631c-3.40283,0.80684 -7.78037,1.91133 -11.27783,1.76338c-2.22803,0.38555 -4.41064,1.79443 -7.00781,1.34355c-10.12939,-1.75898 -17.74629,-4.36963 -26.8166,-9.13535c-5.00889,-1.36641 -8.2125,-3.31787 -12.83145,-5.42578c-3.62285,-1.65322 -7.43818,-2.87842 -10.96758,-4.84775c-4.25947,-2.37686 -9.77402,-6.36328 -13.92686,-8.52715c-1.5709,-0.81387 -3.12803,-1.6541 -4.6708,-2.52012c-2.91064,-1.12412 -9.375,-4.38223 -12.05654,-5.95459c-1.26855,-0.51182 -7.26914,-6.99639 -8.44717,-8.37715l0.19951,-0.35332c1.0708,-0.41045 2.11143,-0.27217 3.25664,-0.21709l-0.59736,-2.71201c-1.9752,-6.13945 -1.09277,-36.68027 -1.09365,-44.81982l-0.00322,-69.60557l-0.02578,-32.7668c-0.00352,-3.43975 -0.20918,-13.44961 0.24287,-16.23721c0.05801,-4.49766 2.01152,-7.39453 5.93789,-9.48721zM63.11191,120.64541c-0.8165,7.83223 -0.47959,23.77969 0.28301,31.94092c0.08174,0.87158 1.11475,2.20723 1.67607,2.90303c0.3123,0.38965 0.64307,0.76406 0.99053,1.12266c-1.0585,1.3002 -1.7751,2.12227 -2.96221,3.32871c-0.35332,4.125 -1.10537,29.62588 0.67969,32.01709c0.55723,0.74619 1.65088,1.41387 2.45186,1.88906l-0.43506,0.71924c-1.3377,1.06113 -2.75801,1.846 -2.72109,3.65947c0.20654,10.09805 -0.9791,22.4959 -0.04248,32.34785c3.58184,3.4834 12.15937,7.14814 16.8917,9.47871l17.13926,8.47588c5.76182,2.86934 36.43857,19.40068 40.18037,18.10225c1.22783,-2.65518 1.38252,-34.65908 -0.01348,-35.95488l-0.47695,-0.0375c0.87686,-0.77373 0.61963,-0.37471 0.94922,-1.52666c-0.13359,-1.00107 -0.1875,-1.10303 -0.90938,-1.81055c0.25635,-0.00293 0.39492,-0.11074 0.66182,-0.2291c0.52441,-1.15342 0.44883,-30.84023 0.28271,-33.69639c-0.15088,-1.4543 -0.04717,-3.60146 -0.01934,-5.11318c0.34248,-10.14375 0.53965,-23.31387 -0.07178,-33.51035c-1.17627,-0.46934 -1.85068,-0.6498 -2.73018,-1.54658l-0.23408,-0.67354c0.66211,-1.24072 1.55977,-1.36816 2.96396,-1.88057c0.25781,-6.71309 0.20391,-13.4332 0.12422,-20.15127c-0.03516,-2.96045 0.15498,-9.31582 -0.32637,-11.94463c-2.52979,-2.72637 -9.90703,-5.77383 -13.47187,-7.54893c-8.52275,-4.32041 -17.10205,-8.52832 -25.73584,-12.62256c-9.31055,-4.49502 -18.48516,-9.14473 -27.71748,-13.80117c-1.19736,-0.60381 -3.51387,-1.38926 -4.86387,-1.62656c-0.28828,-0.05068 -0.71309,0.39873 -0.94688,0.64307c-2.25088,2.35166 -1.96318,6.69141 -1.94092,9.71191c0.03252,4.3998 0.1084,8.70967 0.12832,13.10244c0.00908,1.98896 -0.22852,4.14873 -0.02754,6.07031c0.0832,0.79629 0.70166,2.28018 1.3125,2.81104c0.76963,0.66855 2.1999,1.42881 3.14795,1.92012c-0.98496,0.77227 -3.45381,2.62793 -4.21641,3.43066z" fill="#044279"/><path d="M241.68193,57.12803c0.99434,1.88584 1.4124,3.47842 1.43701,5.625c0.1374,12.03105 0.06211,24.13271 0.05947,36.16143l0.00557,68.59102l0.00645,33.98408c0.00557,3.87422 0.49805,17.61445 -0.73916,20.50752c1.61396,0.02988 3.22764,0.07559 4.84043,0.1374c-0.09316,0.57451 -0.62197,3.87041 -0.82061,4.15283c-4.06787,5.7873 -10.10449,9.01729 -15.66299,13.07051c-2.4375,2.03057 -4.60693,4.58437 -7.17803,6.4459c-3.25107,2.30684 -7.80762,3.42451 -11.06045,5.59014c-11.92061,7.93652 -23.54678,16.05029 -36.00615,23.15039c-4.80967,2.74072 -9.98525,6.31025 -15.49248,7.61631c-3.40283,0.80684 -7.78037,1.91133 -11.27783,1.76338c-2.22803,0.38555 -4.41064,1.79443 -7.00781,1.34355c-10.12939,-1.75898 -17.74629,-4.36963 -26.8166,-9.13535c-5.00889,-1.36641 -8.2125,-3.31787 -12.83145,-5.42578c-3.62285,-1.65322 -7.43818,-2.87842 -10.96758,-4.84775c-4.25947,-2.37686 -9.77402,-6.36328 -13.92686,-8.52715c-1.5709,-0.81387 -3.12803,-1.6541 -4.6708,-2.52012c-2.91064,-1.12412 -9.375,-4.38223 -12.05654,-5.95459c-1.26855,-0.51182 -7.26914,-6.99639 -8.44717,-8.37715l0.19951,-0.35332c1.0708,-0.41045 2.11143,-0.27217 3.25664,-0.21709l-0.59736,-2.71201c0.62812,0.66709 0.87568,1.03916 1.29316,1.85654c2.775,1.46953 11.02617,4.32129 12.85693,5.64961c4.10947,2.98213 43.91514,20.59834 45.39229,22.64561c4.96699,2.26846 9.8918,4.62715 14.77266,7.0749c3.31289,1.63242 6.48545,3.38379 10.01162,4.51875c5.5916,1.8 6.90586,-0.83467 7.29023,-5.94258c0.55371,-7.35879 0.21973,-14.67422 0.17461,-22.02627l0.06914,-29.13545l0.18076,-76.30049c-0.02021,-9.19922 -0.21768,-18.51152 0.11631,-27.68203c0.03545,-0.97061 3.13096,-3.90059 3.80039,-4.64326c1.17275,-1.30107 2.04287,-0.60732 2.28633,-2.64463l-0.08906,-0.45674c-0.25869,-0.57451 -0.1418,-1.07578 -0.08906,-1.72061l1.60635,-0.2666c7.27617,-4.78945 15.41689,-9.05244 23.01797,-13.42734l40.51201,-23.3707c3.08115,-1.77187 20.35928,-11.25645 21.42275,-12.98437c0.13682,-0.55752 0.60088,-0.7749 1.12939,-1.21348z" fill="#002545"/><path d="M154.17158,110.56787c1.54951,4.40361 0.92725,28.22461 0.84287,33.96416c-0.17988,9.31201 -0.27627,18.62549 -0.28916,27.93926l0.03662,42.92725c0.20098,20.03145 0.62842,40.13613 0.01934,60.18896c-5.47705,5.46855 -8.30596,3.3167 -13.69395,4.22666c-1.06318,-0.00908 -23.35957,-10.76924 -26.03965,-12.14648l0.42188,-0.31875c4.96699,2.26846 9.8918,4.62715 14.77266,7.0749c3.31289,1.63242 6.48545,3.38379 10.01162,4.51875c5.5916,1.8 6.90586,-0.83467 7.29023,-5.94258c0.55371,-7.35879 0.21973,-14.67422 0.17461,-22.02627l0.06914,-29.13545l0.18076,-76.30049c-0.02021,-9.19922 -0.21768,-18.51152 0.11631,-27.68203c0.03545,-0.97061 3.13096,-3.90059 3.80039,-4.64326c1.17275,-1.30107 2.04287,-0.60732 2.28633,-2.64463z" fill="url(#color-1)"/><path d="M242.45127,221.99707c1.61396,0.02988 3.22764,0.07559 4.84043,0.1374c-0.09316,0.57451 -0.62197,3.87041 -0.82061,4.15283c-4.06787,5.7873 -10.10449,9.01729 -15.66299,13.07051c-2.4375,2.03057 -4.60693,4.58437 -7.17803,6.4459c-3.25107,2.30684 -7.80762,3.42451 -11.06045,5.59014c-11.92061,7.93652 -23.54678,16.05029 -36.00615,23.15039c-4.80967,2.74072 -9.98525,6.31025 -15.49248,7.61631c-3.40283,0.80684 -7.78037,1.91133 -11.27783,1.76338c-2.22803,0.38555 -4.41064,1.79443 -7.00781,1.34355c-10.12939,-1.75898 -17.74629,-4.36963 -26.8166,-9.13535c-5.00889,-1.36641 -8.2125,-3.31787 -12.83145,-5.42578c-3.62285,-1.65322 -7.43818,-2.87842 -10.96758,-4.84775c-4.25947,-2.37686 -9.77402,-6.36328 -13.92686,-8.52715c-1.5709,-0.81387 -3.12803,-1.6541 -4.6708,-2.52012c-2.91064,-1.12412 -9.375,-4.38223 -12.05654,-5.95459c-1.26855,-0.51182 -7.26914,-6.99639 -8.44717,-8.37715l0.19951,-0.35332c1.0708,-0.41045 2.11143,-0.27217 3.25664,-0.21709c1.12324,0.94805 0.99375,2.32588 3.81504,3.79131c8.89512,4.58525 17.81807,8.5125 26.84883,12.85752c17.41729,8.38066 34.67432,17.82217 52.42881,25.39717c2.31094,0.98613 8.36309,1.09893 10.61484,0.01553c6.3208,-3.04043 12.44531,-7.31689 18.554,-10.92422c14.31562,-8.37422 28.55186,-16.8835 42.70693,-25.52607c6.15234,-3.61699 12.24141,-7.34004 18.26455,-11.16768c2.82686,-1.78916 5.83564,-3.64307 8.53154,-5.61152c1.58555,-1.15811 2.88867,-4.08164 3.83936,-5.91533z" fill="#b0acae"/><path d="M242.45127,221.99707c1.61396,0.02988 3.22764,0.07559 4.84043,0.1374c-0.09316,0.57451 -0.62197,3.87041 -0.82061,4.15283c-4.06787,5.7873 -10.10449,9.01729 -15.66299,13.07051c-2.4375,2.03057 -4.60693,4.58437 -7.17803,6.4459c-3.25107,2.30684 -7.80762,3.42451 -11.06045,5.59014c-11.92061,7.93652 -23.54678,16.05029 -36.00615,23.15039c-4.80967,2.74072 -9.98525,6.31025 -15.49248,7.61631c-3.40283,0.80684 -7.78037,1.91133 -11.27783,1.76338c1.12617,-0.27744 1.61074,-1.62305 2.26992,-1.75986c6.75,-1.4001 13.92422,-7.05117 19.86709,-10.64883l31.59961,-19.39365c5.8292,-3.49951 11.84326,-6.73594 17.63818,-10.27969c3.77168,-2.71436 8.14629,-5.09443 11.80664,-7.91104c5.36543,-4.12822 11.1999,-3.3665 9.15381,-11.10498z" fill="url(#color-2)"/><path d="M78.24287,257.33145c0.97148,-0.4541 1.26006,-0.67002 2.37568,-0.225c11.44951,4.56563 21.69229,11.79258 33.09521,16.53662c0.72832,0.30293 1.89316,1.52432 2.3751,2.1709l-0.12012,0.31816c-5.00889,-1.36641 -8.2125,-3.31787 -12.83145,-5.42578c-3.62285,-1.65322 -7.43818,-2.87842 -10.96758,-4.84775c-4.25947,-2.37686 -9.77402,-6.36328 -13.92686,-8.52715z" fill="#c7c4c6"/><path d="M61.51553,248.85674c1.14873,-0.00791 2.59043,-0.36826 3.49131,0.09082c2.87285,1.46455 5.63496,3.0835 8.27432,4.93301c0.14883,0.39346 0.21328,0.50889 0.29092,0.93076c-2.91064,-1.12412 -9.375,-4.38223 -12.05654,-5.95459z" fill="#c7c4c6"/><path d="M154.08252,110.11113c0.16025,-0.43359 0.28975,-0.91318 0.5833,-1.25566l0.5751,-0.13418c1.9626,1.59521 1.47305,16.05908 1.48271,19.14668l0.0958,25.79531l0.24639,87.41602c0.03721,6.36299 -0.08672,12.75967 -0.08555,19.11094c0.00088,3.53057 -0.16611,10.68252 0.60293,13.92422c1.60195,-0.22764 9.09492,-5.31533 11.17676,-6.55225l49.72119,-29.86846l12.41016,-7.30459c1.33535,-0.76992 4.12998,-2.13369 5.22773,-2.87256l0.07764,0.33076c-2.22891,2.04961 -3.28271,2.06191 -5.66426,3.53437c-4.25098,2.62822 -8.66309,5.05723 -12.92754,7.62598c-2.72959,1.64385 -5.50898,3.63457 -8.31357,5.34668c-13.52637,8.12637 -27.10342,16.16777 -40.73086,24.12363c-6.73535,3.96299 -19.55859,14.45625 -27.47314,11.33613c5.38799,-0.90996 8.21689,1.24189 13.69395,-4.22666c0.60908,-20.05283 0.18164,-40.15752 -0.01934,-60.18896l-0.03662,-42.92725c0.01289,-9.31377 0.10928,-18.62725 0.28916,-27.93926c0.08438,-5.73955 0.70664,-29.56055 -0.84287,-33.96416z" fill="#001227"/><path d="M60.98525,64.28057c3.54229,-1.33623 13.15371,-7.51172 17.18555,-9.89385l45.80742,-26.75634c7.21318,-4.20258 15.49395,-9.63264 23.03965,-12.78896c6.66943,-2.78974 18.50156,4.26311 24.57041,7.1601l23.1583,10.99849l30.07178,14.28838c4.3626,2.08594 8.86875,4.08574 13.21084,6.22236c1.60518,0.78955 2.654,2.17822 3.65273,3.61729c-0.52852,0.43857 -0.99258,0.65596 -1.12939,1.21348c-1.06348,1.72793 -18.3416,11.2125 -21.42275,12.98437l-40.51201,23.3707c-7.60107,4.3749 -15.7418,8.63789 -23.01797,13.42734l-1.60635,0.2666l-0.60029,0.33457c-0.84316,-0.75264 -1.38047,-1.11738 -2.32471,-1.74756c-1.58467,1.13994 -2.21133,1.275 -3.61758,2.15244c-1.14785,0.60293 -1.89844,1.07754 -3.22998,0.92432c-6.59473,-3.71074 -13.04385,-6.54727 -19.73291,-9.88623l-37.86738,-18.79043c-8.92295,-4.35586 -18.37207,-8.54502 -26.72344,-13.86533l-0.17109,-0.40928c0.04482,-1.03096 0.71162,-1.91895 1.25918,-2.82246z" fill="#0d5faa"/><path d="M153.65449,106.82402c9.2499,-5.81748 18.50508,-10.76953 27.96621,-16.21582l43.17305,-24.80449c2.75596,-1.54922 11.89629,-7.44346 13.96494,-8.09209c1.18477,0.14795 1.05996,-0.05508 1.79385,0.62988c-1.06348,1.72793 -18.3416,11.2125 -21.42275,12.98437l-40.51201,23.3707c-7.60107,4.3749 -15.7418,8.63789 -23.01797,13.42734c-0.8083,-0.23789 -1.29111,-0.74941 -1.94531,-1.2999z" fill="#579ddb"/><path d="M151.06846,106.97754c-4.6002,-2.83535 -9.35654,-4.50586 -14.01445,-7.06494c-17.68301,-9.71514 -36.67236,-16.51846 -54.41074,-26.01475c-3.43184,-1.83721 -10.50352,-5.09355 -13.33447,-7.22197l0.21973,-0.12744c7.16572,1.89463 21.10547,10.0582 28.49502,13.55098l41.76533,19.84893c2.48848,1.20527 12.404,5.65195 13.86562,6.87568c0.6542,0.55049 1.13701,1.06201 1.94531,1.2999l-1.60635,0.2666l-0.60029,0.33457c-0.84316,-0.75264 -1.38047,-1.11738 -2.32471,-1.74756z" fill="url(#color-3)"/><path d="M59.89717,67.5123c8.35137,5.32031 17.80049,9.50947 26.72344,13.86533l37.86738,18.79043c6.68906,3.33896 13.13818,6.17549 19.73291,9.88623l0.05127,0.19893c0.21709,0.81475 0.28887,0.99609 0.71104,1.77217l-0.04307,0.62139c-1.02803,0.14561 -0.7998,0.0627 -1.87295,-0.38145c-4.49385,-3.35244 -12.58477,-7.06465 -17.84531,-9.72129c-12.48984,-6.2918 -25.04121,-12.46113 -37.65176,-18.50742l-16.15371,-8.00947c-3.14443,-1.56826 -8.28867,-4.29697 -11.46943,-5.24355c-0.79541,-0.06592 -0.94717,-0.06035 -1.64561,-0.43418l-0.09932,-0.59297c0.57656,-0.84932 1.04502,-1.44756 1.69512,-2.24414z" fill="url(#color-4)"/><path d="M55.04736,73.76777c0.05801,-4.49766 2.01152,-7.39453 5.93789,-9.48721c-0.54756,0.90352 -1.21436,1.7915 -1.25918,2.82246l0.17109,0.40928c-0.6501,0.79658 -1.11855,1.39482 -1.69512,2.24414l0.09932,0.59297c0.69844,0.37383 0.8502,0.36826 1.64561,0.43418l-0.26396,0.06357c-1.43496,0.33955 -2.8377,0.104 -3.61465,0.79746c-0.99434,1.66055 -0.32051,4.76191 -0.74795,5.45947c-0.19834,-1.00488 -0.22207,-2.2916 -0.27305,-3.33633z" fill="#002d58"/><path d="M144.2209,110.0543c1.33154,0.15322 2.08213,-0.32139 3.22998,-0.92432c0.68906,0.77461 0.90381,1.01074 1.43555,1.92188c-1.00195,0.29209 -1.52842,0.34687 -2.12197,1.19473c-0.58564,1.96494 0.49043,3.14736 -0.15,4.47949l-0.82852,0.04102c-0.97441,-1.0418 -0.08701,-1.79971 -2.71875,-4.50176c1.07314,0.44414 0.84492,0.52705 1.87295,0.38145l0.04307,-0.62139c-0.42217,-0.77607 -0.49395,-0.95742 -0.71104,-1.77217z" fill="#88bcec"/><path d="M151.06846,106.97754c0.94424,0.63018 1.48154,0.99492 2.32471,1.74756l0.04658,0.98262c-0.78018,0.63047 -3.32666,1.00107 -4.55332,1.34414c-0.53174,-0.91113 -0.74648,-1.14727 -1.43555,-1.92187c1.40625,-0.87744 2.03291,-1.0125 3.61758,-2.15244z" fill="#579ddb"/><path d="M67.32832,117.21475c-0.94805,-0.49131 -2.37832,-1.25156 -3.14795,-1.92012c-0.61084,-0.53086 -1.2293,-2.01475 -1.3125,-2.81104c-0.20098,-1.92158 0.03662,-4.08135 0.02754,-6.07031c-0.01992,-4.39277 -0.0958,-8.70264 -0.12832,-13.10244c-0.02227,-3.02051 -0.30996,-7.36025 1.94092,-9.71191c0.23379,-0.24434 0.65859,-0.69375 0.94688,-0.64307c1.35,0.2373 3.6665,1.02275 4.86387,1.62656c9.23232,4.65645 18.40693,9.30615 27.71748,13.80117c8.63379,4.09424 17.21309,8.30215 25.73584,12.62256c3.56484,1.7751 10.94209,4.82256 13.47187,7.54893c0.48135,2.62881 0.29121,8.98418 0.32637,11.94463c0.07969,6.71807 0.13359,13.43818 -0.12422,20.15127c-1.4042,0.5124 -2.30186,0.63984 -2.96396,1.88057l0.23408,0.67354c0.87949,0.89678 1.55391,1.07725 2.73018,1.54658c0.61143,10.19648 0.41426,23.3666 0.07178,33.51035c-0.02783,1.51172 -0.13154,3.65889 0.01934,5.11318c0.16611,2.85615 0.2417,32.54297 -0.28271,33.69639c-0.26689,0.11836 -0.40547,0.22617 -0.66182,0.2291c0.72188,0.70752 0.77578,0.80947 0.90938,1.81055c-0.32959,1.15195 -0.07236,0.75293 -0.94922,1.52666l0.47695,0.0375c1.396,1.2958 1.24131,33.29971 0.01348,35.95488c-3.7418,1.29844 -34.41855,-15.23291 -40.18037,-18.10225l-17.13926,-8.47588c-4.73232,-2.33057 -13.30986,-5.99531 -16.8917,-9.47871c-0.93662,-9.85195 0.24902,-22.2498 0.04248,-32.34785c-0.03691,-1.81348 1.3834,-2.59834 2.72109,-3.65947l0.43506,-0.71924c-0.80098,-0.4752 -1.89463,-1.14287 -2.45186,-1.88906c-1.78506,-2.39121 -1.03301,-27.89209 -0.67969,-32.01709c1.18711,-1.20645 1.90371,-2.02852 2.96221,-3.32871c-0.34746,-0.35859 -0.67822,-0.73301 -0.99053,-1.12266c-0.56133,-0.6958 -1.59434,-2.03145 -1.67607,-2.90303c-0.7626,-8.16123 -1.09951,-24.10869 -0.28301,-31.94092c0.7626,-0.80273 3.23145,-2.6584 4.21641,-3.43066zM125.6499,171.41104c3.08467,-3.06211 2.2916,-7.91045 -2.32617,-8.22393c-4.3626,1.63447 -2.11787,6.46582 1.70391,7.98311c0.20684,0.08203 0.41426,0.16201 0.62227,0.24082zM125.53535,132.94043c3.61934,-2.65371 2.61592,-7.94707 -1.14697,-8.38975c-0.24141,-0.03076 -0.48398,-0.04951 -0.72715,-0.05684c-4.66641,2.73838 -2.46768,6.83291 1.87412,8.44658z" fill="#000001"/><path d="M137.7375,193.3752c-0.13828,-0.37383 -0.30527,-0.82529 -0.50098,-1.35439c-2.82715,-1.22842 -6.58945,-2.60537 -9.2584,-4.00869c-14.59365,-7.67256 -30.01201,-13.52051 -44.46504,-21.29941c-3.53613,-1.90342 -8.57344,-3.92314 -11.83389,-5.93643c-1.51289,-0.9252 -2.87549,-2.07627 -4.04033,-3.41309l0.0835,-0.78398l-0.03545,-0.02783c3.94395,-0.24434 16.18242,8.16035 20.15449,9.57627c6.43857,2.296 46.38369,23.66191 49.40039,22.93418l0.47637,-0.7998c-0.02783,1.51172 -0.13154,3.65889 0.01934,5.11318z" fill="#002545"/><path d="M66.23086,193.84688c1.67285,0.18574 3.06182,0.66914 4.5709,1.37783c13.56885,6.37266 27.37031,13.09746 40.61836,20.05693c4.01309,2.1082 19.79648,8.74834 22.12471,10.90459l0.26895,0.73682l-0.26807,0.42275c-2.7791,0.50801 -12.00322,-4.7625 -15.04248,-6.29912c-5.1498,-2.55439 -10.31953,-5.06748 -15.50918,-7.53955c-9.11572,-4.32656 -27.10312,-11.85 -35.06484,-17.36133c-0.72979,-0.50068 -1.44141,-1.02744 -2.1334,-1.57969z" fill="#002545"/><path d="M136.75313,230.63789c-0.95273,-0.61611 -1.44258,-1.07051 -1.71182,-2.11523c0.58447,-0.98584 0.46846,-0.70576 1.75166,-1.22197c0.72188,0.70752 0.77578,0.80947 0.90938,1.81055c-0.32959,1.15195 -0.07236,0.75293 -0.94922,1.52666z" fill="#044279"/><path d="M64.79736,202.44199c0.49102,-1.66641 0.94365,-2.35547 2.23564,-3.55312c3.68115,1.73877 7.13437,3.76729 10.79062,5.53682l42.98789,20.85059c2.5875,1.27324 13.49443,6.06152 14.79404,7.17979c0.00674,5.57402 -0.26367,11.08975 -0.17842,16.75137c0.07412,4.90166 0.38525,10.48564 0.15938,15.28682c-4.76982,-1.04766 -9.46729,-4.09922 -13.9377,-6.15762c-14.59189,-6.74121 -28.846,-14.28281 -43.15693,-21.60439c-4.1625,-2.12959 -10.26621,-4.02158 -13.43584,-7.1124c-0.3457,-8.8834 -0.30791,-18.27158 -0.25869,-27.17783z" fill="#002d58"/><path d="M64.79736,202.44199c0.49102,-1.66641 0.94365,-2.35547 2.23564,-3.55312c3.68115,1.73877 7.13437,3.76729 10.79062,5.53682l42.98789,20.85059c2.5875,1.27324 13.49443,6.06152 14.79404,7.17979c-0.12979,0.74824 -0.13389,1.16279 -0.57568,1.78213c-0.74033,0.07119 -62.02207,-29.81133 -66.8833,-32.53389c-1.30605,0.37002 -2.01123,0.54404 -3.34922,0.7377z" fill="#0d5faa"/><path d="M73.07783,219.81006c-0.28975,-1.1584 -0.92988,-2.84033 -0.50127,-3.84668c0.76699,-0.77051 0.60674,-0.85781 1.50146,-1.00752c1.02422,1.14697 0.37002,4.11152 1.58174,5.03145c3.5332,2.68242 8.72988,4.8583 12.7415,6.77432l12.90381,6.28857c2.11348,1.02891 6.50391,2.44863 7.04648,4.69541c-0.30674,0.38965 -0.29678,0.44795 -0.78047,0.59062c0.7626,0.5748 1.38545,0.83115 1.26914,1.78477l-0.52148,0.19424c-3.78105,-0.53145 -12.55049,-6.48809 -16.67227,-7.85977c-0.28213,-0.09404 -3.30645,-1.61426 -3.54023,-1.79561c-2.74775,-2.13135 -15.87803,-6.71836 -15.81885,-10.21113z" fill="#044279"/><path d="M73.07783,219.81006c-0.28975,-1.1584 -0.92988,-2.84033 -0.50127,-3.84668c0.76699,-0.77051 0.60674,-0.85781 1.50146,-1.00752c1.02422,1.14697 0.37002,4.11152 1.58174,5.03145c3.5332,2.68242 8.72988,4.8583 12.7415,6.77432l12.90381,6.28857c2.11348,1.02891 6.50391,2.44863 7.04648,4.69541c-0.30674,0.38965 -0.29678,0.44795 -0.78047,0.59062c-7.05117,-3.85371 -30.26748,-14.05547 -34.49326,-18.52617z" fill="#002545"/><path d="M122.89277,246.91611c4.14316,0.38994 5.95635,4.62773 3.14268,7.58584c-4.68955,-0.47139 -6.31055,-4.8123 -3.14268,-7.58584z" fill="#00d400"/><path d="M122.596,234.92813c5.38184,-0.18398 5.07773,3.33428 3.3293,7.02803c-0.98174,0.0668 -1.76982,-0.08877 -2.58164,-0.64395c-0.91787,-0.62959 -1.53633,-1.60928 -1.71006,-2.70879c-0.24199,-1.56094 0.04482,-2.46592 0.9624,-3.67529z" fill="#02defa"/><path d="M65.23242,122.66133c0.71689,-0.30293 0.81973,-0.40635 1.61807,-0.01787c3.46963,1.68926 6.90498,3.5584 10.37168,5.24121c17.8084,8.64375 35.60918,17.22832 53.25732,26.20664c1.75107,0.89063 3.12305,1.42178 4.52695,2.88779c0.95039,7.91484 0.03398,17.93379 0.3126,26.0042c0.029,0.83818 -0.23701,1.34092 -0.84639,1.84336c-0.52412,0.12188 -1.0667,0.22881 -1.60605,0.15762c-3.16318,-0.41689 -59.3001,-28.4165 -65.29775,-32.01416c-1.08047,-0.64805 -1.8208,-1.38076 -2.60625,-2.36133c-0.75791,-5.40967 -0.32197,-22.55801 0.26982,-27.94746zM125.6499,171.41104c3.08467,-3.06211 2.2916,-7.91045 -2.32617,-8.22393c-4.3626,1.63447 -2.11787,6.46582 1.70391,7.98311c0.20684,0.08203 0.41426,0.16201 0.62227,0.24082z" fill="#002d58"/><path d="M65.23242,122.66133c0.71689,-0.30293 0.81973,-0.40635 1.61807,-0.01787c3.46963,1.68926 6.90498,3.5584 10.37168,5.24121c17.8084,8.64375 35.60918,17.22832 53.25732,26.20664c1.75107,0.89063 3.12305,1.42178 4.52695,2.88779c-0.04395,0.70781 -0.00322,0.91406 -0.33311,1.51758c-1.98574,0.10518 -4.10186,-2.20752 -5.91973,-3.0668c-21.05127,-9.95186 -41.52422,-21.08525 -62.9291,-30.31523c-0.52266,-0.22529 -0.53115,-1.90664 -0.59209,-2.45332z" fill="#0d5faa"/><path d="M71.64053,140.7958c0.1749,-1.04473 0.17637,-1.33184 0.78135,-2.21426c2.04053,-0.86396 4.06143,2.83945 4.8999,4.34004l0.01465,0.74912c-0.50537,0.49131 -0.69756,0.71865 -1.50498,0.40986l-1.34619,0.22324c1.79854,0.61787 3.07734,2.69473 5.40469,3.82588c5.44688,2.40439 22.74785,10.02568 26.42373,13.26211c0.27949,0.73447 0.27744,0.37588 0.01465,1.11035c0.71953,0.82559 3.31729,1.97754 4.08076,3.16553c-2.58486,0.58887 -13.1335,-5.57959 -15.9665,-6.95479c-7.89199,-3.83115 -16.03418,-7.47861 -23.62969,-11.84736c-0.74502,-0.42861 -0.94219,-1.08135 -1.04561,-1.85098l0.54287,-0.68555c0.46846,-0.87187 0.98789,-2.54238 1.33037,-3.5332z" fill="#0d5faa"/><path d="M79.88994,148.12969c5.44688,2.40439 22.74785,10.02568 26.42373,13.26211c0.27949,0.73447 0.27744,0.37588 0.01465,1.11035c-8.38564,-4.02451 -19.75488,-9.47988 -27.70898,-13.83457z" fill="#002545"/><path d="M71.64053,140.7958c0.1749,-1.04473 0.17637,-1.33184 0.78135,-2.21426c2.04053,-0.86396 4.06143,2.83945 4.8999,4.34004l0.01465,0.74912c-0.50537,0.49131 -0.69756,0.71865 -1.50498,0.40986l-1.34619,0.22324c1.79854,0.61787 3.07734,2.69473 5.40469,3.82588l-1.27061,0.53789c-2.61064,-1.16689 -5.81338,-2.94053 -8.30918,-4.33857c0.46846,-0.87187 0.98789,-2.54238 1.33037,-3.5332z" fill="#002545"/><path d="M71.64053,140.7958c0.1749,-1.04473 0.17637,-1.33184 0.78135,-2.21426c2.04053,-0.86396 4.06143,2.83945 4.8999,4.34004l0.01465,0.74912c-0.50537,0.49131 -0.69756,0.71865 -1.50498,0.40986c-1.07109,-1.1877 -1.42852,-1.40479 -2.79141,-2.27607z" fill="#000001"/><path d="M73.04004,141.80449c1.36289,0.87129 1.72031,1.08838 2.79141,2.27607l-1.34619,0.22324c-1.02656,-0.12246 -1.44932,-0.33193 -2.04609,-1.02979c0.0542,-0.95215 -0.04805,-0.5792 0.60088,-1.46953z" fill="#044279"/><path d="M123.32373,163.18711c4.61777,0.31348 5.41084,5.16182 2.32617,8.22393c-0.20801,-0.07881 -0.41543,-0.15879 -0.62227,-0.24082c-3.82178,-1.51729 -6.0665,-6.34863 -1.70391,-7.98311z" fill-opacity="0.98824" fill="#02defa"/><path d="M65.0918,164.0918c0.37881,-0.92812 0.66328,-1.96758 1.4499,-2.5292c0.87129,-0.10254 3.11748,1.02539 4.03623,1.47422c21.46289,10.4918 43.13145,20.68477 64.42441,31.48184c0.60059,0.30439 0.52324,0.89355 0.59473,1.47656c-0.4875,1.26445 -0.11807,5.38594 -0.17373,6.81006c-0.14004,3.57451 0.56162,18.48076 -0.8584,20.61563c-1.75781,0.34746 -36.15146,-17.25703 -41.41289,-19.83105l-15.25459,-7.40508c-12.19805,-5.79141 -13.96699,-4.01777 -13.08398,-18.99697c0.23994,-4.07168 -0.33252,-8.93467 0.27832,-13.096z" fill="#002d58"/><path d="M65.0918,164.0918c0.37881,-0.92812 0.66328,-1.96758 1.4499,-2.5292c0.87129,-0.10254 3.11748,1.02539 4.03623,1.47422c21.46289,10.4918 43.13145,20.68477 64.42441,31.48184c0.60059,0.30439 0.52324,0.89355 0.59473,1.47656c-0.36006,0.2127 -0.75088,0.45322 -1.21553,0.26045c-3.74971,-1.55391 -8.22539,-3.78281 -11.81777,-5.51543l-37.01719,-18.03311c-5.25762,-2.53418 -15.13359,-8.09941 -20.45479,-8.61533z" fill="#0d5faa"/><path d="M70.96377,179.95078c-0.13242,-1.25918 -0.17256,-0.80156 0.43037,-1.98574c0.81387,-0.52969 0.44561,-0.45703 1.37373,-0.29004c1.5041,1.33799 2.32529,4.48066 4.0002,5.45625c4.20791,2.45098 28.80322,13.31045 29.82979,16.02363l-0.31406,0.57598c0.78105,0.58477 1.52461,0.92139 1.77686,1.79473c-2.72432,0.9498 -29.48496,-13.99189 -33.78896,-15.65537c-1.48389,-0.57363 -4.93945,-3.54727 -4.24482,-5.61123z" fill="#044279"/><path d="M70.96377,179.95078c-0.13242,-1.25918 -0.17256,-0.80156 0.43037,-1.98574c0.81387,-0.52969 0.44561,-0.45703 1.37373,-0.29004c1.5041,1.33799 2.32529,4.48066 4.0002,5.45625c4.20791,2.45098 28.80322,13.31045 29.82979,16.02363l-0.31406,0.57598c-4.75107,-1.6626 -10.54893,-5.46563 -15.21738,-7.80205c-6.98379,-3.4957 -14.78555,-6.14678 -20.10264,-11.97803z" fill="url(#color-5)"/><path d="M123.01348,202.10039c0.11191,0.00381 0.22383,0.00762 0.33574,0.01143l0.18633,0.01348l0.26543,0.01523c1.27939,0.08525 2.42051,0.80918 3.23643,1.76953c0.74268,0.86807 1.09307,2.00479 0.96797,3.14033c-0.15938,1.54922 -0.94043,2.1249 -2.10381,3.0416c-3.93516,0.68174 -6.61729,-5.09355 -2.88809,-7.9916z" fill="#02defa"/><path d="M65.52568,86.33232c0.87334,-0.50186 1.37842,-0.70195 2.36924,-0.33252c5.38359,2.00654 11.17354,5.09004 16.26445,7.67871l22.47568,11.19932c8.63701,4.31162 17.51777,8.2043 26.06133,12.70928c1.24189,0.65449 1.70039,1.03682 2.3543,2.24268c0.49102,5.87256 0.52354,21.59795 -0.13623,27.15264c-4.20117,-1.08193 -7.37607,-2.86172 -11.31123,-4.58613c-14.08506,-6.17285 -27.32373,-14.05254 -41.26963,-20.53799c-5.37686,-2.50049 -13.06787,-5.6001 -17.40117,-9.51123c-0.78545,-6.96328 0.22383,-15.46787 0.1377,-22.54336c-0.01436,-1.1707 0.41162,-2.23682 0.45557,-3.47139zM125.53535,132.94043c3.61934,-2.65371 2.61592,-7.94707 -1.14697,-8.38975c-0.24141,-0.03076 -0.48398,-0.04951 -0.72715,-0.05684c-4.66641,2.73838 -2.46768,6.83291 1.87412,8.44658z" fill="#002d58"/><path d="M65.52568,86.33232c0.87334,-0.50186 1.37842,-0.70195 2.36924,-0.33252c5.38359,2.00654 11.17354,5.09004 16.26445,7.67871l22.47568,11.19932c8.63701,4.31162 17.51777,8.2043 26.06133,12.70928c1.24189,0.65449 1.70039,1.03682 2.3543,2.24268l-0.55166,0.42129c-2.6168,-0.20098 -50.10205,-24.27451 -56.06543,-27.1998c-2.38242,-1.18828 -4.81582,-2.27109 -7.29346,-3.24551c-1.50439,-0.60059 -3.19893,-1.22549 -4.68662,-1.88496c-0.68789,-0.30498 -0.72012,-0.89385 -0.92783,-1.58848z" fill="#0d5faa"/><path d="M71.22129,101.68975c0.61699,-1.31514 0.37969,-1.30752 1.42324,-2.04258c2.20283,-0.03633 4.48711,3.81064 3.6917,5.63086l0.06152,1.15166c7.2082,5.27578 20.025,10.13496 28.19736,14.5043c1.00518,0.5373 2.85938,1.7751 3.42363,2.70439c-0.15527,0.41807 -0.13682,0.51006 -0.50947,0.75088c0.73887,0.60381 1.23252,0.76494 1.39189,1.52314c-0.45264,0.20713 -0.89443,0.41865 -1.39805,0.17021c-5.10674,-2.52217 -35.87314,-16.4584 -37.80322,-19.60488c-0.11865,-0.96387 -0.16465,-0.56836 0.3873,-1.57471c-0.48809,-0.61494 0.76934,-2.35107 1.13408,-3.21328z" fill="#002545"/><path d="M70.08721,104.90303c7.57617,4.23604 15.22646,8.33789 22.94766,12.30322c4.23926,2.13193 10.57471,4.82197 14.47441,7.18301c0.73887,0.60381 1.23252,0.76494 1.39189,1.52314c-0.45264,0.20713 -0.89443,0.41865 -1.39805,0.17021c-5.10674,-2.52217 -35.87314,-16.4584 -37.80322,-19.60488c-0.11865,-0.96387 -0.16465,-0.56836 0.3873,-1.57471z" fill="#0d5faa"/><path d="M71.22129,101.68975c0.61699,-1.31514 0.37969,-1.30752 1.42324,-2.04258c2.20283,-0.03633 4.48711,3.81064 3.6917,5.63086c-0.98379,-1.05117 -2.00947,-2.0625 -3.07412,-3.03164c-1.01924,-0.04277 -1.13203,-0.08379 -2.04082,-0.55664z" fill="#001227"/><path d="M73.26211,102.24639c1.06465,0.96914 2.09033,1.98047 3.07412,3.03164l0.06152,1.15166c-1.66963,-1.00693 -3.2748,-1.12148 -4.09277,-2.53301c0.26396,-1.15723 0.09902,-0.76523 0.95713,-1.65029z" fill="#044279"/><path d="M123.66123,124.49385c0.24316,0.00732 0.48574,0.02607 0.72715,0.05684c3.76289,0.44268 4.76631,5.73604 1.14697,8.38975c-4.3418,-1.61367 -6.54053,-5.7082 -1.87412,-8.44658z" fill-opacity="0.98824" fill="#02defa"/><path d="M67.73965,117.5458c2.42871,0.37998 65.24414,31.89434 65.58838,32.30918c0.38467,0.46377 0.15996,0.92051 0.06709,1.46279c-4.02891,-0.39814 -26.14189,-11.8043 -30.96885,-14.02471c-3.27979,-1.80029 -7.69658,-3.02314 -10.875,-4.8542c-7.33506,-4.22607 -17.41934,-7.8375 -24.2915,-12.44092c-0.1875,-0.97148 0.13594,-1.37344 0.47988,-2.45215z" fill="#002d58"/><path d="M142.9166,116.47969c1.14756,2.56289 0.4166,12.99844 1.03477,17.46885c0.74443,0.34395 -0.10342,0.14033 0.25898,0.70664c0.43184,-4.08926 -0.00352,-8.44336 0.30352,-12.48984l0.23232,0.15293c-0.47783,8.50166 0.10225,18.2751 -0.09756,26.94932c-0.79658,34.60635 0.37676,69.31611 0.00908,103.93066l-0.11338,5.55059c-0.03984,-1.35029 0.02373,-4.99424 -1.27266,-5.53828c-0.68848,0.68408 0.18545,3.26982 -0.6542,4.13408c-1.70186,-3.77959 0.23145,-40.40273 0.27334,-47.26055l-0.10283,-67.25947c0.05244,-8.08447 1.27354,-18.44648 0.12861,-26.34492z" fill="#002d58"/></g></svg></svg>