<svg id="svg" version="1.1" viewBox="0 0 300 300" width="300" height="300" xmlns="http://www.w3.org/2000/svg"><svg xmlns="http://www.w3.org/2000/svg"><defs><clipPath id="clip-1"><rect x="0" y="0" transform="scale(0.29297,0.29297)" width="1024" height="1024" fill="none"/></clipPath><linearGradient x1="209.19111" y1="211.47393" x2="210.76025" y2="214.31367" gradientUnits="userSpaceOnUse" id="color-1"><stop offset="0" stop-color="#9f9e9c"/><stop offset="1" stop-color="#bababb"/></linearGradient><linearGradient x1="82.47832" y1="167.48057" x2="73.09219" y2="195.15762" gradientUnits="userSpaceOnUse" id="color-2"><stop offset="0" stop-color="#162225"/><stop offset="1" stop-color="#03193f"/></linearGradient></defs><g clip-path="url(#clip-1)" fill="none" fill-rule="nonzero" stroke="none" stroke-width="1" stroke-linecap="butt" stroke-linejoin="miter" stroke-miterlimit="10" stroke-dasharray="" stroke-dashoffset="0" font-family="none" font-weight="none" font-size="none" text-anchor="none" style="mix-blend-mode: normal"><path d="M23.86488,137.1501c3.69958,-2.56904 11.83072,-6.9542 16.01695,-9.38408l33.20713,-19.26387l62.08857,-36.1626c25.76309,-14.79609 19.62979,-16.40215 46.08311,-3.52705l35.55586,17.36221l48.85195,23.87783c7.32012,3.61289 14.92939,7.10977 22.11826,10.94502c2.24355,1.19678 2.80576,2.22686 3.39609,4.59814c-0.00732,7.54189 1.03184,34.04736 -0.91406,39.45498c1.43965,0.80098 1.33447,-0.30352 2.57051,0.36943c-0.0624,0.95654 -1.82461,3.5625 -2.50137,4.29316c-4.53721,4.89814 -11.61533,8.02676 -17.49434,10.85391c-2.56436,1.67402 -9.46172,6.27832 -12.12539,6.89326c-3.00586,1.27676 -5.31592,2.41436 -8.20898,3.89561c-8.66514,6.00029 -12.67529,7.21846 -21.7377,12.05332l-38.11084,20.24824c-7.81934,4.17129 -11.18496,8.50225 -21.12539,11.96396c-0.02285,-0.58857 0.00498,-0.78809 0.08379,-1.37461c0.65332,-0.49102 1.00928,-0.6665 1.23281,-1.46953c-0.98145,-0.12744 -6.11279,2.21777 -7.92041,2.36309c-2.95957,1.28467 -5.72256,3.12422 -8.78145,4.40244c-2.0833,1.05703 -4.70771,2.39004 -6.09434,4.2457c-3.13916,0.69697 -3.45732,0.85342 -6.52412,0.08525c-12.03721,-0.05684 -21.82119,-7.57295 -31.96143,-12.94951c-3.74297,-1.98486 -8.45889,-2.82041 -12.13711,-4.86006c-19.71357,-10.93125 -40.24482,-20.69268 -60.39258,-30.78691c-7.48447,-3.90176 -8.77939,-3.23877 -16.47882,-8.76885c-2.75701,-1.38574 -5.54862,-2.7252 -8.30915,-4.1042c-3.3832,-1.69043 -4.61338,-2.97686 -5.98289,-6.35537l0.2729,-0.4002l1.08923,-0.04453c0.07087,-0.05918 0.49497,-0.56045 0.48662,-0.58594c-0.72618,-2.3083 -1.30494,-5.06016 -1.30649,-7.50469c-0.00507,-8.00977 -0.29481,-16.10977 0.10907,-24.10488c0.04497,-0.89062 0.51003,-1.90195 1.11009,-2.55615c1.38598,-1.80938 4.99192,-2.81953 7.10777,-3.45586c1.86469,0.85254 2.95441,1.08428 4.93723,1.57148zM167.11611,222.2127c1.39629,-1.09541 2.27666,-2.5875 1.56357,-4.32832c-0.46963,-0.19922 -0.6208,-0.29941 -1.14229,-0.30967c-1.60605,0.90615 -2.82627,1.54922 -2.2043,3.56777c0.59121,0.71924 0.92783,0.77402 1.78301,1.07021zM9.6317,175.6043l-1.08923,0.04453l-0.2729,0.4002c1.36951,3.37852 2.59969,4.66494 5.98289,6.35537c2.76053,1.379 5.55214,2.71846 8.30915,4.1042c7.69942,5.53008 8.99435,4.86709 16.47882,8.76885c20.14775,10.09424 40.679,19.85566 60.39258,30.78691c3.67822,2.03965 8.39414,2.8752 12.13711,4.86006c10.14023,5.37656 19.92422,12.89268 31.96143,12.94951c3.0668,0.76816 3.38496,0.61172 6.52412,-0.08525c1.38662,-1.85566 4.01104,-3.18867 6.09434,-4.2457l-0.62725,-0.20596c0.33926,-0.71133 0.25547,-0.42803 0.17549,-1.27471c-0.2083,-0.16025 -0.41572,-0.32607 -0.58828,-0.52529c-0.98291,-1.13467 -0.8373,-31.15693 -0.53115,-34.53428c-0.61055,-0.18486 -1.01807,-0.04658 -1.64795,0.06709l-0.19512,-0.02871c-0.48896,1.45225 -0.59385,1.396 -2.11553,1.60342c-1.57002,0.72803 -2.00127,0.9832 -3.37354,2.03584c-0.32607,0.50566 -0.35918,0.50918 -0.90088,0.80332c-0.99258,-0.225 -2.88896,-1.60371 -4.2665,-2.25469c-0.94219,-0.73213 -5.45859,-2.77178 -6.80244,-3.39785c-13.56357,-7.22373 -28.98691,-14.23184 -42.88154,-20.99736l-70.77926,-34.84922c-2.02456,-1.5208 -7.96148,-3.92988 -10.37282,-4.82959c-0.61315,0.12451 -0.50095,0.03281 -1.21225,-0.30234c-0.60006,0.6542 -1.06512,1.66553 -1.11009,2.55615c-0.40389,7.99512 -0.11414,16.09512 -0.10907,24.10488c0.00155,2.44453 0.58031,5.19639 1.30649,7.50469c0.00835,0.02549 -0.41575,0.52676 -0.48662,0.58594z" fill="#0077ef"/><path d="M291.18281,125.5957c-0.00732,7.54189 1.03184,34.04736 -0.91406,39.45498c1.43965,0.80098 1.33447,-0.30352 2.57051,0.36943c-0.0624,0.95654 -1.82461,3.5625 -2.50137,4.29316c-4.53721,4.89814 -11.61533,8.02676 -17.49434,10.85391c-2.56436,1.67402 -9.46172,6.27832 -12.12539,6.89326c-3.00586,1.27676 -5.31592,2.41436 -8.20898,3.89561c-8.66514,6.00029 -12.67529,7.21846 -21.7377,12.05332l-38.11084,20.24824c-7.81934,4.17129 -11.18496,8.50225 -21.12539,11.96396c-0.02285,-0.58857 0.00498,-0.78809 0.08379,-1.37461c0.65332,-0.49102 1.00928,-0.6665 1.23281,-1.46953c-0.98145,-0.12744 -6.11279,2.21777 -7.92041,2.36309c-2.95957,1.28467 -5.72256,3.12422 -8.78145,4.40244l-0.62725,-0.20596c0.33926,-0.71133 0.25547,-0.42803 0.17549,-1.27471c-0.2083,-0.16025 -0.41572,-0.32607 -0.58828,-0.52529c-0.98291,-1.13467 -0.8373,-31.15693 -0.53115,-34.53428l0.12656,-0.20449c2.21221,-1.73291 8.69268,-5.19756 11.59482,-6.87627l26.42227,-15.08467l72.14443,-40.72441c8.29307,-4.6248 16.54893,-9.31611 24.7667,-14.07334zM167.11611,222.2127c1.39629,-1.09541 2.27666,-2.5875 1.56357,-4.32832c-0.46963,-0.19922 -0.6208,-0.29941 -1.14229,-0.30967c-1.60605,0.90615 -2.82627,1.54922 -2.2043,3.56777c0.59121,0.71924 0.92783,0.77402 1.78301,1.07021z" fill="#003685"/><path d="M290.26875,165.05068c1.43965,0.80098 1.33447,-0.30352 2.57051,0.36943c-0.0624,0.95654 -1.82461,3.5625 -2.50137,4.29316c-4.53721,4.89814 -11.61533,8.02676 -17.49434,10.85391c-2.56436,1.67402 -9.46172,6.27832 -12.12539,6.89326c-3.00586,1.27676 -5.31592,2.41436 -8.20898,3.89561c-8.66514,6.00029 -12.67529,7.21846 -21.7377,12.05332l-38.11084,20.24824c-7.81934,4.17129 -11.18496,8.50225 -21.12539,11.96396c-0.02285,-0.58857 0.00498,-0.78809 0.08379,-1.37461c0.65332,-0.49102 1.00928,-0.6665 1.23281,-1.46953c-0.98145,-0.12744 -6.11279,2.21777 -7.92041,2.36309c-2.95957,1.28467 -5.72256,3.12422 -8.78145,4.40244l-0.62725,-0.20596c0.33926,-0.71133 0.25547,-0.42803 0.17549,-1.27471c0.79775,-0.52295 5.54619,-2.82188 7.04209,-3.68818c8.22568,-4.76367 16.73467,-9.09785 25.10156,-13.58672l65.33027,-35.25879c10.7042,-5.77207 21.44531,-11.72402 32.11084,-17.58633c1.70127,-0.93516 2.68975,-1.82344 4.63359,-2.33701c0.04658,-0.20889 0.20303,-0.35508 0.35215,-0.55459z" fill="#000000"/><path d="M246.75938,190.86416c-1.3749,2.76885 -5.82979,3.83232 -6.70898,4.82871c1.54336,0.99053 7.5791,-3.50361 9.50742,-4.24834l-1.00693,1.2835l0.08848,0.26133c1.70244,-0.22412 1.83867,-1.91104 3.86982,-1.6333c-8.66514,6.00029 -12.67529,7.21846 -21.7377,12.05332l-38.11084,20.24824c-7.81934,4.17129 -11.18496,8.50225 -21.12539,11.96396c-0.02285,-0.58857 0.00498,-0.78809 0.08379,-1.37461c0.65332,-0.49102 1.00928,-0.6665 1.23281,-1.46953c-0.98145,-0.12744 -6.11279,2.21777 -7.92041,2.36309c1.95791,-1.31953 6.28857,-3.46025 8.49346,-4.63154c5.65957,-2.97979 11.2998,-5.99678 16.92012,-9.05039c14.43018,-8.03203 28.94209,-15.91611 43.5334,-23.65137c4.26211,-2.24561 8.59395,-4.86387 12.88096,-6.94307z" fill="url(#color-1)"/><path d="M290.26875,165.05068c1.43965,0.80098 1.33447,-0.30352 2.57051,0.36943c-0.0624,0.95654 -1.82461,3.5625 -2.50137,4.29316c-4.53721,4.89814 -11.61533,8.02676 -17.49434,10.85391c-2.56436,1.67402 -9.46172,6.27832 -12.12539,6.89326c-3.00586,1.27676 -5.31592,2.41436 -8.20898,3.89561c-2.03115,-0.27773 -2.16738,1.40918 -3.86982,1.6333l-0.08848,-0.26133l1.00693,-1.2835c-1.92832,0.74473 -7.96406,5.23887 -9.50742,4.24834c0.8792,-0.99639 5.33408,-2.05986 6.70898,-4.82871c0.72627,-0.5584 7.22373,-3.90029 8.59307,-4.64678l22.43232,-12.18516c3.45029,-1.87998 7.1499,-3.74971 10.48154,-5.79932c1.42471,-0.87656 1.39014,-1.28057 1.65029,-2.62764c0.04658,-0.20889 0.20303,-0.35508 0.35215,-0.55459z" fill="#9b9c9b"/><path d="M260.71816,187.46045l-0.07764,-0.22998c0.14473,-0.22764 0.29795,-0.44971 0.45908,-0.66621c1.75371,-2.35254 8.90771,-6.72129 11.74395,-5.99707c-2.56436,1.67402 -9.46172,6.27832 -12.12539,6.89326z" fill="#b2b0b0"/><path d="M167.11201,206.73545c0.73184,0.02197 0.82354,0.03076 1.41973,0.44971c0.7626,1.73877 -0.1998,3.31523 -1.56416,4.40361c-1.1918,-0.18135 -0.79336,0.01787 -1.65264,-0.65859c-0.67207,-1.95088 0.30879,-3.02197 1.79707,-4.19473z" fill="#67d6fd"/><path d="M167.5374,217.57471c0.52148,0.01025 0.67266,0.11045 1.14229,0.30967c0.71309,1.74082 -0.16729,3.23291 -1.56357,4.32832c-0.85518,-0.29619 -1.1918,-0.35098 -1.78301,-1.07021c-0.62197,-2.01855 0.59824,-2.66162 2.2043,-3.56777z" fill-opacity="0.98824" fill="#00e6fe"/><path d="M263.10908,158.15771c0.38525,0.22471 0.21475,0.12158 0.47109,0.62725c-0.22383,1.58379 -0.74473,4.84629 -2.32471,5.41846c-0.57744,-1.05732 -1.03389,-2.23096 -1.49766,-3.34687c1.09629,-1.02773 2.15771,-1.80176 3.35127,-2.69883z" fill="#00074a"/><path d="M244.51641,168.32256c0.49863,0.34746 0.33867,0.21182 0.59795,0.85781c-0.1749,1.91045 -0.27129,4.29492 -2.54092,4.1417c-0.96914,-0.84668 -0.90527,-0.54727 -1.22725,-1.63975c0.31348,-1.23604 2.10938,-2.47119 3.17021,-3.35977z" fill="#010623"/><path d="M256.58086,154.32129c0.68027,0.59824 0.80186,0.98789 0.90117,1.85039c-0.36035,1.28877 -1.98809,2.76064 -2.97598,3.82822c-2.39531,-2.1876 0.47725,-4.17979 2.0748,-5.67861z" fill="#00074a"/><path d="M243.00146,161.93057c1.33418,0.24229 1.62012,0.4043 1.79883,1.64971c-0.36973,1.16484 -1.28467,2.01826 -2.11318,2.92998l-0.52559,0.35186l-0.46055,-0.14004c-0.62344,-1.7499 0.12832,-3.49219 1.30049,-4.7915z" fill="#010623"/><path d="M250.3251,158.05137c0.18193,0.09521 0.59531,0.43389 0.78076,0.57656c0.82617,2.30771 -0.83115,3.3 -2.47119,4.6749c-0.67441,-0.15674 -0.42979,-0.01025 -0.88652,-0.68232c0.0293,-1.83604 1.40801,-3.15498 2.57695,-4.56914z" fill="#010623"/><path d="M256.99482,161.64199c0.11807,0.0583 0.54961,0.4333 0.68057,0.54199c0.76055,2.36191 -1.08574,3.07705 -2.91123,4.08018l-0.6835,-0.19658l-0.22852,-0.58945c0.17227,-1.46836 2.03379,-2.87109 3.14268,-3.83613z" fill="#010623"/><path d="M250.21289,165.39111l0.84375,0.24551c0.4875,1.4165 -1.30488,3.30615 -2.13311,5.30508c-0.20273,0.05303 -0.17695,0 -0.45498,-0.11016c-0.67676,-3.24844 -0.93838,-3.41221 1.74434,-5.44043z" fill="#000416"/><path d="M257.24795,169.65703c0.29033,0.21738 0.29971,0.34629 0.47783,0.68965c-0.21709,1.7915 -1.37373,2.60186 -2.67451,3.825c-2.72607,-1.76953 0.01992,-3.91699 2.19668,-4.51465z" fill="#000416"/><path d="M250.81553,172.72471l0.64717,0.22822l0.19482,0.60674c-0.38672,1.45723 -2.03672,2.9959 -3.1125,4.0752c-0.90439,-0.76348 -0.6958,-0.38525 -0.92812,-1.40127c0.34336,-1.57148 1.93066,-2.5377 3.19863,-3.50889z" fill="#000416"/><path d="M237.59121,165.05596c0.84668,0.31553 0.54668,0.15527 1.20732,1.03447c0.06416,1.86973 -1.2041,2.16182 -2.67803,3.90029l-0.3958,0.15117c-1.27559,-1.81846 0.73887,-3.68994 1.8665,-5.08594z" fill="#010623"/><path d="M262.70596,166.27705c0.9791,0.2332 0.71162,0.02139 1.14287,0.70371c-0.12275,1.45547 -1.33154,2.60654 -2.28955,3.7084l-0.89766,-0.31816c-1.15518,-1.84687 0.61084,-2.98213 2.04434,-4.09395z" fill="#000416"/><path d="M269.70088,162.46436l0.52852,0.42305c0.53818,1.73936 -1.42178,3.56602 -2.63672,4.54307c-1.15723,-1.34238 -1.25215,-1.71182 0.11924,-3.15205c0.60674,-0.63721 1.32744,-1.229 1.98896,-1.81406z" fill="#000416"/><path d="M244.28145,176.2374l0.73184,0.24902l0.13945,0.57773c-0.35068,1.22432 -1.52988,2.6001 -2.32441,3.6583c-0.37061,-0.16055 -0.54375,-0.32227 -0.86982,-0.55986c-0.59268,-2.02412 0.69346,-2.98652 2.32295,-3.9252z" fill="#000416"/><path d="M232.25332,182.71904c1.38926,1.41475 -0.86719,4.16426 -2.02676,5.11348c-1.87207,-2.03672 0.6085,-3.93809 2.02676,-5.11348z" fill="#000416"/><path d="M273.06563,148.56445c0.49629,-1.49092 0.78281,-3.26484 2.4167,-3.79189l0.53672,0.29736c0.39756,1.8126 -1.04795,3.10576 -2.24824,4.31865z" fill="#000416"/><path d="M238.1168,172.14492c0.53877,0.25518 0.36152,0.14531 0.67266,0.82852c-0.18721,1.71533 -1.24336,2.71699 -2.49053,3.80801c-0.7708,-0.47109 -0.52764,-0.18779 -0.86016,-1.14111c0.22061,-1.54893 1.52783,-2.53125 2.67803,-3.49541z" fill="#000416"/><path d="M262.2958,151.64941l0.60117,0.43477c0.65303,1.77861 -0.51006,3.09463 -1.84951,4.08252c-0.62607,-0.79512 -0.86045,-1.1959 -0.78486,-2.20195c0.421,-1.11035 1.11709,-1.55273 2.0332,-2.31533z" fill="#010623"/><path d="M224.63467,172.3998l0.58037,0.33252c1.08105,1.81729 -0.39756,2.79316 -1.70713,4.0251l-0.50713,-0.20449c-1.15635,-1.66641 0.46406,-2.96367 1.63389,-4.15313z" fill="#000416"/><path d="M275.61094,151.93096c0.65742,0.15264 0.38643,-0.0126 0.81709,0.54551c0.02607,1.56211 -1.42207,3.11572 -2.38652,4.33916l-0.56748,-0.03223c-0.70957,-1.49297 1.11621,-3.87539 2.13691,-4.85244z" fill="#000416"/><path d="M268.85801,147.86572l0.49043,0.3917c0.90088,1.85449 -0.21211,3.11455 -1.59082,4.23018c-1.92422,-1.83545 -0.22529,-3.15498 1.10039,-4.62187z" fill="#000000"/><path d="M231.46787,168.62842l0.66855,0.57979c0.50303,2.16797 -0.24053,2.9458 -2.03467,3.81328c-0.77197,-0.6 -0.59297,-0.28008 -0.71426,-1.17539c0.32051,-1.1625 1.31602,-2.24795 2.08037,-3.21768z" fill="#000416"/><path d="M176.57256,212.8333l0.56807,0.34102c0.76289,1.62861 -0.00176,2.85 -1.33535,3.83701c-0.20449,-0.1333 -0.57656,-0.38174 -0.72451,-0.56191c-0.39756,-0.48838 -0.53291,-1.13965 -0.36211,-1.7458c0.25195,-0.90674 1.11182,-1.40156 1.85391,-1.87031z" fill="#67d6fd"/><path d="M175.76426,202.55771l1.04385,0.19043c1.1373,1.33125 0.27129,2.46182 -0.72305,3.59619c-1.18301,-0.1998 -1.33711,-0.51123 -1.60781,-1.54189c0.2417,-1.15693 0.49365,-1.35146 1.28701,-2.24473z" fill="#67d6fd"/><path d="M225.17051,186.84844c0.2666,0.26484 0.27949,0.4248 0.42803,0.79014c-0.23789,1.80176 -1.18301,2.8166 -2.38477,4.14316c-1.57852,-2.09268 0.40693,-3.76787 1.95674,-4.9333z" fill="#000416"/><path d="M275.9417,159.02051c0.52207,0.37939 0.35508,0.23291 0.61758,0.92432c-0.28799,1.6793 -1.1915,2.41523 -2.43047,3.5417c-2.23125,-1.25684 0.69199,-3.37881 1.81289,-4.46602z" fill="#000416"/><path d="M225.32227,179.52891l0.40605,0.38291c-0.11426,1.41416 -1.48418,3.36211 -2.28369,4.53164l-0.54844,-0.42246c-0.79248,-2.26875 0.79688,-3.15732 2.42607,-4.49209z" fill="#000416"/><path d="M231.37559,175.29229l0.60645,0.37383c0.3126,1.84424 -0.45645,3.65771 -2.10791,4.57822c-0.61875,-0.47959 -0.41514,-0.17842 -0.62549,-0.93721c0.3208,-1.3418 1.37344,-2.81279 2.12695,-4.01484z" fill="#000416"/><path d="M237.49336,180.01494l0.97881,0.22646l0.24521,0.49863c-0.21357,1.08105 -1.57207,2.51367 -2.32031,3.43271c-0.75469,0.06064 -0.42451,0.15703 -1.02627,-0.28477c-0.11631,-1.34268 1.27705,-2.84502 2.12256,-3.87305z" fill="#000416"/><path d="M269.1501,155.03262l0.59326,1.07695c-0.51445,1.24277 -0.84199,2.89951 -2.35225,3.1916c-1.31602,-1.36494 0.79482,-3.25313 1.75898,-4.26855z" fill="#000416"/><path d="M269.1501,155.03262c0.98994,-1.93008 3.40928,-4.82842 3.91553,-6.46816l0.70518,0.82412c-1.14609,2.025 -3.78076,4.83398 -4.02744,6.721z" fill="#002b72"/><path d="M10.03099,140.85264c0.7113,0.33516 0.59909,0.42686 1.21225,0.30234c2.41134,0.89971 8.34826,3.30879 10.37282,4.82959l70.77926,34.84922c13.89463,6.76553 29.31797,13.77363 42.88154,20.99736c1.34385,0.62607 5.86025,2.66572 6.80244,3.39785c1.37754,0.65098 3.27393,2.02969 4.2665,2.25469c0.5417,-0.29414 0.5748,-0.29766 0.90088,-0.80332c1.37227,-1.05264 1.80352,-1.30781 3.37354,-2.03584c1.52168,-0.20742 1.62656,-0.15117 2.11553,-1.60342l0.19512,0.02871c0.62988,-0.11367 1.0374,-0.25195 1.64795,-0.06709c-0.30615,3.37734 -0.45176,33.39961 0.53115,34.53428c0.17256,0.19922 0.37998,0.36504 0.58828,0.52529c0.07998,0.84668 0.16377,0.56338 -0.17549,1.27471l0.62725,0.20596c-2.0833,1.05703 -4.70771,2.39004 -6.09434,4.2457c-3.13916,0.69697 -3.45732,0.85342 -6.52412,0.08525c-12.03721,-0.05684 -21.82119,-7.57295 -31.96143,-12.94951c-3.74297,-1.98486 -8.45889,-2.82041 -12.13711,-4.86006c-19.71357,-10.93125 -40.24482,-20.69268 -60.39258,-30.78691c-7.48447,-3.90176 -8.77939,-3.23877 -16.47882,-8.76885c-2.75701,-1.38574 -5.54862,-2.7252 -8.30915,-4.1042c-3.3832,-1.69043 -4.61338,-2.97686 -5.98289,-6.35537l0.2729,-0.4002l1.08923,-0.04453c0.07087,-0.05918 0.49497,-0.56045 0.48662,-0.58594c-0.72618,-2.3083 -1.30494,-5.06016 -1.30649,-7.50469c-0.00507,-8.00977 -0.29481,-16.10977 0.10907,-24.10488c0.04497,-0.89062 0.51003,-1.90195 1.11009,-2.55615zM45.73945,165.16201c-0.40723,1.25361 -0.45762,6.25898 0.17139,7.43232c0.90703,-0.76758 0.53672,-6.12539 0.75674,-7.95l0.03193,-0.25283zM17.09883,155.5916c0.21504,-3.23496 1.06644,-6.18105 -3.19395,-6.23115c-0.14353,-0.00117 -0.28705,-0.00059 -0.43058,0.00146c-0.76644,3.08789 -0.93609,5.32061 2.74711,6.06416c0.29186,0.0583 0.58436,0.11367 0.87741,0.16553zM131.66689,211.95996c0.74883,-4.25361 0.28184,-5.65811 -4.21436,-6.3542c-0.60527,4.91133 -0.79834,5.40791 4.21436,6.3542zM71.08242,197.53066c0.09141,-1.61631 0.50127,-6.38555 -0.39111,-7.4543c-0.80742,1.59053 -0.6249,5.98184 0.39111,7.4543z" fill="#000000"/><path d="M46.69951,164.3915l-0.03193,0.25283c-0.22002,1.82461 0.15029,7.18242 -0.75674,7.95c-0.629,-1.17334 -0.57861,-6.17871 -0.17139,-7.43232z" fill-opacity="0.98824" fill="#9b9c9b"/><path d="M10.03099,140.85264c0.7113,0.33516 0.59909,0.42686 1.21225,0.30234c2.41134,0.89971 8.34826,3.30879 10.37282,4.82959c-1.1879,0.87188 -0.82324,2.68184 -0.77807,4.13174c-0.66457,9.13945 0.00111,16.80762 -0.17133,25.59609c3.47812,2.62178 8.75033,4.59053 12.82729,6.47373c10.58115,4.8873 20.7082,10.53545 31.04795,15.80508l35.09736,17.56992c4.91426,2.47148 9.85137,4.89697 14.81074,7.27617c2.86494,1.38779 7.1335,3.32725 9.65625,5.0543l0.43564,-1.38457c-1.0251,-1.83457 -0.44707,-6.62432 -0.28887,-8.80049c0.3167,-1.38223 -0.04219,-3.20889 0.87305,-4.25186c0.67617,0.29004 0.48311,0.25371 0.93457,1.06582c0.69551,1.13789 0.7875,1.63271 2.31123,1.76836c-0.10459,-0.54756 -0.1125,-0.8168 -0.13477,-1.37607l0.44268,-0.08672c1.41475,0.51592 1.71885,0.56602 3.22969,0.6791c0.31787,-0.98203 0.39199,-1.75605 1.07754,-2.37627c0.83262,0.44268 0.69492,0.54404 1.2583,1.48389c0.12568,-2.32998 0.44824,-11.3332 1.03154,-12.78164c1.34385,0.62607 5.86025,2.66572 6.80244,3.39785c1.37754,0.65098 3.27393,2.02969 4.2665,2.25469c0.5417,-0.29414 0.5748,-0.29766 0.90088,-0.80332c1.37227,-1.05264 1.80352,-1.30781 3.37354,-2.03584c1.52168,-0.20742 1.62656,-0.15117 2.11553,-1.60342l0.19512,0.02871c0.62988,-0.11367 1.0374,-0.25195 1.64795,-0.06709c-0.30615,3.37734 -0.45176,33.39961 0.53115,34.53428c0.17256,0.19922 0.37998,0.36504 0.58828,0.52529c0.07998,0.84668 0.16377,0.56338 -0.17549,1.27471l0.62725,0.20596c-2.0833,1.05703 -4.70771,2.39004 -6.09434,4.2457c-3.13916,0.69697 -3.45732,0.85342 -6.52412,0.08525c-12.03721,-0.05684 -21.82119,-7.57295 -31.96143,-12.94951c-3.74297,-1.98486 -8.45889,-2.82041 -12.13711,-4.86006c-19.71357,-10.93125 -40.24482,-20.69268 -60.39258,-30.78691c-7.48447,-3.90176 -8.77939,-3.23877 -16.47882,-8.76885c-2.75701,-1.38574 -5.54862,-2.7252 -8.30915,-4.1042c-3.3832,-1.69043 -4.61338,-2.97686 -5.98289,-6.35537l0.2729,-0.4002l1.08923,-0.04453c0.07087,-0.05918 0.49497,-0.56045 0.48662,-0.58594c-0.72618,-2.3083 -1.30494,-5.06016 -1.30649,-7.50469c-0.00507,-8.00977 -0.29481,-16.10977 0.10907,-24.10488c0.04497,-0.89062 0.51003,-1.90195 1.11009,-2.55615zM17.09883,155.5916c0.21504,-3.23496 1.06644,-6.18105 -3.19395,-6.23115c-0.14353,-0.00117 -0.28705,-0.00059 -0.43058,0.00146c-0.76644,3.08789 -0.93609,5.32061 2.74711,6.06416c0.29186,0.0583 0.58436,0.11367 0.87741,0.16553z" fill="#003685"/><path d="M22.56161,186.50859c-2.75701,-1.38574 -5.54862,-2.7252 -8.30915,-4.1042c-3.3832,-1.69043 -4.61338,-2.97686 -5.98289,-6.35537l0.2729,-0.4002l1.08923,-0.04453c1.00116,0.26543 0.68722,0.0416 1.25777,0.78076c1.63852,2.53887 14.36552,8.38564 17.79158,9.96973c5.19756,2.40322 12.57188,6.89473 17.83623,8.69238c1.70596,0.11162 2.21279,0.3709 3.59063,-0.41514c3.39551,1.18975 7.44434,3.70313 10.77363,5.36426l22.09365,10.9749l32.54648,15.8127c1.17539,0.56689 5.80342,2.76211 6.82676,3.03076c5.25029,1.37813 20.11113,13.52578 24.58447,11.73369c0.42217,-0.49512 0.63545,-0.71953 0.95654,-1.28086l-0.66328,-1.85508c0.31729,-0.91436 0.25225,-30.07529 0.02051,-31.73203c1.37227,-1.05264 1.80352,-1.30781 3.37354,-2.03584c1.52168,-0.20742 1.62656,-0.15117 2.11553,-1.60342l0.19512,0.02871c0.62988,-0.11367 1.0374,-0.25195 1.64795,-0.06709c-0.30615,3.37734 -0.45176,33.39961 0.53115,34.53428c0.17256,0.19922 0.37998,0.36504 0.58828,0.52529c0.07998,0.84668 0.16377,0.56338 -0.17549,1.27471l0.62725,0.20596c-2.0833,1.05703 -4.70771,2.39004 -6.09434,4.2457c-3.13916,0.69697 -3.45732,0.85342 -6.52412,0.08525c-12.03721,-0.05684 -21.82119,-7.57295 -31.96143,-12.94951c-3.74297,-1.98486 -8.45889,-2.82041 -12.13711,-4.86006c-19.71357,-10.93125 -40.24482,-20.69268 -60.39258,-30.78691c-7.48447,-3.90176 -8.77939,-3.23877 -16.47882,-8.76885z" fill="#000416"/><path d="M22.56161,186.50859c-2.75701,-1.38574 -5.54862,-2.7252 -8.30915,-4.1042c-3.3832,-1.69043 -4.61338,-2.97686 -5.98289,-6.35537l0.2729,-0.4002l1.08923,-0.04453c1.00116,0.26543 0.68722,0.0416 1.25777,0.78076c1.63852,2.53887 14.36552,8.38564 17.79158,9.96973c5.19756,2.40322 12.57188,6.89473 17.83623,8.69238c5.76855,3.54521 12.44473,6.18838 18.54404,9.21738c24.53408,12.18398 48.86396,24.81299 73.57734,36.61992c0.82793,0.39551 2.96074,1.37988 3.48369,1.99102c0.43154,0.36357 0.88857,0.81855 1.40918,0.99844c-12.03721,-0.05684 -21.82119,-7.57295 -31.96143,-12.94951c-3.74297,-1.98486 -8.45889,-2.82041 -12.13711,-4.86006c-19.71357,-10.93125 -40.24482,-20.69268 -60.39258,-30.78691c-7.48447,-3.90176 -8.77939,-3.23877 -16.47882,-8.76885z" fill="#b2b0b0"/><path d="M152.73574,203.04111l0.19512,0.02871c0.39053,4.24658 1.27061,31.70186 -0.1374,33.37148c-1.18945,1.41006 -3.37031,2.7791 -4.904,3.82617l-0.66328,-1.85508c0.31729,-0.91436 0.25225,-30.07529 0.02051,-31.73203c1.37227,-1.05264 1.80352,-1.30781 3.37354,-2.03584c1.52168,-0.20742 1.62656,-0.15117 2.11553,-1.60342z" fill="#002b72"/><path d="M142.12236,242.87549c9.46172,1.60693 8.54238,-7.66494 13.40039,-3.53848l0.62725,0.20596c-2.0833,1.05703 -4.70771,2.39004 -6.09434,4.2457c-3.13916,0.69697 -3.45732,0.85342 -6.52412,0.08525c-0.52061,-0.17988 -0.97764,-0.63486 -1.40918,-0.99844z" fill="#797871"/><path d="M131.90947,215.50518c0.31787,-0.98203 0.39199,-1.75605 1.07754,-2.37627c0.83262,0.44268 0.69492,0.54404 1.2583,1.48389c-0.26367,4.22256 0.09082,9.00029 0.14912,13.24658c0.0208,1.50352 0.32285,4.90986 0.09434,6.24873c-1.73525,0.07529 -9.00615,-4.97051 -10.38252,-6.2165l0.43564,-1.38457c-1.0251,-1.83457 -0.44707,-6.62432 -0.28887,-8.80049c0.3167,-1.38223 -0.04219,-3.20889 0.87305,-4.25186c0.67617,0.29004 0.48311,0.25371 0.93457,1.06582c0.69551,1.13789 0.7875,1.63271 2.31123,1.76836c-0.10459,-0.54756 -0.1125,-0.8168 -0.13477,-1.37607l0.44268,-0.08672c1.41475,0.51592 1.71885,0.56602 3.22969,0.6791z" fill="#000416"/><path d="M124.25303,217.70654c0.3167,-1.38223 -0.04219,-3.20889 0.87305,-4.25186c0.67617,0.29004 0.48311,0.25371 0.93457,1.06582c0.69551,1.13789 0.7875,1.63271 2.31123,1.76836l-0.01758,0.1667c1.5208,0.8502 2.0083,1.39951 3.22178,2.59775c-0.00557,1.37051 0.06797,2.70527 -0.33281,4.01543c0.1166,1.09131 0.28008,2.33643 0.31348,3.41748c-1.22461,0.45293 -1.7458,0.32051 -3.05859,0.17637c-0.96094,0.78018 -0.96064,0.91553 -1.01572,2.23037c-0.97617,-0.80039 -1.95615,-1.5958 -2.94053,-2.38594c-1.0251,-1.83457 -0.44707,-6.62432 -0.28887,-8.80049z" fill="#002b72"/><path d="M128.49814,226.6626c-1.23867,-1.06875 -1.62393,-2.85264 -0.98789,-4.35059c0.77549,-0.75029 0.38555,-0.56719 1.47041,-0.67969c1.15693,0.41426 1.33682,0.61963 2.2626,1.43643c0.1166,1.09131 0.28008,2.33643 0.31348,3.41748c-1.22461,0.45293 -1.7458,0.32051 -3.05859,0.17637z" fill="#67d6fd"/><path d="M128.3543,216.45557c1.5208,0.8502 2.0083,1.39951 3.22178,2.59775c-0.12773,0.53789 -0.21182,0.64834 -0.47256,1.11387c-1.67549,0.29502 -3.54756,-1.81494 -3.44619,-3.43506z" fill="#025298"/><path d="M128.49814,226.6626c1.31279,0.14414 1.83398,0.27656 3.05859,-0.17637l0.3375,0.73242c-0.57246,0.45586 -2.39648,1.8375 -2.75361,2.32383c-0.525,-0.00879 -1.13906,-0.39668 -1.6582,-0.64951c0.05508,-1.31484 0.05479,-1.4502 1.01572,-2.23037z" fill="#00074a"/><path d="M129.14063,229.54248c0.35713,-0.48633 2.18115,-1.86797 2.75361,-2.32383c0.19951,1.02363 0.50215,2.03174 0.24199,3.02314c-1.02393,0.88447 -1.94326,-0.04102 -2.99561,-0.69932z" fill="#003685"/><path d="M10.88947,176.38506c0.26449,-0.2168 0.66691,-0.65537 1.02674,-0.44912c7.64303,4.38252 15.88535,7.30313 23.81689,11.07803c4.89521,2.32998 9.49453,5.36924 14.3748,7.61807c-1.37783,0.78604 -1.88467,0.52676 -3.59063,0.41514c-5.26436,-1.79766 -12.63867,-6.28916 -17.83623,-8.69238c-3.42606,-1.58408 -16.15307,-7.43086 -17.79158,-9.96973z" fill="#000416"/><path d="M142.0793,205.229c1.37754,0.65098 3.27393,2.02969 4.2665,2.25469c0.5417,-0.29414 0.5748,-0.29766 0.90088,-0.80332c0.23174,1.65674 0.29678,30.81768 -0.02051,31.73203c-0.11074,0.34395 -0.3668,2.03203 -0.52529,2.67275l-0.33867,-0.07354c-1.31162,-11.05459 -0.02021,-21.70195 -1.23164,-32.63262c-0.15527,-1.40186 -2.41143,-1.63066 -3.05127,-3.15z" fill="#025298"/><path d="M13.47431,149.36191c0.14353,-0.00205 0.28705,-0.00264 0.43058,-0.00146c4.26038,0.0501 3.40898,2.99619 3.19395,6.23115c-0.29306,-0.05186 -0.58556,-0.10723 -0.87741,-0.16553c-3.6832,-0.74355 -3.51354,-2.97627 -2.74711,-6.06416z" fill-opacity="0.98824" fill="#00e6fe"/><path d="M14.80655,168.25664c0.37204,0.00469 0.59868,0.13594 0.94037,0.28096c0.50101,1.21406 0.45132,2.26201 0.31315,3.53936l-0.44396,0.22031c-0.7628,-0.58066 -1.79558,-1.20264 -2.02872,-2.0833c0.29183,-1.22754 0.271,-0.92197 1.21916,-1.95732z" fill="#c8f7d9"/><path d="M20.83799,150.11631c-0.04518,-1.4499 -0.40983,-3.25986 0.77807,-4.13174l70.77926,34.84922c13.89463,6.76553 29.31797,13.77363 42.88154,20.99736c-0.5833,1.44844 -0.90586,10.45166 -1.03154,12.78164c-0.56338,-0.93984 -0.42568,-1.04121 -1.2583,-1.48389c-0.68555,0.62021 -0.75967,1.39424 -1.07754,2.37627c-1.51084,-0.11309 -1.81494,-0.16318 -3.22969,-0.6791l-0.44268,0.08672c0.02227,0.55928 0.03018,0.82852 0.13477,1.37607c-1.52373,-0.13564 -1.61572,-0.63047 -2.31123,-1.76836c-0.45146,-0.81211 -0.2584,-0.77578 -0.93457,-1.06582c-0.91523,1.04297 -0.55635,2.86963 -0.87305,4.25186c-0.09346,-4.79619 0.0252,-9.50801 0.50215,-14.28457c0.13066,-1.31807 0.40488,-3.19805 -1.16133,-3.84375c-4.22549,-1.74199 -7.94326,-3.28623 -11.97305,-5.49668c-0.9334,0.00088 -3.56484,-1.41182 -4.99277,-1.72822c1.03828,0.60967 2.44014,1.26768 3.02256,2.26846c-3.48164,-1.4417 -7.1335,-3.88623 -10.82842,-5.29453c1.26533,-0.5502 0.85781,-0.21592 1.65352,-1.32979c-1.9957,-1.00605 -4.7707,-2.64668 -6.75293,-1.21025c-0.58975,-0.03662 -16.96465,-8.32471 -18.675,-9.23437l0.58389,-0.10752l-0.26631,-0.11543c-1.03975,-1.60811 -2.29395,-2.66309 -4.22871,-1.58848c-0.75264,-0.17051 -16.1124,-7.87441 -16.98926,-8.64375l0.11514,-0.20303c-1.76191,-2.13311 -0.20625,-1.41826 -2.65957,-2.78906c-2.61563,-0.43271 -4.62246,-1.89521 -6.5291,-1.36025c-3.28799,-0.81797 -18.75129,-10.21875 -21.72053,-9.89062l-0.22301,-0.06475c0.19069,-1.20527 -0.58131,-4.26211 -1.53439,-4.96025c-0.23525,0.76787 -0.48797,1.53018 -0.75791,2.28662zM131.66689,211.95996c0.74883,-4.25361 0.28184,-5.65811 -4.21436,-6.3542c-0.60527,4.91133 -0.79834,5.40791 4.21436,6.3542z" fill="url(#color-2)"/><path d="M100.47568,187.99746c1.78535,0.85576 10.58408,5.02705 11.14512,6.08408c-0.9334,0.00088 -3.56484,-1.41182 -4.99277,-1.72822c1.03828,0.60967 2.44014,1.26768 3.02256,2.26846c-3.48164,-1.4417 -7.1335,-3.88623 -10.82842,-5.29453c1.26533,-0.5502 0.85781,-0.21592 1.65352,-1.32979z" fill="#000416"/><path d="M126.06064,214.52051l0.20654,-1.29316l0.4793,-0.28359c1.90664,0.7418 3.66797,2.10264 5.16299,2.56143c-1.51084,-0.11309 -1.81494,-0.16318 -3.22969,-0.6791l-0.44268,0.08672c0.02227,0.55928 0.03018,0.82852 0.13477,1.37607c-1.52373,-0.13564 -1.61572,-0.63047 -2.31123,-1.76836z" fill="#010623"/><path d="M127.45254,205.60576c4.49619,0.69609 4.96318,2.10059 4.21436,6.3542c-5.0127,-0.94629 -4.81963,-1.44287 -4.21436,-6.3542z" fill-opacity="0.98824" fill="#67d6fd"/><path d="M74.11406,178.90107l0.21182,-1.03213l0.72188,-0.31611c1.71035,0.90967 18.08525,9.19775 18.675,9.23438c0.58213,0.43359 1.49883,1.07812 2.01211,1.53516l-0.52178,1.18975c-0.18604,2.97012 -0.33398,6.78018 -0.00059,9.74531l-0.25635,0.44795c0.03662,0.45645 0.12217,0.81533 -0.00352,1.22842c-6.74473,-2.9001 -13.15547,-6.97617 -19.89492,-9.81123l-0.54199,-0.34922c-0.2373,-0.43213 -0.20566,-0.65889 -0.22734,-1.14609c0.16084,-0.40137 -0.25225,-9.26602 -0.17432,-10.72617z" fill="#000000"/><path d="M74.64375,189.2001c4.5668,2.73486 10.69629,5.15859 15.41953,7.86855c1.36406,0.78252 3.73945,1.74375 4.89287,2.63672c0.03662,0.45645 0.12217,0.81533 -0.00352,1.22842c-6.74473,-2.9001 -13.15547,-6.97617 -19.89492,-9.81123l-0.54199,-0.34922c-0.2373,-0.43213 -0.20566,-0.65889 -0.22734,-1.14609z" fill="#d8dbdb"/><path d="M74.11406,178.90107l0.21182,-1.03213l0.72188,-0.31611c1.71035,0.90967 18.08525,9.19775 18.675,9.23438c0.58213,0.43359 1.49883,1.07812 2.01211,1.53516l-0.52178,1.18975c-4.904,-3.31465 -14.2292,-7.61426 -19.69863,-10.12031z" fill="#d8dbdb"/><path d="M74.11406,178.90107l1.40039,0.49072c-0.77549,0.93809 -0.80361,7.86416 0.07998,8.66396l0.14971,0.01436c2.94785,0.30498 15.47256,5.954 16.99395,8.21924l-0.02666,0.20449c-2.85088,-0.97441 -14.729,-8.35518 -17.69092,-8.00889c-0.19658,0.3126 -0.2751,0.37617 -0.37676,0.71514l-0.35537,0.42715c0.16084,-0.40137 -0.25225,-9.26602 -0.17432,-10.72617z" fill="#646a70"/><path d="M100.12061,203.47969c3.36299,1.63154 19.05703,9.30234 21.05889,11.14541c-0.1623,1.10303 -0.2376,6.90762 -0.30732,8.34463c-5.07246,-2.596 -10.07109,-4.69893 -15.0085,-7.66113c-1.83721,-1.10244 -3.64395,-1.5501 -5.46152,-3.04863c-0.96211,-1.51729 -0.6123,-7.02012 -0.28154,-8.78027z" fill="#000000"/><path d="M24.38001,165.75088c3.18952,1.71475 19.64821,9.61084 21.1362,10.85332c-0.38145,1.55098 -0.08994,6.83437 -0.03604,8.71113c-5.20342,-3.18398 -11.94697,-5.33848 -17.24906,-8.66016c-1.36562,-0.85547 -3.19515,-1.1332 -4.38363,-2.32793c0.83446,-1.97959 -0.07482,-6.9832 0.53253,-8.57637z" fill="#000000"/><path d="M94.74229,210.15439c-4.0834,-2.54209 -17.34287,-8.45098 -19.73174,-10.67725c-0.39902,-1.14199 -0.35391,-7.15312 0.04717,-8.35459c6.73945,2.83506 13.1502,6.91113 19.89492,9.81123c-0.4374,2.80195 -0.36064,6.38643 -0.21035,9.22061z" fill="#000000"/><path d="M95.73486,188.32236c0.17988,7.13994 -0.01465,15.86104 -0.104,23.08359c-7.1417,-2.92383 -14.30068,-7.42119 -21.41543,-10.7373c-0.0293,-2.52363 -0.37998,-7.74785 0.30029,-9.89531l0.54199,0.34922c-0.40107,1.20146 -0.44619,7.2126 -0.04717,8.35459c2.38887,2.22627 15.64834,8.13516 19.73174,10.67725c-0.15029,-2.83418 -0.22705,-6.41865 0.21035,-9.22061c0.12568,-0.41309 0.04014,-0.77197 0.00352,-1.22842l0.25635,-0.44795c-0.3334,-2.96514 -0.18545,-6.7752 0.00059,-9.74531z" fill="#9b9c9b"/><path d="M99.1793,202.68838l0.94131,0.79131c-0.33076,1.76016 -0.68057,7.26299 0.28154,8.78027c1.81758,1.49854 3.62432,1.94619 5.46152,3.04863c4.9374,2.96221 9.93604,5.06514 15.0085,7.66113c0.06973,-1.43701 0.14502,-7.2416 0.30732,-8.34463l0.29912,-0.16348l0.28213,-1.74404c0.43945,3.03809 0.42012,8.50488 -0.34043,11.48115c-3.82324,-1.25947 -8.87168,-4.38662 -12.61875,-6.27744c-3.13125,-1.57998 -6.17812,-3.00234 -9.33428,-4.52842c-0.67881,-3.09053 -1.13408,-7.66377 -0.28799,-10.70449z" fill="#9b9c9b"/><path d="M98.92939,201.2874l0.91348,0.21123c5.06719,2.71289 17.04375,9.50684 21.91787,11.21895l-0.28213,1.74404l-0.29912,0.16348c-2.00186,-1.84307 -17.6959,-9.51387 -21.05889,-11.14541l-0.94131,-0.79131z" fill="#d8dbdb"/><path d="M24.9172,164.72695c5.4619,2.45186 15.67128,7.39219 21.27987,10.50498c0.13301,0.27158 0.24697,0.50361 0.34131,0.69551l-0.16729,1.12441l-0.85488,-0.44766c-1.48799,-1.24248 -17.94668,-9.13857 -21.1362,-10.85332c0.04544,-0.20801 0.41019,-0.8001 0.53719,-1.02393z" fill="#d8dbdb"/><path d="M98.82217,189.32725c3.69492,1.4083 7.34678,3.85283 10.82842,5.29453c2.7501,1.50352 10.59785,4.97988 12.28154,6.70342l-0.50684,1.34883c-2.48643,-2.521 -17.36426,-9.5127 -21.17607,-10.99746l-1.01602,-0.51064c-0.17168,-0.53613 -0.29648,-1.27236 -0.41104,-1.83867z" fill="#d8dbdb"/><path d="M49.94766,178.74902l-0.02959,-1.20527l0.38525,-0.20889c4.36055,2.01094 8.49873,4.22871 12.77373,6.39404c2.00391,1.01514 5.13193,2.7416 7.20234,3.41133l0.62549,0.48223c0.09727,0.45234 0.06738,0.86396 0.06299,1.32656c-0.73623,0.18574 -17.62529,-8.52803 -19.94414,-9.58301z" fill="#d8dbdb"/><path d="M23.13583,174.94629l0.71165,-0.61904c1.18849,1.19473 3.01802,1.47246 4.38363,2.32793c5.30209,3.32168 12.04564,5.47617 17.24906,8.66016c-0.05391,-1.87676 -0.34541,-7.16016 0.03604,-8.71113l0.85488,0.44766c-0.17432,0.88887 0.0627,7.41182 -0.16201,9.70283c-3.58652,-1.81084 -21.65285,-10.20146 -23.07325,-11.8084z" fill="#9b9c9b"/><path d="M23.3533,152.85469c2.96924,-0.32812 18.43254,9.07266 21.72053,9.89063c0.721,0.53701 1.28262,0.83408 1.62568,1.64619l-0.96006,0.77051c-2.66104,-2.77148 -17.34642,-9.10078 -21.74153,-10.93066l-0.4173,-0.26602z" fill="#d8dbdb"/><path d="M50.85234,165.70547c0.98877,0.42656 2.30889,1.04355 3.29502,1.39219c0.87686,0.76934 16.23662,8.47324 16.98926,8.64375l-0.00381,1.51406l-0.90146,0.07559c-1.89521,-2.21426 -15.93779,-8.53857 -19.00166,-9.97646l-0.68848,-0.27012c-0.15176,-0.87861 -0.20859,-0.51357 0.31113,-1.379z" fill="#d8dbdb"/><path d="M50.15889,188.28633l0.92461,0.17314c0.83379,0.46787 2.40615,0.90996 3.30146,1.42236c5.21602,2.98564 13.27119,5.85615 17.97158,9.17461c-3.48252,-0.86865 -20.60947,-8.77119 -22.19766,-10.77012z" fill="#9b9c9b"/><path d="M23.13029,152.78994l0.22301,0.06475l0.22731,1.11064l0.4173,0.26602c0.33618,1.91777 0.5935,8.2377 -0.23994,9.74941c-0.33785,0.36504 -0.68104,0.68057 -0.91585,1.11094c0.3104,-4.27207 -0.92865,-7.07988 0.28816,-12.30176z" fill="#4f565c"/><path d="M22.84213,165.0917c0.23481,-0.43037 0.578,-0.7459 0.91585,-1.11094l1.15922,0.74619c-0.127,0.22383 -0.49175,0.81592 -0.53719,1.02393c-0.60735,1.59316 0.30193,6.59678 -0.53253,8.57637l-0.71165,0.61904c-0.57621,-2.59775 -0.7633,-7.24365 -0.2937,-9.85459z" fill="#646a70"/><path d="M99.2332,191.16592l1.01602,0.51064c0.00615,1.97285 0.21299,8.30449 -0.40635,9.82207l-0.91348,-0.21123c0.47842,-1.91338 -0.95801,-7.55215 0.30381,-10.12148z" fill="#4f565c"/><path d="M49.94766,178.74902l1.07607,0.61699c0.26191,2.41582 0.2165,6.5833 0.05977,9.09346l-0.92461,-0.17314c-0.53906,-2.56934 -0.4251,-6.92754 -0.21123,-9.5373z" fill="#646a70"/><path d="M50.68506,165.51914l0.16729,0.18633c-0.51973,0.86543 -0.46289,0.50039 -0.31113,1.379l0.68848,0.27012c-0.09961,1.90693 0.01816,7.64502 -0.56045,8.91064l-0.4166,-0.03662c-0.80947,-1.21699 -0.61523,-9.4459 0.43242,-10.70947z" fill="#646a70"/><path d="M70.23135,177.33105l0.90146,-0.07559c0.07969,3.30469 0.11924,7.08721 -0.22793,10.36699l-0.62549,-0.48223c-0.23115,-1.78975 -0.05039,-7.58613 -0.04805,-9.80918z" fill="#646a70"/><path d="M121.93213,201.3252c0.05596,1.38809 0.24463,8.33408 -0.60879,9.31641c-0.27334,-2.19111 -0.45352,-5.81807 0.10195,-7.96758z" fill="#646a70"/><path d="M25.88534,163.24687c4.80958,-0.17051 11.66622,5.35313 16.18937,7.0582c0.81094,0.30586 1.29639,0.40635 1.90342,1.04473c-0.90732,0.29033 -5.68037,-1.75752 -6.44971,-2.29629c-1.68105,-1.17686 -11.10252,-4.80293 -11.64308,-5.80664z" fill="#4f565c"/><path d="M51.6041,176.14688c3.15264,-0.30059 13.86885,5.5749 16.4165,7.59521c-0.86309,0.23994 -15.81387,-6.95098 -16.4165,-7.59521z" fill="#646a70"/><path d="M102.20566,200.73135c3.48955,-0.0041 7.66494,3.24785 10.80176,4.83955c1.06318,0.53936 5.83125,2.68623 6.30498,3.26426c-3.56396,-0.03457 -9.87393,-4.54277 -13.09395,-5.92881c-1.23281,-0.53057 -3.34102,-1.14932 -4.01279,-2.175z" fill="#4f565c"/><path d="M70.69131,190.07637c0.89238,1.06875 0.48252,5.83799 0.39111,7.4543c-1.01602,-1.47246 -1.19854,-5.86377 -0.39111,-7.4543z" fill-opacity="0.98431" fill="#646a70"/><path d="M23.86488,137.1501c0.43673,0.52764 0.97705,1.02598 1.04502,1.66377l-0.71265,0.54053c0.32347,0.9876 4.34818,2.22656 5.43302,2.73105l17.36602,8.27695c11.48877,5.50723 104.40967,50.8043 105.73945,52.67871c-0.48896,1.45225 -0.59385,1.396 -2.11553,1.60342c-1.57002,0.72803 -2.00127,0.9832 -3.37354,2.03584c-0.32607,0.50566 -0.35918,0.50918 -0.90088,0.80332c-0.99258,-0.225 -2.88896,-1.60371 -4.2665,-2.25469c-0.94219,-0.73213 -5.45859,-2.77178 -6.80244,-3.39785c-13.56357,-7.22373 -28.98691,-14.23184 -42.88154,-20.99736l-70.77926,-34.84922c-2.02456,-1.5208 -7.96148,-3.92988 -10.37282,-4.82959c-0.61315,0.12451 -0.50095,0.03281 -1.21225,-0.30234c1.38598,-1.80938 4.99192,-2.81953 7.10777,-3.45586c1.86469,0.85254 2.95441,1.08428 4.93723,1.57148z" fill="#0077ef"/><path d="M11.24323,141.15498c1.1148,-0.54141 2.01618,-0.59824 3.19172,-0.06211c8.32201,3.79365 16.2295,8.5667 24.50909,12.47051c14.98711,6.91553 29.8667,14.06191 44.6335,21.43623c1.80586,0.89473 3.56279,1.88672 5.3417,2.8333c8.06133,4.28965 16.43379,7.96377 24.63223,11.97744l20.90186,10.22109c3.6208,1.78799 8.44365,4.36553 12.06738,5.91299c0.88564,-0.75469 1.79414,-1.67842 2.90537,-1.93799c0.93105,0.18516 0.6334,-0.00117 1.19414,0.63809c-1.57002,0.72803 -2.00127,0.9832 -3.37354,2.03584c-0.32607,0.50566 -0.35918,0.50918 -0.90088,0.80332c-0.99258,-0.225 -2.88896,-1.60371 -4.2665,-2.25469c-0.94219,-0.73213 -5.45859,-2.77178 -6.80244,-3.39785c-13.56357,-7.22373 -28.98691,-14.23184 -42.88154,-20.99736l-70.77926,-34.84922c-2.02456,-1.5208 -7.96148,-3.92988 -10.37282,-4.82959z" fill="#77c2fc"/><path d="M155.02852,201.0709c0.64893,-0.40371 1.30107,-0.80303 1.95586,-1.19795c8.33379,-5.01328 17.48496,-9.87393 25.96963,-14.70205c21.74795,-12.48574 43.61191,-24.76875 65.58896,-36.84697l28.49443,-16.20557c3.56543,-2.01826 7.30605,-4.15635 10.8709,-6.22441c0.39082,-0.22646 1.2668,0.03105 1.72529,0.14561c-8.21777,4.75723 -16.47363,9.44854 -24.7667,14.07334l-72.14443,40.72441l-26.42227,15.08467c-2.90215,1.67871 -9.38262,5.14336 -11.59482,6.87627l-0.12656,0.20449c-0.61055,-0.18486 -1.01807,-0.04658 -1.64795,0.06709l-0.19512,-0.02871c-1.32979,-1.87441 -94.25068,-47.17148 -105.73945,-52.67871l-17.36602,-8.27695c-1.08483,-0.50449 -5.10955,-1.74346 -5.43302,-2.73105l0.71265,-0.54053l0.22828,0.00557c0.07901,-0.62813 0.13582,-0.67646 0.45645,-1.23809l0.58037,-0.01201c2.99569,2.70908 19.71621,9.7582 24.16523,11.95957c28.4874,14.09531 57.27393,27.77344 85.5832,42.23379c6.34717,3.24229 12.54111,5.73369 19.10508,9.3082z" fill="#67d6fd"/><path d="M25.13818,138.81943c5.0502,2.15361 10.4918,4.95176 15.48867,7.33184c14.18496,6.78691 28.31221,13.69336 42.38027,20.71846c17.74072,8.58252 35.43428,17.2626 53.07949,26.04023c3.36621,1.69424 17.01475,7.91924 18.61875,9.88828l-0.12656,0.20449c-0.61055,-0.18486 -1.01807,-0.04658 -1.64795,0.06709l-0.19512,-0.02871c-1.32979,-1.87441 -94.25068,-47.17148 -105.73945,-52.67871l-17.36602,-8.27695c-1.08483,-0.50449 -5.10955,-1.74346 -5.43302,-2.73105l0.71265,-0.54053z" fill="#00074a"/><path d="M164.93145,235.14053c1.80762,-0.14531 6.93896,-2.49053 7.92041,-2.36309c-0.22354,0.80303 -0.57949,0.97852 -1.23281,1.46953c-0.07881,0.58652 -0.10664,0.78604 -0.08379,1.37461c-5.43428,1.95967 -17.30273,8.27432 -21.47959,8.16709c1.38662,-1.85566 4.01104,-3.18867 6.09434,-4.2457c3.05889,-1.27822 5.82188,-3.11777 8.78145,-4.40244z" fill="#9b9c9b"/></g></svg></svg>