<svg id="svg" version="1.1" viewBox="0 0 300 300" width="300" height="300" xmlns="http://www.w3.org/2000/svg"><svg xmlns="http://www.w3.org/2000/svg"><defs><clipPath id="clip-1"><rect x="0" y="0" transform="scale(0.29297,0.29297)" width="1024" height="1024" fill="none"/></clipPath><linearGradient x1="157.22314" y1="210.80156" x2="177.21064" y2="214.17803" gradientUnits="userSpaceOnUse" id="color-1"><stop offset="0" stop-color="#b168da" stop-opacity="0.98824"/><stop offset="1" stop-color="#6e39b1"/></linearGradient><linearGradient x1="89.9499" y1="266.79961" x2="100.63975" y2="89.20225" gradientUnits="userSpaceOnUse" id="color-2"><stop offset="0" stop-color="#521682"/><stop offset="1" stop-color="#7328ae"/></linearGradient><linearGradient x1="41.49961" y1="212.5582" x2="145.8123" y2="148.00693" gradientUnits="userSpaceOnUse" id="color-3"><stop offset="0" stop-color="#000000"/><stop offset="1" stop-color="#0b0026"/></linearGradient><linearGradient x1="72.79277" y1="202.81846" x2="77.59512" y2="206.02852" gradientUnits="userSpaceOnUse" id="color-4"><stop offset="0" stop-color="#09002e"/><stop offset="1" stop-color="#150050"/></linearGradient><linearGradient x1="173.48965" y1="154.93477" x2="171.2376" y2="151.1168" gradientUnits="userSpaceOnUse" id="color-5"><stop offset="0" stop-color="#8e3ec7"/><stop offset="1" stop-color="#aa5ce2"/></linearGradient><linearGradient x1="101.77705" y1="115.33477" x2="99.50508" y2="119.896" gradientUnits="userSpaceOnUse" id="color-6"><stop offset="0" stop-color="#eeb3f8"/><stop offset="1" stop-color="#f9d9fb"/></linearGradient><linearGradient x1="226.33682" y1="127.3415" x2="222.78428" y2="121.68193" gradientUnits="userSpaceOnUse" id="color-7"><stop offset="0" stop-color="#db8afb"/><stop offset="1" stop-color="#ecb4ef"/></linearGradient></defs><g clip-path="url(#clip-1)" fill="none" fill-rule="nonzero" stroke="none" stroke-width="1" stroke-linecap="butt" stroke-linejoin="miter" stroke-miterlimit="10" stroke-dasharray="" stroke-dashoffset="0" font-family="none" font-weight="none" font-size="none" text-anchor="none" style="mix-blend-mode: normal"><path d="M31.37256,77.81748c6.3958,-3.33047 14.10498,-8.13867 20.62734,-11.78818l46.85713,-26.14512c7.33857,-4.14229 14.53682,-8.48174 21.99229,-12.34954c6.00322,-3.1144 11.39414,-5.0734 18.06855,-2.81707c9.67617,3.27105 18.76055,9.08312 27.75322,13.87989l47.14717,25.08838c13.99922,7.44434 28.3043,14.69736 42.18486,22.37725c3.50215,1.9377 10.54512,5.23066 13.30986,7.46748c8.56729,4.55625 6.35947,25.77158 6.31992,34.49678l-0.1541,32.32764l-0.05098,28.0957c0,5.08945 0.58857,18.38789 -1.31045,22.5958c0.45762,2.18438 2.0959,0.44326 3.47227,1.6626c0.1793,1.08018 -1.82578,4.39365 -2.52715,5.48291c-2.99531,4.65088 -9.31699,5.9959 -13.24189,8.76885c-2.92471,2.57578 -6.30996,4.80322 -9.09551,7.45107c-4.51318,4.28936 -10.5375,4.93975 -15.63574,7.73584c-1.97871,0.93867 -5.38271,2.25703 -6.60059,3.86221c-5.28604,5.63701 -17.40059,9.46084 -24.34072,12.95098c-3.37178,1.69541 -5.1252,5.15918 -8.57959,6.80977c-3.1374,1.49912 -5.93086,1.65234 -9.11162,2.71846c-2.68887,0.85547 -4.0834,1.72793 -6.5042,2.66807c-5.39443,3.12158 -12.03662,3.79512 -18.12891,3.69668c-3.07178,0.04014 -12.38379,0.51797 -14.63994,-1.00957c-8.40059,-5.68711 -18.63164,-4.75693 -26.78613,-10.42705c-5.06309,-3.52031 -11.63584,-5.77354 -17.33291,-7.68984c-8.56582,-2.36367 -10.23574,-5.99678 -17.66191,-9.59473c-7.50439,-3.63574 -16.06436,-6.98613 -23.67539,-10.59258c-5.81396,-2.75508 -11.325,-6.32637 -17.29043,-9.14473c-7.27002,-3.07383 -11.31973,-5.18027 -17.2294,-10.41885c-2.13044,-1.88848 -8.98084,-6.03457 -3.74279,-9.03662c-0.94831,-1.89697 -1.62308,-3.91846 -2.00411,-6.00469c-0.62607,-3.52471 -0.41569,-11.6792 -0.39867,-15.5499l0.06003,-25.08633l0.03891,-44.53096c-0.00952,-6.23203 -0.04359,-12.4667 -0.02473,-18.69844c0.01603,-5.2875 -0.15554,-10.72588 3.0162,-15.24727c1.66556,-1.91689 3.05859,-2.80254 5.22012,-4.00488zM164.24678,153.71367c1.32012,2.4999 3.26982,6.45498 3.50039,9.21211c0.8748,10.4625 0.24082,21.48545 0.28916,31.97432c0.12744,14.00566 0.16289,28.01191 0.10664,42.01787c-0.01699,9.18369 0.49131,19.66963 -1.30488,28.56035c-0.50654,2.50752 -1.40215,3.28857 0.40752,4.22578l0.28066,-0.34834c3.3791,-6.37236 2.45039,-17.77324 2.4457,-25.07227l-0.04951,-31.45312l0.02871,-32.06953c0.02256,-5.88604 0.44092,-12.79453 -0.14297,-18.50273c-0.32695,-1.10801 -0.58564,-2.37451 -0.84434,-3.51094l-0.64658,-3.02461c-1.05029,-1.11006 -1.82197,-1.94619 -3.01494,-2.92588zM152.31475,259.24043c2.32207,-0.51416 2.75391,-0.95479 4.07637,-2.96309c0.30293,-7.4792 -0.03428,-15.06357 0.075,-22.54805c0.11104,-7.8041 -0.23555,-15.68643 -0.04336,-23.4832c0.271,-10.98838 0.95596,-21.90322 0.29121,-32.91533c-0.27539,-4.5583 1.09365,-12.44004 -2.0833,-15.80303c-3.04102,-3.21885 -7.67432,-5.34961 -11.47002,-7.52021c-11.04873,-5.71201 -22.16543,-11.28896 -33.14121,-17.15186c-3.06064,-1.63506 -6.40986,-2.85937 -9.5001,-4.4291l-28.70918,-14.63672c-4.6708,-2.41846 -32.15859,-17.51162 -34.66318,-17.60596c-0.0627,-0.00234 -0.12539,0.00059 -0.18809,0.00117c-5.99092,3.3876 -4.85244,7.03477 -5.13545,13.08486c-0.41631,8.90098 -0.17168,17.84912 -0.20596,26.7624l-0.01201,38.29863c0.02139,5.32412 -0.02783,10.69219 0.00352,16.00869c0.03252,5.56025 1.92861,6.69141 6.51387,9.23262c18.36709,10.17891 37.74756,18.67764 56.54443,28.01016l37.21025,18.09053c5.21162,2.52158 15.25166,7.77861 20.43721,9.56748z" fill="#9f4edc"/><path d="M165.30234,152.79668c1.19297,0.97969 1.96465,1.81582 3.01494,2.92588l0.64658,3.02461c0.25869,1.13643 0.51738,2.40293 0.84434,3.51094c0.58389,5.7082 0.16553,12.6167 0.14297,18.50273l-0.02871,32.06953l0.04951,31.45313c0.00469,7.29902 0.9334,18.6999 -2.4457,25.07227l-0.28066,0.34834c-1.80967,-0.93721 -0.91406,-1.71826 -0.40752,-4.22578c1.79619,-8.89072 1.28789,-19.37666 1.30488,-28.56035c0.05625,-14.00596 0.0208,-28.01221 -0.10664,-42.01787c-0.04834,-10.48887 0.58564,-21.51182 -0.28916,-31.97432c-0.23057,-2.75713 -2.18027,-6.71221 -3.50039,-9.21211z" fill="url(#color-1)"/><path d="M26.15244,81.82236c-0.17001,0.9542 -0.58295,2.56582 -0.29408,3.39492c0.61992,0.04951 0.353,0.12715 0.8405,-0.17871c3.65271,-1.25332 5.29714,-0.22676 8.88718,1.59463c24.45293,12.40576 48.84873,25.10625 73.28965,37.52168l35.24561,17.80225c4.75225,2.42197 17.24355,7.93008 20.12549,11.75654c1.32012,2.4999 3.26982,6.45498 3.50039,9.21211c0.8748,10.4625 0.24082,21.48545 0.28916,31.97432c0.12744,14.00566 0.16289,28.01191 0.10664,42.01787c-0.01699,9.18369 0.49131,19.66963 -1.30488,28.56035c-0.50654,2.50752 -1.40215,3.28857 0.40752,4.22578l0.28066,-0.34834c4.24014,-0.50654 6.77871,-2.01768 10.41357,-4.22314c1.19033,-0.14473 1.48916,-0.14414 2.55469,-0.68057c6.08086,-3.77373 16.58994,-8.87197 23.31035,-12.55986l58.32393,-31.70889c4.1502,-2.23857 6.9375,-4.7001 9.91084,-8.23945c0.25781,-0.30703 0.92109,0.07148 1.23223,0.2001c0.30908,-0.47959 0.46875,-0.6668 0.84551,-1.09746c0.45762,2.18438 2.0959,0.44326 3.47227,1.6626c0.1793,1.08018 -1.82578,4.39365 -2.52715,5.48291c-2.99531,4.65088 -9.31699,5.9959 -13.24189,8.76885c-2.92471,2.57578 -6.30996,4.80322 -9.09551,7.45107c-4.51318,4.28936 -10.5375,4.93975 -15.63574,7.73584c-1.97871,0.93867 -5.38271,2.25703 -6.60059,3.86221c-5.28604,5.63701 -17.40059,9.46084 -24.34072,12.95098c-3.37178,1.69541 -5.1252,5.15918 -8.57959,6.80977c-3.1374,1.49912 -5.93086,1.65234 -9.11162,2.71846c-2.68887,0.85547 -4.0834,1.72793 -6.5042,2.66807c-5.39443,3.12158 -12.03662,3.79512 -18.12891,3.69668c-3.07178,0.04014 -12.38379,0.51797 -14.63994,-1.00957c-8.40059,-5.68711 -18.63164,-4.75693 -26.78613,-10.42705c-5.06309,-3.52031 -11.63584,-5.77354 -17.33291,-7.68984c-8.56582,-2.36367 -10.23574,-5.99678 -17.66191,-9.59473c-7.50439,-3.63574 -16.06436,-6.98613 -23.67539,-10.59258c-5.81396,-2.75508 -11.325,-6.32637 -17.29043,-9.14473c-7.27002,-3.07383 -11.31973,-5.18027 -17.2294,-10.41885c-2.13044,-1.88848 -8.98084,-6.03457 -3.74279,-9.03662c-0.94831,-1.89697 -1.62308,-3.91846 -2.00411,-6.00469c-0.62607,-3.52471 -0.41569,-11.6792 -0.39867,-15.5499l0.06003,-25.08633l0.03891,-44.53096c-0.00952,-6.23203 -0.04359,-12.4667 -0.02473,-18.69844c0.01603,-5.2875 -0.15554,-10.72588 3.0162,-15.24727zM152.31475,259.24043c2.32207,-0.51416 2.75391,-0.95479 4.07637,-2.96309c0.30293,-7.4792 -0.03428,-15.06357 0.075,-22.54805c0.11104,-7.8041 -0.23555,-15.68643 -0.04336,-23.4832c0.271,-10.98838 0.95596,-21.90322 0.29121,-32.91533c-0.27539,-4.5583 1.09365,-12.44004 -2.0833,-15.80303c-3.04102,-3.21885 -7.67432,-5.34961 -11.47002,-7.52021c-11.04873,-5.71201 -22.16543,-11.28896 -33.14121,-17.15186c-3.06064,-1.63506 -6.40986,-2.85937 -9.5001,-4.4291l-28.70918,-14.63672c-4.6708,-2.41846 -32.15859,-17.51162 -34.66318,-17.60596c-0.0627,-0.00234 -0.12539,0.00059 -0.18809,0.00117c-5.99092,3.3876 -4.85244,7.03477 -5.13545,13.08486c-0.41631,8.90098 -0.17168,17.84912 -0.20596,26.7624l-0.01201,38.29863c0.02139,5.32412 -0.02783,10.69219 0.00352,16.00869c0.03252,5.56025 1.92861,6.69141 6.51387,9.23262c18.36709,10.17891 37.74756,18.67764 56.54443,28.01016l37.21025,18.09053c5.21162,2.52158 15.25166,7.77861 20.43721,9.56748z" fill="url(#color-2)"/><path d="M25.46481,206.93994c0.26367,0.51475 1.33679,2.56406 1.73244,2.91357c0.22198,-0.04629 0.49005,-0.10225 0.8042,-0.16758c2.31612,1.02744 6.84688,2.9001 8.92813,4.0248c6.15117,2.71992 12.26602,5.86494 18.30645,8.84004c0.87656,0.43184 5.00654,2.46387 5.44102,2.81689c10.03008,4.20645 17.73545,8.60479 27.18838,13.16895l42.64189,20.21514c8.11816,3.93662 16.55508,8.40938 24.8127,12.0123c3.87598,1.69131 8.36895,1.53984 11.92559,-1.05996l0.28066,-0.34834c4.24014,-0.50654 6.77871,-2.01768 10.41357,-4.22314c1.19033,-0.14473 1.48916,-0.14414 2.55469,-0.68057c6.08086,-3.77373 16.58994,-8.87197 23.31035,-12.55986l58.32393,-31.70889c4.1502,-2.23857 6.9375,-4.7001 9.91084,-8.23945c0.25781,-0.30703 0.92109,0.07148 1.23223,0.2001c0.30908,-0.47959 0.46875,-0.6668 0.84551,-1.09746c0.45762,2.18438 2.0959,0.44326 3.47227,1.6626c0.1793,1.08018 -1.82578,4.39365 -2.52715,5.48291c-2.99531,4.65088 -9.31699,5.9959 -13.24189,8.76885c-2.92471,2.57578 -6.30996,4.80322 -9.09551,7.45107c-4.51318,4.28936 -10.5375,4.93975 -15.63574,7.73584c-1.97871,0.93867 -5.38271,2.25703 -6.60059,3.86221c-5.28604,5.63701 -17.40059,9.46084 -24.34072,12.95098c-3.37178,1.69541 -5.1252,5.15918 -8.57959,6.80977c-3.1374,1.49912 -5.93086,1.65234 -9.11162,2.71846c-2.68887,0.85547 -4.0834,1.72793 -6.5042,2.66807c-5.39443,3.12158 -12.03662,3.79512 -18.12891,3.69668c-3.07178,0.04014 -12.38379,0.51797 -14.63994,-1.00957c-8.40059,-5.68711 -18.63164,-4.75693 -26.78613,-10.42705c-5.06309,-3.52031 -11.63584,-5.77354 -17.33291,-7.68984c-8.56582,-2.36367 -10.23574,-5.99678 -17.66191,-9.59473c-7.50439,-3.63574 -16.06436,-6.98613 -23.67539,-10.59258c-5.81396,-2.75508 -11.325,-6.32637 -17.29043,-9.14473c-7.27002,-3.07383 -11.31973,-5.18027 -17.2294,-10.41885c-2.13044,-1.88848 -8.98084,-6.03457 -3.74279,-9.03662z" fill="#a8a8a6"/><path d="M25.46481,206.93994c0.26367,0.51475 1.33679,2.56406 1.73244,2.91357c0.22198,-0.04629 0.49005,-0.10225 0.8042,-0.16758c2.31612,1.02744 6.84688,2.9001 8.92813,4.0248c6.15117,2.71992 12.26602,5.86494 18.30645,8.84004c0.87656,0.43184 5.00654,2.46387 5.44102,2.81689l-0.37617,0.5291c1.16338,0.93779 2.35107,1.75049 3.06738,3.05859c2.51777,1.6374 6.76816,3.70283 9.53145,5.04229c26.15361,12.6791 52.35176,25.31777 78.69551,37.58408c2.47969,1.15488 6.77051,1.66846 9.51504,2.02529c0.71484,0.0917 1.43086,0.17373 2.14775,0.2458c0.31113,0.43887 0.3668,0.48223 0.56572,1.00107c-3.07178,0.04014 -12.38379,0.51797 -14.63994,-1.00957c-8.40059,-5.68711 -18.63164,-4.75693 -26.78613,-10.42705c-5.06309,-3.52031 -11.63584,-5.77354 -17.33291,-7.68984c-8.56582,-2.36367 -10.23574,-5.99678 -17.66191,-9.59473c-7.50439,-3.63574 -16.06436,-6.98613 -23.67539,-10.59258c-5.81396,-2.75508 -11.325,-6.32637 -17.29043,-9.14473c-7.27002,-3.07383 -11.31973,-5.18027 -17.2294,-10.41885c-2.13044,-1.88848 -8.98084,-6.03457 -3.74279,-9.03662z" fill="#a8a8a6"/><path d="M46.43701,226.39541c4.45928,-1.89756 12.20713,5.90889 16.79971,6.33955l0.08818,-0.81621c0.74619,0.0709 6.90879,3.49775 8.21982,4.11123c6.74561,3.15762 13.61543,6.08086 20.28164,9.42012c5.88662,2.94873 11.52246,6.47988 17.63115,9.00352c1.57559,0.65098 1.45811,1.08545 3.6498,1.67344l-0.00879,0.21533c-3.46348,-0.01318 -4.77041,-1.50791 -8.03379,-0.61494c-8.56582,-2.36367 -10.23574,-5.99678 -17.66191,-9.59473c-7.50439,-3.63574 -16.06436,-6.98613 -23.67539,-10.59258c-5.81396,-2.75508 -11.325,-6.32637 -17.29043,-9.14473z" fill="#c8c6c7"/><path d="M38.66104,217.03096c-0.90762,-1.36406 -3.14971,-2.92061 -4.50645,-3.87803c1.04883,0.40459 1.63066,0.70752 2.775,0.55781c6.15117,2.71992 12.26602,5.86494 18.30645,8.84004c0.87656,0.43184 5.00654,2.46387 5.44102,2.81689l-0.37617,0.5291c1.16338,0.93779 2.35107,1.75049 3.06738,3.05859c-3.44502,-1.19209 -10.04209,-4.72236 -13.65439,-6.38496c-2.55352,-1.1751 -9.00908,-4.20996 -11.05283,-5.53945z" fill="#030104"/><path d="M27.19726,209.85352c0.22198,-0.04629 0.49005,-0.10225 0.8042,-0.16758c2.31612,1.02744 6.84688,2.9001 8.92813,4.0248c-1.14434,0.14971 -1.72617,-0.15322 -2.775,-0.55781c1.35674,0.95742 3.59883,2.51396 4.50645,3.87803c-3.17168,-0.89678 -9.55395,-4.24365 -11.46378,-7.17744z" fill="#3a1534"/><path d="M180.49453,264.45205c6.08086,-3.77373 16.58994,-8.87197 23.31035,-12.55986l58.32393,-31.70889c4.1502,-2.23857 6.9375,-4.7001 9.91084,-8.23945c0.25781,-0.30703 0.92109,0.07148 1.23223,0.2001c-0.85576,1.54014 -3.04629,5.81719 -4.37432,6.57539c-12.51475,7.14375 -25.42646,14.03965 -38.09912,20.89834l-33.66064,18.52529c-8.41904,4.67988 -20.03262,11.61064 -28.97813,14.35928c-3.03721,0.72539 -4.04707,0.73799 -7.04941,1.10479c-2.74453,-0.35684 -7.03535,-0.87041 -9.51504,-2.02529c-26.34375,-12.26631 -52.54189,-24.90498 -78.69551,-37.58408c-2.76328,-1.33945 -7.01367,-3.40488 -9.53145,-5.04229c-0.71631,-1.30811 -1.904,-2.1208 -3.06738,-3.05859l0.37617,-0.5291c10.03008,4.20645 17.73545,8.60479 27.18838,13.16895l42.64189,20.21514c8.11816,3.93662 16.55508,8.40938 24.8127,12.0123c3.87598,1.69131 8.36895,1.53984 11.92559,-1.05996l0.28066,-0.34834c4.24014,-0.50654 6.77871,-2.01768 10.41357,-4.22314c1.19033,-0.14473 1.48916,-0.14414 2.55469,-0.68057z" fill="#030104"/><path d="M188.45684,268.48916l-0.13916,-0.29092c1.02598,-1.42441 16.96699,-10.9708 19.89492,-12.82764c4.30166,-2.72813 12.55635,-5.81338 17.05811,-9.07119c0.85283,-0.61729 2.84678,-1.85098 3.8124,-2.33408c1.01426,0.69346 -0.36914,0.42246 1.40566,2.04463c-5.28604,5.63701 -17.40059,9.46084 -24.34072,12.95098c-3.37178,1.69541 -5.1252,5.15918 -8.57959,6.80977c-3.1374,1.49912 -5.93086,1.65234 -9.11162,2.71846z" fill="#c8c6c7"/><path d="M232.19063,241.99219c4.97168,-3.14004 11.12021,-5.24121 16.24014,-8.31914c3.54609,-2.13164 6.83555,-4.5249 10.42822,-6.55371c0.70283,-0.39697 2.16328,-0.24639 2.96162,-0.1585c-2.92471,2.57578 -6.30996,4.80322 -9.09551,7.45107c-4.51318,4.28936 -10.5375,4.93975 -15.63574,7.73584c-1.15254,-0.22002 -3.63223,-0.15264 -4.89873,-0.15557z" fill="#c8c6c7"/><path d="M168.15967,272.50225c8.26318,-0.13828 21.28594,-9.85078 29.59131,-12.36709c-0.41748,0.75967 -9.49512,5.08916 -11.02969,6.50801c-1.37285,1.26943 -3.40107,2.92529 -4.63066,4.35117l-0.13799,0.16289c-5.39443,3.12158 -12.03662,3.79512 -18.12891,3.69668c-0.19893,-0.51885 -0.25459,-0.56221 -0.56572,-1.00107c-0.71689,-0.07207 -1.43291,-0.1541 -2.14775,-0.2458c3.00234,-0.3668 4.01221,-0.37939 7.04941,-1.10479z" fill="#959594"/><path d="M36.95889,100.18506c0.0627,-0.00059 0.12539,-0.00352 0.18809,-0.00117c2.50459,0.09434 29.99238,15.1875 34.66318,17.60596l28.70918,14.63672c3.09023,1.56973 6.43945,2.79404 9.5001,4.4291c10.97578,5.86289 22.09248,11.43984 33.14121,17.15186c3.7957,2.17061 8.429,4.30137 11.47002,7.52021c3.17695,3.36299 1.80791,11.24473 2.0833,15.80303c0.66475,11.01211 -0.02021,21.92695 -0.29121,32.91533c-0.19219,7.79678 0.15439,15.6791 0.04336,23.4832c-0.10928,7.48447 0.22793,15.06885 -0.075,22.54805c-1.32246,2.0083 -1.7543,2.44893 -4.07637,2.96309c-5.18555,-1.78887 -15.22559,-7.0459 -20.43721,-9.56748l-37.21025,-18.09053c-18.79687,-9.33252 -38.17734,-17.83125 -56.54443,-28.01016c-4.58525,-2.54121 -6.48135,-3.67236 -6.51387,-9.23262c-0.03135,-5.3165 0.01787,-10.68457 -0.00352,-16.00869l0.01201,-38.29863c0.03428,-8.91328 -0.21035,-17.86143 0.20596,-26.7624c0.28301,-6.0501 -0.85547,-9.69727 5.13545,-13.08486zM78.84932,149.19111c4.08486,-2.61182 1.99512,-9.10195 -2.57871,-9.22178c-4.06348,2.04639 -3.19102,8.63027 2.57871,9.22178zM109.93652,165.07236c4.10449,-2.44307 2.28311,-8.79111 -2.95342,-9.23525c-4.60107,2.17031 -2.75859,8.55293 2.95342,9.23525zM48.82969,134.12021c3.98379,-3.61406 2.0001,-9.19922 -2.68242,-9.66416c-5.44834,2.62822 -2.5541,8.1668 2.01299,9.48604c0.22207,0.06387 0.44502,0.12305 0.66943,0.17812zM141.13623,179.73281c3.40576,-4.07197 0.27187,-9.32227 -4.98604,-8.9168c-2.6373,3.41572 -0.74912,9.89648 4.21963,9.06152c0.25635,-0.04365 0.51182,-0.0917 0.76641,-0.14473z" fill="url(#color-3)"/><path d="M70.6251,119.79668c5.70615,1.89932 20.68535,9.68232 25.77979,12.94336c-1.58936,1.08047 -4.25771,2.72578 -5.03027,4.54395c-0.07266,1.12617 0.14736,2.49961 0.11338,3.66914c-0.79482,27.34014 0.39258,54.70488 -0.53994,82.0207c-0.07559,2.21045 -1.51143,3.52646 -3.3668,2.73896c-5.58809,-2.37158 -19.42793,-7.40303 -22.71621,-12.06445c-0.65684,-5.51279 -0.53555,-14.66572 -0.55928,-20.42607c-0.13066,-10.84277 -0.14238,-21.68643 -0.03545,-32.5292l-0.01436,-22.83516c0.03311,-3.7916 -0.1459,-10.17979 0.80068,-13.68135c0.9873,-1.29082 1.5542,-1.67285 2.91768,-2.53887c0.88066,-0.61084 1.77803,-1.22168 2.65078,-1.84102zM78.84932,149.19111c4.08486,-2.61182 1.99512,-9.10195 -2.57871,-9.22178c-4.06348,2.04639 -3.19102,8.63027 2.57871,9.22178z" fill="#521983"/><path d="M70.6251,119.79668c5.70615,1.89932 20.68535,9.68232 25.77979,12.94336c-1.58936,1.08047 -4.25771,2.72578 -5.03027,4.54395l-0.16846,0.10781c-0.01318,-0.88096 -0.07939,-1.63008 -0.74385,-2.30244c-5.36572,-5.42812 -17.3127,-8.4999 -22.48799,-13.45166c0.88066,-0.61084 1.77803,-1.22168 2.65078,-1.84102z" fill="#8b34b9"/><path d="M67.97432,121.6377c5.17529,4.95176 17.12227,8.02354 22.48799,13.45166c0.66445,0.67236 0.73066,1.42148 0.74385,2.30244l-0.28125,0.98672l-0.45762,0.05332c-0.94102,-0.91729 -2.12314,-2.24766 -3.25488,-3.08203c-5.7375,-4.2293 -12.95713,-7.27852 -19.29463,-10.60225c-0.32842,-0.17227 -1.56885,-0.04072 -1.9585,0.00762l-0.14033,0.01846l-0.7623,-0.59707c0.9873,-1.29082 1.5542,-1.67285 2.91768,-2.53887z" fill="#dfa0f4"/><path d="M75.81768,210.91934c-3.33604,-1.93301 -4.73291,-7.5416 -1.7291,-10.22813c0.64775,-0.58887 1.51318,-0.87803 2.38477,-0.79629c1.77012,0.15322 2.98037,1.54336 4.06025,2.78262c2.93408,2.30742 2.70703,8.78818 -1.29756,9.96533c-0.81621,0.23965 -3.03281,-1.04561 -3.41836,-1.72354z" fill="#300758"/><path d="M75.81768,210.91934c-3.33604,-1.93301 -4.73291,-7.5416 -1.7291,-10.22813c0.64775,-0.58887 1.51318,-0.87803 2.38477,-0.79629c1.77012,0.15322 2.98037,1.54336 4.06025,2.78262c-2.06104,0.81973 -5.1252,-3.82822 -6.57949,0.52793c-0.75498,2.26055 1.9916,6.03076 1.86357,7.71387z" fill="url(#color-4)"/><path d="M76.27061,139.96934c4.57383,0.11982 6.66357,6.60996 2.57871,9.22178c-5.76973,-0.5915 -6.64219,-7.17539 -2.57871,-9.22178z" fill-opacity="0.98824" fill="#00eafd"/><path d="M76.02012,154.78623c0.52676,0.01172 1.08867,0.12393 1.61396,0.21094c1.60195,1.03594 2.31006,3.17871 1.904,4.99482c-2.71699,-1.10479 -4.60225,-1.87441 -3.51797,-5.20576z" fill="#030104"/><path d="M101.55117,134.96045c5.74746,2.97832 11.4665,6.01143 17.15596,9.09932c2.30508,1.24102 5.78057,2.87373 7.81348,4.3251c-1.50996,0.89502 -3.61992,2.1334 -4.86504,3.38467l-0.0542,1.17158c0.52031,1.2665 0.03691,17.70527 0.046,20.05576l0.02256,36.35332c0.03955,5.02383 0.89824,29.09209 -0.90996,31.76514c-3.10635,1.69102 -22.09277,-9.47021 -25.02363,-12.41865c-0.01816,-0.1251 -0.03574,-0.2502 -0.05273,-0.37559c-0.71074,-5.30859 -0.12861,-10.92393 -0.28271,-16.24043c-0.33047,-11.39941 -0.09609,-22.57793 0.03369,-33.95625c0.07441,-6.88477 0.08877,-13.76982 0.04336,-20.65488c-0.02725,-3.22764 -0.70107,-15.79658 0.99756,-18.02988c0.59678,-0.60645 1.50322,-1.38223 2.15332,-1.97432c1.21787,-0.91963 1.84336,-1.39453 2.92236,-2.50488zM109.93652,165.07236c4.10449,-2.44307 2.28311,-8.79111 -2.95342,-9.23525c-4.60107,2.17031 -2.75859,8.55293 2.95342,9.23525z" fill="#521983"/><path d="M101.55117,134.96045c5.74746,2.97832 11.4665,6.01143 17.15596,9.09932c2.30508,1.24102 5.78057,2.87373 7.81348,4.3251c-1.50996,0.89502 -3.61992,2.1334 -4.86504,3.38467c-0.70078,-2.9918 -18.75645,-10.65117 -23.02676,-14.3042c1.21787,-0.91963 1.84336,-1.39453 2.92236,-2.50488z" fill="#8b34b9"/><path d="M98.62881,137.46533c4.27031,3.65303 22.32598,11.3124 23.02676,14.3042l-0.0542,1.17158c-1.18096,0.19834 -1.73965,-0.3958 -2.78145,-1.28115c-5.60918,-4.76719 -13.19121,-7.12266 -19.52197,-10.84189c-1.38574,-0.81387 -1.97871,-0.45762 -2.82246,-1.37842c0.59678,-0.60645 1.50322,-1.38223 2.15332,-1.97432z" fill="#dfa0f4"/><path d="M105.89883,215.26611c5.91445,-0.28506 9.87891,9.1415 4.83486,12.8543c-5.97451,-0.92637 -10.69951,-8.16592 -4.83486,-12.8543z" fill="#300758"/><path d="M106.98311,155.83711c5.23652,0.44414 7.05791,6.79219 2.95342,9.23525c-5.71201,-0.68232 -7.55449,-7.06494 -2.95342,-9.23525z" fill-opacity="0.98824" fill="#00eafd"/><path d="M106.99365,169.78154c3.00439,0.18457 4.56768,4.58232 2.77324,5.76416c-3.14531,-1.08896 -5.21572,-2.59248 -2.77324,-5.76416z" fill="#030104"/><path d="M40.2873,104.48818c4.1376,1.11123 20.78789,10.04531 24.854,12.60264c-0.76318,0.45088 -3.71338,2.25703 -4.40361,2.47969l-0.45352,1.07607c0.18193,2.27168 -0.01436,7.42178 0.00732,10.01338c0.09551,8.68389 0.12803,17.36836 0.09727,26.05283l-0.00615,31.99189c-0.01846,3.61172 0.48457,20.38242 -1.56006,22.14902c-2.15332,0.19482 -7.82256,-2.58604 -9.8332,-3.64834c-4.38047,-2.31475 -11.53477,-4.8041 -14.39414,-8.85088l-0.02402,-0.15381c-0.39961,-2.75713 -0.28477,-7.40127 -0.29531,-10.35381l-0.05742,-17.65225l0.05977,-37.14023c0.01025,-3.45791 -0.44063,-22.93037 0.91816,-24.77373c0.57744,-0.65508 1.51406,-1.35469 2.21602,-1.91748c1.08135,-0.79365 1.7042,-1.23428 2.8749,-1.875zM48.82969,134.12021c3.98379,-3.61406 2.0001,-9.19922 -2.68242,-9.66416c-5.44834,2.62822 -2.5541,8.1668 2.01299,9.48604c0.22207,0.06387 0.44502,0.12305 0.66943,0.17812z" fill="#521983"/><path d="M40.2873,104.48818c4.1376,1.11123 20.78789,10.04531 24.854,12.60264c-0.76318,0.45088 -3.71338,2.25703 -4.40361,2.47969l-0.45352,1.07607c-0.36563,0.15527 -0.72715,0.23818 -1.11094,0.34512c-0.93574,-0.26543 -2.52979,-1.99893 -3.44473,-2.78818c-5.06543,-2.87021 -11.42842,-5.4208 -16.62715,-8.20781c-1.46602,-0.78574 -2.89629,-0.96006 -3.90498,-1.71504c0.57744,-0.65508 1.51406,-1.35469 2.21602,-1.91748c1.08135,-0.79365 1.7042,-1.23428 2.8749,-1.875z" fill="#8b34b9"/><path d="M37.4124,106.36318c4.72119,2.67188 9.45205,5.27432 14.354,7.60049c1.41006,0.66914 2.83008,1.32393 4.13877,2.17969l-1.32158,0.51064c0.34395,0.75586 0.70283,0.85342 1.14492,1.54951c-5.06543,-2.87021 -11.42842,-5.4208 -16.62715,-8.20781c-1.46602,-0.78574 -2.89629,-0.96006 -3.90498,-1.71504c0.57744,-0.65508 1.51406,-1.35469 2.21602,-1.91748z" fill="#dfa0f4"/><path d="M55.90518,116.14336c1.26035,0.72803 4.06699,2.24238 4.83252,3.42715l-0.45352,1.07607c-0.36563,0.15527 -0.72715,0.23818 -1.11094,0.34512c-0.93574,-0.26543 -2.52979,-1.99893 -3.44473,-2.78818c-0.44209,-0.69609 -0.80098,-0.79365 -1.14492,-1.54951z" fill="#dfa0f4"/><path d="M42.4374,189.4374c-0.00732,-2.94785 1.95146,-5.16299 5.03613,-3.93984c3.90029,3.22354 5.30303,8.11963 2.21367,12.44531c0.40254,0.09873 0.39404,0.15381 0.75674,0.41074l-0.10107,0.55547l-0.70986,0.45527c-2.44834,0.44795 -9.60762,-3.67764 -7.30928,-7.21787c0.10078,-1.07256 -0.33926,-1.19854 0.11367,-2.70908z" fill="#300758"/><path d="M42.32373,192.14648c1.67783,2.71201 4.19502,5.0335 7.36348,5.79639c0.40254,0.09873 0.39404,0.15381 0.75674,0.41074l-0.10107,0.55547l-0.70986,0.45527c-2.44834,0.44795 -9.60762,-3.67764 -7.30928,-7.21787z" fill="#8b34b9"/><path d="M42.4374,189.4374c-0.00732,-2.94785 1.95146,-5.16299 5.03613,-3.93984c-1.14258,0.80918 -4.37139,2.95283 -5.03613,3.93984z" fill="#0e002b"/><path d="M46.14727,124.45605c4.68252,0.46494 6.66621,6.0501 2.68242,9.66416c-0.22441,-0.05508 -0.44736,-0.11426 -0.66943,-0.17812c-4.56709,-1.31924 -7.46133,-6.85781 -2.01299,-9.48604z" fill-opacity="0.98824" fill="#00eafd"/><path d="M45.54023,139.69277c0.38789,-0.00498 1.50615,-0.04248 1.76602,0.12832c1.64648,1.08076 2.05488,3.86484 1.2041,5.30273c-2.81895,-0.81006 -4.48887,-2.50898 -2.97012,-5.43105z" fill="#030104"/><path d="M132.42832,150.52998c4.39219,1.82959 8.69854,4.69775 12.92109,6.91816c1.53252,0.80596 3.30527,1.83252 4.7373,2.804c4.00547,2.71729 4.15459,2.69473 0.64834,5.60361c0.11777,0.96885 0.26191,2.67773 0.59473,3.52588c0.04307,0.1749 0.07998,0.35156 0.10986,0.5291c0.33633,1.93037 0.37676,7.70332 0.40693,9.73447c0.08057,6.61641 0.11514,13.23311 0.10371,19.8498l-0.09375,30.11602c0.00527,4.8832 0.67822,23.00889 -1.38252,25.87705c-2.90654,0.81445 -21.5666,-8.95225 -24.19834,-11.61533c-0.34453,-1.39453 -0.59883,-3.92285 -0.61963,-5.35928c-0.18486,-12.7207 0.1957,-25.49238 0.13623,-38.21631l0.05889,-27.61963c-0.00029,-3.10576 -0.83936,-15.22207 0.98438,-17.19551c0.69756,-0.98936 1.24834,-1.41299 2.16328,-2.21016c1.16689,-0.99521 2.16182,-1.85977 3.42949,-2.74189zM141.13623,179.73281c3.40576,-4.07197 0.27187,-9.32227 -4.98604,-8.9168c-2.6373,3.41572 -0.74912,9.89648 4.21963,9.06152c0.25635,-0.04365 0.51182,-0.0917 0.76641,-0.14473z" fill="#521983"/><path d="M132.42832,150.52998c4.39219,1.82959 8.69854,4.69775 12.92109,6.91816c1.53252,0.80596 3.30527,1.83252 4.7373,2.804c4.00547,2.71729 4.15459,2.69473 0.64834,5.60361c0.11777,0.96885 0.26191,2.67773 0.59473,3.52588l-0.20156,1.59199l-0.47373,0.29385l-0.44941,-0.35801c-0.38818,-0.98701 -0.35244,-1.15781 -0.24404,-2.18965c-3.86133,-5.22188 -16.98281,-11.38096 -23.12549,-13.23779c0.69756,-0.98936 1.24834,-1.41299 2.16328,-2.21016c1.16689,-0.99521 2.16182,-1.85977 3.42949,-2.74189z" fill="#8b34b9"/><path d="M128.99883,153.27188c6.41133,4.13291 15.52822,6.88184 21.12539,12.39902c0.62754,0.61875 0.45967,1.76104 0.28096,2.57139l-0.44414,0.47754c-3.86133,-5.22188 -16.98281,-11.38096 -23.12549,-13.23779c0.69756,-0.98936 1.24834,-1.41299 2.16328,-2.21016z" fill="#dfa0f4"/><path d="M134.32002,234.14502c1.49824,-7.75693 7.46045,-1.37373 8.86494,3.20186c0.52881,1.47012 0.53262,3.16113 -0.38291,4.43643c-3.01611,1.62012 -6.52676,-1.65937 -8.24297,-3.90439c-0.22588,-1.2873 -0.52881,-2.45801 -0.23906,-3.73389z" fill="#300758"/><path d="M134.32002,234.14502c1.49824,-7.75693 7.46045,-1.37373 8.86494,3.20186l-0.39785,0.63018l-0.48633,-0.13594c-1.21436,-2.93408 -2.80664,-4.29346 -5.35752,-5.85293c-0.75,0.84756 -1.56006,2.02236 -2.62324,2.15684z" fill="#0e002b"/><path d="M136.1502,170.81602c5.25791,-0.40547 8.3918,4.84482 4.98604,8.9168c-0.25459,0.05303 -0.51006,0.10107 -0.76641,0.14473c-4.96875,0.83496 -6.85693,-5.6458 -4.21963,-9.06152z" fill-opacity="0.98824" fill="#00eafd"/><path d="M137.01475,184.68398c2.20752,0.3126 4.6251,4.21758 3.18076,6.08496c-2.91914,-0.99463 -5.18672,-3.00586 -3.18076,-6.08496z" fill="#030104"/><path d="M163.67432,198.30322c-0.26807,0.78281 -0.40518,1.33008 -0.59092,2.12109c-0.61846,0.5792 -0.29355,0.44063 -1.27969,0.43418c-3.13477,-1.65029 -3.67324,-8.63818 -2.31797,-11.62793c0.88682,-0.75586 0.58008,-0.53906 1.99395,-0.53438c0.88828,0.25518 1.86416,0.45176 2.3124,1.28994c1.03652,1.93828 0.23379,6.14561 -0.11777,8.31709z" fill="#026686"/><path d="M163.67432,198.30322c-0.26807,0.78281 -0.40518,1.33008 -0.59092,2.12109c-0.61846,0.5792 -0.29355,0.44063 -1.27969,0.43418c-3.13477,-1.65029 -3.67324,-8.63818 -2.31797,-11.62793c0.88682,-0.75586 0.58008,-0.53906 1.99395,-0.53438c-0.98525,1.19971 -1.59639,8.61445 -0.31963,9.89385c0.93281,0.29033 1.69746,0.29619 2.51426,-0.28682z" fill="#124f6c"/><path d="M269.31299,93.53057c8.56729,4.55625 6.35947,25.77158 6.31992,34.49678l-0.1541,32.32764l-0.05098,28.0957c0,5.08945 0.58857,18.38789 -1.31045,22.5958c-0.37676,0.43066 -0.53643,0.61787 -0.84551,1.09746c-0.31113,-0.12861 -0.97441,-0.50713 -1.23223,-0.2001c-2.97334,3.53936 -5.76064,6.00088 -9.91084,8.23945l-58.32393,31.70889c-6.72041,3.68789 -17.22949,8.78613 -23.31035,12.55986c-1.06553,0.53643 -1.36436,0.53584 -2.55469,0.68057c-3.63486,2.20547 -6.17344,3.7166 -10.41357,4.22314c3.3791,-6.37236 2.45039,-17.77324 2.4457,-25.07227l-0.04951,-31.45312l0.02871,-32.06953c0.02256,-5.88604 0.44092,-12.79453 -0.14297,-18.50273c-0.32695,-1.10801 -0.58564,-2.37451 -0.84434,-3.51094l-0.64658,-3.02461c-1.05029,-1.11006 -1.82197,-1.94619 -3.01494,-2.92588c1.08018,-1.15957 9.14268,0.45703 10.97373,-1.58174c0.14619,-0.6457 0.23467,-0.68848 0.6876,-1.20381c0.3334,0.26367 1.0875,0.89678 1.40596,1.09512c2.8585,-1.1666 7.546,-3.9375 10.37959,-5.51162l18.39844,-10.18799l25.81846,-14.31562c3.91553,-2.12256 38.14189,-20.24736 39.29766,-21.91318c-0.88682,-1.64707 -2.28135,-3.99727 -2.95078,-5.64727z" fill="#521983"/><path d="M176.96367,150.01113c0.3334,0.26367 1.0875,0.89678 1.40596,1.09512l-0.94688,0.20889l-0.12363,0.40986l0.52676,0.59121c1.03916,-0.16318 0.64043,-0.23877 1.5167,0.23789c0.69756,1.05908 0.66475,3.01992 0.51416,4.23398c0.40723,10.97168 -0.16963,106.02041 0.63779,107.66396c-1.06553,0.53643 -1.36436,0.53584 -2.55469,0.68057c-3.63486,2.20547 -6.17344,3.7166 -10.41357,4.22314c3.3791,-6.37236 2.45039,-17.77324 2.4457,-25.07227l-0.04951,-31.45312l0.02871,-32.06953c0.02256,-5.88604 0.44092,-12.79453 -0.14297,-18.50273c-0.32695,-1.10801 -0.58564,-2.37451 -0.84434,-3.51094l-0.64658,-3.02461c-1.05029,-1.11006 -1.82197,-1.94619 -3.01494,-2.92588c1.08018,-1.15957 9.14268,0.45703 10.97373,-1.58174c0.14619,-0.6457 0.23467,-0.68848 0.6876,-1.20381z" fill="#521983"/><path d="M179.85674,156.78809c0.40723,10.97168 -0.16963,106.02041 0.63779,107.66396c-1.06553,0.53643 -1.36436,0.53584 -2.55469,0.68057c1.58232,-5.68535 1.1165,-31.19473 1.11211,-37.9418c0.32344,-2.24824 0.19395,-9.97148 0.20156,-12.61582l-0.03516,-35.68213c-0.01377,-2.99766 -0.50039,-20.35547 0.63838,-22.10479z" fill="#0e002b"/><path d="M176.96367,150.01113c0.3334,0.26367 1.0875,0.89678 1.40596,1.09512l-0.94688,0.20889l-0.12363,0.40986l0.52676,0.59121l0.13535,1.25947c-0.24727,0.35273 -1.0374,1.33154 -1.41328,1.43232c-2.20049,0.59033 -5.77793,3.07354 -7.58408,3.73916l-0.64658,-3.02461c-1.05029,-1.11006 -1.82197,-1.94619 -3.01494,-2.92588c1.08018,-1.15957 9.14268,0.45703 10.97373,-1.58174c0.14619,-0.6457 0.23467,-0.68848 0.6876,-1.20381z" fill="url(#color-5)"/><path d="M177.96123,153.57568l0.32871,1.17451c-1.79619,1.92041 -6.1459,6.79629 -8.48174,7.50791c-0.32695,-1.10801 -0.58564,-2.37451 -0.84434,-3.51094c1.80615,-0.66562 5.38359,-3.14883 7.58408,-3.73916c0.37588,-0.10078 1.16602,-1.07959 1.41328,-1.43232z" fill="#8b34b9"/><path d="M177.82588,152.31621c1.03916,-0.16318 0.64043,-0.23877 1.5167,0.23789c0.69756,1.05908 0.66475,3.01992 0.51416,4.23398c-1.13877,1.74932 -0.65215,19.10713 -0.63838,22.10479l0.03516,35.68213c-0.00762,2.64434 0.12188,10.36758 -0.20156,12.61582c-0.54932,-9.48164 0.98525,-68.77998 -0.76201,-72.44062l-0.32871,-1.17451z" fill="#300758"/><path d="M258.95215,200.83857c3.36123,1.5709 -0.60645,6.53555 -2.44687,7.93506l-0.47051,0.02607l-0.37617,-0.39404c-0.09023,-1.41709 0.42891,-3.58975 0.71016,-5.04609c0.98379,-1.18037 1.38779,-1.53779 2.5834,-2.521z" fill="#030104"/><path d="M249.75469,204.95039c1.67139,0.64072 0.83555,4.33008 0.36797,5.60742c-0.5083,1.38809 -0.95127,1.59199 -2.23828,2.17529c-2.41992,-2.37627 0.19072,-5.80898 1.87031,-7.78271z" fill="#030104"/><path d="M258.87832,192.93164l0.58506,0.46846c0.57275,1.91016 -1.10537,3.87422 -2.3874,5.07129l-0.48545,-0.25635l-0.1752,-0.59004c0.40225,-1.76865 1.32275,-3.30117 2.46299,-4.69336z" fill="#030104"/><path d="M194.86611,227.0001l0.32314,0.0958l0.01904,0.45615c-1.16689,0.98057 -2.31475,1.9834 -3.44268,3.0082l-0.62578,-0.49424l0.01816,-0.58008c0.77227,-0.96328 2.5752,-1.84248 3.70811,-2.48584z" fill="#0e002b"/><path d="M190.01162,239.1665c0.70547,0.22002 0.42041,0.02373 0.8751,0.62051c-0.07412,0.90557 -0.88564,1.8627 -1.43496,2.65166c-0.13594,0.04541 -0.5376,0.0457 -0.675,0.05156l-0.16348,-0.64453c0.36152,-1.32217 0.57012,-1.56504 1.39834,-2.6792z" fill="#0e002b"/><path d="M26.15244,81.82236c1.66556,-1.91689 3.05859,-2.80254 5.22012,-4.00488c-0.12041,0.42246 -0.59707,2.19111 -0.74062,2.48027c1.38926,1.38135 0.4623,1.65732 2.58955,2.87783c8.43428,4.83926 17.3748,8.79785 26.02295,13.25332c20.95693,11.01738 42.03398,21.80479 63.22734,32.36016c8.49053,4.19326 16.92363,8.50195 25.29697,12.9249c4.72822,2.4665 9.71689,5.03291 14.521,7.41328c3.81357,1.88965 12.14707,0.69639 13.98633,2.0877c-1.83105,2.03877 -9.89355,0.42217 -10.97373,1.58174l-1.05557,0.91699c-2.88193,-3.82646 -15.37324,-9.33457 -20.12549,-11.75654l-35.24561,-17.80225c-24.44092,-12.41543 -48.83672,-25.11592 -73.28965,-37.52168c-3.59004,-1.82139 -5.23447,-2.84795 -8.88718,-1.59463c-0.4875,0.30586 -0.22058,0.22822 -0.8405,0.17871c-0.28887,-0.8291 0.12407,-2.44072 0.29408,-3.39492z" fill="url(#color-6)"/><path d="M26.15244,81.82236c1.66556,-1.91689 3.05859,-2.80254 5.22012,-4.00488c-0.12041,0.42246 -0.59707,2.19111 -0.74062,2.48027c-1.33359,1.30342 -3.32396,3.00557 -3.93308,4.74082c-0.4875,0.30586 -0.22058,0.22822 -0.8405,0.17871c-0.28887,-0.8291 0.12407,-2.44072 0.29408,-3.39492z" fill="#8b34b9"/><path d="M176.96367,150.01113c1.20937,-1.67197 85.28408,-46.74961 92.7375,-51.00615c1.0998,0.39082 1.43613,0.56572 2.5626,0.17285c-1.15576,1.66582 -35.38213,19.79063 -39.29766,21.91318l-25.81846,14.31562l-18.39844,10.18799c-2.83359,1.57412 -7.52109,4.34502 -10.37959,5.51162c-0.31846,-0.19834 -1.07256,-0.83145 -1.40596,-1.09512z" fill="url(#color-7)"/></g></svg></svg>