<svg id="svg" version="1.1" viewBox="0 0 300 300" width="300" height="300" xmlns="http://www.w3.org/2000/svg"><svg xmlns="http://www.w3.org/2000/svg"><defs><clipPath id="clip-1"><rect x="0" y="0" transform="scale(0.29297,0.29297)" width="1024" height="1024" fill="none"/></clipPath><linearGradient x1="34.92334" y1="196.29082" x2="37.83926" y2="195.9832" gradientUnits="userSpaceOnUse" id="color-1"><stop offset="0" stop-color="#b2c3c6"/><stop offset="1" stop-color="#dbd4d3"/></linearGradient><linearGradient x1="93.46582" y1="244.37314" x2="96.96387" y2="241.07607" gradientUnits="userSpaceOnUse" id="color-2"><stop offset="0" stop-color="#e7e7eb"/><stop offset="1" stop-color="#d1d8cf"/></linearGradient><linearGradient x1="197.86758" y1="195.00762" x2="217.46689" y2="221.0751" gradientUnits="userSpaceOnUse" id="color-3"><stop offset="0" stop-color="#000006"/><stop offset="1" stop-color="#46001a"/></linearGradient><linearGradient x1="219.69873" y1="226.22197" x2="200.57432" y2="201.22061" gradientUnits="userSpaceOnUse" id="color-4"><stop offset="0" stop-color="#fd47aa"/><stop offset="1" stop-color="#ff8cd9"/></linearGradient><linearGradient x1="103.2293" y1="146.75479" x2="93.16494" y2="175.82021" gradientUnits="userSpaceOnUse" id="color-5"><stop offset="0" stop-color="#fd55bb"/><stop offset="1" stop-color="#ff9fd7"/></linearGradient><linearGradient x1="128.03057" y1="205.86387" x2="136.50176" y2="206.04346" gradientUnits="userSpaceOnUse" id="color-6"><stop offset="0" stop-color="#d8ceca"/><stop offset="1" stop-color="#e3fbf6"/></linearGradient><linearGradient x1="85.51465" y1="173.35723" x2="83.47236" y2="176.73105" gradientUnits="userSpaceOnUse" id="color-7"><stop offset="0" stop-color="#c3bdc7"/><stop offset="1" stop-color="#f2f4f2"/></linearGradient><linearGradient x1="90.2915" y1="122.56934" x2="89.59131" y2="124.98926" gradientUnits="userSpaceOnUse" id="color-8"><stop offset="0" stop-color="#d4d8c6"/><stop offset="1" stop-color="#efeeef"/></linearGradient><linearGradient x1="52.65908" y1="112.95615" x2="58.13174" y2="113.76533" gradientUnits="userSpaceOnUse" id="color-9"><stop offset="0" stop-color="#929390"/><stop offset="1" stop-color="#a3a7ad"/></linearGradient><linearGradient x1="207.72861" y1="177.38994" x2="200.61768" y2="151.51406" gradientUnits="userSpaceOnUse" id="color-10"><stop offset="0" stop-color="#0d0004"/><stop offset="1" stop-color="#39000f"/></linearGradient><linearGradient x1="162.63691" y1="181.40537" x2="164.92178" y2="193.62012" gradientUnits="userSpaceOnUse" id="color-11"><stop offset="0" stop-color="#a50037"/><stop offset="1" stop-color="#ce005d"/></linearGradient></defs><g clip-path="url(#clip-1)" fill="none" fill-rule="nonzero" stroke="none" stroke-width="1" stroke-linecap="butt" stroke-linejoin="miter" stroke-miterlimit="10" stroke-dasharray="" stroke-dashoffset="0" font-family="none" font-weight="none" font-size="none" text-anchor="none" style="mix-blend-mode: normal"><path d="M21.26268,69.60703c0.4321,-3.29648 0.73685,-4.37578 3.48258,-6.45439c4.24444,-3.21299 9.23883,-5.17939 13.94537,-7.65615l22.36641,-12.02842c2.15889,-1.16602 4.15166,-2.57197 6.33926,-3.71836c16.6248,-8.71143 33.13389,-17.68348 49.69746,-26.53441c8.57344,-4.58133 15.94893,-9.28453 25.78945,-4.37209c8.70674,4.54096 17.17559,9.77188 25.70273,14.71512l34.94209,20.09227l45.44502,26.32354c3.76025,2.17266 7.31074,4.18184 11.03584,6.47549c4.89727,3.01553 11.85264,4.98691 14.43809,10.80527c0.58184,2.73633 0.42803,7.12061 0.41016,10.00225c-0.05684,9.1043 0.17549,18.24492 -0.15586,27.33867c-0.0999,2.74014 -1.58525,4.64297 -3.73301,6.17344c1.05498,1.43848 1.86152,1.5873 2.46709,2.32324c2.93994,5.59834 0.60674,29.78232 1.38018,37.19531c0.52207,5.00508 -1.59932,6.53437 -4.49648,9.9627l1.2832,0.81826c0.8833,0.49424 2.70381,1.71152 2.79844,2.79258c1.08984,12.4626 0.49541,25.75664 0.5666,38.3335c0.00586,1.04766 -0.4418,2.43955 -0.75088,3.3c0.99111,0.01846 1.95557,-0.08877 2.74395,0.46494c0.58535,1.14785 0.31465,2.00859 0.19277,3.39609c-4.53076,4.52285 -7.45986,7.34121 -13.22051,10.36787c-3.86367,2.03027 -9.38525,6.75498 -13.39336,8.22012c-5.69355,2.08125 -10.16807,4.90312 -15.52617,7.32686c-3.81826,2.00713 -7.51758,4.89082 -11.36689,6.81475c-11.61885,5.80723 -22.22021,13.49033 -34.35322,18.21006c-2.48086,0.96533 -5.60625,2.94932 -8.17412,3.40166c-5.83506,2.20518 -11.79932,5.29863 -17.41318,6.98906c-5.55674,1.67285 -18.00381,0.404 -22.88818,-2.66309c-2.68799,-1.68809 -4.28057,-3.52646 -8.10762,-5.58691c-4.16543,-2.24268 -11.58516,-4.52227 -14.8793,-6.52998c-4.56182,-1.90459 -5.39971,-2.75977 -8.95869,-6.28594l-1.55449,-0.98584c-2.03613,-1.3377 -6.09609,-3.1749 -8.44541,-4.35029c-1.54219,-0.82236 -3.07354,-1.66494 -4.59346,-2.52773c-0.71514,-0.20186 -5.18584,-3.04687 -6.37031,-3.69258c-3.10342,-1.41182 -10.80117,-6.52324 -13.55215,-8.74277c-4.27119,-2.47646 -9.25283,-4.62568 -13.64883,-6.94219c-1.27178,-0.67002 -3.19541,-2.71875 -4.70039,-3.57363c-4.4833,-2.54678 -9.42715,-5.29658 -14.09766,-7.41914c-3.09287,-1.18916 -18.09911,-12.57305 -20.55835,-15.046c-0.03554,-2.38623 -0.41238,-3.975 1.02319,-5.75127c0.031,-0.30732 0.03929,-0.16436 -0.00756,-0.43008c-1.17574,-6.67061 -0.97731,-14.46504 -1.03128,-21.29854c-0.05036,-6.37676 -0.4023,-15.57334 0.41616,-21.68701c0.96138,-1.28643 1.36972,-1.82256 2.54517,-2.91943l1.00441,-0.57627c-1.33972,-1.54541 -3.45278,-3.81563 -3.61087,-5.90713c-0.74353,-9.83848 -0.29086,-19.83955 -0.51393,-29.71377c-0.0721,-3.19072 0.14877,-6.42246 0.63999,-9.57334l0.72396,-1.07578c0.68437,-1.29639 1.09925,-1.64854 2.14737,-2.69912c-1.14729,-1.54277 -2.46375,-3.23115 -2.91185,-5.13135c-1.21784,-5.16445 -1.01906,-33.88242 -0.51293,-39.97002zM184.91777,186.06328c-3.02139,1.61484 -6.42949,3.28008 -9.36123,4.93477c-7.33857,4.14229 -12.66738,7.44053 -21.44795,6.31699c0.01846,12.42598 0.37178,24.86924 -0.14707,37.29404c-0.0208,0.49453 -0.38613,1.09717 -0.7002,1.46807l-2.94756,-0.83145c-1.39922,-0.36797 -2.62529,-0.97822 -3.9375,-1.57764c-0.97061,0.8792 -1.09219,0.69697 -0.94336,2.09004l-2.3124,-1.48301c-0.08467,0.11133 -0.12979,0.33486 -0.17607,0.48838c0.88008,0.43418 1.30928,0.55957 1.81436,1.42646c-2.79053,1.28232 -8.4501,-4.79531 -13.19941,-5.83799c-5.29658,-3.01348 -10.27705,-6.26162 -15.49746,-9.35537l-55.45693,-33.15205c-6.06797,-3.55459 -12.18691,-7.021 -18.35537,-10.39775c-6.10869,-3.38086 -11.52129,-5.90625 -16.75195,-10.57207c-0.35675,-1.31982 -0.4159,-1.50908 -1.20114,-2.6209c-1.17545,1.09688 -1.58379,1.63301 -2.54517,2.91943c-0.81847,6.11367 -0.46652,15.31025 -0.41616,21.68701c0.05396,6.8335 -0.14446,14.62793 1.03128,21.29854c0.04685,0.26572 0.03855,0.12275 0.00756,0.43008c-1.43558,1.77627 -1.05873,3.36504 -1.02319,5.75127c2.45924,2.47295 17.46548,13.85684 20.55835,15.046c4.67051,2.12256 9.61436,4.87236 14.09766,7.41914c1.50498,0.85488 3.42861,2.90361 4.70039,3.57363c4.396,2.3165 9.37764,4.46572 13.64883,6.94219c2.75098,2.21953 10.44873,7.33096 13.55215,8.74277c1.18447,0.6457 5.65518,3.49072 6.37031,3.69258c1.51992,0.86279 3.05127,1.70537 4.59346,2.52773c2.34932,1.17539 6.40928,3.0126 8.44541,4.35029l1.55449,0.98584c3.55898,3.52617 4.39688,4.38135 8.95869,6.28594c3.29414,2.00771 10.71387,4.2873 14.8793,6.52998c3.82705,2.06045 5.41963,3.89883 8.10762,5.58691c4.88438,3.06709 17.33145,4.33594 22.88818,2.66309c5.61387,-1.69043 11.57813,-4.78389 17.41318,-6.98906c2.56787,-0.45234 5.69326,-2.43633 8.17412,-3.40166c12.13301,-4.71973 22.73438,-12.40283 34.35322,-18.21006c3.84932,-1.92393 7.54863,-4.80762 11.36689,-6.81475c5.35811,-2.42373 9.83262,-5.24561 15.52617,-7.32686c4.00811,-1.46514 9.52969,-6.18984 13.39336,-8.22012c5.76064,-3.02666 8.68975,-5.84502 13.22051,-10.36787c0.12187,-1.3875 0.39258,-2.24824 -0.19277,-3.39609c-0.78838,-0.55371 -1.75283,-0.44648 -2.74395,-0.46494c0.30908,-0.86045 0.75674,-2.25234 0.75088,-3.3c-0.07119,-12.57686 0.52324,-25.8709 -0.5666,-38.3335c-0.09463,-1.08105 -1.91514,-2.29834 -2.79844,-2.79258l-1.2832,-0.81826c2.89717,-3.42832 5.01855,-4.95762 4.49648,-9.9627c-0.77344,-7.41299 1.55977,-31.59697 -1.38018,-37.19531c-0.60557,-0.73594 -1.41211,-0.88477 -2.46709,-2.32324c2.14775,-1.53047 3.63311,-3.4333 3.73301,-6.17344c0.33135,-9.09375 0.09902,-18.23437 0.15586,-27.33867c0.01787,-2.88164 0.17168,-7.26592 -0.41016,-10.00225c-0.39961,0.91699 -0.89033,1.96816 -1.19297,2.90537c-0.59619,1.18008 -1.29111,2.16621 -2.4791,2.80635c-5.0291,2.70996 -10.17275,5.28398 -15.18691,8.02236c-16.54922,9.0293 -33.19453,17.88105 -49.93301,26.55439l-24.60762,12.85957c-9.49424,5.08037 -16.63359,10.87471 -27.77549,9.20684c0.40664,2.47705 0.66152,4.97666 0.76377,7.48477c0.13066,2.76709 0.56074,29.44014 -0.3542,30.88623l-0.39756,0.30059c-1.33037,-0.26074 -3.02754,-0.8209 -4.35674,-1.21729c-4.46309,-2.26377 -7.39629,-3.98672 -11.46357,-6.81357c-0.52031,2.01943 -0.53467,1.79062 1.06934,3.36738c-0.91406,-0.31348 -2.14219,-1.31748 -2.96777,-1.92275c-2.9417,0.65537 -3.69434,0.28535 -6.65039,-0.53467c8.18965,5.19463 19.64707,14.72461 29.48145,14.31182c7.39512,-0.31055 15.37471,-6.12686 22.02422,-9.37061l0.36504,0.26807c-0.97354,1.32744 -2.04141,1.22637 -2.86846,2.30303c1.4748,-0.23467 4.88906,-2.21543 6.87598,-2.95371z" fill="#fe3e9d"/><path d="M264.76084,134.29629c0.78867,-0.73799 5.054,-3.53877 6.20742,-3.52705c1.05498,1.43848 1.86152,1.5873 2.46709,2.32324c2.93994,5.59834 0.60674,29.78232 1.38018,37.19531c0.52207,5.00508 -1.59932,6.53437 -4.49648,9.9627l1.2832,0.81826c0.8833,0.49424 2.70381,1.71152 2.79844,2.79258c1.08984,12.4626 0.49541,25.75664 0.5666,38.3335c0.00586,1.04766 -0.4418,2.43955 -0.75088,3.3c0.99111,0.01846 1.95557,-0.08877 2.74395,0.46494c0.58535,1.14785 0.31465,2.00859 0.19277,3.39609c-4.53076,4.52285 -7.45986,7.34121 -13.22051,10.36787c-3.86367,2.03027 -9.38525,6.75498 -13.39336,8.22012c-5.69355,2.08125 -10.16807,4.90312 -15.52617,7.32686c-3.81826,2.00713 -7.51758,4.89082 -11.36689,6.81475c-11.61885,5.80723 -22.22021,13.49033 -34.35322,18.21006c-2.48086,0.96533 -5.60625,2.94932 -8.17412,3.40166c-5.83506,2.20518 -11.79932,5.29863 -17.41318,6.98906c-5.55674,1.67285 -18.00381,0.404 -22.88818,-2.66309c-2.68799,-1.68809 -4.28057,-3.52646 -8.10762,-5.58691c-4.16543,-2.24268 -11.58516,-4.52227 -14.8793,-6.52998c-4.56182,-1.90459 -5.39971,-2.75977 -8.95869,-6.28594l-1.55449,-0.98584c-2.03613,-1.3377 -6.09609,-3.1749 -8.44541,-4.35029c-1.54219,-0.82236 -3.07354,-1.66494 -4.59346,-2.52773c-0.71514,-0.20186 -5.18584,-3.04687 -6.37031,-3.69258c-3.10342,-1.41182 -10.80117,-6.52324 -13.55215,-8.74277c-4.27119,-2.47646 -9.25283,-4.62568 -13.64883,-6.94219c-1.27178,-0.67002 -3.19541,-2.71875 -4.70039,-3.57363c-4.4833,-2.54678 -9.42715,-5.29658 -14.09766,-7.41914c-3.09287,-1.18916 -18.09911,-12.57305 -20.55835,-15.046c-0.03554,-2.38623 -0.41238,-3.975 1.02319,-5.75127c0.031,-0.30732 0.03929,-0.16436 -0.00756,-0.43008c-1.17574,-6.67061 -0.97731,-14.46504 -1.03128,-21.29854c-0.05036,-6.37676 -0.4023,-15.57334 0.41616,-21.68701c0.96138,-1.28643 1.36972,-1.82256 2.54517,-2.91943c0.78524,1.11182 0.84439,1.30107 1.20114,2.6209c5.23066,4.66582 10.64326,7.19121 16.75195,10.57207c6.16846,3.37676 12.2874,6.84316 18.35537,10.39775l55.45693,33.15205c5.22041,3.09375 10.20088,6.34189 15.49746,9.35537c4.74932,1.04268 10.40889,7.12031 13.19941,5.83799c-0.50508,-0.86689 -0.93428,-0.99229 -1.81436,-1.42646c0.04629,-0.15352 0.09141,-0.37705 0.17607,-0.48838l2.3124,1.48301c-0.14883,-1.39307 -0.02725,-1.21084 0.94336,-2.09004c1.31221,0.59941 2.53828,1.20967 3.9375,1.57764l2.94756,0.83145c0.31406,-0.3709 0.67939,-0.97354 0.7002,-1.46807c0.51885,-12.4248 0.16553,-24.86807 0.14707,-37.29404c8.78057,1.12354 14.10937,-2.17471 21.44795,-6.31699c2.93174,-1.65469 6.33984,-3.31992 9.36123,-4.93477l-0.1248,-0.34424c-1.98691,0.73828 -5.40117,2.71904 -6.87598,2.95371c0.82705,-1.07666 1.89492,-0.97559 2.86846,-2.30303l-0.36504,-0.26807c0.00205,-0.00264 12.53438,-7.0793 13.82578,-7.85918c1.02686,-0.33721 5.38271,-2.76357 6.48457,-3.36328c3.02168,-1.65322 6.07939,-3.23965 9.17051,-4.75869c2.55937,-3.09492 2.71025,-2.78701 5.74805,-5.06016c2.09355,-1.23896 5.30625,-3.225 7.12031,-4.81729c3.40488,-2.94053 8.49434,-5.43779 12.11191,-7.66641c4.13701,-2.54854 31.26533,-16.18564 32.21953,-18.93076c-0.91318,0.10049 -1.49063,0.34395 -2.34023,0.65039zM128.85586,239.9502l0.68672,-0.52295c-1.22314,-1.22754 -2.87139,-2.0751 -4.41006,-2.84941c1.44463,1.52725 2.04785,2.11143 3.72334,3.37236zM209.90127,170.12051c-3.09111,1.51904 -6.14883,3.10547 -9.17051,4.75869c-1.10186,0.59971 -5.45771,3.02607 -6.48457,3.36328c-1.29141,0.77988 -13.82373,7.85654 -13.82578,7.85918l0.36504,0.26807c-0.97354,1.32744 -2.04141,1.22637 -2.86846,2.30303c1.4748,-0.23467 4.88906,-2.21543 6.87598,-2.95371l0.1248,0.34424c-3.02139,1.61484 -6.42949,3.28008 -9.36123,4.93477c-7.33857,4.14229 -12.66738,7.44053 -21.44795,6.31699c0.01846,12.42598 0.37178,24.86924 -0.14707,37.29404c-0.0208,0.49453 -0.38613,1.09717 -0.7002,1.46807l-2.94756,-0.83145c-1.39922,-0.36797 -2.62529,-0.97822 -3.9375,-1.57764c-0.97061,0.8792 -1.09219,0.69697 -0.94336,2.09004c11.45479,6.8376 18.73242,2.75361 29.34375,-2.67539c4.1707,-2.1709 8.39707,-4.23311 12.67471,-6.18486c5.9792,-3.15205 11.6376,-7.10713 17.88105,-10.0541c4.27295,-2.01709 9.10605,-4.06582 12.97236,-6.6041c1.8668,0.09668 9.6085,-4.32598 14.31592,-4.64033c8.18525,-3.89824 18.29561,-9.50713 26.48232,-13.79619c1.63477,-2.37891 0.29824,-2.55352 3.71367,-4.8c2.70703,-0.50654 7.48389,-3.33691 8.78555,-5.93437l-1.2832,-0.81826c2.89717,-3.42832 5.01855,-4.95762 4.49648,-9.9627c-0.77344,-7.41299 1.55977,-31.59697 -1.38018,-37.19531c-0.60557,-0.73594 -1.41211,-0.88477 -2.46709,-2.32324c-1.15342,-0.01172 -5.41875,2.78906 -6.20742,3.52705c0.84961,-0.30645 1.42705,-0.5499 2.34023,-0.65039c-0.9542,2.74512 -28.08252,16.38223 -32.21953,18.93076c-3.61758,2.22861 -8.70703,4.72588 -12.11191,7.66641c-1.81406,1.59229 -5.02676,3.57832 -7.12031,4.81729c-3.03779,2.27314 -3.18867,1.96523 -5.74805,5.06016zM251.2002,214.45518c2.5084,-2.48467 3.8666,-7.14023 -1.21377,-6.65391c-2.4999,1.86006 -3.53262,6.52207 -0.25078,7.0125zM250.77451,228.71133c1.846,-1.59697 4.20498,-3.52793 2.96338,-6.15146c-0.90381,-0.75293 -1.64414,-1.09541 -2.86436,-1.13613c-3.11836,1.27676 -4.87734,5.12227 -2.11875,7.37871c1.16396,0.30469 0.78164,0.23789 2.01973,-0.09111z" fill="#c30763"/><path d="M24.29651,164.25381c0.78524,1.11182 0.84439,1.30107 1.20114,2.6209c5.23066,4.66582 10.64326,7.19121 16.75195,10.57207c6.16846,3.37676 12.2874,6.84316 18.35537,10.39775l55.45693,33.15205c5.22041,3.09375 10.20088,6.34189 15.49746,9.35537c2.19785,1.50937 14.28398,9.02109 15.27832,10.04238l-0.10723,0.47871l0.76143,0.53906l-0.30059,0.44355c-1.11152,-0.41689 -1.59785,-0.93486 -2.32236,-0.61787c3.60088,2.35459 4.82842,3.25518 9.00322,4.17686c0.20742,4.30928 0.64014,37.86475 -0.99902,39.9085l-1.30342,0.83115c3.66504,0.91025 5.32939,0.71807 9.10225,0.35303l-1.55039,0.80449l0.09375,0.18896c2.79961,0.14502 5.97041,-1.64678 8.12695,-1.03711c0.17549,-0.04131 0.34893,-0.08994 0.52031,-0.14619c1.75254,-0.56631 10.02803,-5.10029 12.03223,-6.11045c11.17617,-5.53359 21.85811,-11.92324 32.86934,-17.74189c19.07754,-10.08076 38.1668,-20.0959 56.93408,-30.74883c1.25244,-0.71104 2.05928,-2.63115 2.68066,-3.9085c0.54932,-0.23848 1.43936,-1.72852 1.8375,-2.31299c0.99111,0.01846 1.95557,-0.08877 2.74395,0.46494c0.58535,1.14785 0.31465,2.00859 0.19277,3.39609c-4.53076,4.52285 -7.45986,7.34121 -13.22051,10.36787c-3.86367,2.03027 -9.38525,6.75498 -13.39336,8.22012c-5.69355,2.08125 -10.16807,4.90312 -15.52617,7.32686c-3.81826,2.00713 -7.51758,4.89082 -11.36689,6.81475c-11.61885,5.80723 -22.22021,13.49033 -34.35322,18.21006c-2.48086,0.96533 -5.60625,2.94932 -8.17412,3.40166c-5.83506,2.20518 -11.79932,5.29863 -17.41318,6.98906c-5.55674,1.67285 -18.00381,0.404 -22.88818,-2.66309c-2.68799,-1.68809 -4.28057,-3.52646 -8.10762,-5.58691c-4.16543,-2.24268 -11.58516,-4.52227 -14.8793,-6.52998c-4.56182,-1.90459 -5.39971,-2.75977 -8.95869,-6.28594l-1.55449,-0.98584c-2.03613,-1.3377 -6.09609,-3.1749 -8.44541,-4.35029c-1.54219,-0.82236 -3.07354,-1.66494 -4.59346,-2.52773c-0.71514,-0.20186 -5.18584,-3.04687 -6.37031,-3.69258c-3.10342,-1.41182 -10.80117,-6.52324 -13.55215,-8.74277c-4.27119,-2.47646 -9.25283,-4.62568 -13.64883,-6.94219c-1.27178,-0.67002 -3.19541,-2.71875 -4.70039,-3.57363c-4.4833,-2.54678 -9.42715,-5.29658 -14.09766,-7.41914c-3.09287,-1.18916 -18.09911,-12.57305 -20.55835,-15.046c-0.03554,-2.38623 -0.41238,-3.975 1.02319,-5.75127c0.031,-0.30732 0.03929,-0.16436 -0.00756,-0.43008c-1.17574,-6.67061 -0.97731,-14.46504 -1.03128,-21.29854c-0.05036,-6.37676 -0.4023,-15.57334 0.41616,-21.68701c0.96138,-1.28643 1.36972,-1.82256 2.54517,-2.91943zM128.85586,239.9502l0.68672,-0.52295c-1.22314,-1.22754 -2.87139,-2.0751 -4.41006,-2.84941c1.44463,1.52725 2.04785,2.11143 3.72334,3.37236z" fill="#e91279"/><path d="M22.37402,210.58887c0.58049,0.66064 1.04396,1.09189 1.372,1.90957c2.91108,1.41709 6.73093,4.14023 9.6738,5.86143l21.05215,12.14648l64.67695,37.75283c6.32813,3.69111 12.52236,7.45518 18.90059,11.08652c5.44512,3.1002 7.3292,4.69336 13.52021,6.80859c3.66504,0.91025 5.32939,0.71807 9.10225,0.35303l-1.55039,0.80449l0.09375,0.18896c2.79961,0.14502 5.97041,-1.64678 8.12695,-1.03711c0.17549,-0.04131 0.34893,-0.08994 0.52031,-0.14619c1.75254,-0.56631 10.02803,-5.10029 12.03223,-6.11045c11.17617,-5.53359 21.85811,-11.92324 32.86934,-17.74189c19.07754,-10.08076 38.1668,-20.0959 56.93408,-30.74883c1.25244,-0.71104 2.05928,-2.63115 2.68066,-3.9085c0.54932,-0.23848 1.43936,-1.72852 1.8375,-2.31299c0.99111,0.01846 1.95557,-0.08877 2.74395,0.46494c0.58535,1.14785 0.31465,2.00859 0.19277,3.39609c-4.53076,4.52285 -7.45986,7.34121 -13.22051,10.36787c-3.86367,2.03027 -9.38525,6.75498 -13.39336,8.22012c-5.69355,2.08125 -10.16807,4.90312 -15.52617,7.32686c-3.81826,2.00713 -7.51758,4.89082 -11.36689,6.81475c-11.61885,5.80723 -22.22021,13.49033 -34.35322,18.21006c-2.48086,0.96533 -5.60625,2.94932 -8.17412,3.40166c-5.83506,2.20518 -11.79932,5.29863 -17.41318,6.98906c-5.55674,1.67285 -18.00381,0.404 -22.88818,-2.66309c-2.68799,-1.68809 -4.28057,-3.52646 -8.10762,-5.58691c-4.16543,-2.24268 -11.58516,-4.52227 -14.8793,-6.52998c-4.56182,-1.90459 -5.39971,-2.75977 -8.95869,-6.28594l-1.55449,-0.98584c-2.03613,-1.3377 -6.09609,-3.1749 -8.44541,-4.35029c-1.54219,-0.82236 -3.07354,-1.66494 -4.59346,-2.52773c-0.71514,-0.20186 -5.18584,-3.04687 -6.37031,-3.69258c-3.10342,-1.41182 -10.80117,-6.52324 -13.55215,-8.74277c-4.27119,-2.47646 -9.25283,-4.62568 -13.64883,-6.94219c-1.27178,-0.67002 -3.19541,-2.71875 -4.70039,-3.57363c-4.4833,-2.54678 -9.42715,-5.29658 -14.09766,-7.41914c-3.09287,-1.18916 -18.09911,-12.57305 -20.55835,-15.046c-0.03554,-2.38623 -0.41238,-3.975 1.02319,-5.75127z" fill="#a5a5a6"/><path d="M23.74603,212.49844c2.91108,1.41709 6.73093,4.14023 9.6738,5.86143l21.05215,12.14648l64.67695,37.75283c6.32813,3.69111 12.52236,7.45518 18.90059,11.08652c5.44512,3.1002 7.3292,4.69336 13.52021,6.80859c3.66504,0.91025 5.32939,0.71807 9.10225,0.35303l-1.55039,0.80449l0.09375,0.18896c2.79961,0.14502 5.97041,-1.64678 8.12695,-1.03711c-4.53867,3.45234 -14.0502,3.09141 -18.99609,0.38203c-5.63086,-3.08467 -11.16797,-6.36387 -16.77803,-9.51064c-23.879,-13.396 -47.49316,-27.25869 -70.82871,-41.58047c-2.2708,-1.36494 -7.38809,-3.60176 -9.10254,-4.86504c-5.96689,-4.39775 -24.76008,-12.94219 -27.89089,-18.39111z" fill="#240810"/><path d="M181.11885,283.69717l-0.11924,-0.1459c3.11924,-2.81543 5.29189,-3.8584 8.87373,-5.79668l9.9873,-5.48203c6.3123,-3.5458 12.66592,-7.01748 19.05967,-10.41445c4.24775,-2.30449 8.25029,-4.8791 12.8332,-6.49307c1.40127,-0.49336 1.78008,-0.39961 3.25957,-0.09434c-3.81826,2.00713 -7.51758,4.89082 -11.36689,6.81475c-11.61885,5.80723 -22.22021,13.49033 -34.35322,18.21006c-2.48086,0.96533 -5.60625,2.94932 -8.17412,3.40166z" fill="#bdbbbd"/><path d="M41.90918,231.38613l0.11074,-0.68467c-0.56602,-0.65361 -1.84658,-1.95791 -2.16064,-2.60098l0.271,-0.29648l0.14121,0.10283c4.6248,3.29619 33.0791,18.0252 34.22256,20.98213l-0.13799,0.43213c-4.27119,-2.47646 -9.25283,-4.62568 -13.64883,-6.94219c-1.27178,-0.67002 -3.19541,-2.71875 -4.70039,-3.57363c-4.4833,-2.54678 -9.42715,-5.29658 -14.09766,-7.41914z" fill="#bdbbbd"/><path d="M87.9082,258.06387l0.32109,-0.63076c-0.72656,-0.7125 -1.19443,-1.09775 -1.99482,-1.72324l0.10928,-0.32812c0.72568,-0.09404 1.27207,0.22148 1.78828,0.73828c2.37861,2.38213 18.61318,8.98799 19.41094,11.26318c-0.09873,0.40957 -0.23203,0.83584 -0.22559,1.25127c-2.03613,-1.3377 -6.09609,-3.1749 -8.44541,-4.35029c-1.54219,-0.82236 -3.07354,-1.66494 -4.59346,-2.52773c-0.71514,-0.20186 -5.18584,-3.04687 -6.37031,-3.69258z" fill="#bdbbbd"/><path d="M94.27852,261.75645c1.66787,-0.11543 3.45469,0.06035 4.79766,1.15752l0.27949,0.55078l-0.48369,0.81943c-1.54219,-0.82236 -3.07354,-1.66494 -4.59346,-2.52773z" fill="#d7d5d6"/><path d="M108.87187,269.62031c0.62227,-0.19893 1.10596,-0.52266 1.67139,-0.02666c1.55303,1.36201 7.20615,4.05 7.6626,5.77207l-0.37529,0.54053c-4.56182,-1.90459 -5.39971,-2.75977 -8.95869,-6.28594z" fill="#d7d5d6"/><path d="M144.86895,241.23779c-1.99775,-0.88652 -5.60039,-3.30557 -7.55361,-4.58027c-11.44131,-7.4666 -23.1082,-14.31826 -35.0543,-20.93467c-4.18154,-2.31592 -8.1999,-5.57314 -12.30146,-7.79033c-14.56758,-7.87529 -28.09395,-17.29365 -42.66914,-25.11123c-3.72422,-1.99219 -24.98385,-12.13975 -23.8072,-15.76787c0.85295,-0.40195 1.11272,-0.31289 2.01442,-0.17871c5.23066,4.66582 10.64326,7.19121 16.75195,10.57207c6.16846,3.37676 12.2874,6.84316 18.35537,10.39775l55.45693,33.15205c5.22041,3.09375 10.20088,6.34189 15.49746,9.35537c2.19785,1.50937 14.28398,9.02109 15.27832,10.04238l-0.10723,0.47871l0.76143,0.53906l-0.30059,0.44355c-1.11152,-0.41689 -1.59785,-0.93486 -2.32236,-0.61787z" fill="#fe3e9d"/><path d="M32.96396,180.91084c3.77109,0.2502 16.8041,9.59297 21.07119,11.75742c2.54473,1.29082 7.49648,3.91992 9.93721,5.52393c7.3623,4.8375 14.83301,8.96514 22.46953,13.31162c3.46904,1.98867 6.62959,4.66143 10.05586,6.69492l27.7415,16.18799c4.75635,2.77324 10.21729,5.36836 14.38828,8.78994c0.82383,1.73379 0.76318,25.18359 0.33896,28.01689c-3.13359,-1.15928 -6.29561,-3.95186 -9.16172,-5.61475c-4.2498,-2.46592 -8.33965,-4.99922 -12.50771,-7.59199c-2.19258,-1.36406 -4.99424,-2.54121 -7.28906,-3.86836l-59.09619,-34.87881c-5.1917,-3.12246 -14.48994,-7.45957 -18.39932,-11.60771c-0.10459,-6.22617 0.19834,-12.55928 0.16465,-18.79541c-0.01406,-2.55205 -0.0208,-5.41465 0.28682,-7.92568zM128.85586,239.9502l0.68672,-0.52295c-1.22314,-1.22754 -2.87139,-2.0751 -4.41006,-2.84941c1.44463,1.52725 2.04785,2.11143 3.72334,3.37236z" fill="#010000"/><path d="M35.79697,207.7834c-0.64072,-1.69248 -0.2959,-20.44951 0.07266,-23.01094l0.45293,-0.14648l0.82031,0.58301c1.57676,0.99463 5.43633,3.27861 6.7459,4.30693c1.95352,0.87568 3.39521,1.22461 5.04844,2.76445c1.30957,0.81152 4.65469,2.73311 5.4085,3.82939c0.80596,0.38584 1.47451,0.64131 1.86914,1.50117c0.76172,1.65967 0.33896,6.2373 -0.08232,7.91895c-0.25898,-0.24111 -0.6252,-0.4333 -0.93662,-0.62314c-0.10371,0.46523 -0.0624,0.55459 0.02344,1.01016l0.02754,0.13945l-0.29795,-0.15059l-0.22383,-0.87627l-0.40576,0.19482l-0.46875,0.23613c-0.26221,0.48809 -0.60352,1.1792 -0.90322,1.62041c-2.60625,-1.46367 -13.75518,-7.76719 -15.39756,-9.28389c-0.85898,1.47363 -0.83203,8.24238 -0.04922,9.74326c-0.53115,0.02666 -1.2624,-0.00205 -1.70361,0.24316z" fill="#010000"/><path d="M35.79697,207.7834c-0.64072,-1.69248 -0.2959,-20.44951 0.07266,-23.01094l0.45293,-0.14648l0.82031,0.58301c0.02021,0.40371 0.08613,2.21982 0.17139,2.49258c-0.13096,1.82725 -0.68643,8.17266 0.31289,9.36299l-0.07734,0.73242c-0.85898,1.47363 -0.83203,8.24238 -0.04922,9.74326c-0.53115,0.02666 -1.2624,-0.00205 -1.70361,0.24316z" fill="url(#color-1)"/><path d="M37.62715,197.06455c2.84971,-0.66738 13.33916,6.44004 16.22344,8.3959c-0.26221,0.48809 -0.60352,1.1792 -0.90322,1.62041c-2.60625,-1.46367 -13.75518,-7.76719 -15.39756,-9.28389z" fill="#f7f7f7"/><path d="M54.3457,196.10977c0.80596,0.38584 1.47451,0.64131 1.86914,1.50117c0.76172,1.65967 0.33896,6.2373 -0.08232,7.91895c-0.25898,-0.24111 -0.6252,-0.4333 -0.93662,-0.62314c-0.10371,0.46523 -0.0624,0.55459 0.02344,1.01016l0.02754,0.13945l-0.29795,-0.15059l-0.22383,-0.87627l-0.40576,0.19482c-0.33867,-2.20342 1.12998,-6.73271 -0.46084,-8.45068z" fill="#a5a5a6"/><path d="M37.14287,185.20898c1.57676,0.99463 5.43633,3.27861 6.7459,4.30693l0.41279,0.86484c-2.91445,0.12627 -4.73701,-1.16396 -6.9873,-2.6792c-0.08525,-0.27275 -0.15117,-2.08887 -0.17139,-2.49258z" fill="#f7f7f7"/><path d="M48.93721,192.28037c1.30957,0.81152 4.65469,2.73311 5.4085,3.82939l-0.48721,0.66387c-2.22773,0.70283 -4.58877,-2.50986 -5.98535,-4.00107z" fill="#f7f7f7"/><path d="M43.88877,189.51592c1.95352,0.87568 3.39521,1.22461 5.04844,2.76445l-1.06406,0.49219c-0.89326,-0.84199 -2.38916,-2.13193 -3.57158,-2.3918z" fill="#a5a5a6"/><path d="M57.37002,207.53965c3.37412,1.61367 9.7998,4.99365 12.629,7.38281c5.44512,4.59814 19.79531,9.11807 23.6417,14.36865c-0.19336,0.49775 -0.27861,0.92871 -0.70547,1.21201c-2.3458,-1.05 -15.43975,-8.89658 -16.98516,-10.44697c-0.16289,-0.36006 -0.09727,-0.20654 -0.49717,-0.48691l-1.0708,0.22324c-2.31533,-0.53115 -15.56221,-9.26426 -17.86377,-11.56934z" fill="#f7f7f7"/><path d="M97.63799,231.15088c4.68428,2.50459 12.57158,6.55342 17.01914,9.75527c0.35098,0.25254 1.33799,3.29736 1.57178,3.98643c-3.29268,-2.29453 -5.51104,-3.91055 -8.98184,-5.96777c-2.50635,-1.48535 -9.11572,-5.10381 -11.11436,-6.83877c0.05303,-0.25693 0.2124,-0.46816 0.35156,-0.70547z" fill="#f7f7f7"/><path d="M118.91924,243.54521c3.35391,1.67578 14.18203,8.66309 16.36758,9.24258c-0.37383,0.38936 -1.16865,1.16953 -1.43877,1.58057c-1.46895,-0.32842 -14.11377,-8.07246 -15.00967,-9.2209c-0.13359,-0.74912 -0.19014,-0.90117 0.08086,-1.60225z" fill="#f7f7f7"/><path d="M129.54258,239.42725c10.35059,6.21826 7.32187,4.72031 7.36289,15.70518l-0.2042,3.76934c-0.05713,-0.65859 -0.17285,-3.25928 -0.45527,-3.58975c-0.38408,0.7875 -0.43535,0.91025 -0.5502,1.77686c-0.31084,-1.82549 -0.32021,-1.77803 -1.84775,-2.72051c0.27012,-0.41104 1.06494,-1.19121 1.43877,-1.58057c0.21826,-0.29678 0.26543,-0.33105 0.31582,-0.69082c1.171,-8.33701 -2.48262,-6.9085 -6.74678,-12.14678z" fill="#d3e8e3"/><path d="M86.74365,237.58389c1.81816,0.30908 3.3542,0.50449 5.18555,0.71367c4.51406,4.87969 9.16904,4.79971 12.24229,10.21611c-3.87305,-1.15166 -6.19189,-3.75352 -9.54844,-5.74863c-3.11396,-1.85098 -5.57021,-2.13135 -7.87939,-5.18115z" fill="url(#color-2)"/><path d="M126.76992,261.82559c-8.04082,-3.76729 -11.65547,-6.0375 -10.80791,-15.65889c0.11367,-1.29023 -0.25576,-1.29609 0.6668,-2.13896l0.8335,0.28037c0.53203,2.21455 -0.46377,7.3623 0.05771,8.03408c1.80059,2.31855 7.16074,7.28643 9.2499,9.4834z" fill="#f7f7f7"/><path d="M135.6958,257.08887c0.11484,-0.8666 0.16611,-0.98936 0.5502,-1.77686c0.28242,0.33047 0.39814,2.93115 0.45527,3.58975l0.2042,-3.76934c0.32051,4.37666 0.21533,9.08232 0.27979,13.50381c-3.03955,-2.61357 -5.78994,-3.84053 -8.02852,-6.88066c3.18926,0.64072 3.80684,0.73945 6.46729,2.66982c-0.00176,-1.45371 -0.10049,-6.14297 0.07178,-7.33652z" fill="#f7f7f7"/><path d="M54.31934,205.22432l0.40576,-0.19482l0.22383,0.87627l0.29795,0.15059l-0.02754,-0.13945c-0.08584,-0.45557 -0.12715,-0.54492 -0.02344,-1.01016c0.31143,0.18984 0.67764,0.38203 0.93662,0.62314c0.31436,1.03887 0.23994,1.39893 1.2375,2.00977l-0.85166,0.6835c-0.32695,1.41299 0.11572,6.72627 -0.39932,9.80859l-0.14766,-0.01729l-0.21445,-0.85254c-0.71484,-0.5874 -0.4793,-0.41719 -1.5958,-0.41074c0.47051,-0.99814 0.51152,-7.33623 0.08203,-8.62236c-0.25605,-0.76699 -0.6167,-0.75557 -1.2958,-1.04795c0.29971,-0.44121 0.64102,-1.13232 0.90322,-1.62041z" fill="#bdbbbd"/><path d="M94.36904,219.52617c0.97793,0.55547 2.37773,1.47246 3.4377,1.62422l-0.36592,0.7251c-1.13525,1.21816 -2.01123,6.76377 -1.57031,8.44336l-0.18809,0.89121l-0.72861,0.44326c-0.71953,-0.64805 -1.14932,-0.78076 -2.01855,-1.1502c0.42686,-0.2833 0.51211,-0.71426 0.70547,-1.21201c0.38467,-0.06475 0.20391,-0.02432 0.55986,-0.47637c0.21182,-2.40029 1.17217,-7.34355 -0.90732,-8.71055z" fill="#bdbbbd"/><path d="M74.41084,208.18975c2.54268,0.06328 8.56113,3.09375 9.56191,5.65049c-2.86055,0.13359 -8.53828,-2.81748 -9.56191,-5.65049z" fill="#d7d5d6"/><path d="M75.06768,228.79277c3.33604,0.95537 4.91104,3.19922 7.0292,5.80371l-0.41953,1.46484c-2.25,-1.76602 -5.83154,-3.94687 -7.31631,-6.26045z" fill="#f7f7f7"/><path d="M116.39619,234.91201c0.48574,-0.96123 0.60732,-1.62187 1.40303,-2.11465c1.74873,0.76289 5.59805,3.14004 6.58916,4.76016l-0.14033,0.22002c-1.59053,-0.3457 -6.0293,-2.08184 -6.57773,-2.14189c-0.41338,-0.06416 -0.90557,-0.46787 -1.27412,-0.72363z" fill="#f7f7f7"/><path d="M95.87051,230.31885c0.77842,0.25664 1.09072,0.32432 1.76748,0.83203l-1.15371,0.22969c-0.13916,0.2373 -0.29854,0.44854 -0.35156,0.70547c-0.66738,1.41182 1.62744,7.23604 -0.84609,7.99043c-1.10801,-0.9917 -1.24453,-7.3043 -0.33281,-8.42314l0.72861,-0.44326z" fill="#a5a5a6"/><path d="M54.27334,219.21211c-1.71826,-0.85313 -4.51875,-1.98311 -4.79795,-4.12148l0.35596,-0.31172c2.25762,0.02432 2.6335,0.50625 4.32979,1.97227c1.1165,-0.00645 0.88096,-0.17666 1.5958,0.41074l0.21445,0.85254l-0.21299,0.90088c-0.63223,0.19424 -0.82471,0.21855 -1.48506,0.29678z" fill="#f7f7f7"/><path d="M55.97139,218.01445l0.14766,0.01729c1.19941,2.24854 1.51055,1.89229 3.99961,2.19258c1.77187,1.72734 1.98076,2.0833 3.36094,4.15811l-0.80186,0.33105c-2.77207,-1.87822 -5.57373,-3.71221 -8.40439,-5.50137c0.66035,-0.07822 0.85283,-0.10254 1.48506,-0.29678z" fill="#f7f7f7"/><path d="M108.44971,250.2624c4.89668,-0.34102 5.3959,-0.34922 6.79541,4.45723c-2.42344,-0.80391 -5.19697,-2.44482 -6.79541,-4.45723z" fill="#d7d5d6"/><path d="M116.39619,234.91201c0.36855,0.25576 0.86074,0.65947 1.27412,0.72363c0.02549,1.979 -0.33135,6.74063 1.24893,7.90957c-0.271,0.70107 -0.21445,0.85312 -0.08086,1.60225c-0.80068,-0.7415 -0.49014,-0.64307 -1.37607,-0.83936l-0.8335,-0.28037c0.85986,-2.05254 -1.55625,-5.90977 -0.23262,-9.11572z" fill="#d7d5d6"/><path d="M97.80674,221.15039c1.10654,-0.16816 5.28252,2.48643 6.01406,3.43682c0.01729,0.91729 0.15498,0.71514 -0.29326,1.29785c-1.28496,0.16758 -3.18281,-1.19355 -4.15283,-1.95967c-0.74092,-0.58535 -1.39248,-1.27617 -1.93389,-2.0499z" fill="#d7d5d6"/><path d="M35.79697,207.7834c0.44121,-0.24521 1.17246,-0.2165 1.70361,-0.24316c3.14092,0.66094 3.06885,1.07109 5.2415,3.56807c-0.02051,0.74004 0.09082,0.92725 -0.25986,1.50645c-2.19668,-1.85391 -5.25439,-2.70146 -6.68525,-4.83135z" fill="#f7f7f7"/><path d="M74.38213,219.79248l1.0708,-0.22324c0.3999,0.28037 0.33428,0.12686 0.49717,0.48691c-0.59297,1.26299 -0.21299,6.33135 -0.88242,8.73662l-0.70664,1.00811c-0.24111,0.97031 -0.00967,-10.40127 0.02109,-10.0084z" fill="#bdbbbd"/><path d="M67.23018,225.81357c1.59521,-0.01699 4.44287,0.57979 5.4501,1.97578c0.54404,0.7541 0.13506,1.74082 -0.03223,2.58926c-1.84014,0.19482 -4.42734,-3.17725 -5.41787,-4.56504z" fill="#f7f7f7"/><path d="M68.27725,203.36924c1.79883,1.02598 4.35234,2.14629 5.13018,4.06055l-0.15703,0.46289c-1.99307,0.48662 -4.48623,-2.04023 -5.73135,-3.40312z" fill="#d7d5d6"/><path d="M57.15586,197.28223c1.69277,0.30967 5.89248,2.95195 6.82617,4.35264c-3.96826,0.81768 -5.45156,-1.21143 -6.82617,-4.35264z" fill="#f7f7f7"/><path d="M88.06875,216.06387l0.73477,-0.66387c1.6251,1.10244 4.28789,2.77822 5.56553,4.12617l-1.07578,0.57803c-2.70879,-0.04072 -3.9873,-1.89463 -5.22451,-4.04033z" fill="#d7d5d6"/><path d="M110.60889,228.34951c2.21748,1.55303 3.01758,1.85391 4.32129,4.20059l0.00322,0.56367c-1.78975,0.18516 -3.8874,-2.22129 -5.19492,-3.43125z" fill="#f7f7f7"/><path d="M74.96602,210.26455c1.51963,2.26992 1.36318,4.49004 0.66123,7.00664c-1.79502,-1.0793 -1.65527,-5.5749 -0.66123,-7.00664z" fill="#bdbbbd"/><path d="M82.09688,234.59648c1.80117,1.74814 2.98506,2.85088 4.46719,4.85508c-0.96562,-0.54199 -4.11914,-2.66807 -4.88672,-3.39023z" fill="#aabaa5"/><path d="M106.07402,225.79805c1.7666,0.87686 2.90918,1.42295 4.53486,2.55146l-0.87041,1.33301c-1.47861,-1.3916 -2.34404,-2.33965 -3.66445,-3.88447z" fill="#d7d5d6"/><path d="M42.74209,211.1083c1.11475,1.26064 2.66396,2.91357 3.67998,4.19736c-1.52373,-0.93721 -2.53857,-1.55156 -3.93984,-2.69092c0.35068,-0.5792 0.23936,-0.76641 0.25986,-1.50645z" fill="#aabaa5"/><path d="M125.13252,236.57783c1.53867,0.77432 3.18691,1.62187 4.41006,2.84941l-0.68672,0.52295c-1.67549,-1.26094 -2.27871,-1.84512 -3.72334,-3.37236z" fill-opacity="0.98824" fill="#5a5b59"/><path d="M84.675,211.98252c1.61396,1.20234 2.64082,2.05986 4.12852,3.41748l-0.73477,0.66387c-1.29961,-1.43291 -2.21748,-2.54443 -3.39375,-4.08135z" fill="#7f8685"/><path d="M64.87236,201.479l3.40488,1.89023l-0.7582,1.12031c-0.87979,-0.95215 -1.78535,-2.02822 -2.64668,-3.01055z" fill="#bfccc8"/><path d="M63.47959,224.38242c0.51152,0.49043 0.84814,0.71221 1.0418,1.39131l-0.30234,0.24551c-0.83262,-0.35273 -0.98936,-0.62461 -1.54131,-1.30576z" fill="#7f8685"/><path d="M264.76084,134.29629c0.78867,-0.73799 5.054,-3.53877 6.20742,-3.52705c1.05498,1.43848 1.86152,1.5873 2.46709,2.32324c2.93994,5.59834 0.60674,29.78232 1.38018,37.19531c0.52207,5.00508 -1.59932,6.53437 -4.49648,9.9627l1.2832,0.81826c-1.30166,2.59746 -6.07852,5.42783 -8.78555,5.93437c-3.41543,2.24648 -2.07891,2.42109 -3.71367,4.8c-8.18672,4.28906 -18.29707,9.89795 -26.48232,13.79619c-4.70742,0.31436 -12.44912,4.73701 -14.31592,4.64033c-3.86631,2.53828 -8.69941,4.58701 -12.97236,6.6041c-6.24346,2.94697 -11.90186,6.90205 -17.88105,10.0541c-4.27764,1.95176 -8.504,4.01396 -12.67471,6.18486c-10.61133,5.429 -17.88896,9.51299 -29.34375,2.67539c-0.14883,-1.39307 -0.02725,-1.21084 0.94336,-2.09004c1.31221,0.59941 2.53828,1.20967 3.9375,1.57764l2.94756,0.83145c0.31406,-0.3709 0.67939,-0.97354 0.7002,-1.46807c0.51885,-12.4248 0.16553,-24.86807 0.14707,-37.29404c8.78057,1.12354 14.10937,-2.17471 21.44795,-6.31699c2.93174,-1.65469 6.33984,-3.31992 9.36123,-4.93477l-0.1248,-0.34424c-1.98691,0.73828 -5.40117,2.71904 -6.87598,2.95371c0.82705,-1.07666 1.89492,-0.97559 2.86846,-2.30303l-0.36504,-0.26807c0.00205,-0.00264 12.53438,-7.0793 13.82578,-7.85918c1.02686,-0.33721 5.38271,-2.76357 6.48457,-3.36328c3.02168,-1.65322 6.07939,-3.23965 9.17051,-4.75869c2.55937,-3.09492 2.71025,-2.78701 5.74805,-5.06016c2.09355,-1.23896 5.30625,-3.225 7.12031,-4.81729c3.40488,-2.94053 8.49434,-5.43779 12.11191,-7.66641c4.13701,-2.54854 31.26533,-16.18564 32.21953,-18.93076c-0.91318,0.10049 -1.49063,0.34395 -2.34023,0.65039zM253.35264,159.71777c-4.94443,-1.01543 -7.06494,2.32324 -4.98779,6.35479c1.33594,2.59248 4.25713,-0.58447 5.1249,-1.67783c0.39785,-2.06221 0.34863,-2.61328 -0.13711,-4.67695zM251.85146,174.2376c-3.63164,-1.28818 -4.95,4.34912 -3.48105,7.38193c4.54189,-0.32227 6.77637,-3.63545 3.48105,-7.38193z" fill="#c30763"/><path d="M153.26133,236.07715c7.84922,1.76689 14.00391,-1.8832 20.67949,-5.28867c6.17051,-3.16436 12.31523,-6.37939 18.4333,-9.64424l50.84766,-27.01582c8.35605,-4.52021 16.77305,-9.13008 25.09951,-13.7083c1.05029,-0.57773 1.02568,-0.46641 1.99775,-0.16963l1.2832,0.81826c-1.30166,2.59746 -6.07852,5.42783 -8.78555,5.93437c-3.41543,2.24648 -2.07891,2.42109 -3.71367,4.8c-8.18672,4.28906 -18.29707,9.89795 -26.48232,13.79619c-4.70742,0.31436 -12.44912,4.73701 -14.31592,4.64033c-3.86631,2.53828 -8.69941,4.58701 -12.97236,6.6041c-6.24346,2.94697 -11.90186,6.90205 -17.88105,10.0541c-4.27764,1.95176 -8.504,4.01396 -12.67471,6.18486c-10.61133,5.429 -17.88896,9.51299 -29.34375,2.67539c-0.14883,-1.39307 -0.02725,-1.21084 0.94336,-2.09004c1.31221,0.59941 2.53828,1.20967 3.9375,1.57764z" fill="url(#color-3)"/><path d="M218.30479,210.23965c3.65537,-3.37939 40.12998,-21.92402 44.51191,-23.23652c-3.41543,2.24648 -2.07891,2.42109 -3.71367,4.8c-8.18672,4.28906 -18.29707,9.89795 -26.48232,13.79619c-4.70742,0.31436 -12.44912,4.73701 -14.31592,4.64033z" fill="#650022"/><path d="M264.76084,134.29629c0.78867,-0.73799 5.054,-3.53877 6.20742,-3.52705c1.05498,1.43848 1.86152,1.5873 2.46709,2.32324c-0.20039,0.27129 -0.90732,1.18711 -1.01367,1.4291c0.48398,0.57012 1.01338,0.94131 0.80801,1.78506c-0.38291,1.57148 -1.48301,2.65752 -2.85557,3.43096c-6.98584,3.93662 -14.22715,7.43789 -21.24668,11.30947c-2.78057,1.53369 -5.47881,3.271 -8.27842,4.79121c-4.32217,2.34727 -8.68828,4.57822 -13.04238,6.86016c-12.86162,7.754 -26.57432,13.89902 -39.52471,21.52617c-0.91904,0.54141 -2.41465,1.45078 -3.36416,1.83867l-0.1248,-0.34424c-1.98691,0.73828 -5.40117,2.71904 -6.87598,2.95371c0.82705,-1.07666 1.89492,-0.97559 2.86846,-2.30303l-0.36504,-0.26807c0.00205,-0.00264 12.53438,-7.0793 13.82578,-7.85918c1.02686,-0.33721 5.38271,-2.76357 6.48457,-3.36328c3.02168,-1.65322 6.07939,-3.23965 9.17051,-4.75869c2.55937,-3.09492 2.71025,-2.78701 5.74805,-5.06016c2.09355,-1.23896 5.30625,-3.225 7.12031,-4.81729c3.40488,-2.94053 8.49434,-5.43779 12.11191,-7.66641c4.13701,-2.54854 31.26533,-16.18564 32.21953,-18.93076c-0.91318,0.10049 -1.49063,0.34395 -2.34023,0.65039z" fill="#fe3e9d"/><path d="M264.76084,134.29629c0.78867,-0.73799 5.054,-3.53877 6.20742,-3.52705c1.05498,1.43848 1.86152,1.5873 2.46709,2.32324c-0.20039,0.27129 -0.90732,1.18711 -1.01367,1.4291c-5.91914,6.32197 -35.00596,20.23477 -43.92158,25.33037c-1.85654,0.01611 -3.90469,0.04277 -5.73047,0.39111c3.40488,-2.94053 8.49434,-5.43779 12.11191,-7.66641c4.13701,-2.54854 31.26533,-16.18564 32.21953,-18.93076c-0.91318,0.10049 -1.49063,0.34395 -2.34023,0.65039z" fill="#650022"/><path d="M222.76963,160.24307c1.82578,-0.34834 3.87393,-0.375 5.73047,-0.39111c-3.29912,2.42314 -14.35635,8.37246 -18.59883,10.26855c2.55937,-3.09492 2.71025,-2.78701 5.74805,-5.06016c2.09355,-1.23896 5.30625,-3.225 7.12031,-4.81729z" fill="#c30763"/><path d="M253.48975,164.39473c-0.86777,1.09336 -3.78896,4.27031 -5.1249,1.67783c-2.07715,-4.03154 0.04336,-7.37021 4.98779,-6.35479c0.48574,2.06367 0.53496,2.61475 0.13711,4.67695z" fill-opacity="0.98824" fill="#03d7fe"/><path d="M248.37041,181.61953c-1.46895,-3.03281 -0.15059,-8.67012 3.48105,-7.38193c3.29531,3.74648 1.06084,7.05967 -3.48105,7.38193z" fill-opacity="0.98824" fill="#03d7fe"/><path d="M251.85146,174.2376c7.22637,1.9875 3.93516,-3.75146 8.84795,-3.53408c0.27012,2.97627 -1.19561,3.55254 -3.40898,5.07158c-1.27383,1.65 -6.69727,7.89961 -8.92002,5.84443c4.54189,-0.32227 6.77637,-3.63545 3.48105,-7.38193z" fill="#ac0048"/><path d="M257.29043,175.7751c-0.61025,-1.90107 1.54893,-4.50498 3.40898,-5.07158c0.27012,2.97627 -1.19561,3.55254 -3.40898,5.07158z" fill="#010000"/><path d="M253.35264,159.71777c0.59004,0.49131 0.87949,0.78281 1.58701,1.11035c2.20664,-1.23281 3.29385,-4.04766 5.54561,-4.20498l0.40547,0.37998c-0.11836,2.30654 -4.2876,3.66504 -5.9458,4.65615c-0.17725,0.10605 -1.01338,2.28369 -1.45518,2.73545c0.39785,-2.06221 0.34863,-2.61328 -0.13711,-4.67695z" fill="#010000"/><path d="M180.52559,211.4209c1.16777,0.58711 1.47158,0.75703 1.68164,1.97842c-0.32168,1.04971 -1.03594,1.55566 -1.85215,2.30039l-0.66826,0.42773c-0.46436,-0.85107 0.51797,-3.58857 0.83877,-4.70654z" fill="#240810"/><path d="M216.97646,178.60254c1.89668,1.4083 -1.08457,3.18398 -2.19668,3.97236l-0.50625,-0.09492l-0.22002,-0.52881c0.37383,-1.41387 1.75957,-2.5626 2.92295,-3.34863z" fill="#240810"/><path d="M190.14434,207.71924l0.19453,0.20771c0.11162,1.81025 -1.95205,3.10664 -3.5127,3.55283c-0.21328,-0.31934 -0.2373,-0.57275 -0.31904,-0.94482c0.43623,-1.12324 2.52422,-2.15361 3.63721,-2.81572z" fill="#010000"/><path d="M196.64824,204.13301l0.52178,0.16875l0.1292,0.51387c-0.41221,1.12588 -1.67432,2.26699 -2.53682,3.16934c-0.49951,-0.09609 -0.41807,-0.14561 -0.86543,-0.53379l0.07383,-0.78398c0.74238,-1.18389 1.57559,-1.70771 2.67744,-2.53418z" fill="#010000"/><path d="M223.24717,174.73271c1.04736,0.20947 0.84961,0.01611 1.52988,0.67852c0.00293,0.92842 -0.84023,1.7877 -1.44873,2.579c-0.79746,0.21006 -0.50625,0.25283 -1.19238,-0.0252l-0.17109,-0.72334c0.27891,-1.32803 0.39521,-1.471 1.28232,-2.50898z" fill="#010000"/><path d="M187.67607,194.1832c1.13818,0.06445 1.25244,-0.14443 1.85186,0.50859c-0.02285,0.84287 -0.88242,1.77305 -1.43291,2.50811c-0.43125,-0.03779 -0.67617,-0.13271 -1.09043,-0.24873l-0.32871,-0.64248c0.11719,-0.96914 0.45703,-1.33799 1.0002,-2.12549z" fill="#010000"/><path d="M202.00166,200.45771c1.04443,0.53877 0.80303,0.23496 1.20439,1.09834c-0.08994,0.96826 -1.00049,1.95586 -1.61689,2.76621c-0.25605,0.12832 -0.32695,0.0624 -0.69229,0.0501c-0.45498,-1.30342 0.45,-2.81924 1.10479,-3.91465z" fill="#010000"/><path d="M238.2583,167.43809c0.48662,0.05537 0.5335,0.1292 0.98145,0.33955l0.11367,0.66768c-0.37529,0.99814 -0.94131,1.46309 -1.68779,2.22275c-0.43652,-0.05068 -0.6627,-0.18105 -1.0582,-0.35625l-0.16582,-0.66035c0.3085,-0.91436 1.10508,-1.53105 1.8167,-2.21338z" fill="#010000"/><path d="M224.61533,189.20859c0.19922,0.32314 0.15586,0.43301 0.19395,0.83701c-0.97383,1.64209 -1.48916,2.21133 -2.73223,3.61494c-0.33486,-0.47139 -0.33779,-0.63516 -0.46523,-1.18418c0.36328,-1.49092 1.79795,-2.37334 3.00352,-3.26777z" fill="#240810"/><path d="M173.68096,216.33984l0.79717,0.12949l0.23789,0.43887c-0.21094,0.88682 -1.2917,1.89844 -1.9459,2.60889c-0.81768,-0.07383 -0.51973,0.05947 -1.12061,-0.50449l0.03574,-0.64248c0.62227,-1.21875 0.8127,-1.31514 1.9957,-2.03027z" fill="#010000"/><path d="M207.58242,183.22793c1.14492,0.35508 0.91875,0.121 1.67988,0.92637c0.01729,0.90879 -0.7749,1.5873 -1.40156,2.296c-0.38672,0.22295 -0.36914,0.17666 -0.81826,0.27422l-0.2502,-0.49775c0.15,-1.36436 0.28887,-1.70596 0.79014,-2.99883z" fill="#010000"/><path d="M174.15264,202.27119l0.83613,0.57891l0.09287,0.56455c-0.39609,0.88301 -1.49619,1.46221 -2.33818,2.01973l-0.67734,-0.0958l-0.23906,-0.4749c0.38789,-1.03125 1.47598,-1.83896 2.32559,-2.59248z" fill="#010000"/><path d="M238.28232,182.35898c0.98555,0.48457 0.75469,0.1957 1.03975,1.0207c-0.34336,0.871 -1.35703,1.55625 -2.11582,2.18145c-0.51826,-0.14033 -0.37646,-0.11895 -0.8124,-0.53555l0.05508,-0.75996c0.64893,-1.09717 0.76699,-1.20439 1.8334,-1.90664z" fill="#010000"/><path d="M216.96328,194.15039c0.6835,0.13271 0.41543,-0.0334 0.84229,0.49453c-0.21094,0.96182 -1.36377,1.92979 -2.10176,2.67422c-0.89238,-0.30322 -0.92373,-0.70811 -0.91436,-1.47275c0.67588,-1.0166 1.06758,-1.14316 2.17383,-1.696z" fill="#240810"/><path d="M181.76543,198.20273c0.45146,0.17227 0.46289,0.23262 0.84316,0.5291l-0.03252,0.62285c-0.66152,0.99346 -1.25127,1.3248 -2.23066,2.01855c-0.38467,-0.04834 -0.50889,-0.16904 -0.84141,-0.37354c0.20859,-1.41475 1.09775,-1.90576 2.26143,-2.79697z" fill="#010000"/><path d="M196.65498,189.39932l0.67119,0.3l0.1875,0.56455c-0.39785,0.93252 -1.67871,1.73643 -2.53535,2.38213l-0.6041,-0.09346l-0.18398,-0.50625c0.4251,-0.88623 1.69746,-1.93066 2.46475,-2.64697z" fill="#240810"/><path d="M209.30918,197.62383c0.81094,0.7752 0.6123,0.38525 0.77871,1.4543c-0.41689,1.04297 -0.96182,1.32246 -1.87529,1.9834c-0.62754,-0.40723 -0.43037,-0.17227 -0.68027,-0.94834c0.23379,-1.06494 1.00898,-1.69424 1.77686,-2.48936z" fill="#010000"/><path d="M202.06348,186.40488l0.80654,0.46084l0.20918,0.77549c-0.22588,0.96592 -0.88125,1.53311 -1.55801,2.26816c-0.6501,-0.23584 -0.42744,-0.05244 -0.78047,-0.7793c0.13711,-1.14082 0.67881,-1.7707 1.32275,-2.7252z" fill="#010000"/><path d="M259.10303,191.80313c4.43086,-1.88291 8.53477,-3.33047 11.9335,-6.74414c0.64102,-0.64395 1.15693,-1.21787 2.04639,-0.88389c0.58477,1.98867 -1.39189,3.54873 -2.92588,4.38633c-10.39043,5.67393 -20.86348,11.18877 -31.36816,16.64824l-34.42412,18.22178l-25.26621,13.34268c-8.33467,4.39658 -15.44736,9.60967 -25.22637,8.64053c-4.1748,-0.92168 -5.40234,-1.82227 -9.00322,-4.17686c0.72451,-0.31699 1.21084,0.20098 2.32236,0.61787l0.30059,-0.44355l-0.76143,-0.53906l0.10723,-0.47871c-0.99434,-1.02129 -13.08047,-8.53301 -15.27832,-10.04238c4.74932,1.04268 10.40889,7.12031 13.19941,5.83799c-0.50508,-0.86689 -0.93428,-0.99229 -1.81436,-1.42646c0.04629,-0.15352 0.09141,-0.37705 0.17607,-0.48838l2.3124,1.48301c11.45479,6.8376 18.73242,2.75361 29.34375,-2.67539c4.1707,-2.1709 8.39707,-4.23311 12.67471,-6.18486c5.9792,-3.15205 11.6376,-7.10713 17.88105,-10.0541c4.27295,-2.01709 9.10605,-4.06582 12.97236,-6.6041c1.8668,0.09668 9.6085,-4.32598 14.31592,-4.64033c8.18525,-3.89824 18.29561,-9.50713 26.48232,-13.79619z" fill="url(#color-4)"/><path d="M187.45137,226.89785c3.43799,-0.22031 5.8752,-1.03652 9.14443,-1.72295c-4.67256,2.89687 -10.38779,5.82773 -15.38057,8.23887c-9.34805,4.51465 -17.70586,11.77148 -28.54307,9.23203c-2.0373,-0.48428 -3.9999,-1.2416 -5.83447,-2.25146c-0.99434,-1.02129 -13.08047,-8.53301 -15.27832,-10.04238c4.74932,1.04268 10.40889,7.12031 13.19941,5.83799c-0.50508,-0.86689 -0.93428,-0.99229 -1.81436,-1.42646c0.04629,-0.15352 0.09141,-0.37705 0.17607,-0.48838l2.3124,1.48301c11.45479,6.8376 18.73242,2.75361 29.34375,-2.67539c4.1707,-2.1709 8.39707,-4.23311 12.67471,-6.18486z" fill="#ac0048"/><path d="M218.30479,210.23965c1.8668,0.09668 9.6085,-4.32598 14.31592,-4.64033c-7.28467,4.64619 -16.01719,9.00117 -23.70264,13.00049c-4.19883,2.18496 -8.01299,4.44346 -12.32227,6.5751c-3.26924,0.68643 -5.70645,1.50264 -9.14443,1.72295c5.9792,-3.15205 11.6376,-7.10713 17.88105,-10.0541c4.27295,-2.01709 9.10605,-4.06582 12.97236,-6.6041z" fill="#8b0037"/><path d="M160.67197,286.50732c8.99502,-1.6374 21.16904,-9.67061 29.37744,-14.19316c10.16543,-5.60068 20.50898,-10.79854 30.71836,-16.27119l51.61113,-28.23516c-0.62139,1.27734 -1.42822,3.19746 -2.68066,3.9085c-18.76729,10.65293 -37.85654,20.66807 -56.93408,30.74883c-11.01123,5.81865 -21.69316,12.2083 -32.86934,17.74189c-2.0042,1.01016 -10.27969,5.54414 -12.03223,6.11045c-0.17139,0.05625 -0.34482,0.10488 -0.52031,0.14619c-2.15654,-0.60967 -5.32734,1.18213 -8.12695,1.03711l-0.09375,-0.18896z" fill="#010000"/><path d="M250.87354,221.42373c1.22021,0.04072 1.96055,0.3832 2.86436,1.13613c1.2416,2.62354 -1.11738,4.55449 -2.96338,6.15146c-1.23809,0.329 -0.85576,0.3958 -2.01973,0.09111c-2.75859,-2.25645 -0.99961,-6.10195 2.11875,-7.37871z" fill-opacity="0.98824" fill="#03d7fe"/><path d="M249.98643,207.80127c5.08037,-0.48633 3.72217,4.16924 1.21377,6.65391l-1.46455,0.35859c-3.28184,-0.49043 -2.24912,-5.15244 0.25078,-7.0125z" fill-opacity="0.98824" fill="#03d7fe"/><path d="M260.35781,203.54883l0.38789,0.51914c0.32461,2.83184 -3.0832,4.25713 -5.27842,5.05107c-0.78076,-1.48594 3.67559,-4.89434 4.89053,-5.57021z" fill="#010000"/><path d="M259.49502,218.3792c0.99141,0.30088 0.64277,0.07236 1.31484,0.86895c0.4248,1.91221 -1.42588,3.18018 -2.86787,3.95742l-0.66064,-0.12744l-0.29795,-0.53701c0.22412,-1.71064 1.39248,-2.90361 2.51162,-4.16191z" fill="#010000"/><path d="M223.996,228.67383c1.54658,1.19473 1.5249,4.47744 0.32959,5.75332c-2.04287,-1.9207 -2.19727,-3.61406 -0.32959,-5.75332z" fill="#ac0048"/><path d="M174.47021,264.39902c0.37646,0.08643 0.73916,0.23965 1.1042,0.375c0.92168,1.70771 -0.98379,2.83828 -2.24531,3.79395l-0.70869,-0.09727c-1.04678,-1.44609 0.7749,-3.13213 1.8498,-4.07168z" fill="#010000"/><path d="M181.41768,259.77012c1.31748,-0.00381 1.74727,-0.15967 2.32119,1.08223c-0.09375,0.96064 -0.59854,1.36729 -1.24863,2.06836c-0.73213,0.31787 -1.00957,0.51182 -1.77744,0.28945l-0.30557,-0.63457c0.08232,-1.13701 0.49834,-1.78887 1.01045,-2.80547z" fill="#010000"/><path d="M190.69424,255.36182l0.45234,0.18398c1.05439,1.46309 -1.49238,3.05449 -2.59805,3.96914l-0.70459,-0.05566l-0.17666,-0.46465c0.46025,-1.67168 1.65762,-2.68271 3.02695,-3.63281z" fill="#010000"/><path d="M174.39873,249.46055c1.09248,0.17666 1.3415,0.26924 1.45605,1.29434c-0.51357,1.08867 -1.25273,1.51729 -2.22217,2.25029c-0.68408,0.03662 -0.41543,0.08818 -1.04238,-0.31787c-0.20186,-1.38691 0.825,-2.41963 1.8085,-3.22676z" fill="#010000"/><path d="M238.34736,230.39209c0.66563,-0.01172 0.629,-0.01348 1.18125,0.36943l-0.01172,0.74443c-0.65713,1.19912 -0.99023,1.45928 -2.00508,2.40146c-0.86631,-0.01172 -0.53994,0.09727 -1.23574,-0.40254l0.03984,-0.74678c0.66328,-1.2252 0.96416,-1.44199 2.03145,-2.36602z" fill="#010000"/><path d="M201.80596,235.5498c0.20654,-0.01611 0.66504,0.03281 0.89385,0.04951c-0.29238,0.55576 -3.60996,3.09023 -4.48242,3.86748c-0.33867,0.12773 -0.45352,0.0835 -0.82705,0.07793l-0.11514,-0.44062c0.59883,-1.62656 3.03662,-2.79609 4.53076,-3.5543z" fill="#2c000a"/><path d="M216.98086,241.59697c0.57949,0.45879 0.41016,0.20625 0.58506,0.95918c-0.47109,1.20117 -1.94531,2.62852 -2.86172,3.63047c-0.54082,-0.25605 -0.35947,-0.12393 -0.65684,-0.81006c0.2165,-1.50879 1.81875,-2.79551 2.9335,-3.77959z" fill="#010000"/><path d="M224.40498,222.81973c0.39727,0.14678 0.42246,0.21973 0.75439,0.48867c-0.11484,1.44844 -1.05059,2.04814 -2.1624,3.02607l-0.52588,-0.28945c-0.83467,-1.80586 0.37617,-2.60361 1.93389,-3.22529z" fill="#240810"/><path d="M190.85566,241.05029c0.40283,0.21094 0.2792,0.15762 0.59238,0.53438c-0.28418,1.0418 -1.75107,2.54707 -2.51162,3.43682c-0.90059,-0.35566 -0.87861,-0.76846 -0.79805,-1.55215c0.61465,-1.02129 1.73906,-1.71006 2.71729,-2.41904z" fill="#010000"/><path d="M181.95059,245.72461c1.0875,0.02021 1.38867,-0.08057 1.94736,0.78135c-0.17607,0.94893 -0.85635,1.41504 -1.57822,2.0751c-0.62314,0.27891 -0.64805,0.30732 -1.29375,0.179c-0.20039,-0.89062 0.51768,-2.12754 0.92461,-3.03545z" fill="#010000"/><path d="M237.99961,216.05303c1.06318,0.24844 0.79248,0.02402 1.23779,0.72744c-0.18311,0.95801 -0.96387,1.52402 -1.69043,2.21748c-0.73564,0.11338 -0.43828,0.1333 -1.12617,-0.13271l-0.09141,-0.61729c0.47842,-1.22461 0.64951,-1.34531 1.67021,-2.19492z" fill="#240810"/><path d="M223.86797,238.39541l0.69434,0.04453l0.225,0.45293c-0.36416,0.99463 -1.3582,1.90195 -2.1082,2.69355c-0.83818,-0.26455 -0.87187,-0.65449 -0.90205,-1.35908c0.55518,-0.96094 1.15225,-1.23809 2.09092,-1.83193z" fill="#010000"/><path d="M196.2835,251.77031c0.7998,0.36416 1.28789,0.50566 1.80674,1.23457c-0.0123,0.97998 -0.029,0.7043 -0.83437,1.61865c-0.96357,0.46816 -0.61846,0.46758 -1.42734,0.25137c-0.3123,-0.87773 0.18721,-2.16416 0.45498,-3.10459z" fill="#240810"/><path d="M216.25166,227.31064c0.11279,0.04834 0.46201,0.3665 0.58008,0.46729l-0.03604,0.58564c-0.64102,1.04473 -1.13086,1.31162 -2.13779,2.02969c-0.2959,-0.15967 -0.46904,-0.35449 -0.721,-0.5833l0.00469,-0.66563c0.56074,-0.92461 1.37285,-1.28408 2.31006,-1.83369z" fill="#010000"/><path d="M202.33359,248.69033c1.36084,1.6043 0.10137,3.30439 -1.47891,4.14756l-0.24521,-0.34072c-0.09932,-1.03096 1.07461,-2.53975 1.72412,-3.80684z" fill="#240810"/><path d="M24.68745,114.7084c0.66243,0.02402 1.60928,-0.04512 2.09502,0.32549c0.07339,2.63408 3.58315,3.41396 4.11343,4.53369c1.27617,2.69385 0.47695,2.6502 2.88516,5.08916c3.27598,1.78711 6.68115,3.55195 9.88066,5.44834c4.4584,2.64258 8.82891,5.80547 13.32129,8.37451c15.15879,8.66953 30.05537,17.43486 45.01787,26.43076l18.3627,11.13105c1.79385,1.08691 6.84609,4.32832 8.55117,5.11904c8.18965,5.19463 19.64707,14.72461 29.48145,14.31182c7.39512,-0.31055 15.37471,-6.12686 22.02422,-9.37061l0.36504,0.26807c-0.97354,1.32744 -2.04141,1.22637 -2.86846,2.30303c1.4748,-0.23467 4.88906,-2.21543 6.87598,-2.95371l0.1248,0.34424c-3.02139,1.61484 -6.42949,3.28008 -9.36123,4.93477c-7.33857,4.14229 -12.66738,7.44053 -21.44795,6.31699c0.01846,12.42598 0.37178,24.86924 -0.14707,37.29404c-0.0208,0.49453 -0.38613,1.09717 -0.7002,1.46807l-2.94756,-0.83145c-1.39922,-0.36797 -2.62529,-0.97822 -3.9375,-1.57764c-0.97061,0.8792 -1.09219,0.69697 -0.94336,2.09004l-2.3124,-1.48301c-0.08467,0.11133 -0.12979,0.33486 -0.17607,0.48838c0.88008,0.43418 1.30928,0.55957 1.81436,1.42646c-2.79053,1.28232 -8.4501,-4.79531 -13.19941,-5.83799c-5.29658,-3.01348 -10.27705,-6.26162 -15.49746,-9.35537l-55.45693,-33.15205c-6.06797,-3.55459 -12.18691,-7.021 -18.35537,-10.39775c-6.10869,-3.38086 -11.52129,-5.90625 -16.75195,-10.57207c-0.35675,-1.31982 -0.4159,-1.50908 -1.20114,-2.6209l1.00441,-0.57627c-1.33972,-1.54541 -3.45278,-3.81563 -3.61087,-5.90713c-0.74353,-9.83848 -0.29086,-19.83955 -0.51393,-29.71377c-0.0721,-3.19072 0.14877,-6.42246 0.63999,-9.57334l0.72396,-1.07578c0.68437,-1.29639 1.09925,-1.64854 2.14737,-2.69912z" fill="#e91279"/><path d="M25.30093,163.67754c3.89839,1.13291 12.94702,7.08369 17.18276,9.35244c8.296,4.49678 16.52988,9.09961 24.87598,13.50293c3.89063,2.09941 7.58057,4.99717 11.46475,7.04883c10.54922,5.57168 20.73105,11.94287 30.80479,18.34131c8.35752,5.30859 20.57021,9.80068 27.81885,16.10244l2.69443,1.79121l-0.88447,1.57559l1.81201,1.30137c0.54609,0.35918 1.30371,0.89678 1.86445,1.17949l0.18604,0.40195c-0.08467,0.11133 -0.12979,0.33486 -0.17607,0.48838c0.88008,0.43418 1.30928,0.55957 1.81436,1.42646c-2.79053,1.28232 -8.4501,-4.79531 -13.19941,-5.83799c-5.29658,-3.01348 -10.27705,-6.26162 -15.49746,-9.35537l-55.45693,-33.15205c-6.06797,-3.55459 -12.18691,-7.021 -18.35537,-10.39775c-6.10869,-3.38086 -11.52129,-5.90625 -16.75195,-10.57207c-0.35675,-1.31982 -0.4159,-1.50908 -1.20114,-2.6209z" fill="#650022"/><path d="M24.68745,114.7084c0.66243,0.02402 1.60928,-0.04512 2.09502,0.32549c0.07339,2.63408 3.58315,3.41396 4.11343,4.53369c1.27617,2.69385 0.47695,2.6502 2.88516,5.08916c3.27598,1.78711 6.68115,3.55195 9.88066,5.44834c4.4584,2.64258 8.82891,5.80547 13.32129,8.37451c15.15879,8.66953 30.05537,17.43486 45.01787,26.43076l18.3627,11.13105c1.79385,1.08691 6.84609,4.32832 8.55117,5.11904c8.18965,5.19463 19.64707,14.72461 29.48145,14.31182c7.39512,-0.31055 15.37471,-6.12686 22.02422,-9.37061l0.36504,0.26807c-0.97354,1.32744 -2.04141,1.22637 -2.86846,2.30303c1.4748,-0.23467 4.88906,-2.21543 6.87598,-2.95371l0.1248,0.34424c-3.02139,1.61484 -6.42949,3.28008 -9.36123,4.93477c-7.33857,4.14229 -12.66738,7.44053 -21.44795,6.31699c-1.85771,-0.42979 -3.20654,-0.83467 -5.02002,-1.42646c-3.0791,-1.22754 -7.21465,-4.12998 -10.11738,-5.85088c-12.91846,-7.6585 -25.46689,-15.79951 -38.57695,-23.15039c-4.97988,-2.76768 -9.8751,-6.78223 -14.8418,-9.44326c-7.90898,-4.23779 -15.49834,-9.04951 -23.25615,-13.45986c-11.6543,-6.62549 -23.46504,-12.95361 -34.69286,-20.32148c-2.60153,-1.70713 -3.76096,-2.79375 -5.7873,-5.17939l0.72396,-1.07578c0.68437,-1.29639 1.09925,-1.64854 2.14737,-2.69912z" fill="url(#color-5)"/><path d="M24.68745,114.7084c0.66243,0.02402 1.60928,-0.04512 2.09502,0.32549c0.07339,2.63408 3.58315,3.41396 4.11343,4.53369c1.27617,2.69385 0.47695,2.6502 2.88516,5.08916c-3.86396,-1.76426 -9.75653,-6.87246 -11.24098,-7.24922c0.68437,-1.29639 1.09925,-1.64854 2.14737,-2.69912z" fill="#ac0048"/><path d="M144.24463,232.44053l2.13164,1.22754c-0.97061,0.8792 -1.09219,0.69697 -0.94336,2.09004l-2.3124,-1.48301l-0.18604,-0.40195c0.21973,-0.50742 0.88125,-1.03447 1.31016,-1.43262z" fill="#240810"/><path d="M140.14248,229.8167l2.10557,1.35586l-1.17803,1.52109l-1.81201,-1.30137z" fill="#410009"/><path d="M142.24805,231.17256l1.99658,1.26797c-0.42891,0.39814 -1.09043,0.9252 -1.31016,1.43262c-0.56074,-0.28271 -1.31836,-0.82031 -1.86445,-1.17949z" fill="#2c000a"/><path d="M32.97129,159.35537c-0.44238,-2.67275 -0.45059,-24.29355 0.27246,-25.93682c1.46484,-0.3498 2.76006,0.55869 3.99814,1.31836l46.12354,27.76318c4.50674,2.71816 9.15732,5.98916 13.47832,8.53184l21.22764,12.56104c3.79277,2.21953 20.20459,11.08184 20.63086,14.22188c0.55781,4.10947 0.32578,20.91533 0.0624,25.80322c-3.10635,-0.94072 -9.72832,-4.52871 -11.06543,-7.42383c-0.25576,-0.03633 -0.92344,-0.00762 -1.21787,-0.00234c-2.19053,0.20596 -19.85098,-11.72637 -21.24141,-13.76777l-0.35625,0.43711l-0.1166,0.30352l-0.59648,0.13418c-2.93291,-1.00693 -5.98594,-4.11387 -8.67656,-5.7958c-1.69893,-1.06201 -8.71377,-4.1833 -9.11074,-5.97598l-0.89268,-0.3252c-2.04258,0.55781 -7.44111,-3.87393 -9.6416,-4.94443c-6.58828,-3.20566 -12.44385,-7.68135 -18.72598,-11.53359c-6.78984,-4.16396 -18.83232,-9.44736 -24.15176,-15.36855z" fill="#010000"/><path d="M97.3623,185.20049c3.33047,3.70957 13.58203,8.00391 18.64775,11.96953c-0.04893,5.09912 -0.29941,6.46025 0.76875,11.47061l6.19453,4.64619c0.98379,1.03564 2.35957,2.02178 3.50801,2.90508c-2.19053,0.20596 -19.85098,-11.72637 -21.24141,-13.76777c-1.01514,-0.83994 -1.37988,-1.47188 -2.13604,-2.51426c-2.28193,-3.1459 -3.30996,-3.46348 -6.76523,-4.79004c1.34443,-2.4208 -0.13916,-8.01299 1.02363,-9.91934z" fill="#010000"/><path d="M108.23906,203.05752c4.41914,-0.14971 5.83711,0.08672 6.63779,4.58027c-1.72148,-0.32227 -4.89023,-3.32725 -6.63779,-4.58027z" fill="#f7f7f7"/><path d="M127.01807,190.70186c2.61123,1.62598 9.76494,5.43545 9.89063,8.08945c0.2751,5.79844 0.45088,17.20547 -0.11602,22.61602c-2.49639,-1.58203 -5.48643,-3.11953 -6.4998,-6.03984l0.14707,-0.57422c1.87734,-0.22969 3.95859,2.18555 5.1917,3.43066c-0.13389,-1.67402 -0.26924,-7.5583 -0.03018,-9.22295l0.18779,-0.20508c-0.57158,-1.45313 -1.16104,-0.91318 -1.40391,-2.11963c0.67266,0.07588 0.84961,0.11748 1.5126,0.02725l-0.61494,-0.54082c0.50332,-0.95127 0.80537,-4.66729 0.5083,-5.42021c-1.72207,-4.36436 -5.52393,-5.3874 -8.77324,-10.04063z" fill="url(#color-6)"/><path d="M74.65107,166.86885l1.31602,1.00547c0.07734,1.44258 0.571,2.475 1.35439,3.70166c6.59531,4.05703 10.21406,4.71064 16.91455,10.5542l0.31113,0.69932c-0.44912,0.49014 -0.18662,0.34248 -0.77813,0.51357c-3.45,-1.65586 -15.704,-8.73398 -18.00879,-11.19932c-0.68877,-1.97578 -1.04092,-3.1834 -1.10918,-5.2749z" fill="url(#color-7)"/><path d="M117.59268,196.57441l1.09102,-0.4752c2.91475,1.52783 5.53301,2.90918 8.33584,4.64385c2.70937,1.67637 5.57637,3.84844 8.26348,5.41963l0.61494,0.54082c-0.66299,0.09023 -0.83994,0.04863 -1.5126,-0.02725c0.24287,1.20645 0.83232,0.6665 1.40391,2.11963l-0.18779,0.20508c-4.49268,-3.48018 -12.27012,-7.6207 -17.52012,-11.50635z" fill="#f7f7f7"/><path d="M97.4042,184.13672c2.22393,0.37881 4.84219,2.16709 6.82471,3.38936c2.98945,1.84248 6.16758,3.54023 9.17754,5.35137c1.11211,0.66943 2.19023,2.80781 2.96865,3.75645l-0.00146,0.15996l-0.36357,0.37617c-5.06572,-3.96562 -15.31729,-8.25996 -18.64775,-11.96953l0.10488,-0.51533z" fill="#f7f7f7"/><path d="M74.51924,172.86211c-0.72129,-0.37148 -3.4292,-2.24414 -4.12588,-2.80781c-2.25,-1.82021 -12.54375,-6.68848 -12.6498,-9.525c1.12471,-0.42949 5.69619,2.7958 6.929,3.56865c4.22168,2.6458 8.14189,3.5792 10.0333,8.65195z" fill="#f7f7f7"/><path d="M116.37363,196.79385c0.53848,0.44678 0.80654,0.59033 1.10215,1.20352c-0.13916,2.38301 -0.40898,5.52744 -0.3126,7.85068c1.97139,1.18447 4.19824,3.09404 5.34521,5.0959c0.39375,0.63984 0.61318,0.97441 0.89414,1.69189l-0.4292,0.65098l-6.19453,-4.64619c-1.06816,-5.01035 -0.81768,-6.37148 -0.76875,-11.47061z" fill="#f7f7f7"/><path d="M94.9043,172.42529c4.55068,3.8751 -0.15498,10.03037 2.4999,11.71143l0.06299,0.54844c-1.31924,-0.05625 -1.66055,-0.03545 -2.82891,-0.60908l-0.86924,-0.73301c0.5915,-0.17109 0.329,-0.02344 0.77813,-0.51357l-0.31113,-0.69932c0.48164,-0.91055 0.86455,-6.33135 0.45,-7.58643c-0.2417,-0.73125 -0.91289,-1.05557 -1.56035,-1.41943c0.45,-0.09082 1.32041,-0.50127 1.77861,-0.69902z" fill="#a5a5a6"/><path d="M117.63516,185.29717c1.82139,1.06318 5.30713,2.93818 6.71426,4.37695l0.06123,0.46699c-1.68193,0.54375 -4.67051,-1.19473 -6.21592,-1.98545l-0.50713,-0.26045c-0.38086,2.65664 -0.89561,5.97979 0.99609,8.204l-1.09102,0.4752l-0.22207,-0.24756c-1.86387,-6.08467 -1.65293,-5.25176 0.26455,-11.02969z" fill="#f7f7f7"/><path d="M94.63828,184.07607c1.16836,0.57363 1.50967,0.55283 2.82891,0.60908l-0.10488,0.51533c-1.16279,1.90635 0.3208,7.49854 -1.02363,9.91934l-0.76699,-0.57041l-0.29971,-0.0498l-1.38662,-1.67754l1.22227,-0.84316c-0.55898,-2.37422 -0.45645,-5.40791 -0.46934,-7.90283z" fill="#7f8685"/><path d="M95.10762,191.97891c0.38994,0.77871 0.91113,1.51641 0.75527,2.30625l-0.29121,0.26426l-0.29971,-0.0498l-1.38662,-1.67754z" fill="#091310"/><path d="M95.27197,194.49961l0.29971,0.0498l0.76699,0.57041c3.45527,1.32656 4.4833,1.64414 6.76523,4.79004c0.75615,1.04238 1.1209,1.67432 2.13604,2.51426l-0.35625,0.43711c-1.88262,-1.75313 -8.14131,-6.28857 -10.50205,-7.49209z" fill="#f7f7f7"/><path d="M75.79248,181.57793c2.31943,0.68115 5.26025,4.25479 6.94336,6.11162l-1.05791,0.58447c-3.13594,-1.95674 -5.5957,-3.03135 -7.00107,-6.46699z" fill="#f7f7f7"/><path d="M94.38164,195.36914c-1.55596,-0.71016 -6.36621,-2.41582 -5.44365,-4.51143c2.09912,-0.82822 3.66709,0.5127 4.94736,1.96436l1.38662,1.67754z" fill="#f7f7f7"/><path d="M86.18262,166.36963c2.5875,1.94355 6.59473,4.08281 8.72168,6.05566c-0.4582,0.19775 -1.32861,0.6082 -1.77861,0.69902c-4.02715,-1.92422 -4.55391,-2.95664 -6.94307,-6.75469z" fill="#f7f7f7"/><path d="M74.70586,172.7499c0.721,0.72598 1.33535,1.33535 2.10732,2.0083c-0.74561,1.95146 -1.83369,4.74727 -1.0207,6.81973l-1.11563,0.2291c-0.78281,-2.44043 0.24814,-6.65713 -0.15762,-8.94492z" fill="#f7f7f7"/><path d="M122.5084,210.94395c1.35322,1.24131 4.12998,3.77168 5.19082,5.25029c-0.25576,-0.03633 -0.92344,-0.00762 -1.21787,-0.00234c-1.14844,-0.8833 -2.52422,-1.86943 -3.50801,-2.90508l0.4292,-0.65098c-0.28096,-0.71748 -0.50039,-1.05205 -0.89414,-1.69189z" fill="#d7d5d6"/><path d="M74.65107,166.86885c-0.03252,-1.49268 -0.26367,-1.59229 0.3498,-2.74189l0.54463,-0.10166c1.23516,1.18184 0.85225,2.36543 0.42158,3.84902z" fill="#d7bfcb"/><path d="M82.73584,187.68955c0.99844,0.87568 3.11104,2.68711 3.64746,3.8376l-0.89268,-0.3252c-1.26533,-0.9835 -2.53623,-1.95937 -3.8127,-2.92793z" fill="#bfccc8"/><path d="M117.37061,196.32686l0.22207,0.24756l0.48867,0.92021l-0.60557,0.50273c-0.29561,-0.61318 -0.56367,-0.75674 -1.10215,-1.20352l0.00146,-0.15996z" fill="#091310"/><path d="M54.48896,149.6666c-4.34209,-1.91455 -6.77607,-3.675 -9.40078,-7.76514c3.63691,2.22598 8.47178,4.904 11.34609,7.97344c0.42891,1.84629 0.57686,18.84932 0.11309,19.66641c-3.58154,-0.67119 -1.01045,-7.32217 -2.6792,-9.82295l0.43301,-0.68057l-0.20596,-0.56895c0.75615,-1.12998 0.51006,-7.12793 0.39375,-8.80225z" fill="#a5a5a6"/><path d="M53.86816,159.71836c-4.08311,-1.92334 -10.42998,-6.17754 -14.56611,-8.48965c-0.77666,-0.43418 -1.14844,-1.23809 -1.30107,-2.11494l0.30557,-0.39141c2.18672,0.14502 13.7751,7.70596 15.78867,9.74648l0.20596,0.56895z" fill="#f7f7f7"/><path d="M35.67422,140.28193c0.49629,0.07998 0.71777,0.14473 1.12676,0.44121l0.36035,-0.43887c-0.29795,5.88809 0.47988,14.31152 -0.13447,19.4499c-0.31641,0.26631 -0.73477,0.56836 -0.94248,0.90967c-1.11094,-1.41152 -0.85049,-18.1207 -0.41016,-20.36191z" fill="#bfccc8"/><path d="M54.35127,169.48975c4.49004,2.88984 7.13555,3.28242 9.46699,8.1167c-3.22793,-1.71064 -6.39082,-4.47363 -9.7084,-6.37646c0.09697,-0.57217 0.16611,-1.16367 0.24141,-1.74023z" fill="#bfccc8"/><path d="M35.7,135.89473c1.74229,1.35352 4.52578,3.39375 6.45,4.72119c0.04512,0.23643 0.08408,0.43975 0.11689,0.61025c-0.62373,0.86777 -0.28945,0.62139 -1.23984,0.98115c-1.96143,-0.35215 -2.27959,-2.23389 -3.86572,-1.92305l-0.36035,0.43887c-0.40898,-0.29648 -0.63047,-0.36123 -1.12676,-0.44121z" fill="#f7f7f7"/><path d="M75.34512,161.06396c2.11729,0.19893 7.69863,3.07002 8.2207,5.06777l-0.12422,-0.00322c-2.53271,-0.08057 -5.84033,-1.71592 -7.80059,-3.45586c-0.54873,-0.48691 -0.36152,-0.83174 -0.2959,-1.60869z" fill="#f7f7f7"/><path d="M67.58613,177.84756c2.54063,0.17344 6.12568,2.11465 5.63115,4.97051l-0.45967,0.19775c-1.55508,-0.93281 -5.4085,-2.80166 -5.7832,-4.46514z" fill="#f7f7f7"/><path d="M57.51475,149.51309c1.42178,0.33721 6.21445,3.63223 7.16807,4.85889c-4.73408,0.42275 -5.80664,-0.71279 -7.16807,-4.85889z" fill="#f7f7f7"/><path d="M107.4873,179.02793c2.38887,1.64648 5.00859,3.30439 7.07578,5.35693c0.80801,0.80244 0.75615,0.87803 0.81064,1.96934c-2.02178,-0.55957 -7.72998,-5.20459 -7.88643,-7.32627z" fill="#f7f7f7"/><path d="M97.57617,173.62764c1.84717,0.56807 6.3334,3.27012 6.86689,5.10938c-1.68428,-0.00234 -3.32461,-0.53818 -4.68574,-1.53047c-1.43496,-1.04385 -1.90811,-1.90225 -2.18115,-3.57891z" fill="#f7f7f7"/><path d="M66.46553,155.44131c2.98271,0.56016 6.43623,2.95635 7.74229,5.71348c-3.32578,-0.31436 -5.84326,-3.25723 -7.74229,-5.71348z" fill="#f7f7f7"/><path d="M54.10986,171.22998c-1.6377,-0.51885 -4.88408,-1.91104 -4.61279,-3.95684l0.60674,-0.28857c2.22422,0.13154 2.71699,0.93164 4.24746,2.50518c-0.07529,0.57656 -0.14443,1.16807 -0.24141,1.74023z" fill="#f7f7f7"/><path d="M39.12451,162.82646c0.49189,-1.00049 0.5748,-1.24248 1.40332,-2.01299c0.89766,1.02861 1.59873,1.90781 2.42197,2.99766l0.26396,1.32334z" fill="#bfccc8"/><path d="M37.02686,159.73418c1.14375,0.34219 2.38213,0.68613 3.50098,1.0793c-0.82852,0.77051 -0.91143,1.0125 -1.40332,2.01299c-1.19414,-0.64922 -1.9957,-1.34033 -3.04014,-2.18262c0.20771,-0.34131 0.62607,-0.64336 0.94248,-0.90967z" fill="#d3e8e3"/><path d="M42.9498,163.81113c1.26797,1.31807 1.8583,2.18115 2.89629,3.66035c-1.04238,-0.81064 -1.75313,-1.3251 -2.63232,-2.33701z" fill="#7f8685"/><path d="M22.50888,70.39746l0.53338,-0.90645l0.59112,-0.09023c1.94104,2.05752 8.11594,5.34521 10.82619,7.01924c18.52646,11.27051 37.34619,22.13232 55.63945,33.78867c1.89727,1.20908 11.80078,6.73096 12.92637,7.71035c1.27031,0.55049 15.22119,8.99033 15.96973,9.66621c-0.11953,0.51123 -0.17227,0.75703 -0.36855,1.24189l-0.44268,0.25107c7.45811,4.4877 14.94902,8.88691 22.25479,13.62129c0.80244,0.52031 1.73467,1.01924 2.57549,1.48916c2.14687,1.30459 4.2832,2.62617 6.40869,3.96475c1.01602,0.41016 2.85586,1.21523 3.84902,1.45635c0.40664,2.47705 0.66152,4.97666 0.76377,7.48477c0.13066,2.76709 0.56074,29.44014 -0.3542,30.88623l-0.39756,0.30059c-1.33037,-0.26074 -3.02754,-0.8209 -4.35674,-1.21729c-4.46309,-2.26377 -7.39629,-3.98672 -11.46357,-6.81357c-0.52031,2.01943 -0.53467,1.79062 1.06934,3.36738c-0.91406,-0.31348 -2.14219,-1.31748 -2.96777,-1.92275c-2.9417,0.65537 -3.69434,0.28535 -6.65039,-0.53467c-1.70508,-0.79072 -6.75732,-4.03213 -8.55117,-5.11904l-18.3627,-11.13105c-14.9625,-8.9959 -29.85908,-17.76123 -45.01787,-26.43076c-4.49238,-2.56904 -8.86289,-5.73193 -13.32129,-8.37451c-3.19951,-1.89639 -6.60469,-3.66123 -9.88066,-5.44834c-2.4082,-2.43896 -1.60898,-2.39531 -2.88516,-5.08916c-0.53027,-1.11973 -4.04004,-1.89961 -4.11343,-4.53369c-0.48574,-0.37061 -1.43259,-0.30146 -2.09502,-0.32549c-1.14729,-1.54277 -2.46375,-3.23115 -2.91185,-5.13135c-1.21784,-5.16445 -1.01906,-33.88242 -0.51293,-39.97002z" fill="#e91279"/><path d="M26.78247,115.03389c10.17495,5.32412 18.76245,9.60234 28.17085,16.29814c6.16436,4.38691 13.97285,8.19961 20.39121,12.56602c6.9832,3.09668 8.70937,3.74297 14.95664,7.90254c7.99424,5.44893 15.5373,10.45078 24.20566,14.78818c2.85762,1.42998 5.73516,3.84023 8.63496,5.30273c2.78437,1.60869 12.57246,6.47021 14.32178,8.35898c-0.52031,2.01943 -0.53467,1.79062 1.06934,3.36738c-0.91406,-0.31348 -2.14219,-1.31748 -2.96777,-1.92275c-2.9417,0.65537 -3.69434,0.28535 -6.65039,-0.53467c-1.70508,-0.79072 -6.75732,-4.03213 -8.55117,-5.11904l-18.3627,-11.13105c-14.9625,-8.9959 -29.85908,-17.76123 -45.01787,-26.43076c-4.49238,-2.56904 -8.86289,-5.73193 -13.32129,-8.37451c-3.19951,-1.89639 -6.60469,-3.66123 -9.88066,-5.44834c-2.4082,-2.43896 -1.60898,-2.39531 -2.88516,-5.08916c-0.53027,-1.11973 -4.04004,-1.89961 -4.11343,-4.53369z" fill="#650022"/><path d="M75.34453,143.89805c6.9832,3.09668 8.70937,3.74297 14.95664,7.90254c-4.58936,1.92217 -13.74668,-3.91699 -14.95664,-7.90254z" fill="#8b0037"/><path d="M22.50888,70.39746l0.53338,-0.90645l0.59112,-0.09023c1.94104,2.05752 8.11594,5.34521 10.82619,7.01924c18.52646,11.27051 37.34619,22.13232 55.63945,33.78867c1.89727,1.20908 11.80078,6.73096 12.92637,7.71035c0.43008,0.47139 0.79277,0.73887 0.8373,1.34707c-0.89912,-0.22471 -1.55947,-0.35713 -2.47471,-0.50391c-1.95322,-0.68262 -18.48809,-11.07246 -21.10488,-12.68115c-15.58125,-9.57891 -32.05283,-18.779 -47.46064,-28.49443c-2.58838,-1.21963 -8.47743,-4.82285 -10.31358,-7.18916z" fill="#ffc5eb"/><path d="M103.02539,117.91904c1.27031,0.55049 15.22119,8.99033 15.96973,9.66621c-0.11953,0.51123 -0.17227,0.75703 -0.36855,1.24189l-0.44268,0.25107c-1.18242,-0.44355 -5.35488,-3.21621 -6.63281,-4.01309c-3.35479,-2.09238 -6.82705,-4.1833 -10.16309,-6.30293c0.91523,0.14678 1.57559,0.2792 2.47471,0.50391c-0.04453,-0.6082 -0.40723,-0.87568 -0.8373,-1.34707z" fill="#fe89d4"/><path d="M82.33828,143.60244c-7.82959,-3.65859 -17.15039,-10.55215 -24.68848,-15.10811c-7.80967,-4.72002 -18.03486,-9.5124 -24.60322,-15.60029c-0.58418,-0.54141 -0.49102,-22.81055 0.19219,-24.95303c0.73242,-0.6457 1.8,-0.17754 2.53682,0.31553c13.60811,9.10635 28.34883,16.36143 42.11455,25.23604c3.19834,2.06191 6.50068,4.3333 9.73887,6.25693l29.85176,17.7917c4.12148,2.42373 8.4665,4.79678 12.86953,7.45693c8.80518,5.31973 8.97129,5.01475 8.58662,15.51621c-0.18896,5.16357 0.07705,11.62295 -0.07939,16.83281c-1.89961,-0.90469 -11.17441,-6.75557 -11.88779,-8.08945l0.01992,-0.58857l-0.479,0.57012c-0.10664,0.08115 -0.5124,0.1998 -0.66592,0.25166c-2.22979,-0.54521 -12.86924,-7.60166 -15.70928,-9.30088c-2.39502,-1.47598 -4.00693,-2.29541 -6.45205,-3.58506c-5.34668,-3.05918 -11.0376,-7.09951 -16.46836,-10.20234c-1.81729,-1.03828 -2.80137,-1.93506 -4.87676,-2.8002z" fill="#010000"/><path d="M76.66523,135.80596c-0.43184,-1.37432 -0.06621,-7.01953 0.39551,-8.36309c5.55088,3.16758 12.01113,7.66992 17.42842,10.2958l0.13242,0.30088c-0.03047,1.96963 0.21709,8.69238 -0.60205,9.78633l-0.83437,0.08145l-0.4415,0.40342c-1.74375,-1.03184 -3.47344,-2.19697 -5.17266,-3.31055c-1.18535,-0.4415 -2.95635,-1.33506 -4.14932,-1.89082c-0.83965,-0.55518 -1.52783,-1.07285 -2.32676,-1.68398l0.17842,-0.37969c-0.06094,-0.62871 -0.06533,-0.63193 0.04189,-1.25186c-0.78164,-1.31484 -3.33867,-3.05303 -4.65,-3.98789z" fill="#010000"/><path d="M88.01602,144.00938c1.35059,0.12275 3.17461,0.3457 4.49062,0.28711c0.22061,1.13848 0.51768,2.48057 0.67852,3.61084l-0.4415,0.40342c-1.74375,-1.03184 -3.47344,-2.19697 -5.17266,-3.31055z" fill="#f7f7f7"/><path d="M81.31523,139.79385c2.45361,2.32441 3.36006,3.54697 6.70078,4.21553l-0.44502,0.99082c-1.18535,-0.4415 -2.95635,-1.33506 -4.14932,-1.89082c-0.83965,-0.55518 -1.52783,-1.07285 -2.32676,-1.68398l0.17842,-0.37969c-0.06094,-0.62871 -0.06533,-0.63193 0.04189,-1.25186z" fill="#aabaa5"/><path d="M117.0123,149.86055c-0.28652,-2.47559 -0.85635,-7.53193 0.48545,-9.68145c1.56592,-0.66738 5.94229,2.43926 6.82471,3.76318l-0.16084,0.40137c-1.92832,0.24199 -3.99111,-1.26973 -5.70146,-2.25762c-0.27187,2.64229 -0.75996,4.84863 0.1418,7.33096c1.15693,1.36113 7.11885,4.51172 9.05273,5.71582c2.65898,1.67314 5.27637,3.41162 7.8498,5.21396c0.44678,0.79541 0.71865,1.14404 0.72627,2.07715c-0.15586,0.16816 -0.47783,0.53877 -0.64072,0.66152c-2.84824,-2.8248 -13.20059,-8.68506 -17.19814,-11.04697c-0.22002,-1.12178 -0.57012,-1.36992 -1.37959,-2.17793z" fill="#f7f7f7"/><path d="M127.86445,145.31309c2.34316,1.60195 8.8292,5.39092 8.89248,7.63887c0.1377,4.91104 0.71455,17.59893 0.12275,21.81064c-2.25029,-1.34561 -5.65225,-3.11484 -6.62051,-5.59307l0.1002,-0.63252c2.17178,-0.51475 4.04707,1.92891 5.30859,3.34541c-0.18633,-3.11455 -0.07148,-5.71377 -0.07793,-8.79697c0.16289,-0.12275 0.48486,-0.49336 0.64072,-0.66152c-0.00762,-0.93311 -0.27949,-1.28174 -0.72627,-2.07715c0.17256,-1.6875 0.28037,-5.63291 0.1377,-7.3418c-3.37002,-2.89395 -5.42578,-3.69229 -7.77773,-7.69189z" fill="#d3e8e3"/><path d="M75.84551,124.44668l0.83584,-0.11836c0.15381,0.3791 0.3624,0.77695 0.71953,0.9876c5.23623,3.0917 12.55166,6.60938 16.904,10.85332l0.48076,0.98057l-0.29648,0.58887c-5.41729,-2.62588 -11.87754,-7.12822 -17.42842,-10.2958c-0.39697,-0.65186 -0.76055,-1.08105 -1.23574,-1.66494z" fill="#f7f7f7"/><path d="M97.52813,138.06006c4.85479,1.74814 9.31201,5.02617 13.79561,7.55332c2.74688,1.54805 3.50156,2.56582 4.98779,5.25879c-3.68086,-1.59961 -16.53691,-9.61611 -19.61426,-12.01816z" fill="#f7f7f7"/><path d="M83.42168,143.10938c1.19297,0.55576 2.96396,1.44932 4.14932,1.89082c1.69922,1.11357 3.42891,2.27871 5.17266,3.31055c1.28437,0.69521 2.82275,1.5835 4.11973,2.19727c2.6165,1.45811 4.3708,3.43652 6.94395,4.90986c-0.01816,0.47227 0.01143,0.7377 -0.12393,1.18711c-5.34668,-3.05918 -11.0376,-7.09951 -16.46836,-10.20234c-1.81729,-1.03828 -2.80137,-1.93506 -4.87676,-2.8002z" fill="#010000"/><path d="M117.0123,149.86055c0.80947,0.80801 1.15957,1.05615 1.37959,2.17793c-0.73066,0.95508 -0.5417,1.15752 -0.73564,2.52393c-0.3334,1.42939 -0.20654,4.21523 -0.12979,5.76123c2.65781,1.36553 4.26123,2.50928 6.24727,4.80615l-0.86924,1.28643c-1.98018,-1.43145 -3.91348,-2.77178 -5.71113,-4.43555c-1.21582,-3.31934 -1.65937,-8.37217 -0.86924,-11.77676z" fill="#f7f7f7"/><path d="M117.0123,149.86055c0.80947,0.80801 1.15957,1.05615 1.37959,2.17793c-0.73066,0.95508 -0.5417,1.15752 -0.73564,2.52393c-0.0208,-1.93711 0.24785,-2.9959 -1.33213,-4.3585z" fill="#091310"/><path d="M94.43408,126.15176c1.25596,0.73125 2.33848,1.30664 3.6293,1.96172l-0.75996,0.83613l-0.46582,0.03281c-0.38408,1.47363 -0.3126,6.67383 -0.28711,8.47471l-0.47813,0.79717c-0.66855,-0.02812 -0.7998,-0.05215 -1.45078,-0.21475l-0.13242,-0.30088l0.29648,-0.58887l-0.48076,-0.98057c0.18955,-1.24453 0.52939,-7.76807 -0.12686,-8.92588c-0.18516,-0.32695 -0.93223,-0.34512 -1.42617,-0.42949c0.60732,-0.0832 1.12295,-0.39053 1.68223,-0.66211z" fill="#a5a5a6"/><path d="M96.55049,137.45713c0.15088,0.0958 0.86309,0.55898 0.97764,0.60293l-0.83086,0.79395l-0.30967,0.00264c0.02666,0.81328 0.1582,1.7332 0.13975,2.50254c-0.06914,2.89688 -1.70918,6.10635 1.06025,8.19434l-0.72422,0.95449c-1.29697,-0.61377 -2.83535,-1.50205 -4.11973,-2.19727l0.4415,-0.40342l0.83437,-0.08145c0.81914,-1.09395 0.57158,-7.8167 0.60205,-9.78633c0.65098,0.1626 0.78223,0.18662 1.45078,0.21475z" fill="#a5a5a6"/><path d="M74.92031,135.77314c0.54434,-3.06943 -1.37256,-5.98711 0.90469,-9.99521c0.4752,0.58389 0.83877,1.01309 1.23574,1.66494c-0.46172,1.34355 -0.82734,6.98877 -0.39551,8.36309z" fill="#7f8685"/><path d="M97.5876,149.55352c4.15898,1.28818 4.75781,1.57266 6.50303,5.64258l-0.2833,0.22178c-2.57314,-1.47334 -4.32744,-3.45176 -6.94395,-4.90986z" fill="#f7f7f7"/><path d="M74.92031,135.77314l1.74492,0.03281c1.31133,0.93486 3.86836,2.67305 4.65,3.98789c-0.10723,0.61992 -0.10283,0.62314 -0.04189,1.25186l-0.17842,0.37969c-1.69453,-1.16426 -5.93555,-3.64014 -6.17461,-5.65225z" fill="#f7f7f7"/><path d="M86.17705,120.74033c2.79023,1.59492 5.82773,3.30234 8.25703,5.41143c-0.55928,0.27158 -1.0749,0.57891 -1.68223,0.66211c-3.69844,-1.54014 -4.24717,-2.78145 -6.5748,-6.07354z" fill="url(#color-8)"/><path d="M104.09063,155.19609c0.53525,0.26221 1.18037,0.60908 1.73965,0.7793c0.94424,0.20391 3.3,0.77666 4.13467,0.86133l-0.5748,0.75732l1.09629,1.07783l-0.12832,0.03984c-0.52031,0.1585 -0.58184,0.17197 -1.11768,0.19775c0.29121,0.42041 0.5918,0.87217 0.89502,1.28057c-2.39502,-1.47598 -4.00693,-2.29541 -6.45205,-3.58506c0.13535,-0.44941 0.10576,-0.71484 0.12393,-1.18711z" fill="#650022"/><path d="M105.83027,155.97539c0.94424,0.20391 3.3,0.77666 4.13467,0.86133l-0.5748,0.75732c-0.94043,0.09814 -2.7873,-0.78633 -3.629,-1.27148z" fill="#ffc5eb"/><path d="M98.06338,128.11348c1.87471,1.00723 4.40098,2.05752 5.46211,3.85283l-0.15322,0.5042c-2.08711,0.56221 -4.85566,-2.00947 -6.06885,-3.5209z" fill="#f7f7f7"/><path d="M109.96494,156.83672c3.35039,-0.13447 4.21846,0.24463 4.57705,3.70107l-0.27656,0.18135c-1.70742,-0.37881 -2.81104,-1.80674 -3.779,-2.04727l-1.09629,-1.07783z" fill="#f7f7f7"/><path d="M75.50391,120.36943c-0.74268,-0.72422 -1.71445,-1.70273 -1.90928,-2.75215c0.87363,0.02402 2.48203,1.31719 3.38086,1.88643l-0.29414,4.82461l-0.83584,0.11836c0.08525,-1.32451 -0.16436,-2.75156 -0.3416,-4.07725z" fill="#a5a5a6"/><path d="M123.77373,165.12979c0.59297,0.64189 2.8125,2.96807 3.21592,3.53936l-0.479,0.57012c-1.20937,-0.93135 -2.41143,-1.87236 -3.60615,-2.82305z" fill="#d7bfcb"/><path d="M35.6666,90.55693c2.65928,2.03818 5.58516,3.28096 8.08271,5.44395c2.74014,0.2376 8.60098,4.03008 10.68486,5.89072l-0.58418,1.01455c1.4458,1.13057 0.8792,7.78125 0.55869,9.56191l-0.61172,1.15166c-2.56992,-1.40947 -14.58721,-8.47939 -16.35527,-10.07842l0.12363,-0.93984l-0.25635,-0.18779c-0.47959,-1.99336 -0.37324,-5.81836 -0.38818,-7.99541l-1.17451,-0.28564z" fill="#010000"/><path d="M37.56533,102.60146c3.09668,-0.25547 13.26973,6.75967 15.78105,8.89189c0.36709,0.31055 0.72129,0.63574 1.0623,0.97471l-0.61172,1.15166c-2.56992,-1.40947 -14.58721,-8.47939 -16.35527,-10.07842z" fill="#f7f7f7"/><path d="M43.74932,96.00088c2.74014,0.2376 8.60098,4.03008 10.68486,5.89072l-0.58418,1.01455c-3.70576,0.07061 -6.09932,-5.10527 -10.21641,-6.53965z" fill="#f7f7f7"/><path d="M35.6666,90.55693c2.65928,2.03818 5.58516,3.28096 8.08271,5.44395l-0.11572,0.36562c-3.59355,0.44092 -4.82842,-2.16562 -6.71279,-1.94824l-1.17451,-0.28564z" fill="#f7f7f7"/><path d="M54.43418,101.8916c0.9208,0.76553 1.95439,1.41475 2.95576,2.0751c-0.36885,2.46797 -0.84141,19.30723 -0.08145,20.65928l-1.34326,0.76846l-0.6917,-0.71836l-1.16953,0.00322c0.06855,-0.81475 -0.31699,-1.69863 -0.58301,-2.50547c1.53984,-1.65762 0.7084,-3.60615 0.9999,-6.52998c0.00498,-1.00488 -0.19189,-1.21172 -0.72393,-2.02412l0.61172,-1.15166c0.32051,-1.78066 0.88711,-8.43135 -0.55869,-9.56191z" fill="url(#color-9)"/><path d="M54.5209,115.64385c0.32754,3.04893 0.25811,6.02373 0.75264,9.03223l-1.16953,0.00322c0.06855,-0.81475 -0.31699,-1.69863 -0.58301,-2.50547c1.53984,-1.65762 0.7084,-3.60615 0.9999,-6.52998z" fill="#091310"/><path d="M57.46377,114.25664c3.43418,0.26953 9.84463,5.58457 13.44082,7.00195c2.66484,1.05059 3.46289,2.62236 3.53232,5.42109c-0.83496,-0.63369 -1.92686,-1.47949 -2.74424,-2.1334c-2.50137,-2.00186 -13.61016,-7.45342 -14.22891,-10.28965z" fill="#f7f7f7"/><path d="M35.74629,94.13262l1.17451,0.28564c0.01494,2.17705 -0.09141,6.00205 0.38818,7.99541l0.25635,0.18779l-0.12363,0.93984c-0.60674,2.50137 -0.5874,6.54141 -0.13301,9.07705l-0.88857,-0.19482l-0.67969,0.46787c-0.81621,-1.85947 -0.24463,-16.1335 0.00586,-18.75879z" fill="#bfccc8"/><path d="M75.93398,115.3459c2.24795,0.0876 7.59404,3.3085 8.25176,5.45332c-1.72676,-0.26484 -5.14629,-1.77158 -6.81885,-2.48203c-0.83203,-1.23779 -1.07607,-1.54336 -1.43291,-2.97129z" fill="#f7f7f7"/><path d="M65.79785,131.29014c4.62217,0.13008 6.47666,0.54346 7.92773,5.05605c-1.6377,-0.46289 -7.47422,-3.43477 -7.92773,-5.05605z" fill="#d7d5d6"/><path d="M65.44336,108.60791c2.52686,0.18867 8.81191,4.11357 8.95342,7.27031c-1.43496,-0.10166 -7.96582,-5.92852 -8.95342,-7.27031z" fill="#f7f7f7"/><path d="M57.3085,124.62598c1.61162,0.87715 5.25879,2.64346 5.39268,4.74434c-1.85449,0.67734 -5.3042,-2.7416 -6.73594,-3.97588z" fill="#bfccc8"/><path d="M107.06455,132.99082c2.79756,1.82754 7.12705,4.07256 8.05635,7.11973c-2.0332,-0.04834 -7.80527,-5.11875 -8.05635,-7.11973z" fill="#f7f7f7"/><path d="M54.104,124.6793c-1.2334,-0.6249 -6.32432,-2.74893 -4.6623,-4.56387c2.07334,-0.4125 3.09199,0.3126 4.0793,2.0584c0.26602,0.80684 0.65156,1.69072 0.58301,2.50547z" fill="#d7d5d6"/><path d="M35.74043,112.89141l0.67969,-0.46787l0.88857,0.19482c2.56582,0.44824 3.87363,2.14922 5.46855,4.1502l-1.06934,0.43389c-2.01533,-1.14727 -4.65527,-2.42725 -5.96748,-4.31104z" fill="#d7d5d6"/><path d="M58.11387,104.24355c1.9459,0.40781 4.88701,2.04229 5.39619,4.09805c-3.38584,0.17783 -4.90225,-0.6668 -5.39619,-4.09805z" fill="#f7f7f7"/><path d="M42.77725,116.76855c0.79512,0.83584 1.63682,1.68896 2.36045,2.58193l-3.42979,-2.14805z" fill="#a5a5a6"/><path d="M274.44697,87.25488c0.58184,2.73633 0.42803,7.12061 0.41016,10.00225c-0.05684,9.1043 0.17549,18.24492 -0.15586,27.33867c-0.0999,2.74014 -1.58525,4.64297 -3.73301,6.17344c-1.15342,-0.01172 -5.41875,2.78906 -6.20742,3.52705c0.84961,-0.30645 1.42705,-0.5499 2.34023,-0.65039c-0.9542,2.74512 -28.08252,16.38223 -32.21953,18.93076c-3.61758,2.22861 -8.70703,4.72588 -12.11191,7.66641c-1.81406,1.59229 -5.02676,3.57832 -7.12031,4.81729c-3.03779,2.27314 -3.18867,1.96523 -5.74805,5.06016c-3.09111,1.51904 -6.14883,3.10547 -9.17051,4.75869c-1.10186,0.59971 -5.45771,3.02607 -6.48457,3.36328c-1.29141,0.77988 -13.82373,7.85654 -13.82578,7.85918c-6.64951,3.24375 -14.6291,9.06006 -22.02422,9.37061c-9.83438,0.41279 -21.2918,-9.11719 -29.48145,-14.31182c2.95605,0.82002 3.70869,1.19004 6.65039,0.53467c0.82559,0.60527 2.05371,1.60928 2.96777,1.92275c-1.604,-1.57676 -1.58965,-1.34795 -1.06934,-3.36738c4.06729,2.82686 7.00049,4.5498 11.46357,6.81357c1.3292,0.39639 3.02637,0.95654 4.35674,1.21729l0.39756,-0.30059c0.91494,-1.44609 0.48486,-28.11914 0.3542,-30.88623c-0.10225,-2.50811 -0.35713,-5.00771 -0.76377,-7.48477c11.14189,1.66787 18.28125,-4.12646 27.77549,-9.20684l24.60762,-12.85957c16.73848,-8.67334 33.38379,-17.5251 49.93301,-26.55439c5.01416,-2.73838 10.15781,-5.3124 15.18691,-8.02236c1.18799,-0.64014 1.88291,-1.62627 2.4791,-2.80635c0.30264,-0.93721 0.79336,-1.98838 1.19297,-2.90537zM251.41787,120.08291c1.53311,-1.60342 3.78574,-4.0834 1.72939,-6.26807c-0.80771,-0.39053 -1.8668,-0.70576 -2.7542,-0.44209c-3.41543,1.36494 -3.78984,5.83213 -1.04268,7.2917c0.89209,0.1626 1.28262,-0.15381 2.06748,-0.58154zM251.65078,133.23398c3.77021,-2.62998 3.13037,-6.10898 -1.56357,-6.37676c-0.21211,-0.01201 -0.42451,-0.01934 -0.63691,-0.02168c-1.69805,1.99482 -3.13594,7.47393 0.53848,7.46895c0.63076,-0.3668 1.07461,-0.61787 1.66201,-1.07051z" fill="#c30763"/><path d="M264.76084,134.29629c0.84961,-0.30645 1.42705,-0.5499 2.34023,-0.65039c-0.9542,2.74512 -28.08252,16.38223 -32.21953,18.93076c-3.61758,2.22861 -8.70703,4.72588 -12.11191,7.66641c-1.81406,1.59229 -5.02676,3.57832 -7.12031,4.81729c-3.03779,2.27314 -3.18867,1.96523 -5.74805,5.06016c-3.09111,1.51904 -6.14883,3.10547 -9.17051,4.75869c-1.10186,0.59971 -5.45771,3.02607 -6.48457,3.36328c-1.29141,0.77988 -13.82373,7.85654 -13.82578,7.85918c-6.64951,3.24375 -14.6291,9.06006 -22.02422,9.37061c-9.83438,0.41279 -21.2918,-9.11719 -29.48145,-14.31182c2.95605,0.82002 3.70869,1.19004 6.65039,0.53467c0.82559,0.60527 2.05371,1.60928 2.96777,1.92275c-1.604,-1.57676 -1.58965,-1.34795 -1.06934,-3.36738c4.06729,2.82686 7.00049,4.5498 11.46357,6.81357c1.3292,0.39639 3.02637,0.95654 4.35674,1.21729c10.75869,3.00234 25.72676,-7.9834 35.28105,-12.89971c25.65498,-13.20117 50.60596,-27.74531 76.1959,-41.08535z" fill="url(#color-10)"/><path d="M186.04746,179.69502c4.44141,-0.18223 4.49941,-0.88975 8.19873,-1.45254c-1.29141,0.77988 -13.82373,7.85654 -13.82578,7.85918c-6.64951,3.24375 -14.6291,9.06006 -22.02422,9.37061c-9.83438,0.41279 -21.2918,-9.11719 -29.48145,-14.31182c2.95605,0.82002 3.70869,1.19004 6.65039,0.53467c0.82559,0.60527 2.05371,1.60928 2.96777,1.92275c2.10352,2.05957 9.35537,5.97041 12.37412,7.05879c9.06094,3.26719 16.57354,-1.37607 24.38203,-5.54883c3.5373,-1.90605 7.12471,-3.71748 10.7584,-5.43281z" fill="url(#color-11)"/><path d="M186.04746,179.69502c2.54883,-1.86387 6.19687,-3.56133 8.93936,-5.18555c5.44688,-3.22617 14.37041,-8.26758 20.6625,-9.44912c-3.03779,2.27314 -3.18867,1.96523 -5.74805,5.06016c-3.09111,1.51904 -6.14883,3.10547 -9.17051,4.75869c-1.10186,0.59971 -5.45771,3.02607 -6.48457,3.36328c-3.69932,0.56279 -3.75732,1.27031 -8.19873,1.45254z" fill="#8b0037"/><path d="M250.39307,113.37275c0.8874,-0.26367 1.94648,0.05156 2.7542,0.44209c2.05635,2.18467 -0.19629,4.66465 -1.72939,6.26807c-0.78486,0.42773 -1.17539,0.74414 -2.06748,0.58154c-2.74717,-1.45957 -2.37275,-5.92676 1.04268,-7.2917z" fill-opacity="0.98824" fill="#03d7fe"/><path d="M249.45029,126.83555c0.2124,0.00234 0.4248,0.00967 0.63691,0.02168c4.69395,0.26777 5.33379,3.74678 1.56357,6.37676c-0.5874,0.45264 -1.03125,0.70371 -1.66201,1.07051c-3.67441,0.00498 -2.23652,-5.47412 -0.53848,-7.46895z" fill-opacity="0.98824" fill="#03d7fe"/><path d="M259.84863,123.2502c0.44736,0.27539 0.3334,0.25078 0.62344,0.78076c-0.02461,2.13311 -1.4001,3.24697 -3.25312,3.93164l-0.49512,-0.27539l-0.13535,-0.67822c0.53818,-1.77744 1.78623,-2.74453 3.26016,-3.75879z" fill="#010000"/><path d="M259.57207,109.66787c0.98438,0.29648 1.12998,0.6498 1.27559,1.5416c-0.59092,1.56562 -3.0583,2.6458 -4.52285,3.40635l-0.59092,0.04365c0.02959,-0.46758 3.26689,-4.25186 3.83818,-4.9916z" fill="#010000"/><path d="M174.30439,168.69492c0.70137,0.12275 0.40225,-0.02813 0.91787,0.48721c-0.0082,1.26182 -1.5583,2.34111 -2.45859,3.06768l-0.69873,-0.31611c-0.74355,-1.67227 0.9542,-2.55732 2.23945,-3.23877z" fill="#010000"/><path d="M180.62139,165.11836c0.73271,0.00117 0.81826,0.03369 1.47305,0.3665l0.11133,0.59326c-0.52236,0.98584 -1.26914,1.3957 -2.18291,2.04053c-0.32812,0.1752 -0.45967,0.13916 -0.84697,0.17344l-0.13564,-0.55957c0.43066,-1.3541 0.61436,-1.5501 1.58115,-2.61416z" fill="#010000"/><path d="M209.01182,150.15586c0.37471,0.03662 0.66914,0.13711 1.0333,0.23467l0.18867,0.45967c-0.26455,0.94805 -1.47891,2.00098 -2.21748,2.75186l-0.33896,0.16875l-0.39492,-0.16553c-0.25459,-1.45547 0.70547,-2.57842 1.72939,-3.44941z" fill="#010000"/><path d="M238.93682,120.89531l0.41396,0.17197c0.4749,0.65713 0.39111,0.33545 0.25547,1.22666c-0.75293,1.11914 -0.99375,1.2668 -2.12373,2.03232c-0.86602,-0.42275 -0.74121,-0.8874 -0.61904,-1.64561c0.74297,-1.06787 0.92314,-1.154 2.07334,-1.78535z" fill="#010000"/><path d="M173.49521,155.07246c1.02187,0.3167 1.22871,0.5458 1.35967,1.49883c-0.39229,0.91523 -1.20234,1.41914 -1.99629,2.04375l-0.52119,0.02432l-0.35859,-0.42041c0.08906,-1.01455 0.96035,-2.23037 1.51641,-3.14648z" fill="#010000"/><path d="M223.26563,128.15947c0.55078,0.05303 0.84521,0.16143 1.37695,0.32051l0.28477,0.5502c-0.23115,0.87832 -1.08838,1.5876 -1.76074,2.27461l-0.80947,0.1207l-0.34512,-0.4415c0.0832,-1.00313 0.73564,-1.93154 1.25361,-2.82451z" fill="#010000"/><path d="M189.27334,161.09004c0.40811,0.23115 0.27627,0.13975 0.45791,0.73418c-0.37734,1.14873 -1.18506,1.91807 -1.99014,2.81924l-0.63047,-0.44736c-0.7043,-1.97285 0.46641,-2.42578 2.1627,-3.10605z" fill="#010000"/><path d="M216.7043,146.09355c0.72129,0.4333 0.65391,0.87393 0.57686,1.56182c-0.67793,1.04385 -1.06201,1.19854 -2.15303,1.82637c-0.40137,-0.12861 -0.40928,-0.20391 -0.7374,-0.49541l0.04717,-0.74414c0.6876,-1.06992 1.23516,-1.38867 2.26641,-2.14863z" fill="#010000"/><path d="M216.5499,132.00908l0.3334,0.15527c0.89268,1.54365 -0.84258,2.87666 -1.96816,3.75c-0.32432,-0.17637 -0.42305,-0.31816 -0.68877,-0.57715c0.11602,-1.29785 1.36465,-2.31943 2.32354,-3.32813z" fill="#240810"/><path d="M230.91563,124.35527c0.88037,0.26367 0.56279,0.06973 1.19912,0.75088l-0.08496,0.70635c-0.66387,0.96533 -1.18477,1.17773 -2.20107,1.75693l-0.55957,-0.07764c-0.21035,-1.20674 0.87334,-2.3291 1.64648,-3.13652z" fill="#010000"/><path d="M238.23984,133.9667l1.06143,0.3501l0.25957,0.56982c-0.19336,0.91992 -1.1376,1.6626 -1.84219,2.34727l-0.80684,0.01201l-0.2001,-0.55488c0.34746,-1.20176 0.79189,-1.70391 1.52813,-2.72432z" fill="#010000"/><path d="M202.58496,153.09229c0.68525,0.65918 0.5209,0.3123 0.57949,1.31865c-0.38672,1.11416 -1.43291,1.97344 -2.2916,2.81543c-0.51943,-0.37002 -0.31582,-0.13418 -0.57451,-0.77402c0.36768,-1.09775 1.53691,-2.41025 2.28662,-3.36006z" fill="#010000"/><path d="M231.5751,137.86143c0.74238,0.69727 0.58359,0.34219 0.61904,1.31543c-0.48662,1.09951 -1.09893,1.50615 -2.01973,2.29453l-0.38994,-0.20801c-0.78105,-1.40449 0.78223,-2.6083 1.79062,-3.40195z" fill="#010000"/><path d="M182.24443,151.42852l0.36738,0.40811c-0.31611,1.2876 -1.56211,2.18848 -2.59014,2.93555c-0.53555,-0.12949 -0.36533,-0.08232 -0.81094,-0.50889l0.16113,-0.6958c0.9126,-1.05996 1.68457,-1.43818 2.87256,-2.13896z" fill="#2c000a"/><path d="M208.3667,136.57559c0.90029,0.18252 0.67002,0.01084 1.28145,0.56572c-0.1377,1.06582 -0.72041,1.47041 -1.47363,2.40615c-0.41191,0.18691 -0.40664,0.10576 -0.91992,0.05801l-0.17197,-0.75264c0.29619,-1.24336 0.37676,-1.3752 1.28408,-2.27725z" fill="#010000"/><path d="M201.71953,139.96172l0.39375,0.525c-0.07412,1.45547 -0.76729,2.26729 -2.01182,2.93027c-0.6,-0.93311 -0.51123,-0.53262 -0.45791,-1.52373c0.49248,-0.97148 1.17217,-1.31777 2.07598,-1.93154z" fill="#010000"/><path d="M224.57314,141.70664l0.5458,0.37207l-0.02754,0.61406c-0.65918,1.10654 -1.42324,1.63301 -2.41113,2.43545l-0.49951,-0.40459l0.04043,-0.65303c0.63047,-1.12148 1.33477,-1.56387 2.35195,-2.36396z" fill="#010000"/><path d="M196.28174,157.29521c0.26221,0.06064 0.24727,0.11338 0.4875,0.31699c-0.36563,1.21113 -1.65498,2.20723 -2.63965,2.93057c-0.18955,-0.18984 -0.4623,-0.56104 -0.63926,-0.78486l0.15088,-0.65654c0.82236,-0.77666 1.67227,-1.22842 2.64053,-1.80615z" fill="#010000"/><path d="M195.41162,143.70146l0.49014,0.27451l0.11426,0.58359c-0.375,0.92285 -1.53105,1.86357 -2.29541,2.58193c-0.60645,-0.50068 -0.43828,-0.22588 -0.5874,-1.07109c0.36797,-0.94775 1.46426,-1.69775 2.27842,-2.36895z" fill="#2c000a"/><path d="M146.51133,144.33516c7.27617,2.65781 9.10283,6.29121 18.34512,2.15977c7.98926,-3.57158 15.43652,-7.96641 23.21309,-11.96045c24.92725,-12.83086 49.72822,-25.90518 74.4,-39.2209c1.51113,-0.80186 9.67031,-5.71699 10.29287,-5.75391l0.4916,0.60059c-0.59619,1.18008 -1.29111,2.16621 -2.4791,2.80635c-5.0291,2.70996 -10.17275,5.28398 -15.18691,8.02236c-16.54922,9.0293 -33.19453,17.88105 -49.93301,26.55439l-24.60762,12.85957c-9.49424,5.08037 -16.63359,10.87471 -27.77549,9.20684c-0.99316,-0.24111 -2.83301,-1.04619 -3.84902,-1.45635c-2.12549,-1.33857 -4.26182,-2.66016 -6.40869,-3.96475c2.5998,-0.80244 2.75859,0.80273 3.49717,0.14648z" fill="#fe89d4"/><path d="M118.18389,129.07822l0.44268,-0.25107c0.19629,-0.48486 0.24902,-0.73066 0.36855,-1.24189c9.49131,5.49141 18.21855,11.29424 27.51621,16.7499c-0.73857,0.65625 -0.89736,-0.94893 -3.49717,-0.14648c-0.84082,-0.46992 -1.77305,-0.96885 -2.57549,-1.48916c-7.30576,-4.73438 -14.79668,-9.13359 -22.25479,-13.62129z" fill="#ffc5eb"/><path d="M101.1835,61.69219c0.09521,-1.10596 0.08994,-2.26406 1.10859,-2.95488c5.34609,-3.6252 11.62969,-6.8417 17.19053,-10.08428c3.26865,-1.68721 19.94561,-12.25781 22.079,-11.40293c12.16348,4.87529 23.35693,13.3749 35.05459,19.44639c2.53213,1.31396 4.88145,2.90859 6.18984,5.44922l0.53994,0.12861c0.59297,1.13789 0.07588,4.33535 -0.08672,5.74775c-0.99404,0.91787 -3.94893,3.45 -5.19053,3.54316c2.34023,0.61025 3.20918,2.11846 4.93682,3.70078c2.3959,1.79971 1.78506,5.54707 0.14678,7.64355c-0.62637,0.80156 -2.15479,1.72148 -3.07061,2.20576c2.11904,2.08154 2.16357,2.8752 3.74971,5.40879c0.02842,1.5123 0.08965,3.03398 -0.03867,4.54014c-2.45215,3.66592 -15.39551,9.86396 -19.74873,12.25986c-6.61729,3.64189 -13.5416,8.65166 -20.67686,11.03174c-4.996,1.35293 -17.4709,-7.83955 -21.81299,-10.38311c-6.50449,-3.81006 -12.97178,-7.73789 -19.5416,-11.41523l0.94102,-1.53516l-1.1499,-1.14316l0.47051,-1.80059c-0.93633,-0.79014 -1.6043,-1.70186 -2.36162,-2.65693c0.42129,-1.47012 1.76602,-2.4252 2.92178,-3.35186c-0.63926,-1.09189 -0.22646,-1.61426 -0.34365,-1.81377c-1.25273,-2.13281 -4.16396,-5.42549 -1.36641,-7.68252c0.3624,-3.29355 0.8209,-3.8625 3.25371,-5.99121c-1.70391,-1.15107 -3.70342,-3.12539 -4.33125,-5.15654c-0.35244,-0.97148 -0.14062,-4.36904 0.42656,-5.34023l0.37646,0.21064z" fill="#f7f7f7"/><path d="M104.37803,70.58232c1.51729,0.32168 4.62217,2.32559 6.09375,3.19805c3.77256,2.84238 27.03135,16.75752 30.64131,17.38213c1.53662,0.26572 3.44238,-0.56338 4.83311,-1.18301c4.71885,-2.10205 9.32402,-5.22305 13.78594,-7.84102c5.15596,-3.0252 10.61045,-5.88574 15.54258,-9.25342l2.79404,-1.31982c2.34023,0.61025 3.20918,2.11846 4.93682,3.70078c2.3959,1.79971 1.78506,5.54707 0.14678,7.64355c-0.62637,0.80156 -2.15479,1.72148 -3.07061,2.20576c2.11904,2.08154 2.16357,2.8752 3.74971,5.40879c0.02842,1.5123 0.08965,3.03398 -0.03867,4.54014c-2.45215,3.66592 -15.39551,9.86396 -19.74873,12.25986c-6.61729,3.64189 -13.5416,8.65166 -20.67686,11.03174c-4.996,1.35293 -17.4709,-7.83955 -21.81299,-10.38311c-6.50449,-3.81006 -12.97178,-7.73789 -19.5416,-11.41523l0.94102,-1.53516l-1.1499,-1.14316l0.47051,-1.80059c-0.93633,-0.79014 -1.6043,-1.70186 -2.36162,-2.65693c0.42129,-1.47012 1.76602,-2.4252 2.92178,-3.35186c-0.63926,-1.09189 -0.22646,-1.61426 -0.34365,-1.81377c-1.25273,-2.13281 -4.16396,-5.42549 -1.36641,-7.68252c0.3624,-3.29355 0.8209,-3.8625 3.25371,-5.99121z" fill="#f7f7f7"/><path d="M102.83438,86.06982l2.76006,-1.35732c6.18076,4.37813 13.26768,8.30684 19.81611,12.27744c3.52354,1.73262 13.50322,9.24434 17.13223,8.19316c6.04219,-1.74961 12.48076,-6.62168 18.03076,-9.65508c6.04834,-3.30615 11.71377,-6.80625 17.93174,-9.74238c0.1207,-0.08174 1.3541,-0.57803 1.57646,-0.67031c2.11904,2.08154 2.16357,2.8752 3.74971,5.40879c0.02842,1.5123 0.08965,3.03398 -0.03867,4.54014c-2.45215,3.66592 -15.39551,9.86396 -19.74873,12.25986c-6.61729,3.64189 -13.5416,8.65166 -20.67686,11.03174c-4.996,1.35293 -17.4709,-7.83955 -21.81299,-10.38311c-6.50449,-3.81006 -12.97178,-7.73789 -19.5416,-11.41523l0.94102,-1.53516l-1.1499,-1.14316l0.47051,-1.80059c-0.93633,-0.79014 -1.6043,-1.70186 -2.36162,-2.65693c0.42129,-1.47012 1.76602,-2.4252 2.92178,-3.35186z" fill="#f7f7f7"/><path d="M178.50527,85.78564c0.1207,-0.08174 1.3541,-0.57803 1.57646,-0.67031c2.11904,2.08154 2.16357,2.8752 3.74971,5.40879c0.02842,1.5123 0.08965,3.03398 -0.03867,4.54014c-2.45215,3.66592 -15.39551,9.86396 -19.74873,12.25986c-6.61729,3.64189 -13.5416,8.65166 -20.67686,11.03174c-4.996,1.35293 -17.4709,-7.83955 -21.81299,-10.38311c-6.50449,-3.81006 -12.97178,-7.73789 -19.5416,-11.41523l0.94102,-1.53516l-1.1499,-1.14316l0.47051,-1.80059c2.64727,1.78535 9.2127,5.36338 12.3665,7.12354c7.10127,3.96328 19.08721,12.40078 26.14775,15.02754c8.05107,-1.42559 21.7459,-11.26172 29.26172,-15.1585c2.21982,-1.15107 5.75801,-3.5373 8.15186,-4.36523c2.50312,-1.39365 3.40166,-2.19756 4.9125,-4.57969c-1.5542,-1.99219 -2.65283,-2.78496 -4.60928,-4.34062z" fill="#e91279"/><path d="M178.50527,85.78564c0.1207,-0.08174 1.3541,-0.57803 1.57646,-0.67031c2.11904,2.08154 2.16357,2.8752 3.74971,5.40879c0.02842,1.5123 0.08965,3.03398 -0.03867,4.54014c-2.45215,3.66592 -15.39551,9.86396 -19.74873,12.25986c-6.61729,3.64189 -13.5416,8.65166 -20.67686,11.03174c-4.996,1.35293 -17.4709,-7.83955 -21.81299,-10.38311c-6.50449,-3.81006 -12.97178,-7.73789 -19.5416,-11.41523l0.94102,-1.53516c1.66348,2.0833 16.18711,9.7875 19.18623,11.72021c3.87041,2.41465 15.75938,11.371 20.05137,10.74141c4.30928,-1.39189 10.38545,-4.78535 14.17822,-7.20557c7.15986,-4.56885 18.14004,-8.91328 23.83096,-14.87549l-0.15264,-0.44443c-0.69404,-0.30469 -0.88916,-0.27598 -1.62803,-0.25928l-0.21768,0.00674c2.50312,-1.39365 3.40166,-2.19756 4.9125,-4.57969c-1.5542,-1.99219 -2.65283,-2.78496 -4.60928,-4.34062z" fill="#8b0037"/><path d="M183.00557,75.26602c2.3959,1.79971 1.78506,5.54707 0.14678,7.64355c-0.62637,0.80156 -2.15479,1.72148 -3.07061,2.20576c-0.22236,0.09229 -1.45576,0.58857 -1.57646,0.67031c-6.21797,2.93613 -11.8834,6.43623 -17.93174,9.74238c-5.55,3.0334 -11.98857,7.90547 -18.03076,9.65508c-3.629,1.05117 -13.60869,-6.46055 -17.13223,-8.19316c-6.54844,-3.97061 -13.63535,-7.89932 -19.81611,-12.27744l-2.76006,1.35732c-0.63926,-1.09189 -0.22646,-1.61426 -0.34365,-1.81377c-1.25273,-2.13281 -4.16396,-5.42549 -1.36641,-7.68252c1.29727,1.06084 9.50449,5.93672 11.34551,6.97852c9.13564,5.17002 19.32656,12.25254 28.69512,16.61807c7.97168,-2.52158 17.3209,-9.27334 24.77637,-13.29844c4.43174,-2.39238 14.72344,-7.36143 17.06426,-11.60566z" fill="#e91279"/><path d="M100.04678,65.42578c-0.35244,-0.97148 -0.14062,-4.36904 0.42656,-5.34023l0.37646,0.21064l0.33369,1.396c2.02471,3.11689 16.04092,10.60049 20.07158,12.94219c5.11113,2.96953 15.22969,9.70693 20.67803,11.11494c1.54014,-0.36006 2.93291,-0.79248 4.33418,-1.53955c9.88096,-5.26816 19.30723,-11.39854 29.21074,-16.66055c2.15771,-1.14639 4.34678,-2.51104 6.31377,-3.95654l1.01426,-1.44697l0.53994,0.12861c0.59297,1.13789 0.07588,4.33535 -0.08672,5.74775c-0.99404,0.91787 -3.94893,3.45 -5.19053,3.54316l-2.79404,1.31982c-4.93213,3.36768 -10.38662,6.22822 -15.54258,9.25342c-4.46191,2.61797 -9.06709,5.73896 -13.78594,7.84102c-1.39072,0.61963 -3.29648,1.44873 -4.83311,1.18301c-3.60996,-0.62461 -26.86875,-14.53975 -30.64131,-17.38213c-1.47158,-0.87246 -4.57646,-2.87637 -6.09375,-3.19805c-1.70391,-1.15107 -3.70342,-3.12539 -4.33125,-5.15654z" fill="#e91279"/><path d="M112.79355,73.19561c2.04316,0.51152 6.01904,3.99521 7.56357,4.56152c3.94893,1.44756 19.10684,12.34512 22.41152,11.18877c11.91299,-4.16895 23.14248,-13.94209 34.74023,-18.78076l0.27627,-0.11338l0.44941,0.72568c-0.96621,1.15459 -2.47852,0.52646 -2.95986,2.10762c-4.93213,3.36768 -10.38662,6.22822 -15.54258,9.25342c-4.46191,2.61797 -9.06709,5.73896 -13.78594,7.84102c-1.39072,0.61963 -3.29648,1.44873 -4.83311,1.18301c-3.60996,-0.62461 -26.86875,-14.53975 -30.64131,-17.38213c1.07695,-0.03252 1.43438,0.02959 2.32178,-0.58477z" fill="#c30763"/><path d="M100.04678,65.42578c0.35742,-0.13066 0.3583,-0.21973 0.57979,-0.08262c3.9873,2.46621 7.9125,5.79316 12.16699,7.85244c-0.8874,0.61436 -1.24482,0.55225 -2.32178,0.58477c-1.47158,-0.87246 -4.57646,-2.87637 -6.09375,-3.19805c-1.70391,-1.15107 -3.70342,-3.12539 -4.33125,-5.15654z" fill="#c30763"/><path d="M182.80605,62.1457l0.53994,0.12861c0.59297,1.13789 0.07588,4.33535 -0.08672,5.74775c-0.99404,0.91787 -3.94893,3.45 -5.19053,3.54316l-2.79404,1.31982c0.48135,-1.58115 1.99365,-0.95303 2.95986,-2.10762l-0.44941,-0.72568c2.62734,-1.70361 5.44717,-2.84209 4.00664,-6.45908z" fill="#ac0048"/><path d="M99.43096,93.72568c-0.30059,-0.98437 -0.44033,-3.9542 -0.17988,-5.08389l0.37236,-0.0917l0.28916,0.87158c0.75732,0.95508 1.42529,1.8668 2.36162,2.65693l-0.47051,1.80059l1.1499,1.14316l-0.94102,1.53516c-1.68457,-0.76729 -1.90605,-1.15049 -2.58164,-2.83184z" fill="#e91279"/><path d="M99.43096,93.72568c0.59561,-0.18721 1.72529,0.0501 2.37275,0.15352l1.1499,1.14316l-0.94102,1.53516c-1.68457,-0.76729 -1.90605,-1.15049 -2.58164,-2.83184z" fill="#c30763"/></g></svg></svg>