<svg id="svg" version="1.1" viewBox="0 0 300 300" width="300" height="300" xmlns="http://www.w3.org/2000/svg"><svg xmlns="http://www.w3.org/2000/svg"><defs><clipPath id="clip-1"><rect x="0" y="0" transform="scale(0.29297,0.29297)" width="1024" height="1024" fill="none"/></clipPath><linearGradient x1="128.49668" y1="205.90107" x2="147.10488" y2="170.83096" gradientUnits="userSpaceOnUse" id="color-1"><stop offset="0" stop-color="#d8e0ed"/><stop offset="1" stop-color="#f8f4f5"/></linearGradient><linearGradient x1="52.8208" y1="140.14893" x2="55.76748" y2="133.70947" gradientUnits="userSpaceOnUse" id="color-2"><stop offset="0" stop-color="#000025"/><stop offset="1" stop-color="#000d4a"/></linearGradient><linearGradient x1="231.76025" y1="213.79043" x2="234.68408" y2="218.45508" gradientUnits="userSpaceOnUse" id="color-3"><stop offset="0" stop-color="#bcbaba"/><stop offset="1" stop-color="#ddddde"/></linearGradient><linearGradient x1="190.65557" y1="200.28398" x2="187.51729" y2="200.2251" gradientUnits="userSpaceOnUse" id="color-4"><stop offset="0" stop-color="#00246f"/><stop offset="1" stop-color="#0135bd"/></linearGradient></defs><g clip-path="url(#clip-1)" fill="none" fill-rule="nonzero" stroke="none" stroke-width="1" stroke-linecap="butt" stroke-linejoin="miter" stroke-miterlimit="10" stroke-dasharray="" stroke-dashoffset="0" font-family="none" font-weight="none" font-size="none" text-anchor="none" style="mix-blend-mode: normal"><path d="M21.12003,91.49971c1.59653,-1.24805 10.06942,-5.76357 12.25028,-6.98672c6.86221,-3.92373 13.69775,-7.89375 20.50605,-11.90977c20.92969,-12.23965 42.03164,-24.93516 63.18662,-36.81768c2.48203,-1.39424 10.42588,-1.84775 13.40918,-1.48154c3.1957,0.36416 6.32021,1.19707 9.27334,2.47178c5.3874,2.33291 12.66445,6.34512 18.13799,9.03486l48.06973,24.01904l53.97451,26.896c5.64199,2.84912 11.48613,5.3291 17.06104,8.34023c3.61992,1.95527 5.85029,4.20352 6.89238,8.26553c0.77783,4.49854 0.5083,20.1709 0.51211,25.4332c0.01875,7.09277 -0.0123,14.18584 -0.09316,21.27832c-0.05332,4.53984 0.44385,11.40703 -1.55684,15.38584c1.85156,0.64629 4.04824,-0.09785 5.22393,1.24922c-0.39521,1.21523 -4.36406,7.47305 -4.98955,7.94209c-0.75059,0.95391 -3.075,5.00596 -3.54756,5.27578c-6.48867,3.70518 -12.1626,9.37236 -18.56953,12.96885c-5.9165,3.06211 -11.91855,5.49375 -17.14014,9.77197c-0.91641,0.75088 -3.70078,3.11982 -4.56592,3.5499c-16.33242,8.11963 -32.29629,22.3166 -49.80674,27.22412c-9.79131,3.50771 -15.93311,2.27754 -25.80879,0.47314c-1.39102,-0.254 -3.22002,-0.09082 -4.66875,-0.45c-2.74922,-0.68203 -4.66113,-1.41592 -7.53457,-1.67373c-9.73975,-0.74795 -20.73779,-9.1875 -29.22686,-13.43643c-23.84004,-11.82158 -47.596,-23.82832 -71.46855,-35.58281c-5.08477,-2.50371 -9.72949,-3.85518 -14.9792,-6.78457c-2.58135,-1.13467 -7.56483,-5.88926 -10.67971,-7.66523c-2.11532,-1.51582 -5.42924,-2.33262 -7.38015,-3.99521c-1.97402,-1.68223 -4.86393,-7.02393 -4.13572,-9.67852c0.41496,-1.51289 2.17564,-0.50801 3.53599,-1.18564c-1.3882,-2.02236 -2.24517,-3.20771 -2.8788,-5.56934c-1.56299,-5.86348 -0.90094,-21.80332 -0.90167,-28.49795c-0.00085,-7.90752 -0.71323,-22.51523 0.93867,-29.73018c1.39711,-4.30313 3.00073,-6.05537 6.96038,-8.13457z" fill="#008ffe"/><path d="M21.12003,91.49971c-0.28872,0.90264 -1.17352,2.94229 -1.23044,3.57539c10.68434,4.31367 23.48824,11.13721 33.97242,16.13203l71.3127,34.41182c9.01172,4.34531 17.2834,8.58662 26.47705,12.80771c5.28193,2.47295 13.45576,6.96562 18.40049,8.95254l1.74932,0.38115c0.59238,1.70127 1.00723,2.19404 2.58457,3.06797c1.02598,1.34297 3.35684,6.30879 1.78154,7.63857c-0.09111,1.53369 0.32256,3.31729 0.41953,4.87529c0.56895,9.12422 -0.046,18.33955 -0.36064,27.46699c-0.03164,0.9208 -0.2502,3.39668 0.06064,4.14756c0.30762,-4.09512 0.38525,-10.29902 0.63662,-14.16182c0.18398,-2.82393 -0.26807,-19.41006 0.3542,-20.9792l0.29824,0.02783c1.44492,4.04502 0.51563,24.80713 1.03066,30.43154c0.11104,1.21289 -0.07793,5.42871 0.19688,6.34072c0.18721,-0.81738 0.1916,-1.25859 0.22646,-2.07656c1.07373,1.67256 0.78252,20.74951 -1.13027,22.47246c-0.5165,0.46523 -2.93525,0.76318 -3.52295,2.50928c-1.91748,-1.26768 -7.36582,-2.23389 -9.94863,-3.31846c-7.32012,-3.07383 -14.18203,-6.57129 -21.28916,-10.05938c2.25732,3.27012 5.78379,4.81758 8.65664,7.5375c7.65586,4.68018 13.9667,8.90449 23.19639,9.8792c5.44863,0.5751 7.36816,-0.09521 12.52793,-2.07305l0.1626,0.24521l-0.65391,0.40869l0.57686,0.45059l-0.05244,0.44268l1.79443,0.37676c-9.79131,3.50771 -15.93311,2.27754 -25.80879,0.47314c-1.39102,-0.254 -3.22002,-0.09082 -4.66875,-0.45c-2.74922,-0.68203 -4.66113,-1.41592 -7.53457,-1.67373c-9.73975,-0.74795 -20.73779,-9.1875 -29.22686,-13.43643c-23.84004,-11.82158 -47.596,-23.82832 -71.46855,-35.58281c-5.08477,-2.50371 -9.72949,-3.85518 -14.9792,-6.78457c-2.58135,-1.13467 -7.56483,-5.88926 -10.67971,-7.66523c-2.11532,-1.51582 -5.42924,-2.33262 -7.38015,-3.99521c-1.97402,-1.68223 -4.86393,-7.02393 -4.13572,-9.67852c0.41496,-1.51289 2.17564,-0.50801 3.53599,-1.18564c-1.3882,-2.02236 -2.24517,-3.20771 -2.8788,-5.56934c-1.56299,-5.86348 -0.90094,-21.80332 -0.90167,-28.49795c-0.00085,-7.90752 -0.71323,-22.51523 0.93867,-29.73018c1.39711,-4.30313 3.00073,-6.05537 6.96038,-8.13457z" fill="#004dc9"/><path d="M17.00145,163.43174c7.54781,7.76074 11.97284,8.32324 21.26965,13.35439c15.06152,8.15068 30.39844,15.78428 45.69609,23.52334c13.82842,6.9958 28.39307,13.13643 42.06299,20.66602c7.60254,4.1877 17.5793,10.11855 25.76572,12.70518c7.65586,4.68018 13.9667,8.90449 23.19639,9.8792c5.44863,0.5751 7.36816,-0.09521 12.52793,-2.07305l0.1626,0.24521l-0.65391,0.40869l0.57686,0.45059l-0.05244,0.44268l1.79443,0.37676c-9.79131,3.50771 -15.93311,2.27754 -25.80879,0.47314c-1.39102,-0.254 -3.22002,-0.09082 -4.66875,-0.45c-2.74922,-0.68203 -4.66113,-1.41592 -7.53457,-1.67373c-9.73975,-0.74795 -20.73779,-9.1875 -29.22686,-13.43643c-23.84004,-11.82158 -47.596,-23.82832 -71.46855,-35.58281c-5.08477,-2.50371 -9.72949,-3.85518 -14.9792,-6.78457c-2.58135,-1.13467 -7.56483,-5.88926 -10.67971,-7.66523c-2.11532,-1.51582 -5.42924,-2.33262 -7.38015,-3.99521c-1.97402,-1.68223 -4.86393,-7.02393 -4.13572,-9.67852c0.41496,-1.51289 2.17564,-0.50801 3.53599,-1.18564z" fill="#c8c6c6"/><path d="M19.88959,95.0751c10.68434,4.31367 23.48824,11.13721 33.97242,16.13203l71.3127,34.41182c9.01172,4.34531 17.2834,8.58662 26.47705,12.80771l-0.54229,0.68115c-1.55098,0.04541 -1.38428,-0.73389 -2.90801,-0.496c-2.76182,-1.11006 -6.97383,-3.31055 -9.77197,-4.64795l-19.89521,-9.53555l-62.94785,-30.68525c-6.68086,-3.28975 -13.38838,-6.52471 -20.12197,-9.70459c-3.29795,-1.58408 -9.74095,-4.83135 -13.04212,-5.82861c-1.56401,-0.7752 -2.9632,-0.62285 -3.81513,-1.43262c0.24832,-0.96035 0.44845,-0.89473 1.28238,-1.70215z" fill="#c6fbfe"/><path d="M148.20146,158.61182c1.52373,-0.23789 1.35703,0.54141 2.90801,0.496l0.54229,-0.68115c5.28193,2.47295 13.45576,6.96562 18.40049,8.95254c0.55781,0.73242 2.77617,3.10254 2.83242,3.59561c-1.85186,-0.43535 -2.19551,-1.44785 -3.79277,-1.81553c-0.72656,-0.28887 -4.4707,-2.35869 -5.53799,-2.88926c-5.13047,-2.52627 -10.24805,-5.07891 -15.35244,-7.6582z" fill="#c6fbfe"/><path d="M21.12003,91.49971c-0.28872,0.90264 -1.17352,2.94229 -1.23044,3.57539c-0.83394,0.80742 -1.03406,0.7418 -1.28238,1.70215c0.85192,0.80977 2.25111,0.65742 3.81513,1.43262c-2.37791,0.4916 -4.70514,1.12559 -7.10499,0.62578l-0.27896,-0.26572c-0.03589,0.42422 -0.07711,1.21289 -0.15475,1.59785l-0.72398,-0.5335c1.39711,-4.30313 3.00073,-6.05537 6.96038,-8.13457z" fill="#0076fe"/><path d="M170.05225,167.3792l1.74932,0.38115c0.59238,1.70127 1.00723,2.19404 2.58457,3.06797c1.02598,1.34297 3.35684,6.30879 1.78154,7.63857c-1.27354,-4.33096 -3.66709,-6.66621 -7.07578,-9.30762c1.59727,0.36768 1.94092,1.38018 3.79277,1.81553c-0.05625,-0.49307 -2.27461,-2.86318 -2.83242,-3.59561z" fill="#7ddcfe"/><path d="M123.30615,176.66543c0.31465,-4.3626 -0.26953,-7.90957 3.4749,-11.22217c1.59932,-1.43701 3.71572,-2.15889 5.85967,-1.99863c3.40693,0.24258 6.61553,2.55908 8.77031,5.10967c4.3377,5.13457 4.6793,11.33291 4.10449,17.7334c-0.03721,0.42568 -0.07822,0.85107 -0.12305,1.27617c1.67402,0.55518 2.61416,1.20293 4.04795,2.19199c-0.12012,6.90205 -0.09082,13.78125 -0.16992,20.68037c-0.01787,1.53691 -0.46113,2.77617 -0.52705,3.85107c-0.54727,0.54961 -0.93779,1.06172 -1.65938,1.28906c-0.07471,0.854 -0.27393,1.87031 -1.16689,2.2667c-3.35303,-1.45781 -7.08926,-3.49336 -10.29492,-5.28838c-1.21172,-0.08643 -11.775,-5.98271 -12.91758,-6.96152c-0.31318,-0.96094 -0.16377,-0.83057 0.12656,-1.95996c-1.06377,-0.82324 -2.62969,-1.96172 -3.57041,-2.85937c-0.04277,-4.38838 -0.32461,-19.15547 0.23027,-22.94033c1.37549,-0.36738 2.475,-0.65244 3.81504,-1.16807z" fill="url(#color-1)"/><path d="M122.83125,203.6332c1.62803,0.84814 13.27588,6.57451 13.80439,7.16982l-0.02959,0.44473l0.58916,0.6668l-0.26191,0.67148l-0.36797,0.05742l-0.57979,-0.78281c-0.27803,0.38877 -0.25078,0.25752 -0.36328,0.69404c-1.21172,-0.08643 -11.775,-5.98271 -12.91758,-6.96152c-0.31318,-0.96094 -0.16377,-0.83057 0.12656,-1.95996z" fill="#032186"/><path d="M136.63564,210.80303c3.41895,1.52168 6.95684,3.87275 10.44844,4.77334c-0.07471,0.854 -0.27393,1.87031 -1.16689,2.2667c-3.35303,-1.45781 -7.08926,-3.49336 -10.29492,-5.28838c0.1125,-0.43652 0.08525,-0.30527 0.36328,-0.69404l0.57979,0.78281l0.36797,-0.05742l0.26191,-0.67148l-0.58916,-0.6668z" fill="#000840"/><path d="M131.34316,168.15645c4.77715,-0.29209 8.73164,3.96592 9.59238,8.39883c0.5707,2.93906 0.35889,6.18281 0.2833,9.17607l-2.82334,-1.39658c-3.61992,-1.96201 -6.56982,-3.32139 -10.30488,-4.93828c-0.9082,-4.51758 -1.35293,-8.98828 3.25254,-11.24004z" fill="#004dc9"/><path d="M132.84346,188.02529c2.7832,0.18984 3.87568,3.26865 4.8542,5.43926c-2.48906,6.60469 -1.10566,4.70098 -1.82871,10.3207l-0.02813,0.2083c-1.16514,-0.26689 -2.12607,-0.59355 -3.26074,-0.96973c-0.47695,-1.89639 -0.36357,-4.12295 -0.74502,-6.33193c-0.32432,-1.87764 -1.22197,-4.78154 -1.34736,-6.60029c-0.05566,-0.81006 1.63125,-1.68018 2.35576,-2.06631z" fill="#0740ae"/><path d="M33.60557,122.48525c1.73232,-1.83779 2.91973,-1.24336 5.09473,-0.50508c2.93467,1.02393 6.79365,3.20918 9.69785,4.63389c3.7125,1.82168 10.01514,3.53232 12.99609,6.0375l0.12891,0.54141c-1.13789,1.67725 -0.48193,4.20527 -1.34648,5.28809c-0.46758,0.11338 -1.44258,0.30498 -1.81025,0.53496l-0.20215,0.64307l0.24873,0.2915l0.60293,0.03691l-0.26807,0.85107c1.10977,0.68027 0.79717,0.53789 2.32588,0.33574c0.07412,0.49863 0.06445,1.23955 0.50186,1.35469c3.60908,0.95098 13.87119,6.31436 16.51963,6.8748c2.01914,-0.54756 0.74854,-2.8916 1.20146,-3.91143c2.00215,-4.50703 -1.68633,-4.59844 -2.57285,-6.74326c1.15781,0.72041 3.75762,2.27373 4.51172,3.32871c-0.59385,2.1709 0.11309,4.64561 -0.27627,6.86133c-0.12744,0.7248 -0.2543,1.29141 -0.33604,2.03145c-0.36914,-0.07412 -1.37725,-0.44004 -1.78799,-0.57656c-1.21289,0.92871 -1.0248,1.05908 -2.69121,0.87832c-3.62871,-2.05283 -8.39824,-3.51387 -12.14238,-5.56143c-9.43447,-5.15977 -19.45078,-9.35215 -28.85303,-14.49961c-3.92197,-2.14717 -4.11152,-5.1252 -1.54307,-8.72607z" fill="#0740ae"/><path d="M33.60557,122.48525l0.73154,0.60059c-0.58389,1.57793 -1.1666,3.23994 -0.39873,4.87119c1.49268,3.17051 39.68613,20.64082 44.89688,22.43701c-1.21289,0.92871 -1.0248,1.05908 -2.69121,0.87832c-3.62871,-2.05283 -8.39824,-3.51387 -12.14238,-5.56143c-9.43447,-5.15977 -19.45078,-9.35215 -28.85303,-14.49961c-3.92197,-2.14717 -4.11152,-5.1252 -1.54307,-8.72607z" fill="url(#color-2)"/><path d="M33.60557,122.48525c1.73232,-1.83779 2.91973,-1.24336 5.09473,-0.50508c-1.42002,0.98701 -2.729,0.20215 -4.36318,1.10566z" fill="#063074"/><path d="M39.58418,165.53613c-5.29746,-2.72021 -15.95118,-6.74004 -16.02396,-13.69629c-0.11414,-10.91309 0.08168,-21.84287 0.17763,-32.76973c0.01131,-1.28818 0.79843,-4.92568 2.51112,-5.77559c4.87134,-0.45498 16.09175,6.54814 20.01782,8.38916c8.34346,3.91172 14.39795,6.75322 22.2627,10.76514c5.4082,2.75859 9.4585,5.95225 14.64873,8.9877c1.74229,1.05879 3.48604,2.17793 4.15225,4.21436c0.69873,2.13574 -0.42041,2.84268 -1.20293,4.62422l-0.07471,0.17314l-1.20117,-0.54932c-1.97666,1.63828 -1.83076,1.69102 -4.22842,1.07168c0.08174,-0.74004 0.20859,-1.30664 0.33604,-2.03145c0.38936,-2.21572 -0.31758,-4.69043 0.27627,-6.86133c-0.7541,-1.05498 -3.35391,-2.6083 -4.51172,-3.32871c-2.63438,-1.86533 -5.38945,-3.554 -8.24766,-5.0543c-5.8248,-3.09961 -13.51348,-6.32637 -19.45313,-9.33779c-3.68203,-1.8668 -19.3793,-10.44521 -21.83903,-10.10889c-2.67369,2.7457 -2.33021,14.80342 -2.04932,18.99844c0.29479,4.40215 -1.14407,20.49258 1.80448,23.35313c1.89876,1.84189 11.81707,7.09395 14.66707,8.20107c-0.84932,0.63047 -0.98437,0.64805 -2.02207,0.73535z" fill="#000840"/><path d="M81.23555,142.07783c3.69346,1.88408 7.27646,3.64482 3.61611,7.82109c-1.97666,1.63828 -1.83076,1.69102 -4.22842,1.07168c0.08174,-0.74004 0.20859,-1.30664 0.33604,-2.03145c0.38936,-2.21572 -0.31758,-4.69043 0.27627,-6.86133z" fill="#01a126"/><path d="M33.30059,152.51748c-1.37754,-0.9542 -1.10625,-3.22236 0.196,-3.6208l0.50391,0.47402c1.76689,2.51982 6.74736,4.46982 8.1126,5.8708l0.39873,-0.05186c3.05918,-0.42217 24.97529,16.10918 32.90186,15.82119c-0.23613,-0.15996 -0.31406,-0.34131 -0.4166,-0.60322l0.28799,-0.29912c2.36895,0.99785 3.96826,1.60811 6.5748,1.7291c0.26104,0.01201 1.97227,0.91436 2.65137,1.09189l0.3498,-0.43096c-0.39785,-2.53213 -6.96387,-3.02168 -8.44746,-5.10527c2.41816,0.6958 7.2832,2.35635 8.86377,4.27793c0.2417,0.95801 0.08965,1.29639 -0.65713,2.05254c-1.87295,-0.15732 -1.57969,-0.92461 -3.16992,-0.77549l-0.25635,0.58799c-0.80273,0.34893 -1.51465,0.43828 -1.78623,1.36523c-0.29092,0.88799 -0.41133,1.19238 -0.83877,2.04023c-1.7001,0.4834 -21.68701,-11.13047 -24.96885,-12.72041c-3.50391,-0.65127 -4.0084,-2.29453 -7.18975,-3.38848c-1.27734,-0.43945 -3.74971,0.15908 -4.93506,-0.21006c-2.35371,-0.7333 -2.48027,-4.12207 -3.30234,-4.93506c-0.85928,-0.84932 -4.01104,-1.37256 -4.87236,-3.17021z" fill="#000840"/><path d="M33.30059,152.51748c-1.37754,-0.9542 -1.10625,-3.22236 0.196,-3.6208l0.50391,0.47402c1.76689,2.51982 6.74736,4.46982 8.1126,5.8708c-1.14141,0.33398 -0.75498,0.04717 -1.42031,1.11387c2.53535,1.51172 10.91396,6.29326 12.90732,7.86592c-3.50391,-0.65127 -4.0084,-2.29453 -7.18975,-3.38848c-1.27734,-0.43945 -3.74971,0.15908 -4.93506,-0.21006c-2.35371,-0.7333 -2.48027,-4.12207 -3.30234,-4.93506c-0.85928,-0.84932 -4.01104,-1.37256 -4.87236,-3.17021z" fill="#0740ae"/><path d="M33.30059,152.51748c-1.37754,-0.9542 -1.10625,-3.22236 0.196,-3.6208l0.50391,0.47402c1.76689,2.51982 6.74736,4.46982 8.1126,5.8708c-1.14141,0.33398 -0.75498,0.04717 -1.42031,1.11387c-0.95215,-0.3082 -6.06357,-3.35977 -7.01895,-3.96328z" fill="#032186"/><path d="M42.51182,155.18965c3.05918,-0.42217 24.97529,16.10918 32.90186,15.82119c-0.23613,-0.15996 -0.31406,-0.34131 -0.4166,-0.60322l0.28799,-0.29912c2.36895,0.99785 3.96826,1.60811 6.5748,1.7291c0.26104,0.01201 1.97227,0.91436 2.65137,1.09189l0.3498,-0.43096c-0.39785,-2.53213 -6.96387,-3.02168 -8.44746,-5.10527c2.41816,0.6958 7.2832,2.35635 8.86377,4.27793c0.2417,0.95801 0.08965,1.29639 -0.65713,2.05254c-1.87295,-0.15732 -1.57969,-0.92461 -3.16992,-0.77549l-0.25635,0.58799c-0.80273,0.34893 -1.51465,0.43828 -1.78623,1.36523c-0.63691,-1.44053 -6.14238,-2.86465 -8.0792,-3.68848c-7.21084,-3.06768 -13.58936,-7.5 -20.54883,-11.1126c-1.41152,-0.73242 -7.34297,-3.96035 -8.26787,-4.91074z" fill="#0740ae"/><path d="M41.60625,164.80078c1.94502,0.48135 5.78086,2.91533 7.83164,3.7957c9.30117,3.99287 17.97217,8.67158 26.85791,13.45869c7.88203,4.24629 16.97051,7.19473 23.93203,13.16807c-1.41152,-0.24346 -3.06914,-0.53027 -4.34033,-1.15576c-13.01426,-6.40107 -26.1375,-13.03711 -38.97598,-19.76162c-2.06777,-1.08311 -16.4959,-8.11025 -17.32734,-8.76973c1.0377,-0.0873 1.17275,-0.10488 2.02207,-0.73535z" fill="#032186"/><path d="M26.77468,140.62295c8.17562,2.04287 14.45423,8.18994 21.70931,11.7501c10.40537,5.10586 21.28623,10.38604 32.08066,14.62031c3.825,1.50029 5.30391,1.46924 7.02773,5.31123c-0.48311,1.03682 -0.72539,1.95059 -1.78857,2.35254l-0.37998,-0.72041l-0.80361,-0.21299c0.74678,-0.75615 0.89883,-1.09453 0.65713,-2.05254c-1.58057,-1.92158 -6.44561,-3.58213 -8.86377,-4.27793c-6.43184,-2.47764 -12.12158,-6.02666 -18.59502,-8.21982c-10.696,-3.62344 -18.64102,-11.7252 -28.52443,-16.94004c-0.8006,-0.421 -1.81811,-1.08193 -2.51944,-1.61045z" fill="#032186"/><path d="M91.31045,151.46895c1.82197,-0.09258 3.49131,-0.404 4.94941,0.94863c1.79561,1.66611 0.61787,3.90645 -0.78164,5.40703c-3.72891,0.45967 -7.50439,-3.31787 -4.16777,-6.35566z" fill="#00ec00"/><path d="M148.74346,214.2873c0.77637,0.79688 0.67793,0.4916 0.946,1.49502c-0.32988,1.28291 -0.49775,1.09248 -0.09199,2.11436c4.38926,3.6917 8.83828,4.46426 12.45879,6.88828c0.95596,1.50264 1.34941,1.47393 3.31904,1.91484c0.51855,0.11572 1.03799,0.22705 1.55801,0.33457c-0.33779,0.13037 -0.82793,0.24521 -1.1502,0.27744c-2.63379,0.26396 -18.23848,-8.15596 -19.86592,-9.46875c0.89297,-0.39639 1.09219,-1.4127 1.16689,-2.2667c0.72158,-0.22734 1.11211,-0.73945 1.65938,-1.28906z" fill="#032186"/><path d="M90.00967,180.33516c2.21543,0.19453 4.71621,0.02197 6.18105,1.50762c0.78604,1.67314 0.07705,3.07969 -0.47139,4.85684l-0.67354,0.50771c-1.23867,0.179 -1.25566,-0.05742 -2.59102,-0.55752c-1.95674,-2.2459 -3.18779,-3.18545 -2.44512,-6.31465z" fill="#01a126"/><path d="M165.1793,225.41689c0.89033,-1.0002 2.67598,-2.2998 2.88574,-3.77314c0.29121,-2.04551 1.05029,-5.75391 -1.42002,-6.45996c0.67266,-0.42744 0.41221,-0.30586 1.30752,-0.30381c1.13408,0.66533 0.92314,1.73408 1.65703,2.12139l0.3334,-1.5498l0.16143,0.14238c0.27773,2.16123 0.38965,5.18584 0.02109,7.32861c-0.95127,2.08242 -1.34795,2.76797 -3.19219,4.11182c-0.52002,-0.10752 -1.03945,-0.21885 -1.55801,-0.33457c-1.96963,-0.44092 -2.36309,-0.41221 -3.31904,-1.91484z" fill="#0740ae"/><path d="M165.1793,225.41689c2.96045,-0.05918 2.58457,-3.28242 4.94619,-2.49434c-0.95127,2.08242 -1.34795,2.76797 -3.19219,4.11182c-0.52002,-0.10752 -1.03945,-0.21885 -1.55801,-0.33457c-1.96963,-0.44092 -2.36309,-0.41221 -3.31904,-1.91484z" fill="#063074"/><path d="M84.85166,149.89893l1.20117,0.54932c-0.45146,1.13232 -0.975,1.50586 -1.87734,2.34287c2.53682,1.33359 2.95371,1.70654 4.77539,4.0752c-3.3917,-0.95449 -9.55693,-3.90557 -12.80684,-5.59395c1.66641,0.18076 1.47832,0.05039 2.69121,-0.87832c0.41074,0.13652 1.41885,0.50244 1.78799,0.57656c2.39766,0.61934 2.25176,0.5666 4.22842,-1.07168z" fill="#032186"/><path d="M87.59238,172.30459c0.33633,2.17881 0.35801,5.17471 -0.71484,7.16309c-2.21836,0.08994 -4.58291,-4.18447 -5.68359,-5.93145l0.25635,-0.58799c1.59023,-0.14912 1.29697,0.61816 3.16992,0.77549l0.80361,0.21299l0.37998,0.72041c1.06318,-0.40195 1.30547,-1.31572 1.78857,-2.35254z" fill="#000840"/><path d="M87.59238,172.30459c0.33633,2.17881 0.35801,5.17471 -0.71484,7.16309c0.00615,-1.84512 -1.61982,-2.49023 -1.07373,-4.81055c1.06318,-0.40195 1.30547,-1.31572 1.78857,-2.35254z" fill="#063074"/><path d="M164.13691,215.81133c1.98223,0.30791 4.66699,5.83359 0.39932,6.47988c-0.96475,-0.32988 -1.12266,-0.6457 -1.7209,-1.43613c1.42383,0.06064 1.7335,-0.19658 2.55762,-1.2542c-0.09141,-2.25469 -2.34023,-0.39785 -3.59824,-0.37295c0.03662,-1.18652 1.51465,-2.67158 2.36221,-3.4166z" fill="#063074"/><path d="M283.88115,113.33145c0.77783,4.49854 0.5083,20.1709 0.51211,25.4332c0.01875,7.09277 -0.0123,14.18584 -0.09316,21.27832c-0.05332,4.53984 0.44385,11.40703 -1.55684,15.38584c1.85156,0.64629 4.04824,-0.09785 5.22393,1.24922c-0.39521,1.21523 -4.36406,7.47305 -4.98955,7.94209c-0.75059,0.95391 -3.075,5.00596 -3.54756,5.27578c-6.48867,3.70518 -12.1626,9.37236 -18.56953,12.96885c-5.9165,3.06211 -11.91855,5.49375 -17.14014,9.77197c-0.91641,0.75088 -3.70078,3.11982 -4.56592,3.5499c-16.33242,8.11963 -32.29629,22.3166 -49.80674,27.22412l-1.79443,-0.37676l0.05244,-0.44268l-0.57686,-0.45059l0.65391,-0.40869l-0.1626,-0.24521c-5.15977,1.97783 -7.0793,2.64814 -12.52793,2.07305c-9.22969,-0.97471 -15.54053,-5.19902 -23.19639,-9.8792c-2.87285,-2.71992 -6.39932,-4.26738 -8.65664,-7.5375c7.10713,3.48809 13.96904,6.98555 21.28916,10.05938c2.58281,1.08457 8.03115,2.05078 9.94863,3.31846c0.5877,-1.74609 3.00645,-2.04404 3.52295,-2.50928c1.91279,-1.72295 2.204,-20.7999 1.13027,-22.47246c-0.59883,-11.37715 0.18779,-23.59336 -0.69844,-35.02266c1.8167,-3.03984 6.76494,-5.41025 9.88564,-7.46367c-0.41104,-0.85781 -0.81826,-2.56523 -1.04355,-3.496c0.28037,-0.30381 0.83232,-0.70576 1.17305,-0.97471l0.65156,0.21035c1.55127,-0.28066 6.13271,-3.12773 7.73379,-4.07812c20.92148,-12.41865 42.44561,-24.03721 63.14883,-36.80771c1.56475,-0.27422 19.78096,-11.3335 21.64482,-12.77461c0.70459,-0.70049 1.35938,-0.67617 2.35518,-0.80068z" fill="#004dc9"/><path d="M282.74326,175.42881c1.85156,0.64629 4.04824,-0.09785 5.22393,1.24922c-0.39521,1.21523 -4.36406,7.47305 -4.98955,7.94209c-0.75059,0.95391 -3.075,5.00596 -3.54756,5.27578c-6.48867,3.70518 -12.1626,9.37236 -18.56953,12.96885c-5.9165,3.06211 -11.91855,5.49375 -17.14014,9.77197c-0.91641,0.75088 -3.70078,3.11982 -4.56592,3.5499c-16.33242,8.11963 -32.29629,22.3166 -49.80674,27.22412l-1.79443,-0.37676l0.05244,-0.44268l-0.57686,-0.45059l0.65391,-0.40869l-0.1626,-0.24521c-5.15977,1.97783 -7.0793,2.64814 -12.52793,2.07305c-9.22969,-0.97471 -15.54053,-5.19902 -23.19639,-9.8792c-2.87285,-2.71992 -6.39932,-4.26738 -8.65664,-7.5375c7.10713,3.48809 13.96904,6.98555 21.28916,10.05938c2.58281,1.08457 8.03115,2.05078 9.94863,3.31846c3.05537,1.09658 9.66885,-2.91563 12.28271,-4.45283c3.67676,-1.33418 8.00039,-3.62549 10.80557,-6.36533c5.09912,-1.60693 9.74648,-5.75596 14.45186,-8.03877c13.95176,-6.76934 26.9584,-16.13232 40.65703,-23.12695c1.65527,-0.43564 23.96074,-14.11172 27.12715,-16.1918c0.44385,-0.2915 1.00898,-3.57246 2.88164,-5.7334z" fill="url(#color-3)"/><path d="M282.74326,175.42881c1.85156,0.64629 4.04824,-0.09785 5.22393,1.24922c-0.39521,1.21523 -4.36406,7.47305 -4.98955,7.94209c-4.10713,-0.35918 -25.97402,15.98379 -31.59082,18.19043c-5.73984,2.25498 -14.38037,9.31318 -20.01035,12.52676c-6.65332,3.9999 -13.87822,5.9584 -19.76953,11.39766c-2.45859,2.26992 -14.38389,9.76172 -17.19961,9.48574l-0.04805,-0.49717c1.05234,-1.16514 2.78262,-1.65469 4.13701,-2.65986c4.88115,-3.57393 9.86982,-6.99785 14.95957,-10.26768c1.56738,-1.01074 3.17988,-1.89404 4.80322,-2.82979c11.45273,-6.60176 21.94746,-14.69648 33.3627,-21.39521c0.29473,-0.17314 0.76318,-0.73828 0.95244,-1.03389c1.65527,-0.43564 23.96074,-14.11172 27.12715,-16.1918c0.44385,-0.2915 1.00898,-3.57246 2.88164,-5.7334z" fill="#c8c6c6"/><path d="M188.21748,172.05293c2.10264,7.35791 0.77549,44.35781 0.59766,53.87432c-0.029,1.5668 -1.28584,5.54648 -1.846,7.1584c-0.20479,0.58916 -0.1084,1.43291 -0.30938,1.98252c-2.61387,1.53721 -9.22734,5.54941 -12.28271,4.45283c0.5877,-1.74609 3.00645,-2.04404 3.52295,-2.50928c1.91279,-1.72295 2.204,-20.7999 1.13027,-22.47246c-0.59883,-11.37715 0.18779,-23.59336 -0.69844,-35.02266c1.8167,-3.03984 6.76494,-5.41025 9.88564,-7.46367z" fill="#004dc9"/><path d="M187.17393,168.55693c2.82363,0.82705 3.22119,2.94639 3.42539,5.70996c0.6791,9.18545 0.31523,18.4626 0.39082,27.66797c-0.10635,9.29648 0.31172,19.679 -0.50127,28.8c2.11729,-0.9416 6.78896,-4.33096 8.10732,-4.08252c-0.02373,0.95303 -0.43828,1.14756 -1.13086,2.05049c-2.80518,2.73984 -7.12881,5.03115 -10.80557,6.36533c0.20098,-0.54961 0.10459,-1.39336 0.30938,-1.98252c0.56016,-1.61191 1.81699,-5.5916 1.846,-7.1584c0.17783,-9.5165 1.50498,-46.51641 -0.59766,-53.87432c-0.41104,-0.85781 -0.81826,-2.56523 -1.04355,-3.496z" fill="url(#color-4)"/><path d="M264.19688,168.63252c0.93516,0.17812 0.64395,0.0041 1.25508,0.57334l0.01992,0.69023c-0.53408,1.19121 -1.72119,2.15361 -2.68857,3.06914l-0.59004,-0.03486c-0.8335,-1.48447 0.8959,-3.39814 2.00361,-4.29785z" fill="#010126"/><path d="M264.44473,146.58867c0.78867,0.38145 0.5502,0.13594 0.90879,0.91172c-0.26602,1.57998 -1.57441,3.01875 -2.57754,4.28203l-0.53467,-0.20479l-0.22324,-0.66855c0.23555,-1.82666 1.13262,-3.07324 2.42666,-4.32041z" fill="#010126"/><path d="M206.10674,203.75654l0.63281,0.08818c1.24951,1.30811 -0.46904,2.70967 -1.44053,3.73535l-0.52969,0.00205c-1.13877,-1.19883 0.38613,-2.96748 1.3374,-3.82559z" fill="#010126"/><path d="M244.58408,180.64805c1.2457,0.19248 1.16748,-0.03281 1.81758,0.71953c-0.20947,0.91816 -1.1499,1.5457 -1.89229,2.18115l-0.6665,0.52324l-0.32432,-0.1749c-0.23994,-1.2958 0.31377,-2.24854 1.06553,-3.24902z" fill="#000840"/><path d="M253.25742,152.16006l1.03623,0.28828l0.31758,0.60908c-0.26133,0.9958 -1.11387,1.5835 -1.90195,2.28984c-0.34805,0.05361 -0.51621,-0.02607 -0.87334,-0.10283l-0.12275,-0.54785c0.36855,-1.16279 0.77871,-1.57559 1.54424,-2.53652z" fill="#010126"/><path d="M216.8959,197.37979c0.51768,0.10547 0.28711,-0.01729 0.65361,0.47168c-0.3082,0.94014 -1.29639,1.65381 -2.06602,2.33057c-0.22734,0.05361 -0.51211,-0.01025 -0.76055,-0.03984l0.00879,-0.63428c0.62725,-1.10303 1.12646,-1.37549 2.16416,-2.12812z" fill="#000840"/><path d="M258.07061,126.43184c0.71016,-0.19863 1.25654,-0.37822 1.99629,-0.45586c-0.01377,0.4875 -0.01904,0.46963 -0.18574,0.93076c-20.70322,12.77051 -42.22734,24.38906 -63.14883,36.80771c-1.60107,0.95039 -6.18252,3.79746 -7.73379,4.07812l-0.65156,-0.21035l-0.62666,-1.02803l0.24404,-0.47285c3.6627,-1.10391 12.43594,-6.65859 16.11182,-8.64785c14.08301,-7.62158 27.67207,-16.25742 41.7457,-23.90039c4.09512,-2.22422 7.92891,-4.97988 12.24873,-7.10127z" fill="#7ddcfe"/><path d="M258.07061,126.43184c1.0582,-0.94336 3.34014,-2.09619 4.65996,-2.91035c5.79229,-3.57334 11.88691,-6.64307 17.5623,-10.40332c0.44004,-0.2915 0.53584,-0.1998 0.98262,-0.04365l0.25049,1.05762c-1.86387,1.44111 -20.08008,12.50039 -21.64482,12.77461c0.1667,-0.46113 0.17197,-0.44326 0.18574,-0.93076c-0.73975,0.07764 -1.28613,0.25723 -1.99629,0.45586z" fill="#64d0ff"/><path d="M171.80156,167.76035c2.39004,0.00615 12.57246,-0.8751 13.87852,0.421c0.0917,0.09082 0.17637,0.18838 0.26133,0.28506l0.13887,0.54961c-1.36875,1.24746 -9.55225,1.76484 -11.69414,1.8123c-1.57734,-0.87393 -1.99219,-1.3667 -2.58457,-3.06797z" fill="#64d0ff"/></g></svg></svg>