<svg id="svg" version="1.1" viewBox="0 0 300 300" width="300" height="300" xmlns="http://www.w3.org/2000/svg"><svg xmlns="http://www.w3.org/2000/svg"><defs><clipPath id="clip-1"><rect x="0" y="0" transform="scale(0.29297,0.29297)" width="1024" height="1024" fill="none"/></clipPath><linearGradient x1="201.59473" y1="235.56094" x2="99.50361" y2="67.23135" gradientUnits="userSpaceOnUse" id="color-1"><stop offset="0" stop-color="#db6c00"/><stop offset="1" stop-color="#fd8800"/></linearGradient><linearGradient x1="112.25859" y1="218.69824" x2="108.37793" y2="215.50693" gradientUnits="userSpaceOnUse" id="color-2"><stop offset="0" stop-color="#000000"/><stop offset="1" stop-color="#253028"/></linearGradient><linearGradient x1="92.17676" y1="153.04512" x2="83.86465" y2="166.04941" gradientUnits="userSpaceOnUse" id="color-3"><stop offset="0" stop-color="#ffdf68"/><stop offset="1" stop-color="#ffffbd"/></linearGradient><linearGradient x1="149.94023" y1="125.75684" x2="151.69805" y2="112.91719" gradientUnits="userSpaceOnUse" id="color-4"><stop offset="0" stop-color="#b55100"/><stop offset="1" stop-color="#df7900"/></linearGradient><linearGradient x1="275.36221" y1="191.73135" x2="277.83428" y2="198.704" gradientUnits="userSpaceOnUse" id="color-5"><stop offset="0" stop-color="#999695"/><stop offset="1" stop-color="#b5b8b9"/></linearGradient></defs><g clip-path="url(#clip-1)" fill="none" fill-rule="nonzero" stroke="none" stroke-width="1" stroke-linecap="butt" stroke-linejoin="miter" stroke-miterlimit="10" stroke-dasharray="" stroke-dashoffset="0" font-family="none" font-weight="none" font-size="none" text-anchor="none" style="mix-blend-mode: normal"><path d="M11.93619,118.27676c0.63677,-3.86982 1.73312,-5.08975 4.65656,-7.25332c7.73687,-5.72549 16.27336,-9.69609 24.55178,-14.54297l51.53145,-29.82451c8.47471,-4.82402 16.34824,-9.90264 25.17129,-14.38682c9.90732,-5.03555 19.38223,-14.67041 31.72617,-12.43535c8.20518,1.5375 17.35107,8.21543 24.76465,12.37881l48.69668,27.6917c1.96406,1.12939 4.00488,2.34023 6.01904,3.36592c7.04355,3.58564 13.62686,8.03145 20.55234,11.83477c6.83701,3.70928 13.62861,7.50234 20.37275,11.37744c4.45723,2.5084 13.16689,6.68408 16.03154,10.66963c1.0084,1.40596 1.64912,3.04189 1.86387,4.75869c0.42891,8.28164 0.05977,19.25537 0.03896,27.7626l-0.01758,14.11201c0.0416,6.51035 0.54199,12.58096 -1.14727,18.89209l-0.1333,-0.22822l-0.58564,1.1373l-1.246,1.7584c0.00674,2.16035 0.04834,2.03701 -1.27588,3.57656c-1.92891,2.24238 -11.24883,6.07529 -12.84844,7.7502c-0.19248,3.19863 -9.87891,7.44551 -12.57363,9.25166c2.37393,-0.42949 2.78115,-1.6415 5.86318,-1.30166c-1.76396,1.40596 -3.31318,2.14131 -5.09004,3.37881c-12.07852,8.41113 -25.86416,13.78506 -38.13428,22.06934c-3.10078,2.09355 -7.84336,3.52471 -11.08945,5.57842c-4.90166,3.08408 -9.68086,5.7873 -14.8418,8.43516c-1.84395,0.94629 -3.99287,3.5751 -5.99766,4.44639c-3.84141,1.78652 -8.03643,2.77617 -12.02988,4.44111c-1.87061,1.10303 -13.66875,5.36279 -16.1083,6.05742c-7.81406,2.13398 -19.125,0.46934 -25.94443,-3.93633c-6.23057,-4.02539 -9.55928,-6.50537 -16.82988,-8.88223c-2.97773,-0.97354 -7.89609,-3.79951 -10.88965,-5.19814c-3.59678,-1.68018 -7.56299,-5.1665 -11.14541,-7.17715l-0.24902,-0.13828l-4.81055,-2.14687c-1.04736,-0.37119 -2.36865,-1.39893 -3.37822,-1.95791c-7.95732,-4.40742 -16.19473,-9.00176 -24.19834,-13.26973c-1.37666,-0.56104 -6.47461,-4.22139 -7.94971,-5.17734c-1.12002,-0.38145 -2.86348,-1.6415 -4.13525,-2.10732c-6.03076,-2.20869 -11.56465,-7.31104 -17.27402,-9.5332c-5.9405,-2.43574 -9.34216,-4.03242 -14.01387,-8.40059c-3.24126,-3.13271 -4.78726,-3.90381 -7.64039,-7.58437c0.48539,-1.54395 0.60299,-2.48262 0.83118,-4.05996c-1.60705,-5.91943 -1.06189,-19.07666 -1.05501,-25.64766zM12.19857,183.51885c2.85313,3.68057 4.39913,4.45166 7.64039,7.58437c4.67171,4.36816 8.07337,5.96484 14.01387,8.40059c5.70937,2.22217 11.24326,7.32451 17.27402,9.5332c1.27178,0.46582 3.01523,1.72588 4.13525,2.10732c1.4751,0.95596 6.57305,4.61631 7.94971,5.17734c8.00361,4.26797 16.24102,8.8623 24.19834,13.26973c1.00957,0.55898 2.33086,1.58672 3.37822,1.95791l4.81055,2.14687l0.24902,0.13828c3.58242,2.01064 7.54863,5.49697 11.14541,7.17715c2.99355,1.39863 7.91191,4.22461 10.88965,5.19814c7.27061,2.37686 10.59932,4.85684 16.82988,8.88223c6.81943,4.40566 18.13037,6.07031 25.94443,3.93633c2.43955,-0.69463 14.2377,-4.95439 16.1083,-6.05742c3.99346,-1.66494 8.18848,-2.65459 12.02988,-4.44111c2.00479,-0.87129 4.15371,-3.5001 5.99766,-4.44639c5.16094,-2.64785 9.94014,-5.35107 14.8418,-8.43516c3.24609,-2.05371 7.98867,-3.48486 11.08945,-5.57842c12.27012,-8.28428 26.05576,-13.6582 38.13428,-22.06934c1.77686,-1.2375 3.32607,-1.97285 5.09004,-3.37881c-3.08203,-0.33984 -3.48926,0.87217 -5.86318,1.30166c2.69473,-1.80615 12.38115,-6.05303 12.57363,-9.25166c1.59961,-1.6749 10.91953,-5.50781 12.84844,-7.7502c1.32422,-1.53955 1.28262,-1.41621 1.27588,-3.57656l1.246,-1.7584l0.58564,-1.1373l0.1333,0.22822c1.68926,-6.31113 1.18887,-12.38174 1.14727,-18.89209l0.01758,-14.11201c0.0208,-8.50723 0.38994,-19.48096 -0.03896,-27.7626c-1.64033,2.02969 -3.65947,5.3666 -6.60264,5.96162l-79.35176,45.52676l-27.31816,15.74736c-3.68818,2.09561 -10.68662,6.34453 -14.42695,7.6749c-4.0582,1.1915 -10.1915,1.74873 -14.06514,-0.35391c-23.87959,-12.99287 -47.4375,-26.58867 -71.16914,-39.88154c-14.22275,-7.96699 -28.5249,-15.95449 -42.69053,-24.03252c-5.15443,-2.93936 -10.96869,-5.73604 -15.81407,-9.07236c-1.70637,-1.06377 -2.07583,-1.50938 -2.86166,-3.35947c-0.21674,-0.1875 -1.37558,-1.54746 -1.63808,-1.84482l0.03855,35.53447c-0.00688,6.571 -0.55204,19.72822 1.05501,25.64766c-0.22819,1.57734 -0.34579,2.51602 -0.83118,4.05996z" fill="#fec100"/><path d="M11.93619,118.27676c0.2625,0.29736 1.42134,1.65732 1.63808,1.84482c0.78583,1.8501 1.15529,2.2957 2.86166,3.35947c4.84538,3.33633 10.65964,6.13301 15.81407,9.07236c14.16562,8.07803 28.46777,16.06553 42.69053,24.03252c23.73164,13.29287 47.28955,26.88867 71.16914,39.88154c3.87363,2.10264 10.00693,1.54541 14.06514,0.35391c3.74033,-1.33037 10.73877,-5.5793 14.42695,-7.6749l27.31816,-15.74736l79.35176,-45.52676c2.94316,-0.59502 4.9623,-3.93193 6.60264,-5.96162c0.42891,8.28164 0.05977,19.25537 0.03896,27.7626l-0.01758,14.11201c0.0416,6.51035 0.54199,12.58096 -1.14727,18.89209l-0.1333,-0.22822l-0.58564,1.1373l-1.246,1.7584c0.00674,2.16035 0.04834,2.03701 -1.27588,3.57656c-1.92891,2.24238 -11.24883,6.07529 -12.84844,7.7502c-0.19248,3.19863 -9.87891,7.44551 -12.57363,9.25166c2.37393,-0.42949 2.78115,-1.6415 5.86318,-1.30166c-1.76396,1.40596 -3.31318,2.14131 -5.09004,3.37881c-12.07852,8.41113 -25.86416,13.78506 -38.13428,22.06934c-3.10078,2.09355 -7.84336,3.52471 -11.08945,5.57842c-4.90166,3.08408 -9.68086,5.7873 -14.8418,8.43516c-1.84395,0.94629 -3.99287,3.5751 -5.99766,4.44639c-3.84141,1.78652 -8.03643,2.77617 -12.02988,4.44111c-1.87061,1.10303 -13.66875,5.36279 -16.1083,6.05742c-7.81406,2.13398 -19.125,0.46934 -25.94443,-3.93633c-6.23057,-4.02539 -9.55928,-6.50537 -16.82988,-8.88223c-2.97773,-0.97354 -7.89609,-3.79951 -10.88965,-5.19814c-3.59678,-1.68018 -7.56299,-5.1665 -11.14541,-7.17715l-0.24902,-0.13828l-4.81055,-2.14687c-1.04736,-0.37119 -2.36865,-1.39893 -3.37822,-1.95791c-7.95732,-4.40742 -16.19473,-9.00176 -24.19834,-13.26973c-1.37666,-0.56104 -6.47461,-4.22139 -7.94971,-5.17734c-1.12002,-0.38145 -2.86348,-1.6415 -4.13525,-2.10732c-6.03076,-2.20869 -11.56465,-7.31104 -17.27402,-9.5332c-5.9405,-2.43574 -9.34216,-4.03242 -14.01387,-8.40059c-3.24126,-3.13271 -4.78726,-3.90381 -7.64039,-7.58437c0.48539,-1.54395 0.60299,-2.48262 0.83118,-4.05996c-1.60705,-5.91943 -1.06189,-19.07666 -1.05501,-25.64766zM47.77324,163.87998c-0.08906,1.31543 -0.44971,3.23174 -0.05771,4.34561l0.62168,0.58975c0.64395,-1.86504 -0.0542,-6.20186 1.13906,-7.91543c-0.63662,0.13096 -0.65742,0.13682 -1.25391,-0.08291c-0.18164,-0.73506 -0.2959,-1.41738 -0.42451,-2.15977zM171.104,233.42256c1.09307,-0.47109 2.0376,-0.81504 2.82832,-1.73379c1.96406,-2.28281 2.78496,-6.49893 -1.29434,-6.99229c-5.02646,1.55215 -6.72861,7.55977 -1.53398,8.72607zM183.13945,210.17754c4.08311,-2.97422 2.54326,-8.3584 -2.82832,-8.15479c-1.96406,2.66602 -3.62344,9.73535 2.36133,8.27607c0.15615,-0.03809 0.31172,-0.07852 0.46699,-0.12129z" fill="url(#color-1)"/><path d="M13.02976,179.45889c0.56212,0.68262 1.10534,1.33418 1.62888,2.04814c10.35794,5.47559 19.74059,11.00391 29.87203,16.60049l68.68271,37.71914l19.725,10.76982c4.43877,2.41758 11.41172,6.36885 16.09717,7.81318l-0.27598,0.69053c0.59531,0.94043 1.91396,1.37637 3.09932,2.0915c10.93184,0.70811 16.6749,-3.98936 25.88467,-8.96953c22.61572,-12.22998 44.91064,-25.01602 67.49531,-37.30752c8.55908,-4.65791 16.73027,-9.66445 25.42031,-14.24297c-0.19248,3.19863 -9.87891,7.44551 -12.57363,9.25166c2.37393,-0.42949 2.78115,-1.6415 5.86318,-1.30166c-1.76396,1.40596 -3.31318,2.14131 -5.09004,3.37881c-12.07852,8.41113 -25.86416,13.78506 -38.13428,22.06934c-3.10078,2.09355 -7.84336,3.52471 -11.08945,5.57842c-4.90166,3.08408 -9.68086,5.7873 -14.8418,8.43516c-1.84395,0.94629 -3.99287,3.5751 -5.99766,4.44639c-3.84141,1.78652 -8.03643,2.77617 -12.02988,4.44111c-1.87061,1.10303 -13.66875,5.36279 -16.1083,6.05742c-7.81406,2.13398 -19.125,0.46934 -25.94443,-3.93633c-6.23057,-4.02539 -9.55928,-6.50537 -16.82988,-8.88223c-2.97773,-0.97354 -7.89609,-3.79951 -10.88965,-5.19814c-3.59678,-1.68018 -7.56299,-5.1665 -11.14541,-7.17715l-0.24902,-0.13828l-4.81055,-2.14687c-1.04736,-0.37119 -2.36865,-1.39893 -3.37822,-1.95791c-7.95732,-4.40742 -16.19473,-9.00176 -24.19834,-13.26973c-1.37666,-0.56104 -6.47461,-4.22139 -7.94971,-5.17734c-1.12002,-0.38145 -2.86348,-1.6415 -4.13525,-2.10732c-6.03076,-2.20869 -11.56465,-7.31104 -17.27402,-9.5332c-5.9405,-2.43574 -9.34216,-4.03242 -14.01387,-8.40059c-3.24126,-3.13271 -4.78726,-3.90381 -7.64039,-7.58437c0.48539,-1.54395 0.60299,-2.48262 0.83118,-4.05996z" fill="#afadae"/><path d="M14.65863,181.50703c10.35794,5.47559 19.74059,11.00391 29.87203,16.60049l68.68271,37.71914l19.725,10.76982c4.43877,2.41758 11.41172,6.36885 16.09717,7.81318l-0.27598,0.69053c0.59531,0.94043 1.91396,1.37637 3.09932,2.0915c-2.01182,-0.16816 -5.60244,-1.0749 -7.37432,-2.07422c-11.0042,-6.20537 -22.13643,-12.09873 -33.34189,-17.93262c-3.53584,-1.84072 -6.94307,-4.0749 -10.42852,-6.02168l-58.17158,-32.03555c-8.92852,-4.979 -18.26045,-9.52207 -26.88226,-15.03105c-0.82175,-0.525 -0.97638,-1.72354 -1.00169,-2.58955z" fill="#171007"/><path d="M258.08555,205.92334c2.37393,-0.42949 2.78115,-1.6415 5.86318,-1.30166c-1.76396,1.40596 -3.31318,2.14131 -5.09004,3.37881c-12.07852,8.41113 -25.86416,13.78506 -38.13428,22.06934c-3.10078,2.09355 -7.84336,3.52471 -11.08945,5.57842c-4.90166,3.08408 -9.68086,5.7873 -14.8418,8.43516c-1.84395,0.94629 -3.99287,3.5751 -5.99766,4.44639c-3.84141,1.78652 -8.03643,2.77617 -12.02988,4.44111c1.10039,-2.48555 11.27168,-7.21523 14.21602,-8.98037c13.71943,-8.28193 27.65303,-16.20293 41.78701,-23.75508c6.37031,-3.46172 13.07783,-6.56543 19.17861,-10.45518c2.02266,-1.28965 4.06816,-2.6543 6.13828,-3.85693z" fill="#c8c8ca"/><path d="M19.83896,191.10322c1.90758,-0.11953 11.38242,5.76006 13.34648,7.09277l0.66738,1.30781c-5.9405,-2.43574 -9.34216,-4.03242 -14.01387,-8.40059z" fill="#c8c8ca"/><path d="M55.26211,211.14434c2.31533,-2.20107 9.25986,3.61436 11.61826,4.74727c-1.11328,0.52793 -2.56172,-0.57656 -3.61523,0.03164l-0.05332,0.39844c-1.37666,-0.56104 -6.47461,-4.22139 -7.94971,-5.17734z" fill="#c8c8ca"/><path d="M90.78838,231.54932l0.56338,-0.83174c1.40625,-0.24756 3.88037,1.18506 4.28262,2.44014l-0.03545,0.53848z" fill="#c8c8ca"/><path d="M284.7835,185.34492c0.00674,2.16035 0.04834,2.03701 -1.27588,3.57656c-1.92891,2.24238 -11.24883,6.07529 -12.84844,7.7502c-8.69004,4.57852 -16.86123,9.58506 -25.42031,14.24297c-22.58467,12.2915 -44.87959,25.07754 -67.49531,37.30752c-9.20977,4.98018 -14.95283,9.67764 -25.88467,8.96953c-1.18535,-0.71514 -2.504,-1.15107 -3.09932,-2.0915l0.27598,-0.69053c12.30176,2.7876 22.49678,-5.21953 32.77266,-10.92627l28.17275,-15.59795c18.12305,-9.7957 36.13154,-19.80176 54.02139,-30.0167c5.41348,-3.07588 16.89053,-8.87578 20.78115,-12.52383z" fill="#000000"/><path d="M22.75066,140.52129c2.01814,0.32285 59.00314,33.19746 64.98967,36.48398l32.98945,18.50771c4.60518,2.62002 9.48428,5.03818 13.96465,7.85918c0.84639,0.53291 1.10713,1.81758 1.13613,2.62354c0.12568,3.51123 0.73799,29.95957 -0.29033,31.34854c-2.24063,-0.77109 -14.06748,-7.34033 -16.52109,-8.68477l-38.77383,-21.65098l-35.21455,-19.52578c-5.78262,-3.15205 -17.4692,-9.05273 -22.71076,-12.99727c-1.16229,-10.21875 0.49397,-21.97002 -0.1691,-32.34961c-0.02763,-0.43271 0.38083,-1.22813 0.59977,-1.61455zM47.77324,163.87998c-0.08906,1.31543 -0.44971,3.23174 -0.05771,4.34561l0.62168,0.58975c0.64395,-1.86504 -0.0542,-6.20186 1.13906,-7.91543c-0.63662,0.13096 -0.65742,0.13682 -1.25391,-0.08291c-0.18164,-0.73506 -0.2959,-1.41738 -0.42451,-2.15977z" fill="#000000"/><path d="M89.3165,182.60391l0.62695,-0.76875c1.93652,0.19775 15.72949,9.00205 18.68613,10.11035c1.22168,0.45791 1.3248,1.1959 1.45605,2.40527c-0.06621,2.51924 -0.47959,9.36738 0.29355,11.47441l0.38965,0.17344c1.48096,-1.69102 0.12422,-7.39365 0.83262,-10.59902c-0.00879,-0.88945 -0.13125,-0.68672 0.26191,-1.35791c1.15371,0.01934 1.58818,0.50332 2.67773,1.13965l3.73564,2.41113c3.53555,0.59561 8.42666,4.63154 11.84707,6.34189c1.11855,0.55342 2.65518,1.25244 3.64717,1.94854c0.67412,7.81553 0.38584,20.74102 0.17783,28.83691c-0.88594,-0.46523 -2.41318,-1.20469 -3.21299,-1.70625c-3.26865,-1.59873 -18.90996,-9.10166 -20.146,-11.56172l-0.70664,-0.18926l-0.39316,0.00879c-1.34648,-0.13389 -4.97695,-2.55879 -6.34043,-3.3917c-5.05342,-2.39414 -9.96973,-5.77793 -15.00791,-8.20254c0.26484,-1.12236 0.20156,-0.76963 -0.1459,-1.9585c0.24346,-1.0459 0.01172,-2.03936 0.06475,-3.12744c0.34102,-6.9958 -0.38291,-14.1498 0.36885,-21.09053c0,-0.00029 0.81826,-0.82734 0.88711,-0.89678z" fill="#000000"/><path d="M111.60146,195.39961c-0.00879,-0.88945 -0.13125,-0.68672 0.26191,-1.35791c1.15371,0.01934 1.58818,0.50332 2.67773,1.13965l3.73564,2.41113c3.53555,0.59561 8.42666,4.63154 11.84707,6.34189c1.11855,0.55342 2.65518,1.25244 3.64717,1.94854c0.67412,7.81553 0.38584,20.74102 0.17783,28.83691c-0.88594,-0.46523 -2.41318,-1.20469 -3.21299,-1.70625c-3.26865,-1.59873 -18.90996,-9.10166 -20.146,-11.56172c0.72422,-1.14932 0.81094,-1.3084 1.01514,-2.6458l1.11064,-0.41367c0.50215,-2.51748 -0.5792,-6.63604 0.60381,-9.99434l-1.02773,-0.26748c-0.4834,-2.04023 -0.59678,-2.56729 -0.56104,-4.68252c0.0167,-2.68359 -0.02637,-5.36689 -0.1292,-8.04844z" fill="#000000"/><path d="M111.60146,195.39961c-0.00879,-0.88945 -0.13125,-0.68672 0.26191,-1.35791c1.15371,0.01934 1.58818,0.50332 2.67773,1.13965l3.73564,2.41113c3.53555,0.59561 8.42666,4.63154 11.84707,6.34189c-0.8543,0.36797 -1.21553,0.48926 -1.95967,1.09336c1.33037,2.92998 3.59004,2.65518 3.80625,4.17012c0.24346,1.70654 -0.03779,5.22158 -0.23232,7.03799c-0.03105,0.66182 -0.05654,0.73564 0.1377,1.35703c-2.68564,-0.51973 -14.49727,-7.47217 -18.55635,-9.19482l-1.02773,-0.26748c-0.4834,-2.04023 -0.59678,-2.56729 -0.56104,-4.68252c0.0167,-2.68359 -0.02637,-5.36689 -0.1292,-8.04844z" fill="#000000"/><path d="M111.73066,203.44805c0.56309,0.24082 0.84404,0.50947 1.32891,0.89033c-0.04102,1.19619 -0.23408,1.18623 0.29355,2.04111c1.21348,0.45791 4.45342,1.62832 5.47646,2.18789c4.31074,2.35693 8.53711,5.43984 12.9085,7.66846c-0.03105,0.66182 -0.05654,0.73564 0.1377,1.35703c-2.68564,-0.51973 -14.49727,-7.47217 -18.55635,-9.19482l-1.02773,-0.26748c-0.4834,-2.04023 -0.59678,-2.56729 -0.56104,-4.68252z" fill="#afadae"/><path d="M111.60146,195.39961c-0.00879,-0.88945 -0.13125,-0.68672 0.26191,-1.35791c1.15371,0.01934 1.58818,0.50332 2.67773,1.13965c-0.96504,0.77959 -0.91113,0.48369 -1.07988,1.46777c-0.61084,1.03857 -0.2499,5.94492 -0.40166,7.68926c-0.48486,-0.38086 -0.76582,-0.64951 -1.32891,-0.89033c0.0167,-2.68359 -0.02637,-5.36689 -0.1292,-8.04844z" fill="#c8c8ca"/><path d="M118.27676,197.59248c3.53555,0.59561 8.42666,4.63154 11.84707,6.34189c-0.8543,0.36797 -1.21553,0.48926 -1.95967,1.09336c-1.30752,-1.78828 -7.64414,-5.89424 -9.2417,-6.38438z" fill="#afadae"/><path d="M113.46123,196.64912c0.16875,-0.98408 0.11484,-0.68818 1.07988,-1.46777l3.73564,2.41113l0.6457,1.05088c-0.23848,0.66504 -0.24551,0.69199 -0.72246,1.20117c-1.83135,0.04893 -3.30293,-1.83955 -4.73877,-3.19541z" fill="#faf9f8"/><path d="M130.12383,203.93438c1.11855,0.55342 2.65518,1.25244 3.64717,1.94854c0.67412,7.81553 0.38584,20.74102 0.17783,28.83691c-0.88594,-0.46523 -2.41318,-1.20469 -3.21299,-1.70625c-1.05029,-1.69805 -0.7541,-0.59502 -1.3626,-2.77588c-0.69727,-0.50391 -0.70312,-0.35449 -1.64854,-0.40752c-0.43008,-0.86602 -0.71514,-1.34854 -0.14326,-2.13135c1.42324,-0.18516 3.29619,1.43262 4.44229,2.29365c0.03486,-2.54121 0.35596,-10.20791 -0.14795,-12.39961c-0.19424,-0.62139 -0.16875,-0.69521 -0.1377,-1.35703c0.19453,-1.81641 0.47578,-5.33145 0.23232,-7.03799c-0.21621,-1.51494 -2.47588,-1.24014 -3.80625,-4.17012c0.74414,-0.6041 1.10537,-0.72539 1.95967,-1.09336z" fill="#c8c8ca"/><path d="M111.60498,218.80605l1.11064,-0.41367c2.12783,2.34316 4.12881,1.73496 4.98633,2.98564c-0.06064,0.83027 -0.34014,2.09355 0.20713,2.58105c1.82549,1.62598 7.63359,5.5043 9.81562,5.87109c0.94541,0.05303 0.95127,-0.09639 1.64854,0.40752c0.6085,2.18086 0.3123,1.07783 1.3626,2.77588c-3.26865,-1.59873 -18.90996,-9.10166 -20.146,-11.56172c0.72422,-1.14932 0.81094,-1.3084 1.01514,-2.6458z" fill="#afadae"/><path d="M108.71514,193.98223l1.37051,0.36855c-0.06621,2.51924 -0.47959,9.36738 0.29355,11.47441l0.38965,0.17344c1.48096,-1.69102 0.12422,-7.39365 0.83262,-10.59902c0.10283,2.68154 0.1459,5.36484 0.1292,8.04844c-0.03574,2.11523 0.07764,2.64229 0.56104,4.68252l1.02773,0.26748c-1.18301,3.3583 -0.10166,7.47686 -0.60381,9.99434l-1.11064,0.41367c-0.2042,1.3374 -0.29092,1.49648 -1.01514,2.6458l-0.70664,-0.18926l-0.39316,0.00879c0.07412,-1.98223 0.70195,-3.62109 -1.36406,-4.19678c0.18662,-0.10928 0.50801,-0.24609 0.53115,-0.41279c0.37529,-2.71729 0.46992,-9.20508 -0.18838,-11.65342c-3.80771,-1.58994 -7.39541,-3.67617 -11.0001,-5.66895c-1.83457,-1.01396 -6.23672,-2.77031 -6.76699,-4.99893c1.5375,-0.26631 15.41631,8.0877 18.06475,9.38672c-0.15908,-2.75303 -0.0501,-6.89268 -0.05127,-9.74502z" fill="#afadae"/><path d="M112.2917,208.13057l1.02773,0.26748c-1.18301,3.3583 -0.10166,7.47686 -0.60381,9.99434l-1.11064,0.41367c-0.38525,-0.88857 -0.32754,-2.2582 -0.35156,-3.26543c0.06885,-3.38086 0.25488,-4.16777 1.03828,-7.41006z" fill="#828184"/><path d="M109.8832,221.2626c-0.17461,-2.70762 -0.12803,-5.47969 0.43242,-8.14453l0.59297,0.28975l-0.42129,-0.59238l0.18018,-0.03662c0.65684,0.73037 0.54609,1.73584 0.58594,2.76182c0.02402,1.00723 -0.03369,2.37686 0.35156,3.26543c-0.2042,1.3374 -0.29092,1.49648 -1.01514,2.6458z" fill="url(#color-2)"/><path d="M89.3165,182.60391l0.20332,0.82061c-0.67031,5.78174 0.73447,14.41172 0.1043,20.45684c-0.10547,1.01074 -0.59854,4.71943 -0.36123,5.17324l0.52412,0.09902c1.09365,-1.25391 0.4084,-1.5665 1.59961,-1.9459c2.79932,0.60557 4.53574,4.53193 6.4418,6.29443c1.08105,0.99961 4.16924,2.34521 5.49053,3.37266c0.01025,0.47666 0.06123,0.58857 -0.16934,1.00488c-5.05342,-2.39414 -9.96973,-5.77793 -15.00791,-8.20254c0.26484,-1.12236 0.20156,-0.76963 -0.1459,-1.9585c0.24346,-1.0459 0.01172,-2.03936 0.06475,-3.12744c0.34102,-6.9958 -0.38291,-14.1498 0.36885,-21.09053c0,-0.00029 0.81826,-0.82734 0.88711,-0.89678z" fill="#c8c8ca"/><path d="M89.3165,182.60391l0.62695,-0.76875c1.93652,0.19775 15.72949,9.00205 18.68613,10.11035c1.22168,0.45791 1.3248,1.1959 1.45605,2.40527l-1.37051,-0.36855c-4.29023,-0.05391 -3.66211,-2.11729 -6.89912,-4.59844c-0.88711,-0.67998 -6.26338,-2.93672 -7.25596,-2.81162c-0.17607,0.63896 -0.1998,0.75879 -0.51826,1.33271c-1.62656,-0.14531 -1.66494,-2.39561 -4.3793,-4.37783l-0.14268,-0.10254z" fill="#faf9f8"/><path d="M103.31895,216.8748l0.13477,-1.43965c1.28936,-1.03154 3.38291,0.84082 4.67227,1.63945c2.06602,0.57568 1.43818,2.21455 1.36406,4.19678c-1.34648,-0.13389 -4.97695,-2.55879 -6.34043,-3.3917c0.23057,-0.41631 0.17959,-0.52822 0.16934,-1.00488z" fill="#c8c8ca"/><path d="M24.32514,145.01191c2.01454,0.95244 4.23612,2.06045 6.28512,2.87783c2.29131,0.52764 7.30342,3.54521 8.93613,5.13428c1.81729,1.14492 5.9458,2.80488 6.61582,4.12939l-0.0835,1.40479c0.09463,1.12295 0.17197,2.24707 0.23232,3.37207c0.1875,1.05703 0.38613,2.1123 0.59619,3.16523l0.3293,0.12217c0.20186,-0.46699 0.36914,-0.85723 0.53672,-1.3377c-0.08906,1.31543 -0.44971,3.23174 -0.05771,4.34561l0.62168,0.58975l-0.22236,0.77813c-0.62549,0.51768 -0.89062,0.65859 -1.04678,1.45869l-0.59385,0.479c0.41221,3.5209 0.37412,6.94248 0.7834,10.28936c-1.39922,1.1168 -1.22695,1.12324 -1.53018,3.11689l-0.04629,1.25889c-1.86797,-1.08223 -3.74912,-2.14102 -5.64316,-3.17666c-3.54346,-1.51699 -6.90703,-3.42393 -10.02832,-5.68535c-2.2137,-1.26211 -5.49823,-2.38682 -5.64343,-5.09854c-0.16688,-3.11602 -0.08106,-6.1875 -0.07298,-9.30732z" fill="#000000"/><path d="M24.32514,145.01191c2.01454,0.95244 4.23612,2.06045 6.28512,2.87783c0.26514,0.72598 0.29092,0.94336 0.79453,1.50381c-0.74883,1.1458 -0.41953,1.01953 -1.51289,1.39746c-1.606,-0.24844 -2.87001,-1.91016 -4.01921,-3.12188c0.49702,6.67148 -0.55037,18.40254 0.2296,23.74395c1.06163,0.18662 2.95655,0.34014 3.60064,1.08457c0.82002,2.14102 -0.11162,1.47949 1.53721,3.48984c-1.06406,0.6498 -0.75762,0.28271 -1.23047,1.34678c-2.2137,-1.26211 -5.49823,-2.38682 -5.64343,-5.09854c-0.16688,-3.11602 -0.08106,-6.1875 -0.07298,-9.30732z" fill="#faf9f8"/><path d="M43.61924,168.99873c-5.39678,-2.36865 -10.51582,-5.6042 -15.59314,-8.60479c-0.77344,-0.45703 -1.05861,-0.86455 -1.23688,-1.66172c1.80583,-0.40254 15.12876,7.44023 17.81851,8.81689l-0.12949,1.0793z" fill="#afadae"/><path d="M42.13447,157.9125c1.62188,-0.04482 1.71006,-0.2376 3.12627,0.81123l0.81797,-0.16553c0.09463,1.12295 0.17197,2.24707 0.23232,3.37207c0.1875,1.05703 0.38613,2.1123 0.59619,3.16523l0.3293,0.12217c0.20186,-0.46699 0.36914,-0.85723 0.53672,-1.3377c-0.08906,1.31543 -0.44971,3.23174 -0.05771,4.34561l0.62168,0.58975l-0.22236,0.77813c-0.62549,0.51768 -0.89062,0.65859 -1.04678,1.45869l-0.59385,0.479l-0.1626,-0.16582c-1.25127,-0.73535 -1.08604,-0.40605 -1.70039,-1.55098l-0.99199,-0.81563l0.85898,-0.37031l0.12949,-1.0793c0.31494,-1.39951 -0.02344,-7.32979 -0.23994,-8.87871c-0.65713,-0.62637 -1.20586,-0.54902 -2.2333,-0.75791z" fill="#c8c8ca"/><path d="M46.31104,161.93027c0.1875,1.05703 0.38613,2.1123 0.59619,3.16523l0.3293,0.12217c0.20186,-0.46699 0.36914,-0.85723 0.53672,-1.3377c-0.08906,1.31543 -0.44971,3.23174 -0.05771,4.34561l0.62168,0.58975l-0.22236,0.77813c-0.62549,0.51768 -0.89062,0.65859 -1.04678,1.45869l-0.59385,0.479l-0.1626,-0.16582c-0.21328,-2.64258 -0.03926,-6.68906 -0.00059,-9.43506z" fill="#242c2b"/><path d="M39.78516,181.17422c-0.00469,-0.90586 -0.11514,-1.454 0.42773,-2.14805c0.99229,0.04541 1.65381,0.70664 2.58955,1.32422c0.56514,0.18252 1.11709,0.23291 1.7083,0.26162c1.63008,1.25068 1.19883,2.32354 1.2167,4.32539l-0.04629,1.25889c-1.86797,-1.08223 -3.74912,-2.14102 -5.64316,-3.17666c0.01875,-0.86895 -0.0123,-1.00781 -0.25283,-1.84541z" fill="#faf9f8"/><path d="M44.61123,169.81436c0.61436,1.14492 0.44912,0.81562 1.70039,1.55098l0.1626,0.16582c0.41221,3.5209 0.37412,6.94248 0.7834,10.28936c-1.39922,1.1168 -1.22695,1.12324 -1.53018,3.11689c-0.01787,-2.00186 0.41338,-3.07471 -1.2167,-4.32539c-0.59121,-0.02871 -1.14316,-0.0791 -1.7083,-0.26162c0.72686,-0.09053 0.88096,-0.10312 1.54834,-0.39697c0.82646,-1.47832 0.31406,-7.89346 0.26045,-10.13906z" fill="#828184"/><path d="M31.24014,175.9875c1.20615,0.90996 7.35029,4.90078 8.54502,5.18672c0.24053,0.8376 0.27158,0.97646 0.25283,1.84541c-3.54346,-1.51699 -6.90703,-3.42393 -10.02832,-5.68535c0.47285,-1.06406 0.16641,-0.69697 1.23047,-1.34678z" fill="#c8c8ca"/><path d="M38.3748,153.60234l1.17158,-0.57832c1.81729,1.14492 5.9458,2.80488 6.61582,4.12939l-0.0835,1.40479l-0.81797,0.16553c-1.41621,-1.04883 -1.50439,-0.85605 -3.12627,-0.81123c-0.73184,-0.4834 -2.80869,-3.30234 -3.75967,-4.31016z" fill="#faf9f8"/><path d="M30.61025,147.88975c2.29131,0.52764 7.30342,3.54521 8.93613,5.13428l-1.17158,0.57832c-2.15098,-1.25508 -5.06074,-2.37861 -6.53994,-4.31309l-0.43008,0.1043c-0.50361,-0.56045 -0.52939,-0.77783 -0.79453,-1.50381z" fill="#afadae"/><path d="M55.02246,161.63936c2.96631,1.18828 11.5875,6.41104 13.72266,8.51426c0.52266,5.61475 0.68584,16.18945 0.28828,21.8335l-0.29033,1.41475c-0.30967,0.1998 -0.66738,0.44678 -0.98555,0.61963c-1.08896,-6.10254 0.5417,-15.92461 -0.23145,-22.37285c-0.12451,-1.0377 -2.00215,-0.88154 -2.79141,-1.60664c-3.29033,-3.02168 -5.99619,-5.24238 -9.82471,-7.53486z" fill="#c8c8ca"/><path d="M67.75752,194.02148c0.31816,-0.17285 0.67588,-0.41982 0.98555,-0.61963l0.29033,-1.41475c0.30908,6.62432 4.06348,3.20889 5.24648,6.54609c-0.03398,0.6542 -0.22002,1.38633 0.16025,1.74434c2.15215,2.02412 5.35928,2.85908 7.85889,4.64736c0.60732,-0.8001 1.01309,-1.55479 1.97842,-1.73496c2.36367,0.43564 2.60361,2.67129 3.71836,4.52871c0.34746,1.18887 0.41074,0.83613 0.1459,1.9585c-1.14375,-0.55576 -2.76094,-1.79092 -4.1458,-2.47471c-5.47734,-2.70469 -10.55596,-5.579 -15.7875,-8.72549c-0.06035,-2.25 0.05771,-2.16562 -0.45088,-4.45547z" fill="#faf9f8"/><path d="M47.25762,181.82051l0.33545,0.68848c1.96289,1.50439 4.91895,2.40117 5.47793,2.99268l-0.02607,0.44238l-1.04561,0.78662c0.15264,1.20586 8.32852,6.22266 9.69258,6.41045l-0.05332,0.60615l-1.01426,0.63105c-1.96787,-0.69053 -11.4123,-6.43887 -13.49883,-7.80967c-0.34893,-0.23848 -0.99756,-0.29736 -1.44434,-0.37236l0.04629,-1.25889c0.30322,-1.99365 0.13096,-2.0001 1.53018,-3.11689z" fill="#c8c8ca"/><path d="M47.25762,181.82051l0.33545,0.68848c-0.1125,1.06201 -0.26602,3.08467 -0.46758,4.05967c-0.34893,-0.23848 -0.99756,-0.29736 -1.44434,-0.37236l0.04629,-1.25889c0.30322,-1.99365 0.13096,-2.0001 1.53018,-3.11689z" fill="#171007"/><path d="M48.11484,169.59346c4.78242,4.15957 14.91973,6.90029 18.65537,11.37803l-0.11924,0.35566c-1.51406,-0.21299 -17.73896,-8.88896 -19.58291,-10.275c0.15615,-0.8001 0.42129,-0.94102 1.04678,-1.45869z" fill="#afadae"/><path d="M70.21816,182.74277c0.80977,0.22236 2.14219,0.71689 3.17256,1.27266c4.53398,2.44512 9.55107,5.20605 13.74434,8.1873c0.13447,0.39551 0.24521,0.72217 0.33252,0.97939c-2.46152,-0.65068 -16.68398,-8.34492 -17.24941,-10.43936z" fill="#c8c8ca"/><path d="M61.69189,193.14111l-0.01084,-1.27559c1.89697,-0.92607 4.01807,0.86543 4.846,2.49141c0.43945,0.86279 0.34043,2.6959 0.34219,3.65625c-2.06426,-1.1417 -4.28027,-2.59307 -6.24492,-3.63486l1.01426,-0.63105z" fill="#faf9f8"/><path d="M47.79785,158.65723l0.16465,-0.57832c1.29697,-0.08174 5.22188,2.81543 7.05996,3.56045l-0.1125,0.86777c-0.75088,0.86162 -0.45,0.74326 -1.4502,1.08838c-1.26123,-0.29766 -2.79082,-1.78857 -3.9835,-2.69561c-0.63662,0.13096 -0.65742,0.13682 -1.25391,-0.08291c-0.18164,-0.73506 -0.2959,-1.41738 -0.42451,-2.15977z" fill="#faf9f8"/><path d="M75.88154,175.44434l-0.41777,0.72129l-0.70635,0.11016c-1.8082,-0.75732 -4.70068,-3.09316 -4.55127,-5.24443c1.09072,-0.0668 4.1373,1.69687 5.16738,2.31797c0.11924,0.67998 0.20654,1.49531 0.50801,2.09502z" fill="#faf9f8"/><path d="M82.98984,177.58271c1.0623,0.66211 4.87031,2.59922 5.27607,3.03984c0.11807,1.00078 0.02168,1.22051 -0.2543,2.14687c-1.60078,0.44766 -5.06719,-3.01523 -6.26221,-4.13994z" fill="#faf9f8"/><path d="M75.37354,173.34932c3.26045,1.42588 4.86504,2.06924 7.61631,4.2334l-1.24043,1.04678c-1.16953,-1.01455 -4.40127,-3.44326 -5.86787,-3.18516c-0.30146,-0.59971 -0.38877,-1.41504 -0.50801,-2.09502z" fill="#c8c8ca"/><path d="M47.79785,158.65723c0.12861,0.74238 0.24287,1.42471 0.42451,2.15977c0.59648,0.21973 0.61729,0.21387 1.25391,0.08291c-1.19326,1.71357 -0.49512,6.05039 -1.13906,7.91543l-0.62168,-0.58975c-0.39199,-1.11387 -0.03135,-3.03018 0.05771,-4.34561z" fill-opacity="0.98431" fill="#828184"/><path d="M192.03574,196.30283c5.40586,0.96094 3.73887,8.14541 -0.66621,9.2458c-5.56025,-1.42588 -4.20557,-7.28027 0.66621,-9.2458z" fill="#01dff9"/><path d="M172.63799,224.69648c4.0793,0.49336 3.2584,4.70947 1.29434,6.99229c-0.79072,0.91875 -1.73525,1.2627 -2.82832,1.73379c-5.19463,-1.16631 -3.49248,-7.17393 1.53398,-8.72607z" fill-opacity="0.98824" fill="#01dff9"/><path d="M180.31113,202.02275c5.37158,-0.20361 6.91143,5.18057 2.82832,8.15479c-0.15527,0.04277 -0.31084,0.0832 -0.46699,0.12129c-5.98477,1.45928 -4.32539,-5.61006 -2.36133,-8.27607z" fill-opacity="0.98824" fill="#01dff9"/><path d="M190.81465,213.82412c5.77559,-0.81299 5.28867,5.6291 1.40859,8.29072c-0.4667,0.07617 -0.93896,0.11367 -1.41182,0.11221c-4.15488,-0.0375 -2.84414,-5.98857 0.00322,-8.40293z" fill="#01dff9"/><path d="M181.67402,218.71963c5.21543,1.3248 4.65029,7.27441 -0.26104,8.4668c-0.75029,0.19189 -0.81533,0.03955 -1.6251,-0.18457c-2.4876,-2.12197 -1.29111,-6.80361 1.88613,-8.28223z" fill="#01dff9"/><path d="M262.93154,165.99609c0.60059,0.00498 1.17627,0.24258 1.60547,0.6627c1.88584,1.83545 -1.02363,4.53867 -2.30361,5.69648c-0.51973,0.26162 -0.59209,0.22588 -1.19443,0.20068c-1.56387,-2.01211 0.36738,-5.05635 1.89258,-6.55986z" fill="#000000"/><path d="M272.0874,149.22773c0.45703,0.13975 0.68848,0.36416 1.06523,0.65273c1.35703,2.45186 -0.71162,4.94385 -2.45566,6.55957c-0.63252,0.09785 -0.65391,0.0791 -1.25742,-0.18281c-1.12734,-2.08066 1.30576,-5.54355 2.64785,-7.02949z" fill="#000000"/><path d="M254.59453,159.23994c0.42012,0.01523 0.97178,0.16846 1.26592,0.46582c2.08945,2.11084 -0.42539,4.58613 -1.84102,5.91445c-0.60645,0.28564 -0.6252,0.29619 -1.29727,0.16641c-1.30166,-1.92275 0.41982,-5.0707 1.87236,-6.54668z" fill="#000000"/><path d="M238.65498,179.78965c0.53613,0.06562 1.01865,0.2918 1.30518,0.75645c1.3875,2.24883 -1.3292,4.6333 -2.79902,5.65459c-0.33633,0.07061 -0.55459,0.00205 -0.90674,-0.04424c-1.3166,-2.32852 0.67617,-4.89932 2.40059,-6.3668z" fill="#000000"/><path d="M255.54141,170.41172c0.85459,0.21826 0.53613,0.04482 1.18916,0.75146c0.8584,2.62031 -1.29346,4.72764 -3.45088,5.79053c-0.20537,-0.05039 -0.50127,-0.29062 -0.69463,-0.42451c-1.01338,-2.39385 1.19502,-4.79736 2.95635,-6.11748z" fill="#000000"/><path d="M263.31064,176.48848c0.38291,0.14648 0.77227,0.3334 1.06963,0.62695c0.54844,0.54639 0.82969,1.30605 0.76846,2.07803c-0.1292,1.73818 -1.41006,2.85293 -2.59453,3.89883l-0.93076,0.14531c-1.98252,-1.43906 0.61084,-5.26934 1.68721,-6.74912z" fill="#000000"/><path d="M271.84951,161.86816c3.65186,1.28203 0.7834,4.85244 -1.06172,6.28623l-1.08574,-0.27539c-1.7332,-2.23623 0.51797,-4.46514 2.14746,-6.01084z" fill="#000000"/><path d="M246.63281,186.20332c0.43477,-0.01143 0.65654,0.19043 1.03184,0.42363c1.3834,2.21982 -0.08203,4.71182 -1.94238,6.10869l-1.1001,-0.22793c-1.75371,-1.83662 0.66299,-4.89434 2.01064,-6.30439z" fill="#000000"/><path d="M255.86221,180.92168c0.31172,0.14854 0.53086,0.35479 0.80566,0.57129c1.20586,2.88369 -0.65508,4.81436 -2.88457,6.41016c-0.32871,-0.02168 -0.49629,-0.11191 -0.81006,-0.22236c-0.79863,-2.18115 1.03301,-5.42695 2.88896,-6.75908z" fill="#000000"/><path d="M263.29512,154.59258c3.13096,1.98633 0.79336,4.87734 -1.07051,6.63779c-0.41426,-0.00908 -0.71133,-0.15469 -1.10039,-0.29854c-1.3418,-2.28955 0.56572,-4.70713 2.1709,-6.33926z" fill="#000000"/><path d="M246.82441,174.86279c3.40225,1.80732 0.88359,4.6207 -1.08311,6.29912c-1.03213,-0.09932 -0.64717,0.04541 -1.48301,-0.51943c-0.84814,-2.01533 1.30986,-4.33125 2.56611,-5.77969z" fill="#000000"/><path d="M272.08447,172.16484c0.29678,0.14648 0.71221,0.46055 0.99814,0.65918c1.24658,2.31445 -0.54844,4.47246 -2.23975,5.94287c-0.48691,-0.05742 -0.67646,-0.18398 -1.10889,-0.39434c-1.21318,-2.03906 0.79834,-4.92129 2.35049,-6.20771z" fill="#000000"/><path d="M246.76582,164.00244c0.48662,0.13535 0.6123,0.25898 1.04678,0.51826c1.36494,2.15244 -0.68936,4.45225 -2.38506,5.6499c-0.27715,-0.01289 -0.6583,-0.12012 -0.94072,-0.18457c-1.10742,-2.2125 0.49541,-4.64561 2.279,-5.98359z" fill="#000000"/><path d="M238.54775,191.50313l0.90732,0.18193c1.57295,1.9667 -0.70928,4.28555 -2.2582,5.4501c-0.42686,0.18574 -0.52881,0.11895 -0.9917,0.04687c-1.27969,-1.84189 0.74941,-4.58672 2.34258,-5.67891z" fill="#000000"/><path d="M238.56328,168.89385c0.61494,0.26426 0.66064,0.36973 1.125,0.87773c0.73096,2.25498 -0.86484,3.74092 -2.44512,5.10234l-0.81357,-0.23613c-1.23809,-2.13604 0.496,-4.37988 2.13369,-5.74395z" fill="#000000"/><path d="M231.05039,172.95732c3.45586,0.67646 1.50791,4.29551 -0.58506,5.69736c-0.57627,0.04512 -0.65771,-0.0416 -1.15781,-0.30908c-0.825,-1.62803 0.71279,-4.15283 1.74287,-5.38828z" fill="#000000"/><path d="M231.86865,184.15957c2.654,1.9998 -0.63135,4.75225 -2.0707,6.1084l-0.53291,-0.19365c-1.53105,-2.11934 1.07256,-4.53428 2.60361,-5.91475z" fill="#000000"/><path d="M229.40508,197.32998c0.48896,-0.74912 0.60439,-0.98672 1.36875,-1.51465c1.01807,0.14092 0.71748,0.10137 1.56826,0.99844c0.17197,1.8917 -0.14971,3.19365 -2.14629,3.93311l-0.85869,-0.07295c-0.82822,-1.03682 -0.58828,-2.23506 0.06797,-3.34395z" fill="#171007"/><path d="M229.40508,197.32998c0.48896,-0.74912 0.60439,-0.98672 1.36875,-1.51465c1.01807,0.14092 0.71748,0.10137 1.56826,0.99844c-0.9293,0.98086 -0.57275,0.86396 -1.76631,1.21348c-0.65801,-0.20273 -0.75527,-0.18867 -1.1707,-0.69727z" fill="#000000"/><path d="M224.45068,200.01094l0.83232,0.43594c1.15986,1.51436 0.25049,3.1084 -0.8502,4.29199l-0.89736,-0.33223c-1.03535,-1.65996 -0.22705,-3.02959 0.91523,-4.3957z" fill="#000000"/><path d="M224.57314,188.15391l0.85986,0.20918c1.2208,1.56914 0.05361,3.08086 -0.97998,4.43232c-2.86846,-0.63867 -0.83994,-3.17842 0.12012,-4.6415z" fill="#000000"/><path d="M224.51836,177.06709l0.71982,0.35449c1.12266,1.42061 0.5001,3.19687 -0.70928,4.32422c-2.23125,-1.24248 -1.21934,-3.15879 -0.01055,-4.67871z" fill="#000000"/><path d="M17.28659,122.2582c6.08681,4.1209 14.7472,8.36895 21.4345,12.17021l51.67793,29.00391c14.90303,8.36396 29.56875,17.35664 44.73047,25.26885c6.80947,3.55371 13.13525,8.87783 21.36211,7.2791c0.78574,-0.16055 1.56914,-0.33193 2.3499,-0.51416c0.45088,0.44561 0.89531,0.89736 1.3333,1.35527c-4.0582,1.1915 -10.1915,1.74873 -14.06514,-0.35391c-23.87959,-12.99287 -47.4375,-26.58867 -71.16914,-39.88154c-14.22275,-7.96699 -28.5249,-15.95449 -42.69053,-24.03252c-5.15443,-2.93936 -10.96869,-5.73604 -15.81407,-9.07236c0.16562,-0.75615 0.18574,-0.57305 0.85066,-1.22285z" fill="url(#color-3)"/><path d="M158.8415,195.46611c3.66445,-1.29902 6.67441,-2.97861 10.10391,-4.80498c9.11982,-4.85654 17.92412,-10.2627 26.87227,-15.43037l60.17842,-34.30107c7.62393,-4.34941 15.36328,-9.42715 23.3502,-13.12412c0.92871,-0.43008 1.19326,-0.27334 1.92539,0.0668l-79.35176,45.52676l-27.31816,15.74736c-3.68818,2.09561 -10.68662,6.34453 -14.42695,7.6749c-0.43799,-0.45791 -0.88242,-0.90967 -1.3333,-1.35527z" fill="#ffeb5a"/><path d="M13.57427,120.12158l0.39577,-0.55049c0.89575,0.15059 2.43149,1.8876 3.31655,2.68711c-0.66492,0.6498 -0.68505,0.4667 -0.85066,1.22285c-1.70637,-1.06377 -2.07583,-1.50938 -2.86166,-3.35947z" fill="#ffeb5a"/><path d="M114.779,115.20674c0.60088,-1.47598 1.76631,-2.77207 3.13066,-3.60645c14.54355,-8.89277 33.00937,-10.24658 49.04297,-4.8457c4.92861,1.65996 10.39102,3.89033 13.47686,8.26729c3.3627,4.07314 -2.03936,7.3793 -5.61533,8.20254c-2.51104,-0.75703 -4.13965,-1.8208 -6.39902,-3.13096c-5.50254,-3.19072 -9.91553,-4.2832 -16.19971,-3.46436c6.0082,1.26563 12.46143,2.51016 16.43877,7.63682c-0.31465,0.65977 -0.74268,1.63828 -1.08193,2.25059c-0.00762,0.31904 -0.01641,1.63154 -0.05859,1.86211c0.69521,0.07734 0.78018,0.34658 1.58906,0.26162c-0.19307,0.98203 -1.24658,2.21572 -2.07656,2.60566c-7.56592,3.5543 -12.89912,-5.49551 -21.51328,-3.99873c-2.05195,0.36738 -4.06641,0.91904 -6.01934,1.64824c-3.85752,1.43408 -10.72207,5.51016 -12.7752,-0.49658c-0.42656,-1.12734 0.15938,-2.70498 0.5877,-3.77168l-0.33662,-1.01338l-0.73418,-0.3668c4.51523,-3.97793 5.95371,-3.3709 8.9625,-5.70264c-3.47109,-0.83057 -9.18428,2.82393 -11.78027,5.05928c0.54229,0.09375 0.93516,0.1166 1.41416,0.39199c-0.88477,0.31758 -2.23125,-0.09932 -3.21943,-0.30645c-3.51562,0.60029 -6.00381,-1.28232 -7.22578,-4.50029c-0.42393,-1.34297 -0.37383,-1.83516 0.39258,-2.98213z" fill="#faf9f8"/><path d="M126.96943,123.61377c0.18252,-0.20742 0.37178,-0.40869 0.56719,-0.60439c5.41289,-5.4 14.56172,-6.5168 21.79395,-6.52119l2.88486,0.14092c6.0082,1.26563 12.46143,2.51016 16.43877,7.63682c-0.31465,0.65977 -0.74268,1.63828 -1.08193,2.25059c-0.00762,0.31904 -0.01641,1.63154 -0.05859,1.86211c0.69521,0.07734 0.78018,0.34658 1.58906,0.26162c-0.19307,0.98203 -1.24658,2.21572 -2.07656,2.60566c-7.56592,3.5543 -12.89912,-5.49551 -21.51328,-3.99873c-2.05195,0.36738 -4.06641,0.91904 -6.01934,1.64824c-3.85752,1.43408 -10.72207,5.51016 -12.7752,-0.49658c-0.42656,-1.12734 0.15938,-2.70498 0.5877,-3.77168z" fill="#faf9f8"/><path d="M127.30605,124.62715c0.56807,1.08105 1.07812,1.86064 2.32529,2.23945c6.81738,2.06924 14.07275,-10.26387 32.86523,1.18535c1.83604,-0.45908 3.32754,-0.78135 5.07568,-1.53545c-0.00762,0.31904 -0.01641,1.63154 -0.05859,1.86211c0.69521,0.07734 0.78018,0.34658 1.58906,0.26162c-0.19307,0.98203 -1.24658,2.21572 -2.07656,2.60566c-7.56592,3.5543 -12.89912,-5.49551 -21.51328,-3.99873c-2.05195,0.36738 -4.06641,0.91904 -6.01934,1.64824c-3.85752,1.43408 -10.72207,5.51016 -12.7752,-0.49658c-0.42656,-1.12734 0.15938,-2.70498 0.5877,-3.77168z" fill="#fda202"/><path d="M126.71836,128.39883l0.46025,-0.15293c1.81201,1.14287 3.59443,2.31797 5.729,1.66465c6.47725,-1.98223 13.15107,-5.82715 20.08594,-3.25312c3.33428,1.2375 7.21992,3.10898 10.78037,3.98877c1.72852,-0.8127 2.21602,-1.04092 3.73975,-2.26758c0.69521,0.07734 0.78018,0.34658 1.58906,0.26162c-0.19307,0.98203 -1.24658,2.21572 -2.07656,2.60566c-7.56592,3.5543 -12.89912,-5.49551 -21.51328,-3.99873c-2.05195,0.36738 -4.06641,0.91904 -6.01934,1.64824c-3.85752,1.43408 -10.72207,5.51016 -12.7752,-0.49658z" fill="#be5600"/><path d="M120.04922,118.33154c3.6835,-1.29609 6.84668,-3.57393 10.53311,-5.05781c11.20664,-4.51113 24.22617,-4.09482 35.27314,0.68496c3.32168,1.4373 5.49492,3.46172 9.35186,4.454c1.55713,-0.48164 2.59775,-0.70107 3.84346,-1.80469l1.37871,-1.58613c3.3627,4.07314 -2.03936,7.3793 -5.61533,8.20254c-2.51104,-0.75703 -4.13965,-1.8208 -6.39902,-3.13096c-5.50254,-3.19072 -9.91553,-4.2832 -16.19971,-3.46436l-2.88486,-0.14092c-7.23223,0.00439 -16.38105,1.12119 -21.79395,6.52119c-0.19541,0.1957 -0.38467,0.39697 -0.56719,0.60439l-0.73418,-0.3668c4.51523,-3.97793 5.95371,-3.3709 8.9625,-5.70264c-3.47109,-0.83057 -9.18428,2.82393 -11.78027,5.05928c0.54229,0.09375 0.93516,0.1166 1.41416,0.39199c-0.88477,0.31758 -2.23125,-0.09932 -3.21943,-0.30645c-3.51562,0.60029 -6.00381,-1.28232 -7.22578,-4.50029c-0.42393,-1.34297 -0.37383,-1.83516 0.39258,-2.98213c1.69834,2.45508 2.2043,2.43662 5.27021,3.1248z" fill="#fda202"/><path d="M120.56104,121.27236c13.09072,-7.53311 25.47217,-11.59658 40.55273,-6.74912c5.18291,1.66582 13.82549,10.4291 18.27158,3.79043c0.31289,-0.46729 -0.13975,-1.21582 -0.33457,-1.70566l1.37871,-1.58613c3.3627,4.07314 -2.03936,7.3793 -5.61533,8.20254c-2.51104,-0.75703 -4.13965,-1.8208 -6.39902,-3.13096c-5.50254,-3.19072 -9.91553,-4.2832 -16.19971,-3.46436l-2.88486,-0.14092c-7.23223,0.00439 -16.38105,1.12119 -21.79395,6.52119c-0.19541,0.1957 -0.38467,0.39697 -0.56719,0.60439l-0.73418,-0.3668c4.51523,-3.97793 5.95371,-3.3709 8.9625,-5.70264c-3.47109,-0.83057 -9.18428,2.82393 -11.78027,5.05928c0.54229,0.09375 0.93516,0.1166 1.41416,0.39199c-0.88477,0.31758 -2.23125,-0.09932 -3.21943,-0.30645l0.56074,-0.24961c-0.75908,-0.2417 -1.0377,-0.61289 -1.61191,-1.16719z" fill="url(#color-4)"/><path d="M122.17295,122.43955c5.79258,-3.72334 9.06738,-5.85732 16.39512,-6.69639c1.32598,-0.15176 10.11504,0.21094 10.7625,0.74502c-7.23223,0.00439 -16.38105,1.12119 -21.79395,6.52119c-0.19541,0.1957 -0.38467,0.39697 -0.56719,0.60439l-0.73418,-0.3668c4.51523,-3.97793 5.95371,-3.3709 8.9625,-5.70264c-3.47109,-0.83057 -9.18428,2.82393 -11.78027,5.05928c0.54229,0.09375 0.93516,0.1166 1.41416,0.39199c-0.88477,0.31758 -2.23125,-0.09932 -3.21943,-0.30645z" fill="#fda202"/><path d="M114.38643,118.18887c1.73936,0.1582 3.42598,2.17617 6.17461,3.0835c0.57422,0.5543 0.85283,0.92549 1.61191,1.16719l-0.56074,0.24961c-3.51562,0.60029 -6.00381,-1.28232 -7.22578,-4.50029z" fill="#de7000"/><path d="M101.87988,105.25371c2.40322,-5.2667 12.05361,-9.22266 17.27578,-11.17676c19.30488,-7.22373 43.46016,-6.15176 62.26699,2.14746c3.63604,1.60459 11.3918,5.36689 11.83213,9.66738c0.40371,0.50186 0.64863,0.68174 0.67705,1.28818c0.0208,0.48867 0.02725,0.97793 0.01934,1.46689c-0.02607,1.15605 -0.60352,2.18965 -1.45137,2.93232c-5.11494,4.48037 -13.08252,-2.14219 -17.39121,-4.40801c-9.51416,-5.00332 -20.08418,-6.2543 -30.56309,-6.42275c-10.65732,0.38936 -18.67441,3.13799 -27.97441,8.06777c-2.19141,1.16162 -4.4874,3.22734 -6.84492,3.74619c-3.675,0.80918 -6.3668,-0.6873 -7.88027,-4.04971c-0.41602,-1.1543 -0.55664,-2.17617 0.03398,-3.25898z" fill="#faf9f8"/><path d="M107.60889,108.81768c4.79443,-1.45957 9.61201,-5.88018 15.2332,-7.86738c17.61504,-6.22734 38.61328,-6.12158 55.37314,2.67422c5.57021,2.92324 9.19482,8.55059 15.03955,2.26729c0.40371,0.50186 0.64863,0.68174 0.67705,1.28818c0.0208,0.48867 0.02725,0.97793 0.01934,1.46689c-0.02607,1.15605 -0.60352,2.18965 -1.45137,2.93232c-5.11494,4.48037 -13.08252,-2.14219 -17.39121,-4.40801c-9.51416,-5.00332 -20.08418,-6.2543 -30.56309,-6.42275c-10.65732,0.38936 -18.67441,3.13799 -27.97441,8.06777c-2.19141,1.16162 -4.4874,3.22734 -6.84492,3.74619c-3.675,0.80918 -6.3668,-0.6873 -7.88027,-4.04971c-0.41602,-1.1543 -0.55664,-2.17617 0.03398,-3.25898c1.89551,2.30332 2.92061,2.64521 5.729,3.56396z" fill="#fda202"/><path d="M140.29102,100.13203c9.18457,-1.13994 22.16719,0.14795 30.74502,3.29092c5.13281,1.88086 10.42676,6.29121 15.39756,8.24736c3.3498,1.31836 5.77324,-2.10439 6.92197,-4.56621l0.57627,0.07588c0.0208,0.48867 0.02725,0.97793 0.01934,1.46689c-0.02607,1.15605 -0.60352,2.18965 -1.45137,2.93232c-5.11494,4.48037 -13.08252,-2.14219 -17.39121,-4.40801c-9.51416,-5.00332 -20.08418,-6.2543 -30.56309,-6.42275c-1.23896,-0.77109 -2.7249,-0.58857 -4.25449,-0.61641z" fill="#be5600"/><path d="M101.8459,108.5127c0.91641,0.30146 4.44287,3.47578 6.07002,3.16846c5.52305,-1.04268 11.1999,-6.55898 16.9752,-8.5125c5.63027,-1.9043 9.73359,-2.85937 15.3999,-3.03662c1.52959,0.02783 3.01553,-0.15469 4.25449,0.61641c-10.65732,0.38936 -18.67441,3.13799 -27.97441,8.06777c-2.19141,1.16162 -4.4874,3.22734 -6.84492,3.74619c-3.675,0.80918 -6.3668,-0.6873 -7.88027,-4.04971z" fill="#be5600"/><path d="M137.90273,136.3084c-0.67295,-7.20176 17.11816,-11.34668 19.5208,0.07207c0.61699,0.89707 0.6334,1.0957 0.84111,2.14248c-0.36504,9.24463 -16.06846,10.84746 -20.22832,3.07148c-0.46377,-0.51416 -1.08721,-2.68652 -1.06143,-3.47959c0.03838,-1.17686 0.19014,-1.07578 0.92783,-1.80645z" fill="#faf9f8"/><path d="M157.42354,136.38047c0.61699,0.89707 0.6334,1.0957 0.84111,2.14248c-0.36504,9.24463 -16.06846,10.84746 -20.22832,3.07148l1.08076,0.01406c0.12422,-0.49541 0.43271,-1.20557 0.62754,-1.70244c0.82441,0.58389 2.24707,1.33945 3.19043,1.69131c3.23232,1.23311 6.82705,1.09863 9.9583,-0.37178c2.12402,-1.01807 3.74912,-2.61504 4.53018,-4.84512z" fill="#fda202"/><path d="M139.11709,141.6085c4.19883,4.71152 10.47334,4.49033 15.46992,1.3459c2.75801,-1.73584 2.14102,-3.8959 3.03369,-4.69307l0.64395,0.26162c-0.36504,9.24463 -16.06846,10.84746 -20.22832,3.07148z" fill="#be5600"/><path d="M137.90273,136.3084c0.64219,1.59756 0.85898,2.13691 1.84189,3.59766c-0.19482,0.49688 -0.50332,1.20703 -0.62754,1.70244l-1.08076,-0.01406c-0.46377,-0.51416 -1.08721,-2.68652 -1.06143,-3.47959c0.03838,-1.17686 0.19014,-1.07578 0.92783,-1.80645z" fill="#fda202"/><path d="M168.6542,124.26592c1.05674,1.41504 0.69053,2.59775 0.44854,4.37432c-0.80889,0.08496 -0.89385,-0.18428 -1.58906,-0.26162c0.04219,-0.23057 0.05098,-1.54307 0.05859,-1.86211c0.33926,-0.6123 0.76729,-1.59082 1.08193,-2.25059z" fill="#de7000"/><path d="M286.02949,183.58652l0.58564,-1.1373l0.1333,0.22822c1.37842,1.72998 2.32646,4.53662 0.67324,6.404c-0.88242,0.70049 -2.14102,1.93887 -3.03896,2.45684c-4.6415,2.67686 -8.0666,6.94951 -12.55898,9.71602c-2.4542,1.51143 -5.34639,1.98135 -7.875,3.36738c-3.08203,-0.33984 -3.48926,0.87217 -5.86318,1.30166c2.69473,-1.80615 12.38115,-6.05303 12.57363,-9.25166c1.59961,-1.6749 10.91953,-5.50781 12.84844,-7.7502c1.32422,-1.53955 1.28262,-1.41621 1.27588,-3.57656z" fill="url(#color-5)"/><path d="M286.02949,183.58652l0.58564,-1.1373l0.1333,0.22822c1.37842,1.72998 2.32646,4.53662 0.67324,6.404c-1.20293,-1.66289 -0.21387,-2.89951 -1.39219,-5.49492z" fill="#afadae"/></g></svg></svg>